<svg width="122" height="220" viewBox="0 0 122 220" fill="none" xmlns="http://www.w3.org/2000/svg">
<path d="M153.87 213.455C153.983 213.51 154.082 213.588 154.163 213.686C154.243 213.784 154.302 213.898 154.335 214.021C154.368 214.144 154.375 214.273 154.356 214.4C154.336 214.526 154.29 214.646 154.221 214.753C153.958 215.035 153.65 215.27 153.311 215.447C152.481 215.877 151.585 216.196 150.769 216.661C148.53 217.897 146.127 218.786 143.635 219.298C142.327 219.589 142.348 219.54 141.201 218.465C138.808 216.224 136.367 214.038 133.973 211.79C132.625 210.492 131.223 209.174 129.928 207.765C127.609 205.163 125.377 202.478 123.105 199.841L116.618 192.216L110.024 184.583C107.961 182.176 105.696 179.921 103.902 177.305C101.327 173.551 98.205 170.29 95.4406 166.702C94.7663 165.842 94.1865 164.919 93.4853 164.1C92.7841 163.282 92.0491 162.747 91.4154 162.019C89.3926 159.611 87.3699 157.196 85.4348 154.733C83.4121 152.145 81.3152 149.55 79.3667 146.865C77.0158 143.604 74.7324 140.289 72.5164 136.922C69.5969 132.453 66.7786 127.901 63.9266 123.412C63.5085 122.718 63.1377 122.024 62.7669 121.33C62.6684 121.074 62.4805 120.864 62.2399 120.742C61.9994 120.62 61.7233 120.595 61.4656 120.671C58.9966 121.12 56.461 120.987 54.0489 120.283C51.7565 119.637 49.4034 119.242 47.1043 118.61C46.2841 118.328 45.5075 117.926 44.7984 117.417C43.524 116.598 42.3239 115.641 41.0226 114.877C38.6137 113.372 36.6687 111.195 35.4129 108.598C33.9529 106.069 32.9309 103.299 32.3923 100.41C31.9069 97.2116 31.5495 93.9921 31.2124 90.7725C30.9891 88.892 30.89 86.998 30.9157 85.1036C30.9156 82.071 31.4172 79.0606 32.3991 76.2013C32.4379 76.0959 32.4543 75.9832 32.4474 75.8707C32.4404 75.7582 32.4101 75.6485 32.3586 75.5491C31.3607 73.9671 30.3404 72.4035 29.2976 70.8585C29.1384 70.7134 28.9301 70.6386 28.7177 70.6504C28.3469 70.6504 27.9761 70.6504 27.6052 70.6504V69.4014C27.6833 69.3989 27.7599 69.379 27.8297 69.3431C27.8996 69.3071 27.961 69.256 28.0098 69.1932C28.2373 68.8241 28.4206 68.428 28.5559 68.0137L29.7628 68.1039C29.7087 68.2655 29.7022 68.44 29.7442 68.6055C29.7862 68.7709 29.8748 68.9199 29.9988 69.0337C30.9023 70.1438 31.7181 71.3373 32.5407 72.503C32.8845 73.0026 33.1407 73.5715 33.5588 74.3209C35.2848 71.9548 37.5503 70.7128 39.9438 69.7206L40.2944 70.6226C38.213 71.4072 36.3577 72.7199 34.9005 74.4389C34.5226 74.9671 34.2897 75.5902 34.2263 76.2429C34.0656 77.2838 33.962 78.3332 33.9161 79.3862C33.9153 79.5378 33.9497 79.6875 34.0166 79.8227C34.0834 79.9579 34.1808 80.0747 34.3004 80.1633C34.9615 80.4334 35.6368 80.665 36.3232 80.8572C37.7536 81.2463 39.2363 81.3916 40.7125 81.2873C41.5013 81.2873 42.2902 81.2873 43.079 81.2873V82.6751C41.7306 82.6751 40.4428 82.6751 38.8718 82.6751C39.6135 83.7783 40.2203 84.6457 40.7597 85.5061C41.2991 86.3665 41.8384 87.0811 42.3441 87.886C43.1465 89.1419 43.9016 90.4325 44.7107 91.6815C45.331 92.6321 46.2278 93.4578 46.6053 94.4916C47.1312 95.9488 48.473 96.15 49.4237 96.9341C49.4843 96.9826 49.6664 96.9341 49.754 96.8647C51.0486 95.9696 52.2555 96.9271 53.4961 97.059C53.844 97.0733 54.1796 97.1956 54.4588 97.4098C54.738 97.6241 54.9477 97.9202 55.0603 98.2593C55.3974 99.3418 55.5862 100.487 56.3683 101.389C56.4695 101.514 56.2874 101.944 56.1795 102.214C56.0704 102.412 55.9391 102.596 55.7885 102.763C56.5366 103.145 57.2616 103.574 57.9595 104.046C58.6945 104.58 59.3957 105.226 59.2136 106.308C59.1281 106.813 58.8862 107.275 58.524 107.627C58.1618 107.978 57.6989 108.2 57.2044 108.258L56.2874 108.494C56.483 108.764 56.5908 108.896 56.6852 109.042C57.6426 110.43 58.6203 111.818 59.5373 113.247C60.1036 114.107 60.5621 115.044 61.115 115.911C61.978 117.257 62.9287 118.534 63.758 119.901C65.538 122.836 67.1966 125.834 69.0036 128.741C70.8106 131.648 72.7591 134.521 74.647 137.407C75.6786 138.989 76.6697 140.606 77.762 142.133C79.2049 144.124 80.7556 146.018 82.2322 147.982C83.1761 149.238 83.992 150.605 84.9898 151.812C86.8642 154.06 88.8533 156.211 90.7479 158.445C92.9998 161.103 95.2113 163.795 97.4228 166.487C99.277 168.735 101.097 171.025 102.952 173.273C106.44 177.492 109.935 181.704 113.436 185.909C116.234 189.288 119.026 192.688 121.837 196.06C123.86 198.454 125.802 200.875 127.905 203.172C130.413 205.92 132.991 208.605 135.639 211.228C137.662 213.233 139.86 215.051 141.909 217.029C142.16 217.302 142.474 217.504 142.822 217.616C143.171 217.728 143.541 217.745 143.898 217.667C146.414 217.229 148.822 216.286 150.985 214.891C151.915 214.302 151.915 214.281 151.18 213.504C149.285 211.561 147.377 209.632 145.483 207.689C143.42 205.608 141.329 203.491 139.293 201.347C137.574 199.543 135.922 197.656 134.216 195.852C133.104 194.679 132.234 193.25 130.656 192.528C130.016 192.23 129.645 191.321 129.099 190.745C127.609 189.149 126.044 187.622 124.588 185.992C121.635 182.703 118.729 179.372 115.823 176.042C114.34 174.335 112.924 172.573 111.427 170.873C109.93 169.173 108.251 167.632 106.855 165.856C104.657 163.08 102.614 160.152 100.538 157.273C98.5151 154.497 96.5868 151.722 94.6315 148.891C93.8359 147.753 93.0942 146.573 92.3323 145.421C90.8153 143.083 89.2578 140.773 87.7812 138.406C86.6283 136.568 85.5832 134.646 84.4572 132.779C82.8121 130.041 81.1557 127.309 79.488 124.585C78.4969 122.954 77.526 121.303 76.454 119.728C75.6853 118.576 74.7346 117.556 73.9188 116.439C71.8489 113.615 69.8059 110.77 67.763 107.925C67.3922 107.411 67.0888 106.87 66.7179 106.35C66.37 105.893 66.0481 105.416 65.7538 104.92C65.2885 104.053 64.6885 104.546 64.1221 104.678C63.8122 104.76 63.4865 104.757 63.1783 104.667C62.8702 104.578 62.5907 104.405 62.3685 104.168C62.1463 103.931 61.9893 103.637 61.9135 103.317C61.8378 102.997 61.8461 102.662 61.9376 102.346C62.0744 101.929 62.2319 101.519 62.4095 101.118L63.1984 101.257C63.1984 101.562 63.1984 101.895 63.1984 102.228C63.1945 102.382 63.2236 102.535 63.2837 102.676C63.3438 102.817 63.4334 102.943 63.546 103.044C63.6587 103.146 63.7917 103.22 63.9355 103.263C64.0794 103.305 64.2306 103.314 64.3783 103.29C65.2009 103.29 65.0525 102.596 65.0997 102.089C65.103 102.034 65.103 101.978 65.0997 101.923L66.4482 101.854C66.4449 101.904 66.4449 101.955 66.4482 102.006C66.4087 102.648 66.5173 103.29 66.7651 103.88C67.6349 105.219 68.6665 106.454 69.6374 107.724C70.3723 108.681 71.1342 109.625 71.8489 110.603C73.4131 112.74 74.9571 114.891 76.5012 117.049C76.7843 117.445 77.0338 117.59 77.5327 117.313C79.7915 116.078 82.0636 114.871 83.5335 112.581L84.6999 113.143C84.3561 113.622 84.0257 114.086 83.6346 114.531C82.2145 116.228 80.427 117.559 78.416 118.416C78.234 118.499 78.0654 118.617 77.8159 118.756C78.443 119.728 79.0768 120.637 79.6431 121.594C80.6949 123.384 81.6658 125.23 82.7446 127.006C84.0931 129.178 85.482 131.308 86.7901 133.473C87.7273 134.986 88.5768 136.561 89.5275 138.073C90.7411 140.009 92.0222 141.904 93.2695 143.819C94.618 145.942 95.9665 148.093 97.3824 150.195C98.3331 151.632 99.3512 153.012 100.349 154.407C101.987 156.676 103.572 158.98 105.284 161.179C106.997 163.379 108.979 165.717 110.867 167.944C112.867 170.317 114.89 172.667 116.935 174.994C117.825 176.021 118.803 176.972 119.686 177.999C121.035 179.615 122.383 181.281 123.732 182.856C124.406 183.619 125.154 184.292 125.869 185C127.447 186.575 129.025 188.143 130.589 189.725C131.324 190.474 132.038 191.238 132.753 192.015C135.275 194.742 137.776 197.51 140.325 200.223C142.01 202.006 143.77 203.727 145.496 205.476C147.836 207.849 150.162 210.236 152.529 212.588C152.921 212.958 153.376 213.252 153.87 213.455ZM56.6111 119.117C58.1831 119.208 59.7587 119.208 61.3307 119.117L58.3911 114.517C57.7168 113.42 56.9954 112.324 56.2537 111.249C56.1189 111.047 55.7345 110.818 55.5795 110.881C53.8332 111.498 52.2083 110.978 50.6912 110.249C48.8708 109.389 47.0166 108.48 46.0996 106.523C45.6658 105.33 45.301 104.111 45.0074 102.874C44.6289 101.816 44.5324 100.673 44.728 99.5638C44.9237 98.4547 45.4042 97.4197 46.1199 96.5663L45.8637 96.1986C44.677 94.4847 43.4499 92.7986 42.3104 91.0501C40.5304 88.3162 38.7976 85.5408 37.0379 82.793C36.9317 82.6517 36.7857 82.5475 36.6198 82.4947C35.386 82.0784 34.1454 81.6829 32.6418 81.1971C32.5879 83.2788 32.453 85.284 32.5002 87.2754C32.5474 89.2668 32.7429 91.0639 32.9385 92.9513C33.134 94.8386 33.3295 96.719 33.6127 98.5855C33.8969 100.634 34.4907 102.624 35.3725 104.483C36.2692 106.26 37.1322 108.084 38.1841 109.771C39.2359 111.457 40.8338 112.546 42.4453 113.705C45.1004 115.693 48.0939 117.153 51.2711 118.007C53.0293 118.48 54.8121 118.851 56.6111 119.117ZM57.6292 106.579C57.6458 106.373 57.6175 106.166 57.5463 105.972C57.4751 105.779 57.3629 105.605 57.2179 105.462C56.0852 104.643 54.9389 103.658 53.5163 104.601C53.2883 104.425 53.0361 104.285 52.7679 104.185C52.6735 104.185 52.4375 104.449 52.4038 104.622C52.3622 105.099 52.4816 105.576 52.742 105.973C53.0024 106.37 53.3878 106.662 53.8332 106.801C54.7716 106.934 55.7177 107.001 56.665 107.002C57.0156 107.002 57.6157 106.759 57.6359 106.579H57.6292ZM50.6373 108.473C52.0397 109.014 53.3342 109.805 55.067 109.75C54.9324 109.379 54.7103 109.049 54.4208 108.788C54.1313 108.528 53.7834 108.346 53.4084 108.258C52.2555 107.973 51.1834 107.363 51.0014 106.024C50.8733 105.066 50.7317 104.414 49.754 103.907C48.7764 103.401 48.5067 102.221 48.9989 101.063C47.6504 100.882 47.4886 100.681 47.6032 99.2724C47.6032 98.9393 47.6571 98.5785 47.7111 98.2732C47.8055 97.6349 47.4144 97.5447 47.0368 97.7598C46.7644 97.972 46.5696 98.2728 46.484 98.6132C46.0947 100.125 46.1392 101.72 46.6121 103.207C47.1717 105.594 48.2437 107.564 50.644 108.473H50.6373ZM54.649 102.145C54.6895 101.972 54.7232 101.805 54.7636 101.632C54.3524 101.354 53.9478 100.868 53.5298 100.847C52.7657 100.903 52.0078 101.026 51.2643 101.215C50.8463 101.278 50.1721 101.146 50.3608 101.819C50.489 102.305 51.1093 103.04 51.4396 103.005C52.5321 102.806 53.6075 102.519 54.6558 102.145H54.649ZM49.2551 99.6124C50.7678 100.036 52.3749 99.9264 53.8197 99.3001C53.5365 98.4814 53.105 98.1344 52.3633 98.183C52.0709 98.2226 51.7735 98.1745 51.5071 98.0442C50.5968 97.51 49.9428 98.2246 49.2214 98.5091C48.7899 98.6826 48.8438 99.5152 49.2551 99.6124Z" fill="#36464E"/>
<path d="M151.173 213.566C151.908 214.322 151.908 214.343 150.978 214.953C148.815 216.348 146.408 217.291 143.892 217.729C143.535 217.807 143.164 217.79 142.816 217.678C142.467 217.566 142.153 217.364 141.903 217.09C139.88 215.113 137.655 213.295 135.632 211.29C132.989 208.667 130.411 205.982 127.899 203.234C125.802 200.937 123.853 198.516 121.83 196.122C119.019 192.75 116.227 189.35 113.429 185.971C109.937 181.761 106.442 177.549 102.945 173.335C101.091 171.087 99.2703 168.797 97.4162 166.549C95.2046 163.857 92.9931 161.165 90.7412 158.507C88.8466 156.273 86.8575 154.122 84.9832 151.874C83.9853 150.667 83.1694 149.3 82.2255 148.044C80.7489 146.08 79.1982 144.186 77.7553 142.195C76.6563 140.668 75.6719 139.051 74.6403 137.469C72.7524 134.583 70.8174 131.731 68.9969 128.803C67.1765 125.875 65.5313 122.898 63.7513 119.963C62.922 118.575 61.9713 117.319 61.1083 115.973C60.5554 115.106 60.0969 114.169 59.5306 113.309C58.6136 111.921 57.636 110.533 56.6785 109.104C56.5841 108.958 56.4763 108.826 56.2807 108.556L57.1977 108.32C57.69 108.253 58.1482 108.025 58.5041 107.668C58.8601 107.312 59.0947 106.847 59.1732 106.342C59.3553 105.26 58.6541 104.615 57.9191 104.08C57.2223 103.623 56.4996 103.208 55.7548 102.838C55.9055 102.672 56.0367 102.488 56.1459 102.29C56.2538 102.02 56.4358 101.596 56.3347 101.465C55.5526 100.563 55.3638 99.4176 55.0267 98.3352C54.914 97.9961 54.7043 97.7 54.4252 97.4857C54.146 97.2715 53.8104 97.1492 53.4624 97.1348C52.2218 97.003 51.0149 96.0455 49.7204 96.9405C49.6327 96.9961 49.4507 97.0585 49.39 97.0099C48.4393 96.2259 47.0976 96.0246 46.5717 94.5675C46.1941 93.5337 45.2974 92.708 44.6771 91.7574C43.868 90.5084 43.1128 89.2178 42.3105 87.9619C41.8048 87.157 41.2519 86.373 40.726 85.582C40.2001 84.7909 39.5798 83.8542 38.8381 82.751C40.4091 82.751 41.7306 82.751 43.0454 82.751C44.3602 82.751 45.5333 82.8342 46.7672 82.9522C48.1831 83.084 49.599 83.2853 51.0014 83.5004C51.2545 83.5642 51.4756 83.7224 51.6217 83.9444C52.9702 85.8873 54.258 87.844 55.566 89.7937C56.6246 91.3688 57.6899 92.9369 58.7013 94.5328C58.8226 94.7271 58.7013 95.1781 58.5597 95.4279C57.7506 96.8781 58.2967 98.2034 59.8744 98.5087C60.3262 100.826 60.4745 100.993 62.3961 101.201C62.2185 101.602 62.0609 102.012 61.9241 102.429C61.8327 102.745 61.8244 103.08 61.9001 103.4C61.9758 103.72 62.1328 104.014 62.3551 104.251C62.5773 104.488 62.8568 104.66 63.1649 104.75C63.473 104.839 63.7987 104.843 64.1087 104.76C64.675 104.629 65.2751 104.136 65.7403 105.003C66.0423 105.487 66.371 105.953 66.7247 106.398C67.0753 106.918 67.399 107.46 67.7698 107.973C69.7925 110.818 71.8557 113.663 73.9256 116.487C74.7414 117.604 75.6921 118.624 76.4608 119.776C77.5328 121.351 78.4835 123.002 79.4948 124.633C81.158 127.362 82.8144 130.093 84.464 132.827C85.59 134.694 86.6351 136.616 87.788 138.455C89.2646 140.821 90.8221 143.131 92.3391 145.47C93.101 146.635 93.8427 147.815 94.6383 148.939C96.5936 151.714 98.5489 154.545 100.545 157.321C102.621 160.2 104.664 163.115 106.862 165.904C108.258 167.68 109.93 169.228 111.434 170.921C112.937 172.614 114.346 174.39 115.83 176.09C118.736 179.42 121.642 182.751 124.595 186.04C126.051 187.671 127.615 189.197 129.105 190.793C129.652 191.369 130.022 192.278 130.663 192.576C132.241 193.27 133.11 194.727 134.223 195.9C135.942 197.704 137.594 199.591 139.3 201.395C141.323 203.539 143.426 205.628 145.49 207.737C147.371 209.694 149.279 211.644 151.173 213.566Z" fill="#975A3C"/>
<path d="M95.373 48.0646C95.7574 49.1262 96.0001 50.1046 95.4202 51.2078C95.1293 51.9042 94.9276 52.6366 94.8202 53.3866C94.5842 54.4204 94.3684 55.4196 93.3638 56.0649C92.8225 56.4735 92.3643 56.9874 92.0153 57.5775C91.1186 58.9098 89.6959 59.4996 88.4756 60.353C88.2486 60.4791 88.0473 60.6487 87.8822 60.8526C87.2956 61.8795 86.8304 62.0738 85.6437 61.9489C85.1966 61.9599 84.7553 62.0564 84.3425 62.2334C83.9177 62.3444 83.4929 62.4693 82.994 62.615L82.7378 61.6852C83.0479 61.5812 83.3513 61.4424 83.675 61.3522C84.2616 61.1857 84.8616 61.0677 85.4617 60.922C85.8478 60.8715 86.2247 60.764 86.5809 60.6028C86.999 60.353 87.3159 59.9089 87.7204 59.6661C88.125 59.4232 88.7992 59.1318 89.2374 58.7571C90.1486 57.9764 91.0069 57.1326 91.8063 56.2314C92.4805 55.4543 93.3638 54.7951 93.3705 53.5462C93.3533 52.9042 93.4973 52.2685 93.7886 51.7005C94.6583 50.2295 94.2471 48.925 93.5189 47.5997C93.1754 47.034 93.0149 46.3709 93.0604 45.7055C93.2194 44.947 93.1937 44.1598 92.9854 43.4141C92.7772 42.6683 92.393 41.9872 91.867 41.4313C91.5382 41.1148 91.3149 40.6995 91.2289 40.2448C91.1429 39.79 91.1987 39.3189 91.3883 38.8986C91.465 38.6067 91.4363 38.2961 91.3074 38.0244C90.9339 37.1294 90.5176 36.2541 90.06 35.4015C89.8699 35.0266 89.5605 34.7302 89.1835 34.562C88.5168 34.4157 87.8409 34.3183 87.1608 34.2705C85.4594 34.0281 83.7281 34.1414 82.0703 34.6036L81.8006 33.4171L85.6033 32.4734C85.4691 32.3896 85.3237 32.3265 85.1718 32.2861C82.785 31.8351 80.3982 31.4396 78.0248 30.94C75.5234 30.4057 73.0624 30.8151 70.6082 31.0857C68.9158 31.273 67.183 31.7032 65.5379 30.7457C64.6687 30.2242 63.7679 29.7606 62.8409 29.358C60.7305 28.4768 58.4516 28.6641 56.2468 28.449C54.6826 28.2894 53.0712 28.6294 51.4732 28.7404C48.9313 28.9139 46.4366 29.2123 44.4679 30.822C43.47 30.3433 42.58 29.8645 41.6495 29.4898C41.0858 29.3105 40.5084 29.1805 39.9235 29.1012C38.2716 28.7751 36.613 28.4698 34.9746 28.1021C34.5028 28.006 34.0252 27.9434 33.5452 27.9147L33.5924 26.8809C34.4015 26.9156 35.2173 26.9711 36.0264 27.0335C36.2057 27.0386 36.3841 27.0619 36.559 27.1029C38.6627 27.6372 40.7933 28.0674 42.8362 28.7612C43.7984 29.0306 44.8202 28.9647 45.7422 28.5739C47.8054 27.9772 49.9629 27.6857 52.0868 27.2694C55.2085 26.6658 58.337 27.1931 61.4183 27.5331C63.0904 27.7274 64.749 28.6225 66.2863 29.4412C67.0846 29.8986 68.0002 30.0923 68.9091 29.9963C70.8985 29.6662 72.904 29.4485 74.9166 29.3441C77.069 29.4512 79.2128 29.6968 81.3353 30.0796C82.5922 30.1721 83.8356 30.4047 85.0437 30.7735C87.235 31.5922 89.5543 32.3555 91.1118 34.2428C91.9816 35.2836 92.3524 36.7685 92.9255 38.066C92.9608 38.1516 92.9789 38.2436 92.9789 38.3366C92.9789 38.4296 92.9608 38.5216 92.9255 38.6072C92.3052 39.7174 93.1143 40.3419 93.5998 41.1398C94.2874 42.4131 94.6472 43.8463 94.6449 45.303C94.7549 46.2553 95.0002 47.1858 95.373 48.0646Z" fill="#36464E"/>
<path d="M93.5459 47.6269C94.2741 48.98 94.6854 50.2567 93.8156 51.7277C93.5243 52.2957 93.3804 52.9314 93.3976 53.5734C93.3976 54.8223 92.5076 55.4815 91.8334 56.2586C91.034 57.1598 90.1757 58.0036 89.2645 58.7843C88.8263 59.159 88.2329 59.3533 87.7475 59.6933C87.262 60.0333 87.026 60.3872 86.608 60.63C86.2518 60.7912 85.8748 60.8987 85.4888 60.9492C84.8887 61.0949 84.2886 61.2129 83.702 61.3794C83.3784 61.4696 83.075 61.6084 82.7648 61.7124C82.6586 61.7467 82.5506 61.7745 82.4412 61.7957C82.2929 61.7957 81.9557 61.5945 81.9423 61.4557C81.8883 60.8035 81.4973 60.9492 81.1062 61.0047C80.4576 61.1266 79.8024 61.2077 79.1442 61.2475C79.0296 61.2548 78.9148 61.2548 78.8003 61.2475C78.1261 61.1851 78.0182 60.8243 78.1733 59.9916C78.5988 58.0939 78.8895 56.1668 79.043 54.2256C79.193 52.272 78.9638 50.3072 78.3688 48.4457C77.8226 46.9608 77.4653 45.4204 76.9057 43.9494C76.5623 43.1354 76.1327 42.3628 75.6246 41.6458C75.065 40.7923 74.4447 39.9805 73.8379 39.134C75.1464 37.5407 76.8358 36.3258 78.7396 35.6092C79.8386 35.2414 80.9444 34.8667 82.0636 34.5822C83.7214 34.12 85.4528 34.0068 87.1541 34.2492C87.8342 34.297 88.5102 34.3944 89.1769 34.5406C89.5539 34.7089 89.8633 35.0052 90.0534 35.3802C90.5212 36.2435 90.9465 37.1304 91.3277 38.0377C91.4566 38.3094 91.4854 38.6201 91.4086 38.912C91.219 39.3322 91.1633 39.8033 91.2492 40.2581C91.3352 40.7129 91.5585 41.1281 91.8873 41.4446C92.4133 42.0005 92.7975 42.6817 93.0058 43.4274C93.214 44.1732 93.2397 44.9603 93.0807 45.7188C93.0344 46.3896 93.1973 47.0581 93.5459 47.6269Z" fill="white"/>
<path d="M91.4627 89.3772C91.817 93.0331 91.6831 96.7217 91.0649 100.34C90.5411 103.377 89.3916 106.264 87.6937 108.805C86.7025 110.27 85.7451 111.761 84.7068 113.191L83.5403 112.629C84.99 110.374 86.6351 108.209 87.7948 105.801C89.2818 102.867 90.0327 99.5968 89.9793 96.2881C89.8782 93.0894 89.8782 89.8768 89.595 86.6919C89.3221 83.4128 88.6424 80.1832 87.5723 77.0818C86.3324 73.5517 84.7012 70.1803 82.711 67.0347C81.9222 65.7788 81.1535 64.502 80.4725 63.1837C80.3629 62.9199 80.182 62.694 79.9514 62.5329C79.7207 62.3718 79.45 62.2822 79.1713 62.2747C79.0297 62.2747 78.8813 62.2747 78.7397 62.2192L78.8611 61.2409C78.9756 61.2481 79.0905 61.2481 79.205 61.2409C79.8632 61.201 80.5184 61.1199 81.167 60.998C81.5581 60.9425 81.9491 60.7968 82.0031 61.449C82.0031 61.5878 82.3537 61.8168 82.502 61.789C82.6114 61.7678 82.7194 61.74 82.8256 61.7058L83.0819 62.6355L82.1919 62.8992C82.7043 63.7804 83.156 64.6894 83.7224 65.5081C85.8037 68.6212 87.5044 71.9864 88.7859 75.5276C90.3974 79.9961 91.0783 84.6658 91.4627 89.3772Z" fill="#36464E"/>
<path d="M89.9523 96.2886C90.0057 99.5973 89.2547 102.867 87.7677 105.801C86.6081 108.209 84.9629 110.374 83.5133 112.629C82.0637 114.884 79.7712 116.098 77.5125 117.361C77.0136 117.639 76.7641 117.493 76.481 117.098C74.9369 114.94 73.3929 112.789 71.8287 110.652C71.114 109.673 70.3521 108.73 69.6172 107.772C68.6463 106.502 67.5945 105.267 66.7449 103.928C66.4971 103.338 66.3885 102.696 66.428 102.055C66.4247 102.004 66.4247 101.953 66.428 101.902C66.3539 100.473 66.2932 100.466 64.6952 100.077C64.8233 98.7518 64.7357 97.5167 63.3467 96.8159C63.2861 96.8159 63.2591 96.6702 63.2456 96.58C63.1822 95.9482 62.8935 95.3629 62.4352 94.9375C61.9769 94.512 61.3816 94.2764 60.7644 94.2764C60.5352 94.2764 60.2857 93.978 60.1306 93.756C58.6338 91.605 57.1505 89.454 55.6604 87.296L53.5096 84.2153L53.6377 84.014C53.9067 84.0607 54.1725 84.1256 54.4333 84.2083C57.2853 85.263 60.1037 86.4287 62.9894 87.3516C65.0112 87.9458 67.0672 88.4093 69.1452 88.7393C70.251 88.9474 70.4937 88.6699 70.6623 87.4764C69.6037 87.303 68.5114 87.1989 67.4664 86.9214C65.4436 86.3593 63.3535 85.7626 61.3308 85.0687C58.7417 84.1875 56.22 83.0981 53.6175 82.2933C52.1 81.8908 50.5447 81.6582 48.9787 81.5994C47.0032 81.4676 45.0276 81.3496 43.0521 81.308C42.2632 81.308 41.4744 81.308 40.6855 81.308C39.2094 81.4122 37.7267 81.2669 36.2962 80.8778C35.6099 80.6856 34.9346 80.454 34.2735 80.1839C34.1538 80.0953 34.0565 79.9785 33.9896 79.8434C33.9228 79.7082 33.8883 79.5585 33.8892 79.4068C33.9351 78.3539 34.0386 77.3045 34.1993 76.2635C34.2628 75.6108 34.4957 74.9877 34.8736 74.4595C36.3308 72.7405 38.186 71.4278 40.2675 70.6432C40.9905 70.395 41.7397 70.2366 42.4992 70.1714C42.8479 70.1045 43.1844 69.9828 43.4971 69.8106C44.7579 69.2485 45.8367 69.8938 46.9829 70.2893C48.9934 71.0926 51.0603 71.7374 53.1657 72.2183C57.2853 72.9122 61.4454 73.0856 65.4976 71.6424C66.2914 71.3907 67.0703 71.0918 67.8304 70.7473C69.5498 69.8869 71.3095 70.2338 73.076 70.4628C73.4152 70.5155 73.7618 70.4748 74.0807 70.3448C74.2036 70.273 74.3088 70.1731 74.3883 70.0528C74.4678 69.9325 74.5194 69.795 74.5391 69.651C74.5391 69.4567 74.1683 69.193 73.9188 69.1306C73.2446 68.9641 72.6108 68.8877 72.0984 68.8045C72.7726 68.0065 73.521 67.2155 74.1885 66.3759C75.1527 65.1755 76.1169 63.9751 76.9866 62.7054C77.3372 62.1988 77.6272 61.9699 78.207 62.1433C78.3531 62.1856 78.5018 62.2181 78.652 62.2405C78.7936 62.2405 78.9419 62.2821 79.0835 62.296C79.3616 62.2939 79.6345 62.3738 79.8699 62.5263C80.1053 62.6788 80.2933 62.8974 80.4118 63.1564C81.086 64.4747 81.8614 65.7514 82.6503 67.0073C84.6405 70.153 86.2717 73.5244 87.5115 77.0546C88.5816 80.1559 89.2614 83.3855 89.5343 86.6646C89.8512 89.8772 89.8511 93.0898 89.9523 96.2886Z" fill="#BBBABA"/>
<path d="M85.145 32.2858C85.297 32.3262 85.4424 32.3893 85.5766 32.4731L81.7941 33.4099L79.2454 34.0413C77.2771 34.5496 75.4729 35.5808 74.0133 37.0319C73.5481 37.4759 73.1368 38.0449 72.3277 37.6008C72.1255 37.4898 71.7142 37.7882 71.3973 37.8992C71.5456 38.1837 71.6737 38.482 71.8423 38.7457C72.2064 39.2939 72.6042 39.8073 72.9683 40.3555C73.4335 41.0493 73.838 41.7987 74.3167 42.4371C75.608 43.9848 76.4513 45.8744 76.7508 47.8909C76.9733 49.6394 77.3306 51.3602 77.5329 53.1157C77.6047 53.9665 77.5616 54.8235 77.4048 55.6622C77.0879 57.6258 77.007 59.6519 76.1372 61.4907C76.0964 61.571 76.049 61.6476 75.9956 61.7197C74.5932 63.6902 73.2986 65.751 71.2759 67.1665C70.3859 67.784 69.5364 68.4432 68.579 68.9636C67.9173 69.2955 67.2204 69.547 66.5023 69.713C64.8142 70.2714 63.0909 70.7095 61.3443 71.0244C59.6349 71.1621 57.9183 71.1784 56.2066 71.073C52.7748 71.073 49.653 69.7546 46.5245 68.5196C44.0307 67.5699 41.7554 66.0979 39.8428 64.1968C38.07 62.4978 36.886 60.2486 36.4716 57.7924C35.8718 54.2397 36.0189 50.596 36.9031 47.1068C37.599 43.9217 38.553 40.8023 39.7552 37.7812C40.099 37.0041 40.3418 36.1853 40.7126 35.429C41.0834 34.6727 40.7665 34.4368 40.2002 34.2772C39.8226 34.1662 39.445 34.0552 39.0674 33.958C36.7034 33.2704 34.2556 32.9362 31.7991 32.9658C31.7991 32.9658 31.7384 32.9658 31.7115 32.9658C30.1742 33.6597 28.5493 33.1393 26.9918 33.3544C26.4505 33.4527 25.9287 33.6426 25.4478 33.9164C24.9758 34.1662 24.6724 34.3258 24.3083 33.6944C23.3239 32.0083 23.3037 32.0499 24.8005 30.8564C25.3129 30.454 25.65 29.7671 26.2029 29.4687C27.2329 28.8848 28.3454 28.4704 29.5 28.2406C30.8162 28.0092 32.1494 27.8954 33.4847 27.9006C33.9648 27.9292 34.4424 27.9918 34.9141 28.0879C36.5525 28.4557 38.2112 28.7818 39.863 29.0871C40.448 29.1664 41.0254 29.2964 41.5891 29.4756C42.5196 29.8503 43.4095 30.3291 44.4074 30.8079C46.3762 29.1634 48.8709 28.865 51.4128 28.7263C53.0107 28.6152 54.6222 28.2752 56.1864 28.4348C58.3912 28.6569 60.6701 28.4348 62.7805 29.3438C63.7074 29.7465 64.6083 30.21 65.4774 30.7315C67.1226 31.6891 68.8486 31.2589 70.5477 31.0715C73.0289 30.8009 75.4899 30.3777 77.9644 30.9258C80.3714 31.4393 82.7582 31.8348 85.145 32.2858ZM68.8419 48.6403C69.1597 48.5345 69.4549 48.3673 69.7117 48.1476C69.7245 47.9737 69.6954 47.7992 69.6271 47.6396C69.5588 47.48 69.4533 47.3402 69.32 47.2325C69.1867 47.1248 69.0297 47.0526 68.8628 47.0222C68.6959 46.9918 68.5243 47.0042 68.3632 47.0582C65.8955 47.5995 63.4884 48.328 61.4725 50.0002C60.7904 50.5784 60.1567 51.2143 59.5778 51.9014C59.4974 52.0151 59.4464 52.1481 59.4299 52.2878C59.4134 52.4274 59.4318 52.5691 59.4834 52.6994C59.5754 52.7988 59.6908 52.8721 59.8183 52.9122C59.9459 52.9523 60.0814 52.9579 60.2116 52.9284C60.7821 52.6369 61.3259 52.2932 61.8365 51.9014C62.5108 51.4296 63.0569 50.8329 63.7244 50.3957C65.2801 49.4216 67.0294 48.8215 68.8419 48.6403ZM62.4299 60.3805C62.5569 60.2785 62.6559 60.1443 62.7174 59.991C62.7788 59.8378 62.8006 59.6707 62.7805 59.5062C62.698 59.3653 62.5852 59.2457 62.4508 59.1567C62.3164 59.0677 62.1639 59.0116 62.0051 58.9928C61.6864 59.0412 61.3836 59.1673 61.1218 59.3605C60.1577 59.874 59.207 60.3944 58.1282 60.9842C58.1184 60.7993 58.1184 60.614 58.1282 60.4291C58.6768 58.0668 58.548 55.5915 57.7574 53.303C57.6652 52.8011 57.4648 52.3269 57.1708 51.9153C56.5039 51.2467 55.7395 50.6895 54.9054 50.2639C54.51 50.0809 54.0928 49.9525 53.6647 49.8823C52.4371 49.7042 51.1901 50.0225 50.1857 50.7704C49.9936 50.9045 49.8529 51.1032 49.7879 51.3325C49.5249 52.7202 49.2687 54.1496 49.0597 55.572C48.7495 57.6536 48.554 59.7352 49.4777 61.8168C48.9127 61.6854 48.3649 61.4851 47.8461 61.2201C47.3416 60.9113 46.8141 60.6444 46.2683 60.4221C46.0189 60.3389 45.5941 60.5886 45.3648 60.776C45.334 60.8835 45.3289 60.9971 45.3501 61.1071C45.3712 61.217 45.4179 61.3201 45.4862 61.4074C46.5164 62.1031 47.6065 62.7 48.7428 63.1907C49.889 63.6208 51.1363 63.6208 52.2758 64.3147C52.965 64.6147 53.7325 64.666 54.4536 64.4604C54.5817 64.4604 54.7031 64.398 54.8177 64.3563C55.7961 63.9412 56.7389 63.4422 57.636 62.8645C59.207 62.0388 60.8454 61.2617 62.4299 60.3805ZM57.3394 65.8412C56.9011 65.7371 56.5438 65.6053 56.1662 65.5567C55.2305 65.4882 54.3003 65.3561 53.3816 65.1612C52.4376 64.8698 52.0668 64.8976 51.4735 65.8135C52.7478 67.0902 56.3213 67.3192 57.3394 65.869V65.8412ZM47.5292 53.6292L48.581 52.9839C48.318 52.6716 48.109 52.2345 47.7786 52.0749C46.2616 51.3325 44.7243 50.6247 43.1466 49.9933C42.4243 49.7159 41.6588 49.5771 40.8879 49.5839C40.5238 49.5839 40.1597 50.0696 39.7956 50.3402C40.0855 50.5623 40.3755 50.9578 40.6721 50.9716C42.3323 51.1202 43.9318 51.6848 45.3311 52.6161C46.0444 52.9967 46.7783 53.335 47.5292 53.6292Z" fill="#BBBABA"/>
<path d="M81.7939 33.4102L82.0636 34.5967C80.9444 34.8812 79.8387 35.2558 78.7396 35.6236C76.8359 36.3402 75.1464 37.5551 73.8379 39.1484C74.4447 39.995 75.065 40.8068 75.6246 41.6602C76.1385 42.3697 76.5749 43.1353 76.9259 43.9431C77.4855 45.4141 77.8429 46.9544 78.389 48.4393C78.9841 50.3009 79.2133 52.2656 79.0633 54.2192C78.9075 56.1606 78.6146 58.0877 78.1868 59.9853C78.0317 60.8179 78.1463 61.1787 78.8138 61.2412L78.6924 62.2195C78.5422 62.1971 78.3936 62.1647 78.2474 62.1224C77.6676 61.9489 77.3777 62.1779 77.0271 62.6844C76.1573 63.9542 75.1931 65.1546 74.229 66.355C73.5547 67.1945 72.8333 67.9856 72.1388 68.7835C72.6512 68.8668 73.312 68.9431 73.9593 69.1096C74.2087 69.1721 74.5593 69.4357 74.5796 69.63C74.5598 69.7741 74.5082 69.9115 74.4287 70.0318C74.3493 70.1521 74.244 70.252 74.1211 70.3239C73.8022 70.4538 73.4556 70.4945 73.1165 70.4418C71.35 70.2129 69.5902 69.8659 67.8709 70.7263C67.1107 71.0709 66.3318 71.3697 65.538 71.6214C61.4926 73.0647 57.3257 72.912 53.2061 72.1973C51.1007 71.7165 49.0338 71.0716 47.0233 70.2684C45.8771 69.8729 44.7984 69.2276 43.5375 69.7896C43.2248 69.9618 42.8883 70.0835 42.5396 70.1504C41.7801 70.2157 41.0309 70.3741 40.3079 70.6223L39.9573 69.7202C40.9417 69.3108 41.98 68.9431 42.9644 68.5545C41.825 67.7011 40.699 66.9725 39.7011 66.0913C37.6784 64.3081 35.9928 62.2473 35.2848 59.5134C34.9814 58.3339 34.9477 57.0433 34.4555 55.9678C33.4981 53.8862 32.3114 51.874 31.1248 49.6675C30.6781 50.4592 30.286 51.2823 29.9516 52.1307C29.1477 54.5185 28.8131 57.0469 28.9672 59.5689C29.1854 61.8043 29.5457 64.0225 30.046 66.2093C30.141 66.4684 30.1788 66.746 30.1567 67.0221C30.1345 67.2981 30.0529 67.5656 29.9179 67.8051C29.8573 67.8948 29.8096 67.9929 29.7763 68.0966L28.5559 68.0133C28.6479 67.6627 28.6193 67.2901 28.475 66.9586C28.2736 66.4863 28.1309 65.9898 28.0502 65.4807C27.7805 63.517 27.5513 61.5603 27.3153 59.5967C27.2154 59.1417 27.1769 58.6748 27.2007 58.209C27.5378 56.1274 27.6996 54.0111 28.3671 52.0682C29.2624 49.781 30.3053 47.558 31.4888 45.4141C31.9338 44.5328 31.9204 43.9153 31.2596 43.2492C31.0589 43.0041 30.8973 42.7277 30.7809 42.4304C30.5988 42.0557 30.4775 41.6533 30.2685 41.2994C29.9381 40.7374 29.2908 40.2309 29.2436 39.6619C29.156 38.6142 28.7245 38.3366 27.8951 38.3782L27.8412 37.2611L29.0953 37.1917C29.4579 37.1455 29.8239 37.2453 30.1167 37.4703C30.4095 37.6953 30.6064 38.0281 30.6663 38.3991C30.6663 39.6133 31.5023 40.2239 31.9271 41.126C32.0929 41.6383 32.3193 42.1277 32.6013 42.5831C33.011 43.073 33.2602 43.6833 33.3134 44.3274C33.3667 44.9714 33.2213 45.6163 32.898 46.1704C32.453 46.8642 31.8057 47.6275 32.2642 48.592C32.8778 49.8756 33.5385 51.1315 34.1858 52.4013C34.1858 52.4499 34.3341 52.4429 34.4218 52.4637C35.313 46.398 36.93 40.4689 39.2359 34.8118L38.892 34.7077L39.0875 33.9444C39.4651 34.0416 39.8427 34.1526 40.2203 34.2636C40.7866 34.4232 41.0563 34.7493 40.7327 35.4154C40.409 36.0815 40.1191 36.9905 39.7753 37.7676C38.5643 40.7856 37.6012 43.9027 36.8963 47.0863C36.012 50.5755 35.8649 54.2192 36.4647 57.7718C36.8792 60.2281 38.0631 62.4773 39.8359 64.1762C41.7486 66.0774 44.0238 67.5494 46.5177 68.499C49.6461 69.7341 52.7679 71.0247 56.1998 71.0524C57.9114 71.1578 59.628 71.1416 61.3375 71.0039C63.084 70.689 64.8074 70.2508 66.4954 69.6925C67.2136 69.5265 67.9105 69.275 68.5721 68.9431C69.5093 68.4227 70.3588 67.7635 71.2691 67.146C73.2918 65.7582 74.5863 63.6766 75.9887 61.6991C76.0422 61.6271 76.0895 61.5505 76.1303 61.4701C77.0001 59.6314 77.081 57.6053 77.3979 55.6417C77.5547 54.803 77.5978 53.946 77.526 53.0952C77.3237 51.3466 76.9664 49.6258 76.7439 47.8703C76.4481 45.8697 75.617 43.9933 74.3436 42.4512C73.8312 41.7574 73.4266 41.0635 72.9951 40.3696C72.631 39.8215 72.2332 39.308 71.8691 38.7599C71.7006 38.4962 71.5725 38.1978 71.4241 37.9134C71.741 37.8023 72.1523 37.504 72.3546 37.615C73.1637 38.0591 73.575 37.4901 74.0402 37.046C75.4876 35.584 77.2824 34.5385 79.2453 34.0138L81.7939 33.4102Z" fill="#36464E"/>
<path d="M70.6892 87.4973C70.5341 88.6907 70.2779 88.9683 69.1722 88.7601C67.0941 88.4301 65.0382 87.9667 63.0164 87.3724C60.1306 86.4495 57.3123 85.2908 54.4602 84.2292C54.1995 84.1465 53.9337 84.0816 53.6646 84.0349L53.5365 84.2361L55.6874 87.3169C57.1774 89.4748 58.6608 91.6258 60.1576 93.7768C60.3127 93.9988 60.5621 94.2833 60.7914 94.2972C61.4086 94.2973 62.0039 94.5328 62.4622 94.9583C62.9204 95.3838 63.2092 95.969 63.2726 96.6008C63.2726 96.691 63.313 96.809 63.3737 96.8368C64.7222 97.5306 64.8166 98.7727 64.7222 100.098C66.3201 100.487 66.3808 100.493 66.455 101.923L65.1065 101.992C65.1065 101.298 64.4795 101.513 64.0817 101.416C63.7895 101.366 63.4944 101.336 63.1984 101.326L62.4095 101.187C60.488 100.979 60.3396 100.813 59.8879 98.4951C58.3102 98.1829 57.764 96.8645 58.5731 95.4143C58.7147 95.1645 58.8361 94.7205 58.7147 94.5192C57.7033 92.9233 56.638 91.3552 55.5795 89.7801C54.2715 87.8303 52.9634 85.8736 51.6352 83.9308C51.489 83.7088 51.268 83.5506 51.0149 83.4867C49.6125 83.2716 48.1965 83.0704 46.7806 82.9386C45.5468 82.8206 44.2994 82.772 43.0588 82.7373V81.3496C45.0344 81.3912 47.0099 81.5092 48.9854 81.641C50.5514 81.6998 52.1067 81.9325 53.6242 82.3349C56.2268 83.1329 58.7484 84.2222 61.3375 85.1104C63.3602 85.8042 65.3829 86.401 67.4731 86.963C68.5384 87.2197 69.6307 87.3238 70.6892 87.4973ZM63.2726 99.7232C63.3467 98.4535 63.0164 97.6416 62.5309 97.829C62.2897 97.9345 62.0726 98.0909 61.8938 98.2881C61.7149 98.4853 61.5782 98.7189 61.4926 98.9739C61.3308 99.5706 62.1061 99.9314 63.2456 99.7232H63.2726ZM61.5937 96.3025C61.6477 96.2331 61.2364 95.8237 60.9195 95.4421L59.7935 96.3996C60.0834 96.6425 60.407 97.0935 60.67 97.0935C60.933 97.0935 61.3308 96.6355 61.5667 96.3025H61.5937Z" fill="#36464E"/>
<path d="M69.7117 48.1481C69.4549 48.3678 69.1596 48.535 68.8419 48.6407C67.034 48.824 65.2895 49.424 63.7379 50.3962C63.0636 50.8333 62.4973 51.4301 61.85 51.9019C61.3394 52.2937 60.7956 52.6374 60.2251 52.9288C60.0948 52.9583 59.9594 52.9527 59.8318 52.9126C59.7042 52.8725 59.5889 52.7992 59.4969 52.6998C59.4453 52.5696 59.4269 52.4279 59.4434 52.2882C59.4599 52.1486 59.5108 52.0156 59.5913 51.9019C60.169 51.2052 60.8028 50.5599 61.4859 49.9729C63.5086 48.3007 65.9089 47.5722 68.3767 47.031C68.5393 46.9785 68.712 46.9684 68.8794 47.0014C69.0468 47.0345 69.2036 47.1097 69.3359 47.2204C69.4681 47.331 69.5716 47.4737 69.6372 47.6356C69.7028 47.7974 69.7284 47.9735 69.7117 48.1481Z" fill="#36464E"/>
<path d="M65.0997 101.971C65.1029 102.026 65.1029 102.082 65.0997 102.137C65.039 102.658 65.2008 103.331 64.3783 103.338C64.2305 103.362 64.0793 103.353 63.9355 103.31C63.7916 103.268 63.6586 103.193 63.546 103.092C63.4333 102.991 63.3438 102.865 63.2837 102.724C63.2236 102.583 63.1944 102.43 63.1983 102.276C63.1983 101.943 63.1983 101.582 63.1983 101.305C63.4944 101.314 63.7895 101.345 64.0816 101.395C64.4727 101.492 65.0997 101.277 65.0997 101.971Z" fill="#BBBABA"/>
<path d="M62.5039 97.8497C62.9894 97.6555 63.3198 98.4742 63.2456 99.7439C62.1061 99.9174 61.3105 99.5913 61.4656 98.9946C61.5513 98.7397 61.6879 98.5061 61.8668 98.3089C62.0456 98.1117 62.2627 97.9553 62.5039 97.8497Z" fill="#BBBABA"/>
<path d="M62.7805 59.5339C62.7958 59.694 62.7717 59.8554 62.7105 60.0034C62.6492 60.1513 62.5527 60.281 62.4299 60.3805C60.8454 61.2339 59.207 62.0111 57.6091 62.8368C56.7119 63.4144 55.7691 63.9135 54.7907 64.3286C54.6761 64.3702 54.5547 64.398 54.4266 64.4327L54.1974 63.1559C54.5514 63.1244 54.891 62.9975 55.1822 62.788C55.4734 62.5785 55.7058 62.2938 55.856 61.9625C56.3605 60.5428 56.7948 59.0977 57.1573 57.6327C56.8 56.1062 56.5572 54.8156 56.1729 53.5667C55.9895 52.9433 55.6528 52.3792 55.1953 51.9292C54.7269 51.4828 54.1357 51.1967 53.5029 51.1104L53.6647 49.8545C54.0928 49.9248 54.51 50.0531 54.9054 50.2361C55.7395 50.6617 56.5039 51.2189 57.1708 51.8875C57.4648 52.2991 57.6652 52.7733 57.7574 53.2753C58.5582 55.5631 58.6964 58.0411 58.1552 60.4082C58.1454 60.5931 58.1454 60.7784 58.1552 60.9633C59.234 60.3735 60.1779 59.8531 61.1488 59.3397C61.4046 59.1578 61.6976 59.0391 62.0051 58.9927C62.1664 59.0146 62.3204 59.0749 62.455 59.1689C62.5896 59.2629 62.7011 59.3879 62.7805 59.5339Z" fill="#36464E"/>
<path d="M60.9126 95.4414C61.2093 95.823 61.6206 96.2324 61.5869 96.3018C61.3576 96.6348 61.0205 97.0373 60.6834 97.0789C60.3463 97.1205 60.0968 96.6418 59.8069 96.385L60.9126 95.4414Z" fill="#BBBABA"/>
<path d="M61.3307 119.151C59.7587 119.242 58.183 119.242 56.611 119.151C54.8195 118.896 53.0435 118.537 51.2913 118.076C48.107 117.213 45.1086 115.742 42.452 113.739C40.8405 112.608 39.2426 111.491 38.1908 109.805C37.139 108.119 36.2759 106.294 35.3792 104.518C34.4974 102.658 33.9036 100.668 33.6194 98.6198C33.3093 96.7533 33.107 94.866 32.9452 92.9856C32.7834 91.1052 32.5541 89.204 32.5069 87.3097C32.4597 85.4155 32.5946 83.32 32.6485 81.2314C34.1521 81.7172 35.3927 82.1127 36.6265 82.529C36.7924 82.5817 36.9384 82.6859 37.0446 82.8273C38.8043 85.6028 40.5371 88.3783 42.3171 91.0844C43.4566 92.8329 44.6837 94.519 45.8704 96.2329L46.1266 96.6006C45.4109 97.454 44.9304 98.489 44.7347 99.5982C44.5391 100.707 44.6356 101.85 45.0141 102.908C45.3077 104.146 45.6725 105.364 46.1064 106.558C47.0233 108.514 48.8775 109.423 50.6979 110.284C52.2487 111.012 53.8399 111.533 55.5862 110.915C55.7615 110.853 56.1458 111.082 56.2604 111.283C57.0021 112.358 57.6966 113.455 58.3978 114.551L61.3307 119.151Z" fill="#BBBABA"/>
<path d="M57.2248 105.482C57.3698 105.625 57.482 105.799 57.5532 105.993C57.6244 106.186 57.6527 106.393 57.6361 106.599C57.6361 106.779 57.0158 107.022 56.6719 107.022C55.7246 107.021 54.7785 106.954 53.8401 106.821C53.3947 106.683 53.0093 106.39 52.7489 105.993C52.4885 105.596 52.3691 105.119 52.4107 104.642C52.4107 104.469 52.6804 104.184 52.7748 104.205C53.043 104.305 53.2952 104.445 53.5232 104.621C54.9458 103.657 56.0921 104.642 57.2248 105.482Z" fill="#BBBABA"/>
<path d="M56.1661 65.5848C56.5437 65.6334 56.901 65.7652 57.3393 65.8693C56.3212 67.3264 52.7477 67.0905 51.4734 65.8693C52.0667 64.9534 52.4376 64.9256 53.3815 65.217C54.3008 65.4026 55.231 65.5254 56.1661 65.5848Z" fill="#36464E"/>
<path d="M56.173 53.5878C56.5573 54.8367 56.8 56.1273 57.1573 57.6538C56.7948 59.1187 56.3605 60.5638 55.8561 61.9836C55.7031 62.311 55.4695 62.5915 55.1785 62.7972C54.8875 63.0029 54.5493 63.1267 54.1974 63.1562C53.7169 63.222 53.2282 63.1374 52.795 62.9134C52.1009 62.5566 51.5169 62.0081 51.1084 61.3292C50.7 60.6503 50.4832 59.8678 50.4824 59.0693C50.4612 57.6781 50.5333 56.2871 50.6981 54.9061C50.7923 54.4872 50.8644 54.0633 50.9139 53.6363C50.8694 53.0982 51.0106 52.5612 51.3127 52.1196C51.6148 51.678 52.0585 51.36 52.5658 51.2217C52.873 51.1235 53.1969 51.0927 53.5165 51.1315C54.1492 51.2178 54.7405 51.5039 55.2088 51.9502C55.6614 52.4019 55.9934 52.9658 56.173 53.5878Z" fill="#36464E"/>
<path d="M55.0738 109.749C53.3612 109.805 52.0464 109.014 50.644 108.473C48.2437 107.543 47.1852 105.593 46.5986 103.185C46.1257 101.699 46.0812 100.104 46.4705 98.592C46.5561 98.2516 46.7509 97.9509 47.0233 97.7386C47.4144 97.5235 47.8055 97.6137 47.6976 98.2521C47.6436 98.5782 47.6167 98.9459 47.5897 99.2512C47.4751 100.639 47.5897 100.861 48.9854 101.041C48.4932 102.2 48.7089 103.352 49.7405 103.886C50.7721 104.42 50.8598 105.045 50.9879 106.003C51.1699 107.342 52.242 107.952 53.3949 108.237C53.7758 108.323 54.1293 108.507 54.4227 108.772C54.7162 109.036 54.9401 109.372 55.0738 109.749Z" fill="#BBBABA"/>
<path d="M54.7704 101.631C54.7299 101.804 54.6962 101.971 54.6558 102.144C53.6097 102.518 52.5365 102.805 51.4464 103.005C51.116 103.005 50.4957 102.311 50.3676 101.818C50.1788 101.124 50.853 101.277 51.2711 101.214C52.0145 101.025 52.7725 100.902 53.5365 100.847C53.9545 100.867 54.3591 101.353 54.7704 101.631Z" fill="#BBBABA"/>
<path d="M54.1974 63.1557L54.4266 64.4394C53.7055 64.645 52.938 64.5936 52.2488 64.2937C51.1094 63.5998 49.862 63.5998 48.7158 63.1696C47.5796 62.679 46.4895 62.0821 45.4592 61.3864C45.391 61.2991 45.3443 61.196 45.3231 61.086C45.302 60.9761 45.307 60.8625 45.3379 60.755C45.6008 60.5676 46.0121 60.3178 46.2414 60.4011C46.797 60.6287 47.3336 60.9026 47.8461 61.2199C48.3729 61.4917 48.9298 61.6967 49.5047 61.8305C48.581 59.7489 48.7765 57.6673 49.0867 55.5857C49.2957 54.1979 49.5519 52.7547 49.8148 51.3461C49.8799 51.1169 50.0206 50.9181 50.2126 50.7841C51.2171 50.0362 52.4641 49.7179 53.6917 49.896L53.5299 51.1519C53.2074 51.1044 52.8787 51.1281 52.5657 51.2212C52.061 51.3623 51.6204 51.6814 51.3209 52.1227C51.0215 52.5641 50.8822 53.0996 50.9273 53.6359C50.8778 54.0629 50.8058 54.4867 50.7116 54.9057C50.5467 56.2866 50.4746 57.6777 50.4958 59.0689C50.4967 59.8674 50.7135 60.6498 51.1219 61.3287C51.5303 62.0076 52.1143 62.5562 52.8085 62.9129C53.2377 63.1342 53.7213 63.2187 54.1974 63.1557Z" fill="#36464E"/>
<path d="M53.8199 99.2994C52.3751 99.9257 50.7679 100.036 49.2553 99.6117C48.844 99.5145 48.79 98.6819 49.2553 98.5084C49.9767 98.224 50.6038 97.5093 51.541 98.0435C51.8074 98.1738 52.1048 98.2219 52.3972 98.1823C53.1052 98.1337 53.5367 98.4807 53.8199 99.2994Z" fill="#BBBABA"/>
<path d="M48.5808 52.9839L47.5289 53.6292C46.7784 53.3395 46.0445 53.006 45.3309 52.6301C43.9316 51.6988 42.3321 51.1342 40.6719 50.9856C40.3753 50.9856 40.0853 50.5762 39.7954 50.3542C40.1595 50.0836 40.5236 49.5979 40.8877 49.5979C41.6586 49.5911 42.4241 49.7298 43.1464 50.0073C44.7241 50.6248 46.2614 51.3325 47.7784 52.0889C48.1088 52.2346 48.3178 52.6717 48.5808 52.9839Z" fill="#36464E"/>
<path d="M42.9509 68.5688C41.9463 68.9573 40.9282 69.3251 39.9438 69.7345C37.5503 70.7267 35.2848 71.9687 33.5588 74.3348C33.1407 73.5854 32.8845 73.0165 32.5407 72.5169C31.7181 71.3304 30.9023 70.1369 29.9988 69.0475C29.8748 68.9337 29.7862 68.7848 29.7442 68.6193C29.7022 68.4539 29.7087 68.2794 29.7628 68.1177C29.7962 68.0141 29.8438 67.916 29.9044 67.8263C30.0395 67.5868 30.121 67.3193 30.1432 67.0432C30.1653 66.7672 30.1275 66.4895 30.0325 66.2304C29.5359 64.0365 29.1801 61.8113 28.9672 59.5693C28.8149 57.0518 29.1495 54.5283 29.9516 52.1449C30.286 51.2965 30.6781 50.4734 31.1248 49.6816C32.3114 51.8881 33.4981 53.8449 34.4555 55.982C34.9477 57.0575 34.9814 58.3481 35.2848 59.5276C35.9591 62.2615 37.6784 64.3223 39.7011 66.1055C40.6855 66.9867 41.8115 67.7153 42.9509 68.5688Z" fill="#975A3C"/>
<path d="M39.0809 33.9583L38.8921 34.7077C38.7549 34.6665 38.6152 34.634 38.4741 34.6105C37.6852 34.4926 36.8964 34.3677 36.1075 34.2983C34.6242 34.1665 33.1341 34.0693 31.644 33.9652C31.5362 33.9652 31.4215 34.0624 31.3069 34.0693C30.3495 34.1387 29.3853 34.1734 28.4212 34.2636C27.6707 34.2438 26.922 34.3469 26.2029 34.5689C24.8544 35.1517 24.9151 35.2628 25.5287 36.6089C25.6342 36.858 25.7199 37.1156 25.7849 37.3791L27.8413 37.268L27.8953 38.3852H27.7267C26.8839 38.5309 25.886 38.4476 25.232 38.8848C24.3448 39.5847 23.5789 40.434 22.9666 41.3966C22.0968 42.6316 21.4563 44.0471 20.546 45.2406C19.7314 46.3271 19.1001 47.5468 18.6784 48.8487L17.3771 48.4809C17.5903 47.9072 17.7704 47.321 17.9165 46.7255C17.9978 46.342 17.9721 45.9427 17.8423 45.5736C17.6468 44.9908 17.4378 44.4149 17.2355 43.832L18.4357 43.4157C18.6387 43.8698 18.8848 44.3021 19.1706 44.7063C19.4403 44.3316 19.6628 44.0957 19.8448 43.8182C20.4719 42.7149 21.0247 41.5631 21.7327 40.5223C22.2284 39.8248 22.8293 39.2134 23.5127 38.7113C24.0521 38.288 24.4094 37.9758 24.0588 37.2264C23.2969 35.6097 22.5418 33.993 21.8675 32.3693C20.9708 30.1767 20.1617 27.9494 19.3189 25.7429C18.4357 23.4254 17.5861 21.0871 16.6692 18.8042C15.9275 16.9585 15.0982 15.1475 14.3295 13.3157C13.9587 12.4553 13.6553 11.5672 13.2845 10.7207C12.6102 9.25661 11.8955 7.8203 11.1943 6.37706L9.1716 2.25548C9.08045 2.36481 8.99707 2.48075 8.92213 2.60242C7.97819 4.68402 6.96683 4.83667 5.19357 3.4073C4.2759 2.78431 3.30289 2.25227 2.2876 1.81835L2.72585 0.493059C4.28689 1.04256 5.77502 1.79081 7.15562 2.72037C7.45022 2.16728 7.77903 1.63422 8.14001 1.12448C8.40505 0.709826 8.79634 0.397443 9.2525 0.236328C9.47228 0.266059 9.68233 0.347986 9.86605 0.475635C10.0498 0.603285 10.2021 0.773157 10.3111 0.971828C11.6595 3.63628 13.0822 6.30767 14.3565 9.02763C15.8601 12.2819 17.2827 15.5777 18.6514 18.8944C19.3257 20.5389 19.8044 22.2666 20.4179 23.9458C20.9034 25.285 21.4697 26.5964 21.9687 27.9355C22.2721 28.7612 22.5081 29.6077 22.8722 30.7526C23.4099 30.0856 24.0207 29.4849 24.6926 28.9625C25.8124 28.2409 27.0241 27.6827 28.2931 27.3041C30.0207 26.9121 31.7933 26.772 33.5589 26.8878L33.5117 27.9216C32.1764 27.9165 30.8432 28.0302 29.5269 28.2616C28.3724 28.4914 27.2599 28.9058 26.2299 29.4898C25.677 29.7743 25.3399 30.4612 24.8275 30.8775C23.3307 32.071 23.3509 32.0293 24.3353 33.7154C24.6994 34.3469 25.0095 34.1873 25.4747 33.9375C25.9557 33.6637 26.4774 33.4737 27.0187 33.3755C28.583 33.1604 30.2079 33.6877 31.7384 32.9869C31.7384 32.9869 31.7991 32.9869 31.8261 32.9869C34.2771 32.9519 36.7202 33.279 39.0809 33.9583Z" fill="#36464E"/>
<path d="M38.892 34.7074L39.2561 34.8185C36.9502 40.4757 35.3332 46.4047 34.442 52.4705C34.3543 52.4705 34.233 52.4705 34.206 52.408C33.5318 51.1383 32.898 49.8823 32.2844 48.5987C31.8259 47.6342 32.4732 46.8987 32.9182 46.1771C33.2415 45.623 33.3869 44.9781 33.3336 44.3341C33.2804 43.6901 33.0312 43.0797 32.6216 42.5898C32.3395 42.1344 32.1131 41.645 31.9473 41.1327C31.5225 40.2306 30.673 39.62 30.6865 38.4058C30.6266 38.0348 30.4297 37.702 30.1369 37.477C29.8441 37.252 29.4781 37.1522 29.1155 37.1984L27.8614 37.2678L25.805 37.3788C25.74 37.1154 25.6543 36.8578 25.5488 36.6086C24.9217 35.2209 24.8745 35.1515 26.223 34.5687C26.942 34.3466 27.6908 34.2436 28.4413 34.2634C29.4054 34.1732 30.3696 34.1385 31.327 34.0691C31.4416 34.0691 31.5563 33.9511 31.6641 33.965C33.1542 34.0691 34.6443 34.1662 36.1276 34.2981C36.9165 34.3674 37.7053 34.4923 38.4942 34.6103C38.6285 34.6346 38.7614 34.6671 38.892 34.7074Z" fill="white"/>
<path d="M31.2596 43.2696C31.9338 43.9635 31.9338 44.5532 31.4888 45.4344C30.3053 47.5784 29.2624 49.8014 28.3671 52.0886C27.6929 54.0315 27.5378 56.1686 27.2007 58.2294C27.1769 58.6952 27.2154 59.1621 27.3153 59.6171C27.5513 61.5807 27.7805 63.5374 28.0502 65.5011C28.1309 66.0101 28.2736 66.5067 28.475 66.979C28.6146 67.3043 28.6431 67.6687 28.5559 68.0129C28.417 68.4204 28.2314 68.8094 28.003 69.1716C27.9542 69.2344 27.8928 69.2855 27.823 69.3215C27.7531 69.3574 27.6765 69.3773 27.5985 69.3798H27.558C24.9959 68.9496 22.6091 68.2349 20.9977 65.8411C19.9222 64.1912 19.1138 62.3728 18.6041 60.4567C17.8076 58.0012 17.534 55.3981 17.8018 52.8241C17.9814 51.4967 18.2794 50.189 18.6917 48.9177C19.1135 47.6158 19.7448 46.3961 20.5594 45.3096C21.4696 44.1161 22.1101 42.7006 22.9799 41.4655C23.5922 40.5029 24.3581 39.6537 25.2454 38.9537C25.9196 38.5166 26.8973 38.5999 27.7401 38.4542H27.9086C28.7245 38.4125 29.156 38.6901 29.2571 39.7378C29.3043 40.3068 29.9313 40.8133 30.2819 41.3753C30.491 41.7292 30.6123 42.1316 30.7944 42.5063C30.9116 42.7832 31.0684 43.0405 31.2596 43.2696Z" fill="#BBBABA"/>
<path d="M27.6187 69.401V70.65C27.1169 70.6806 26.6133 70.6409 26.1219 70.532C24.5779 70.1504 23.0002 69.8867 21.6449 68.8598C20.1818 67.8159 19.0288 66.3747 18.3142 64.6966C17.5242 62.6642 16.8731 60.5775 16.3656 58.4518C16.1094 57.4457 16.3993 56.3078 16.1971 55.2809C15.7116 52.8315 16.6555 50.7291 17.3972 48.5781L18.6985 48.9459C18.2861 50.2172 17.9882 51.5249 17.8085 52.8523C17.5407 55.4263 17.8144 58.0294 18.6108 60.4848C19.1206 62.401 19.9289 64.2194 21.0044 65.8692C22.6158 68.2631 25.0026 68.9777 27.5648 69.4079L27.6187 69.401Z" fill="#36464E"/>
<path d="M24.0522 37.2541C24.4028 38.0035 24.0522 38.3158 23.506 38.739C22.8227 39.2412 22.2217 39.8525 21.726 40.55C21.0518 41.5908 20.4652 42.7426 19.8382 43.8459C19.6763 44.1234 19.4538 44.3593 19.1639 44.734C18.8782 44.3298 18.632 43.8975 18.429 43.4434C17.7548 41.3618 17.0805 39.2178 16.4063 37.1154C16.1366 36.2827 15.732 35.5056 15.4219 34.6938C14.2689 31.6199 13.1767 28.5253 11.9967 25.4653C11.1539 23.2519 10.2033 21.0801 9.29977 18.8875C8.5581 17.0557 7.89061 15.1961 7.12197 13.3782C5.67235 9.90885 4.17554 6.52972 2.69221 3.11589C2.52365 2.7412 2.29441 2.42202 2.09888 2.03346L2.25395 1.81836C3.28499 2.24507 4.2739 2.7725 5.20713 3.39344C6.98038 4.8228 7.99174 4.67015 8.93568 2.58855C9.01063 2.46689 9.094 2.35094 9.18515 2.24162L11.2079 6.36319C11.8821 7.80643 12.6305 9.24273 13.298 10.7068C13.6891 11.5533 13.9723 12.4415 14.3431 13.3019C15.1117 15.1337 15.941 16.9447 16.6827 18.7903C17.5997 21.087 18.4492 23.4254 19.3325 25.729C20.1753 27.9355 20.9844 30.1628 21.8811 32.3554C22.5351 34.0138 23.2903 35.6374 24.0522 37.2541Z" fill="#975A3C"/>
<path d="M18.4491 43.4434L17.2489 43.8597C16.6354 42.1251 16.0151 40.3904 15.3611 38.6766C14.289 35.8386 13.1495 33.0285 12.0573 30.1975C11.4302 28.5531 10.8841 26.8739 10.2301 25.2364C9.31986 22.9536 8.33546 20.7054 7.40501 18.4365C6.73077 16.8683 6.17115 15.2725 5.51714 13.7113C4.69457 11.7337 3.85176 9.7701 2.96851 7.82033C1.9976 5.6971 1.00647 3.60163 0.0557898 1.4784C-0.025119 1.21473 -0.025119 0.708208 0.102987 0.555558C0.446849 0.278011 1.00647 -0.0758602 1.32336 0.0143424C1.77286 0.153116 2.22235 0.305766 2.67184 0.472294L2.28753 1.81839L2.13245 2.03349C2.32798 2.3943 2.55722 2.72736 2.72578 3.11592C4.20911 6.52974 5.70593 9.94357 7.15554 13.3782C7.92418 15.1961 8.59168 17.0557 9.33334 18.8875C10.2166 21.0801 11.1673 23.2519 12.0303 25.4653C13.2102 28.5253 14.3025 31.6199 15.4554 34.6938C15.7521 35.5056 16.1701 36.2827 16.4398 37.1154C17.1208 39.2178 17.7546 41.341 18.4491 43.4434Z" fill="#36464E"/>
<path d="M69.1208 56.2194C71.1123 55.6232 72.5017 54.3434 72.224 53.361C71.9462 52.3785 70.1066 52.0654 68.1151 52.6616C66.1235 53.2579 64.7342 54.5377 65.0119 55.5201C65.2896 56.5026 67.1292 56.8157 69.1208 56.2194Z" fill="#EF8AA1"/>
<path d="M66.0504 57.4455H65.9695C65.838 57.4217 65.7207 57.346 65.6427 57.2345C65.5646 57.1231 65.5319 56.9847 65.5514 56.8488L66.1785 52.8382C66.2 52.7021 66.2732 52.5803 66.3819 52.4996C66.4906 52.419 66.626 52.386 66.7583 52.408C66.8911 52.4303 67.01 52.5053 67.0894 52.6169C67.1689 52.7285 67.2025 52.8678 67.1831 53.0048L66.5493 57.0153C66.5287 57.136 66.4673 57.2453 66.376 57.324C66.2848 57.4027 66.1695 57.4457 66.0504 57.4455Z" fill="#EA5971"/>
<path d="M68.2553 57.147H68.1676C68.102 57.1352 68.0394 57.1103 67.9832 57.0736C67.927 57.0369 67.8784 56.9891 67.8402 56.933C67.802 56.8769 67.7749 56.8136 67.7605 56.7468C67.7461 56.6799 67.7447 56.6108 67.7563 56.5433L68.4845 52.1859C68.5069 52.0498 68.5809 51.9283 68.6902 51.8483C68.7996 51.7683 68.9354 51.7362 69.0677 51.7592C69.2 51.7822 69.3181 51.8584 69.3958 51.9709C69.4736 52.0835 69.5047 52.2232 69.4824 52.3594L68.7475 56.7098C68.7272 56.8301 68.6671 56.9393 68.5773 57.019C68.4876 57.0987 68.3738 57.1439 68.2553 57.147Z" fill="#EA5971"/>
<path d="M70.7701 56.2803H70.669C70.5376 56.2535 70.422 56.1741 70.3474 56.0597C70.2728 55.9452 70.2454 55.8049 70.2712 55.6697L70.9859 51.902C70.9983 51.8346 71.0234 51.7703 71.06 51.7129C71.0965 51.6555 71.1437 51.606 71.1987 51.5674C71.2538 51.5287 71.3158 51.5016 71.3811 51.4876C71.4464 51.4736 71.5137 51.4729 71.5792 51.4857C71.6447 51.4984 71.7072 51.5243 71.7629 51.5619C71.8187 51.5995 71.8668 51.648 71.9043 51.7047C71.9419 51.7614 71.9683 51.8252 71.9819 51.8924C71.9955 51.9596 71.9961 52.0288 71.9837 52.0963L71.2623 55.8709C71.2378 55.9866 71.1756 56.0902 71.0861 56.1646C70.9966 56.2391 70.8852 56.2799 70.7701 56.2803Z" fill="#EA5971"/>
<path d="M43.9764 56.7257C44.1826 55.8348 42.8874 54.754 41.0835 54.3117C39.2796 53.8694 37.65 54.2331 37.4438 55.1241C37.2375 56.015 38.5327 57.0958 40.3366 57.5381C42.1406 57.9804 43.7701 57.6167 43.9764 56.7257Z" fill="#EF8AA1"/>
<path d="M37.4492 57.0984C37.4261 57.0894 37.4054 57.0752 37.3885 57.0567C37.2947 56.9803 37.2343 56.8687 37.2203 56.7464C37.2064 56.6241 37.2402 56.5012 37.3143 56.4045L39.5258 53.5735C39.6021 53.4796 39.7108 53.4199 39.8291 53.4069C39.9473 53.394 40.0658 53.4288 40.1596 53.5041C40.2063 53.5419 40.2452 53.5889 40.2739 53.6424C40.3026 53.6959 40.3207 53.7548 40.327 53.8156C40.3333 53.8764 40.3277 53.9379 40.3105 53.9964C40.2933 54.0549 40.2649 54.1093 40.227 54.1564L38.0223 56.9873C37.9549 57.0725 37.8604 57.1304 37.7554 57.1508C37.6505 57.1711 37.542 57.1525 37.4492 57.0984Z" fill="#EA5971"/>
<path d="M39.263 57.8546L39.1955 57.813C39.1053 57.7335 39.0486 57.6211 39.0372 57.4994C39.0259 57.3778 39.0609 57.2564 39.1349 57.1607L41.5756 54.1355C41.6128 54.0879 41.6589 54.0485 41.7111 54.0196C41.7634 53.9907 41.8207 53.9727 41.8797 53.9669C41.9388 53.9611 41.9984 53.9675 42.055 53.9857C42.1116 54.0039 42.1641 54.0336 42.2094 54.073C42.3021 54.1505 42.3613 54.2626 42.3739 54.3848C42.3866 54.5071 42.3517 54.6295 42.2768 54.7253L39.8361 57.7852C39.7627 57.8626 39.6658 57.9117 39.5614 57.9243C39.4571 57.9369 39.3518 57.9123 39.263 57.8546Z" fill="#EA5971"/>
<path d="M41.5687 58.299H41.4945C41.4448 58.2583 41.4038 58.2073 41.3742 58.1495C41.3447 58.0916 41.3271 58.028 41.3227 57.9627C41.3182 57.8975 41.327 57.832 41.3485 57.7704C41.3699 57.7089 41.4036 57.6526 41.4473 57.6051L43.6251 55.0032C43.7075 54.9307 43.8123 54.8911 43.9207 54.8916C44.029 54.8921 44.1335 54.9326 44.2152 55.0058C44.2969 55.0789 44.3504 55.1799 44.3658 55.2902C44.3813 55.4005 44.3577 55.5129 44.2994 55.6068L42.1216 58.2157C42.0519 58.2914 41.9594 58.3408 41.8591 58.3559C41.7589 58.371 41.6566 58.3509 41.5687 58.299Z" fill="#EA5971"/>
</svg>
