<svg width="96" height="24" viewBox="0 0 96 24" fill="none" xmlns="http://www.w3.org/2000/svg">
<path d="M16.7692 9.29444C16.7692 8.19435 16.7692 7.07652 16.7692 5.98974C16.7692 5.3155 16.4986 4.99168 15.7401 4.98281C13.5222 4.98281 11.3397 4.78763 9.13957 4.80981C7.77858 4.88941 6.42245 5.03746 5.07635 5.2534C3.52824 5.42639 1.97127 5.65706 0.680444 4.45495C0.361064 4.15331 -0.0736481 3.62545 0.0106326 3.32825C0.217523 2.79806 0.569567 2.33687 1.02644 1.9975C1.34146 1.83238 1.69638 1.75863 2.05111 1.78458C4.20693 1.61602 6.36274 1.42084 8.52299 1.31882C10.0667 1.24341 11.6281 1.25228 13.1584 1.31882C14.5158 1.37205 15.8687 1.60715 17.2261 1.66038C17.9536 1.68699 18.6855 1.45189 19.4174 1.41641C21.4978 1.31882 23.5826 1.21679 25.663 1.21236C26.3614 1.20213 27.0511 1.36844 27.668 1.69586C27.8755 1.82305 28.0457 2.00286 28.1612 2.21705C28.2768 2.43124 28.3336 2.67219 28.3259 2.91543C28.3183 3.15868 28.2464 3.39558 28.1176 3.60208C27.9888 3.80857 27.8077 3.97733 27.5926 4.09121C27.129 4.35438 26.618 4.52322 26.0889 4.58802C24.5807 4.76545 23.0636 4.93402 21.551 4.9695C20.5707 4.99612 20.3489 5.41309 20.3755 6.30025C20.4421 8.41171 20.4953 10.532 20.4199 12.6391C20.34 14.857 19.8299 16.9773 18.3129 18.6407C16.8412 20.1583 14.9743 21.2339 12.9233 21.7458C12.5718 21.7853 12.2166 21.7189 11.9031 21.5551C8.12376 20.0912 5.12514 17.5628 2.4459 14.6041C2.36606 14.5198 2.29508 14.4178 2.2108 14.338C0.387677 12.5636 1.42566 11.6277 3.05361 10.7893C3.72786 10.4344 4.79245 11.0643 4.67712 11.7696C4.50413 12.8342 5.12071 13.3754 5.77721 13.9343C7.10796 15.0832 8.38104 16.2498 9.76946 17.2922C10.4599 17.7568 11.2251 18.0989 12.0317 18.3036C12.8701 18.5564 13.4689 17.931 14.0855 17.4652C16.5075 15.6332 17.0176 13.0294 16.9244 10.226C16.9244 9.92876 16.8978 9.63156 16.8845 9.3388L16.7692 9.29444Z" fill="#85BFFF"/>
<path d="M52.1891 14.7454C52.1359 13.9469 52.1403 13.1441 52.0161 12.3589C51.8786 11.4718 51.5725 11.2943 50.9515 11.871C50.0469 12.7508 49.2092 13.6967 48.4453 14.701C48.2944 14.8829 48.3787 15.2688 48.3832 15.5616C48.3832 16.8435 48.4541 18.1211 48.4186 19.3986C48.3965 20.2103 47.4073 21.3015 46.8972 21.0487C46.254 20.7293 45.4688 20.1882 45.2781 19.5716C45.0022 18.4839 44.893 17.3607 44.9543 16.2403C44.9543 15.1224 45.1273 14.0224 45.1982 12.8868C45.2337 12.2658 45.1494 11.627 45.247 11.0149C45.318 10.5713 45.5043 9.84381 45.7971 9.75066C46.072 9.66945 46.361 9.64683 46.6452 9.68427C46.9294 9.72171 47.2027 9.81838 47.4472 9.96801C48.0549 10.4426 48.3344 10.2386 48.8933 9.92365C49.6862 9.4198 50.5687 9.07341 51.4927 8.90341C52.9299 8.70824 54.0521 9.347 54.7885 10.6777C55.3829 11.7468 55.4583 11.6226 56.3277 10.7665C57.1829 9.91448 58.1607 9.19531 59.2288 8.63283C59.5258 8.52336 59.8451 8.48796 60.1589 8.52969C60.4727 8.57143 60.7716 8.68905 61.0297 8.87236C61.7269 9.56503 62.2762 10.392 62.6443 11.3032C62.9593 12.044 62.9504 12.9267 63.0879 13.7473C63.2576 15.2269 62.8926 16.7185 62.0588 17.9525C61.6152 18.6578 60.8833 18.578 60.3111 18.2541C60.1215 18.1191 59.9629 17.9452 59.8459 17.744C59.7289 17.5429 59.6561 17.319 59.6324 17.0875C59.5393 15.8499 59.6324 14.5946 59.5703 13.3525C59.4888 12.8524 59.3474 12.3639 59.1489 11.8976C58.6521 12.1859 58 12.3412 57.6807 12.7848C56.6252 14.0348 55.8453 15.4934 55.3918 17.0653C55.3384 17.4081 55.1633 17.7201 54.8985 17.9442C54.6337 18.1682 54.297 18.2893 53.9501 18.2852C53.1561 18.2852 52.1758 17.2073 52.1226 16.3556C52.0871 15.8233 52.1226 15.2866 52.1226 14.7498L52.1891 14.7454Z" fill="#85BFFF"/>
<path d="M69.1743 8.96138C69.786 8.63306 70.4188 8.34559 71.0684 8.10083C71.7338 7.90565 72.4835 7.65724 73.1222 7.79032C76.1563 8.43351 78.2988 11.37 77.4693 14.3465C76.9282 16.2849 75.8103 17.8641 73.7965 18.6226C73.0513 18.9065 72.3593 19.3634 71.6007 19.5852C70.6941 19.8541 69.7316 19.8723 68.8154 19.638C67.8993 19.4037 67.0637 18.9256 66.3975 18.2544C65.7544 17.5178 65.404 16.5708 65.4128 15.5929C65.4128 11.8447 65.5636 8.09639 65.7055 4.34812C65.7592 3.1895 65.8955 2.0362 66.1136 0.897038C66.1638 0.69905 66.2598 0.51562 66.3939 0.361525C66.5279 0.207429 66.6963 0.0869769 66.8855 0.00987228C67.3624 -0.0397053 67.8398 0.0987531 68.2162 0.395791C68.8771 0.919218 69.0501 1.69549 69.0413 2.5516C69.0191 4.45457 69.0413 6.35755 69.0812 8.26052C69.1001 8.49559 69.1312 8.72952 69.1743 8.96138ZM68.9792 14.9586V15.5575C68.9437 17.0301 69.161 17.2342 70.6648 16.9725C72.102 16.7196 73.1888 15.8591 74.1513 14.8255C74.4955 14.3622 74.7068 13.8137 74.7623 13.2392C74.8178 12.6647 74.7154 12.0859 74.4663 11.5652C73.8053 10.4429 72.4347 9.95057 71.5076 10.647C70.0305 11.7559 68.4069 12.896 68.9792 14.9586Z" fill="#85BFFF"/>
<path d="M88.1909 15.1985C87.3037 16.1389 86.4875 17.0971 85.5649 17.9354C84.0567 19.3061 81.9319 18.7028 81.1557 16.8043C80.6011 15.5434 80.5285 14.1229 80.9516 12.812C81.045 12.2871 81.1043 11.7566 81.1291 11.224C81.5327 8.93069 82.9611 7.42251 84.9971 6.48655C85.8443 6.0962 86.5363 6.72608 87.1928 7.1741C87.8739 7.59875 88.5139 8.08583 89.1047 8.62905C89.6166 9.13152 90.0316 9.72398 90.329 10.3768C90.7726 11.3482 90.9012 12.4527 91.3714 13.3976C92.0634 14.7949 92.9284 16.099 93.7268 17.443C94.4099 18.6008 95.0576 19.7719 95.7895 20.9074C95.8705 20.9945 95.9307 21.0987 95.9655 21.2124C96.0003 21.3261 96.0089 21.4462 95.9905 21.5637C95.9722 21.6812 95.9273 21.7929 95.8595 21.8906C95.7916 21.9882 95.7025 22.0691 95.5987 22.1273C95.0886 22.5176 94.6228 22.8503 93.9087 22.5265C92.7376 22.0031 92.0057 21.076 91.3537 20.038C90.3467 18.4455 89.3265 16.8575 88.3107 15.2695C88.253 15.2074 88.1554 15.1763 88.1909 15.1985ZM86.3101 10.6119C86.3356 10.4401 86.3446 10.2663 86.3367 10.0929C86.2702 9.76906 86.1859 9.44525 86.1061 9.12587C85.8121 9.27934 85.5393 9.47019 85.2943 9.69365C84.0301 11.2196 84.039 13.0959 83.9369 14.9279C83.9369 15.0832 84.1188 15.3715 84.2341 15.3715C84.3313 15.3593 84.4249 15.3269 84.509 15.2765C84.593 15.2261 84.6655 15.1588 84.7221 15.0787C85.7341 13.8082 86.293 12.2361 86.3101 10.6119Z" fill="#85BFFF"/>
<path d="M36.3671 18.8627C37.4361 19.8785 38.6338 19.8963 39.8847 19.4749C40.6698 19.2132 41.4061 18.8051 42.2002 18.5877C42.6351 18.4819 43.0942 18.5521 43.4777 18.7829C43.9967 19.1511 43.4777 19.5237 43.2869 19.9096C41.7388 23.2764 37.8264 23.3385 35.5464 22.3493C33.9007 21.6307 32.7518 20.0914 32.082 18.326C32.0199 18.1619 32.0421 17.9268 31.9312 17.8247C30.942 16.9376 31.4655 16.1036 31.9711 15.2032C32.4768 14.3027 32.6676 13.3135 33.1866 12.4751C34.9343 9.64508 38.27 9.85356 40.244 11.6146C41.4993 12.7368 41.2953 13.7482 40.8517 14.9681C40.1686 16.84 38.6116 17.6828 36.9481 18.4236C36.7885 18.499 36.6155 18.5478 36.4558 18.6232C36.4203 18.6631 36.4158 18.7341 36.3671 18.8627ZM38.4475 12.7058C38.4698 12.5901 38.4698 12.4711 38.4475 12.3554C38.3321 12.067 38.1857 11.792 38.0527 11.517C37.7905 11.6184 37.5452 11.759 37.3252 11.934C36.8578 12.4242 36.4264 12.9475 36.0344 13.4998C35.7876 13.8629 35.6074 14.2669 35.5021 14.693C35.4666 14.8217 35.7593 15.1899 35.9057 15.1943C37.0901 15.2253 38.4519 13.868 38.4475 12.7058Z" fill="#85BFFF"/>
<path d="M29.4957 17.7216C29.4957 18.6708 29.4957 19.6245 29.4957 20.5738C29.4795 21.5332 29.0839 22.4471 28.3956 23.1155C27.9165 23.6523 27.3798 23.6124 26.812 23.2087C25.743 22.4502 25.4547 21.5453 25.7829 20.2101C26.0624 19.0523 25.8982 17.7881 25.9249 16.5683C25.9249 15.65 25.987 14.7274 25.9825 13.8092C25.962 13.4334 26.0757 13.0626 26.3031 12.7628C26.5306 12.463 26.8572 12.2538 27.2246 12.1724C27.6103 12.1228 28.0015 12.2043 28.3354 12.4038C28.6692 12.6033 28.9263 12.9092 29.0654 13.2724C29.3892 14.723 29.5578 16.2134 29.7885 17.7083L29.4957 17.7216Z" fill="#85BFFF"/>
<path d="M26.5992 7.12992C27.6683 7.12992 28.8171 8.81997 28.3336 9.79142C28.2433 9.91638 28.1273 10.0206 27.9934 10.0971C27.8596 10.1736 27.7109 10.2206 27.5574 10.235C27.0652 10.2544 26.5822 10.0982 26.1946 9.79433C25.8069 9.49042 25.54 9.05859 25.4415 8.576C25.3947 8.40181 25.3895 8.21904 25.4265 8.04248C25.4634 7.86593 25.5414 7.70056 25.6541 7.55975C25.7669 7.41894 25.9112 7.30666 26.0753 7.23198C26.2395 7.15731 26.419 7.12234 26.5992 7.12992Z" fill="#85BFFF"/>
</svg>
