<svg width="28" height="26" viewBox="0 0 28 26" fill="none" xmlns="http://www.w3.org/2000/svg">
<path d="M27.7083 23.3409H2.625V0.295455C2.625 0.132955 2.49375 0 2.33333 0H0.291667C0.13125 0 0 0.132955 0 0.295455V25.7045C0 25.867 0.13125 26 0.291667 26H27.7083C27.8687 26 28 25.867 28 25.7045V23.6364C28 23.4739 27.8687 23.3409 27.7083 23.3409ZM6.48229 17.6423C6.59531 17.7568 6.7776 17.7568 6.89427 17.6423L11.9365 12.5605L16.5885 17.3026C16.7016 17.417 16.8875 17.417 17.0005 17.3026L27.0411 7.13523C27.1542 7.02074 27.1542 6.83239 27.0411 6.7179L25.5974 5.2554C25.5426 5.20041 25.4685 5.16957 25.3914 5.16957C25.3143 5.16957 25.2402 5.20041 25.1854 5.2554L16.8 13.746L12.1552 9.01136C12.1004 8.95638 12.0264 8.92553 11.9492 8.92553C11.8721 8.92553 11.798 8.95638 11.7432 9.01136L5.04219 15.7588C4.98791 15.8143 4.95746 15.8893 4.95746 15.9675C4.95746 16.0456 4.98791 16.1206 5.04219 16.1761L6.48229 17.6423Z" fill="#37474F"/>
</svg>
