<svg width="27" height="34" viewBox="0 0 27 34" fill="none" xmlns="http://www.w3.org/2000/svg">
<path d="M13.5 34C15.3562 34 16.875 32.4308 16.875 30.5128H10.125C10.125 32.4308 11.6438 34 13.5 34ZM23.625 23.5385V14.8205C23.625 9.46769 20.8744 4.98667 16.0312 3.80103V2.61538C16.0312 1.16821 14.9006 0 13.5 0C12.0994 0 10.9688 1.16821 10.9688 2.61538V3.80103C6.1425 4.98667 3.375 9.45026 3.375 14.8205V23.5385L0 27.0256V28.7692H27V27.0256L23.625 23.5385ZM20.25 25.2821H6.75V14.8205C6.75 10.4964 9.29813 6.97436 13.5 6.97436C17.7019 6.97436 20.25 10.4964 20.25 14.8205V25.2821Z" fill="#37474F"/>
</svg>
