<svg width="35" height="35" viewBox="0 0 35 35" fill="none" xmlns="http://www.w3.org/2000/svg">
<path d="M31.1325 23.4675C32.795 19.67 32.795 15.3125 31.1325 11.5325L26.3375 13.7025C27.3875 16.1175 27.3875 18.865 26.355 21.2975L31.1325 23.4675ZM23.485 3.8675C21.5999 3.04508 19.5654 2.62058 17.5088 2.62058C15.4521 2.62058 13.4176 3.04508 11.5325 3.8675L13.7025 8.645C16.135 7.6125 18.8825 7.6125 21.315 8.6625L23.485 3.8675ZM3.8675 11.515C3.04505 13.4031 2.62059 15.4405 2.62059 17.5C2.62059 19.5595 3.04505 21.5969 3.8675 23.485L8.6625 21.2975C7.6125 18.8825 7.6125 16.1175 8.6625 13.685L3.8675 11.515ZM11.5325 31.1325C13.4177 31.9563 15.4533 32.3801 17.5106 32.3771C19.5679 32.3741 21.6022 31.9443 23.485 31.115L21.315 26.3375C20.1164 26.8554 18.825 27.1241 17.5193 27.1271C16.2136 27.1301 14.921 26.8674 13.72 26.355L11.5325 31.1325ZM17.5 0C19.7981 0 22.0738 0.452651 24.197 1.33211C26.3202 2.21157 28.2493 3.50061 29.8744 5.12563C31.4994 6.75066 32.7884 8.67984 33.6679 10.803C34.5474 12.9262 35 15.2019 35 17.5C35 22.1413 33.1563 26.5925 29.8744 29.8744C26.5925 33.1563 22.1413 35 17.5 35C15.2019 35 12.9262 34.5474 10.803 33.6679C8.67984 32.7884 6.75066 31.4994 5.12563 29.8744C1.84374 26.5925 0 22.1413 0 17.5C0 12.8587 1.84374 8.40752 5.12563 5.12563C8.40752 1.84374 12.8587 0 17.5 0ZM17.5 10.5C15.6435 10.5 13.863 11.2375 12.5503 12.5503C11.2375 13.863 10.5 15.6435 10.5 17.5C10.5 19.3565 11.2375 21.137 12.5503 22.4497C13.863 23.7625 15.6435 24.5 17.5 24.5C19.3565 24.5 21.137 23.7625 22.4497 22.4497C23.7625 21.137 24.5 19.3565 24.5 17.5C24.5 15.6435 23.7625 13.863 22.4497 12.5503C21.137 11.2375 19.3565 10.5 17.5 10.5Z" fill="#37474F"/>
</svg>
