<svg width="33" height="28" viewBox="0 0 33 28" fill="none" xmlns="http://www.w3.org/2000/svg">
<path d="M9.00415 11C7.8979 11 7.00415 11.8938 7.00415 13C7.00415 14.1062 7.8979 15 9.00415 15C10.1104 15 11.0041 14.1062 11.0041 13C11.0041 11.8938 10.1104 11 9.00415 11ZM16.0041 11C14.8979 11 14.0041 11.8938 14.0041 13C14.0041 14.1062 14.8979 15 16.0041 15C17.1104 15 18.0041 14.1062 18.0041 13C18.0041 11.8938 17.1104 11 16.0041 11ZM23.0041 11C21.8979 11 21.0041 11.8938 21.0041 13C21.0041 14.1062 21.8979 15 23.0041 15C24.1104 15 25.0041 14.1062 25.0041 13C25.0041 11.8938 24.1104 11 23.0041 11ZM16.0041 0C7.16665 0 0.00414801 5.81875 0.00414801 13C0.00414801 15.975 1.2479 18.7 3.3104 20.8937C2.37915 23.3562 0.441648 25.4438 0.410398 25.4688C-0.00210199 25.9062 -0.114602 26.5438 0.122898 27.0938C0.360398 27.6437 0.904148 28 1.50415 28C5.3479 28 8.37915 26.3938 10.1979 25.1063C12.0041 25.675 13.9541 26 16.0041 26C24.8416 26 32.0041 20.1812 32.0041 13C32.0041 5.81875 24.8416 0 16.0041 0ZM16.0041 23C14.3354 23 12.6854 22.7437 11.1041 22.2437L9.6854 21.7938L8.46665 22.6562C7.5729 23.2875 6.3479 23.9937 4.8729 24.4688C5.32915 23.7125 5.7729 22.8625 6.11665 21.9562L6.77915 20.2L5.49165 18.8375C4.3604 17.6313 3.00415 15.6375 3.00415 13C3.00415 7.4875 8.8354 3 16.0041 3C23.1729 3 29.0041 7.4875 29.0041 13C29.0041 18.5125 23.1729 23 16.0041 23Z" fill="#37474F"/>
</svg>
