<svg width="135" height="136" viewBox="0 0 135 136" fill="none" xmlns="http://www.w3.org/2000/svg">
<mask id="mask0" mask-type="alpha" maskUnits="userSpaceOnUse" x="0" y="0" width="135" height="136">
<path d="M67.5 135.855C104.779 135.855 135 105.443 135 67.9274C135 30.4121 104.779 0 67.5 0C30.2208 0 0 30.4121 0 67.9274C0 105.443 30.2208 135.855 67.5 135.855Z" fill="#D5F2E3"/>
</mask>
<g mask="url(#mask0)">
<rect x="-19.7705" y="-15.5776" width="180.602" height="151.887" fill="#D5F2E3"/>
<path d="M86.4395 71.3506C86.7251 70.9269 87.0896 70.5623 87.5132 70.2766C87.5826 70.6511 87.5826 71.0351 87.5132 71.4096C87.2785 71.8689 87.223 72.3991 87.3575 72.897C87.0515 72.3976 86.7616 71.8768 86.4878 71.3452L86.4395 71.3506Z" fill="#36464E"/>
<path d="M168.015 170.631C167.655 170.632 167.297 170.659 166.941 170.712C165.765 165.82 164.67 160.907 163.409 156.036C162.313 151.809 161.113 147.608 159.806 143.434C158.163 138.155 156.365 132.931 154.647 127.679C153.095 122.938 151.667 118.153 150.003 113.449C147.856 107.301 145.622 101.158 143.158 95.1278C141.918 92.0993 140.13 89.2856 138.471 86.445C137.398 84.5871 136.131 82.8312 134.896 81.0753C134.359 80.2806 133.645 79.5718 133.011 78.8254C131.793 79.8994 130.864 81.1075 129.64 81.768C128.416 82.4285 126.838 82.5252 125.469 83.0138C124.1 83.5024 122.833 84.2166 121.485 84.7536C118.747 85.8275 116.165 87.519 112.981 86.9927C112.72 86.9547 112.455 86.9689 112.199 87.0343C111.944 87.0998 111.704 87.2152 111.494 87.374C109.701 88.9849 107.57 88.5607 105.589 88.2922C103.581 88.0975 101.708 87.1976 100.301 85.7523C99.2579 84.7518 98.1553 83.8158 96.9988 82.9494C96.317 83.1051 95.7372 83.293 95.1359 83.3682C92.8489 83.6582 92.21 83.2447 91.3779 81.0592C91.1985 80.5519 90.9607 80.0671 90.6692 79.6148C89.3325 77.6602 87.9527 75.7432 86.6052 73.794C86.3325 73.4559 86.1754 73.0393 86.1571 72.6053C86.1387 72.1713 86.26 71.7429 86.5032 71.383C86.777 71.92 87.0401 72.457 87.3729 72.9349C87.5183 73.3998 87.7495 73.8333 88.0547 74.2128C89.2788 75.8775 90.5136 77.5313 91.7108 79.2174C92.063 79.7131 92.3449 80.2552 92.5483 80.8283C93.1388 82.5413 93.7616 83.0729 95.3131 82.3802C96.7519 81.7358 97.5733 82.2513 98.5718 83.1051C100.311 84.5925 101.965 86.241 104.284 86.8639C106.7 87.5243 109.062 88.0345 111.263 86.2195C111.703 85.9096 112.246 85.7843 112.777 85.8705C115.633 86.4074 118.087 85.0972 120.406 83.9266C122.283 82.9001 124.284 82.1187 126.36 81.6016C129.001 81.0324 130.875 79.8242 132.04 77.1769C133.205 74.5297 135.078 72.065 136.474 69.4445C137.035 68.3637 137.347 67.1712 137.387 65.9542C137.457 63.6345 137.553 61.4329 138.681 59.2636C139.255 58.1467 139.057 56.5787 139.03 55.2095C139.003 53.8402 138.842 52.4977 139.518 51.1607C139.808 50.5808 139.652 49.6733 139.475 48.9752C139.04 47.273 138.509 45.6675 138.681 43.8042C138.804 42.5262 137.977 41.173 137.661 39.8306C137.365 38.5795 137.226 37.2854 136.936 36.0235C136.731 34.8265 136.389 33.6571 135.916 32.5386C135.046 30.7934 134.23 29.1019 134.305 27.0829C134.288 26.4724 134.122 25.8752 133.822 25.3431C133.575 24.8706 133.317 24.4142 133.049 23.9685C134.246 24.5377 134.933 24.9136 134.933 24.9136L135.175 24.8115C135.465 25.4924 135.628 26.2201 135.658 26.9594C135.702 28.5752 136.16 30.1526 136.99 31.5398C137.836 33.0144 138.31 34.6733 138.369 36.3725C138.45 37.9459 139.073 39.4923 139.491 41.0388C139.904 42.2674 140.086 43.5618 140.028 44.8567C139.921 46.081 140.501 47.3912 140.86 48.6155C141.058 49.1492 141.143 49.718 141.111 50.2863C141.079 50.8545 140.929 51.41 140.672 51.9178C140.232 52.7823 140.291 54.0174 140.442 55.0376C140.704 56.945 140.38 58.887 139.513 60.606C138.913 61.9155 138.637 63.3503 138.708 64.789C138.882 66.7355 138.359 68.6807 137.231 70.2769C136.774 70.9835 136.364 71.7189 136.002 72.4784C135.164 74.0893 134.348 75.7003 133.543 77.2628C135.358 79.7812 137.199 82.4983 139.212 85.0865C141.707 88.4089 143.697 92.0822 145.118 95.987C146.83 100.422 148.291 104.949 149.896 109.411C150.878 112.155 152.043 114.84 152.924 117.611C156.005 127.094 159.167 136.561 161.997 146.124C164.257 153.77 166.093 161.546 168.09 169.273C168.23 169.713 168.293 170.175 168.278 170.637L168.015 170.631Z" fill="#36464E"/>
<path d="M137.328 65.9811C137.288 67.198 136.976 68.3906 136.415 69.4714C135.02 72.0918 133.194 74.5028 131.981 77.2038C130.768 79.9047 128.942 81.0592 126.301 81.6284C124.225 82.1455 122.224 82.9269 120.347 83.9535C118.028 85.1241 115.574 86.4397 112.718 85.8973C112.187 85.8112 111.644 85.9365 111.204 86.2464C108.998 88.0613 106.636 87.5512 104.225 86.8907C101.906 86.2517 100.252 84.6032 98.513 83.1319C97.5144 82.2782 96.693 81.7627 95.2543 82.407C93.7027 83.0997 93.08 82.5681 92.4894 80.8552C92.286 80.2821 92.0042 79.7399 91.6519 79.2443C90.4547 77.5582 89.2199 75.9043 87.9959 74.2397C87.6907 73.8601 87.4594 73.4266 87.3141 72.9617C87.1796 72.4638 87.2351 71.9336 87.4698 71.4743C87.5392 71.0998 87.5392 70.7158 87.4698 70.3413C87.0462 70.627 86.6817 70.9916 86.396 71.4152C80.5657 60.1388 81.1348 41.9946 81.1348 38.4076C81.1348 34.6488 85.4297 31.964 84.8928 29.2791C84.356 26.5943 91.3352 22.8355 104.22 19.0767C114.571 16.0589 128.035 21.6971 132.937 24.0383C133.205 24.484 133.473 24.9404 133.71 25.4129C134.01 25.945 134.175 26.5422 134.193 27.1527C134.128 29.1717 134.944 30.8632 135.803 32.6084C136.276 33.7269 136.618 34.8963 136.823 36.0933C137.113 37.3552 137.253 38.6493 137.548 39.9004C137.865 41.2428 138.692 42.5853 138.568 43.874C138.396 45.7373 138.928 47.3428 139.363 49.045C139.54 49.7431 139.696 50.6559 139.406 51.2305C138.729 52.5676 138.869 53.9154 138.917 55.2793C138.965 56.6432 139.143 58.2165 138.568 59.3334C137.494 61.4437 137.398 63.6453 137.328 65.9811Z" fill="white"/>
<path d="M59.3755 66.1042C58.9352 64.1335 59.4077 62.5334 60.3418 60.8741C64.3736 53.7217 68.8188 46.7947 72.0829 39.2235C73.9029 35.0029 76.0128 30.9058 77.9347 26.7281C80.4472 21.251 84.1355 17.0627 90.1 15.2531C91.4905 14.8289 92.7843 14.1791 94.1801 13.6959C98.0885 12.332 101.97 10.7479 106.195 10.8445C108.265 10.9437 110.323 11.2149 112.348 11.6554C116.868 12.5306 121.249 13.6046 125.275 16.1928C128.417 18.1486 131.056 20.8157 132.979 23.9789C128.078 21.6377 114.613 15.9995 104.262 19.0172C91.3777 22.776 84.3985 26.5348 84.9354 29.2197C85.4723 31.9045 81.1774 34.5894 81.1774 38.3482C81.1774 41.9352 80.6083 60.0848 86.4386 71.3558C86.1954 71.7157 86.0741 72.1441 86.0925 72.5781C86.1109 73.0121 86.2679 73.4287 86.5406 73.7668C87.8881 75.716 89.2679 77.633 90.6046 79.5875C90.8961 80.0399 91.1339 80.5247 91.3133 81.032C92.1562 83.2175 92.795 83.6309 95.0713 83.341C95.6726 83.2658 96.2524 83.0779 96.9342 82.9221C98.0907 83.7885 99.1933 84.7246 100.236 85.7251C101.643 87.1704 103.517 88.0702 105.524 88.265C107.532 88.5335 109.663 88.9792 111.429 87.3468C111.64 87.188 111.88 87.0725 112.135 87.0071C112.39 86.9416 112.656 86.9275 112.917 86.9655C116.1 87.5025 118.682 85.8218 121.42 84.7264C122.768 84.1894 124.046 83.4752 125.404 82.9866C126.762 82.4979 128.33 82.4174 129.575 81.7408C130.821 81.0642 131.723 79.8936 132.947 78.7982C133.58 79.5446 134.273 80.2534 134.831 81.0481C136.066 82.8094 137.328 84.5653 138.407 86.4178C140.066 89.2584 141.853 92.0721 143.094 95.1006C145.558 101.131 147.77 107.274 149.939 113.422C151.603 118.126 153.031 122.91 154.582 127.652C156.3 132.903 158.099 138.128 159.742 143.407C161.041 147.573 162.242 151.774 163.344 156.009C164.606 160.88 165.701 165.793 166.876 170.685H66.6392C66.9051 169.214 67.3225 167.774 67.8847 166.389C70.9765 168.074 74.5086 168.777 78.0099 168.403C79.148 168.279 80.2754 168.005 81.4082 167.806C86.0306 167.001 90.4221 165.417 93.9117 162.313C97.7449 158.957 101.159 155.118 104.724 151.359C107.108 148.862 108.922 145.941 110.71 142.929C109.69 142.086 109.153 142.521 108.638 143.358C107.596 145.06 106.678 146.875 105.417 148.384C102.539 151.783 99.479 155.021 96.4833 158.318C94.6248 160.375 92.4208 162.09 89.9712 163.387C86.3536 165.288 82.4105 166.49 78.3481 166.931C73.8546 167.468 69.7315 166.437 66.3332 163.419C63.9983 161.312 61.81 159.048 59.7835 156.643C55.2524 151.359 51.9668 145.227 48.9496 139.009C47.5591 136.147 45.8573 134.214 42.9582 132.871C37.8151 130.492 35.5442 126.041 35.0234 120.338C36.4193 120.338 36.9937 119.737 36.9937 118.394C36.9937 117.766 37.5306 117.133 37.9117 116.365C38.6311 117.181 39.0982 117.723 39.7639 118.486C40.5155 116.757 39.5975 114.818 41.5892 113.723C41.7195 114.521 41.8988 115.31 42.1261 116.085C42.357 116.708 42.2174 117.664 43.6025 117.857C43.5864 116.944 43.5219 116.031 43.4092 115.124C42.8142 111.758 42.634 108.332 42.8723 104.922L42.9529 103.891C43.0693 103.197 43.2307 102.512 43.436 101.84C44.4931 102.449 45.3167 103.394 45.7768 104.524C46.6536 106.411 47.5162 108.298 48.3644 110.184C49.5026 112.724 50.4636 115.312 50.3293 118.169C50.2971 118.921 50.426 119.554 51.5641 119.721C53.0834 117.718 52.7452 114.287 55.902 113.127C56.231 113.57 56.5357 114.031 56.8146 114.507C57.7863 116.408 57.9152 118.454 57.9152 120.558C57.9152 123.829 58.35 127.056 60.7928 129.537C63.8207 132.565 67.4874 134.713 71.0951 136.909C71.7823 137.333 72.5822 137.511 73.2426 136.941C74.2787 136.055 75.4866 135.223 76.1792 134.095C77.3337 132.107 78.3507 130.042 79.2232 127.915C81.8149 121.832 83.7287 115.483 84.93 108.981C85.3698 106.407 85.678 103.812 85.8534 101.206C85.9393 100.282 86.0843 99.2353 85.4401 98.6769C84.012 99.1655 82.8631 99.7508 81.6498 99.928C79.2984 100.277 76.904 100.331 74.5418 100.615C73.8814 100.696 73.2318 100.744 72.5876 100.76C67.7559 100.905 63.3643 99.4179 59.1124 96.7867L59.6493 91.417C58.291 91.2559 58.3178 91.3096 57.2495 91.7822C55.8234 92.5106 54.3291 93.0969 52.7882 93.5327C49.1107 94.3542 46.2009 92.3138 43.1247 90.7619C43.4311 90.0632 43.6929 89.3458 43.9085 88.614C45.3419 83.7813 44.6171 78.9485 44.0159 74.1158C44.3018 74.2486 44.5493 74.4519 44.7353 74.7065C45.562 75.6945 46.2224 76.9349 47.2478 77.6276C48.7277 78.6361 50.5352 79.0449 52.305 78.7714C54.2917 78.4418 56.0683 77.342 57.2495 75.7106C58.2958 74.3683 59.0297 72.8095 59.3974 71.1476C59.7652 69.4858 59.7577 67.7628 59.3755 66.1042Z" fill="#BBBABA"/>
<path d="M84.1627 103.735C84.2754 102.914 84.2647 102.081 84.3237 101.018C82.391 101.195 80.6785 101.41 78.9551 101.501C76.8506 101.609 74.7408 101.759 72.6363 101.834L72.5933 100.76C73.2376 100.76 73.8872 100.696 74.5475 100.615C76.9097 100.331 79.3041 100.277 81.6555 99.9281C82.8688 99.7509 84.0177 99.1656 85.4458 98.677C86.09 99.214 85.9451 100.288 85.8592 101.206C85.6838 103.812 85.3756 106.407 84.9358 108.981C83.7344 115.483 81.8206 121.833 79.2289 127.915C78.3565 130.042 77.3394 132.107 76.1849 134.096C75.4924 135.223 74.2844 136.056 73.2483 136.942C72.5772 137.511 71.7773 137.333 71.1009 136.909C67.4878 134.713 63.821 132.565 60.8307 129.542C58.388 127.061 57.9585 123.834 57.9531 120.564C57.9531 118.459 57.8243 116.413 56.8526 114.512C56.5736 114.036 56.2689 113.575 55.9399 113.132L55.8594 111.94C56.9009 111.827 57.7384 112.542 58.4041 114.04C59.1916 115.801 59.5697 117.717 59.51 119.646C59.4904 120.489 59.5137 121.334 59.5798 122.175C59.8697 125.934 61.4427 128.925 64.6532 131.024C66.8382 132.458 68.948 133.983 71.0955 135.476C72.0833 136.168 72.9638 136.093 73.6885 135.116C74.4771 134.183 75.173 133.176 75.7662 132.109C80.0404 123.152 82.8741 113.576 84.1627 103.735Z" fill="#36464E"/>
<path d="M47.1782 70.4053C47.0333 70.5879 46.6414 70.5772 46.3461 70.6631C46.2226 68.2575 50.1578 64.3698 54.0554 63.0972C53.9266 63.6932 53.9588 64.3644 53.7279 64.4772C50.947 65.8142 49.025 68.0588 47.1782 70.4053Z" fill="#36464E"/>
<path d="M52.1177 77.3812C50.8649 77.5526 49.5906 77.3062 48.4919 76.6801C47.3933 76.0539 46.5317 75.0831 46.0404 73.9177C45.6407 73.0641 45.3554 72.1613 45.1922 71.2329C44.9386 69.7483 44.9806 68.2282 45.3156 66.7599C45.9599 63.8066 47.8872 61.9701 50.5822 60.8532C51.4951 60.5348 52.4877 60.528 53.4048 60.8341C54.3218 61.1402 55.1115 61.7418 55.6502 62.5447C57.0983 64.8957 57.8675 67.6017 57.8728 70.363C57.6884 72.2967 56.8625 74.1132 55.5267 75.5233C54.6322 76.5092 53.4309 77.1639 52.1177 77.3812ZM54.0557 63.0978C50.1581 64.3704 46.2229 68.2581 46.3464 70.6637C46.6417 70.5778 47.0336 70.5885 47.1785 70.4059C49.0253 68.0594 50.9366 65.8148 53.7282 64.4993C53.9591 64.3704 53.9161 63.6938 54.0557 63.0978Z" fill="#E2E2E2"/>
<path d="M69.5866 32.8928C70.3589 32.3892 71.1582 31.9285 71.981 31.5128C74.1078 30.5063 75.7747 28.7316 76.6463 26.5458C79.1481 20.2954 83.443 15.8815 90.0303 13.8196C93.7883 12.649 97.439 11.3012 101.154 10.0608C103.774 9.18014 106.474 9.28753 109.137 9.71711C112.103 10.1387 115.041 10.7358 117.936 11.5052C125.211 13.594 131.218 17.4817 134.885 24.3603C134.966 24.5107 135.035 24.661 135.105 24.8221L134.864 24.9241C134.864 24.9241 134.176 24.5482 132.979 23.9791C131.056 20.8159 128.418 18.1488 125.275 16.193C121.249 13.6048 116.868 12.5308 112.348 11.6556C110.323 11.2151 108.265 10.9439 106.195 10.8447C101.97 10.7481 98.0886 12.3322 94.1802 13.6961C92.8058 14.174 91.4959 14.8291 90.1001 15.2533C84.1355 17.0736 80.4366 21.2512 77.9348 26.7283C76.0128 30.906 73.903 35.0031 72.083 39.2237C68.8189 46.7949 64.3737 53.7219 60.3419 60.8743C59.4077 62.5336 58.9353 64.1337 59.3755 66.1044C59.7607 67.7614 59.7717 69.4835 59.4077 71.1453C59.0436 72.8071 58.3137 74.3667 57.271 75.7108C56.0899 77.3422 54.3132 78.442 52.3265 78.7715L52.1172 77.3808C53.4304 77.1635 54.6317 76.5088 55.5262 75.5229C56.8699 74.1158 57.7034 72.299 57.8938 70.3626C57.8885 67.6013 57.1193 64.8953 55.6712 62.5443C55.1325 61.7414 54.3428 61.1398 53.4257 60.8337C52.5087 60.5276 51.516 60.5344 50.6032 60.8528C47.9189 61.9536 45.9808 63.7901 45.3366 66.7595C45.0015 68.2278 44.9596 69.7479 45.2131 71.2325L44.1018 71.4419L42.5664 71.109L42.7811 70.1102L43.318 69.9384C43.3915 69.2962 43.5063 68.6595 43.6616 68.0321C44.0754 66.3373 44.6137 64.6753 45.2722 63.0598C46.3996 60.6112 48.547 59.5373 51.0757 59.0003C53.4378 58.5009 55.2739 59.3225 56.8415 61.0139C56.8845 61.0622 56.9758 61.0676 57.2227 61.1482C59.3702 58.3398 71.981 34.5252 72.3192 32.5437C71.3207 33.2042 70.3382 33.7841 69.4148 34.3909L68.7706 33.4351L69.5866 32.8928Z" fill="#36464E"/>
<path d="M42.7599 70.0938L39.8179 66.6304C40.5534 65.143 41.1869 63.575 42.0619 62.152C45.3877 56.8037 49.3223 51.8592 53.787 47.4175C58.1302 43.0359 63.0962 39.4435 67.8259 35.5505C68.3424 35.138 68.88 34.7527 69.4365 34.396C70.3599 33.7892 71.3423 33.2093 72.3409 32.5488C72.0027 34.5303 59.3703 58.3234 57.2444 61.1533C56.9974 61.0727 56.9062 61.0673 56.8632 61.019C55.2956 59.3276 53.4595 58.506 51.0973 59.0054C48.5687 59.5423 46.4052 60.6163 45.2777 63.0434C44.6193 64.6589 44.0809 66.3209 43.6672 68.0157C43.5119 68.6431 43.3971 69.2799 43.3236 69.922L42.7599 70.0938Z" fill="#BBBABA"/>
<path d="M47.4148 104.385C49.063 107.822 50.4642 111.366 51.9888 114.948C52.5805 114.213 53.2247 113.522 53.9162 112.88C54.4535 112.389 55.1207 112.063 55.8381 111.941L55.9187 113.133C52.7619 114.292 53.1002 117.724 51.5808 119.727C50.4427 119.56 50.3138 118.927 50.3461 118.175C50.4803 115.318 49.5193 112.73 48.3811 110.19C47.5329 108.3 46.6703 106.413 45.7935 104.53C45.3334 103.4 44.5098 102.455 43.4528 101.846C43.2474 102.518 43.086 103.203 42.9696 103.897L42.8891 104.928L41.606 104.847C41.665 103.95 41.7294 103.059 41.8046 102.162C41.9603 100.278 43.136 99.6869 44.5855 100.868C45.768 101.826 46.7326 103.025 47.4148 104.385Z" fill="#36464E"/>
<path d="M40.6772 71.292C40.3228 71.0718 39.9256 70.7819 39.4263 70.4114L42.5454 71.0933L44.0809 71.4262C42.4166 71.9256 41.8046 71.9901 40.6772 71.292Z" fill="#36464E"/>
<path d="M42.6415 88.2713C42.5425 88.7142 42.3468 89.1297 42.0683 89.488C41.7899 89.8464 41.4356 90.1387 41.0309 90.344C37.0098 87.2832 34.6745 76.4472 36.5964 70.3848C37.6111 70.9486 38.6473 71.4909 39.6619 72.0655C40.2739 72.4038 40.8752 72.7582 41.4658 73.1394C41.9353 73.5096 42.2494 74.0421 42.3462 74.6322C43.1354 79.03 43.5864 83.4439 42.7381 87.9008C42.7059 88.0243 42.6737 88.1478 42.6415 88.2713Z" fill="#36464E"/>
<path d="M52.3057 78.7715C50.5268 79.0566 48.7062 78.6514 47.2162 77.6385C46.1908 76.9458 45.5305 75.7054 44.7037 74.7174C44.5177 74.4628 44.2702 74.2595 43.9843 74.1267C44.5856 78.9916 45.3104 83.8244 43.877 88.6249L42.6422 88.2705C42.6744 88.147 42.7066 88.0235 42.7281 87.8946C43.5763 83.4377 43.1253 79.0239 42.3362 74.6261C42.2393 74.036 41.9252 73.5035 41.4557 73.1333C40.8652 72.7574 40.2639 72.403 39.6519 72.0594L40.6773 71.2861C41.8047 71.9842 42.4167 71.9197 44.081 71.4204L45.1923 71.2109C45.3555 72.1393 45.6408 73.0421 46.0405 73.8958C46.5318 75.0611 47.3934 76.032 48.492 76.6581C49.5907 77.2842 50.865 77.5306 52.1178 77.3592L52.3057 78.7715Z" fill="#36464E"/>
<path d="M56.2938 93.7208C53.9316 95.7559 51.258 95.1921 48.622 94.6819C47.5826 94.4125 46.5761 94.0289 45.621 93.5382C43.8815 92.7703 42.2924 91.734 40.2792 91.5246C39.431 91.4333 38.3948 90.3916 37.9761 89.527C36.9023 87.3308 35.8286 85.0541 35.3293 82.6914C34.4704 78.7178 33.8208 74.6368 34.9858 70.5988C35.5602 68.6067 36.14 66.4802 38.2874 65.3848C38.7327 65.0909 39.0818 64.6727 39.2914 64.182C42.7702 57.3088 47.6557 51.4826 53.0458 46.1129C57.8695 41.3949 63.1352 37.1512 68.7704 33.4404L69.4146 34.3962C68.8581 34.7529 68.3206 35.1382 67.8041 35.5507C63.0743 39.4438 58.1084 43.0361 53.7652 47.4178C49.3005 51.8594 45.3659 56.8039 42.0401 62.1523C41.165 63.5752 40.5315 65.1432 39.796 66.6306L42.738 70.0941L42.5233 71.0928L39.4202 70.4109C39.9195 70.7814 40.3168 71.0713 40.6711 71.2915L39.6457 72.0647C38.631 71.4902 37.5949 70.9478 36.5802 70.384C34.6583 76.4464 36.9936 87.2825 41.0147 90.3432C41.4194 90.1379 41.7736 89.8456 42.0521 89.4873C42.3305 89.1289 42.5263 88.7134 42.6253 88.2705L43.8815 88.6357C43.6659 89.3675 43.4041 90.0849 43.0977 90.7835C46.1954 92.3354 49.1052 94.3759 52.7612 93.5543C54.3021 93.1185 55.7964 92.5322 57.2225 91.8038C58.2963 91.3312 58.264 91.2668 59.6223 91.4386L59.0854 96.8084C63.3374 99.4395 67.745 100.927 72.5607 100.782L72.6036 101.856C71.342 101.899 70.075 101.92 68.8134 101.888C64.6956 101.781 61.2597 99.5738 57.6359 97.8554C57.8077 96.2445 57.9634 94.7249 58.1728 92.9422C57.3621 93.259 56.7125 93.3664 56.2938 93.7208Z" fill="#36464E"/>
<path d="M104.724 151.359C101.181 155.085 97.7452 158.946 93.912 162.356C90.4224 165.46 86.0309 167.044 81.4085 167.849C80.2757 168.048 79.1483 168.322 78.0102 168.445C74.5064 168.825 70.9703 168.126 67.8742 166.442C67.312 167.827 66.8946 169.267 66.6287 170.738H66.3388C66.0506 170.696 65.7602 170.671 65.4691 170.663C65.7053 169.589 65.9415 168.515 66.2153 167.409C66.4623 166.448 66.6019 165.701 65.6785 164.976C59.8857 160.487 55.9022 154.581 52.2032 148.432C50.029 144.819 48.1822 141.006 46.2548 137.253C45.8634 136.428 45.2051 135.76 44.3865 135.357C42.6597 134.508 40.9997 133.53 39.4206 132.431C35.7538 129.783 34.1271 125.933 33.5849 121.595C33.4292 120.333 33.5312 118.953 35.1203 118.33C35.4639 118.196 35.625 117.605 35.8773 117.229C36.1296 116.853 36.4142 116.08 36.7953 115.956C38.9428 115.307 39.732 113.196 41.1922 112.198C41.3425 109.679 41.4499 107.247 41.6056 104.841L42.8887 104.922C42.6503 108.332 42.8306 111.758 43.4256 115.124C43.5382 116.031 43.6027 116.943 43.6188 117.857C42.2337 117.664 42.3733 116.708 42.1425 116.085C41.9151 115.309 41.7358 114.52 41.6056 113.723C39.6138 114.797 40.5319 116.756 39.7803 118.485C39.1146 117.723 38.6475 117.181 37.9281 116.364C37.563 117.132 37.0101 117.766 37.0101 118.394C37.0101 119.737 36.4356 120.36 35.0398 120.338C35.5767 126.041 37.8315 130.492 42.9746 132.871C45.8736 134.213 47.5755 136.146 48.966 139.009C51.9831 145.227 55.2687 151.359 59.7998 156.643C61.8264 159.048 64.0147 161.312 66.3495 163.419C69.7479 166.437 73.8656 167.457 78.3645 166.931C82.4225 166.492 86.3617 165.293 89.9768 163.398C92.4199 162.103 94.6182 160.391 96.4728 158.339C99.4685 155.042 102.529 151.805 105.406 148.406C106.679 146.897 107.597 145.082 108.627 143.379C109.164 142.542 109.701 142.107 110.7 142.95C108.923 145.952 107.108 148.873 104.724 151.359Z" fill="#36464E"/>
<path d="M66.5758 77.7861C70.3387 76.5012 72.878 73.9625 72.2477 72.1158C71.6174 70.2691 68.056 69.8136 64.2932 71.0985C60.5303 72.3834 57.991 74.9221 58.6213 76.7688C59.2517 78.6155 62.813 79.071 66.5758 77.7861Z" fill="#EF8AA1"/>
<path d="M65.1411 79.3194C65.0475 79.341 64.9502 79.341 64.8566 79.3194C64.6673 79.2927 64.4961 79.1928 64.3796 79.0412C64.2632 78.8896 64.2108 78.6984 64.2338 78.5086L65.2216 70.1533C65.2316 70.0602 65.26 69.97 65.3053 69.888C65.3506 69.806 65.4118 69.7339 65.4853 69.6759C65.5588 69.6179 65.6431 69.5751 65.7334 69.5501C65.8236 69.5252 65.9179 69.5185 66.0108 69.5304C66.2001 69.5572 66.3713 69.657 66.4877 69.8086C66.6042 69.9602 66.6565 70.1515 66.6336 70.3412L65.6457 78.7019C65.6326 78.8433 65.5775 78.9777 65.4876 79.0877C65.3977 79.1977 65.2771 79.2783 65.1411 79.3194Z" fill="#EA5971"/>
<path d="M61.0017 80.0498C60.9099 80.0715 60.8143 80.0715 60.7226 80.0498C60.5334 80.0243 60.3617 79.9257 60.2443 79.7752C60.1269 79.6246 60.0731 79.4341 60.0944 79.2443L60.9212 71.5656C60.9298 71.4728 60.957 71.3826 61.0011 71.3004C61.0452 71.2183 61.1053 71.1457 61.1778 71.0872C61.2504 71.0286 61.334 70.9852 61.4236 70.9595C61.5132 70.9337 61.6071 70.9262 61.6996 70.9374C61.8888 70.9629 62.0605 71.0614 62.1779 71.212C62.2953 71.3626 62.3491 71.5531 62.3278 71.7428L61.5064 79.4215C61.4967 79.5653 61.4432 79.7027 61.3529 79.8151C61.2627 79.9275 61.1401 80.0094 61.0017 80.0498Z" fill="#EA5971"/>
<path d="M69.8334 77.4881C69.7329 77.5125 69.628 77.5125 69.5274 77.4881C69.346 77.4516 69.1853 77.3476 69.0777 77.1971C68.97 77.0465 68.9236 76.8608 68.9476 76.6773L69.9676 69.4443C69.9787 69.3514 70.0085 69.2618 70.0552 69.1807C70.1018 69.0997 70.1644 69.0289 70.2392 68.9727C70.3139 68.9165 70.3993 68.8761 70.4901 68.8537C70.5809 68.8314 70.6753 68.8277 70.7676 68.8429C70.9561 68.8746 71.1246 68.9789 71.237 69.1335C71.3495 69.2882 71.3968 69.4807 71.3688 69.6698L70.3542 76.9028C70.3345 77.0408 70.2746 77.1699 70.182 77.274C70.0894 77.3781 69.9681 77.4526 69.8334 77.4881Z" fill="#EA5971"/>
<path d="M34.6588 52.3542C35.8351 52.1377 36.9831 51.6582 37.4207 51.1367C36.764 51.168 36.1123 51.2657 35.4753 51.4285L35.4651 50.5292C36.0809 50.5247 36.6833 50.5643 37.2975 50.1435C37.7669 49.8209 38.5501 49.9585 39.4316 49.8647L39.554 53.3391C38.1613 53.6993 36.8061 54.0533 35.4532 54.397L35.2676 53.6034C36.0743 53.435 36.8045 53.0094 37.3486 52.3904C36.6624 52.5166 36.0172 52.605 35.3922 52.781L34.6588 52.3542Z" fill="#D6D6D6"/>
<path d="M35.4747 51.4351C36.1116 51.2723 36.7634 51.1745 37.42 51.1433C36.9893 51.6662 35.8344 52.1443 34.6581 52.3608C34.2777 52.4281 33.8924 52.4636 33.5062 52.4669C34.084 51.9906 34.7543 51.6393 35.4747 51.4351Z" fill="#36464E"/>
<path d="M35.2704 53.6111L35.4559 54.4047L34.1283 54.7323C33.6382 54.855 33.2988 54.6567 33.0593 54.1551C32.9731 53.9731 32.8991 53.8012 32.8348 53.635L33.5896 53.7048C34.1513 53.7601 34.7182 53.7285 35.2704 53.6111Z" fill="#D6D6D6"/>
<path d="M35.4027 52.7832C34.7417 52.9637 34.1245 53.2772 33.5888 53.7046L32.834 53.6348C32.657 53.2222 32.5503 52.7828 32.5185 52.3349L33.5039 52.474C33.8901 52.4707 34.2754 52.4352 34.6558 52.3678L35.4027 52.7832Z" fill="#D6D6D6"/>
<path d="M33.5044 52.4743L32.519 52.3352C32.4781 51.1831 33.3388 50.6289 35.1877 50.5436L35.4642 50.5362L35.4744 51.4356C34.753 51.6417 34.0821 51.9954 33.5044 52.4743Z" fill="#D6D6D6"/>
<path d="M36.0964 56.815C36.8081 57.3563 37.0999 57.1823 37.1353 56.322L36.0964 56.815ZM38.2618 54.6512C36.9442 55.0317 35.5748 55.1402 34.1148 55.9014C35.1439 56.2998 35.832 55.9207 36.5143 55.7466C38.1019 55.3067 38.0974 55.2948 38.2618 54.6512ZM38.1858 56.6239C38.084 57.0044 37.8696 57.3452 37.5707 57.6017C37.2717 57.8581 36.9023 58.0182 36.5108 58.0608C35.6759 58.1722 35.5532 57.4866 35.2551 56.8743C33.3129 57.3802 32.9528 55.7268 32.3716 54.7442C31.9697 54.0155 31.7582 53.1972 31.7567 52.365L32.5352 52.328C32.5671 52.7758 32.6737 53.2152 32.8508 53.6278C32.9151 53.794 32.9891 53.966 33.0753 54.1479C33.3251 54.6519 33.6438 54.8456 34.1443 54.7251L35.4559 54.4048C36.8087 54.0611 38.1639 53.7071 39.5566 53.3469L40.1756 53.8171C39.6232 54.5626 39.0394 55.2868 38.4774 56.0266C38.3415 56.2052 38.2381 56.4063 38.172 56.6208L38.1858 56.6239Z" fill="#36464E"/>
<path d="M35.4043 40.474C35.5461 43.3993 35.6901 46.3142 35.8364 49.2187C35.7854 49.4687 35.706 49.712 35.5996 49.9439C34.129 47.2157 33.7054 44.3654 32.5356 41.798C33.0179 41.0586 33.3965 40.477 33.8202 39.8223L35.4043 40.474Z" fill="#FFFA55"/>
<path d="M31.5295 38.8182L32.5833 39.9201L33.2955 39.2534L33.818 39.8324C33.3942 40.4871 33.0156 41.0687 32.5333 41.8081L31.9072 42.0056L31.3204 40.1355C31.1993 39.736 30.8813 39.2784 31.5295 38.8182Z" fill="#36464E"/>
<path d="M31.5765 21.0647C31.5184 21.5205 31.4081 21.9682 31.2479 22.3989L30.8424 22.4174C30.6969 22.1042 30.5978 21.7714 30.548 21.4297C30.5489 20.5292 30.6409 19.6417 30.6732 18.7301C30.7055 17.8184 30.7325 16.8333 30.7065 15.8907C30.6903 15.3445 30.694 14.904 31.5977 14.7428C32.172 16.914 31.6234 18.9952 31.5765 21.0647Z" fill="#FFD31A"/>
<path d="M34.0375 48.6348C33.3231 46.4217 32.6076 44.2132 31.8912 42.0092L32.5172 41.8118C33.6837 44.3784 34.1107 47.2295 35.5812 49.9576C35.6876 49.7258 35.7671 49.4825 35.8181 49.2325C35.6919 46.3131 35.5538 43.3935 35.4036 40.4736L33.8172 39.8322L33.2909 39.2705L34.2503 38.3692L35.2628 39.4295L35.659 37.6437L36.1071 37.7431C36.3042 41.5488 36.5013 45.3545 36.7112 49.3475L38.4325 49.1362C38.4516 48.9218 38.451 48.7062 38.4308 48.4919C37.8129 45.9178 38.0823 43.2104 39.1953 40.8085C39.7062 39.5435 40.0401 38.2142 40.1876 36.858C40.5193 34.3199 40.0522 31.8614 38.5014 29.7883C36.8112 27.4961 34.3838 26.6355 31.5108 26.5443C28.2426 26.4413 25.333 29.4165 25.0009 32.0051C24.5968 34.6232 25.0913 37.3009 26.4039 39.6016C27.4406 41.3509 28.9687 42.8258 30.3841 44.3191C31.5763 45.5678 32.3605 47.1497 32.6325 48.8548C32.7066 49.2872 32.802 49.7208 32.906 50.2792L34.4415 49.7156C34.2828 49.2897 34.1311 48.9631 34.0375 48.6348ZM27.1644 42.4327C24.4213 39.4909 23.6662 35.8688 23.9654 32.0431C24.2135 28.904 27.4613 26.0183 30.6053 25.7356C33.6926 25.4476 36.416 26.2617 38.6749 28.3871C40.6783 30.2785 41.3247 32.7442 41.3763 35.3963C41.3918 37.5267 40.9245 39.633 40.0093 41.557C39.0261 43.7226 38.9386 45.9423 39.3582 48.2238C39.405 48.4693 39.4051 48.8275 39.5629 48.9312C41.0529 49.9093 40.0994 51.5498 40.6213 52.7833C40.6465 52.9073 40.6453 53.0352 40.6179 53.1588C40.5905 53.2823 40.5374 53.3987 40.4622 53.5004C40.3795 53.6123 40.2968 53.7242 40.2107 53.8353L39.5917 53.3651L39.4694 49.8907C38.5878 49.9845 37.8046 49.8469 37.3352 50.1696C36.7211 50.5904 36.1187 50.5508 35.5029 50.5552L35.2264 50.5626C33.3775 50.6479 32.5168 51.2021 32.5577 52.3542L31.7791 52.3913C31.7657 51.8663 31.7903 51.341 31.853 50.8197C31.9666 49.915 31.8887 48.9966 31.6244 48.1241C31.36 47.2516 30.9152 46.4444 30.3186 45.7551C29.2931 44.5906 28.1953 43.5404 27.1644 42.4327Z" fill="#36464E"/>
<path d="M37.1314 56.3389C37.0999 57.1819 36.8089 57.3525 36.0926 56.8318L37.1314 56.3389Z" fill="#D6D6D6"/>
<path d="M34.1167 55.8908C35.5767 55.1296 36.9438 55.0314 38.2638 54.6406C38.0993 55.2842 38.1177 55.2991 36.5186 55.7256C35.8419 55.9227 35.1458 56.2891 34.1167 55.8908Z" fill="#D6D6D6"/>
<path d="M38.4328 49.1371L36.7257 49.3335C36.5262 45.3428 36.3187 41.5348 36.1216 37.7291L35.6735 37.6297L35.2734 39.4327L34.2618 38.369L33.3023 39.2703L32.5829 39.9209L31.5291 38.8189C30.8809 39.2792 31.1989 39.7368 31.3223 40.1259L31.9091 41.996C32.623 44.2114 33.3385 46.42 34.0555 48.6216C34.1628 48.9529 34.3008 49.2765 34.4629 49.7031L32.9274 50.2667C32.82 49.7076 32.728 49.2748 32.6539 48.8424C32.3819 47.1373 31.5977 45.5553 30.4055 44.3066C28.9901 42.8133 27.4482 41.3354 26.4253 39.5891C25.1127 37.2884 24.6182 34.6107 25.0223 31.9927C25.3333 29.4175 28.243 26.4422 31.5112 26.5452C34.3669 26.6326 36.8012 27.4947 38.5052 29.79C40.0388 31.8593 40.5059 34.3178 40.1914 36.8597C40.0427 38.2158 39.7076 39.5449 39.1957 40.8094C38.0807 43.2101 37.8088 45.917 38.4242 48.4913C38.4468 48.7059 38.4497 48.922 38.4328 49.1371Z" fill="#FFFA55"/>
<path d="M37.3493 52.3905C36.8068 53.012 36.0771 53.4404 35.2702 53.6112C34.7238 53.7281 34.1629 53.761 33.6066 53.7087C34.1423 53.2813 34.7595 52.9678 35.4205 52.7873C36.0251 52.6212 36.6734 52.5191 37.3493 52.3905Z" fill="#36464E"/>
<path d="M23.8112 25.0315C23.238 25.4794 22.8404 25.3478 22.5635 24.9174C21.6853 23.5614 20.8463 22.1924 20.0088 20.8165C19.6862 20.2819 19.9396 19.9873 20.5071 19.8419L23.8112 25.0315Z" fill="#FFD31A"/>
</g>
</svg>
