<svg width="151" height="151" viewBox="0 0 151 151" fill="none" xmlns="http://www.w3.org/2000/svg">
<g filter="url(#filter0_d)">
<circle cx="75.5" cy="70.5" r="67.5" fill="#D5F2E3"/>
<mask id="mask0" mask-type="alpha" maskUnits="userSpaceOnUse" x="8" y="3" width="135" height="135">
<circle cx="75.5" cy="70.5" r="67.5" fill="#D5F2E3"/>
</mask>
<g mask="url(#mask0)">
<path d="M134.225 57.9901L130.358 56.8198C129.274 56.4935 128.23 55.9365 126.83 56.1896C128.382 57.2249 131.657 57.9845 134.225 57.9901ZM134.225 57.9901C133.345 61.6079 130.838 64.4323 129.709 67.9095L129.049 67.8476C128.93 67.4256 128.603 66.9192 128.732 66.5929C129.359 65.0287 130.11 63.504 130.821 61.9736C131.188 61.1746 131.572 60.3813 132.108 59.256L124.205 57.298L127.863 53.0389L117.972 51.4072C117.555 49.331 119.102 48.4758 120.073 46.9848C119.525 46.8983 118.973 46.8513 118.418 46.8442C116.081 46.9905 113.75 47.2155 111.407 47.3224C110.511 47.2804 109.62 47.1675 108.742 46.9848C109.267 45.7245 109.646 44.8018 110.103 43.699L99.6026 43.2489C99.5123 41.8029 99.5123 41.8029 101.217 38.7984C97.3332 38.5959 93.7089 39.5805 89.537 40.3232C90.333 38.9053 90.8355 38.0107 91.3323 37.1161L91.0726 36.7504L81.4925 40.3457C81.6167 39.316 81.7014 38.6577 81.7804 37.9995C81.2949 37.555 77.8287 40.8127 76.6657 43.0632L77.2303 43.8172C76.0767 44.3606 74.9767 45.0105 73.9447 45.7583C70.4559 48.2226 66.8147 50.5576 63.6476 53.3933C60.1701 56.4935 56.9297 59.9875 55.5861 64.6461C54.9087 67.0036 53.2829 68.1345 51.1884 68.6184C46.0399 69.7943 40.8632 70.8689 35.6808 71.9267L35.4775 70.9252C37.2558 70.5651 39.0284 70.0925 40.8011 69.7212C43.7987 69.091 46.7795 68.4046 49.7771 67.8026C51.8264 67.3862 53.249 66.4297 53.9716 64.3198C55.812 58.9466 59.7016 55.025 63.8509 51.4353C66.5211 49.1229 69.6091 47.2943 72.4995 45.2463C72.9511 44.9199 73.5608 44.633 73.7753 44.1773C74.9891 41.6004 77.1174 39.8843 79.2118 38.1064C79.5536 37.7551 79.8688 37.379 80.1545 36.9811C78.1505 36.1315 76.344 35.2538 74.4584 34.6011C72.2793 33.9414 70.3837 32.575 69.0728 30.7189C68.1639 29.4079 66.8994 28.3445 65.8155 27.1461C65.1945 26.4428 64.5961 25.717 64.0485 25.0531C64.0647 24.8165 64.1284 24.5856 64.2358 24.374C64.3432 24.1624 64.4921 23.9744 64.6738 23.8212C64.8554 23.668 65.066 23.5527 65.2931 23.4821C65.5203 23.4115 65.7593 23.387 65.9961 23.4102L73.0245 23.2751C73.5876 23.3513 74.1592 23.338 74.7181 23.2358C76.9762 22.3805 78.986 23.3483 80.9279 24.2766C84.4995 25.9646 88.0392 27.7219 91.5468 29.5486C92.0664 29.8514 92.6447 30.0406 93.2433 30.1036C93.8418 30.1667 94.447 30.1021 95.0187 29.9143C98.022 28.9691 101.042 28.0801 104.051 27.1799C104.791 26.9604 105.542 26.409 106.456 27.3937L103.69 31.0396L119.937 30.145C120.722 32.0355 119.039 32.6319 118.537 33.9709C123.702 35.3607 129.156 34.8824 134.75 36.4803L130.443 40.8408C132.137 41.6004 133.898 41.4822 135.524 41.8817C137.15 42.2812 138.821 42.6919 140.463 43.1251C142.106 43.5583 143.851 44.0422 145.493 44.498C145.493 46.456 143.235 45.5163 142.998 47.1649C146.306 49.5055 150.495 50.3944 154.317 52.6844L151.681 55.4413C154.537 57.1293 157.89 56.9436 160.826 58.8678L146.944 69.603C148.762 69.8506 150.331 70.0981 151.861 70.2725C153.944 70.4976 156.033 70.6439 158.116 70.8802C158.545 70.9308 159.245 71.1559 159.302 71.4428C159.387 71.9639 159.295 72.4983 159.042 72.962C158.89 73.2883 158.478 73.4852 158.156 73.7384C153.124 77.8832 148.096 82.0336 143.072 86.1897C143.026 86.2234 143.072 86.3416 142.993 86.7523C150.777 89.8637 159.11 91.9005 167.064 96.2609C163.372 98.2864 159.725 99.2204 156.18 100.239C152.635 101.257 149.005 101.994 145.375 103.08C152.652 104.037 159.183 107.126 166.342 109.556C165.911 110.068 165.435 110.541 164.919 110.968C161.374 113.219 157.819 115.445 154.255 117.647C151.118 119.581 148.197 121.844 145.544 124.399C152.827 125.816 159.883 126.852 166.917 129.687C166.212 130.56 165.828 131.263 165.252 131.702C162.943 133.463 160.578 135.139 158.235 136.844L153.154 140.558C157.614 142.139 161.893 142.127 165.867 143.934C163.059 147.144 159.471 149.583 155.446 151.017C153.408 151.76 151.494 152.801 149.524 153.74C149.145 154.009 148.797 154.319 148.485 154.663L169.441 155.063C169.323 155.54 169.132 155.998 168.876 156.419C167.572 157.82 166.172 159.13 164.879 160.543C164.36 161.105 163.88 161.707 163.366 162.27H161.995L166.511 156.75C166.191 156.585 165.848 156.466 165.495 156.396C159.285 156.396 153.075 156.464 146.831 156.492C146.128 156.516 145.427 156.389 144.776 156.12C146.892 154.012 149.38 152.31 152.115 151.102C154.04 150.269 156.022 149.566 157.924 148.693C160.109 147.729 162.041 146.276 163.57 144.446C159.494 142.758 155.102 143.005 150.981 141.148C153.131 138.825 155.497 137.21 157.913 135.651C160.419 134.079 162.778 132.286 164.964 130.295C162.892 129.046 160.798 128.759 158.799 128.343C154.283 127.403 149.767 126.655 145.251 125.822C144.426 125.67 143.625 125.383 142.597 125.096C149.123 119.065 156.299 114.614 163.914 110.203C162.83 109.708 162.22 109.354 161.537 109.129C157.789 107.863 154.074 106.473 150.247 105.443C147.932 104.813 145.465 104.757 143.06 104.453C141.367 104.245 141.367 104.234 139.814 102.968C144.043 101.91 148.017 100.751 152.059 99.9575C156.101 99.1642 159.917 97.7069 164.078 96.3678C163.776 96.079 163.442 95.8242 163.084 95.6083C159.245 94.1398 155.407 92.6769 151.556 91.2478C148.457 90.1225 145.347 89.031 142.23 87.872C141.41 87.4987 140.616 87.0701 139.854 86.5891L156.824 72.7425C156.393 72.4774 155.93 72.2693 155.446 72.1236C152.482 71.7692 149.513 71.4822 146.549 71.1278C145.567 71.0096 144.607 70.7395 143.286 70.4695L158.591 59.0535L149.056 56.3922L151.878 52.8532C147.797 50.9627 143.534 49.5167 139.459 46.7204L142.372 45.4094C142.219 45.1844 142.14 44.8974 141.988 44.8468C137.879 43.6589 133.665 42.8657 129.404 42.4781C128.275 42.3937 126.965 42.6412 125.989 41.3528C127.874 39.9518 130.42 39.6086 131.849 37.2061C126.367 36.2553 120.914 36.2046 115.235 35.0231L118.215 31.9623C112.293 31.2815 106.829 32.525 101.341 32.9694C101.262 32.7669 101.178 32.5587 101.099 32.3505L103.199 28.7046L95.6735 31.0958C96.1956 31.4453 96.7386 31.7629 97.2994 32.0467C105.683 35.4226 114.111 38.6803 122.449 42.1743C128.253 44.588 133.921 47.3112 139.639 49.9106C140.887 50.4732 142.191 50.9346 143.399 51.5985C144.546 52.1812 145.634 52.8747 146.645 53.669C147.678 54.5073 148.124 55.4132 148.045 56.3809C147.932 57.2328 147.571 58.033 147.006 58.6821C145.313 60.8427 143.134 60.6851 140.909 60.1169C138.685 59.5486 136.461 58.6934 134.231 57.9901H134.225ZM146.645 56.4372C146.781 55.9139 146.12 55.1825 145.629 54.1473C144.669 56.0152 143.218 57.0392 143.506 59.0647C145.172 58.7159 146.278 57.8663 146.662 56.4372H146.645ZM144.189 53.6971C141.931 52.3356 141.818 52.3299 140.751 54.0854C140.091 55.1713 139.549 56.3359 138.815 57.7313C139.978 58.2602 140.943 59.3517 141.79 58.2151C142.823 56.8592 143.433 55.1994 144.206 53.6971H144.189ZM140.379 51.9642C139.814 51.6266 139.34 51.3059 138.843 51.0865C134.57 49.1904 130.308 47.2718 126.006 45.4601C120.439 43.0857 114.901 40.6551 109.256 38.489C107.596 37.8532 105.931 37.2174 104.277 36.576C97.384 33.8697 90.525 31.0565 84.0159 27.4724C82.0102 26.4434 79.9352 25.5542 77.8061 24.8111C77.3206 24.6255 76.3327 24.7436 76.1125 25.0812C74.656 27.2418 73.0753 29.3854 72.6463 32.3956C76.519 33.1214 79.5618 36.1259 83.7506 35.6139C83.8071 36.4353 83.8635 37.1724 83.9256 38.0782C87.3128 36.8798 90.3726 35.5351 94.0872 35.1862C93.7767 35.9514 93.596 36.4297 93.3872 36.8742C93.1783 37.3187 92.9468 37.7519 92.642 38.3483C96.3905 37.9544 99.851 37.2962 103.848 37.6619L101.116 42.1011L112.35 42.495L111.017 46.1409L114.151 45.9833C116.488 45.8708 118.825 45.7358 121.162 45.6683C121.784 45.7467 122.395 45.8997 122.98 46.124C121.727 47.6262 120.688 48.8641 119.406 50.3888C121.563 50.7602 123.302 50.9515 125.001 51.3734C126.7 51.7954 128.67 51.2328 130.268 52.4199C129.703 53.2245 129.303 53.8828 128.721 54.7605C131.787 55.6945 134.547 56.9323 137.5 57.4387L140.379 51.9642ZM74.2439 24.9574H68.0341C68.0849 25.9533 67.8365 26.9436 68.2147 27.5512C68.9542 28.7384 70.0381 29.7061 71.1333 30.9271L74.2439 24.9574Z" fill="#4D3826"/>
<path d="M165.517 156.396C165.871 156.466 166.213 156.585 166.533 156.75L162.017 162.27H136.359V162.23C137.398 161.735 137.121 161.032 136.924 160.317C136.614 159.404 136.398 158.461 136.28 157.504C136.077 154.128 136.116 154.1 134.022 151.714C134.333 149.953 134.587 148.114 135.004 146.324C135.388 144.732 135.151 143.477 133.74 142.532C133.365 142.305 133.073 141.963 132.907 141.558C132.742 141.153 132.711 140.705 132.82 140.282C133.384 136.821 133.345 136.816 130.381 135.055C130.945 133.074 131.51 130.998 132.137 128.95C132.831 126.699 133.012 124.691 130.567 123.357C130.516 123.357 130.505 123.217 130.42 123.009C130.872 120.37 133.243 117.512 130.003 114.935C130.354 113.929 130.635 112.901 130.844 111.857C130.951 111.019 131.07 109.798 130.601 109.348C129.325 108.121 129.557 106.996 130.161 105.645C130.331 105.027 130.469 104.399 130.573 103.766C130.911 102.641 130.641 101.887 129.523 101.442C129.193 101.276 128.881 101.076 128.591 100.846C128.93 99.8671 129.229 99.04 129.511 98.2017C130.392 95.6248 130.313 95.3491 128.117 93.4755C128.377 92.3502 128.682 91.2249 128.919 90.0265C129.145 88.9743 128.992 88.1023 127.79 87.7253C127.432 87.5626 127.095 87.3586 126.785 87.1176C126.887 86.6103 127.017 86.1088 127.174 85.6154C128.388 82.504 128.394 82.5096 125.898 80.4503C126.079 79.3926 126.265 78.3067 126.514 76.8157L124.961 76.0224C125.238 75.2428 125.427 74.4352 125.526 73.6142C125.526 72.9447 125.402 71.9263 124.961 71.6675C123.471 70.7954 123.24 69.4901 123.081 68.0047C123.031 67.4927 122.573 67.0257 122.308 66.5362C122.043 66.0467 121.489 65.4109 121.484 64.8483C121.45 62.5977 120.078 61.0899 118.56 59.7845C117.041 58.4792 115.133 57.3764 114.433 55.2103C114.303 54.8164 113.761 54.5407 113.394 54.2256C111.253 52.3989 109.109 50.5741 106.964 48.7511C106.672 48.4727 106.339 48.2411 105.976 48.0647C103.718 47.187 101.302 46.675 99.851 44.4694C99.7973 44.4098 99.7262 44.3685 99.6478 44.3513L99.2695 44.2331L99.5744 43.2654L110.075 43.7155C109.617 44.8408 109.239 45.741 108.714 47.0013C109.592 47.184 110.483 47.2969 111.379 47.3389C113.722 47.232 116.053 47.0069 118.39 46.8607C118.944 46.8678 119.497 46.9148 120.044 47.0013C119.096 48.4923 117.526 49.3475 117.944 51.4237L127.835 53.0553L124.177 57.3145L132.08 59.2725C131.544 60.3978 131.16 61.1911 130.793 61.9901C130.082 63.5205 129.331 65.0452 128.704 66.6094C128.574 66.9357 128.902 67.4421 129.02 67.8641L129.681 67.9259C130.849 64.4488 133.333 61.6244 134.197 58.0066C136.455 58.7099 138.629 59.5088 140.887 60.0884C143.145 60.6679 145.296 60.8142 146.984 58.6536C147.549 58.0044 147.91 57.2043 148.022 56.3524L149.016 56.4087L158.551 59.07L143.28 70.4691C144.601 70.7391 145.538 71.0317 146.543 71.1274C149.507 71.4818 152.477 71.7688 155.44 72.1232C155.93 72.2658 156.399 72.472 156.835 72.7365L139.865 86.5831C140.627 87.0641 141.421 87.4927 142.242 87.8659C145.335 89.0306 148.451 90.1165 151.568 91.2418C155.418 92.6709 159.257 94.1338 163.095 95.6023C163.454 95.8182 163.787 96.0729 164.089 96.3618C159.928 97.6897 156.129 99.175 152.07 99.9515C148.011 100.728 144.054 101.904 139.825 102.962C141.361 104.228 141.4 104.239 143.071 104.447C145.476 104.751 147.943 104.807 150.258 105.437C154.074 106.467 157.789 107.857 161.549 109.123C162.215 109.348 162.841 109.685 163.925 110.197C156.31 114.631 149.135 119.059 142.626 125.09C143.653 125.377 144.455 125.653 145.279 125.816C149.795 126.666 154.34 127.397 158.828 128.337C160.826 128.753 162.92 129.04 164.992 130.289C162.807 132.28 160.447 134.073 157.941 135.645C155.548 137.215 153.16 138.819 151.009 141.142C155.152 142.999 159.522 142.74 163.598 144.44C162.069 146.27 160.137 147.723 157.953 148.687C156.05 149.56 154.069 150.263 152.144 151.096C149.408 152.304 146.92 154.006 144.805 156.114C145.455 156.383 146.156 156.51 146.859 156.486C153.075 156.463 159.296 156.418 165.517 156.396Z" fill="#4D3826"/>
<path d="M151.845 52.8532L149.022 56.3922L148.029 56.3359C148.108 55.3682 147.662 54.4623 146.629 53.624C145.617 52.8297 144.53 52.1362 143.383 51.5535C142.175 50.9177 140.871 50.4282 139.623 49.8656C133.893 47.283 128.225 44.5599 122.427 42.1349C114.089 38.6521 105.661 35.3832 97.2775 32.0073C96.7151 31.7274 96.1702 31.4136 95.646 31.0677L103.171 28.6765L101.071 32.3224C101.15 32.5306 101.235 32.7388 101.314 32.9413C106.801 32.4743 112.266 31.2534 118.188 31.9342L115.207 34.995C120.886 36.1765 126.34 36.2272 131.821 37.178C130.393 39.5805 127.869 39.9237 125.961 41.3247C126.938 42.6244 128.253 42.3768 129.377 42.45C133.648 42.845 137.871 43.6477 141.988 44.8468C142.141 44.8862 142.22 45.1731 142.372 45.4095L139.408 46.7092C143.501 49.5167 147.764 50.9627 151.845 52.8532Z" fill="#4D3826"/>
<path d="M142.767 54.3661L140.892 57.2637C140.221 55.5308 141.276 54.7768 142.174 53.9385L142.767 54.3661Z" fill="#4D3826"/>
<path d="M140.768 54.0854C141.835 52.33 141.926 52.3356 144.206 53.6972C143.433 55.1995 142.823 56.8593 141.807 58.1983C140.96 59.3236 139.995 58.2433 138.832 57.7145C139.566 56.336 140.108 55.1713 140.768 54.0854ZM140.893 57.2644L142.767 54.3668L142.202 53.9391C141.276 54.7775 140.204 55.537 140.893 57.2644Z" fill="#D6D6D6"/>
<path d="M138.86 51.0862C139.357 51.3057 139.809 51.6489 140.396 51.964L137.517 57.4272C134.564 56.9208 131.804 55.683 128.738 54.749C129.303 53.8713 129.749 53.213 130.285 52.4084C128.688 51.2213 126.74 51.767 125.018 51.3619C123.296 50.9568 121.58 50.7487 119.424 50.3773C120.705 48.8526 121.744 47.6147 122.997 46.1125C122.412 45.8882 121.801 45.7352 121.179 45.6568C118.842 45.7243 116.505 45.8593 114.168 45.9718L111.035 46.1294L112.367 42.4835L101.133 42.0896L103.865 37.6504L104.294 36.5532C105.948 37.1946 107.614 37.8304 109.273 38.4662C114.919 40.6324 120.457 43.063 126.023 45.4373C130.325 47.2715 134.587 49.1901 138.86 51.0862Z" fill="#00C48C"/>
<path d="M136.935 160.317C137.121 161.032 137.398 161.735 136.371 162.23C135.196 160.671 135.016 158.854 135.129 157.037C135.225 155.585 135.083 154.319 133.633 153.515C132.684 152.997 132.741 152.041 132.893 151.152C133.147 149.728 133.458 148.338 133.757 146.898C134.062 145.385 134.056 144 132.357 143.218C131.386 142.768 131.267 141.924 131.442 140.968C131.64 139.876 131.792 138.779 131.945 137.834C131.657 137.536 131.566 137.361 131.437 137.311C128.862 136.354 128.851 136.354 129.557 133.693C129.997 132.056 130.499 130.441 130.923 128.803C131.679 125.94 131.651 125.9 128.896 124.167C129.088 123.049 129.344 121.942 129.664 120.853C130.279 119.104 130.827 117.478 128.958 116.077C128.637 115.835 128.62 115.081 128.614 114.563C128.679 114.172 128.802 113.792 128.981 113.438C129.856 110.731 129.856 110.731 127.852 108.779L129.37 102.888L126.548 102.191C127.265 100.053 127.97 97.9708 128.687 95.8384L126.497 94.488C126.83 92.7326 127.163 90.9546 127.513 89.1092L124.961 87.8151L126.44 82.8526L124.154 81.0972C124.256 80.5852 124.374 79.9719 124.499 79.3755C124.696 78.4077 124.911 77.4794 123.759 76.8605C122.929 76.4216 123.127 75.6733 123.409 74.9531C123.691 74.2329 123.945 73.4846 124.244 72.6688C122.461 71.7292 121.45 70.5139 121.676 68.5559C121.669 68.152 121.505 67.7666 121.219 67.4812C120.253 66.5022 120.169 65.2307 119.751 64.0491C119.226 62.5525 118.018 61.1853 116.815 60.0656C115.528 58.8672 113.93 58.0457 113.304 56.2172C113.112 55.6545 112.457 55.2607 111.972 54.8387C109.905 53.0495 107.856 51.2265 105.711 49.5217C104.924 48.9715 104.053 48.5534 103.131 48.2839C101.663 47.7775 100.218 47.2824 99.2978 45.9096C99.168 45.7127 98.9873 45.4201 98.801 45.3976C96.0744 45.1106 93.7711 43.2595 90.9992 43.2258C89.882 43.2548 88.7772 42.9868 87.7983 42.4493C85.9071 41.4028 83.8466 42.1568 81.8595 42.4156C80.24 42.6382 78.6639 43.1049 77.1851 43.7997L76.6206 43.0457C79.2457 41.0821 81.8877 41.3072 84.3942 40.9583C85.5797 40.7952 87.0927 40.497 87.9564 41.0427C89.5089 42.0274 91.1403 41.8867 92.7436 42.2524C94.9453 42.7532 97.0905 43.5352 99.247 44.216L99.6253 44.3342C99.7037 44.3514 99.7748 44.3927 99.8285 44.4523C101.279 46.6579 103.718 47.1699 105.954 48.0476C106.317 48.224 106.65 48.4556 106.942 48.734C109.087 50.557 111.23 52.3818 113.372 54.2085C113.739 54.5236 114.28 54.7712 114.41 55.1932C115.11 57.3593 116.962 58.4058 118.537 59.7674C120.112 61.129 121.427 62.5806 121.461 64.8312C121.461 65.3938 121.992 65.9565 122.286 66.5191C122.579 67.0818 123.008 67.4756 123.059 67.9876C123.217 69.473 123.448 70.8008 124.939 71.6504C125.368 71.898 125.503 72.9276 125.503 73.5971C125.405 74.4181 125.215 75.2257 124.939 76.0052L126.491 76.7817C126.243 78.2727 126.057 79.3586 125.876 80.4164C128.371 82.4756 128.366 82.47 127.152 85.5814C126.995 86.0748 126.865 86.5763 126.762 87.0837C127.072 87.3246 127.41 87.5286 127.767 87.6913C128.981 88.0683 129.133 88.9404 128.896 89.9925C128.648 91.1684 128.332 92.3331 128.095 93.4415C130.291 95.3151 130.353 95.5908 129.489 98.1677C129.207 99.006 128.924 99.8556 128.569 100.812C128.858 101.042 129.17 101.242 129.5 101.408C130.629 101.853 130.889 102.624 130.55 103.732C130.446 104.365 130.309 104.993 130.138 105.611C129.534 106.962 129.303 108.087 130.579 109.314C131.047 109.764 130.929 111.002 130.821 111.823C130.613 112.867 130.332 113.895 129.98 114.901C133.209 117.478 130.849 120.336 130.398 122.975C130.483 123.183 130.494 123.295 130.545 123.323C132.989 124.657 132.803 126.699 132.114 128.916C131.476 130.964 130.923 133.04 130.358 135.021C133.322 136.782 133.356 136.787 132.797 140.248C132.688 140.672 132.719 141.119 132.885 141.524C133.05 141.929 133.342 142.271 133.717 142.498C135.129 143.443 135.366 144.698 134.982 146.29C134.547 148.08 134.31 149.919 134 151.68C136.111 154.066 136.071 154.072 136.258 157.47C136.384 158.44 136.611 159.394 136.935 160.317Z" fill="#4D3826"/>
<path d="M136.36 162.23V162.27H88.098L87.9625 162.034L88.3634 161.803C88.7134 161.595 88.9279 161.145 89.2327 160.751C88.29 159.969 87.6182 160.334 86.9069 160.751C85.9074 161.435 84.8405 162.015 83.7229 162.484C80.1494 163.721 76.5759 165.038 72.9008 165.916C67.1679 167.389 61.1884 167.646 55.3496 166.67C52.8374 166.22 50.6075 165.302 49.247 163.159C47.7986 160.935 46.568 158.578 45.5719 156.12C44.1436 152.457 43.0541 148.665 41.8347 144.918C39.108 136.585 36.2345 128.298 33.7224 119.897C32.3483 115.067 32.105 109.988 33.0111 105.049C33.0869 104.086 33.3017 103.138 33.649 102.236C34.2818 100.859 35.1213 99.5859 36.1386 98.4607C36.545 98.0443 37.7644 98.4607 38.6112 98.4607C39.458 98.4607 40.429 97.9824 40.9427 98.32C41.9757 99.0513 43.1537 99.5539 44.3977 99.7942L44.6461 99.8392C45.0807 99.8954 45.4364 100.554 45.809 100.964C46.1816 101.375 46.3397 101.78 46.7179 102.017C48.4413 103.063 49.7722 104.644 50.5059 106.518C50.7784 107.093 51.2521 107.549 51.8382 107.801C52.1235 107.9 52.3853 108.057 52.6076 108.261C52.8299 108.465 53.008 108.712 53.131 108.988C53.2691 109.325 53.34 109.686 53.3398 110.051C53.4132 113.236 54.3729 116.24 55.4399 119.172C56.5069 122.103 57.5512 125.079 58.7876 127.954C59.8204 130.31 60.993 132.602 62.299 134.819C63.428 136.788 64.5063 137.21 66.691 136.613H66.7757C68.1717 136.194 69.5118 135.609 70.7669 134.869C75.4582 132.236 78.6704 128.039 81.9672 123.976C85.0947 120.094 87.8158 115.88 90.6723 111.784C90.8755 111.497 90.757 110.996 90.8021 110.467C88.7077 111.48 88.544 111.7 87.1496 113.748C84.8915 117.078 82.6051 120.392 80.2906 123.69C78.7833 125.839 76.8413 127.577 74.7299 129.879C74.4364 126.469 74.4194 123.639 73.9226 120.876C72.6468 113.843 71.3202 106.81 69.6943 99.8504C68.7616 95.4302 66.6404 91.3461 63.5579 88.035C59.3408 83.5845 54.4407 81.2833 48.3494 81.3114C43.8331 81.3451 39.3169 81.3451 34.8006 81.3114C34.0046 81.3114 33.107 81.5983 32.2659 80.85C32.6215 80.5462 32.8643 80.3549 33.0957 80.1411C33.6264 79.646 34.8289 79.314 34.0272 78.3463C33.3724 77.5586 32.678 78.4644 32.2264 78.9089C29.4489 81.604 26.0673 81.649 22.5277 81.3789C21.6762 81.3356 20.8493 81.0795 20.1232 80.6341C19.3971 80.1887 18.7951 79.5683 18.3728 78.8301C17.0631 76.6471 17.1252 75.4543 19.9309 74.8917C20.247 74.8298 20.5519 74.7172 20.868 74.661C25.1471 73.8676 29.4432 73.1362 33.7054 72.2754C34.3659 72.1403 35.0321 72.0109 35.6926 71.8703C40.8468 70.8744 46.0405 69.7885 51.189 68.6126C53.2834 68.1287 54.9092 66.9978 55.5867 64.6403C56.9303 59.9873 60.1707 56.4933 63.6482 53.3875C66.8208 50.5743 70.4564 48.2393 73.917 45.7356C74.949 44.9878 76.049 44.3379 77.2026 43.7945C78.6813 43.0997 80.2574 42.633 81.8769 42.4104C83.8358 42.1516 85.9246 41.3976 87.8158 42.4441C88.7946 42.9816 89.8994 43.2496 91.0166 43.2206C93.7885 43.2543 96.0974 45.1054 98.8185 45.3924C99.0048 45.3924 99.1854 45.7075 99.3153 45.9044C100.235 47.2772 101.681 47.7723 103.148 48.2787C104.07 48.5482 104.942 48.9663 105.728 49.5165C107.874 51.2045 109.923 53.0443 111.989 54.8335C112.474 55.2555 113.118 55.6606 113.321 56.212C113.948 58.0406 115.546 58.862 116.833 60.0604C118.035 61.1857 119.243 62.5473 119.768 64.0439C120.186 65.2367 120.271 66.497 121.236 67.476C121.523 67.7614 121.687 68.1468 121.693 68.5507C121.467 70.5087 122.478 71.724 124.262 72.6636C123.963 73.4794 123.697 74.2221 123.426 74.9479C123.155 75.6737 122.947 76.4164 123.776 76.8553C124.905 77.4742 124.714 78.4025 124.516 79.3703C124.392 79.9723 124.273 80.58 124.172 81.092L126.458 82.8474L124.962 87.8155L127.457 89.0927C127.107 90.9382 126.774 92.7161 126.441 94.4716L128.631 95.8219C127.914 97.9543 127.209 100.036 126.492 102.174L129.314 102.872L127.796 108.763C129.806 110.715 129.806 110.715 128.925 113.421C128.746 113.776 128.623 114.155 128.558 114.547C128.558 115.064 128.558 115.818 128.902 116.06C130.771 117.461 130.223 119.087 129.608 120.837C129.312 121.937 129.08 123.052 128.914 124.179C131.669 125.912 131.697 125.951 130.94 128.815C130.517 130.452 130.014 132.067 129.574 133.705C128.868 136.366 128.88 136.366 131.454 137.322C131.584 137.373 131.674 137.547 131.962 137.846C131.81 138.791 131.657 139.888 131.46 140.979C131.285 141.936 131.403 142.78 132.374 143.23C134.068 144.012 134.068 145.396 133.774 146.91C133.492 148.328 133.165 149.723 132.911 151.163C132.758 152.052 132.702 153.009 133.65 153.526C135.101 154.331 135.242 155.597 135.146 157.049C135.005 158.877 135.186 160.672 136.36 162.23ZM79.6414 65.6643C83.1923 63.9764 83.3447 60.4768 82.5318 57.8886C82.4514 57.5332 82.2964 57.1988 82.0769 56.9074C81.8574 56.6161 81.5784 56.3744 81.2583 56.1984C80.9382 56.0225 80.5843 55.9161 80.22 55.8864C79.8556 55.8568 79.4891 55.9044 79.1446 56.0263C75.1307 57.2191 71.9129 59.7847 68.0741 62.1591C68.819 63.0584 69.6164 63.9132 70.4621 64.7191C73.9565 67.5773 75.605 67.5886 79.6414 65.6643ZM19.9252 77.2266C20.868 77.266 21.5737 76.9903 21.7995 75.2686L19.5414 76.6133L19.9252 77.2266Z" fill="#C8A468"/>
<path d="M130.358 56.8192L134.225 57.9895C131.656 57.9895 128.382 57.2243 126.83 56.1891C128.23 55.9359 129.274 56.4929 130.358 56.8192Z" fill="#4D3826"/>
<path d="M104.295 36.5532L103.866 37.6503C99.8688 37.2846 96.4082 37.9429 92.6598 38.3367C92.9646 37.7403 93.2243 37.3127 93.4049 36.8626C93.5856 36.4125 93.7945 35.9286 94.105 35.1747C90.3621 35.5235 87.2798 36.8626 83.9434 38.0667C83.8813 37.1608 83.8248 36.4238 83.7684 35.6023C79.5796 36.1143 76.5367 33.1098 72.6641 32.384C73.0931 29.3964 74.6738 27.2527 76.1303 25.0697C76.3561 24.7321 77.344 24.6139 77.8239 24.7996C79.953 25.5426 82.028 26.4319 84.0337 27.4609C90.5258 31.0562 97.3849 33.8694 104.295 36.5532Z" fill="#00C48C"/>
<path d="M89.5092 40.3462C93.6811 39.6036 97.3054 38.6189 101.189 38.8215C99.4958 41.826 99.4958 41.826 99.5748 43.272L99.27 44.2397C97.1135 43.5589 94.9682 42.7769 92.7666 42.2761C91.1633 41.9104 89.5318 42.051 87.9793 41.0664C87.1156 40.5038 85.6027 40.8189 84.4171 40.982C81.9106 41.3309 79.2686 41.1058 76.6436 43.0694C77.7726 40.8189 81.2727 37.578 81.7582 38.0057C81.6792 38.6583 81.5945 39.3222 81.4703 40.3519L91.0673 36.7566L91.327 37.1223C90.8076 38.0113 90.3052 38.9059 89.5092 40.3462Z" fill="#4D3826"/>
<path d="M90.802 110.49C90.7568 111.019 90.8753 111.52 90.6721 111.807C87.8156 115.903 85.0945 120.117 81.967 123.999C78.6984 128.062 75.458 132.259 70.7667 134.87C69.5107 135.589 68.1726 136.156 66.7812 136.558H66.6965L66.3747 135.314C67.0534 135.165 67.7126 134.939 68.3393 134.639C68.6328 134.504 68.9038 134.335 69.203 134.2C72.1611 132.822 73.4991 131.066 72.9966 127.302C72.3079 122.109 71.4668 116.955 70.5522 111.813C69.8409 107.874 69.1522 103.885 68.1473 99.9972C66.7621 94.3303 63.398 89.34 58.6575 85.9199C56.0459 83.9827 52.8806 82.9298 49.625 82.9154C42.1958 82.8029 34.7609 82.9154 27.3317 82.8423C25.3954 82.848 23.4607 82.7296 21.5396 82.4878C20.1845 82.2366 18.935 81.5895 17.9499 80.6287C16.9647 79.6679 16.2885 78.4369 16.0072 77.0921C15.9815 76.7548 16.0248 76.4158 16.1344 76.0956C16.2441 75.7755 16.4178 75.4809 16.6451 75.2297C17.2446 74.7055 17.97 74.345 18.7508 74.1832C23.2219 73.1142 27.6196 71.7751 32.2601 71.4094C33.3412 71.3161 34.4157 71.1583 35.4779 70.9368L35.6811 71.9383C35.0206 72.0789 34.3545 72.2083 33.694 72.3434C29.4318 73.2042 25.1357 73.9356 20.8565 74.729C20.5404 74.7852 20.2355 74.8978 19.9194 74.9596C17.0968 75.5223 17.0516 76.732 18.3613 78.8981C18.7837 79.6363 19.3856 80.2567 20.1117 80.7021C20.8378 81.1475 21.6647 81.4036 22.5163 81.4469C26.0559 81.717 29.4374 81.672 32.2149 78.9769C32.6665 78.5381 33.344 77.6322 34.0158 78.4143C34.8174 79.382 33.6149 79.714 33.0843 80.2091C32.8528 80.4229 32.6101 80.6142 32.2544 80.918C33.0899 81.6663 33.9932 81.3794 34.7892 81.3794C39.3054 81.4056 43.8217 81.4056 48.3379 81.3794C54.4292 81.34 59.3293 83.6299 63.5464 88.1029C66.6289 91.414 68.7501 95.4982 69.6828 99.9184C71.3087 106.878 72.6353 113.911 73.9112 120.944C74.408 123.684 74.4249 126.514 74.7185 129.947C76.8298 127.628 78.7718 125.89 80.2791 123.758C82.5937 120.43 84.88 117.101 87.1382 113.771C88.5382 111.723 88.7076 111.503 90.802 110.49Z" fill="#4D3826"/>
<path d="M89.2327 160.751C88.9165 161.145 88.7133 161.595 88.3633 161.803L87.9625 162.034C83.9478 164.3 79.626 165.977 75.1307 167.013C73.0984 167.519 71.0209 167.846 68.9773 168.301C64.461 169.303 59.9448 168.819 55.4737 168.301C51.6123 167.868 48.5469 166.051 46.7743 162.529C45.3442 159.734 44.0904 156.853 43.0201 153.903C40.6491 147.247 38.4587 140.496 36.1837 133.8C33.9651 127.262 31.6674 120.724 31.1029 113.787C30.7303 108.965 30.815 104.127 33.2368 99.6648C33.5742 99.0328 33.7286 98.3199 33.6828 97.6055C33.5677 95.9025 34.084 94.2167 35.1336 92.8681C36.3925 91.0676 37.4256 90.7638 39.4467 91.6415L40.3725 92.0241C40.937 91.3546 41.4056 90.7188 41.9362 90.1224C43.0653 88.8621 43.8048 88.7383 45.3234 89.5597C45.9051 89.8423 46.4605 90.1755 46.9831 90.5556C47.421 90.9351 47.9349 91.2172 48.4908 91.3831C49.0466 91.549 49.6316 91.5949 50.2066 91.5177L50.3534 92.643C47.0848 92.9693 44.5726 94.7473 42.4104 97.6111C43.0192 98.1763 43.7639 98.5755 44.5726 98.7702L44.3807 99.8448C43.1368 99.5802 41.9643 99.0526 40.9427 98.2975C40.4289 97.96 39.4071 98.4101 38.6111 98.4382C37.8152 98.4663 36.545 98.0444 36.1385 98.4382C35.1193 99.5703 34.2797 100.851 33.6489 102.236C33.3017 103.138 33.0868 104.086 33.011 105.049C32.1058 109.986 32.3491 115.064 33.7223 119.892C36.2345 128.292 39.1079 136.58 41.8346 144.912C43.054 148.66 44.1436 152.452 45.5718 156.115C46.5679 158.573 47.7986 160.93 49.2469 163.153C50.6074 165.297 52.8373 166.214 55.3495 166.664C61.1884 167.64 67.1679 167.383 72.9008 165.91C76.5759 165.032 80.1494 163.716 83.7228 162.478C84.8405 162.01 85.9073 161.429 86.9068 160.745C87.6181 160.334 88.2673 159.969 89.2327 160.751ZM46.7969 92.2998L43.6693 90.2968C41.7725 92.2098 40.2539 94.1453 39.4805 97.1554C42.7209 96.3058 43.7992 93.3632 46.7969 92.2998ZM39.3733 93.4251C38.7297 92.5023 37.8885 91.9622 37.1151 92.6936C36.4222 93.4614 35.8922 94.3609 35.557 95.3381C35.3911 95.9429 35.3094 96.5677 35.3143 97.1948C38.5321 97.4761 38.5039 95.0399 39.3733 93.4251Z" fill="#4D3826"/>
<path d="M82.5313 57.889C83.3442 60.4771 83.1861 63.9767 79.6409 65.6647C75.6045 67.5889 73.956 67.5776 70.4842 64.7194C69.6385 63.9135 68.8411 63.0587 68.0962 62.1594C71.935 59.7851 75.1528 57.2194 79.1666 56.0266C79.5098 55.9085 79.8741 55.8638 80.2358 55.8953C80.5975 55.9268 80.9485 56.0339 81.2659 56.2096C81.5833 56.3853 81.86 56.6256 82.078 56.915C82.296 57.2043 82.4505 57.5362 82.5313 57.889ZM78.1053 64.922C81.1199 63.4141 81.9554 61.8781 81.3062 59.0367C80.928 57.3882 80.3635 57.0956 78.7263 57.7427C78.0602 58.0071 77.4223 58.3391 76.7843 58.6316C76.6961 59.4605 76.5585 60.2834 76.3722 61.096C75.7569 63.1159 74.3343 63.6335 72.46 62.6264C71.9632 62.3563 71.4269 62.1538 70.6309 61.7937C70.6648 62.5758 70.6309 62.7727 70.6874 62.8852C72.46 65.6253 75.1811 66.368 78.1053 64.922Z" fill="#4D3826"/>
<path d="M81.2788 59.0365C81.928 61.8497 81.0925 63.4139 78.0779 64.9218C75.1819 66.3677 72.4326 65.6251 70.66 62.885C70.5866 62.7725 70.66 62.5755 70.6035 61.7935C71.3995 62.1536 71.9358 62.3561 72.4326 62.6262C74.3068 63.6333 75.7295 63.1157 76.3448 61.0958C76.5311 60.2832 76.6687 59.4603 76.7569 58.6314C77.3948 58.3389 78.0327 58.0069 78.6989 57.7425C80.3643 57.0954 80.9288 57.388 81.2788 59.0365Z" fill="white"/>
<path d="M68.063 24.9524H74.2728L71.1622 30.9333C70.067 29.7011 68.9832 28.7333 68.2436 27.5574C67.8654 26.9385 68.1138 25.9483 68.063 24.9524Z" fill="#FFEFAB"/>
<path d="M66.3743 135.371L66.6961 136.614C64.5113 137.21 63.45 136.788 62.304 134.819C60.9955 132.597 59.8211 130.299 58.787 127.938C57.5506 125.063 56.5288 122.098 55.4393 119.155C54.3498 116.213 53.4126 113.219 53.3392 110.035C53.3394 109.67 53.2685 109.309 53.1304 108.971L54.474 108.825C54.728 109.388 55.0046 110.024 55.2812 110.682L56.3764 111.419C55.9365 112.286 55.6896 113.238 55.6526 114.209C55.6156 115.18 55.7893 116.147 56.1619 117.045C58.2845 122.43 60.0402 127.966 63.0266 132.985C64.1782 134.915 64.946 135.613 66.3743 135.371Z" fill="#4D3826"/>
<path d="M62.3434 111.942L61.8353 112.347C61.1466 111.897 60.4127 111.497 59.7692 110.985C59.1256 110.473 58.5215 109.809 57.7651 109.078C57.2355 109.817 56.7709 110.6 56.3763 111.418L55.2811 110.676C57.0086 107.666 56.9747 107.407 54.2198 105.612C54.0561 106.175 53.6948 106.681 53.8134 107.064C53.994 107.626 54.2255 108.189 54.4739 108.808L53.1303 108.954C53.0042 108.684 52.8247 108.442 52.6026 108.243C52.3804 108.044 52.1202 107.891 51.8375 107.795C51.2514 107.543 50.7777 107.087 50.5052 106.512C49.7715 104.639 48.4406 103.057 46.7172 102.011C46.339 101.775 46.1188 101.302 45.8083 100.959C45.4978 100.616 45.0801 99.8955 44.6454 99.8336L44.397 99.7886L44.5889 98.714C45.3334 98.8619 46.1052 98.7876 46.8075 98.5002C47.7108 98.1626 48.5576 97.6449 49.4834 97.3749C51.3689 96.846 53.198 96.5928 55.0158 97.9038C56.3876 98.894 58.0304 99.5129 60.0176 100.537C58.5129 97.6986 56.4006 95.2247 53.8303 93.2901C53.0311 92.753 52.0772 92.4921 51.1149 92.5474C50.8665 92.5474 50.6238 92.5474 50.381 92.5924L50.2342 91.4671C50.4375 91.4334 50.6407 91.3884 50.8496 91.3321C51.6786 91.1119 52.5507 91.1097 53.3808 91.3256C54.211 91.5416 54.9707 91.9684 55.586 92.5643C58.2619 94.8993 60.6668 97.493 62.1289 101.246L58.6627 101.944C60.6047 105.049 62.2531 108.262 62.3434 111.942ZM58.8377 108.003C58.9224 108.346 59.453 108.566 59.9103 108.982C59.5772 105.736 57.0481 101.522 54.265 99.4173C51.9335 97.6281 49.1842 97.9713 47.2479 100.272C48.2132 101.206 49.1447 102.169 50.1552 103.046C50.5163 103.338 50.9662 103.499 51.431 103.502C52.3472 103.462 53.2622 103.603 54.1234 103.917C54.9847 104.231 55.7753 104.711 56.4497 105.331C57.4094 106.09 58.5103 106.625 58.8377 107.981V108.003ZM52.2609 105.95L53.1416 105.274C52.8121 105.04 52.4604 104.838 52.0915 104.672C51.9956 104.639 51.6399 105.01 51.6738 105.072C51.843 105.381 52.0395 105.675 52.2609 105.95Z" fill="#4D3826"/>
<path d="M59.9104 108.988C59.4531 108.588 58.9225 108.352 58.8378 108.009C58.5104 106.653 57.4095 106.118 56.4611 105.308C55.7867 104.689 54.9961 104.208 54.1349 103.894C53.2736 103.581 52.3586 103.44 51.4425 103.479C50.9776 103.476 50.5277 103.315 50.1666 103.024C49.1561 102.146 48.2246 101.184 47.2593 100.25C49.1956 97.9485 51.9449 97.6053 54.2764 99.3945C57.0482 101.499 59.5773 105.713 59.9104 108.988Z" fill="#724C33"/>
<path d="M53.8302 93.2901C56.41 95.2254 58.5302 97.7035 60.04 100.548C58.0529 99.5241 56.4101 98.9052 55.0383 97.915C53.2205 96.604 51.3914 96.8572 49.5059 97.3861C48.58 97.6449 47.7332 98.1626 46.83 98.5114C46.1277 98.7988 45.3559 98.8732 44.6114 98.7252C43.8027 98.5306 43.058 98.1314 42.4492 97.5662C44.6114 94.7023 47.1235 92.9244 50.3922 92.598C50.6349 92.598 50.8777 92.5587 51.1261 92.553C52.0839 92.4986 53.0334 92.7574 53.8302 93.2901Z" fill="#724C33"/>
<path d="M54.2199 105.613C56.9579 107.396 57.0087 107.655 55.2813 110.676C55.0046 110.018 54.7167 109.41 54.474 108.82C54.2312 108.229 53.9941 107.661 53.8135 107.075C53.6949 106.698 54.0562 106.175 54.2199 105.613Z" fill="#724C33"/>
<path d="M53.1418 105.274L52.2611 105.95C52.0476 105.674 51.8587 105.38 51.6966 105.072C51.6627 105.01 52.0184 104.639 52.1144 104.672C52.4754 104.84 52.8195 105.041 53.1418 105.274Z" fill="#4D3826"/>
<path d="M43.6688 90.2966L46.7794 92.2996C43.7817 93.363 42.7035 96.3056 39.48 97.1552C40.2816 94.1451 41.7889 92.2096 43.6688 90.2966Z" fill="#724C33"/>
<path d="M37.1094 92.6711C37.8885 91.9396 38.7296 92.4798 39.3676 93.4025C38.4982 95.0173 38.5264 97.4535 35.3029 97.1722C35.298 96.5451 35.3797 95.9203 35.5457 95.3155C35.8825 94.3378 36.4145 93.4383 37.1094 92.6711Z" fill="#724C33"/>
<path d="M21.7996 75.2686C21.5738 76.9902 20.8682 77.2659 19.9254 77.2266L19.5415 76.6133L21.7996 75.2686Z" fill="#4D3826"/>
</g>
</g>
<defs>
<filter id="filter0_d" x="0" y="0" width="151" height="151" filterUnits="userSpaceOnUse" color-interpolation-filters="sRGB">
<feFlood flood-opacity="0" result="BackgroundImageFix"/>
<feColorMatrix in="SourceAlpha" type="matrix" values="0 0 0 0 0 0 0 0 0 0 0 0 0 0 0 0 0 0 127 0"/>
<feOffset dy="5"/>
<feGaussianBlur stdDeviation="4"/>
<feColorMatrix type="matrix" values="0 0 0 0 0 0 0 0 0 0 0 0 0 0 0 0 0 0 0.25 0"/>
<feBlend mode="normal" in2="BackgroundImageFix" result="effect1_dropShadow"/>
<feBlend mode="normal" in="SourceGraphic" in2="effect1_dropShadow" result="shape"/>
</filter>
</defs>
</svg>
