<svg width="33" height="33" viewBox="0 0 33 33" fill="none" xmlns="http://www.w3.org/2000/svg">
<path d="M16.5 0C7.38719 0 0 7.38738 0 16.5004C0.000112809 18.6673 0.42701 20.8129 1.25632 22.8148C2.08562 24.8167 3.3011 26.6356 4.83335 28.1677C6.36559 29.6999 8.1846 30.9152 10.1865 31.7443C12.1884 32.5734 14.334 33.0001 16.5009 33C18.6677 32.9999 20.8132 32.573 22.8151 31.7437C24.8169 30.9143 26.6358 29.6988 28.1679 28.1665C29.7 26.6342 30.9152 24.8152 31.7443 22.8132C32.5734 20.8113 33.0001 18.6656 33 16.4987C33 7.38738 25.6111 0 16.5 0ZM16.2405 26.124H16.1528C14.8088 26.0844 13.86 25.0927 13.8995 23.7675C13.9373 22.4646 14.9084 21.5176 16.2078 21.5176L16.2869 21.521C17.6688 21.5606 18.6072 22.542 18.5677 23.905C18.5281 25.2113 17.5742 26.124 16.2405 26.124ZM21.8969 14.8985C21.5806 15.3454 20.8862 15.9057 20.0097 16.5881L19.0437 17.2533C18.5144 17.6658 18.1947 18.0559 18.0761 18.4358C17.9798 18.7349 17.9352 18.8156 17.9266 19.4258V19.5805H14.2398L14.2502 19.2677C14.2966 17.9889 14.3275 17.2326 14.8586 16.6087C15.6922 15.6324 17.5312 14.4465 17.6086 14.3966C17.8609 14.2123 18.081 13.9875 18.26 13.7315C18.6467 13.1969 18.8169 12.7775 18.8169 12.3684C18.8169 11.7944 18.6484 11.2633 18.3133 10.794C17.9902 10.3368 17.3766 10.11 16.4897 10.11C15.6097 10.11 15.0064 10.3884 14.6472 10.9625C14.2759 11.5486 14.0886 12.1656 14.0886 12.7964V12.9546H10.2884L10.2953 12.7896C10.3933 10.464 11.2252 8.7882 12.7617 7.8102C13.7294 7.18972 14.9342 6.87518 16.3384 6.87518C18.1741 6.87518 19.7278 7.32206 20.9481 8.20209C22.1873 9.09414 22.8147 10.4314 22.8147 12.1742C22.813 13.1488 22.5053 14.0649 21.8969 14.8985Z" fill="#73BA9B"/>
</svg>
