<svg width="18" height="18" viewBox="0 0 18 18" fill="none" xmlns="http://www.w3.org/2000/svg">
<path d="M9 0C4.02938 0 0 4.02948 0 9.00023C6.15322e-05 10.1822 0.232914 11.3525 0.685264 12.4444C1.13761 13.5364 1.8006 14.5285 2.63637 15.3642C3.47214 16.1999 4.46433 16.8628 5.55628 17.3151C6.64824 17.7673 7.81857 18.0001 9.00047 18C10.1824 17.9999 11.3527 17.7671 12.4446 17.3147C13.5365 16.8624 14.5286 16.1994 15.3643 15.3636C16.2 14.5278 16.8629 13.5356 17.3151 12.4436C17.7673 11.3516 18.0001 10.1812 18 8.9993C18 4.02948 13.9697 0 9 0ZM8.85844 14.2494H8.81063C8.0775 14.2279 7.56 13.6869 7.58156 12.9641C7.60219 12.2534 8.13188 11.7369 8.84062 11.7369L8.88375 11.7387C9.6375 11.7603 10.1494 12.2956 10.1278 13.0391C10.1062 13.7516 9.58594 14.2494 8.85844 14.2494ZM11.9438 8.12646C11.7712 8.37022 11.3925 8.67585 10.9144 9.04805L10.3875 9.41087C10.0987 9.63588 9.92437 9.84869 9.85969 10.0559C9.80719 10.219 9.78281 10.2631 9.77812 10.5959V10.6803H7.76719L7.77281 10.5096C7.79812 9.81213 7.815 9.39962 8.10469 9.0593C8.55937 8.52678 9.5625 7.87989 9.60469 7.8527C9.7423 7.75216 9.86236 7.62957 9.96 7.48988C10.1709 7.19831 10.2637 6.96956 10.2637 6.74643C10.2637 6.43329 10.1719 6.1436 9.98906 5.88765C9.81281 5.63827 9.47813 5.51452 8.99438 5.51452C8.51437 5.51452 8.18531 5.6664 7.98937 5.97953C7.78687 6.29923 7.68469 6.6358 7.68469 6.97987V7.06612H5.61187L5.61562 6.97612C5.66906 5.70765 6.12281 4.79356 6.96094 4.26011C7.48875 3.92166 8.14594 3.7501 8.91187 3.7501C9.91313 3.7501 10.7606 3.99385 11.4262 4.47387C12.1022 4.96044 12.4444 5.68984 12.4444 6.64048C12.4434 7.17206 12.2756 7.67176 11.9438 8.12646Z" fill="#37474F"/>
</svg>
