<svg width="16" height="16" viewBox="0 0 16 16" fill="none" xmlns="http://www.w3.org/2000/svg">
<path d="M5.85901 12.6927L5.04901 13.4977C4.70968 13.8317 4.25264 14.0189 3.77651 14.0189C3.30038 14.0189 2.84334 13.8317 2.50401 13.4977C2.33857 13.3339 2.20723 13.1389 2.1176 12.924C2.02798 12.7091 1.98183 12.4786 1.98183 12.2457C1.98183 12.0129 2.02798 11.7824 2.1176 11.5675C2.20723 11.3526 2.33857 11.1576 2.50401 10.9937L5.48401 8.03874C6.10101 7.42574 7.26301 6.52374 8.11001 7.36374C8.20116 7.46093 8.31096 7.53876 8.43285 7.59259C8.55474 7.64642 8.68622 7.67514 8.81946 7.67704C8.95269 7.67894 9.08494 7.65398 9.20831 7.60365C9.33169 7.55331 9.44366 7.47864 9.53754 7.38409C9.63143 7.28953 9.7053 7.17703 9.75475 7.0533C9.8042 6.92957 9.82822 6.79715 9.82537 6.66393C9.82252 6.53071 9.79286 6.39944 9.73816 6.27793C9.68347 6.15643 9.60485 6.04719 9.50701 5.95674C8.06901 4.52874 5.94101 4.79274 4.08801 6.63174L1.10801 9.58774C0.755904 9.93488 0.476555 10.3488 0.286306 10.8051C0.0960573 11.2615 -0.00127177 11.7513 1.25466e-05 12.2457C-0.00121594 12.7402 0.0961385 13.2299 0.286384 13.6863C0.47663 14.1427 0.755949 14.5566 1.10801 14.9037C1.81771 15.6077 2.77741 16.0018 3.77701 15.9997C4.74401 15.9997 5.71101 15.6347 6.44601 14.9037L7.25701 14.0987C7.3495 14.0073 7.42301 13.8984 7.47334 13.7785C7.52367 13.6586 7.54981 13.5299 7.55027 13.3998C7.55074 13.2697 7.52551 13.1408 7.47605 13.0205C7.42658 12.9002 7.35384 12.7909 7.26201 12.6987C7.07638 12.5126 6.82463 12.4075 6.56175 12.4064C6.29887 12.4052 6.04623 12.5082 5.85901 12.6927ZM14.891 1.20874C13.344 -0.325263 11.182 -0.408262 9.75201 1.01174L8.74301 2.01374C8.55657 2.19886 8.45129 2.45046 8.45036 2.7132C8.44942 2.97594 8.55289 3.22829 8.73801 3.41474C8.92313 3.60118 9.17474 3.70646 9.43748 3.70739C9.70022 3.70833 9.95257 3.60486 10.139 3.41974L11.149 2.41874C11.889 1.68274 12.86 1.98774 13.495 2.61574C13.831 2.95074 14.017 3.39474 14.017 3.86774C14.017 4.34074 13.831 4.78474 13.495 5.11874L10.315 8.27274C8.86101 9.71374 8.17901 9.03874 7.88801 8.74974C7.79569 8.65808 7.68622 8.58549 7.56585 8.53614C7.44548 8.48678 7.31657 8.46162 7.18648 8.46208C7.05638 8.46255 6.92765 8.48863 6.80764 8.53884C6.68762 8.58906 6.57867 8.66242 6.48701 8.75474C6.39535 8.84706 6.32277 8.95653 6.27341 9.0769C6.22406 9.19727 6.19889 9.32618 6.19936 9.45627C6.19982 9.58637 6.2259 9.7151 6.27612 9.83511C6.32633 9.95513 6.39969 10.0641 6.49201 10.1557C7.16001 10.8177 7.92201 11.1457 8.72001 11.1457C9.69701 11.1457 10.73 10.6537 11.713 9.67874L14.893 6.52574C15.2444 6.17807 15.5231 5.76408 15.7132 5.30779C15.9032 4.85151 16.0007 4.36202 16 3.86774C16.0009 3.3731 15.9033 2.88324 15.7129 2.42671C15.5225 1.97019 15.2431 1.55615 14.891 1.20874Z" fill="#F79221"/>
</svg>
