<svg width="292" height="178" viewBox="0 0 292 178" fill="none" xmlns="http://www.w3.org/2000/svg">
<g filter="url(#filter0_d)">
<path d="M161.806 40.5334C161.372 47.4659 161.048 54.4088 160.682 61.3465C160.2 70.4241 159.635 79.507 159.279 88.5898C159.007 95.4176 159.049 102.261 158.876 109.094C158.615 119.3 158.318 129.508 157.987 139.717C157.825 144.949 157.6 150.182 157.422 155.414C157.39 156.065 157.417 156.718 157.5 157.365C157.877 160.044 156.747 160.949 154.016 160.682C151.285 160.415 148.439 160.546 145.645 160.504C142.505 160.463 142.505 160.463 142.212 157.308C142.118 156.261 141.977 155.215 141.846 154.038L151.473 153.488C151.473 153.253 151.473 153.017 151.473 152.782C150.202 151.51 148.575 152.076 147.062 152.175C145.89 152.253 144.719 152.463 143.552 152.656C142.385 152.85 141.6 152.604 141.715 151.129C141.721 150.312 141.656 149.496 141.522 148.69L145.331 147.477L145.174 146.744C144.441 146.908 143.695 147.012 142.945 147.053C142.402 146.967 141.874 146.807 141.375 146.577C141.79 146.298 142.226 146.051 142.678 145.839C143.301 145.598 143.965 145.452 144.614 145.269C144.614 145.086 144.588 144.902 144.577 144.714L141.391 144.395C141.391 143.83 141.339 143.322 141.312 142.794L145.001 142.501V141.826L141.506 141.366V136.903H151.954C151.745 135.678 151.316 135.333 150.139 135.385C147.272 135.527 144.384 135.432 141.433 135.432V132.68L144.494 132.1V131.466L141.412 131.1C141.375 130.577 141.339 130.054 141.297 129.431L145.001 129.641L145.111 129.049C144.091 128.076 142.673 128.448 140.721 128.333C141.318 127.773 141.585 127.286 141.946 127.213C143.144 126.925 144.373 126.768 145.608 126.564L145.519 125.711L141.302 125.947V120.825C143.191 120.688 145.168 120.594 147.141 120.395C148.936 120.218 150.803 121.719 153.027 120.197C148.92 118.763 145.179 119.056 141.323 119.543V117.162L144.488 116.346C143.583 114.944 140.69 117.068 141.312 114.101L144.849 113.505C144.849 113.29 144.849 113.076 144.849 112.861C144.326 112.804 143.845 112.715 143.337 112.689C142.83 112.662 142.171 112.689 141.469 112.689V110.878L145.414 110.198C145.383 109.968 145.357 109.733 145.331 109.502L141.464 109.288C141.585 106.902 141.747 104.663 141.794 102.418C141.794 101.178 142.479 100.927 143.505 100.958C146.163 101.047 148.82 101.142 151.478 101.189C151.914 101.141 152.342 101.035 152.75 100.875L152.703 100.289C149.349 98.4941 145.639 100.132 142.092 99.4882V95.7525H145.728L145.786 95.2293L142.291 94.6276V91.6087H145.953C145.074 89.767 143.52 91.0541 142.474 90.3007V88.2079H146.105C146.136 87.9881 146.163 87.7736 146.194 87.5539L142.662 86.9836C142.699 87.0516 142.6 86.9522 142.605 86.8528C142.762 82.1439 142.082 83.0386 146.628 82.8189C148.161 82.7456 149.705 82.9967 151.243 83.0491C151.948 83.0926 152.648 82.9093 153.242 82.5259C150.003 81.1027 146.56 81.7097 143.133 81.6103V78.2565L146.032 77.8693C146.032 77.6967 146.058 77.524 146.074 77.3461L143.411 76.7392V74.751H146.911L147.021 74.0761L143.358 73.3122V72.7472L147.481 72.1612L147.455 71.5229L143.656 71.0624C143.709 70.1207 143.761 69.2574 143.803 68.5667C147.12 68.5667 150.306 68.5929 153.487 68.5406C153.906 68.5406 154.325 68.1377 154.743 67.9232C154.361 67.557 153.995 66.8768 153.592 66.8768C151.939 66.7931 150.275 66.9186 148.611 66.9396C147.141 66.9396 145.676 66.9396 144.017 66.9396C144.153 65.3699 144.258 64.1561 144.384 62.6964H147.58C147.58 62.4871 147.628 62.2778 147.648 62.0685L144.473 61.4773C144.52 60.9541 144.572 60.2739 144.624 59.6147L148.606 59.3949C148.606 59.1386 148.606 58.8717 148.632 58.6258L144.896 58.1497V56.5069L148.726 55.9836L148.679 55.2459C147.905 55.2519 147.132 55.1994 146.367 55.089C145.901 54.9896 145.09 54.4664 145.127 54.3512C145.331 53.6972 145.702 52.6142 146.089 52.5828C148.444 52.3997 150.798 52.4729 153.179 52.4363C153.76 52.4473 154.332 52.2853 154.822 51.9707C151.845 49.7209 148.711 51.1388 145.55 51.369V48.1774L148.841 48.46L149.009 47.6961L145.65 46.7491C146.398 44.2011 148.972 46.8433 150.228 44.944L146.095 44.2952V42.464C147.497 42.2757 148.998 43.5104 150.453 41.8414L146.178 41.0566C146.231 40.3398 146.278 39.6701 146.32 39.0527H155.962C156.009 38.833 156.062 38.6132 156.109 38.3883C155.389 38.1516 154.65 37.9765 153.901 37.865C151.808 37.7395 149.731 37.6767 147.669 37.6767C146.623 37.6767 146.309 37.2163 146.44 36.2536C146.597 35.0868 146.717 33.9148 146.89 32.4656L162.67 34.7206C162.361 36.6931 161.927 38.6028 161.806 40.5334ZM161.963 33.0097C157.035 32.3609 152.096 31.8116 147.162 31.1889C146.458 31.0121 145.771 30.7776 145.106 30.4879C152.689 27.5346 161.049 27.2377 168.823 29.6455C166.73 31.6808 164.909 33.3969 161.963 33.0097ZM189.102 161.901C189.102 161.682 189.128 161.462 189.139 161.242C190.829 161.242 192.519 161.284 194.209 161.242C197.52 161.137 200.843 161.08 204.149 160.824C207.058 160.599 208.241 162.545 209.863 164.81C202.886 164.303 195.95 163.331 189.102 161.901ZM253.885 142.569C252.598 144.442 251.494 146.446 250.307 148.392L249.569 148.178L253.268 136.61C255.549 138.729 255.267 140.565 253.885 142.569ZM284.65 100.786C282.034 98.1697 279.229 95.6949 276.802 92.9376C273.94 89.6938 271.36 86.1988 268.682 82.7979C268.111 82.0707 267.635 81.3225 266.343 82.2381C267.007 83.1694 267.635 84.0589 268.268 84.9378C271.889 89.9345 273.762 95.7211 275.462 101.534C277.623 108.937 279.501 116.43 281.495 123.885C281.522 124.134 281.522 124.385 281.495 124.633C278.706 123.472 276.87 121.442 275.473 119.056C273.108 115.012 270.926 110.857 268.671 106.75C268.493 106.37 268.26 106.018 267.98 105.704C267.808 105.542 267.326 105.421 267.232 105.521C267.044 105.773 266.931 106.075 266.908 106.389C266.908 106.541 267.018 106.724 267.101 106.881C270.79 113.489 272.695 120.746 274.573 127.987C275.698 132.345 276.462 136.803 277.267 141.235C277.498 142.527 277.304 143.903 277.304 145.713C276.667 145.111 276.067 144.47 275.509 143.793C272.511 139.524 269.54 135.228 266.563 130.943C266.443 130.81 266.349 130.656 266.285 130.488C265.867 128.233 264.758 128.291 263.324 129.567C264.22 136.418 265.115 143.279 266.008 150.15L265.422 150.333C262.126 146.99 260.305 142.653 257.851 138.75L258.374 138.702C258.406 137.891 258.442 137.08 258.474 136.275L256.03 136.578C255.659 135.605 253.938 134.648 254.984 132.675C255.141 132.382 254.848 131.848 254.759 131.425C254.279 131.514 253.819 131.691 253.404 131.948C251.955 133.251 250.589 134.648 249.171 135.977C248.892 136.169 248.588 136.32 248.266 136.426L247.806 136.154L259.316 107.012H259.593C259.505 108.383 259.405 109.748 259.321 111.119C258.99 116.857 258.662 122.598 258.338 128.343C258.275 128.634 258.288 128.937 258.374 129.222C258.604 129.572 258.873 129.895 259.175 130.185C259.447 129.808 260.002 129.379 259.949 129.055C258.903 122.776 259.907 116.534 260.598 110.298C260.82 107.7 260.884 105.091 260.792 102.486C260.792 101.963 260.211 101.44 259.897 100.89C259.485 101.319 259.123 101.793 258.819 102.303C257.537 105.223 256.308 108.168 255.063 111.103L254.314 111.014C254.314 109.005 254.21 106.986 254.314 104.982C254.67 99.1219 255.146 93.2725 255.512 87.4126C255.659 85.0425 255.685 82.6619 255.664 80.2865C255.664 79.7947 255.209 79.3029 254.963 78.8163C254.581 79.1878 254.053 79.4913 253.838 79.9465C252.567 82.6096 251.374 85.3041 250.176 87.9934L249.689 87.9201C249.556 86.7897 249.493 85.6522 249.501 84.514C249.883 78.8896 250.39 73.2756 250.736 67.6459C250.961 63.9835 251.013 60.321 251.06 56.6586C251.06 56.2034 250.537 55.7377 250.291 55.2773C249.925 55.6959 249.401 56.0517 249.213 56.533C248.093 59.463 247.052 62.4191 245.645 65.3856C245.493 64.1666 245.263 62.9527 245.2 61.7232C244.991 57.3335 244.823 52.9491 244.677 48.5594C244.583 45.9067 244.625 43.2436 244.468 40.5909C244.321 38.1266 243.599 37.7761 241.475 38.9062C240.952 39.1783 240.428 39.4294 239.382 39.8899C239.618 36.0391 239.795 32.6801 240.041 29.3211C240.256 26.4225 240.564 23.524 240.779 20.6254C240.733 20.1291 240.607 19.6434 240.408 19.1866C239.924 19.2976 239.457 19.4736 239.021 19.7098C238.074 20.4109 237.2 21.2114 235.793 22.3939V10.3968L236.839 9.64858C236.186 8.8557 235.476 8.11084 234.715 7.41972C233.857 6.73956 232.837 6.26344 231.989 5.40538C240.255 6.31964 248.354 8.37261 256.057 11.506H243.196C243.154 11.7048 243.107 11.8984 243.065 12.0972C253.493 14.8806 261.733 21.0702 269.561 28.8398C264.512 27.6835 259.74 27.2701 255.633 24.5547C254.588 23.8695 253.497 23.2576 252.368 22.7235C252.044 22.5665 251.536 22.7863 251.118 22.8281C251.316 23.1996 251.431 23.7804 251.735 23.9059C257.276 26.1923 260.671 30.807 264.166 35.2961C267.557 39.6492 270.848 44.0807 273.997 48.7529C272.365 48.0728 270.722 47.4188 269.105 46.702C267.489 45.9852 265.825 44.9702 264.083 44.4313C262.513 43.9447 261.252 42.4326 259.332 42.8617C269.859 51.9183 275.488 64.3131 283.033 75.3736L282.62 75.8027C281.526 75.0963 280.401 74.4319 279.339 73.7098C273.872 69.8748 269.137 65.2182 264.512 60.4361C263.974 59.9288 263.263 59.6446 262.523 59.6409C273.835 71.2822 279.742 85.7331 285.021 100.524L284.65 100.786ZM287.025 102.397C285.335 98.0284 283.645 93.6597 281.845 89.3171C280.276 85.5448 278.706 81.7463 276.854 78.11C275.169 74.819 273.097 71.7321 270.973 68.1691C272.961 69.8067 274.583 71.2508 276.32 72.5431C278.696 74.3011 281.144 75.9544 283.598 77.6025C283.769 77.6928 283.959 77.7399 284.153 77.7399C284.346 77.7399 284.536 77.6928 284.707 77.6025C284.809 77.4439 284.871 77.2626 284.886 77.0747C284.902 76.8868 284.871 76.6979 284.796 76.5247C283.514 74.1807 282.238 71.8158 280.83 69.5608C278.607 65.9873 276.404 62.3825 273.961 58.9555C270.942 54.7175 267.682 50.647 264.543 46.5032C264.271 46.1474 263.978 45.8073 263.695 45.4568C263.79 45.3207 263.879 45.1795 263.967 45.0382L276.844 51.5207C277.43 50.6103 277.424 49.8046 276.383 48.9047C275.381 47.9811 274.47 46.9632 273.662 45.8649C269.372 40.4183 265.113 34.9403 260.833 29.4781C260.342 28.8502 259.787 28.2538 259.29 27.6416C259.353 27.537 259.416 27.4271 259.484 27.3225L273.94 31.5081L274.212 31.0843C266.437 24.403 259.358 16.8165 249.621 12.7355H261.655C261.536 12.4367 261.359 12.1646 261.133 11.9355C260.908 11.7063 260.639 11.5247 260.342 11.4013C254.633 9.58579 248.957 7.63424 243.17 6.09601C239.131 5.0496 234.935 4.5264 230.801 3.80961C230.153 3.69973 229.405 4.10783 228.771 3.96134C224.497 2.99341 220.275 1.79003 215.974 0.97383C212.846 0.309384 209.655 -0.0168735 206.457 0.000671624C202.203 0.15215 197.965 0.603221 193.774 1.35054C191.681 1.71155 189.657 2.74227 187.731 3.71543C185.115 5.03391 182.818 7.16335 179.527 6.23728C179.266 6.16403 178.947 6.32099 178.648 6.35239C175.169 6.70816 171.695 7.10057 168.184 7.3988C166.709 7.52436 165.202 7.32554 163.737 7.5139C163.411 7.60787 163.107 7.76533 162.842 7.97723C162.577 8.18914 162.357 8.4513 162.194 8.74866C161.048 10.7211 162.476 12.7146 164.532 13.7296C166.855 14.8702 169.492 15.3881 171.779 16.581C176.006 18.7994 180.15 21.2323 184.189 23.7594C185.236 24.4187 186.251 25.4965 185.916 27.176C185.393 29.8495 185.68 30.1111 188.328 29.8286C190.284 35.4845 192.252 41.1455 194.25 46.9113C193.408 46.974 192.681 46.9688 191.995 47.0839C189.84 47.424 188.254 46.8956 187.25 44.7243C186.566 43.4802 185.708 42.3403 184.702 41.3391C182.729 39.1312 180.621 37.0488 178.675 34.82C175.813 31.5343 173.019 28.2171 168.148 28.1177C167.854 28.0729 167.566 27.9957 167.29 27.8875C165.458 27.4271 163.627 26.6632 161.791 26.5638C156.386 26.276 151.159 27.5265 146.021 29.07C145.1 29.342 144.352 30.2001 143.526 30.7913C144.342 31.3145 145.168 31.8377 145.979 32.3609C146.063 32.4185 146.084 32.565 146.021 32.4342C145.739 34.1608 145.393 35.6676 145.257 37.1901C144.426 46.6601 143.552 56.1301 142.872 65.6106C142.087 76.4567 141.244 87.308 140.868 98.1749C140.376 112.542 140.177 126.92 140.125 141.298C140.099 147.576 140.753 153.854 141.061 160.133C141.124 161.488 141.794 161.771 143.013 161.734C147.962 161.582 152.912 161.457 157.861 161.43C159.044 161.43 159.295 161.09 159.169 159.986C158.88 158.002 158.728 156.001 158.714 153.996C158.808 148.957 159.101 143.929 159.237 138.891C159.431 132.304 159.51 125.711 159.761 119.124C159.944 113.73 160.357 108.341 160.525 102.941C160.818 93.6806 160.948 84.4146 161.241 75.1539C161.437 68.9801 161.723 62.8097 162.099 56.6429C162.502 50.1865 163.057 43.7354 163.606 37.2843C163.674 36.489 164.129 35.7147 164.402 34.9508L164.867 35.045C164.924 35.603 164.952 36.1636 164.951 36.7245C164.883 38.0848 164.778 39.4451 164.663 40.8002C164.197 46.1055 165.359 51.2172 166.709 56.2662C167.169 57.9875 167.912 60.0228 169.205 61.064C174.369 65.2078 179.145 69.9585 186.031 71.5281C189.918 72.4123 193.654 73.825 197.73 73.0035C198.356 72.9473 198.987 72.9473 199.613 73.0035C199.613 76.1166 199.985 79.0675 199.545 81.898C198.373 89.3694 197.269 96.8198 198.049 104.396C198.541 109.173 198.745 114.028 199.802 118.685C200.377 121.201 200.272 124.147 202.391 126.282C203.051 126.951 203.035 128.285 203.684 128.971C206.661 132.11 209.8 135.098 212.803 138.211C213.609 139.034 214.25 140.004 214.692 141.067C215.634 143.432 216.46 145.849 217.182 148.293C217.983 151.003 218.668 153.75 219.307 156.502C219.553 157.548 219.223 158.265 217.847 158.312C215.55 158.385 213.253 158.647 210.962 158.888C208.45 159.155 205.96 159.61 203.443 159.751C199.535 159.971 195.595 159.913 191.697 160.149C189.887 160.258 188.103 160.782 186.313 161.137C185.912 161.234 185.515 161.351 185.126 161.488L185.623 162.221C187.543 162.744 189.442 163.403 191.378 163.759C194.747 164.366 198.18 164.727 201.533 165.297C205.044 165.888 208.665 165.579 212.086 167.123C213.965 167.976 216.272 167.944 218.365 168.295C222.42 168.975 226.496 169.572 230.571 168.651C232.178 168.29 233.653 167.301 235.28 167.05C238.723 166.526 242.207 166.134 245.687 165.935C248.585 165.768 251.311 163.209 251.233 160.583C251.186 159.102 251.233 157.616 251.264 156.13C251.343 153.153 250.699 150.103 252.499 147.314C253.885 145.154 255.042 142.841 256.486 140.272C257.611 141.695 258.547 142.799 259.395 143.976C261.331 146.671 263.183 149.428 265.15 152.091C265.49 152.546 266.285 152.662 266.871 152.934C267.06 152.306 267.478 151.647 267.394 151.055C266.657 145.462 265.825 139.88 265.05 134.313C264.909 133.319 264.946 132.298 264.883 131.001C270.068 136.447 272.632 143.364 278.188 148.445C278.403 148.031 278.612 147.827 278.612 147.613C278.79 136.85 275.394 126.768 272.815 116.456C273.197 117.162 273.558 117.884 273.961 118.58C275.839 121.824 278.241 124.56 281.626 126.297C282.029 126.469 282.481 126.487 282.897 126.35C283.038 126.297 283.07 125.633 282.996 125.277C282.651 123.592 282.363 121.892 281.866 120.254C278.863 110.387 275.808 100.54 272.773 90.6826C272.674 90.353 272.611 90.0182 272.49 89.5211C272.675 89.6145 272.85 89.7249 273.014 89.8507C277.199 94.3608 281.385 98.8865 285.613 103.37C285.937 103.716 286.586 103.758 287.088 103.935C287.154 103.423 287.133 102.903 287.025 102.397ZM252.839 121.002C251.029 125.518 249.093 129.975 247.22 134.464C247.038 134.839 246.915 135.24 246.853 135.652C246.791 136.437 246.817 137.222 246.806 138.017C247.675 137.776 248.638 137.714 249.375 137.264C250.422 136.631 251.285 135.72 252.515 135.05C251.609 137.698 250.573 140.309 249.836 142.998C249.171 145.441 248.826 147.968 248.36 150.464C248.318 150.673 248.386 151.05 248.517 151.123C250.275 152.028 249.658 153.682 249.689 155.053C249.742 157.24 249.647 159.432 249.511 161.619C249.443 162.702 248.936 163.523 247.607 163.304C247.497 163.304 247.324 163.251 247.267 163.304C244.457 166.296 240.622 164.188 237.404 165.229C237.043 165.349 236.389 164.58 235.887 164.23C234.866 165.422 233.571 166.349 232.113 166.932C230.655 167.516 229.078 167.737 227.516 167.578C222.524 167.201 217.575 166.213 212.625 165.417C212.38 165.337 212.153 165.209 211.959 165.039C211.765 164.869 211.607 164.661 211.495 164.428C210.852 163.157 209.491 162.032 210.485 160.316C212.981 160.102 215.519 159.892 218.051 159.662C220.583 159.432 220.787 159.066 220.866 156.601C220.97 153.012 219.296 149.998 218.009 146.838C217.397 145.311 216.821 143.767 216.23 142.229L216.544 141.674C217.266 141.899 218.14 141.936 218.679 142.381C221.666 144.871 225.13 146.357 228.803 147.44C229.244 147.615 229.714 147.706 230.189 147.707C230.669 147.59 231.129 147.405 231.555 147.157C231.231 146.713 230.99 146.012 230.566 145.881C229.691 145.697 228.802 145.594 227.908 145.572C227.329 145.525 226.757 145.406 226.208 145.216C223.341 144.065 220.573 142.851 218.71 140.099C218.009 139.053 216.617 138.415 215.414 137.839C211.893 136.139 209.695 132.963 206.969 130.399C206.771 130.211 206.572 130.017 206.383 129.818C206.195 129.62 206.059 129.484 205.907 129.295C205.756 129.107 205.641 128.986 205.51 128.83C205.379 128.673 205.264 128.537 205.149 128.385C205.034 128.233 205.018 128.217 204.96 128.134C204.903 128.05 204.788 127.903 204.704 127.783L204.62 127.663C204.458 127.433 204.306 127.197 204.16 126.956C204.013 126.716 203.872 126.48 203.736 126.234C203.6 125.989 203.474 125.743 203.354 125.491C203.234 125.24 203.119 124.968 203.014 124.733C202.909 124.497 202.847 124.33 202.773 124.126C202.768 124.112 202.768 124.098 202.773 124.084C202.7 123.89 202.632 123.697 202.569 123.498C202.553 123.453 202.539 123.408 202.527 123.362C202.47 123.179 202.412 122.991 202.365 122.802C202.36 122.785 202.36 122.767 202.365 122.75C202.313 122.562 202.261 122.368 202.214 122.174C202.104 121.709 202.015 121.233 201.947 120.751L201.868 120.647C201.182 119.763 200.797 118.683 200.77 117.565C200.77 117.476 200.77 117.387 200.77 117.298C200.77 114.844 200.712 112.375 200.581 109.916V116.717C198.813 106.138 197.965 95.5432 200.581 84.9274V85.6023C200.581 85.5186 200.628 85.4454 200.649 85.3669C200.693 84.7351 200.834 84.1139 201.068 83.5252C201.068 83.363 201.11 83.2008 201.136 83.0386C201.163 82.7172 201.217 82.3987 201.298 82.0864C201.298 82.055 201.298 82.0236 201.298 81.9922C201.298 81.1132 201.261 80.229 201.246 79.3762C201.209 77.1944 201.246 75.0074 201.246 72.5745C202.208 72.3861 203.433 72.2187 204.61 71.8786C205.133 71.7269 205.573 71.2246 206.049 70.8845C205.494 70.7642 204.919 70.4712 204.395 70.5549C202.35 70.8845 200.335 71.3921 198.29 71.7269C190.839 72.9407 184.43 70.1573 178.319 66.364C176.226 65.0874 174.342 63.5544 172.328 62.1784C169.712 60.4047 168.399 57.9143 167.87 54.8535C167.379 51.955 166.358 49.1349 166.05 46.2311C165.788 43.7302 166.207 41.1612 166.311 38.6185C166.348 37.6715 166.369 36.7192 166.379 35.767C166.379 34.9194 166.013 33.6742 166.432 33.2975C167.828 32.0151 169.395 30.9322 171.088 30.0798C171.522 29.86 172.7 30.6867 173.28 31.2831C175.771 33.8207 178.026 36.5937 180.605 39.0109C183.563 41.7529 186.012 44.9961 187.841 48.5908C188.532 49.9406 189.657 49.5901 190.933 48.8733C192.069 48.235 193.696 48.4547 195.119 48.3501C195.433 48.3239 195.946 48.6588 196.055 48.5384C197.588 46.8746 199.76 47.1519 201.654 46.6078C202.02 46.5032 202.302 46.1212 202.622 45.8649C202.203 45.6713 201.748 45.2579 201.376 45.3416C200.024 45.5391 198.695 45.874 197.411 46.341C196.191 46.8223 195.637 46.4247 195.271 45.3312C193.727 40.7322 192.131 36.1542 190.672 31.5186C190.358 30.5192 189.725 29.6664 190.107 28.2433C190.661 26.1505 191.519 25.2401 193.581 25.1616C193.942 25.1616 194.282 24.5547 194.627 24.2251C194.141 24.0555 193.634 23.9534 193.12 23.9216C191.409 24.0838 189.714 24.4815 188.009 24.4971C187.093 24.4105 186.219 24.0698 185.487 23.5135C182.954 21.8183 180.438 20.097 178.015 18.2553C174.918 15.9113 171.303 14.844 167.687 13.7034C166.69 13.319 165.726 12.8536 164.804 12.3117L165.893 8.29871L173.029 8.94225C173.265 8.94225 173.505 9.11491 173.725 9.07828C178.586 8.29348 183.75 8.64925 187.888 5.15947C188.572 4.68883 189.348 4.36791 190.164 4.21771C198.42 1.99932 206.729 0.686068 215.278 2.54868C218.339 3.21315 221.447 3.66834 224.549 4.1183C227.652 4.56825 230.304 6.0123 232.753 7.78073C233.493 8.40153 233.964 9.28472 234.066 10.245C234.323 14.0383 234.333 17.8472 234.521 21.6404C234.553 22.3468 234.992 23.0374 235.244 23.7333C235.988 23.4553 236.718 23.1392 237.431 22.7863C238.105 22.3365 238.752 21.8455 239.366 21.3161C239.215 23.6286 239.1 25.4546 238.974 27.2858C238.712 31.1366 238.398 34.9874 238.205 38.8487C238.09 41.1351 238.597 41.4333 240.821 40.6119C241.344 40.4078 241.904 40.1776 242.804 39.8166C242.94 41.9094 243.076 43.84 243.191 45.7602C243.646 53.5246 244.086 61.2942 244.588 69.0533C244.614 69.4353 245.163 69.7806 245.467 70.1416C245.776 69.7753 246.231 69.4562 246.362 69.0376C247.26 65.8963 248.334 62.8079 249.579 59.7873C249.579 62.0424 249.663 64.3026 249.579 66.5524C249.244 73.8459 248.847 81.1341 248.481 88.4276C248.445 88.7789 248.475 89.1338 248.57 89.474C248.758 89.8802 248.982 90.2689 249.239 90.6355C249.605 90.3896 250.129 90.2327 250.312 89.8874C251.583 87.5539 252.781 85.1785 254.22 82.4108C254.22 84.2786 254.288 85.8064 254.22 87.3184C253.906 93.194 253.467 99.0644 253.237 104.94C253.132 107.603 253.373 110.287 253.524 112.955C253.645 113.411 253.845 113.841 254.116 114.227C254.462 113.963 254.781 113.665 255.068 113.337C255.352 112.813 255.728 112.343 256.177 111.951C255.026 114.996 254.032 118.046 252.839 121.002Z" fill="#4D3826"/>
<path d="M201.863 120.694C201.177 119.81 200.792 118.73 200.764 117.612C200.986 118.685 201.356 119.722 201.863 120.694Z" fill="#C8A468"/>
<path d="M201.942 120.798L201.863 120.694C201.356 119.722 200.986 118.685 200.764 117.612C200.644 117.089 200.571 116.759 200.571 116.759C198.802 106.18 197.955 95.5851 200.571 84.9692V85.6442C200.571 85.5605 200.618 85.4872 200.639 85.4087C200.683 84.777 200.824 84.1558 201.057 83.567C201.057 83.4049 201.099 83.2427 201.125 83.0805C201.153 82.7591 201.207 82.4405 201.288 82.1282C201.288 82.0968 201.288 82.0654 201.288 82.0341C201.45 90.4681 201.643 98.9022 201.769 107.342C201.827 111.266 201.57 115.19 201.769 119.108C201.797 119.674 201.855 120.238 201.942 120.798Z" fill="#C8A468"/>
<path d="M99.2309 142.072C98.4092 139.299 98.4677 136.339 99.3983 133.601C100.34 130.687 102.998 128.584 105.473 128.521C107.947 128.458 109.203 129.442 109.742 131.848L110.197 133.831C111.008 132.487 111.662 131.409 112.342 130.273C106.87 129.782 103.825 123.383 106.524 118.836C108.235 115.953 111.804 115.362 114.247 115.755C114.817 115.849 115.492 116.686 115.717 117.324C116.962 120.871 118.119 124.461 116.047 128.097C120.384 129.996 121.535 131.885 121.185 136.583C121.022 138.728 120.708 140.858 120.436 143.218C123.544 143.218 123.801 145.865 124.005 148.361C124.183 150.76 124.192 153.17 124.031 155.57C123.937 157.166 122.984 158.286 121.321 158.71C119.432 159.233 117.611 159.28 116.235 157.663C115.299 156.559 114.566 155.283 113.656 153.954C113.028 156.826 111.265 158.867 108.324 158.929C105.243 158.992 104.18 156.219 102.982 153.865C101.999 155.121 101.151 156.371 100.131 157.464C99.4177 158.28 98.4715 158.858 97.4198 159.119C96.3682 159.38 95.2618 159.312 94.25 158.924C92.199 158.218 91.388 156.355 91.1107 154.32C90.734 151.735 91.5764 149.407 92.7902 147.178C93.3919 146.069 93.8942 144.892 94.59 143.851C94.9943 143.277 95.561 142.838 96.2172 142.59C97.2065 142.338 98.2142 142.164 99.2309 142.072ZM96.2957 144.165C96.1592 144.603 95.9619 145.021 95.7097 145.405C93.4913 147.9 92.1153 150.715 92.5391 154.126C92.7431 155.769 93.4024 157.533 95.2127 157.716C96.6488 157.822 98.0748 157.404 99.2256 156.538C102.061 154.137 102.538 150.856 101.972 147.283C101.57 144.724 98.7077 142.307 96.2957 144.138V144.165ZM108.957 134.883L108.622 134.804C108.57 134.035 108.57 133.235 108.45 132.497C108.01 129.74 105.834 128.866 103.49 130.357C100.11 132.508 99.3408 139.001 100.999 141.648C101.857 143.003 103.144 143.861 104.515 143.484C105.144 143.295 105.73 142.982 106.237 142.564C106.745 142.147 107.164 141.633 107.471 141.052C108.288 139.105 108.497 136.929 108.957 134.857V134.883ZM119.631 136.793L120.002 136.704C119.62 135.003 119.416 133.24 118.82 131.629C118.108 129.708 115.492 128.913 114.111 130.158C111.495 132.539 110.035 137.185 111.966 140.68C112.787 142.176 115.267 143.448 116.575 143.155C118.668 142.689 119.5 141.517 119.625 138.927C119.657 138.19 119.631 137.478 119.631 136.766V136.793ZM122.963 152.489C122.702 150.72 122.503 148.465 121.985 146.284C121.812 145.577 120.824 144.609 120.164 144.578C118.93 144.515 117.172 144.625 116.502 145.405C114.226 148.073 114.461 153.284 116.675 156.031C117.695 157.297 119.134 158.328 120.682 157.527C121.64 157.004 122.173 155.612 122.775 154.54C123.011 154.074 122.885 153.441 122.963 152.447V152.489ZM104.091 151.966C104.615 153.211 104.871 154.634 105.661 155.586C106.451 156.538 107.974 157.679 108.921 157.485C110.014 157.266 111.186 155.827 111.694 154.644C113.101 151.364 112.489 148.099 110.611 145.153C110.166 144.452 108.999 143.746 108.24 143.825C107.743 143.902 107.269 144.09 106.855 144.377C106.441 144.663 106.097 145.04 105.849 145.478C105.075 147.476 104.693 149.648 104.091 151.95V151.966ZM115.837 123.189C115.393 121.541 114.985 119.616 114.304 117.79C114.117 117.485 113.855 117.232 113.543 117.057C113.23 116.882 112.878 116.791 112.52 116.79C110.511 117.267 108.445 117.617 107.45 120.003C106.373 122.619 107.623 127.328 110.202 128.27C113.713 129.588 115.372 127.741 115.853 123.189H115.837ZM108.748 142.307C112.17 142.768 112.698 145.588 113.849 148.062L115.152 144.526C113.912 144.232 112.768 143.623 111.832 142.758C110.896 141.893 110.2 140.8 109.81 139.587L108.748 142.307Z" fill="#4D3826"/>
<path d="M57.5162 148.314C57.919 147.513 58.1963 146.948 58.5259 146.294C57.3837 145.364 56.2922 144.374 55.2559 143.328C54.6124 142.616 53.906 141.653 53.8485 140.764C53.6235 137.3 53.634 133.826 56.7732 131.346C57.0547 131.127 57.3078 130.874 57.5266 130.593C57.9713 130.022 58.4318 128.903 58.7875 128.939C60.0171 129.07 61.4977 129.269 62.3558 130.033C65.6572 132.978 65.9398 136.939 65.3799 141.02C65.2649 141.516 65.295 142.034 65.4666 142.512C65.6383 142.991 65.9442 143.41 66.3479 143.72C69.8795 146.964 69.7592 153.917 66.2485 157.161C64.0719 159.165 60.6031 158.982 58.369 156.727C58.008 156.361 57.6888 155.952 57.2022 155.398C55.5384 158.82 52.7602 159.788 49.3175 159.353C47.9153 159.181 47.1985 158.427 46.7015 157.062C45.383 153.3 46.3405 150.082 48.6687 147.074C49.099 146.512 49.4806 145.916 49.8093 145.29C51.1697 142.747 54.3246 142.569 55.8471 145.007C56.4593 145.959 56.8778 147.016 57.5162 148.314ZM60.3362 130.284C59.9974 130.679 59.6108 131.031 59.1852 131.33C55.4076 133.24 54.9106 137.577 55.5227 140.717C55.7843 142.025 58.6097 144.819 59.4782 144.431C60.9536 143.767 62.675 142.893 63.465 141.601C65.0608 139.032 63.894 132.136 60.3362 130.284ZM56.8308 151.871C56.0564 149.779 55.4129 147.649 54.4711 145.651C53.7491 144.123 52.2161 144.081 51.1906 145.457C50.343 146.592 49.6733 147.853 48.8885 149.03C47.2875 151.416 47.3189 153.959 48.3653 156.476C48.5585 156.839 48.8284 157.157 49.1563 157.406C49.4842 157.656 49.8623 157.831 50.2645 157.92C53.6497 158.406 56.4227 155.68 56.8308 151.871ZM67.6559 150.778C67.0333 148.957 66.531 147.084 65.7514 145.331C65.0451 143.736 64.3178 143.699 62.9366 144.808C62.5438 145.168 62.0879 145.452 61.5919 145.645C59.9491 146.169 59.2846 147.408 58.9393 148.91C58.684 150.005 58.5092 151.117 58.4161 152.238C58.2382 154.603 59.541 156.151 62.3087 157.004C63.7789 157.459 65.2387 156.758 66.2798 154.791C66.8815 153.619 67.1484 152.274 67.6559 150.773V150.778Z" fill="#4D3826"/>
<path d="M196.087 6.55119C196.526 7.45495 197.024 8.32885 197.578 9.16721C198.101 9.84215 198.713 10.7368 199.425 10.8886C202.564 11.5897 205.745 9.60147 206.949 6.42038C205.039 4.92925 197.95 5.1176 196.087 6.55119ZM247.22 134.485C249.093 129.996 251.029 125.539 252.839 121.023C254.032 118.046 255.047 114.996 256.146 111.977C255.693 112.369 255.314 112.838 255.026 113.364C254.74 113.692 254.421 113.99 254.074 114.253C253.803 113.868 253.603 113.437 253.483 112.982C253.331 110.313 253.09 107.629 253.195 104.966C253.425 99.0905 253.865 93.2202 254.178 87.3446C254.262 85.8325 254.178 84.3047 254.178 82.4369C252.74 85.2099 251.562 87.58 250.27 89.9135C250.087 90.2588 249.564 90.4367 249.198 90.6617C248.94 90.295 248.716 89.9064 248.528 89.5002C248.433 89.16 248.403 88.8051 248.439 88.4538C248.805 81.1603 249.203 73.872 249.538 66.5785C249.637 64.3288 249.538 62.0685 249.538 59.8135C248.294 62.8221 247.219 65.8982 246.32 69.0271C246.189 69.4457 245.734 69.7649 245.425 70.1311C245.122 69.7701 244.572 69.4248 244.546 69.0428C244.023 61.2837 243.605 53.5141 243.149 45.7497C243.034 43.8296 242.898 41.9146 242.762 39.8061C241.862 40.1671 241.329 40.3973 240.779 40.6014C238.556 41.4228 238.048 41.1246 238.163 38.8382C238.357 34.9769 238.686 31.1261 238.932 27.2754C239.058 25.4441 239.173 23.6129 239.325 21.3056C238.71 21.835 238.064 22.326 237.389 22.7758C236.677 23.1288 235.947 23.4449 235.202 23.7228C234.951 23.0269 234.511 22.3363 234.48 21.63C234.291 17.8367 234.281 14.0278 234.025 10.2346C233.922 9.27425 233.451 8.39105 232.711 7.77026C230.263 5.97566 227.61 4.53161 224.508 4.10782C221.405 3.68402 218.297 3.2079 215.236 2.5382C206.692 0.67559 198.384 2.01499 190.122 4.20722C189.306 4.35743 188.53 4.67835 187.847 5.149C183.708 8.63878 178.544 8.28823 173.683 9.0678C173.464 9.10443 173.223 8.9527 172.987 8.93177L165.851 8.28823L164.763 12.3012C165.684 12.8431 166.648 13.3085 167.646 13.6929C171.261 14.8335 174.876 15.9009 177.974 18.2448C180.396 20.0865 182.913 21.8079 185.445 23.503C186.178 24.0594 187.051 24.4 187.967 24.4867C189.672 24.4867 191.368 24.0733 193.079 23.9111C193.592 23.9429 194.099 24.045 194.585 24.2146C194.24 24.5442 193.9 25.1354 193.539 25.1511C191.478 25.2296 190.619 26.1505 190.065 28.2328C189.683 29.6559 190.316 30.5088 190.63 31.5081C192.069 36.1437 193.685 40.7217 195.229 45.3207C195.595 46.4142 196.15 46.8118 197.369 46.3305C198.653 45.8635 199.982 45.5286 201.335 45.3312C201.706 45.2632 202.161 45.6765 202.58 45.8544C202.261 46.1107 201.978 46.4927 201.612 46.5973C199.718 47.1205 197.547 46.8642 196.014 48.528C195.904 48.6483 195.391 48.3134 195.077 48.3396C193.665 48.4547 192.037 48.235 190.892 48.8628C189.615 49.5796 188.49 49.9092 187.799 48.5803C185.971 44.9856 183.521 41.7424 180.563 39.0004C177.947 36.5832 175.708 33.8102 173.239 31.2726C172.658 30.6762 171.481 29.8495 171.046 30.0693C169.353 30.9218 167.786 32.0046 166.39 33.287C165.971 33.6742 166.343 34.9089 166.338 35.7565C166.338 36.7087 166.306 37.661 166.27 38.608C166.165 41.1508 165.746 43.7197 166.008 46.2206C166.317 49.1244 167.337 51.9445 167.829 54.843C168.352 57.9247 169.66 60.4152 172.286 62.1679C174.301 63.5335 176.205 65.0665 178.277 66.3536C184.388 70.1259 190.797 72.9303 198.248 71.7164C200.294 71.3816 202.308 70.8741 204.354 70.5444C204.877 70.4607 205.452 70.7537 206.007 70.8741C205.531 71.2141 205.102 71.7164 204.568 71.8681C203.391 72.2082 202.167 72.3913 201.204 72.564C201.204 75.0126 201.173 77.1996 201.204 79.3657C201.204 80.2447 201.235 81.1289 201.256 81.9817C201.418 90.4158 201.612 98.8499 201.738 107.289C201.795 111.213 201.539 115.137 201.738 119.056C201.764 119.624 201.82 120.189 201.905 120.751C201.973 121.233 202.062 121.709 202.172 122.174C202.219 122.368 202.271 122.562 202.324 122.75C202.318 122.767 202.318 122.785 202.324 122.802C202.371 122.991 202.428 123.179 202.486 123.362C202.497 123.408 202.511 123.453 202.528 123.498C202.59 123.697 202.658 123.89 202.732 124.084C202.726 124.098 202.726 124.112 202.732 124.126C202.805 124.33 202.889 124.534 202.972 124.733C203.401 125.764 203.939 126.747 204.579 127.663L204.662 127.783C204.746 127.903 204.83 128.019 204.919 128.134C205.008 128.249 205.039 128.301 205.107 128.385C205.175 128.468 205.342 128.683 205.468 128.83C205.594 128.976 205.73 129.143 205.866 129.295C206.002 129.447 206.18 129.635 206.342 129.818C206.504 130.002 206.729 130.211 206.928 130.399C209.654 132.963 211.851 136.154 215.372 137.839C216.57 138.415 217.988 139.069 218.669 140.099C220.531 142.851 223.299 144.065 226.166 145.216C226.716 145.406 227.287 145.525 227.866 145.572C228.76 145.594 229.65 145.697 230.524 145.881C230.948 146.012 231.189 146.713 231.513 147.157C231.087 147.405 230.627 147.59 230.148 147.707C229.673 147.706 229.202 147.615 228.761 147.44C225.099 146.357 221.625 144.871 218.637 142.381C218.114 141.936 217.224 141.899 216.502 141.674L216.189 142.229C216.78 143.767 217.355 145.31 217.967 146.838C219.239 149.977 220.929 153.012 220.824 156.601C220.746 159.066 220.536 159.432 218.009 159.662C215.482 159.892 212.939 160.102 210.444 160.316C209.45 162.032 210.81 163.157 211.454 164.428C211.566 164.678 211.73 164.901 211.936 165.081C212.142 165.262 212.384 165.396 212.646 165.475C217.601 166.27 222.545 167.259 227.537 167.636C229.099 167.795 230.676 167.573 232.134 166.99C233.592 166.407 234.887 165.48 235.908 164.287C236.431 164.638 237.064 165.407 237.425 165.286C240.643 164.24 244.478 166.333 247.288 163.361C247.345 163.298 247.518 163.33 247.628 163.361C248.957 163.581 249.464 162.759 249.532 161.676C249.668 159.489 249.763 157.297 249.71 155.11C249.679 153.739 250.296 152.086 248.538 151.181C248.408 151.108 248.34 150.731 248.381 150.522C248.847 148.026 249.192 145.499 249.857 143.055C250.595 140.366 251.63 137.755 252.536 135.108C251.285 135.778 250.443 136.678 249.396 137.321C248.659 137.771 247.696 137.844 246.827 138.075C246.827 137.285 246.827 136.505 246.875 135.71C246.925 135.286 247.042 134.873 247.22 134.485Z" fill="#C8A468"/>
<path d="M239.33 39.9056C239.565 36.0548 239.743 32.6958 239.989 29.3368C240.204 26.4383 240.512 23.5449 240.727 20.6411C240.681 20.1448 240.555 19.6591 240.355 19.2023C239.872 19.3133 239.405 19.4893 238.969 19.7255C238.022 20.4266 237.148 21.2271 235.741 22.4096V10.3968L236.787 9.64859C236.133 8.85572 235.423 8.11085 234.663 7.41974C233.805 6.73957 232.785 6.26345 231.937 5.4054C240.202 6.31965 248.302 8.37263 256.004 11.506H243.196L243.066 12.0972C253.493 14.8806 261.734 21.0702 269.561 28.8398C264.512 27.6835 259.74 27.2702 255.633 24.5547C254.588 23.8695 253.498 23.2576 252.368 22.7235C252.044 22.5665 251.536 22.7863 251.118 22.8281C251.317 23.1996 251.432 23.7804 251.735 23.9059C257.276 26.1923 260.671 30.807 264.166 35.2961C267.557 39.6492 270.848 44.0807 273.998 48.753C272.365 48.0728 270.722 47.4188 269.106 46.702C267.489 45.9852 265.825 44.9702 264.083 44.4313C262.513 43.9447 261.252 42.4326 259.332 42.8617C269.859 51.9184 275.489 64.3131 283.033 75.3736L282.62 75.8027C281.526 75.0964 280.402 74.4319 279.339 73.7099C273.872 69.8748 269.137 65.2182 264.512 60.4361C263.974 59.9288 263.263 59.6446 262.524 59.6409C273.835 71.2822 279.742 85.7331 285.021 100.524L284.65 100.817C282.034 98.2011 279.23 95.7263 276.802 92.9691C273.94 89.7252 271.361 86.2302 268.682 82.8293C268.111 82.1021 267.635 81.3539 266.343 82.2695C267.007 83.2008 267.635 84.0903 268.268 84.9692C271.889 89.9659 273.762 95.7525 275.462 101.565C277.623 108.969 279.502 116.461 281.495 123.917C281.522 124.165 281.522 124.416 281.495 124.665C278.706 123.503 276.87 121.473 275.473 119.087C273.108 115.043 270.926 110.889 268.671 106.782C268.493 106.401 268.26 106.049 267.981 105.735C267.808 105.573 267.327 105.453 267.232 105.552C267.044 105.805 266.931 106.106 266.908 106.421C266.908 106.572 267.018 106.756 267.102 106.912C270.79 113.521 272.695 120.777 274.573 128.019C275.698 132.377 276.462 136.835 277.268 141.266C277.498 142.558 277.304 143.934 277.304 145.745C276.667 145.143 276.067 144.501 275.51 143.825C272.512 139.555 269.54 135.26 266.563 130.975C266.443 130.842 266.349 130.687 266.285 130.52C265.867 128.264 264.758 128.322 263.324 129.599C264.214 136.449 265.108 143.31 266.008 150.182L265.422 150.365C262.126 147.021 260.305 142.684 257.851 138.781L258.375 138.734L258.474 136.306L256.031 136.61C255.659 135.636 253.938 134.679 254.984 132.706C255.141 132.414 254.848 131.88 254.759 131.456C254.279 131.545 253.82 131.722 253.404 131.979C251.955 133.282 250.589 134.679 249.171 136.008C248.893 136.2 248.588 136.352 248.266 136.458L247.806 136.186L259.316 107.043H259.594C259.505 108.414 259.405 109.78 259.322 111.15C258.99 116.888 258.662 122.63 258.338 128.374C258.275 128.666 258.288 128.968 258.375 129.253C258.604 129.603 258.873 129.926 259.175 130.216C259.447 129.839 260.002 129.41 259.949 129.086C258.903 122.807 259.908 116.566 260.598 110.329C260.82 107.731 260.884 105.123 260.792 102.518C260.792 101.994 260.211 101.471 259.897 100.922C259.485 101.35 259.123 101.824 258.819 102.334C257.537 105.254 256.308 108.2 255.063 111.135L254.315 111.046C254.315 109.037 254.21 107.017 254.315 105.013C254.67 99.1533 255.146 93.3039 255.513 87.444C255.659 85.0739 255.685 82.6933 255.664 80.3179C255.664 79.8261 255.209 79.3343 254.963 78.8477C254.581 79.2192 254.053 79.5227 253.838 79.9779C252.567 82.641 251.374 85.3355 250.176 88.0248L249.689 87.9515C249.557 86.8211 249.494 85.6836 249.501 84.5454C249.883 78.921 250.39 73.307 250.736 67.6773C250.961 64.0149 251.013 60.3524 251.06 56.69C251.06 56.2348 250.537 55.7691 250.291 55.3087C249.925 55.7273 249.402 56.0831 249.213 56.5644C248.094 59.4944 247.052 62.4505 245.645 65.4171C245.493 64.198 245.263 62.9841 245.2 61.7546C244.991 57.3649 244.824 52.9805 244.677 48.5908C244.583 45.9381 244.625 43.275 244.468 40.6276C244.321 38.1581 243.599 37.8075 241.475 38.9376C240.9 39.1731 240.376 39.3824 239.33 39.9056Z" fill="#4D3826"/>
<path d="M152.697 100.294C149.344 98.4993 145.634 100.137 142.087 99.4934V95.7577H145.723L145.781 95.2345L142.286 94.6328V91.6139H145.948C145.069 89.7723 143.515 91.0593 142.469 90.3059V88.2131H146.1C146.131 87.9934 146.157 87.7788 146.189 87.5591L142.657 86.9888C142.694 87.0568 142.594 86.9574 142.599 86.858C142.756 82.1492 142.076 83.0438 146.623 82.8241C148.156 82.7508 149.699 83.002 151.238 83.0543C151.943 83.0978 152.643 82.9145 153.236 82.5311C149.998 81.108 146.555 81.7149 143.128 81.6155V78.2565L146.027 77.8693L146.068 77.3461L143.405 76.7445V74.751H146.905L147.015 74.0761L143.353 73.3122V72.7472L147.476 72.1612C147.476 71.9467 147.476 71.7374 147.45 71.5229L143.651 71.0624C143.703 70.1207 143.756 69.2574 143.798 68.5667C147.115 68.5667 150.301 68.5929 153.482 68.5406C153.901 68.5406 154.319 68.1377 154.738 67.9232C154.356 67.557 153.99 66.8768 153.587 66.8768C151.933 66.7931 150.27 66.9187 148.606 66.9396C147.136 66.9396 145.671 66.9396 144.012 66.9396C144.148 65.37 144.253 64.1561 144.378 62.6964H147.575L147.643 62.0685L144.467 61.4773C144.514 60.9541 144.567 60.2739 144.619 59.6147L148.601 59.395C148.601 59.1386 148.601 58.8718 148.627 58.6258L144.891 58.1497V56.5069L148.721 55.9837L148.674 55.2459C147.9 55.2519 147.127 55.1994 146.361 55.089C145.896 54.9896 145.085 54.4664 145.121 54.3513C145.325 53.6973 145.697 52.6142 146.084 52.5828C148.438 52.3997 150.793 52.4729 153.173 52.4363C153.755 52.4474 154.327 52.2853 154.816 51.9707C151.839 49.7209 148.705 51.1388 145.545 51.369V48.1774L148.836 48.46L149.004 47.6961L145.645 46.7491C146.393 44.2011 148.967 46.8433 150.223 44.944L146.089 44.2953V42.464C147.491 42.2757 148.993 43.5104 150.448 41.8414L146.173 41.0566C146.225 40.3398 146.272 39.6701 146.314 39.0527H155.957L156.103 38.3883C155.384 38.1516 154.645 37.9765 153.895 37.8651C151.803 37.7395 149.726 37.6767 147.664 37.6767C146.618 37.6767 146.304 37.2163 146.435 36.2536C146.592 35.0868 146.712 33.9149 146.885 32.4656L162.664 34.7206C162.361 36.6931 161.927 38.6028 161.806 40.5334C161.372 47.4659 161.048 54.4088 160.681 61.3465C160.2 70.4241 159.635 79.507 159.279 88.5898C159.007 95.4176 159.049 102.261 158.876 109.094C158.615 119.3 158.318 129.508 157.987 139.717C157.825 144.95 157.6 150.182 157.422 155.414C157.39 156.065 157.417 156.718 157.5 157.365C157.877 160.044 156.747 160.949 154.016 160.682C151.285 160.415 148.438 160.546 145.645 160.504C142.505 160.463 142.505 160.463 142.212 157.308C142.118 156.261 141.977 155.215 141.846 154.038L151.473 153.488C151.473 153.253 151.473 153.017 151.473 152.782C150.202 151.51 148.575 152.076 147.062 152.175C145.89 152.253 144.718 152.463 143.552 152.656C142.385 152.85 141.6 152.604 141.715 151.129C141.721 150.312 141.656 149.496 141.522 148.69L145.331 147.477L145.174 146.744C144.441 146.908 143.695 147.012 142.945 147.053C142.402 146.967 141.874 146.807 141.375 146.577C141.79 146.298 142.225 146.051 142.678 145.839C143.301 145.598 143.965 145.452 144.614 145.269L144.577 144.714L141.391 144.395C141.391 143.835 141.339 143.322 141.312 142.794L145.001 142.501V141.826L141.506 141.366V136.903H151.954C151.745 135.678 151.316 135.333 150.139 135.385C147.272 135.527 144.384 135.432 141.433 135.432V132.68L144.493 132.1V131.466L141.412 131.1C141.375 130.577 141.339 130.054 141.297 129.431L145.001 129.641L145.111 129.049C144.091 128.076 142.673 128.448 140.721 128.333C141.318 127.773 141.584 127.286 141.945 127.213C143.144 126.925 144.373 126.768 145.608 126.564L145.519 125.711L141.302 125.947V120.825C143.191 120.688 145.168 120.594 147.141 120.395C148.936 120.218 150.803 121.719 153.027 120.197C148.92 118.763 145.179 119.056 141.323 119.543V117.162L144.488 116.346C143.583 114.944 140.69 117.068 141.312 114.101L144.849 113.505C144.849 113.29 144.849 113.076 144.849 112.861C144.326 112.804 143.845 112.715 143.337 112.689C142.83 112.662 142.17 112.689 141.469 112.689V110.878L145.414 110.198L145.331 109.502L141.464 109.288C141.584 106.902 141.747 104.663 141.794 102.418C141.794 101.178 142.479 100.927 143.505 100.958C146.163 101.047 148.82 101.142 151.478 101.189C151.914 101.141 152.342 101.035 152.75 100.875L152.697 100.294Z" fill="#F79221"/>
<path d="M145.106 30.4877C152.689 27.5345 161.049 27.2375 168.823 29.6454C166.73 31.6806 164.909 33.3967 161.964 33.0096C157.035 32.3608 152.096 31.8114 147.162 31.1888C146.459 31.012 145.771 30.7775 145.106 30.4877Z" fill="#4D3826"/>
<path d="M189.139 161.242C190.829 161.242 192.519 161.284 194.209 161.242C197.52 161.137 200.843 161.08 204.149 160.824C207.058 160.599 208.241 162.545 209.863 164.81C202.886 164.303 195.95 163.331 189.102 161.901C189.102 161.682 189.128 161.462 189.139 161.242Z" fill="#4D3826"/>
<path d="M249.569 148.178C250.783 144.39 251.991 140.596 253.268 136.61C255.544 138.729 255.267 140.565 253.885 142.569C252.598 144.442 251.494 146.446 250.307 148.392L249.569 148.178Z" fill="#4D3826"/>
<path d="M96.296 144.139C98.708 142.307 101.57 144.725 101.973 147.278C102.538 150.851 102.062 154.132 99.2259 156.533C98.0751 157.399 96.6491 157.817 95.213 157.711C93.4027 157.527 92.7434 155.764 92.5394 154.121C92.1156 150.71 93.4916 147.895 95.71 145.4C95.964 145.009 96.1613 144.584 96.296 144.139Z" fill="#FFFDE1"/>
<path d="M108.957 134.857C108.497 136.95 108.288 139.105 107.471 141.025C107.164 141.606 106.745 142.121 106.237 142.538C105.73 142.956 105.145 143.269 104.515 143.458C103.145 143.835 101.857 142.977 100.999 141.622C99.3409 138.974 100.11 132.481 103.49 130.331C105.839 128.84 108.01 129.714 108.45 132.471C108.57 133.23 108.57 134.009 108.623 134.778L108.957 134.857Z" fill="#FFFDE1"/>
<path d="M119.631 136.767C119.631 137.478 119.631 138.19 119.631 138.901C119.505 141.517 118.652 142.663 116.58 143.129C115.272 143.422 112.792 142.15 111.971 140.654C110.04 137.159 111.479 132.513 114.116 130.132C115.497 128.887 118.113 129.682 118.825 131.603C119.421 133.214 119.626 134.977 120.007 136.678L119.631 136.767Z" fill="#FFFDE1"/>
<path d="M122.964 152.447C122.885 153.452 123.011 154.074 122.775 154.498C122.179 155.571 121.645 156.983 120.682 157.485C119.113 158.286 117.695 157.255 116.675 155.989C114.461 153.242 114.226 148.031 116.502 145.363C117.166 144.583 118.924 144.473 120.164 144.536C120.824 144.568 121.812 145.535 121.985 146.242C122.503 148.424 122.702 150.679 122.964 152.447Z" fill="#FFFDE1"/>
<path d="M104.092 151.95C104.693 149.648 105.075 147.477 105.876 145.462C106.124 145.024 106.468 144.648 106.882 144.361C107.296 144.075 107.769 143.886 108.267 143.809C109.026 143.73 110.192 144.437 110.637 145.138C112.515 148.084 113.128 151.348 111.72 154.629C111.197 155.811 110.041 157.245 108.947 157.47C108 157.663 106.499 156.512 105.688 155.571C104.877 154.629 104.61 153.195 104.092 151.95Z" fill="#FFFDE1"/>
<path d="M115.853 123.189C115.388 127.741 113.729 129.588 110.218 128.27C107.639 127.302 106.388 122.609 107.466 120.003C108.46 117.617 110.527 117.267 112.536 116.791C112.894 116.791 113.246 116.882 113.559 117.057C113.871 117.232 114.133 117.485 114.32 117.79C114.985 119.616 115.393 121.526 115.853 123.189Z" fill="#FFFDE1"/>
<path d="M108.748 142.307L109.794 139.571C110.184 140.785 110.88 141.877 111.816 142.742C112.752 143.608 113.896 144.217 115.136 144.51L113.834 148.047C112.714 145.593 112.191 142.768 108.748 142.307Z" fill="#4D3826"/>
<path d="M60.3358 130.284C63.8936 132.136 65.0447 139.032 63.4751 141.617C62.685 142.909 60.9637 143.783 59.4882 144.447C58.6197 144.834 55.7944 142.04 55.5328 140.732C54.8997 137.593 55.3968 133.256 59.1953 131.346C59.6181 131.041 60.0012 130.684 60.3358 130.284Z" fill="#FFFDE1"/>
<path d="M56.8304 151.872C56.4223 155.686 53.6493 158.412 50.2433 157.92C49.8411 157.831 49.4629 157.656 49.135 157.406C48.8071 157.157 48.5372 156.84 48.344 156.476C47.2976 153.959 47.2976 151.416 48.8672 149.031C49.652 147.853 50.3217 146.592 51.1693 145.457C52.2157 144.091 53.7278 144.123 54.4498 145.651C55.4125 147.644 56.0561 149.779 56.8304 151.872Z" fill="#FFFDE1"/>
<path d="M67.6555 150.773C67.1323 152.274 66.8811 153.619 66.269 154.775C65.2226 156.742 63.768 157.444 62.2978 156.988C59.5301 156.136 58.2273 154.587 58.4052 152.222C58.4983 151.102 58.6732 149.989 58.9284 148.894C59.2737 147.393 59.9382 146.132 61.5811 145.63C62.0771 145.436 62.5329 145.152 62.9257 144.792C64.3069 143.694 65.0185 143.746 65.7405 145.316C66.5306 147.079 67.0329 148.952 67.6555 150.773Z" fill="#FFFDE1"/>
<path d="M18.4535 154.195C18.2075 155.764 18.0087 157.465 17.6582 159.139C16.9257 162.634 9.70023 164.256 7.40859 162.226C3.69383 158.935 2.97181 156.382 5.45703 151.348C6.61855 148.999 8.25095 146.875 9.79964 144.74C10.0374 144.506 10.3239 144.328 10.6387 144.218C10.9534 144.107 11.2886 144.068 11.6204 144.102C14.7596 144.489 16.9152 146.043 17.5326 149.334C17.8413 150.862 18.1291 152.437 18.4535 154.195ZM16.5595 154.299C16.392 151.416 16.3083 149.036 14.723 147.048C13.1377 145.059 11.0344 144.719 9.65314 146.556C7.39289 149.559 5.64016 152.897 5.69771 156.821C5.73433 158.914 8.51255 161.807 10.4536 161.64C13.3417 161.394 15.9682 160.714 16.1723 157.14C16.2351 156.026 16.4705 154.922 16.5595 154.299Z" fill="#4D3826"/>
<path d="M16.5594 154.299C16.4705 154.922 16.235 156.026 16.1722 157.14C15.9682 160.714 13.3417 161.394 10.4536 161.64C8.51251 161.807 5.74476 158.929 5.69767 156.821C5.64011 152.897 7.39285 149.559 9.6531 146.556C11.0344 144.719 13.169 145.091 14.723 147.047C16.2769 149.004 16.392 151.416 16.5594 154.299Z" fill="#FFFDE1"/>
<path d="M196.087 6.55111C197.95 5.11752 205.039 4.92917 206.949 6.43077C205.745 9.61186 202.554 11.6 199.425 10.8989C198.713 10.7367 198.08 9.85253 197.578 9.17759C197.024 8.33585 196.526 7.45845 196.087 6.55111ZM201.575 9.59093L201.931 9.88915L205.264 7.3673L202.224 6.66098C201.968 7.81726 201.769 8.70148 201.575 9.59093Z" fill="black"/>
<path d="M201.575 9.59096C201.769 8.70151 201.968 7.81729 202.224 6.66101L205.264 7.36734L201.931 9.88919L201.575 9.59096Z" fill="white"/>
</g>
<defs>
<filter id="filter0_d" x="0" y="0" width="291.125" height="177.122" filterUnits="userSpaceOnUse" color-interpolation-filters="sRGB">
<feFlood flood-opacity="0" result="BackgroundImageFix"/>
<feColorMatrix in="SourceAlpha" type="matrix" values="0 0 0 0 0 0 0 0 0 0 0 0 0 0 0 0 0 0 127 0"/>
<feOffset dy="4"/>
<feGaussianBlur stdDeviation="2"/>
<feColorMatrix type="matrix" values="0 0 0 0 0 0 0 0 0 0 0 0 0 0 0 0 0 0 0.25 0"/>
<feBlend mode="normal" in2="BackgroundImageFix" result="effect1_dropShadow"/>
<feBlend mode="normal" in="SourceGraphic" in2="effect1_dropShadow" result="shape"/>
</filter>
</defs>
</svg>
