<svg width="40" height="40" viewBox="0 0 40 40" fill="none" xmlns="http://www.w3.org/2000/svg">
<circle cx="20" cy="20" r="20" fill="#F79221"/>
<path d="M14.4228 18.0451C16.0685 21.2794 18.7199 23.9194 21.9542 25.5766L24.4685 23.0623C24.7771 22.7537 25.2342 22.6508 25.6342 22.788C26.9142 23.2108 28.2971 23.4394 29.7142 23.4394C30.3428 23.4394 30.8571 23.9537 30.8571 24.5823V28.5708C30.8571 29.1994 30.3428 29.7137 29.7142 29.7137C18.9828 29.7137 10.2856 21.0166 10.2856 10.2851C10.2856 9.65656 10.7999 9.14228 11.4285 9.14228H15.4285C16.0571 9.14228 16.5714 9.65656 16.5714 10.2851C16.5714 11.7137 16.7999 13.0851 17.2228 14.3651C17.3485 14.7651 17.2571 15.2108 16.9371 15.5308L14.4228 18.0451Z" fill="white"/>
</svg>
