<svg width="100" height="100" viewBox="0 0 100 100" fill="none" xmlns="http://www.w3.org/2000/svg">
<rect width="124.145" height="171.97" transform="translate(-6.74219 -8.42822)" fill="#CCF0FB"/>
<path d="M80.9623 64.6471L81.5015 63.5164C82.2163 62.0159 82.9157 60.5554 83.6151 59.0888L84.1389 57.9889L85.1988 55.7705C83.1222 55.9245 83.1561 55.9584 81.8281 57.1755C81.4022 57.5181 80.8678 57.6974 80.3214 57.6808C80.0811 57.6808 79.8346 57.6561 79.5912 57.6407L79.659 56.7503C80.5679 56.8211 81.3844 56.6578 81.9082 55.4932C82.0284 55.2159 82.5891 55.0587 82.9712 54.994C84.8282 54.6787 86.5106 53.7079 87.713 52.258C88.0396 51.876 88.5141 51.6233 88.8807 51.2659L89.4199 51.8421C89.1303 52.107 88.8438 52.3782 88.5542 52.6493C88.4098 52.7986 88.2939 52.973 88.2121 53.1639C86.2217 57.1909 84.2252 61.2209 82.2656 65.2634C82.1698 65.5949 82.185 65.9487 82.3088 66.2709C82.5861 67.1952 82.9989 68.1011 83.2146 69.0439C83.5443 70.4951 84.4717 71.1791 85.8551 71.1729C87.0866 71.18 88.3155 71.0582 89.5216 70.8093C91.8109 70.3102 94.0847 69.885 96.5897 70.3841C96.2292 70.9757 95.9426 71.4348 95.6653 71.897C95.7578 72.051 95.8502 72.2051 95.9488 72.3561C96.3216 72.0757 96.8485 71.8816 97.0518 71.5088C98.3367 69.1517 99.5167 66.7423 100.792 64.3729C103.89 58.5804 107 52.7951 110.122 47.017C110.566 46.1975 111.089 45.4241 111.786 44.2903C107.118 46.9893 102.693 48.8626 101.905 48.6038L104.758 43.9822C102.414 44.6694 100.007 45.1164 97.5725 45.3163L98.919 43.329L99.5907 43.3536C99.6677 43.5354 99.7478 43.7172 99.831 43.8959C100.296 43.7973 100.786 43.748 101.254 43.6586C101.412 43.6278 101.563 43.5939 101.717 43.5539C101.815 43.5262 101.917 43.4953 102.025 43.4615C102.133 43.4276 102.219 43.3875 102.311 43.3444C103.664 42.7282 104.902 41.8439 106.24 41.1876C106.662 40.9812 107.26 41.126 107.78 41.1075C107.688 41.3139 107.608 41.5296 107.525 41.7422C107.481 41.8439 107.435 41.9486 107.386 42.0503C107.338 42.1568 107.282 42.2598 107.219 42.3584C106.662 43.215 106.079 44.0592 105.5 44.9065L104.918 45.7507L105.399 46.2129L112.975 42.4755C113.123 42.6296 113.283 42.7836 113.428 42.9315C113.246 43.7141 113.061 44.4967 112.812 45.5659C113.037 45.36 113.243 45.1342 113.428 44.8911C113.665 44.4474 113.909 44.0037 114.152 43.5601L114.626 42.6665C114.858 42.2198 115.082 41.7699 115.289 41.3108C116.309 39.0586 116.377 37.7398 115.532 36.7138C115.416 36.5737 115.29 36.4428 115.153 36.3225C114.524 35.8119 113.829 35.389 113.086 35.0654C108.643 32.9641 103.901 31.6393 98.882 31.7317L98.845 31.1463C99.7577 31.0832 100.673 31.0708 101.587 31.1093C105.007 31.2695 108.393 31.8118 111.558 33.2661C112.818 33.8361 114.137 34.3537 115.28 35.1147C117.418 36.5475 117.942 38.5379 116.848 40.9688C115.426 44.2496 113.285 47.1694 110.584 49.5127C108.905 50.9516 107.928 53.2871 106.841 55.3268C104.209 60.2905 101.646 65.3157 99.1162 70.3687C98.8081 70.9449 98.9159 71.7059 98.7865 72.3745C98.7237 72.7035 98.5982 73.0173 98.4168 73.2989C97.7112 74.2261 97.0924 75.2162 96.5681 76.2567L98.845 75.2862C98.2134 78.2933 96.3801 79.9078 93.7581 80.9647C94.2973 81.5532 94.701 81.9999 95.1169 82.4374C98.158 85.651 98.198 89.45 97.3754 93.477C96.109 99.6392 92.8092 104.689 89.0286 109.567C86.7178 112.54 84.2683 115.344 81.064 117.291C79.4033 118.301 77.3667 118.671 75.4964 119.368C74.9757 119.562 74.2856 119.78 74.0545 120.199C71.4078 124.975 68.6964 129.723 66.2747 134.613C63.5787 140.06 61.0892 145.615 58.649 151.186C57.398 154.055 56.3227 157 55.2043 159.924C54.9547 160.571 54.7051 161.218 54.4494 161.865C54.1738 162.445 53.8577 163.006 53.5035 163.541L53.0352 163.397C53.0845 162.913 53.0136 162.377 53.1892 161.945L54.2738 159.308C56.6401 153.537 58.991 147.76 61.4774 142.054C63.5972 137.17 65.8218 132.324 68.2558 127.573C70.7207 122.741 73.6046 118.117 76.1065 113.301C77.9551 109.727 79.5419 106.005 81.1533 102.307C81.3567 101.848 81.0054 101.149 80.8822 100.394L83.0729 99.6577C82.5676 99.0415 82.1917 98.5855 81.6371 97.9077L84.561 97.6242L83.3286 96.324C83.3748 96.1946 83.4118 96.0159 83.4457 96.0159C85.6733 96.0159 86.4251 94.4044 87.143 92.6944C88.6189 89.2251 90.1532 85.7835 91.6568 82.3265C91.7708 82.0585 91.8355 81.7657 92.0142 81.1896C89.6449 81.9506 87.4265 82.4405 85.3991 83.3464C80.1818 85.6962 75.0219 88.1673 69.9196 90.7595C69.0847 91.1847 68.6441 92.3832 68.1295 93.0765C69.8303 94.8789 71.3801 96.5181 73.1764 98.4253L69.4174 99.1401L72.0179 101.069C71.9778 101.232 71.9378 101.395 71.9008 101.559H68.8197L70.3941 103.34C68.1942 103.996 66.2716 105.077 64.1734 104.162C62.8639 103.592 62.26 104.061 61.7424 105.117C60.5366 107.582 59.334 110.047 58.1344 112.512C57.4751 113.849 56.7818 115.171 56.1717 116.518C55.9591 116.986 55.953 117.537 55.8636 118.058C55.8267 118.255 55.8636 118.529 55.762 118.64C52.2125 122.141 51.0694 127.021 48.5676 131.119C44.9257 137.081 42.8583 143.687 40.6553 150.243L39.6077 149.547C40.6307 146.401 41.5149 143.184 42.8891 140.199C45.7638 133.944 48.9373 127.828 51.9814 121.654C52.3234 120.964 52.65 120.267 52.9551 119.62C47.5354 117.463 42.3129 115.023 38.0425 111.187C31.4058 105.228 29.7944 97.5379 31.3504 88.9478C31.8125 86.3997 32.2531 83.8825 34.3051 82.1694C35.4575 81.2019 35.4821 80.3207 35.3866 78.9342C35.1802 75.8531 35.4113 72.7412 35.4174 69.6416C35.4174 69.1425 35.3558 68.4862 35.0446 68.1596C32.3949 65.3619 29.6804 62.6136 27.0337 59.9053C26.0016 61.2363 22.3566 60.9313 20.5419 59.9392C18.7271 58.9471 16.8445 58.0012 15.1006 56.8581C14.2913 56.2887 13.6437 55.519 13.2211 54.6243C12.6049 53.3518 12.2968 51.9437 11.8408 50.6004C11.7854 50.434 11.733 50.2491 11.6621 50.0797L12.4016 49.9842L12.5587 50.2584C12.8668 50.8037 13.2119 51.346 13.4984 51.8914C13.8509 52.4896 14.2409 53.0648 14.6662 53.6137C14.6662 53.6722 14.6662 53.7277 14.6477 53.7832C14.8356 54.1436 15.0144 54.5041 15.2054 54.8585C15.267 54.9786 15.3317 55.0957 15.3995 55.2128C15.5597 55.5024 15.7353 56.0016 15.9387 56.02C17.9445 56.1987 18.7117 58.4849 20.7853 58.7191C22.0855 58.8731 23.2163 59.8468 24.763 59.477C26.4915 59.0642 26.7965 58.7961 26.0539 57.2309C25.7803 56.6634 25.5356 56.0823 25.3206 55.4901C25.2344 55.2559 25.1543 55.0187 25.0803 54.7784C24.599 53.3075 24.3718 51.7655 24.4086 50.2183C24.4086 49.9749 24.4302 49.7253 24.4518 49.4758C24.513 48.8259 24.6159 48.1806 24.7599 47.5439C25.0403 46.2745 25.3761 45.0328 25.7458 43.8466C25.9389 43.2468 26.1443 42.6552 26.3621 42.0719C27.4574 39.1124 29.1169 36.3939 31.2487 34.0672L31.2733 34.0394L31.3319 33.9686L31.4058 33.8638C31.4346 33.8215 31.4604 33.7773 31.4829 33.7313C31.5198 33.6605 31.5537 33.5834 31.5876 33.5033C31.6093 33.4511 31.6278 33.3976 31.6431 33.3431C31.6817 33.2194 31.7095 33.0926 31.7263 32.9641C31.7409 32.9026 31.7481 32.8395 31.7478 32.7762C31.7576 32.6537 31.7514 32.5304 31.7293 32.4095C31.4778 31.4574 30.9707 30.5922 30.2627 29.9077C30.195 29.8307 30.121 29.7598 30.0501 29.692C28.2446 27.9111 25.4285 26.6109 23.6661 27.3904L22.3936 27.9389L19.8486 29.0296C17.7288 29.9539 15.609 30.8782 13.5231 31.8642L13.1195 31.0569C17.4145 28.9002 21.7466 26.7434 26.2665 25.1751C29.2429 24.1429 32.6105 23.9026 35.7255 25.0673C37.0412 25.5695 38.1165 26.6232 39.3489 27.4644C41.2222 27.2733 43.2404 27.0638 45.3047 26.8481L45.3756 27.5599C43.6032 27.7075 41.8708 28.1664 40.2578 28.9156C33.8399 31.8703 29.2275 36.7693 27.1354 43.6248C26.3189 46.3053 25.447 49.294 25.8629 51.9437C26.9752 59.0611 31.4952 64.1326 37.4109 67.91C41.2654 70.3749 45.773 70.2948 50.1698 70.3749C58.6243 70.5012 65.0084 65.8272 71.3955 61.1716C71.9795 60.7511 72.4836 60.2294 72.8837 59.6311L73.5368 60.0779C72.83 61.1498 71.9788 62.1192 71.0073 62.9587C68.8228 64.7426 66.2778 66.0891 63.8961 67.6358C59.6072 70.4088 54.9301 71.823 49.7969 71.6566C48.5645 71.6197 47.3321 71.6566 45.8716 71.6412C47.6402 73.8196 49.3933 75.6775 51.6733 76.9561C52.0786 77.1901 52.5395 77.3104 53.0075 77.3043C55.0718 77.2057 57.2409 77.3937 59.1697 76.8113C63.4123 75.5234 67.5287 73.8196 71.7036 72.3129C72.2178 72.1477 72.6913 71.8758 73.0932 71.5149C73.1887 71.4195 73.2763 71.3165 73.3551 71.2068C73.4326 71.0995 73.4996 70.9849 73.5553 70.8648C73.7914 70.2884 73.8389 69.652 73.6909 69.0469C73.5357 68.3427 73.5827 67.6089 73.8265 66.9302C73.9776 66.5446 74.1944 66.1881 74.4673 65.8765C74.8343 65.4695 75.2652 65.1251 75.7429 64.8566C75.8107 64.946 75.8785 65.0353 75.9493 65.1216L76.3407 65.6331C76.5348 65.8827 76.7165 66.123 76.8922 66.351C77.0123 66.4989 77.1233 66.6591 77.2311 66.7854C77.4776 66.4773 77.7148 66.1692 77.949 65.8611L79.7145 63.5687L80.0842 63.0912C80.4416 63.7197 80.6542 64.0833 80.9623 64.6471ZM85.4299 97.2144L87.9533 98.6656C88.0396 98.4961 88.129 98.3267 88.2121 98.1572C88.1474 98.0555 88.0827 97.9631 88.018 97.8738C87.9275 97.7519 87.8308 97.6347 87.7284 97.5225C87.6976 97.4886 87.6637 97.4547 87.6298 97.4239C87.0629 96.8816 86.4467 96.8169 85.4299 97.2144ZM26.436 26.2288C28.9964 27.4058 30.1641 27.9604 31.0577 28.8663C31.1563 28.971 31.2549 29.0727 31.3658 29.1744C31.9296 29.843 32.4318 30.7149 33.2144 32.086L38.0056 28.5612C36.7053 25.323 29.5633 23.881 26.436 26.2288ZM64.0286 96.1268C63.8588 96.4355 63.7808 96.7862 63.8038 97.1378C63.8267 97.4893 63.9496 97.827 64.158 98.111C64.2171 98.2077 64.2841 98.2994 64.3582 98.3852C64.4115 98.4555 64.4691 98.5224 64.5308 98.5855L64.5955 98.6533C64.9462 99.0049 65.3444 99.3057 65.7786 99.5468C65.8803 99.6084 65.9912 99.667 66.0867 99.7224L66.361 99.8518C66.5304 99.9319 66.7091 100.003 66.8909 100.071C67.2265 100.193 67.5691 100.296 67.9169 100.379C68.0864 100.419 68.2558 100.456 68.4345 100.49L68.6964 100.533C68.4334 100.015 68.0949 99.5396 67.692 99.1216L67.5441 98.9737C66.5212 97.9662 65.2672 97.3376 64.2874 96.3979L64.0286 96.1268ZM96.9378 77.6802C94.5808 76.9007 93.0063 78.7925 90.5846 79.2023C91.093 78.4875 91.284 78.0314 91.626 77.7726C92.9078 76.8175 94.2388 75.924 95.5452 74.9996C95.9519 74.7069 96.3401 74.3834 96.7376 74.0753L96.4541 73.4406C95.2217 73.8103 93.9892 74.1092 92.7876 74.5652C91.7801 74.9503 90.8496 75.5388 89.8575 75.9733C89.6634 76.0595 89.346 75.8531 89.0841 75.7792C89.1075 75.685 89.124 75.5892 89.1334 75.4926C89.1334 75.4279 89.155 75.3663 89.1704 75.3078C89.1845 75.2308 89.2248 75.1612 89.2844 75.1106C89.9006 74.6638 90.5784 74.2787 91.2378 73.8781C92.3039 73.2455 93.372 72.6179 94.4421 71.9956L94.2573 71.4102C93.3329 71.5088 92.4086 71.5796 91.5028 71.7183C89.8205 71.9586 88.1505 72.4115 86.4652 72.4608C83.6521 72.5471 82.0623 71.0928 81.4799 68.3537C81.443 68.1842 81.3998 68.0086 81.3475 67.8361C81.2701 67.5781 81.1776 67.325 81.0701 67.0781C80.9646 66.8336 80.8421 66.5968 80.7035 66.3695C80.6429 66.2789 80.5727 66.1952 80.494 66.1199C80.2074 65.8364 79.7853 65.5899 79.5696 65.6608C79.4395 65.7103 79.324 65.7919 79.2338 65.8981C79.2107 65.9192 79.1891 65.9418 79.1691 65.9658C79.0025 66.1627 78.8796 66.3927 78.8086 66.6406C78.793 66.6949 78.7826 66.7507 78.7778 66.807C78.6915 67.7313 78.8826 68.6556 78.8363 69.58C78.8117 70.0514 78.5282 70.5043 78.3465 70.9665C78.1994 70.82 78.0615 70.6647 77.9336 70.5012C77.8535 70.3996 77.7765 70.301 77.7025 70.1931C77.4806 69.8719 77.275 69.5397 77.0863 69.1979C76.9815 69.0161 76.8829 68.8374 76.7782 68.6618C76.6734 68.4862 76.5687 68.3291 76.4516 68.1627C76.2852 67.9193 76.1065 67.6789 75.9247 67.4386C75.7429 67.1983 75.5673 66.961 75.3917 66.7176L74.911 66.9487C74.911 67.9562 74.7939 68.9792 74.9295 69.9682C75.0069 70.4346 74.9796 70.9125 74.8494 71.367C74.8029 71.5139 74.7387 71.6546 74.6584 71.786C74.6062 71.875 74.5453 71.9586 74.4766 72.0356C74.2407 72.2957 73.9546 72.5053 73.6354 72.6518C72.3383 73.2896 71.0473 73.9428 69.7378 74.5529C64.6787 76.9192 59.4408 78.6538 53.787 78.6199C52.6593 78.6199 51.2605 78.3919 50.4594 77.7141C48.392 75.964 46.5833 73.9028 44.67 71.9617C44.4019 71.6905 44.1801 71.2407 43.8658 71.1637C41.5303 70.5937 39.1795 70.0945 36.6622 69.5399C36.6283 69.9097 36.5913 70.2948 36.5574 70.6984C36.5297 70.9634 36.5051 71.2376 36.4835 71.5149C36.4434 71.9309 36.4065 72.3499 36.3695 72.7751C36.0614 76.3738 36.6037 79.9017 37.4756 83.3618C38.0918 85.7989 38.5848 88.4178 39.8696 90.4976C42.165 94.2134 46.1489 95.0946 50.256 95.2517C53.5835 95.3817 56.8997 94.79 59.9769 93.5171C64.2257 91.7701 68.6225 90.2604 72.6279 88.0543C77.3944 85.4261 82.1978 82.9551 87.371 81.2759C89.2875 80.6596 91.3117 80.3762 93.2713 79.8739C93.4439 79.8339 93.6164 79.7908 93.7859 79.7415L94.0447 79.6675C94.7357 79.4794 95.3863 79.1661 95.9642 78.7432C96.3529 78.4427 96.6874 78.078 96.9532 77.6648L96.9378 77.6802ZM96.4603 89.3483C96.5188 87.0529 95.9889 84.9917 94.4021 83.371L94.2265 83.1954C94.1032 83.0752 93.9738 82.9612 93.8413 82.8503C93.7088 82.7394 93.564 82.6285 93.4192 82.5237C93.3484 82.4682 93.2744 82.4159 93.1974 82.3635C92.9478 82.9212 92.7044 83.4819 92.4579 84.0365C91.9649 85.1498 91.475 86.2601 90.9882 87.3672C90.0115 89.5825 89.0348 91.7917 88.055 94.0162C87.8116 94.5677 87.5651 95.1285 87.3186 95.6831C87.6575 95.8187 87.9503 95.9049 88.2152 96.0405C88.2642 96.0663 88.3115 96.0951 88.357 96.1268C88.4327 96.1736 88.5049 96.2261 88.5726 96.2839L88.6959 96.3948L88.7606 96.4595C89.1004 96.8099 89.3592 97.2306 89.5185 97.692C89.6019 97.8743 89.6409 98.0738 89.6323 98.2741C89.6238 98.4744 89.5679 98.6698 89.4692 98.8443C89.2796 99.0881 89.1067 99.3444 88.9516 99.6115C88.7718 99.9209 88.6301 100.251 88.5295 100.594C88.4751 100.759 88.4309 100.927 88.397 101.097C88.248 101.773 88.0259 102.431 87.7346 103.059C87.2913 104.009 86.6843 104.874 85.9414 105.613C84.9682 106.57 83.8167 107.326 82.5522 107.838C81.3875 108.325 80.3646 108.796 79.5666 109.567C79.5222 109.605 79.48 109.646 79.4402 109.69C79.4002 109.73 79.3571 109.773 79.3201 109.816C79.1563 109.995 79.0079 110.188 78.8764 110.392C78.8056 110.492 78.7398 110.595 78.6792 110.7C78.5811 110.876 78.4927 111.057 78.4142 111.243C78.3588 111.369 78.3095 111.505 78.2633 111.64C78.1647 111.924 78.0568 112.204 77.9551 112.484C77.8535 112.765 77.7241 113.042 77.5977 113.316C76.8521 114.974 75.9216 116.595 75.062 118.345C78.6515 117.633 81.5508 116.046 83.7723 113.513C85.0828 112.018 86.3563 110.492 87.5928 108.935C88.8294 107.378 90.029 105.794 91.1916 104.184C91.4874 103.773 91.7739 103.355 92.0512 102.93C92.3285 102.505 92.5924 102.078 92.843 101.651C93.0125 101.362 93.1758 101.072 93.336 100.782C93.4962 100.493 93.6441 100.194 93.792 99.898C93.9399 99.6023 94.0847 99.3034 94.2172 99.0045C94.3497 98.7057 94.4853 98.3883 94.6085 98.0802C94.7318 97.7721 94.855 97.464 94.9659 97.1559C95.8898 94.6532 96.3947 92.0153 96.4603 89.3483ZM86.3388 102.505C86.4035 102.292 86.4682 102.073 86.5299 101.861C85.6425 101.377 84.749 100.899 83.8616 100.422L83.4642 100.708C83.5227 100.97 83.5412 101.346 83.5997 101.611C83.61 101.66 83.6244 101.707 83.6429 101.753C83.6487 101.773 83.6569 101.793 83.6675 101.811C83.6824 101.844 83.7045 101.872 83.7322 101.895C83.7431 101.904 83.7556 101.911 83.7692 101.916C83.9705 101.994 84.1763 102.06 84.3854 102.113C84.5795 102.166 84.7736 102.209 84.9739 102.246C85.4145 102.338 85.8705 102.412 86.3388 102.505ZM85.4546 103.592C84.9585 103.491 84.3823 103.512 83.9725 103.263C83.2269 102.807 82.7401 102.881 82.3827 103.232C82.3513 103.254 82.3233 103.281 82.2995 103.312C82.2216 103.403 82.1505 103.5 82.0869 103.602L82.0222 103.712C81.9791 103.786 81.939 103.867 81.8959 103.953C81.8528 104.039 81.8158 104.119 81.7788 104.205C81.3444 105.188 80.9192 106.174 80.4231 107.311C81.899 107.006 83.2593 106.292 84.3484 105.25C84.5679 105.028 84.7679 104.788 84.9462 104.532L85.0448 104.384C85.1095 104.282 85.1742 104.178 85.2296 104.076L85.3097 103.919C85.3529 103.81 85.396 103.701 85.4392 103.592H85.4546ZM69.9597 97.1867C70.0038 96.9294 69.9511 96.6649 69.8118 96.4441C68.6256 95.4243 67.3469 94.4969 66.1145 93.5263C65.4798 93.8806 64.9899 93.9885 64.8635 94.2689C64.8496 94.3026 64.8393 94.3377 64.8327 94.3736C64.8296 94.4157 64.8296 94.4579 64.8327 94.5C64.8334 94.6936 64.8787 94.8844 64.9652 95.0576C65.005 95.15 65.0638 95.2329 65.1378 95.301C66.2616 96.2009 67.4365 97.0352 68.6564 97.7998C68.8038 97.8476 68.9594 97.8646 69.1136 97.8498C69.2679 97.835 69.4174 97.7886 69.553 97.7135C69.6644 97.6678 69.7683 97.6055 69.8611 97.5287C69.934 97.4302 69.9758 97.3122 69.9813 97.1898C69.9813 97.1898 69.9412 97.1867 69.9443 97.1867H69.9597ZM66.9279 102.905C66.6013 102.274 66.4103 101.5 65.9204 101.057C65.224 100.419 64.3028 100.024 63.4555 99.516C61.5637 101.078 61.6654 101.953 63.8961 102.936C64.2257 103.081 64.5678 103.361 64.8851 103.333C65.5747 103.236 66.2571 103.093 66.9279 102.905ZM63.3908 93.8036C63.2768 93.8683 63.1659 93.9361 63.058 94.0039C62.3974 94.4103 61.7854 94.891 61.234 95.4366C58.3316 98.2835 57.1053 102.763 57.9927 106.294C58.1284 106.852 58.3236 107.393 58.575 107.909C58.6582 108.078 58.7475 108.242 58.8461 108.405C59.2929 106.131 61.2525 104.683 61.0892 102.4C61.0824 102.231 61.0608 102.063 61.0245 101.898C61.006 101.805 60.9844 101.713 60.9598 101.62C60.7934 101.004 61.4065 100.141 61.7301 99.4266C61.7545 99.3704 61.7844 99.3167 61.8194 99.2664C61.8542 99.2088 61.8923 99.1533 61.9334 99.1C61.9919 99.0168 62.0628 98.9306 62.1275 98.8505C62.3555 98.5701 62.5681 98.3174 62.5065 98.2342C62.4166 98.0919 62.3383 97.9425 62.2723 97.7875C62.13 97.4353 62.102 97.0473 62.1922 96.6783C62.2175 96.5737 62.2494 96.4708 62.2877 96.3702C62.3523 96.1988 62.4285 96.032 62.5157 95.871C62.5527 95.8063 62.5866 95.7386 62.6267 95.6739L62.7376 95.4797C63.0793 94.9733 63.3055 94.3979 63.4 93.7944L63.3908 93.8036ZM59.6072 95.11C59.3572 95.0692 59.1023 95.0692 58.8523 95.11C56.0485 96.3917 53.0598 96.6105 50.0527 96.5705C46.3553 96.5242 42.5563 95.3966 39.9343 92.7899C39.8049 92.6636 39.6755 92.528 39.5492 92.3925C39.4229 92.2569 39.3058 92.1121 39.1825 91.9673C39.0069 91.7485 38.8375 91.5267 38.6711 91.2894C38.4554 90.9813 38.2551 90.6455 38.0549 90.3035C37.9624 90.1309 37.8731 89.9553 37.7868 89.7766C37.384 88.9213 37.083 88.0216 36.8902 87.0961C36.844 86.8804 36.8039 86.6585 36.7669 86.4336C36.7392 86.2672 36.7084 86.1039 36.6745 85.9376C36.6098 85.6048 36.5328 85.272 36.4465 84.9331C36.3818 84.6743 36.314 84.4124 36.2432 84.1444C36.1261 83.6976 35.9967 83.22 35.8642 82.7178C35.8118 82.5114 35.7563 82.3019 35.704 82.0862C34.8752 83.3186 34.185 84.0951 33.7475 85.004C33.2301 86.1017 32.8563 87.2616 32.6352 88.4548C32.5777 88.7445 32.5284 89.0341 32.4873 89.3237C32.2844 90.9194 32.2153 92.5292 32.2809 94.1364C32.2809 94.5831 32.3086 95.0299 32.324 95.4736C32.3627 96.7373 32.4758 97.9976 32.6629 99.2479C32.7369 99.7193 32.8231 100.172 32.931 100.644C33.0388 101.115 33.1621 101.55 33.3099 101.987C33.4085 102.295 33.5133 102.569 33.6181 102.85C35.5357 107.541 39.1336 111.349 43.7087 113.529C46.3553 114.814 48.8942 116.326 51.5316 117.639C52.3019 118.021 53.18 118.348 53.8578 117.728C54.0495 117.548 54.2044 117.333 54.3138 117.094C54.9547 115.806 55.6048 114.518 56.2519 113.23C56.8989 111.942 57.549 110.67 58.1899 109.394C58.0993 109.32 58.0128 109.241 57.9311 109.157C57.2635 108.503 56.7636 107.697 56.4737 106.809C55.4384 103.66 56.5322 99.1894 59.6164 95.1008L59.6072 95.11Z" fill="#36464E"/>
<path d="M115.532 36.7016C116.376 37.7276 116.309 39.0463 115.289 41.2986C115.082 41.7577 114.857 42.2229 114.626 42.6543L114.152 43.5478C113.908 43.9915 113.665 44.4351 113.428 44.8788C113.243 45.1219 113.037 45.3477 112.811 45.5536C113.058 44.4844 113.243 43.7049 113.428 42.9192C113.274 42.7652 113.12 42.6111 112.975 42.4632L105.398 46.2129L104.899 45.7384C105.09 45.455 105.284 45.1746 105.478 44.8942C106.058 44.0469 106.64 43.2027 107.198 42.3461C107.26 42.2475 107.316 42.1446 107.364 42.038C107.416 41.9364 107.46 41.8316 107.503 41.7299C107.589 41.5173 107.672 41.3017 107.762 41.0952C107.25 41.1137 106.652 40.9689 106.221 41.1753C104.884 41.8378 103.645 42.7159 102.293 43.3321C102.2 43.3752 102.102 43.4153 102.006 43.4492C101.911 43.4831 101.809 43.5108 101.698 43.5416C101.547 43.5817 101.39 43.6156 101.236 43.6464C100.767 43.7357 100.278 43.785 99.8123 43.8836C99.7291 43.7049 99.649 43.5231 99.572 43.3413C100.469 42.5865 101.319 41.7731 102.268 41.0952C103.217 40.4174 104.175 39.9429 105.133 39.3729V38.9446C104.671 38.8984 104.184 38.7536 103.744 38.8275C102.468 39.0524 101.22 39.4099 99.9479 39.6225C99.3995 39.7149 98.814 39.5793 97.9544 39.5331C98.1823 39.236 98.4315 38.9559 98.7 38.695C98.7832 38.6118 98.8695 38.5348 98.9588 38.4609C99.2114 38.2448 99.4791 38.0471 99.7599 37.8693C102.049 36.4489 104.757 36.8217 107.247 36.5537C107.247 36.3811 107.247 36.2147 107.247 36.0422C106.83 35.8323 106.394 35.6641 105.944 35.54L105.272 35.4291C104.622 35.3243 103.969 35.238 103.316 35.1425C102.444 35.0131 101.575 34.8837 100.715 34.7143C100.162 34.6082 99.626 34.4267 99.1221 34.1751C98.1864 33.6803 97.3768 32.9772 96.7559 32.12C97.6802 31.9505 98.2748 31.7502 98.8818 31.7348C103.901 31.6393 108.643 32.9642 113.086 35.0532C113.829 35.3767 114.524 35.7996 115.153 36.3103C115.29 36.4305 115.416 36.5614 115.532 36.7016Z" fill="#BBBABA"/>
<path d="M111.783 44.2935C111.087 45.4273 110.551 46.2007 110.12 47.0202C107.002 52.8004 103.892 58.5908 100.79 64.3915C99.5237 66.7609 98.3252 69.1703 97.0496 71.5273C96.8463 71.9002 96.3194 72.0943 95.9466 72.3747C95.848 72.2206 95.7555 72.0665 95.6631 71.9156C95.9435 71.4534 96.23 70.9912 96.5874 70.4027C94.0825 69.9098 91.8087 70.3288 89.5194 70.8279C88.3133 71.0768 87.0844 71.1986 85.8529 71.1915C84.4695 71.1915 83.5421 70.5137 83.2124 69.0625C82.9967 68.1166 82.5962 67.2138 82.3065 66.2895C82.1827 65.9673 82.1676 65.6135 82.2634 65.2819C84.223 61.2395 86.2195 57.2095 88.2099 53.1825C88.2917 52.9916 88.4076 52.8172 88.5519 52.6679C88.8415 52.3968 89.1281 52.1256 89.4177 51.8607C90.342 50.9887 91.2849 50.126 92.2215 49.2602C92.3725 49.1185 92.6159 48.9891 92.6498 48.8227C93.0442 46.9062 93.4077 44.9867 93.7744 43.0641C93.8573 42.3864 93.9818 41.7145 94.1472 41.0521L94.5262 39.8967L95.3026 40.1525C95.9188 40.7995 95.9188 40.7995 100.605 40.8457C100.007 41.7238 99.4344 42.5773 98.9137 43.3445L97.5672 45.3318C100.001 45.1319 102.409 44.6849 104.752 43.9977L101.899 48.6193C102.691 48.8658 107.116 46.9925 111.783 44.2935Z" fill="#975A3C"/>
<path d="M107.225 36.0452C107.225 36.2177 107.225 36.3841 107.225 36.5567C104.736 36.8247 102.027 36.4519 99.7382 37.8723C99.5508 37.9877 99.3697 38.1132 99.1959 38.2482L98.6875 37.4779L100.647 35.9373C100.015 35.6292 99.3684 35.2996 98.706 34.9637L99.1065 34.1719C99.6104 34.4236 100.146 34.605 100.699 34.7111C101.559 34.8805 102.428 35.0192 103.3 35.1393C103.953 35.2349 104.606 35.3242 105.256 35.4259L105.907 35.5337C106.362 35.6598 106.804 35.8311 107.225 36.0452Z" fill="#36464E"/>
<path d="M105.133 38.9445C105.133 39.0894 105.133 39.2527 105.155 39.3821C104.196 39.9521 103.192 40.4574 102.289 41.1044C101.386 41.7514 100.49 42.5956 99.5933 43.3505L98.9216 43.3259C99.4423 42.5587 100.015 41.7052 100.613 40.8271C95.9391 40.7809 95.9391 40.7809 95.3105 40.1338L98.6998 37.4749L99.2081 38.2451C99.1188 38.3129 99.0325 38.3838 98.9493 38.4608C98.8661 38.5378 98.7737 38.6118 98.6905 38.695C98.4193 38.9542 98.169 39.2345 97.9418 39.533C98.8014 39.5792 99.3869 39.7148 99.9353 39.6224C101.208 39.4098 102.456 39.0524 103.731 38.8275C104.178 38.7535 104.665 38.8983 105.133 38.9445Z" fill="#36464E"/>
<path d="M99.2119 38.245C99.3858 38.1101 99.5668 37.9846 99.7542 37.8691C99.4734 38.0469 99.2057 38.2446 98.9531 38.4607C99.0363 38.3837 99.1226 38.3128 99.2119 38.245Z" fill="white"/>
<path d="M100.664 35.9433L98.7047 37.4839L95.3155 40.1429L94.5391 39.8871C95.2015 37.8844 95.8917 35.8817 96.5695 33.8975L98.7263 34.9789C99.3856 35.3055 100.033 35.626 100.664 35.9433Z" fill="#975A3C"/>
<path d="M99.1233 34.1781L98.7227 34.9699L96.566 33.8884C95.8881 35.885 95.1979 37.8754 94.5355 39.8781L94.1565 41.0335C93.9912 41.6959 93.8667 42.3678 93.7837 43.0455C93.4263 44.9804 93.0473 46.8876 92.653 48.8041C92.6191 48.9704 92.3757 49.1122 92.2247 49.2416C91.3004 50.1074 90.3544 50.9701 89.4209 51.842L88.8848 51.2689C89.9293 50.2368 90.9953 49.2231 91.9443 48.1108C92.1477 47.8736 91.8488 47.245 91.8611 46.8013C91.8765 46.2776 91.7902 45.6059 92.0737 45.2608C93.3832 43.6463 92.3387 42.0256 92.1877 40.4204C92.123 39.6871 91.7718 38.9815 91.553 38.2636L91.8611 38.0017C91.4482 37.4779 90.7581 36.9911 90.678 36.418C90.5889 35.9082 90.397 35.4218 90.1141 34.9884L90.9861 34.708C91.3712 35.3242 91.8642 35.9682 92.2185 36.5567C92.5728 37.1452 93.0966 37.5303 93.7745 38.2636C94.3907 36.4796 94.9299 34.9576 95.4722 33.4109L93.5619 32.5543C94.1781 32.0921 94.5694 31.5591 95.0069 31.5191C96.2856 31.3958 97.5704 31.2479 98.8521 31.1709L98.8891 31.7563C98.2729 31.7717 97.6782 31.972 96.7631 32.1414C97.3845 32.9912 98.1917 33.6878 99.1233 34.1781Z" fill="#36464E"/>
<path d="M98.6949 38.6951C98.4263 38.9559 98.1771 39.236 97.9492 39.5331C98.1754 39.2347 98.4247 38.9545 98.6949 38.6951Z" fill="white"/>
<path d="M90.5821 79.2022C93.0039 78.7924 94.5876 76.9006 96.9354 77.6802C96.6716 78.0939 96.338 78.4588 95.9494 78.7585C95.3711 79.1808 94.7206 79.494 94.0299 79.6829L93.7711 79.7568C93.6016 79.803 93.4291 79.8493 93.2565 79.8893C91.2969 80.3915 89.2727 80.6688 87.3562 81.2912C82.183 82.9735 77.3796 85.4445 72.6131 88.0696C68.6077 90.2757 64.211 91.7854 59.9621 93.5324C56.885 94.8053 53.5687 95.3971 50.2412 95.2671C46.1341 95.11 42.1502 94.2288 39.8548 90.513C38.5823 88.424 38.0709 85.8081 37.4608 83.371C36.5889 79.9109 36.0466 76.383 36.3547 72.7843C36.3917 72.3591 36.4286 71.9401 36.4687 71.5241C36.4933 71.2468 36.518 70.9726 36.5426 70.7076C36.5796 70.304 36.6197 69.9189 36.6505 69.5491C39.1677 70.1037 41.5186 70.6029 43.8541 71.1729C44.1622 71.2499 44.3902 71.6997 44.6583 71.9709C46.5716 73.912 48.3802 75.9763 50.4477 77.7233C51.2487 78.4011 52.6476 78.623 53.7753 78.6291C59.4291 78.663 64.667 76.9284 69.7261 74.5621C71.0356 73.9459 72.3266 73.2988 73.6237 72.661C73.9428 72.5145 74.229 72.3049 74.4649 72.0448C74.5333 71.9676 74.5942 71.884 74.6467 71.7952C74.727 71.6638 74.7912 71.5231 74.8377 71.3762C74.9725 70.9225 75.001 70.4439 74.9209 69.9774C74.7853 68.9884 74.8993 67.9654 74.9024 66.9579L75.383 66.7268C75.5587 66.9702 75.7374 67.2075 75.9161 67.4478C76.0948 67.6881 76.2735 67.9285 76.4429 68.1719C76.5569 68.3382 76.6648 68.5015 76.7695 68.671C76.8743 68.8405 76.9729 69.0253 77.0776 69.2071C77.2652 69.5496 77.4709 69.8818 77.6939 70.2023C77.7678 70.304 77.8418 70.4026 77.9249 70.5104C78.0529 70.6739 78.1907 70.8292 78.3378 70.9757C78.5104 70.5166 78.8031 70.0513 78.8277 69.5892C78.8739 68.6648 78.6829 67.7405 78.7692 66.8162C78.774 66.7598 78.7843 66.7041 78.8 66.6498C78.8723 66.4024 78.995 66.1727 79.1605 65.975L79.2252 65.9073C79.3153 65.8011 79.4309 65.7195 79.561 65.67C79.7736 65.5991 80.1957 65.8456 80.4853 66.1291C80.5624 66.2051 80.6316 66.2887 80.6918 66.3787C80.8314 66.606 80.9549 66.8428 81.0615 67.0873C81.1689 67.3342 81.2615 67.5873 81.3388 67.8453C81.3912 68.0178 81.4343 68.1934 81.4713 68.3629C82.0536 71.102 83.6281 72.5563 86.4565 72.47C88.1419 72.4207 89.8119 71.9678 91.4941 71.7275C92.4185 71.595 93.3428 71.5241 94.2486 71.4193L94.4335 72.0048C93.3654 72.621 92.2973 73.2485 91.2292 73.8873C90.5698 74.2817 89.8981 74.6668 89.2757 75.1198C89.2161 75.1704 89.1759 75.24 89.1617 75.3169C89.1459 75.3778 89.1335 75.4395 89.1248 75.5018C89.1129 75.5983 89.0954 75.6939 89.0724 75.7884C89.3343 75.8623 89.6516 76.0687 89.8457 75.9825C90.8379 75.548 91.7684 74.9595 92.7759 74.5744C93.9683 74.1184 95.2192 73.8195 96.4424 73.4498C96.5379 73.6593 96.6303 73.8719 96.7289 74.0845C96.3315 74.3926 95.9433 74.7192 95.5365 75.0088C94.2302 75.9332 92.8991 76.8236 91.6174 77.7818C91.2692 78.0314 91.0905 78.4874 90.5821 79.2022Z" fill="#BBBABA"/>
<path d="M94.4026 83.3616C95.9894 84.9823 96.5193 87.059 96.4608 89.339C96.3983 92.0153 95.8933 94.6628 94.9664 97.1742C94.8555 97.4823 94.7354 97.7904 94.609 98.0985C94.4827 98.4067 94.3533 98.7148 94.2177 99.0229C94.0822 99.331 93.9404 99.6206 93.7925 99.9164C93.6446 100.212 93.4844 100.508 93.3365 100.801C93.1886 101.093 93.013 101.38 92.8436 101.67C92.5909 102.101 92.327 102.527 92.0517 102.948C91.7765 103.369 91.4889 103.787 91.189 104.202C90.0305 105.815 88.832 107.398 87.5934 108.953C86.3548 110.508 85.0812 112.034 83.7728 113.532C81.5513 116.064 78.652 117.651 75.0625 118.363C75.9221 116.613 76.8526 114.992 77.5983 113.335C77.7246 113.06 77.8417 112.78 77.9557 112.503C78.0697 112.225 78.1744 111.942 78.2638 111.658C78.31 111.523 78.3593 111.387 78.4147 111.261C78.4932 111.076 78.5816 110.895 78.6797 110.719C78.7403 110.613 78.8062 110.51 78.8769 110.411C79.0104 110.208 79.1587 110.015 79.3206 109.834L79.4408 109.708C79.4808 109.665 79.5239 109.625 79.5671 109.585C80.3651 108.815 81.388 108.352 82.5527 107.856C83.8172 107.344 84.9687 106.588 85.9419 105.632C86.6848 104.892 87.2918 104.028 87.7351 103.078C88.0264 102.449 88.2485 101.791 88.3975 101.115C88.4314 100.945 88.4756 100.777 88.53 100.613C88.6319 100.27 88.7736 99.9399 88.9521 99.6299C89.1083 99.3627 89.2822 99.1064 89.4728 98.8627C89.5714 98.688 89.6271 98.4925 89.6351 98.2921C89.6431 98.0917 89.6034 97.8923 89.519 97.7103C89.3597 97.249 89.1009 96.8283 88.7611 96.4779C88.7411 96.4548 88.7195 96.4332 88.6964 96.4132L88.5731 96.3023C88.5054 96.2445 88.4333 96.1919 88.3575 96.1451C88.3121 96.1135 88.2647 96.0847 88.2157 96.0589C87.9508 95.9233 87.6581 95.837 87.3191 95.7015C87.5656 95.1469 87.8121 94.5861 88.0555 94.0346C89.0415 91.81 90.0151 89.6009 90.9887 87.3856C91.4755 86.2764 91.9685 85.1672 92.4584 84.0549C92.7049 83.5003 92.9483 82.9395 93.1979 82.3818C93.2749 82.4342 93.3489 82.4866 93.4197 82.5421C93.5645 82.6468 93.7063 82.7577 93.8418 82.8687C93.9774 82.9796 94.1037 83.0936 94.227 83.2137L94.4026 83.3616Z" fill="#BBBABA"/>
<path d="M94.2266 83.186L94.4022 83.3617L94.2266 83.186Z" fill="white"/>
<path d="M93.4258 82.5144C93.5706 82.6192 93.7123 82.7301 93.8479 82.841C93.7062 82.7301 93.5644 82.6192 93.4258 82.5144Z" fill="white"/>
<path d="M92.1935 40.4174C92.3445 42.0227 93.389 43.6434 92.0795 45.2579C91.7961 45.606 91.8823 46.2777 91.8669 46.7984C91.8669 47.2421 92.1535 47.8706 91.9501 48.1079C91.0011 49.2202 89.9351 50.2338 88.8906 51.266C88.5239 51.6234 88.0494 51.8822 87.7228 52.2581C86.5205 53.7081 84.8381 54.6788 82.981 54.9941C82.599 55.0589 82.0382 55.216 81.918 55.4933C81.3943 56.6579 80.5778 56.8212 79.6688 56.7504C79.333 56.7257 78.9879 56.6641 78.6367 56.6148C77.5706 56.4546 76.4799 56.3806 75.5956 56.3067C74.8931 52.8528 74.2584 49.5283 73.5344 46.2161C72.4067 41.0522 69.0421 37.3826 65.2493 34.0087C64.4389 33.2908 63.7334 32.4682 62.923 31.7349C61.9371 30.8537 62.1004 30.0156 62.9662 29.2361C67.3629 25.2769 72.5823 23.6562 78.3131 24.9226C80.7358 25.4848 83.025 26.5158 85.0515 27.9575C86.2907 28.8254 87.4553 29.7952 88.5332 30.8568C88.7519 31.0694 89.1247 31.399 89.0724 31.5685C88.6472 32.9704 89.4976 33.944 90.1261 34.9978C90.409 35.4312 90.6009 35.9176 90.6899 36.4274C90.7701 37.0005 91.4602 37.4873 91.8731 38.0111L91.565 38.273C91.7714 38.9786 92.1227 39.6841 92.1935 40.4174Z" fill="white"/>
<path d="M92.0077 81.208C91.829 81.7842 91.7643 82.0769 91.6503 82.3449C90.1467 85.8019 88.6123 89.2435 87.1364 92.7129C86.4124 94.4229 85.6606 96.0281 83.4391 96.0343C83.4052 96.0343 83.3683 96.2007 83.322 96.3424L84.5545 97.6426L81.6305 97.9261C82.1851 98.6039 82.5548 99.0568 83.0663 99.6762L80.8756 100.413C80.9989 101.167 81.3501 101.867 81.1468 102.326C79.5354 106.023 77.9578 109.745 76.0999 113.319C73.5981 118.135 70.7203 122.76 68.2493 127.591C65.8244 132.33 63.5999 137.176 61.4708 142.072C58.9844 147.791 56.6335 153.568 54.2672 159.326L40.6426 150.271C42.8456 143.714 44.913 137.108 48.5549 131.147C51.0567 127.049 52.1998 122.168 55.7492 118.668C55.8632 118.557 55.8139 118.283 55.8509 118.086C55.9464 117.568 55.9526 117.017 56.159 116.545C56.7752 115.186 57.4623 113.865 58.1217 112.54C59.3274 110.075 60.5301 107.61 61.7297 105.145C62.2473 104.088 62.8512 103.605 64.1607 104.19C66.2589 105.114 68.1815 104.024 70.3814 103.367L68.807 101.586H71.8881C71.925 101.423 71.9651 101.26 72.0051 101.097L69.4047 99.1678L73.1636 98.453C71.3674 96.5457 69.8176 94.9066 68.1168 93.1042C68.6313 92.4109 69.0719 91.2124 69.9069 90.7872C75.0113 88.2052 80.1711 85.7342 85.3864 83.374C87.4199 82.4589 89.6383 81.969 92.0077 81.208Z" fill="#975A3C"/>
<path d="M92.458 84.0271C91.9681 85.1394 91.4751 86.2486 90.9883 87.3578C91.4751 86.2486 91.965 85.1384 92.458 84.0271Z" fill="white"/>
<path d="M90.9915 34.6987L90.1195 34.9791C89.5033 33.9254 88.6406 32.9518 89.0658 31.5499C89.1181 31.3804 88.7577 31.0507 88.5266 30.8381C87.4487 29.7765 86.2841 28.8067 85.0449 27.9388L85.5287 27.187C86.53 27.8433 87.516 28.5242 88.4896 29.199C89.645 29.9939 90.9822 30.7395 90.4276 32.8963C90.2951 33.4078 90.5817 34.0394 90.9915 34.6987Z" fill="#36464E"/>
<path d="M89.4688 98.832C89.5674 98.6575 89.6233 98.4621 89.6319 98.2618C89.6404 98.0615 89.6015 97.862 89.5181 97.6797C89.6024 97.8616 89.6422 98.0611 89.6342 98.2614C89.6261 98.4618 89.5705 98.6574 89.4719 98.832C89.2813 99.0758 89.1073 99.3321 88.9512 99.5992C89.1062 99.3321 89.2792 99.0758 89.4688 98.832Z" fill="white"/>
<path d="M88.9514 99.5991C88.7729 99.9092 88.6312 100.239 88.5293 100.582C88.6298 100.239 88.7716 99.9085 88.9514 99.5991Z" fill="white"/>
<path d="M90.9879 87.3579C90.0143 89.5732 89.0406 91.7824 88.0547 94.0069C89.0345 91.7824 90.0112 89.5732 90.9879 87.3579Z" fill="white"/>
<path d="M88.2158 98.1572C88.1327 98.3267 88.0433 98.4962 87.957 98.6656C88.0402 98.4962 88.1265 98.3267 88.2158 98.1572Z" fill="#BBBABA"/>
<path d="M88.215 98.157C88.1257 98.3264 88.0394 98.4959 87.9531 98.6653L85.4297 97.2141C86.4465 96.8167 87.0627 96.8814 87.6327 97.4237C87.6666 97.4545 87.6974 97.4884 87.7313 97.5222C87.8336 97.6344 87.9303 97.7516 88.0209 97.8735C88.0856 97.9752 88.1503 98.0553 88.215 98.157Z" fill="#BBBABA"/>
<path d="M88.0215 97.8738C88.0862 97.9631 88.1509 98.0556 88.2156 98.1572C88.1509 98.0556 88.0862 97.9755 88.0215 97.8738Z" fill="#BBBABA"/>
<path d="M87.7321 97.5231C87.6979 97.489 87.6669 97.4548 87.6328 97.4238C87.6669 97.4548 87.701 97.489 87.7321 97.5231Z" fill="#BBBABA"/>
<path d="M85.5291 27.1868L85.0454 27.9386C83.0188 26.497 80.7296 25.4659 78.307 24.9037C72.5761 23.6435 67.3568 25.2642 62.96 29.2173C62.0942 29.9968 61.9309 30.8348 62.9169 31.716C63.7272 32.437 64.4328 33.272 65.2431 33.9899C69.036 37.3699 72.4005 41.0395 73.5282 46.2126C74.2523 49.5248 74.887 52.8493 75.5895 56.3033C76.4799 56.3926 77.5645 56.4665 78.6305 56.6114C78.9818 56.6607 79.3269 56.7223 79.6627 56.7469L79.5949 57.6374C78.6059 57.5573 77.6199 57.4124 76.6401 57.2584C76.3952 57.2082 76.1425 57.2082 75.8976 57.2584C75.8243 57.2726 75.7529 57.2953 75.685 57.3262C75.5099 57.3966 75.3506 57.5014 75.2167 57.6343C75.1247 57.7227 75.0402 57.8186 74.964 57.9208C74.8808 58.0256 74.7945 58.1488 74.7114 58.2782C74.3293 58.8637 73.9411 59.4614 73.5375 60.0437L72.8843 59.597C73.8579 58.1242 74.015 56.3464 73.7593 54.4946C73.405 51.8849 72.835 49.303 72.2927 46.7241C71.733 44.0232 70.4558 41.523 68.5954 39.4866C66.2198 36.9108 63.8474 34.3103 61.4534 31.7314C60.5537 30.7671 60.6492 29.9074 61.5119 29.0324C61.8967 28.6137 62.3084 28.2205 62.7443 27.8554C65.3294 25.8157 68.0808 24.1088 71.4361 23.5881C71.3025 23.5226 71.1605 23.4759 71.014 23.4494C70.6535 23.4186 70.2869 23.4063 69.9233 23.4094C64.288 23.4464 59.1733 25.3782 54.2343 27.8431C53.7219 28.1272 53.1558 28.3014 52.5722 28.3544C51.9886 28.4075 51.4004 28.3382 50.8451 28.1512C49.0726 27.6057 47.2121 27.4038 45.3638 27.5565L45.293 26.8448L48.6329 26.5121C49.0427 26.4751 49.5264 26.4011 49.8653 26.5768C51.9266 27.6767 53.7629 26.9311 55.5746 25.9605C59.1575 24.0808 63.055 22.8746 67.0733 22.4019C71.6772 21.7568 76.3695 22.4388 80.5993 24.3676C82.309 25.1862 83.9566 26.1284 85.5291 27.1868Z" fill="#36464E"/>
<path d="M81.8326 57.1784C83.1606 55.946 83.1267 55.9275 85.2033 55.7734L84.1434 57.9918L83.6197 59.0918C82.9202 60.5584 82.2178 62.0188 81.506 63.5193L80.9637 64.647C80.6556 64.0924 80.443 63.7227 80.0856 63.0726L79.7159 63.5501C79.0997 64.3389 78.5389 65.0753 77.9504 65.8425C77.7163 66.1506 77.479 66.4587 77.2325 66.7668C77.1247 66.6282 77.0138 66.4803 76.8936 66.3324C76.7211 66.1044 76.5393 65.8641 76.3421 65.6145L75.9508 65.103C75.8799 65.0168 75.8121 64.9274 75.7444 64.838C75.2666 65.1065 74.8358 65.4509 74.4688 65.8579C74.1937 66.1679 73.9766 66.5248 73.8279 66.9116C73.5827 67.59 73.5357 68.3242 73.6923 69.0283C73.8403 69.6334 73.7928 70.2698 73.5568 70.8462C73.5011 70.9663 73.434 71.0809 73.3565 71.1882C73.2777 71.2979 73.1901 71.4009 73.0946 71.4963C72.6928 71.8572 72.2192 72.1291 71.705 72.2943C67.5301 73.801 63.4138 75.5048 59.1711 76.7927C57.2423 77.3751 55.0732 77.1871 53.0089 77.2857C52.541 77.2918 52.08 77.1715 51.6748 76.9375C49.3948 75.6589 47.6416 73.801 45.873 71.6226C47.3489 71.6226 48.5752 71.6011 49.7984 71.638C54.9315 71.8044 59.6086 70.4056 63.8975 67.6172C66.2792 66.0767 68.8273 64.724 71.0087 62.9401C71.9803 62.1006 72.8315 61.1312 73.5383 60.0593C73.9419 59.4769 74.3301 58.8792 74.7122 58.2938C74.7954 58.1644 74.8816 58.0411 74.9648 57.9364C75.0435 57.8361 75.1279 57.7405 75.2175 57.6498C75.3515 57.5169 75.5107 57.4121 75.6858 57.3417C75.7546 57.3132 75.8258 57.2905 75.8984 57.2739C76.1434 57.2237 76.396 57.2237 76.641 57.2739C77.6208 57.428 78.6067 57.582 79.5957 57.6529C79.8391 57.6683 80.0856 57.6837 80.326 57.693C80.8735 57.707 81.408 57.5244 81.8326 57.1784Z" fill="white"/>
<path d="M79.2312 65.8979L79.166 65.9662C79.1862 65.942 79.2079 65.9192 79.2312 65.8979Z" fill="white"/>
<path d="M79.1671 65.9658C79.0017 66.1634 78.8789 66.3932 78.8066 66.6406C78.8777 66.3927 79.0005 66.1627 79.1671 65.9658Z" fill="white"/>
<path d="M76.8926 66.3418C77.0127 66.4897 77.1237 66.6499 77.2315 66.7762C77.1237 66.6376 77.0127 66.4897 76.8926 66.3418Z" fill="white"/>
<path d="M76.3398 65.6238C76.537 65.8733 76.7188 66.1137 76.8914 66.3417C76.7157 66.1137 76.534 65.8733 76.3398 65.6238Z" fill="white"/>
<path d="M75.9492 65.1123L76.3405 65.6238L75.9492 65.1123Z" fill="white"/>
<path d="M75.6836 57.3388C75.7516 57.3079 75.8229 57.2852 75.8962 57.271C75.8235 57.2876 75.7524 57.3102 75.6836 57.3388Z" fill="white"/>
<path d="M75.2155 57.6592C75.1259 57.7498 75.0416 57.8455 74.9629 57.9457C75.0391 57.8434 75.1236 57.7476 75.2155 57.6592Z" fill="white"/>
<path d="M74.9211 69.9711C75.0012 70.4376 74.9727 70.9163 74.8379 71.37C74.9681 70.9154 74.9954 70.4376 74.918 69.9711C74.7824 68.9821 74.8964 67.9592 74.8995 66.9517C74.8995 67.9592 74.7855 68.9821 74.9211 69.9711Z" fill="white"/>
<path d="M74.6466 71.7861C74.5941 71.8749 74.5333 71.9585 74.4648 72.0357C74.5335 71.9587 74.5944 71.8751 74.6466 71.7861Z" fill="white"/>
<path d="M73.7589 54.5318C74.0146 56.3804 73.8575 58.1613 72.8839 59.6341C72.4838 60.2323 71.9798 60.7541 71.3957 61.1746C65.0086 65.8302 58.6245 70.5042 50.17 70.3779C45.7732 70.3132 41.2656 70.3964 37.4111 67.913C31.4954 64.1325 26.9754 59.061 25.8631 51.9436C25.4472 49.297 26.3191 46.3052 27.1356 43.6246C29.2277 36.7692 33.8401 31.8702 40.2581 28.9155C41.871 28.1663 43.6035 27.7074 45.3758 27.5598C47.2241 27.407 49.0845 27.6089 50.8571 28.1544C51.4124 28.3415 52.0006 28.4107 52.5841 28.3576C53.1677 28.3046 53.7338 28.1304 54.2463 27.8463C59.176 25.3814 64.2999 23.4496 69.9353 23.4126C70.2988 23.4126 70.6655 23.4126 71.026 23.4527C71.1724 23.4792 71.3145 23.5258 71.4481 23.5913C68.0928 24.112 65.3413 25.8189 62.7563 27.8586C62.3203 28.2238 61.9086 28.6169 61.5238 29.0356C60.6611 29.9106 60.5656 30.7703 61.4653 31.7347C63.8655 34.3012 66.2318 36.9017 68.5919 39.5021C70.4523 41.5385 71.7296 44.0387 72.2892 46.7396C72.8377 49.3278 73.3984 51.9097 73.7589 54.5318ZM59.1421 44.5428C59.1822 44.361 58.8741 43.9512 58.6523 43.8927C58.2025 43.7843 57.7366 43.7603 57.2781 43.8218C54.1323 44.1854 51.5626 45.803 49.0916 47.6147C48.7835 47.8488 48.6417 48.3326 48.423 48.7023L48.7311 49.0381C49.059 48.9897 49.3785 48.8953 49.6801 48.7578C52.413 47.0508 54.9796 44.9372 58.5321 45.273C58.7293 45.2884 59.0805 44.8294 59.1421 44.5428ZM48.1334 59.7974C48.4415 59.6864 48.5955 59.1411 48.8204 58.7929C48.4538 58.7344 48.0717 58.5742 47.7205 58.6296C46.7715 58.7683 45.8379 59.0024 44.7226 59.2458C44.9044 58.682 44.9968 58.3492 45.117 58.0134C46.3925 54.5009 46.3864 50.896 45.6623 47.3127C45.234 45.1898 43.752 43.979 41.5306 43.714C39.7281 43.5045 38.8099 44.6722 37.9133 45.9047C37.6453 46.2775 37.4173 46.6749 37.368 46.755C35.1157 46.3422 33.0544 45.9139 30.9993 45.6458C30.5711 45.5965 30.035 46.108 29.5481 46.3637C29.9813 46.6019 30.4363 46.7979 30.9069 46.9492C32.4475 47.3127 34.0311 47.5407 35.5594 47.9628C36.3358 48.1785 36.7456 48.7115 36.5084 49.7406C35.7535 53.0559 35.7658 56.3743 37.0938 59.7974C36.4406 59.4893 35.9753 59.1442 35.4577 59.0209C35.128 58.9408 34.7275 59.1627 34.3577 59.252C34.521 59.5786 34.6042 60.1055 34.8507 60.1948C36.0952 60.6309 37.3611 61.0032 38.6436 61.3102C41.1269 61.9018 43.3915 60.7864 45.7301 60.2965C46.5373 60.1332 47.3754 60.0777 48.1334 59.7974ZM44.2943 63.695C44.6671 63.658 44.9814 63.0418 45.4867 62.5241C43.37 62.5241 41.7524 62.4841 40.1348 62.5241C39.7897 62.5241 39.4446 62.7984 39.1026 62.9462C39.3152 63.2544 39.5278 63.812 39.7497 63.8182C41.2687 63.8731 42.7897 63.832 44.3035 63.695H44.2943Z" fill="#BBBABA"/>
<path d="M69.7921 96.4348C69.9324 96.6551 69.9862 96.9197 69.943 97.1773C69.9361 97.299 69.8932 97.4159 69.8198 97.5132C69.7261 97.5895 69.6224 97.6527 69.5117 97.7011C69.3761 97.7762 69.2266 97.8226 69.0723 97.8374C68.9181 97.8522 68.7625 97.8352 68.6151 97.7874C67.3952 97.0228 66.2204 96.1885 65.0965 95.2886C65.0231 95.2199 64.9645 95.1372 64.9239 95.0452C64.8374 94.872 64.7921 94.6812 64.7914 94.4875C64.7883 94.4455 64.7883 94.4033 64.7914 94.3612C64.7976 94.3252 64.8079 94.2901 64.8222 94.2565C64.9486 93.9761 65.4385 93.8682 66.0732 93.5139C67.3395 94.4968 68.6058 95.4242 69.7921 96.4348Z" fill="#BBBABA"/>
<path d="M68.7059 100.527L68.444 100.484C68.2653 100.45 68.0958 100.413 67.9264 100.373C67.5786 100.29 67.236 100.187 66.9004 100.065C66.7186 99.9967 66.5399 99.9259 66.3704 99.8458L66.0962 99.7163C65.9853 99.6609 65.8774 99.6023 65.7881 99.5407C65.3539 99.2996 64.9556 98.9989 64.6049 98.6472L64.5402 98.5794C64.4786 98.5163 64.421 98.4494 64.3677 98.3791C64.2955 98.2918 64.2286 98.2003 64.1674 98.1049C63.958 97.8218 63.8347 97.4844 63.8123 97.133C63.7899 96.7816 63.8693 96.4312 64.0411 96.1238C64.1274 96.2193 64.2167 96.3117 64.3091 96.398C65.2889 97.3223 66.5429 97.9663 67.5659 98.9738L67.7138 99.1217C68.1118 99.5386 68.4462 100.012 68.7059 100.527Z" fill="#BBBABA"/>
<path d="M65.9297 101.057C66.4196 101.503 66.6107 102.289 66.9373 102.905C66.2684 103.091 65.5881 103.233 64.9006 103.33C64.5925 103.358 64.2413 103.078 63.9116 102.933C61.6809 101.95 61.5792 101.084 63.471 99.5129C64.3121 100.012 65.2334 100.406 65.9297 101.057Z" fill="#BBBABA"/>
<path d="M64.9316 95.0576C64.9722 95.1495 65.0309 95.2323 65.1042 95.301C65.0302 95.2329 64.9714 95.15 64.9316 95.0576Z" fill="white"/>
<path d="M64.8396 94.2781C64.8252 94.3119 64.8148 94.3473 64.8086 94.3835C64.8152 94.3474 64.8256 94.312 64.8396 94.2781Z" fill="white"/>
<path d="M64.8095 94.3738C64.8057 94.4158 64.8057 94.4581 64.8095 94.5001C64.8057 94.4581 64.8057 94.4158 64.8095 94.3738Z" fill="white"/>
<path d="M64.5273 98.5732L64.5925 98.6415L64.5273 98.5732Z" fill="white"/>
<path d="M64.1543 98.0986C64.2155 98.194 64.2824 98.2855 64.3546 98.3729C64.2804 98.2871 64.2134 98.1954 64.1543 98.0986Z" fill="white"/>
<path d="M64.0255 96.127C63.8537 96.4343 63.7743 96.7847 63.7967 97.1361C63.8191 97.4875 63.9424 97.825 64.1518 98.1081C63.9445 97.8241 63.8225 97.4868 63.8001 97.1359C63.7778 96.785 63.8559 96.435 64.0255 96.127Z" fill="white"/>
<path d="M63.3972 93.7942C63.2832 93.8558 63.1723 93.9236 63.0645 93.9914C63.1723 93.9267 63.2832 93.8589 63.3972 93.7942Z" fill="white"/>
<path d="M63.0647 93.9946C63.1725 93.9268 63.2834 93.859 63.3974 93.7974C63.2962 94.3935 63.0659 94.9603 62.7226 95.4581L62.6117 95.6522C62.5717 95.7169 62.5347 95.7847 62.5008 95.8494C62.4135 96.0104 62.3374 96.1771 62.2728 96.3485C62.2345 96.4491 62.2026 96.552 62.1773 96.6566C62.087 97.0256 62.1151 97.4136 62.2574 97.7658C62.321 97.9213 62.3983 98.0708 62.4885 98.2126C62.5501 98.3081 62.3375 98.5608 62.1126 98.8288C62.0479 98.9089 61.977 98.9952 61.9185 99.0784C61.8774 99.1316 61.8393 99.1872 61.8045 99.2448C61.7695 99.2951 61.7395 99.3487 61.7151 99.405C61.3916 100.12 60.7908 100.979 60.9448 101.599C60.9695 101.691 60.9911 101.784 61.0095 101.876C61.0443 102.041 61.066 102.209 61.0743 102.378C61.2376 104.661 59.278 106.109 58.8312 108.383C58.7326 108.22 58.6433 108.057 58.5601 107.887C58.3179 107.377 58.128 106.843 57.9931 106.294C57.1243 102.773 58.3475 98.305 61.256 95.4334C61.8023 94.8866 62.4091 94.4039 63.0647 93.9946Z" fill="#BBBABA"/>
<path d="M58.8589 95.107C59.1089 95.0662 59.3638 95.0662 59.6138 95.107C56.5327 99.1957 55.4358 103.666 56.505 106.815C56.7949 107.704 57.2948 108.509 57.9623 109.163C58.0425 109.246 58.1318 109.323 58.2212 109.4C57.5803 110.676 56.9302 111.955 56.2831 113.236C55.6361 114.518 54.986 115.812 54.342 117.1C54.232 117.338 54.0784 117.553 53.8891 117.735C53.2113 118.351 52.3332 118.027 51.5629 117.645C48.9255 116.333 46.3866 114.82 43.74 113.535C39.1655 111.354 35.5687 107.545 33.6524 102.853C33.5323 102.573 33.4275 102.283 33.3443 101.99C33.1964 101.553 33.0732 101.106 32.9653 100.647C32.8575 100.188 32.7712 99.7225 32.6973 99.2511C32.5125 98.0005 32.4003 96.7403 32.3614 95.4768L32.3152 94.1396C32.2528 92.5324 32.3218 90.9228 32.5217 89.3269C32.5648 89.0372 32.611 88.7476 32.6696 88.458C32.8906 87.2647 33.2645 86.1049 33.7818 85.0072C34.2194 84.0982 34.9095 83.3156 35.7383 82.0894C35.7907 82.305 35.8462 82.5145 35.8986 82.721C36.028 83.2263 36.1574 83.7008 36.2775 84.1475C36.3484 84.4156 36.4162 84.6775 36.4809 84.9363C36.5672 85.2752 36.6442 85.608 36.7089 85.9407C36.7397 86.1071 36.7705 86.2704 36.7982 86.4368C36.8352 86.6617 36.8753 86.8836 36.9246 87.0992C37.1146 88.0255 37.4156 88.9256 37.8212 89.7798C37.9054 89.9585 37.9947 90.1341 38.0892 90.3067C38.2772 90.6487 38.4805 90.9783 38.7054 91.2926C38.8687 91.5299 39.0382 91.7517 39.2169 91.9705C39.3371 92.1153 39.4572 92.257 39.5836 92.3956C39.7099 92.5343 39.8362 92.6668 39.9687 92.7931C42.5907 95.3997 46.399 96.5274 50.087 96.5736C53.0634 96.6075 56.0551 96.3888 58.8589 95.107Z" fill="#BBBABA"/>
<path d="M58.6517 43.8926C58.8735 43.9512 59.1816 44.361 59.1416 44.5428C59.0799 44.8293 58.7287 45.2915 58.5407 45.273C54.9882 44.9371 52.4217 47.0508 49.6887 48.7577C49.3871 48.8952 49.0677 48.9896 48.7398 49.0381L48.4316 48.7022C48.6504 48.3325 48.7829 47.8488 49.1002 47.6146C51.5651 45.8029 54.1409 44.1853 57.2867 43.8218C57.7422 43.7614 58.2049 43.7854 58.6517 43.8926Z" fill="#36464E"/>
<path d="M61.24 95.4275C58.3314 98.2991 57.1082 102.767 57.9925 106.295C57.1052 102.764 58.3314 98.2837 61.24 95.4275Z" fill="white"/>
<path d="M48.8293 58.793C48.6043 59.1412 48.4503 59.6866 48.1422 59.7975C47.375 60.0686 46.5369 60.1333 45.7327 60.2997C43.3911 60.7896 41.1265 61.905 38.6462 61.3134C37.3637 61.0054 36.0978 60.6321 34.8534 60.1949C34.6069 60.1056 34.5237 59.5787 34.3604 59.2521C34.7301 59.1628 35.1307 58.944 35.4603 59.021C35.978 59.1443 36.4432 59.474 37.0964 59.7975C35.7684 56.3744 35.7561 53.056 36.511 49.7408C36.7482 48.7117 36.3385 48.1786 35.562 47.963C34.0215 47.5409 32.4532 47.3128 30.9095 46.9493C30.4389 46.7981 29.9839 46.602 29.5508 46.3639C30.0376 46.1081 30.5583 45.5813 31.002 45.6398C33.0725 45.9079 35.1183 46.3361 37.3706 46.749C37.4199 46.6689 37.6479 46.2714 37.916 45.8986C38.8126 44.6662 39.7308 43.5046 41.5424 43.7172C43.7639 43.9822 45.2398 45.1931 45.6742 47.3159C46.3983 50.8993 46.4044 54.5041 45.1288 58.0166C45.0087 58.3432 44.9163 58.676 44.7345 59.249C45.8498 59.0118 46.7834 58.7776 47.7324 58.6328C48.0805 58.5743 48.4626 58.7345 48.8293 58.793ZM43.7793 57.7085C44.3586 55.6965 44.6759 53.6045 45.1042 51.5463L44.753 51.4847C44.753 51.2659 44.753 51.041 44.753 50.8161C44.753 50.7051 44.753 50.5911 44.753 50.4771C44.7706 50.0926 44.7572 49.7072 44.7129 49.3248C44.6852 49.1215 44.6544 48.915 44.6205 48.7086C44.5709 48.3973 44.505 48.0887 44.4233 47.7843C44.3415 47.4876 44.2386 47.1973 44.1152 46.9154C43.5667 45.646 42.5746 44.7956 41.1234 44.848C40.7205 44.8517 40.3231 44.9413 39.9575 45.1108C39.592 45.2803 39.2668 45.5258 39.0036 45.8308C38.6926 46.2171 38.4612 46.6611 38.3227 47.1372C38.0352 47.9886 37.8056 48.8584 37.6356 49.7408C37.6356 49.7808 37.6202 49.8239 37.611 49.864C37.5709 50.0797 37.5339 50.3015 37.5031 50.5234C37.494 50.5566 37.4878 50.5907 37.4846 50.625C37.4538 50.8346 37.4261 51.0471 37.4045 51.2628C37.2301 52.8339 37.2529 54.4207 37.4723 55.9862C37.5154 56.2943 37.5647 56.6024 37.6202 56.9105C37.6387 57.0152 37.6633 57.1138 37.688 57.2186C37.8096 57.7065 38.0072 58.1723 38.2734 58.5989C38.4293 58.8465 38.6111 59.0768 38.8157 59.286C39.2504 59.7559 39.8254 60.0725 40.4548 60.1888C40.8768 60.2414 41.3053 60.1962 41.707 60.0568C42.1088 59.9173 42.4731 59.6874 42.7718 59.3846C43.1038 59.0661 43.3724 58.6877 43.5636 58.2693C43.648 58.0874 43.7201 57.9 43.7793 57.7085Z" fill="#36464E"/>
<path d="M45.104 51.5491C44.6757 53.6042 44.3583 55.6963 43.7791 57.7113C43.7229 57.9026 43.6539 58.09 43.5727 58.2721C43.3799 58.6896 43.1114 59.0678 42.7808 59.3875C42.4821 59.6902 42.1178 59.9202 41.7161 60.0596C41.3143 60.1991 40.8858 60.2442 40.4638 60.1916C39.8344 60.0754 39.2594 59.7587 38.8247 59.2889C38.6182 59.0779 38.4334 58.8467 38.2732 58.5987C38.0025 58.1689 37.8018 57.6988 37.6785 57.206C37.6539 57.1074 37.6323 57.0088 37.6138 56.8979C37.5553 56.5898 37.506 56.2817 37.4628 55.9736C37.2434 54.4081 37.2206 52.8214 37.395 51.2503C37.4166 51.0377 37.4443 50.822 37.4752 50.6125C37.4822 50.583 37.4914 50.5542 37.5029 50.5262C37.5337 50.3044 37.5707 50.0856 37.6107 49.8668C37.6107 49.8268 37.6261 49.7837 37.6354 49.7436C37.8078 48.8605 38.0383 47.9897 38.3255 47.137C38.4784 46.6646 38.7212 46.2263 39.0404 45.846C39.3035 45.5409 39.6287 45.2955 39.9943 45.126C40.3598 44.9565 40.7573 44.8669 41.1602 44.8631C42.599 44.8108 43.6035 45.6611 44.1519 46.9306C44.2753 47.2124 44.3783 47.5028 44.46 47.7994C44.5401 48.1075 44.6018 48.4156 44.6572 48.7238C44.6911 48.924 44.7219 49.1305 44.7496 49.34C44.7924 49.7225 44.8058 50.1077 44.7897 50.4923C44.7897 50.6063 44.7897 50.7203 44.7897 50.8312C44.7897 51.0561 44.7897 51.2811 44.7897 51.4998L45.104 51.5491Z" fill="#36464E"/>
<path d="M45.4954 62.5243C44.9901 63.042 44.6758 63.6582 44.303 63.6952C42.7923 63.8328 41.2744 63.875 39.7584 63.8215C39.5365 63.8215 39.3239 63.2515 39.1113 62.9495C39.4533 62.8016 39.7984 62.5367 40.1435 62.5274C41.7611 62.4843 43.3787 62.5182 45.4954 62.5243Z" fill="#36464E"/>
<path d="M38.2734 58.5989C38.4309 58.8454 38.6126 59.0755 38.8157 59.286C38.6111 59.0768 38.4294 58.8465 38.2734 58.5989Z" fill="white"/>
<path d="M39.0397 45.8523C38.7212 46.2307 38.4786 46.6669 38.3249 47.1371C38.0378 47.9888 37.8073 48.8586 37.6348 49.7406C37.8048 48.8583 38.0343 47.9885 38.3219 47.1371C38.4741 46.6657 38.7181 46.229 39.0397 45.8523Z" fill="white"/>
<path d="M37.6236 56.9043C37.6421 57.0091 37.6637 57.1077 37.6883 57.2124C37.6637 57.1138 37.639 57.0152 37.6205 56.9043C37.5651 56.5962 37.5158 56.2881 37.4727 55.98C37.5158 56.2973 37.5651 56.5993 37.6236 56.9043Z" fill="white"/>
<path d="M37.6117 49.8701C37.5717 50.0889 37.5347 50.3076 37.5039 50.5295C37.5347 50.3076 37.5717 50.0858 37.6117 49.8701Z" fill="white"/>
<path d="M37.4844 50.6311C37.4536 50.8406 37.4259 51.0563 37.4043 51.2689C37.4259 51.0532 37.4536 50.8345 37.4844 50.6311Z" fill="white"/>
<path d="M38.0055 28.5613L33.1866 32.0953C32.4164 30.7243 31.9141 29.8523 31.338 29.1837C31.2425 29.0728 31.1439 28.968 31.0299 28.8756C30.1363 27.9697 28.9686 27.4151 26.4082 26.2382C29.5633 23.8811 36.7053 25.3231 38.0055 28.5613Z" fill="#BBBABA"/>
<path d="M36.6469 69.5491C36.6161 69.9188 36.576 70.3039 36.5391 70.7076C36.576 70.3039 36.613 69.9188 36.6469 69.5491Z" fill="white"/>
<path d="M36.5427 70.7075C36.518 70.9725 36.4934 71.2467 36.4688 71.524C36.4903 71.2467 36.515 70.9725 36.5427 70.7075Z" fill="white"/>
<path d="M32.6498 88.4517C32.5913 88.7413 32.5451 89.0309 32.502 89.3205C32.543 89.0309 32.5923 88.7413 32.6498 88.4517Z" fill="white"/>
<path d="M32.3431 95.4768C32.382 96.7404 32.4941 98.0006 32.6789 99.2512C32.4919 98.0008 32.3787 96.7405 32.34 95.4768C32.34 95.0332 32.3092 94.5864 32.2969 94.1396L32.3431 95.4768Z" fill="white"/>
<path d="M32.5019 89.3206C32.302 90.9165 32.233 92.5261 32.2954 94.1332C32.2299 92.5261 32.2989 90.9162 32.5019 89.3206Z" fill="white"/>
<path d="M31.7263 32.4096C31.7493 32.5303 31.7566 32.6536 31.7478 32.7762C31.745 32.8393 31.7378 32.9021 31.7263 32.9642C31.7095 33.0926 31.6817 33.2194 31.6431 33.3431C31.6283 33.3978 31.6098 33.4513 31.5876 33.5034C31.5537 33.5835 31.5198 33.6605 31.4828 33.7314C31.4604 33.7773 31.4346 33.8216 31.4058 33.8638L31.3319 33.9686C31.3141 33.9936 31.2945 34.0173 31.2733 34.0395L31.2487 34.0672C29.1167 36.3849 27.4541 39.0938 26.3528 42.0442C26.1269 42.6275 25.9215 43.2191 25.7366 43.8189C25.3514 45.0174 25.0279 46.2591 24.7476 47.5162C24.6023 48.1527 24.4994 48.798 24.4394 49.4481C24.4086 49.7161 24.4086 49.9626 24.4086 50.2183C24.3634 51.7716 24.5843 53.3212 25.0618 54.8C25.1358 55.0403 25.2159 55.2775 25.3022 55.5117C25.5171 56.1039 25.7618 56.685 26.0355 57.2525C26.778 58.8177 26.473 59.0858 24.7445 59.4986C23.2039 59.8684 22.067 58.8824 20.7668 58.7407C18.6839 58.4942 17.926 56.2203 15.9202 56.0416C15.7168 56.0231 15.5412 55.524 15.381 55.2344C15.3132 55.1173 15.2485 55.0002 15.1869 54.8801C14.9989 54.5257 14.8202 54.1652 14.6323 53.8048C14.6323 53.7493 14.6323 53.6938 14.6477 53.6353C14.2224 53.0864 13.8324 52.5112 13.48 51.913C13.1934 51.3676 12.8637 50.8253 12.5402 50.28C12.0344 49.5088 11.6713 48.653 11.468 47.7535C11.4536 47.6569 11.4413 47.5614 11.431 47.4669C11.3232 46.216 11.2924 45.3101 10.2725 44.5029C10.0353 44.3088 10.1462 43.5447 10.2725 43.0763C10.3932 42.6666 10.5596 42.2718 10.7686 41.8994C10.8394 41.7638 10.9072 41.6251 10.9719 41.4803L9.71484 40.4328C9.9449 40.0219 10.175 39.6029 10.405 39.1757C11.2523 37.6351 12.0904 36.0946 12.95 34.554L12.5587 34.5047L11.7576 34.4431L10.7655 34.3661C11.8716 33.337 12.5649 32.3202 13.5385 31.8611C15.6244 30.8628 17.7442 29.9385 19.864 29.0265L22.4152 27.9358L23.6877 27.3874C25.4531 26.6202 28.2662 27.9081 30.0717 29.6889L30.2843 29.9046C30.983 30.5936 31.4814 31.4594 31.7263 32.4096Z" fill="white"/>
<path d="M31.2734 34.0399C31.2947 34.0175 31.3144 33.9936 31.3324 33.9685L31.2734 34.0399Z" fill="white"/>
<path d="M31.3511 29.1836C31.2556 29.0727 31.157 28.971 31.043 28.8755C31.157 28.9587 31.2556 29.0727 31.3511 29.1836Z" fill="white"/>
<path d="M19.8496 29.0297L22.4008 27.939L19.8496 29.0297Z" fill="white"/>
<path d="M14.6242 53.7923C14.8121 54.1528 14.9908 54.5132 15.1788 54.8676C14.9877 54.5132 14.809 54.1528 14.6211 53.7923C14.6211 53.7368 14.6211 53.6813 14.6396 53.6228C14.6334 53.6813 14.6303 53.7368 14.6242 53.7923Z" fill="white"/>
<path d="M13.12 31.0571L13.5236 31.8644C12.5654 32.3235 11.8721 33.3402 10.766 34.3693L11.7581 34.4463L12.5592 34.508L12.9505 34.5388C12.0909 36.1009 11.2528 37.6199 10.4055 39.1604L9.72768 38.8184C9.73688 38.7936 9.73688 38.7663 9.72768 38.7414C9.00362 37.2132 10.4055 36.5877 11.1265 35.5987C10.6335 35.2906 10.2022 35.0379 9.36719 34.5141C10.6489 33.2817 11.6164 31.8089 12.9813 31.1249L13.12 31.0571Z" fill="#36464E"/>
<path d="M12.5317 50.2676L12.3746 49.9934C11.9466 49.3041 11.6402 48.5464 11.4688 47.7534C11.6706 48.6481 12.0306 49.4995 12.5317 50.2676Z" fill="white"/>
<path d="M11.4676 47.7536C11.6366 48.5415 11.9387 49.2949 12.3611 49.9812L11.6216 50.0767C11.5618 49.9162 11.467 49.771 11.3443 49.6515C10.2413 48.6902 9.85614 47.5625 10.4446 46.2377C8.445 44.5739 8.43883 44.5431 9.68976 41.8995C8.38646 41.1816 8.43267 40.248 9.40322 39.2312C9.53326 39.1125 9.6426 38.973 9.72674 38.8184L10.4046 39.1912C10.1766 39.6102 9.94241 40.0292 9.71133 40.4483L10.9653 41.4989C10.9006 41.6437 10.8329 41.7824 10.7651 41.9179C10.5554 42.2933 10.389 42.6913 10.269 43.1042C10.155 43.5725 10.0441 44.3366 10.269 44.5307C11.2889 45.3411 11.3197 46.2438 11.4275 47.4948C11.4542 47.581 11.4676 47.6673 11.4676 47.7536Z" fill="#36464E"/>
<path d="M10.969 41.4834C10.9043 41.6282 10.8365 41.7669 10.7656 41.9024C10.8519 41.7669 10.9043 41.6282 10.969 41.4834Z" fill="white"/>
<path d="M10.405 39.1758C10.177 39.5866 9.94695 40.0056 9.71484 40.4329C9.94285 40.0138 10.177 39.5948 10.405 39.1758Z" fill="white"/>
<path d="M59.8339 54.2274C62.4266 54.1179 64.4858 53.0216 64.4333 51.7788C64.3808 50.536 62.2364 49.6173 59.6437 49.7269C57.051 49.8365 54.9918 50.9328 55.0443 52.1756C55.0968 53.4184 57.2412 54.337 59.8339 54.2274Z" fill="#EF8AA1"/>
<path d="M57.8612 49.6021L55.9355 54.1498" stroke="#EA5971" stroke-miterlimit="10" stroke-linecap="round"/>
<path d="M60.8158 49.5127L58.6621 54.4455" stroke="#EA5971" stroke-miterlimit="10" stroke-linecap="round"/>
<path d="M63.9032 49.9226L61.9375 54.1653" stroke="#EA5971" stroke-miterlimit="10" stroke-linecap="round"/>
<path d="M33.9957 51.7383C34.1156 50.8547 32.7461 49.9393 30.9369 49.6937C29.1276 49.4482 27.5637 49.9653 27.4437 50.8489C27.3238 51.7325 28.6933 52.6478 30.5025 52.8934C32.3118 53.139 33.8758 52.6218 33.9957 51.7383Z" fill="#EF8AA1"/>
<path d="M29.7208 49.3862L27.8105 52.3503" stroke="#EA5971" stroke-miterlimit="10" stroke-linecap="round"/>
<path d="M31.7788 49.6914L29.6621 52.8988" stroke="#EA5971" stroke-miterlimit="10" stroke-linecap="round"/>
<path d="M33.8659 50.3662L31.9648 53.1115" stroke="#EA5971" stroke-miterlimit="10" stroke-linecap="round"/>
</svg>
