<svg width="696" height="444" viewBox="0 0 696 444" fill="none" xmlns="http://www.w3.org/2000/svg">
<mask id="mask0" mask-type="alpha" maskUnits="userSpaceOnUse" x="0" y="0" width="696" height="444">
<rect width="696" height="444" fill="#C4C4C4"/>
</mask>
<g mask="url(#mask0)">
<path d="M532.557 243.997C533.317 244.323 533.426 245.029 533.263 245.789C533.1 246.604 532.775 247.093 531.906 247.147C530.169 247.202 528.378 247.473 526.641 247.31C521.375 246.876 516.164 246.007 511.116 244.431C505.145 242.639 499.011 241.172 493.149 239C487.775 237.044 482.401 234.926 477.733 231.341C475.29 229.44 472.576 227.974 470.079 226.127C468.342 224.823 466.713 223.357 465.248 221.782C461.936 218.251 458.734 214.612 455.477 211.027C453.251 208.583 450.971 206.193 448.746 203.749C447.606 202.499 446.575 201.141 445.38 200.001C443.752 198.371 441.961 196.851 440.224 195.33C440.115 195.221 440.006 195.112 439.898 195.058C437.347 193.754 435.501 191.473 433.004 190.061C431.918 189.464 430.724 188.92 429.584 188.432C425.839 186.856 422.093 185.227 418.239 183.869C416.339 183.217 414.222 183.217 412.268 182.674C408.034 181.479 403.692 180.501 399.295 180.067C395.495 179.687 392.021 178.057 388.33 177.242C385.073 176.482 381.762 175.776 378.505 175.015C377.528 174.798 376.605 174.581 375.628 174.255C371.231 172.897 366.671 172.571 362.112 172.68C357.498 172.788 352.992 172.245 348.433 171.594C345.718 171.159 343.004 171.105 340.236 170.887C338.825 170.779 337.413 170.724 336.002 170.562C332.854 170.127 329.705 170.073 326.611 170.887C324.82 171.376 322.92 171.594 321.074 171.919C321.074 171.974 321.129 172.028 321.129 172.137C324.494 172.354 327.86 172.68 331.225 172.843C332.854 172.951 334.428 172.843 336.056 172.843C342.082 172.788 347.944 173.712 353.861 174.852C357.715 175.613 361.677 175.83 365.531 176.482C370.525 177.351 375.465 178.383 380.405 179.361C381.925 179.632 383.444 179.904 384.964 180.013C388.601 180.284 392.021 181.316 395.441 182.294C399.458 183.489 403.529 184.521 407.6 185.661C407.926 185.77 408.306 185.824 408.577 185.987C412.16 187.562 415.797 189.083 419.325 190.767C421.333 191.745 423.179 192.994 425.405 194.243C425.622 193.863 425.947 193.32 426.273 192.777C426.87 191.582 427.576 191.256 428.77 191.962C429.53 192.397 430.344 192.94 430.887 193.646C432.19 195.33 431.701 197.122 429.801 198.208C429.259 198.534 428.716 198.86 428.281 199.295C426.327 201.196 424.59 203.368 422.419 204.998C421.008 206.084 419.651 207.659 417.588 207.659C415.525 209.343 412.92 209.017 410.531 209.452C408.848 209.778 407.057 209.723 405.32 209.886C402.66 210.104 400.055 210.43 397.395 210.647C396.418 210.701 395.441 210.592 394.464 210.538C390.555 210.375 386.701 211.081 382.847 211.624C380.839 211.896 378.776 211.57 376.768 211.787C373.619 212.168 370.525 211.516 367.377 211.896C362.926 212.385 358.366 212.222 353.915 212.548C351.364 212.765 348.921 212.331 346.424 212.113C345.176 212.005 343.927 212.168 342.679 212.059C341.43 211.95 340.182 211.896 338.987 211.57C336.925 211.027 334.862 210.592 332.691 210.43C329.162 210.158 325.634 209.778 322.214 208.691C320.694 208.203 319.066 208.311 317.437 208.094C314.723 207.714 312.009 207.388 309.295 206.953C306.852 206.519 304.355 206.084 301.913 205.541C298.222 204.726 294.585 203.803 290.948 202.825C286.551 201.63 282.154 200.49 277.812 199.023C274.717 197.991 271.678 196.633 268.746 195.112C264.947 193.157 263.698 189.301 262.667 185.444C262.558 184.955 262.83 184.358 262.993 183.815C263.101 183.38 263.264 183 263.372 182.62C263.427 182.511 263.318 182.348 263.264 182.185C262.178 181.859 261.201 182.348 260.278 182.783C257.021 184.303 253.765 185.77 250.616 187.454C249.259 188.16 248.173 189.355 246.979 190.333C246.708 190.55 246.491 190.876 246.219 191.093C240.791 194.569 236.34 199.132 231.617 203.368C228.469 206.193 225.429 209.126 222.335 211.95C220.978 213.145 219.458 214.177 218.101 215.427C215.496 217.817 212.347 219.392 209.525 221.401C207.028 223.194 204.096 224.009 201.274 224.986C199.428 225.584 197.583 226.29 195.411 227.43C195.683 227.485 195.954 227.539 196.226 227.648C201.762 230.364 206.051 234.6 210.285 238.945C211.533 240.195 212.782 241.39 214.084 242.585C215.007 243.399 216.69 243.074 217.341 241.987C219.404 238.674 221.358 235.252 223.475 231.993C224.452 230.472 225.755 229.169 226.949 227.756C229.772 224.28 232.757 220.967 235.037 217.056C235.851 215.698 237.154 214.612 238.348 213.526C239.543 212.439 241.822 212.385 243.071 213.363C243.397 213.634 243.668 214.123 243.722 214.558C244.319 218.251 244.754 221.945 245.459 225.584C246.002 228.245 245.785 231.07 247.251 233.84C248.662 232.156 249.965 230.526 251.376 229.006C253.819 226.398 256.424 223.954 258.813 221.293C260.224 219.663 261.31 217.762 262.558 215.97C263.047 215.264 263.481 214.558 264.078 213.96C265.815 212.222 268.475 212.982 269.126 215.372C269.289 215.915 269.398 216.459 269.398 217.056C269.289 222.216 269.126 227.376 269.018 232.536C269.018 233.785 269.235 235.035 269.289 236.284C269.344 237.044 269.126 237.805 269.126 238.565C269.181 241.444 269.289 244.323 269.344 247.202C269.344 247.636 269.506 248.016 269.561 248.614C269.941 248.342 270.321 248.234 270.483 248.016C273.143 244.377 275.695 240.738 278.354 237.044C279.277 235.795 280.254 234.6 281.177 233.351C282.154 231.993 283.674 231.993 284.977 232.156C286.062 232.265 286.768 233.242 287.257 234.383C288.722 237.805 288.831 241.498 289.211 245.138C289.319 246.17 289.319 247.256 289.428 248.559C291.328 247.473 292.956 246.332 294.585 245.192C296.322 243.943 298.004 242.53 300.176 241.987C302.021 241.553 303.053 241.824 303.813 243.508C304.41 244.757 304.844 246.115 305.333 247.419C305.984 249.266 306.472 251.167 307.124 253.013C307.558 254.208 307.884 254.426 309.024 253.882C312.769 251.981 314.398 253.882 316.352 256.87C316.569 257.196 316.678 257.63 316.84 257.956C317.003 258.065 317.166 258.119 317.275 258.173C321.563 258.879 325.797 259.64 330.085 260.292C332.419 260.672 334.753 261.106 337.142 261.378C342.244 261.921 346.913 263.822 351.364 266.212C354.078 267.679 356.521 269.634 358.855 271.589C360.375 272.839 361.732 274.305 362.872 275.935C366.291 280.769 368.245 286.255 369.385 292.067C369.548 292.827 369.657 293.588 369.82 294.348C370.091 295.814 370.417 297.009 372.317 297.118C373.131 297.172 373.945 298.041 375.031 298.693C374.271 299.508 373.728 300.16 373.131 300.649C371.502 301.898 369.874 303.147 368.191 304.233C366.183 305.537 364.12 306.678 362.112 307.873C361.135 308.47 360.212 309.068 359.235 309.611C357.66 310.48 355.978 310.914 354.186 310.969C353.481 310.969 352.721 311.023 352.124 311.295C347.51 313.304 342.733 315.042 338.607 318.084C334.753 320.963 330.411 321.615 325.797 320.908C322.703 320.42 319.663 320.474 316.569 320.474C313.909 320.474 311.195 320.039 308.589 320.148C306.092 320.257 303.65 320.202 301.261 319.768C299.741 319.496 298.33 318.899 296.865 318.41C293.39 317.324 289.808 316.563 286.551 314.716C282.48 312.327 278.789 309.502 275.315 306.297C274.283 305.32 273.252 304.396 272.166 303.473C270.103 301.735 268.312 299.78 267.444 297.118C267.335 296.792 267.118 296.466 266.955 296.195C266.847 296.032 266.684 295.923 266.412 295.706C265.924 295.977 265.381 296.14 264.947 296.466C262.287 298.53 259.193 298.965 255.99 298.965C253.222 298.965 250.508 298.91 247.739 298.91C242.962 298.91 238.24 299.617 233.68 301.137C231.889 301.735 229.989 301.844 228.089 301.735C224.127 301.463 220.11 301.192 216.147 301.572C214.41 301.735 212.619 301.626 210.882 301.355C210.013 301.246 209.199 300.54 208.33 300.105C207.896 299.888 207.516 299.508 207.082 299.399C201.979 297.824 197.04 295.814 192.1 293.805C189.603 292.773 186.889 292.067 184.392 291.035C179.018 288.862 173.59 286.689 168.379 284.191C163.439 281.855 159.042 278.651 156.491 273.599C155.297 271.264 154.7 268.602 153.723 266.104C151.551 260.237 151.551 254.263 152.746 248.234C153.343 245.246 153.288 242.259 152.908 239.271C152.8 238.294 153.017 237.533 153.506 236.719C156.98 231.07 161.974 227.756 168.433 226.181C172.613 225.149 176.793 224.172 181.081 223.791C181.515 223.737 181.949 223.683 182.329 223.846C184.392 224.878 186.509 224.497 188.68 224.226C192.046 223.791 195.303 222.922 198.397 221.564C199.862 220.913 201.491 220.532 202.902 219.772C205.128 218.577 207.299 217.273 209.362 215.807C212.89 213.254 216.31 210.538 219.675 207.768C220.87 206.79 221.901 205.65 222.987 204.563C227.112 200.653 231.129 196.633 235.363 192.831C237.914 190.55 240.683 188.54 243.397 186.422C244.374 185.661 245.297 184.684 246.382 184.086C248.391 182.946 250.508 182.077 252.57 181.045C253.656 180.501 254.633 179.741 255.719 179.361C259.301 178.111 262.884 176.862 266.575 175.884C270.266 174.907 274.012 174.418 277.757 173.712C281.991 172.951 286.171 172.191 290.405 171.485C297.787 170.236 305.224 168.986 312.661 167.791C314.018 167.574 315.483 167.628 316.84 167.465C319.392 167.14 321.997 166.922 324.548 166.325C328.62 165.401 332.636 165.727 336.708 165.836C339.367 165.945 342.027 165.89 344.687 166.053C346.641 166.162 348.595 166.379 350.495 166.814C355.326 167.9 360.157 168.009 365.097 167.954C366.617 167.954 368.191 167.737 369.711 167.9C371.774 168.172 373.837 168.497 375.791 169.204C377.853 169.964 380.025 170.073 382.087 170.507C383.444 170.779 384.802 171.105 386.159 171.431C387.678 171.756 389.198 172.028 390.664 172.463C392.292 172.951 393.867 173.658 395.549 174.092C396.744 174.418 397.992 174.527 399.241 174.744C401.738 175.178 404.289 175.45 406.731 175.993C407.926 176.265 409.174 175.884 410.368 176.645C411.4 177.297 412.757 177.46 413.951 177.786C417.751 178.818 421.551 179.795 425.296 180.936C427.196 181.533 429.041 182.239 430.779 183.217C432.624 184.195 434.687 184.792 436.478 185.824C437.998 186.693 439.246 187.943 440.604 189.029C443.752 191.528 447.063 193.7 449.723 196.796C452.057 199.512 454.554 202.119 457.051 204.672C458.028 205.65 458.951 206.627 459.765 207.768C463.945 213.363 468.993 218.142 474.313 222.651C475.724 223.846 477.461 224.715 479.035 225.747C480.338 226.616 481.532 227.539 482.835 228.3C484.681 229.44 486.526 230.581 488.535 231.504C493.257 233.677 498.143 235.632 503.191 236.61C507.805 237.479 512.039 239.489 516.544 240.412C520.507 241.227 524.578 241.716 528.595 242.476C530.006 242.802 531.255 243.399 532.557 243.997ZM420.411 198.317C420.573 198.208 420.682 198.045 420.845 197.937C420.139 196.688 419.759 195.058 417.208 195.275C418.456 196.47 419.434 197.394 420.411 198.317ZM414.602 202.825C415.037 202.717 415.417 202.391 416.068 202.065C415.091 200.87 414.277 199.729 413.3 198.806C411.345 197.013 409.283 195.275 407.22 193.646C405.863 192.56 404.289 191.745 402.769 190.821C401.955 190.333 401.086 189.735 400.218 189.409C397.286 188.214 394.301 187.345 391.315 186.476C390.338 186.205 389.361 185.879 388.33 185.553C388.276 185.661 388.221 185.77 388.167 185.879C388.818 186.259 389.416 186.639 390.013 187.019C391.261 187.78 392.618 188.432 393.758 189.355C396.472 191.69 399.132 194.08 401.738 196.579C403.366 198.1 404.832 199.784 405.7 201.902C406.297 203.26 407.22 204.075 408.794 203.857C410.748 203.586 412.703 203.205 414.602 202.825ZM396.201 204.509C397.829 204.509 399.403 204.509 401.52 204.509C401.086 203.694 400.978 203.097 400.598 202.717C398.046 200.164 395.658 197.502 392.89 195.221C390.284 193.103 387.298 191.528 384.476 189.681C384.259 189.518 383.933 189.518 383.716 189.464C383.065 189.246 382.413 189.083 381.762 188.812C378.939 187.508 376.171 186.096 373.022 185.879C370.58 185.716 368.137 185.607 365.694 185.39C359.398 184.901 353.101 184.358 346.804 183.869C345.338 183.76 343.873 183.869 342.353 183.923C341.104 183.978 339.856 184.141 338.553 184.249C332.691 184.575 326.72 184.575 320.911 185.173C314.072 185.879 307.178 186.259 300.501 187.888C297.787 188.54 295.073 189.029 292.359 189.789C289.374 190.604 287.039 192.614 284.488 194.189C284.108 194.406 283.783 194.732 283.24 195.221C287.474 196.416 291.436 197.557 295.345 198.697C296.865 199.132 298.059 198.915 299.307 197.991C302.238 195.764 305.604 194.298 309.024 192.994C313.258 191.365 317.763 191.039 322.214 190.441C326.285 189.898 330.357 189.735 334.373 189.192C339.53 188.54 344.687 187.888 349.898 187.943C351.744 187.997 353.535 187.725 355.381 187.78C358.095 187.834 360.917 187.671 363.577 188.106C367.323 188.703 371.014 189.735 374.705 190.658C377.962 191.473 381.327 192.071 384.259 193.863C385.399 194.569 386.43 195.547 387.678 195.927C390.284 196.796 392.238 198.317 393.704 200.544C394.518 201.902 395.332 203.205 396.201 204.509ZM390.284 204.672C389.578 202.934 388.33 202.173 387.136 201.467C386.05 200.816 384.802 200.435 383.77 199.675C381.165 197.774 378.125 197.176 375.139 196.362C371.991 195.493 368.734 194.786 365.531 194.135C363.414 193.7 361.243 193.157 359.072 193.157C353.806 193.157 348.541 193.266 343.276 193.592C338.01 193.917 332.799 194.515 327.588 195.112C323.517 195.601 319.554 196.307 315.483 196.851C313.529 197.122 311.575 197.231 310.001 198.643C309.838 198.806 309.458 198.697 309.241 198.806C308.264 199.349 307.015 199.512 306.418 200.87C306.852 201.033 307.178 201.196 307.504 201.25C310.164 201.63 312.769 201.956 315.429 202.336C320.64 203.151 325.797 203.966 331.008 204.781C332.256 204.998 333.559 205.052 334.753 205.27C340.236 206.302 345.718 206.899 351.309 206.845C354.241 206.845 357.226 206.573 360.157 206.41C367.051 205.976 373.945 206.627 380.785 205.813C383.933 205.432 386.973 205.052 390.284 204.672ZM363.414 301.681C365.097 300.594 365.314 299.888 364.771 297.987C364.337 296.521 363.849 295 363.632 293.479C362.98 289.134 361.623 285.006 359.615 281.095C357.823 277.673 355.543 274.523 352.395 272.187C349.138 269.743 345.501 268.005 341.647 266.701C336.979 265.126 332.094 264.854 327.263 264.094C322.92 263.388 318.523 262.845 314.126 262.193C313.041 262.03 311.901 261.704 310.815 261.595C309.512 261.432 308.209 261.432 306.852 261.378C306.255 261.378 305.604 261.432 305.007 261.378C304.41 261.324 303.813 261.161 303.216 260.998C301.804 260.618 300.447 261.161 299.09 261.432C297.299 261.813 295.562 262.084 293.77 262.519C291.002 263.225 288.288 264.148 285.465 264.746C283.783 265.072 282.317 265.778 280.851 266.647C279.82 267.244 279.603 267.95 279.929 269.091C280.797 272.296 281.557 275.5 282.317 278.705C282.426 279.248 282.534 279.9 282.317 280.334C281.231 282.398 280.254 284.625 278.083 285.657C276.509 286.418 275.315 287.558 274.066 288.645C272.709 289.84 271.623 291.306 270.429 292.664C272.112 295.38 273.686 297.824 275.966 299.78C279.277 302.604 282.588 305.374 285.9 308.253C288.342 310.371 291.056 311.892 294.096 312.87C295.779 313.413 297.462 313.793 299.144 314.336C302.021 315.26 304.898 315.966 307.992 315.857C310.978 315.694 314.018 315.803 317.003 315.803C318.957 315.803 320.857 315.966 322.866 315.64C324.603 315.368 326.503 316.074 328.348 316.455C330.628 316.889 332.691 316.563 334.536 315.205C337.685 312.924 341.104 311.24 344.687 309.665C346.098 309.068 347.564 308.633 348.975 308.09C350.115 307.655 351.201 306.732 352.395 306.623C355.001 306.406 357.172 305.211 359.398 303.962C360.755 303.256 362.112 302.495 363.414 301.681ZM343.113 178.818C343.113 178.655 343.113 178.546 343.167 178.383C342.082 178.22 340.996 177.949 339.856 177.949C337.739 177.894 335.676 178.057 333.559 177.949C330.031 177.786 326.557 177.297 323.029 177.405C316.352 177.568 309.675 177.351 302.998 178.329C298.276 179.035 293.608 180.121 289.102 181.588C287.365 182.131 285.791 183.054 284.108 183.815C281.937 184.792 279.711 185.661 277.594 186.748C275.532 187.834 273.469 189.083 271.786 191.256C273.578 192.071 275.206 192.777 276.726 193.429C277.594 192.451 278.137 191.582 278.897 191.039C283.837 187.617 288.885 184.466 294.965 183.543C299.524 182.837 304.084 181.859 308.644 181.262C314.126 180.556 319.663 180.175 325.2 179.687C328.782 179.361 332.311 179.035 335.893 178.818C338.39 178.709 340.779 178.818 343.113 178.818ZM316.46 172.245C316.46 172.137 316.515 171.974 316.515 171.865C316.189 171.811 315.809 171.756 315.483 171.648C315.429 171.811 315.375 171.974 315.375 172.137C315.755 172.191 316.135 172.191 316.46 172.245ZM302.238 256.87C301.153 253.611 300.501 250.461 298.927 247.365C297.407 248.451 295.887 249.266 294.693 250.406C293.228 251.818 291.979 253.394 290.676 254.969C289.699 256.218 288.017 256.924 286.605 256.544C285.085 256.109 284.217 255.132 284.054 253.557C284 252.905 283.891 252.307 283.837 251.655C283.783 249.7 283.891 247.69 283.728 245.735C283.565 243.671 283.131 241.607 282.805 239.543C282.643 239.489 282.48 239.489 282.317 239.434C278.246 244.975 274.555 250.786 269.669 255.892C272.492 258.391 274.446 261.487 277.052 263.551C285.411 260.4 293.662 258.282 302.238 256.87ZM283.511 177.623C283.457 177.46 283.403 177.351 283.348 177.188C280.634 177.786 277.92 178.329 275.206 179.035C272.438 179.687 269.561 179.85 266.847 180.827C267.552 182.239 267.715 183.326 267.226 184.684C266.575 186.476 266.684 186.965 267.389 187.888C267.769 187.345 268.041 186.585 268.638 186.096C271.352 183.978 274.066 181.859 277.323 180.556C279.386 179.632 281.448 178.6 283.511 177.623ZM275.26 282.779C276.509 282.181 276.889 281.149 276.509 279.791C275.966 277.619 275.477 275.392 274.935 273.219C274.012 269.525 272.492 266.158 269.778 263.333C265.598 259.097 261.798 254.426 256.479 251.493C253.819 250.026 251.213 248.396 248.391 247.473C245.785 246.604 242.908 246.387 240.14 246.115C236.774 245.789 233.463 245.3 230.26 244.268C227.601 243.399 225.049 243.888 222.498 244.866C220.327 245.681 218.21 246.604 215.984 247.093C213.107 247.745 210.556 246.984 208.819 244.323C208.493 243.78 207.95 243.399 207.516 242.965C205.508 241.009 203.391 239.163 201.545 237.099C198.777 234.003 195.628 231.178 191.666 230.146C186.4 228.734 180.972 226.887 175.327 228.68C174.458 228.951 173.427 228.571 172.45 228.462C172.016 228.408 171.581 228.354 171.201 228.408C166.75 229.44 162.788 231.287 159.911 235.143C158.282 237.316 157.794 239.652 157.902 242.259C157.902 242.911 157.957 243.562 157.902 244.16C157.522 248.016 157.142 251.818 156.762 255.675C156.817 255.675 156.871 255.675 156.925 255.729C156.98 256.598 156.925 257.522 157.142 258.391C158.228 262.084 159.314 265.832 160.508 269.471C160.834 270.449 161.376 271.372 161.974 272.241C165.502 277.13 170.17 280.443 175.815 282.453C178.258 283.322 180.538 284.517 182.926 285.549C185.532 286.635 188.083 287.83 190.689 288.808C194.76 290.329 198.885 291.686 202.957 293.153C205.291 293.968 207.462 295.163 209.85 295.76C212.944 296.575 216.256 296.412 219.295 297.444C219.621 297.553 220.001 297.607 220.327 297.607C222.607 297.661 224.941 297.553 227.221 297.878C229.935 298.313 232.595 297.878 235.146 297.172C238.348 296.358 241.388 295.163 244.808 295.271C247.414 295.326 249.965 294.945 252.57 294.891C253.982 294.837 255.339 295 256.75 295.108C260.441 295.434 262.993 293.207 265.544 291.143C268.855 288.373 271.243 284.68 275.26 282.779ZM263.861 250.46C263.752 245.572 263.644 241.118 263.59 236.664C263.535 232.156 263.481 227.648 263.427 223.194C260.93 224.443 259.247 226.398 257.564 228.408C255.773 230.526 253.927 232.699 252.353 234.98C250.996 236.881 249.693 238.783 247.848 240.195C246.111 241.498 243.885 241.281 243.071 239.326C242.257 237.316 241.497 235.252 241.063 233.134C240.357 229.549 239.868 225.964 239.326 222.325C239.217 221.619 239.325 220.75 238.457 220.478C236.123 223.52 234.006 226.616 231.455 229.332C229.012 231.993 227.003 234.926 225.104 237.968C224.778 238.511 224.507 239.163 224.072 240.032C226.026 240.032 227.546 239.869 229.066 240.086C231.292 240.412 233.409 241.118 235.634 241.444C239.488 242.042 243.397 242.53 247.305 243.074C250.236 243.508 253.059 244.214 255.664 245.789C258.161 247.256 260.767 248.668 263.861 250.46Z" fill="#4D3826"/>
<g filter="url(#filter0_d)">
<path d="M650.239 139.058C650.239 141.557 648.828 143.512 646.385 144.164C645.571 144.381 645.245 144.761 645.191 145.63C644.811 151.877 644.431 158.123 643.997 164.315C643.78 167.737 643.508 171.213 643.182 174.635C642.803 179.415 642.314 184.141 641.934 188.92C641.445 194.895 641.174 200.816 640.631 206.79C640.088 212.711 639.491 218.631 638.297 224.497C637.646 227.593 637.374 230.744 636.886 233.894C636.669 235.035 636.289 236.175 635.963 237.316C635.8 237.913 635.529 238.511 635.42 239.108C635.257 240.14 634.714 240.738 633.9 241.444C632.597 242.585 631.458 243.997 630.589 245.463C629.449 247.31 628.038 248.722 626.192 249.863C625.052 250.569 624.021 251.384 623.75 252.85C623.695 253.231 623.261 253.502 623.044 253.882C622.447 255.077 621.633 256.164 621.307 257.413C620.384 260.726 618.484 263.171 615.499 264.746C615.227 264.909 615.01 265.017 614.793 265.18C612.73 267.244 610.016 268.168 607.248 268.711C604.099 269.308 600.842 269.688 597.857 267.787C596.988 267.244 596.283 266.647 595.903 265.669C595.469 264.637 594.926 263.659 594.437 262.627C592.863 259.423 590.149 257.522 587.055 256.001C585.644 255.295 584.395 254.208 583.038 253.339C581.03 252.036 578.967 250.841 576.958 249.591C574.081 247.853 571.204 246.115 568.328 244.323C567.133 243.562 565.993 242.802 564.745 242.042C563.225 241.118 561.651 240.358 560.239 239.326C558.828 238.294 557.471 237.153 556.277 235.904C555.571 235.143 554.866 234.655 553.888 234.329C549.709 232.971 547.592 229.712 546.669 225.692C545.855 221.999 548.026 219.392 550.903 217.654C552.803 216.513 553.291 215.155 553.183 213.2C553.129 211.679 553.346 210.104 553.346 208.583C553.346 206.139 553.346 203.64 553.291 201.196C553.237 199.675 553.129 198.1 553.02 196.633C552.749 196.579 552.586 196.525 552.531 196.579C550.849 198.697 548.406 200.164 547.049 202.608C546.886 202.88 546.723 203.097 546.506 203.26C545.095 204.129 544.986 205.27 545.529 206.736C545.692 207.225 545.583 207.822 545.529 208.366C545.366 212.874 542.706 216.024 539.721 219.011C539.395 219.283 539.069 219.555 538.798 219.881C535.813 223.302 532.338 222.759 529.407 220.695C527.67 219.5 526.205 217.979 525.336 216.024C521.645 214.992 518.388 213.308 515.24 211.353C512.471 209.669 509.594 208.203 506.717 206.736C503.623 205.107 500.475 203.586 497.327 202.011C495.969 201.359 494.504 200.761 493.093 200.164C491.573 199.512 491.03 198.534 491.79 197.231C492.333 196.253 492.224 195.384 492.17 194.406C491.681 189.138 490.378 183.978 490.433 178.709C490.433 177.242 490.107 175.776 489.944 174.309C489.401 169.692 488.913 165.13 488.261 160.513C487.773 156.874 486.959 153.289 486.579 149.65C486.09 144.327 485.927 139.004 485.547 133.627C485.439 131.834 485.004 130.042 484.842 128.249C484.462 123.85 484.082 119.396 483.756 114.996C483.593 112.878 483.647 110.651 482.399 108.695C482.236 108.424 482.182 107.989 482.29 107.663C482.942 105.925 482.508 104.187 482.345 102.449C482.182 101.037 482.67 100.005 483.81 99.1901C485.167 98.1581 486.796 97.7236 488.424 97.2891C488.587 97.2348 488.696 97.2891 488.859 97.2348C492.495 95.7139 496.458 95.3337 499.878 93.2697C501.235 92.4549 502.592 91.5859 504.058 90.8798C505.686 90.065 507.369 89.3589 508.997 88.6528C509.106 88.5985 509.269 88.5442 509.377 88.4899C512.091 87.7294 514.751 86.8061 517.519 86.3172C521.862 85.5568 526.15 85.7741 530.221 88.001C532.23 89.0873 534.51 89.7935 536.681 90.4996C541.186 91.9661 545.366 94.0301 549.546 96.2028C550.143 96.5287 550.794 96.8546 551.446 97.0175C553.943 97.615 556.168 98.8642 558.285 100.168C559.86 101.091 561.488 102.232 562.411 103.698C563.388 105.219 563.551 107.283 563.985 109.13C564.039 109.293 563.931 109.619 563.822 109.727C562.411 111.14 562.574 113.258 561.217 115.159C563.605 114.399 565.505 113.801 567.459 113.204C573.159 111.52 578.913 109.89 584.612 108.261C587.109 107.555 589.552 106.686 592.103 106.034C595.794 105.056 599.54 104.513 603.339 104.893C605.348 105.111 607.248 105.98 609.148 106.523C610.07 106.794 610.993 107.066 611.916 107.338C612.405 107.501 612.893 107.609 613.327 107.772C615.879 108.858 618.538 109.89 621.035 111.14C623.587 112.443 625.975 114.127 628.526 115.431C631.729 117.114 635.203 118.364 638.297 120.265C641.011 121.949 644.16 123.089 646.385 125.533C647.417 126.674 648.339 127.923 649.099 129.281C650.076 130.965 650.619 132.812 650.239 134.876C649.913 136.342 650.239 137.755 650.239 139.058ZM642.748 140.525C643.725 139.927 644.16 139.221 643.617 138.026C642.314 137.918 641.337 138.624 640.306 139.167C637.374 140.742 634.714 142.86 631.512 144.11C629.829 144.761 628.146 145.576 626.626 146.554C623.695 148.455 620.493 149.595 617.29 150.899C615.01 151.822 614.63 152.148 614.847 154.593C614.902 155.516 615.173 156.439 615.444 157.58C616.639 156.982 617.507 156.548 618.321 156.059C620.004 155.081 621.633 154.049 623.315 153.072C626.246 151.334 629.286 149.65 632.163 147.857C634.009 146.717 635.692 145.305 637.483 144.11C639.22 142.806 640.957 141.665 642.748 140.525ZM642.911 131.671C643.725 130.911 643.671 129.987 642.965 129.227C642.314 128.521 641.554 127.815 640.686 127.38C636.723 125.208 632.76 123.144 628.798 121.025C627.278 120.21 625.704 119.341 624.184 118.472C622.501 117.495 620.873 116.354 619.081 115.485C616.91 114.453 614.684 113.638 612.405 112.823C610.016 111.954 607.628 111.085 605.239 110.379C601.657 109.293 597.966 109.565 594.383 110.379C589.335 111.466 584.286 112.823 579.292 114.181C576.524 114.942 573.756 115.757 571.042 116.571C569.739 116.952 568.545 117.549 567.242 117.766C563.334 118.309 560.402 120.428 557.743 123.361C558.014 123.578 558.122 123.687 558.231 123.795C561.271 125.316 564.365 126.62 567.242 128.304C570.173 130.042 573.484 130.965 576.253 133.083C578.315 134.659 580.758 135.962 583.309 136.994C586.621 138.298 589.769 139.982 593.026 141.502C593.297 141.611 593.569 141.72 593.732 141.937C595.143 143.566 597.097 144.164 598.997 144.653C602.797 145.685 606.434 147.043 610.07 148.401C610.505 148.563 611.048 148.618 611.482 148.401C614.63 147.097 617.833 145.739 620.927 144.273C623.044 143.295 625.052 142.154 627.061 141.068C628.743 140.199 630.481 139.384 632.109 138.461C634.877 136.94 637.646 135.365 640.306 133.79C641.283 133.192 642.097 132.432 642.911 131.671ZM638.568 154.647C638.677 153.126 638.948 151.497 638.297 149.813C637.754 150.084 637.266 150.193 636.886 150.465C634.932 151.66 632.977 152.963 630.969 154.104C628.472 155.516 625.921 156.874 623.37 158.232C619.841 160.187 616.313 162.251 612.73 164.207C612.079 164.532 611.699 164.858 611.699 165.619C611.699 166.271 611.645 166.868 611.645 167.52C611.807 175.83 611.916 184.086 612.079 192.397C612.079 193.863 611.97 195.33 611.97 196.796C612.025 200.381 612.35 203.966 612.242 207.551C612.025 216.459 612.622 225.258 613.49 234.057C613.653 235.687 614.196 236.175 615.77 236.719C616.801 237.099 617.887 237.479 618.756 238.185C620.818 239.815 622.718 241.607 622.501 244.594C622.501 244.703 622.61 244.812 622.827 245.192C623.207 245.083 623.641 245.029 623.858 244.866C625.324 243.345 627.061 242.15 627.821 240.032C628.092 239.326 628.581 238.674 628.961 238.022C629.341 237.316 629.829 236.556 629.938 235.795C630.752 231.07 631.566 226.398 632.272 221.673C632.706 218.631 632.977 215.535 633.303 212.439C633.575 209.778 633.846 207.116 634.117 204.455C634.389 202.011 634.66 199.566 635.04 197.122C635.583 193.483 634.823 189.681 635.909 186.096C635.963 185.933 635.963 185.824 635.963 185.661C636.126 183.271 636.343 180.882 636.506 178.546C636.832 174.635 637.157 170.724 637.537 166.814C637.863 162.74 638.297 158.721 638.568 154.647ZM608.551 157.906C608.876 154.864 608.822 154.973 606.379 153.832C604.968 153.18 603.557 153.126 602.145 152.8C596.283 151.442 590.855 148.889 585.535 146.228C585.101 146.011 584.558 145.902 584.069 145.739C584.015 145.902 583.961 146.119 583.852 146.282C591.777 150.736 599.757 155.244 608.551 157.906ZM606.488 235.143C606.488 233.079 606.542 231.07 606.488 229.006C606.271 223.574 605.891 218.197 605.782 212.765C605.619 204.129 605.674 195.438 605.619 186.802C605.565 179.687 605.511 172.571 605.402 165.456C605.294 161.219 604.968 161.545 601.765 160.513C596.446 158.721 591.669 155.896 586.729 153.452C583.309 151.768 579.998 149.921 576.578 148.346C571.856 146.174 567.079 144.11 562.302 142.1C561.379 141.72 560.294 141.557 558.991 141.231C558.991 143.132 558.72 144.598 559.045 146.011C559.697 148.998 559.697 152.04 559.805 155.027C559.914 156.982 560.294 158.938 560.077 160.893C559.642 165.673 559.914 170.453 559.859 175.233C559.859 175.776 559.914 176.373 559.859 176.917C559.697 179.795 559.48 182.674 559.425 185.553C559.371 187.725 559.588 189.898 559.588 192.071C559.588 195.275 559.48 198.534 559.48 201.739C559.48 202.771 559.642 203.857 559.642 204.889C559.588 207.496 559.425 210.104 559.48 212.711C559.534 216.296 559.859 219.881 559.859 223.465C559.859 226.127 560.239 228.625 561.054 231.124C561.488 232.482 562.194 233.514 563.442 234.166C564.853 234.926 566.265 235.741 567.622 236.556C569.305 237.588 570.879 238.728 572.561 239.76C578.315 243.236 584.124 246.713 589.932 250.189C590.909 250.786 591.94 251.384 592.917 251.981C597.097 243.019 599.105 240.521 606.488 235.143ZM582.387 145.63C582.441 145.522 582.441 145.467 582.495 145.359C573.756 140.851 565.071 136.397 556.06 131.78C556.114 133.138 555.951 134.17 557.037 134.822C559.208 136.071 561.325 137.483 563.876 137.972C564.473 138.08 565.071 138.352 565.613 138.624C570.499 140.633 575.167 143.241 580.27 144.87C581.03 145.087 581.681 145.359 582.387 145.63ZM557.688 111.357C557.525 111.194 557.363 111.085 557.254 110.922C556.657 111.303 556.114 111.629 555.517 112.009C553.183 113.475 550.903 115.105 548.189 116.028C545.963 116.789 543.901 117.984 541.784 119.124C540.264 119.939 538.852 121.08 537.332 121.84C535.107 122.872 534.401 124.719 534.13 127.272C535.595 126.565 536.844 125.968 538.092 125.316C542.489 122.872 546.94 120.482 551.283 117.875C553.237 116.68 554.92 115.05 556.603 113.475C557.145 112.986 557.362 112.063 557.688 111.357ZM557.2 106.088C556.06 105.111 555.463 104.404 554.703 104.024C552.911 103.047 551.066 102.286 549.22 101.417C546.289 100.059 543.358 98.647 540.427 97.3977C537.224 95.9855 533.967 94.7362 530.71 93.3783C528.81 92.6179 527.019 91.6945 525.065 91.0427C522.948 90.2823 520.776 89.6305 518.497 90.2823C517.302 90.6625 516.108 90.9884 514.914 91.3686C510.734 92.6179 506.609 93.9215 502.809 96.2028C501.235 97.1805 499.389 97.8866 497.598 98.3754C495.535 98.9186 493.798 99.679 492.713 101.906C493.418 102.178 494.015 102.34 494.558 102.612C496.838 103.698 499.118 104.839 501.343 105.98C502.809 106.74 504.546 107.283 505.632 108.424C506.989 109.836 508.671 110.488 510.354 111.303C512.634 112.389 514.914 113.421 517.031 114.725C518.442 115.594 519.908 116.082 521.428 116.68C522.731 117.223 524.033 117.712 525.282 118.309C526.422 118.853 527.562 119.396 528.593 120.102C530.276 121.134 531.741 120.754 533.316 119.776C536.355 117.929 539.504 116.191 542.652 114.453C544.281 113.584 546.072 112.932 547.646 112.009C550.36 110.434 553.02 108.695 555.734 107.066C556.114 106.74 556.548 106.523 557.2 106.088ZM553.671 167.411C553.726 164.315 553.78 161.219 553.617 158.123C553.4 153.506 552.966 148.889 552.586 144.218C552.477 142.969 552.423 141.72 552.369 140.47C552.26 138.95 552.26 137.483 551.066 136.179C550.306 135.365 549.872 134.061 549.763 132.92C549.546 130.965 549.654 129.01 549.709 127C549.763 125.696 550.36 124.719 551.717 124.339C551.88 124.284 551.989 124.067 552.206 123.85C551.826 123.415 551.5 122.981 551.066 122.492C548.84 123.795 546.615 124.99 544.443 126.24C542.598 127.272 540.752 128.249 538.907 129.281C537.061 130.313 535.27 131.345 533.424 132.377C532.664 132.812 532.176 133.409 532.176 134.387C532.176 136.125 531.85 137.918 532.013 139.601C532.284 142.534 532.447 145.413 532.121 148.346C531.687 152.366 531.958 156.494 531.904 160.567C531.904 161.708 531.904 162.794 531.959 163.935C532.176 167.574 532.393 171.213 532.556 174.852C532.773 179.469 532.881 184.141 533.098 188.757C533.207 190.604 533.316 192.505 534.021 194.515C538.255 193.972 540.752 196.851 543.738 198.752C545.638 196.796 547.592 194.895 549.437 192.831C550.414 191.745 551.066 190.387 551.989 189.246C552.694 188.377 553.074 187.617 553.02 186.422C552.911 184.901 553.183 183.326 553.183 181.805C553.4 177.134 553.563 172.3 553.671 167.411ZM530.004 129.01C530.33 126.62 529.624 125.316 527.562 124.393C526.042 123.687 524.468 122.981 522.893 122.492C518.497 121.134 514.48 119.016 510.463 116.843C506.772 114.833 503.189 112.606 499.444 110.705C496.132 109.021 492.658 107.609 489.293 106.143C488.859 105.925 488.37 105.925 487.719 105.762C487.719 107.338 487.936 107.881 488.696 108.315C490.596 109.347 492.495 110.325 494.395 111.357C495.915 112.226 497.327 113.421 498.955 113.91C501.832 114.779 504.329 116.354 506.772 117.929C508.509 119.07 510.3 119.885 512.091 120.754C514.371 121.786 516.759 122.655 519.094 123.632C520.505 124.23 521.916 124.882 523.273 125.588C524.63 126.294 525.879 127.163 527.182 127.869C528.05 128.358 529.027 128.629 530.004 129.01ZM526.856 201.467C527.67 200.164 527.833 198.969 527.724 197.502C527.29 192.722 526.965 187.943 526.693 183.163C526.53 180.99 526.639 178.818 526.422 176.645C525.933 170.344 526.096 163.989 526.422 157.689C526.639 153.832 526.965 149.976 526.693 146.119C526.585 144.11 526.53 142.046 526.476 140.036C526.367 137.809 526.259 135.582 526.259 133.355C526.259 132.377 525.933 131.726 525.119 131.291C523.328 130.313 521.591 129.227 519.745 128.358C515.837 126.511 511.766 124.827 507.857 122.872C504.655 121.297 501.561 119.504 498.358 117.821C496.241 116.734 494.07 115.702 491.953 114.67C491.41 114.399 490.813 114.29 490.053 114.018C489.89 114.833 489.727 115.268 489.781 115.648C489.89 118.309 489.944 121.025 490.161 123.687C490.324 125.914 490.758 128.141 490.976 130.368C491.41 135.854 491.627 141.339 492.224 146.771C492.984 153.398 494.015 160.024 494.938 166.596C495.481 170.562 495.969 174.527 496.458 178.546C497.164 184.032 497.761 189.572 498.466 195.112C498.629 196.362 499.226 197.339 500.421 197.937C503.135 199.349 505.795 200.924 508.509 202.336C511.006 203.64 513.557 204.781 516.054 206.084C518.008 207.062 519.854 208.257 521.808 209.18C523.111 209.832 523.382 209.506 523.925 208.148C524.739 205.921 525.608 203.531 526.856 201.467Z" fill="#29353A"/>
<path d="M643.565 138.024C644.108 139.219 643.674 139.925 642.697 140.523C640.905 141.664 639.168 142.804 637.431 143.999C635.64 145.248 633.957 146.606 632.112 147.747C629.235 149.539 626.195 151.223 623.264 152.961C621.581 153.939 619.953 154.971 618.27 155.949C617.401 156.438 616.533 156.872 615.393 157.47C615.176 156.329 614.904 155.406 614.796 154.482C614.579 152.038 614.959 151.712 617.238 150.789C620.441 149.539 623.644 148.344 626.575 146.443C628.095 145.466 629.778 144.651 631.46 143.999C634.663 142.804 637.269 140.632 640.254 139.056C641.34 138.622 642.317 137.916 643.565 138.024Z" fill="#FFF31A"/>
<path d="M642.966 129.227C643.672 129.988 643.726 130.911 642.912 131.671C642.098 132.432 641.284 133.247 640.361 133.79C637.647 135.419 634.933 136.94 632.164 138.461C630.536 139.384 628.799 140.145 627.116 141.068C625.053 142.1 623.045 143.295 620.982 144.273C617.834 145.739 614.685 147.043 611.537 148.401C611.157 148.564 610.56 148.509 610.126 148.401C606.489 147.043 602.852 145.631 599.052 144.653C597.152 144.164 595.144 143.567 593.787 141.937C593.624 141.72 593.298 141.611 593.081 141.503C589.879 139.982 586.676 138.298 583.365 136.994C580.813 135.962 578.371 134.659 576.308 133.084C573.485 130.965 570.228 130.042 567.297 128.304C564.42 126.62 561.272 125.262 558.286 123.796C558.178 123.741 558.069 123.633 557.798 123.361C560.458 120.428 563.389 118.31 567.297 117.766C568.6 117.603 569.848 116.952 571.097 116.572C573.865 115.757 576.579 114.888 579.348 114.182C584.342 112.878 589.39 111.52 594.438 110.379C598.021 109.619 601.712 109.347 605.295 110.379C607.683 111.086 610.071 111.955 612.46 112.824C614.685 113.638 616.965 114.453 619.137 115.485C620.928 116.3 622.502 117.495 624.239 118.473C625.759 119.342 627.333 120.156 628.853 121.025C632.816 123.144 636.778 125.208 640.741 127.38C641.555 127.815 642.315 128.521 642.966 129.227ZM614.631 137.646C617.182 136.56 617.454 136.071 617.02 133.355C616.802 132.16 616.314 131.183 615.391 130.531C614.034 129.553 612.623 128.63 611.211 127.706C608.932 126.131 606.652 124.502 604.372 122.872C603.232 122.057 601.875 121.46 601.006 120.428C599.215 118.418 597.098 118.581 594.818 119.016C593.353 119.287 591.941 119.613 590.53 119.939C589.933 120.102 589.227 120.156 588.847 120.591C586.676 122.764 586.839 125.099 589.336 126.783C594.384 130.205 599.486 133.518 604.535 136.994C605.132 137.375 605.566 138.081 606 138.732C606.272 139.167 606.435 139.764 606.76 140.634C607.792 140.416 608.714 140.308 609.529 139.982C611.211 139.221 612.84 138.352 614.631 137.646Z" fill="#FFF31A"/>
<path d="M638.298 149.812C638.95 151.496 638.624 153.125 638.57 154.646C638.353 158.72 637.864 162.793 637.538 166.813C637.213 170.723 636.833 174.634 636.507 178.545C636.29 180.935 636.127 183.325 635.964 185.66C635.964 185.823 635.964 185.932 635.91 186.095C634.879 189.734 635.584 193.482 635.041 197.121C634.661 199.565 634.39 202.01 634.119 204.454C633.847 207.115 633.576 209.777 633.304 212.438C632.979 215.534 632.707 218.576 632.273 221.672C631.567 226.397 630.807 231.123 629.939 235.794C629.776 236.555 629.287 237.315 628.962 238.021C628.582 238.727 628.093 239.325 627.822 240.031C627.062 242.149 625.271 243.344 623.859 244.865C623.642 245.082 623.262 245.082 622.828 245.191C622.611 244.811 622.502 244.702 622.502 244.593C622.719 241.606 620.819 239.814 618.757 238.184C617.888 237.478 616.803 237.098 615.771 236.718C614.197 236.174 613.654 235.686 613.491 234.056C612.623 225.257 611.971 216.403 612.243 207.55C612.351 203.965 612.026 200.38 611.971 196.795C611.971 195.329 612.134 193.862 612.08 192.396C611.971 184.085 611.809 175.829 611.646 167.519C611.646 166.867 611.7 166.27 611.7 165.618C611.7 164.857 612.08 164.531 612.731 164.206C616.314 162.25 619.842 160.24 623.371 158.231C625.868 156.819 628.419 155.515 630.97 154.103C632.979 152.962 634.878 151.659 636.887 150.464C637.267 150.192 637.755 150.029 638.298 149.812Z" fill="#295E1B"/>
<path d="M616.968 133.356C617.456 136.072 617.185 136.561 614.579 137.647C612.842 138.353 611.159 139.222 609.422 139.928C608.608 140.254 607.685 140.363 606.654 140.58C606.328 139.711 606.165 139.168 605.894 138.679C605.46 138.081 605.026 137.375 604.428 136.941C599.38 133.519 594.278 130.151 589.229 126.729C586.732 125.046 586.57 122.656 588.741 120.537C589.121 120.157 589.827 120.049 590.424 119.886C591.835 119.56 593.301 119.234 594.712 118.962C596.938 118.528 599.109 118.365 600.9 120.374C601.823 121.406 603.126 122.004 604.266 122.819C606.545 124.448 608.825 126.078 611.105 127.653C612.462 128.63 613.928 129.5 615.285 130.477C616.316 131.238 616.805 132.215 616.968 133.356ZM611.051 133.899C610.562 133.356 610.128 132.813 609.585 132.433C607.034 130.586 604.483 128.739 601.877 127.001C600.086 125.806 598.24 124.72 596.449 123.47C595.363 122.71 594.712 123.199 593.843 123.959C595.635 125.046 596.775 126.675 598.675 127.381C599.543 127.707 600.194 128.522 600.954 129.174C601.714 129.771 602.311 130.749 603.18 130.966C605.188 131.509 606.654 132.65 608.228 133.845C608.988 134.497 609.911 134.714 611.051 133.899Z" fill="#37474F"/>
<path d="M609.641 132.432C610.183 132.812 610.563 133.355 611.106 133.898C609.966 134.713 609.043 134.496 608.229 133.844C606.709 132.649 605.189 131.454 603.181 130.965C602.312 130.748 601.715 129.77 600.955 129.173C600.195 128.575 599.544 127.706 598.676 127.38C596.776 126.674 595.636 125.045 593.844 123.958C594.713 123.198 595.364 122.709 596.45 123.47C598.241 124.719 600.087 125.805 601.878 127C604.484 128.793 607.089 130.585 609.641 132.432Z" fill="#FFF31A"/>
<path d="M606.379 153.887C608.822 155.027 608.876 154.919 608.551 157.961C599.703 155.299 591.777 150.791 583.852 146.337C583.907 146.174 583.961 145.957 584.069 145.794C584.558 145.957 585.101 146.065 585.535 146.283C590.855 148.998 596.283 151.497 602.145 152.855C603.557 153.126 604.968 153.235 606.379 153.887Z" fill="#FFF31A"/>
<path d="M606.49 229.005C606.544 231.015 606.49 233.079 606.49 235.143C599.107 240.52 597.099 243.019 592.865 252.035C591.833 251.438 590.856 250.84 589.879 250.243C584.071 246.766 578.317 243.29 572.509 239.814C570.826 238.782 569.252 237.641 567.569 236.609C566.212 235.795 564.801 234.98 563.39 234.219C562.141 233.513 561.436 232.536 561.001 231.178C560.187 228.679 559.807 226.126 559.807 223.519C559.807 219.934 559.481 216.349 559.427 212.765C559.373 210.157 559.59 207.55 559.59 204.943C559.59 203.911 559.427 202.825 559.427 201.793C559.427 198.588 559.536 195.329 559.536 192.124C559.536 189.952 559.373 187.779 559.373 185.606C559.427 182.728 559.644 179.849 559.807 176.97C559.861 176.427 559.807 175.83 559.807 175.286C559.861 170.507 559.59 165.727 560.024 160.947C560.187 159.046 559.807 157.036 559.753 155.081C559.644 152.039 559.59 149.052 558.993 146.064C558.667 144.652 558.939 143.131 558.939 141.285C560.241 141.61 561.273 141.719 562.25 142.154C567.027 144.163 571.803 146.227 576.526 148.4C579.946 149.975 583.311 151.822 586.677 153.506C591.671 155.95 596.393 158.774 601.713 160.567C604.916 161.653 605.241 161.327 605.35 165.51C605.513 172.625 605.513 179.74 605.567 186.856C605.621 195.492 605.567 204.183 605.73 212.819C605.893 218.196 606.273 223.628 606.49 229.005Z" fill="#295E1B"/>
<path d="M582.497 145.359C582.443 145.467 582.443 145.522 582.388 145.63C581.683 145.359 581.031 145.087 580.326 144.87C575.277 143.24 570.609 140.633 565.669 138.623C565.072 138.406 564.529 138.135 563.932 137.972C561.381 137.483 559.264 136.071 557.093 134.821C556.007 134.17 556.116 133.138 556.116 131.78C565.072 136.397 573.757 140.85 582.497 145.359Z" fill="#FFF31A"/>
<path d="M557.253 110.922C557.416 111.085 557.579 111.194 557.688 111.357C557.308 112.063 557.091 112.986 556.548 113.475C554.865 115.05 553.128 116.68 551.228 117.875C546.94 120.482 542.434 122.872 538.038 125.316C536.843 125.968 535.595 126.511 534.075 127.271C534.346 124.719 535.052 122.872 537.278 121.84C538.852 121.079 540.209 119.993 541.729 119.124C543.846 117.983 545.908 116.788 548.134 116.028C550.848 115.105 553.074 113.529 555.462 112.009C556.113 111.628 556.656 111.302 557.253 110.922Z" fill="#FF2222"/>
<path d="M554.702 104.025C555.462 104.405 556.059 105.166 557.199 106.089C556.494 106.524 556.059 106.741 555.679 106.958C552.965 108.642 550.36 110.326 547.591 111.901C545.963 112.824 544.226 113.476 542.597 114.345C539.449 116.083 536.301 117.821 533.261 119.668C531.687 120.646 530.221 121.026 528.538 119.994C527.453 119.342 526.367 118.745 525.227 118.202C523.979 117.604 522.676 117.061 521.373 116.572C519.908 115.975 518.388 115.486 516.976 114.617C514.859 113.313 512.525 112.281 510.3 111.195C508.617 110.38 506.988 109.783 505.577 108.316C504.491 107.175 502.754 106.632 501.289 105.872C499.063 104.731 496.783 103.591 494.504 102.504C493.961 102.233 493.364 102.07 492.658 101.798C493.744 99.5712 495.481 98.8108 497.543 98.2676C499.335 97.8331 501.18 97.0727 502.754 96.095C506.554 93.8137 510.68 92.5101 514.859 91.2609C516.054 90.8807 517.248 90.5004 518.442 90.1745C520.722 89.5228 522.893 90.1745 525.01 90.935C526.91 91.6411 528.756 92.5101 530.655 93.2706C533.912 94.6285 537.169 95.8777 540.372 97.29C543.303 98.5935 546.234 99.9514 549.166 101.309C551.065 102.287 552.911 103.047 554.702 104.025ZM538.581 109.728C539.938 108.099 539.938 107.121 538.146 106.143C536.952 105.492 535.649 105.057 534.672 104.242C532.067 102.124 528.918 100.983 525.987 99.4626C524.087 98.4849 522.133 97.5615 520.45 96.1493C519.582 95.4432 518.659 95.2803 517.682 95.7691C515.619 96.7468 513.882 98.159 512.362 99.8971C511.114 101.309 511.657 103.21 513.394 103.808C517.573 105.22 521.21 107.664 524.793 110.054C526.856 111.412 529.027 112.118 531.47 112.173C534.075 112.01 536.626 112.01 538.581 109.728Z" fill="#FF2222"/>
<path d="M553.619 158.123C553.782 161.219 553.728 164.315 553.673 167.412C553.565 172.246 553.456 177.134 553.293 181.968C553.239 183.489 552.968 185.064 553.131 186.585C553.239 187.78 552.805 188.54 552.099 189.41C551.176 190.55 550.525 191.908 549.548 192.994C547.757 195.004 545.802 196.905 543.848 198.915C540.863 196.959 538.366 194.135 534.132 194.678C533.372 192.723 533.318 190.822 533.209 188.921C532.938 184.304 532.883 179.633 532.666 175.016C532.503 171.377 532.232 167.737 532.069 164.098C532.015 162.958 532.015 161.871 532.015 160.731C532.069 156.657 531.798 152.583 532.232 148.509C532.558 145.522 532.395 142.643 532.123 139.765C531.961 138.026 532.286 136.288 532.286 134.55C532.286 133.573 532.72 132.975 533.535 132.541C535.38 131.509 537.172 130.477 539.017 129.445C540.863 128.413 542.708 127.435 544.554 126.403C546.725 125.154 548.951 123.959 551.176 122.655C551.611 123.144 551.936 123.578 552.316 124.013C552.099 124.23 551.991 124.447 551.828 124.502C550.471 124.882 549.874 125.86 549.819 127.163C549.765 129.119 549.657 131.128 549.874 133.084C549.982 134.224 550.416 135.528 551.176 136.343C552.371 137.646 552.371 139.113 552.479 140.634C552.533 141.883 552.642 143.132 552.696 144.381C552.913 148.89 553.402 153.507 553.619 158.123Z" fill="#295E1B"/>
<path d="M538.147 106.142C539.992 107.12 539.992 108.097 538.581 109.727C536.627 112.008 534.076 112.008 531.47 112.117C529.027 112.117 526.91 111.411 524.793 109.998C521.156 107.609 517.52 105.164 513.394 103.752C511.657 103.155 511.114 101.254 512.363 99.8413C513.828 98.1575 515.62 96.691 517.682 95.7133C518.605 95.2787 519.528 95.3874 520.451 96.0935C522.134 97.5057 524.088 98.3748 525.988 99.4068C528.919 100.928 532.013 102.123 534.673 104.187C535.65 105.056 536.953 105.544 538.147 106.142ZM528.973 107.663C530.004 108.097 530.656 107.934 531.416 107.228C527.182 105.056 523.165 102.937 519.094 100.928C518.551 100.656 517.845 100.602 517.248 100.439C517.194 100.602 517.085 100.765 517.031 100.928C517.682 101.308 518.28 101.688 518.931 102.068C520.071 102.72 521.428 103.155 522.405 103.969C524.468 105.544 526.639 106.631 528.973 107.663Z" fill="#37474F"/>
<path d="M531.419 107.228C530.659 107.934 530.007 108.097 528.976 107.663C526.642 106.631 524.47 105.544 522.516 103.915C521.539 103.1 520.182 102.666 519.042 102.014C518.391 101.634 517.739 101.253 517.142 100.873C517.197 100.71 517.305 100.547 517.359 100.384C517.957 100.547 518.662 100.602 519.205 100.873C523.168 102.937 527.185 105.001 531.419 107.228Z" fill="#FF2222"/>
<path d="M527.618 124.447C529.681 125.37 530.332 126.674 530.061 129.064C529.084 128.684 528.107 128.358 527.184 127.923C525.827 127.217 524.578 126.348 523.276 125.642C521.918 124.936 520.507 124.284 519.096 123.687C516.762 122.709 514.427 121.84 512.093 120.808C510.302 119.993 508.456 119.124 506.774 117.983C504.331 116.408 501.834 114.833 498.957 113.964C497.329 113.475 495.917 112.226 494.397 111.411C492.498 110.379 490.598 109.402 488.698 108.37C487.938 107.935 487.721 107.392 487.721 105.817C488.372 105.98 488.861 106.034 489.295 106.197C492.715 107.718 496.189 109.076 499.446 110.759C503.191 112.66 506.774 114.942 510.465 116.897C514.482 119.07 518.499 121.188 522.895 122.546C524.524 123.035 526.044 123.741 527.618 124.447Z" fill="#FF2222"/>
<path d="M527.728 197.556C527.836 199.023 527.673 200.163 526.859 201.521C525.611 203.585 524.742 205.921 523.819 208.202C523.277 209.56 523.005 209.886 521.702 209.234C519.748 208.256 517.903 207.116 515.949 206.138C513.452 204.834 510.9 203.694 508.403 202.39C505.689 200.978 503.029 199.457 500.315 197.991C499.121 197.393 498.524 196.415 498.361 195.166C497.71 189.68 497.058 184.14 496.353 178.6C495.864 174.635 495.376 170.615 494.833 166.65C493.91 160.024 492.879 153.451 492.119 146.825C491.522 141.393 491.304 135.907 490.87 130.421C490.707 128.194 490.273 125.967 490.056 123.741C489.839 121.079 489.785 118.363 489.676 115.702C489.676 115.267 489.839 114.887 489.947 114.072C490.762 114.344 491.359 114.507 491.847 114.724C494.019 115.756 496.19 116.788 498.253 117.874C501.455 119.504 504.549 121.351 507.752 122.926C511.66 124.827 515.677 126.511 519.64 128.412C521.485 129.281 523.222 130.367 525.014 131.345C525.828 131.779 526.154 132.485 526.154 133.409C526.154 135.636 526.262 137.863 526.371 140.09C526.425 142.154 526.479 144.163 526.588 146.173C526.859 150.03 526.479 153.886 526.316 157.742C525.991 164.043 525.828 170.398 526.316 176.699C526.479 178.871 526.425 181.044 526.588 183.217C526.968 187.996 527.294 192.776 527.728 197.556Z" fill="#295E1B"/>
</g>
<path d="M420.792 197.937C420.629 198.045 420.521 198.208 420.358 198.317C419.38 197.394 418.402 196.47 417.153 195.275C419.76 195.004 420.086 196.687 420.792 197.937Z" fill="#66442C"/>
<path d="M416.069 202.12C415.417 202.446 415.037 202.771 414.603 202.88C412.703 203.26 410.749 203.586 408.795 203.912C407.221 204.129 406.244 203.315 405.701 201.957C404.778 199.838 403.312 198.155 401.738 196.634C399.133 194.189 396.473 191.745 393.759 189.41C392.673 188.486 391.262 187.834 390.013 187.074C389.416 186.694 388.765 186.314 388.168 185.933C388.222 185.825 388.276 185.716 388.331 185.608C389.308 185.933 390.285 186.259 391.316 186.531C394.302 187.4 397.341 188.269 400.218 189.464C401.141 189.844 401.955 190.387 402.77 190.876C404.289 191.8 405.809 192.614 407.221 193.701C409.338 195.33 411.346 197.068 413.3 198.861C414.332 199.73 415.092 200.925 416.069 202.12Z" fill="#66442C"/>
<path d="M401.522 204.509C399.459 204.509 397.831 204.509 396.202 204.509C395.334 203.206 394.519 201.902 393.651 200.598C392.131 198.426 390.177 196.851 387.626 195.981C386.377 195.547 385.346 194.624 384.206 193.917C381.274 192.125 377.909 191.528 374.652 190.713C370.961 189.789 367.27 188.757 363.524 188.16C360.81 187.725 358.042 187.834 355.328 187.834C353.482 187.834 351.691 188.051 349.845 187.997C344.634 187.943 339.477 188.594 334.321 189.246C330.249 189.735 326.178 189.952 322.161 190.496C317.71 191.093 313.205 191.419 308.971 193.048C305.551 194.352 302.185 195.873 299.254 198.046C298.006 198.969 296.812 199.186 295.292 198.752C291.383 197.557 287.421 196.47 283.187 195.275C283.73 194.787 284.055 194.461 284.435 194.243C286.987 192.668 289.375 190.659 292.306 189.844C295.02 189.138 297.734 188.594 300.448 187.943C307.179 186.313 314.019 185.933 320.859 185.227C326.721 184.629 332.638 184.575 338.5 184.304C339.749 184.249 340.997 184.032 342.3 183.978C343.766 183.923 345.285 183.815 346.751 183.923C353.048 184.412 359.345 184.955 365.641 185.444C368.084 185.661 370.527 185.77 372.969 185.933C376.118 186.15 378.886 187.562 381.709 188.866C382.306 189.138 383.012 189.301 383.663 189.518C383.934 189.572 384.206 189.626 384.423 189.735C387.246 191.528 390.231 193.157 392.837 195.275C395.605 197.502 397.993 200.218 400.545 202.771C400.925 203.097 401.087 203.64 401.522 204.509Z" fill="#473629"/>
<path d="M387.138 201.468C388.332 202.174 389.526 202.934 390.286 204.672C386.975 205.052 383.935 205.433 380.841 205.813C373.947 206.628 367.053 205.976 360.214 206.41C357.282 206.573 354.297 206.845 351.366 206.845C345.775 206.899 340.292 206.302 334.81 205.27C333.561 205.052 332.313 204.998 331.064 204.781C325.853 203.966 320.696 203.151 315.485 202.337C312.825 201.956 310.22 201.631 307.56 201.25C307.234 201.196 306.909 201.033 306.474 200.87C307.071 199.512 308.32 199.349 309.297 198.806C309.514 198.697 309.894 198.806 310.057 198.643C311.631 197.231 313.585 197.122 315.539 196.851C319.556 196.308 323.573 195.601 327.644 195.113C332.855 194.515 338.121 193.918 343.332 193.592C348.597 193.266 353.863 193.157 359.128 193.157C361.299 193.157 363.416 193.7 365.588 194.135C368.79 194.787 372.047 195.493 375.195 196.362C378.181 197.177 381.221 197.774 383.826 199.675C384.803 200.436 386.052 200.816 387.138 201.468Z" fill="#1E160F"/>
<path d="M364.77 297.931C365.313 299.832 365.15 300.538 363.413 301.625C362.11 302.439 360.753 303.2 359.396 303.96C357.225 305.21 355.054 306.405 352.394 306.622C351.254 306.73 350.168 307.599 348.974 308.088C347.563 308.631 346.097 309.066 344.686 309.663C341.157 311.184 337.683 312.922 334.535 315.204C332.635 316.562 330.572 316.888 328.347 316.453C326.501 316.127 324.601 315.367 322.864 315.638C320.856 315.964 318.956 315.747 317.002 315.801C314.016 315.801 310.976 315.747 307.991 315.856C304.897 316.018 302.02 315.312 299.143 314.335C297.46 313.792 295.777 313.411 294.095 312.868C291.055 311.89 288.287 310.424 285.898 308.251C282.641 305.373 279.276 302.602 275.965 299.778C273.685 297.823 272.11 295.324 270.428 292.663C271.622 291.305 272.708 289.838 274.065 288.643C275.313 287.557 276.507 286.416 278.081 285.656C280.253 284.624 281.284 282.342 282.316 280.333C282.533 279.898 282.424 279.246 282.316 278.703C281.556 275.499 280.85 272.24 279.927 269.089C279.601 267.949 279.819 267.243 280.85 266.645C282.316 265.83 283.781 265.124 285.464 264.744C288.287 264.147 291.001 263.223 293.769 262.517C295.506 262.083 297.297 261.757 299.089 261.431C300.446 261.159 301.803 260.616 303.214 260.996C303.811 261.159 304.408 261.322 305.005 261.376C305.603 261.431 306.254 261.376 306.851 261.376C308.154 261.431 309.511 261.431 310.814 261.594C311.954 261.702 313.039 262.028 314.125 262.191C318.522 262.843 322.864 263.386 327.261 264.092C332.038 264.853 336.978 265.124 341.646 266.699C345.5 268.003 349.137 269.741 352.394 272.185C355.542 274.521 357.822 277.671 359.613 281.093C361.622 284.95 362.979 289.132 363.63 293.477C363.793 294.998 364.336 296.465 364.77 297.931Z" fill="#A3A3A3"/>
<path d="M343.171 178.383C343.171 178.546 343.171 178.655 343.117 178.818C340.728 178.818 338.34 178.709 336.006 178.818C332.423 179.035 328.895 179.361 325.312 179.687C319.775 180.175 314.239 180.556 308.756 181.262C304.142 181.805 299.637 182.837 295.077 183.543C288.998 184.466 283.895 187.617 279.01 191.039C278.25 191.582 277.707 192.451 276.838 193.429C275.318 192.777 273.744 192.071 271.899 191.256C273.636 189.138 275.644 187.834 277.707 186.748C279.824 185.661 282.049 184.792 284.221 183.815C285.849 183.054 287.478 182.185 289.215 181.588C293.72 180.067 298.388 178.98 303.111 178.329C309.733 177.351 316.464 177.568 323.141 177.405C326.669 177.351 330.143 177.84 333.672 177.948C335.789 178.003 337.851 177.894 339.968 177.948C341 177.948 342.085 178.22 343.171 178.383Z" fill="#66442C"/>
<path d="M316.57 171.866C316.57 172.029 316.516 172.138 316.516 172.246C316.135 172.192 315.755 172.138 315.429 172.083C315.484 171.92 315.538 171.757 315.538 171.594C315.864 171.703 316.19 171.812 316.57 171.866Z" fill="#4D3826"/>
<path d="M298.929 247.364C300.557 250.46 301.154 253.611 302.24 256.87C293.663 258.282 285.413 260.455 277.162 263.659C274.502 261.595 272.602 258.499 269.779 256.001C274.665 250.895 278.302 245.029 282.427 239.543C282.59 239.597 282.753 239.597 282.916 239.651C283.241 241.715 283.676 243.779 283.838 245.844C284.001 247.799 283.893 249.754 283.947 251.764C283.947 252.416 284.055 253.013 284.164 253.665C284.327 255.24 285.25 256.272 286.715 256.652C288.127 257.033 289.809 256.272 290.786 255.077C292.089 253.502 293.338 251.873 294.803 250.515C295.889 249.265 297.409 248.451 298.929 247.364Z" fill="#0BB20F"/>
<path d="M283.347 177.188C283.401 177.351 283.455 177.46 283.509 177.623C281.447 178.601 279.384 179.633 277.321 180.502C274.119 181.86 271.35 183.924 268.636 186.042C268.093 186.476 267.822 187.237 267.388 187.834C266.736 186.911 266.573 186.476 267.225 184.63C267.713 183.326 267.55 182.185 266.845 180.773C269.559 179.796 272.436 179.687 275.204 178.981C277.918 178.383 280.687 177.786 283.347 177.188Z" fill="#4D3826"/>
<path d="M276.508 279.791C276.888 281.148 276.508 282.235 275.259 282.778C271.242 284.625 268.854 288.372 265.543 291.088C263.046 293.152 260.44 295.379 256.749 295.053C255.338 294.945 253.981 294.782 252.569 294.836C249.964 294.89 247.413 295.271 244.807 295.216C241.387 295.162 238.347 296.303 235.145 297.117C232.594 297.769 229.934 298.204 227.22 297.823C224.994 297.498 222.66 297.606 220.326 297.552C220 297.552 219.62 297.498 219.294 297.389C216.2 296.357 212.943 296.52 209.849 295.705C207.515 295.108 205.29 293.913 202.956 293.098C198.884 291.631 194.759 290.274 190.688 288.753C188.028 287.775 185.477 286.634 182.925 285.494C180.537 284.462 178.257 283.267 175.814 282.398C170.115 280.388 165.501 277.075 161.973 272.186C161.375 271.372 160.833 270.394 160.507 269.416C159.313 265.723 158.227 262.029 157.141 258.336C156.924 257.521 156.979 256.598 156.924 255.674C156.87 255.674 156.816 255.674 156.761 255.62C157.141 251.763 157.521 247.961 157.901 244.105C157.956 243.453 157.901 242.856 157.901 242.204C157.793 239.597 158.281 237.315 159.91 235.088C162.787 231.232 166.749 229.385 171.201 228.353C171.58 228.245 172.015 228.353 172.449 228.407C173.426 228.462 174.457 228.896 175.326 228.625C180.971 226.887 186.399 228.679 191.665 230.091C195.627 231.123 198.776 233.948 201.544 237.044C203.39 239.108 205.561 240.955 207.515 242.91C207.949 243.344 208.492 243.779 208.818 244.268C210.555 246.929 213.106 247.69 215.983 247.038C218.209 246.549 220.38 245.626 222.497 244.811C225.048 243.833 227.6 243.344 230.259 244.213C233.462 245.3 236.773 245.734 240.139 246.06C242.907 246.332 245.784 246.549 248.39 247.418C251.212 248.396 253.818 249.971 256.478 251.438C261.797 254.371 265.597 259.042 269.777 263.278C272.491 266.049 274.011 269.416 274.934 273.164C275.476 275.391 275.965 277.618 276.508 279.791Z" fill="#A3A3A3"/>
<path d="M263.59 236.664C263.644 241.118 263.753 245.572 263.862 250.461C260.767 248.668 258.162 247.202 255.665 245.681C253.059 244.106 250.237 243.4 247.306 242.965C243.397 242.422 239.489 241.933 235.635 241.336C233.409 240.955 231.292 240.304 229.067 239.978C227.547 239.76 226.027 239.923 224.073 239.923C224.507 239 224.724 238.402 225.104 237.859C227.004 234.818 228.958 231.885 231.455 229.223C234.006 226.507 236.069 223.411 238.457 220.37C239.326 220.641 239.217 221.456 239.326 222.216C239.869 225.801 240.357 229.44 241.063 233.025C241.497 235.143 242.203 237.207 243.071 239.217C243.886 241.173 246.111 241.39 247.848 240.086C249.694 238.728 251.051 236.827 252.354 234.872C253.928 232.591 255.773 230.418 257.565 228.3C259.248 226.344 260.93 224.335 263.427 223.085C263.482 227.702 263.536 232.21 263.59 236.664Z" fill="#0BB20F"/>
<path d="M190.092 131.29C191.666 132.81 191.72 134.06 189.44 135.255C188.355 135.852 187.866 136.558 187.758 137.699C187.54 139.763 187.269 141.881 187.106 143.945C186.672 150.029 186.292 156.166 185.912 162.25C185.749 164.477 185.695 166.758 185.586 168.985C185.586 169.039 185.532 169.148 185.586 169.202C186.889 172.896 184.229 174.797 182.058 176.806C180.05 178.653 177.824 180.228 176.087 182.347C174.947 183.705 173.319 184.682 172.016 185.932C168.922 188.756 165.828 191.58 162.734 194.514C159.694 197.447 156.708 200.434 153.668 203.313C148.457 208.31 143.246 213.361 137.927 218.25C136.895 219.227 137.004 220.259 137.058 221.291C137.384 225.637 137.384 229.982 137.167 234.327C136.841 239.922 136.895 245.571 136.732 251.165C136.515 257.14 136.298 263.06 135.972 269.035C135.701 273.652 135.484 278.269 134.887 282.886C134.181 288.426 134.398 293.966 134.235 299.507C134.127 303.309 133.964 307.057 133.855 310.859C133.747 313.52 133.638 316.182 133.53 318.843C133.53 319.223 133.638 319.658 133.693 319.984C134.941 320.364 135.05 319.332 135.484 318.789C136.081 318.083 136.515 317.377 137.601 317.214C139.718 316.833 140.858 317.757 140.749 319.929C140.641 322.265 140.532 324.546 140.369 326.882C140.206 329.543 140.044 332.205 139.881 334.866C139.826 335.518 139.881 336.224 139.881 337.202C140.478 336.876 140.858 336.767 141.075 336.55C143.301 334.323 145.526 332.042 147.806 329.869C151.443 326.393 155.134 322.917 158.879 319.495C159.477 318.952 160.291 318.517 161.051 318.409C162.788 318.137 163.602 319.06 163.656 320.853C163.711 325.578 161.974 329.761 160.182 333.997C158.445 338.125 156.817 342.308 155.134 346.49C154.32 348.554 153.397 350.672 152.637 352.736C152.094 354.203 152.094 354.529 153.397 355.398C156.274 357.462 157.848 360.504 159.151 363.545C160.617 367.022 161.702 370.715 162.625 374.354C163.222 376.744 162.788 379.08 161.159 381.089C159.259 383.425 157.197 385.598 155.08 387.716C152.746 390.106 150.194 392.17 147.372 393.854C144.495 395.592 141.401 396.95 137.927 396.95C135.538 396.95 133.204 397.927 130.816 397.221C128.59 396.57 126.419 396.732 124.139 397.004C123.488 397.058 122.728 396.841 122.131 396.624C120.448 396.026 118.765 395.755 116.974 395.646C114.151 395.538 111.437 395.212 108.723 394.18C106.226 393.256 103.675 394.017 101.395 395.157C98.0835 396.787 94.7723 397.33 91.1897 396.135C90.9726 396.081 90.8097 395.972 90.5926 395.918C85.4358 395.103 82.1246 391.518 78.8677 387.879C75.7193 384.403 74.5794 380.003 73.548 375.604C73.1138 373.757 73.0595 371.801 73.1681 369.955C73.2223 368.814 73.6566 367.619 74.2537 366.587C75.3393 364.632 76.5878 362.731 77.9449 360.938C78.8134 359.852 79.8448 358.82 81.039 358.168C85.273 355.995 89.7784 354.42 94.3924 353.225C97.4864 352.465 100.689 352.573 103.783 352.03C104.217 351.976 104.597 351.867 105.14 351.813C104.706 350.401 104.38 349.097 103.946 347.739C103.077 345.132 102.1 342.579 101.232 339.972C100.689 338.397 100.255 336.767 99.7663 335.192C99.0606 333.074 98.3007 330.956 97.595 328.837C97.215 327.751 97.0522 326.61 97.8664 325.633C98.7349 324.655 99.9291 324.709 101.015 325.09C102.263 325.578 103.457 326.23 104.543 326.936C106.769 328.403 108.831 330.032 110.677 332.042C113.445 335.029 116.322 337.854 119.525 341.113C119.634 339.212 120.122 337.799 119.742 336.605C119.145 334.703 119.362 332.857 119.254 331.01C118.928 325.198 118.819 319.386 119.416 313.574C119.851 309.284 120.176 304.938 120.556 300.647C120.828 297.443 121.208 294.238 121.479 291.033C121.751 287.285 122.076 283.538 122.131 279.736C122.185 276.585 122.022 273.489 121.968 270.339C121.968 270.285 121.968 270.176 121.968 270.122C122.076 267.189 122.131 264.255 122.348 261.322C122.456 259.856 122.565 258.444 122.348 256.977C122.131 255.728 122.348 254.37 122.348 253.066C122.456 249.862 122.619 246.657 122.728 243.452C122.782 241.606 122.673 239.813 122.673 237.966C122.673 236.989 122.782 236.011 122.782 235.033C122.782 234.599 122.565 234.164 122.402 233.404C120.611 235.359 118.819 236.826 117.679 238.836C117.625 238.944 117.571 239.107 117.462 239.216C115.834 240.628 114.205 242.094 112.523 243.398C111.383 244.321 109.971 243.941 108.669 243.615C105.249 242.801 102.046 241.28 98.8435 239.813C95.2609 238.184 91.7325 236.391 88.0956 234.925C85.1644 233.73 82.1246 232.915 79.0848 231.937C73.4938 230.145 67.9027 228.244 62.4745 225.908C59.6518 224.713 57.1548 223.138 54.6036 221.454C52.378 219.988 51.6723 217.978 51.6181 215.588C51.5638 210.157 51.5638 204.779 51.5638 199.348C51.5638 194.514 51.6181 189.625 51.7266 184.791C51.7809 182.89 51.9438 180.989 51.998 179.088C52.0523 174.96 51.998 170.832 51.998 166.432C52.1066 166.595 52.0523 166.432 51.9438 166.378C49.6096 165.4 49.3382 164.857 49.9353 162.358C50.3696 160.675 50.5867 158.882 51.1838 157.253C51.7266 155.84 52.4323 154.374 53.3551 153.179C55.4721 150.463 57.8062 147.965 60.3575 145.629C64.3744 141.936 68.9341 139.165 73.6023 136.395C75.2851 135.363 76.805 134.114 78.4877 133.082C81.7446 131.127 85.0016 129.226 88.3128 127.379C91.5697 125.532 94.7181 123.577 98.1378 122.056C103.023 119.883 107.203 116.679 111.763 114.071C115.291 112.062 118.982 110.324 122.673 108.531C126.31 106.739 130.001 105.055 133.693 103.317C135.972 102.23 138.198 100.981 140.532 100.058C142.269 99.3517 144.223 99.1344 146.069 98.6999C146.286 98.6456 146.503 98.6456 146.72 98.6999C149.597 99.4603 152.583 98.9172 155.46 99.9492C157.902 100.818 160.508 101.253 162.951 102.068C166.425 103.317 169.519 105.109 172.179 107.771C174.296 109.889 176.738 111.736 178.801 113.963C180.918 116.19 182.926 118.58 184.718 121.078C185.749 122.545 186.346 124.337 187.106 126.021C187.758 128.085 188.572 129.823 190.092 131.29ZM183.524 133.951C184.284 133.408 184.338 132.865 183.849 131.996C182.872 130.475 181.841 128.9 181.298 127.162C180.104 123.577 177.715 120.807 175.273 118.199C173.047 115.809 170.333 113.8 168.107 111.41C165.773 108.966 162.951 107.499 159.857 106.576C157.034 105.707 154.103 105.272 151.28 104.512C146.775 103.262 142.703 104.294 138.795 106.63C138.198 107.01 137.601 107.445 137.004 107.716C131.901 110.106 126.853 112.496 121.751 114.886C120.502 115.484 119.199 115.972 117.897 116.57C117.191 116.896 116.485 117.167 115.834 117.493C113.825 118.471 111.871 119.394 110.188 121.024C108.18 122.979 105.737 124.337 102.969 125.206C100.472 126.021 97.975 127.162 95.858 128.682C93.4153 130.421 91.0269 132.267 88.1499 133.245C84.8387 134.386 82.0703 136.341 79.3019 138.405C78.8134 138.785 78.4334 139.383 77.782 140.143C79.2477 140.252 80.3333 140.306 81.4732 140.469C85.6529 141.066 89.6155 142.587 93.5781 143.945C94.6638 144.325 95.6951 145.032 96.6179 145.738C98.8978 147.421 101.232 149.105 103.295 151.115C105.032 152.744 106.389 154.591 107.854 156.438C108.94 157.85 109.7 159.534 110.514 161.163C113.554 167.518 115.671 174.091 115.291 181.26C115.237 182.075 115.454 182.836 115.562 184.085C117.082 182.999 118.276 182.184 119.416 181.26C124.845 176.969 130.273 172.624 135.755 168.279C136.895 167.355 138.089 166.486 139.284 165.617C141.292 164.097 143.409 162.684 145.363 161.163C150.303 157.307 155.025 153.233 160.128 149.594C165.882 145.466 171.961 141.773 177.878 137.862C179.724 136.613 181.624 135.309 183.524 133.951ZM182.546 142.968C182.601 142.261 182.546 141.501 182.492 140.523C181.787 140.849 181.407 141.012 181.081 141.229C176.847 143.837 173.156 147.204 168.705 149.485C166.425 150.68 164.362 152.31 162.245 153.831C159.639 155.678 157.034 157.579 154.483 159.588C150.574 162.576 146.775 165.672 142.866 168.659C138.252 172.19 133.53 175.666 128.916 179.196C126.147 181.315 123.488 183.596 120.719 185.823C119.036 187.181 117.354 188.484 116.539 190.657C116.322 191.363 115.454 191.906 114.748 192.287C114.097 192.667 113.337 192.775 112.523 193.047C112.468 193.427 112.36 193.862 112.36 194.296C112.36 199.022 112.305 203.747 112.305 208.418C112.305 209.668 112.577 210.917 112.468 212.221C112.251 216.077 111.925 219.933 111.6 223.736C111.166 228.244 112.143 232.643 112.088 237.152C112.088 237.315 112.251 237.532 112.414 237.803C112.74 237.586 113.065 237.478 113.283 237.26C114.097 236.391 114.857 235.468 115.671 234.599C119.308 230.905 122.999 227.212 126.636 223.518C129.513 220.585 132.336 217.652 135.212 214.773C137.601 212.384 140.044 210.102 142.486 207.712C143.735 206.463 144.875 205.16 146.123 203.91C149.652 200.488 153.234 197.121 156.762 193.699C162.299 188.322 167.836 182.944 173.373 177.567C173.753 177.187 174.241 176.806 174.676 176.481C176.358 175.123 178.095 173.765 179.832 172.461C180.647 171.864 180.972 171.103 180.972 170.071C180.972 168.116 180.972 166.161 181.081 164.205C181.569 157.144 182.112 150.029 182.546 142.968ZM154.7 381.198C157.522 379.297 157.631 376.527 156.925 373.702C156.111 370.498 155.025 367.347 153.777 364.306C153.126 362.676 151.823 361.264 150.737 359.635C150.194 360.015 150.032 360.123 149.869 360.286C148.729 361.264 147.48 361.047 146.34 360.504C145.2 359.906 145.418 358.82 145.689 357.733C146.069 356.267 145.635 355.669 144.06 355.398C141.781 355.018 139.501 354.583 137.221 354.42C134.724 354.203 132.173 354.04 129.676 354.257C126.202 354.583 122.999 355.832 119.905 357.353C118.602 358.005 117.137 358.385 115.725 358.766C113.934 359.2 112.251 358.928 110.731 357.951C109.537 357.19 108.343 356.484 107.094 355.832C106.389 355.452 105.52 354.963 104.76 355.072C102.318 355.235 99.8749 355.561 97.4864 356.05C93.4696 356.81 89.6698 358.277 85.8701 359.852C84.1873 360.558 82.4503 361.318 81.3104 362.839C79.7362 364.903 78.3249 367.076 76.9135 369.249C76.5878 369.737 76.5335 370.498 76.6421 371.041C77.3478 374.843 78.162 378.591 80.0619 382.013C81.1475 384.022 82.5589 385.869 83.8616 387.716C84.1873 388.151 84.6216 388.531 85.1101 388.857C86.4129 389.834 87.6071 391.029 89.0184 391.681C91.2983 392.713 93.6324 393.799 96.238 392.604C97.1065 392.17 97.975 391.572 98.8978 391.409C102.372 390.703 105.9 390.106 109.429 389.508C110.297 389.345 111.003 389.617 111.708 390.323C112.197 390.812 113.011 391.084 113.717 391.247C116.539 392.007 119.416 391.681 122.348 391.735C122.999 391.735 123.868 391.898 124.193 392.333C124.845 393.093 125.605 393.202 126.419 393.202C127.124 393.202 127.83 393.148 128.536 393.311C130.761 393.799 132.933 393.799 135.212 393.636C138.144 393.419 140.695 392.496 143.192 391.138C147.48 388.802 150.846 385.435 154.211 382.013C154.32 381.633 154.483 381.361 154.7 381.198ZM155.894 331.77C156.328 330.847 156.871 329.815 156.491 328.348C154.645 330.141 153.017 331.716 151.389 333.237C147.263 337.039 143.246 341.004 139.718 345.349C138.687 346.599 137.058 346.925 135.321 346.218C134.018 345.675 134.127 344.426 134.018 343.34C134.018 343.122 134.073 342.905 134.073 342.688C134.398 340.081 134.724 337.528 134.941 334.921C135.158 332.639 135.213 330.358 135.321 328.077C135.213 328.023 135.05 327.914 134.941 327.86C134.073 328.892 133.096 329.924 132.39 331.064C131.467 332.477 130.761 333.997 129.893 335.41C127.667 338.994 125.442 342.525 123.162 346.11C122.89 346.49 122.51 346.87 122.131 347.088C120.665 347.848 117.788 347.25 116.811 346.164C114.477 343.666 112.143 341.113 109.7 338.669C107.909 336.822 106.009 335.029 104.163 333.183C103.892 332.965 103.566 332.857 102.915 332.531C103.24 333.563 103.403 334.215 103.675 334.866C104.217 336.17 104.815 337.419 105.412 338.669C106.932 341.819 106.986 345.458 108.723 348.554C109.646 350.184 110.243 352.03 110.948 353.768C111.274 354.583 111.871 354.855 112.577 354.8C113.283 354.746 113.988 354.637 114.64 354.366C116.865 353.551 119.145 352.845 121.316 351.867C123.922 350.672 126.69 350.238 129.459 349.966C131.738 349.749 134.073 349.966 136.407 350.075C138.089 350.184 139.772 350.401 141.401 350.618C143.463 350.89 145.526 351.27 147.643 351.65C147.969 350.944 148.294 350.401 148.512 349.803C150.629 343.72 153.017 337.637 155.894 331.77ZM131.793 236.283C131.847 233.947 131.956 231.666 131.901 229.33C131.901 227.972 131.684 226.614 131.63 225.311C131.467 225.256 131.358 225.202 131.196 225.148C130.273 226.126 129.241 227.049 128.427 228.135C128.156 228.515 128.102 229.276 128.21 229.765C128.861 232.046 127.993 234.273 128.21 236.554C128.373 238.564 127.83 240.574 127.776 242.583C127.722 245.679 127.884 248.775 127.884 251.871C127.884 253.935 128.102 255.999 128.102 258.063C128.102 262.246 127.667 266.482 127.559 270.665C127.45 274.901 127.613 279.138 127.396 283.32C127.179 288.155 126.69 292.989 126.256 297.769C125.93 301.516 125.442 305.318 125.062 309.066C125.007 309.555 125.007 310.044 125.007 310.533C125.007 311.565 124.953 312.651 124.953 313.683C124.899 317.431 124.139 321.07 124.519 324.818C124.79 327.534 124.79 330.25 124.953 332.965C126.039 331.499 127.559 330.412 127.504 328.348C127.45 325.524 127.776 322.754 127.884 319.929C128.047 315.91 128.156 311.945 128.319 307.926C128.373 306.133 128.699 304.286 128.753 302.494C128.807 299.507 128.536 296.465 128.699 293.478C128.97 287.557 129.513 281.691 129.839 275.77C130.219 270.23 130.599 264.69 130.87 259.15C131.087 254.261 131.196 249.319 131.413 244.43C131.521 241.769 131.738 238.998 131.793 236.283ZM109.211 184.791C109.808 176.644 107.746 169.039 104.163 161.815C103.023 159.534 101.395 157.579 99.8748 155.623C97.5407 152.636 94.7723 150.192 91.4069 148.562C89.8327 147.802 88.1499 147.313 86.4672 146.77C80.0619 144.651 73.7652 143.945 67.5227 147.367C67.4142 147.421 67.2513 147.421 67.1427 147.476C64.2115 148.888 61.1174 150.083 59.0547 152.907C57.4263 155.134 55.7978 157.307 55.4178 160.186C55.2007 161.761 55.255 161.978 56.7206 162.521C58.4033 163.173 60.0861 163.879 61.7688 164.585C63.2887 165.237 64.8086 165.889 66.3285 166.486C69.4226 167.79 72.571 168.985 75.665 170.289C78.7048 171.592 81.6903 172.896 84.7301 174.199C86.7929 175.068 88.9641 175.774 90.9183 176.861C94.0124 178.49 97.4322 179.359 100.418 181.315C103.023 182.944 106.063 183.922 109.049 185.171C109.103 185.063 109.211 184.9 109.211 184.791ZM107.529 212.166C107.529 206.137 107.474 200.054 107.474 194.025C107.474 190.603 107.42 190.603 104.597 188.865C104.38 188.702 104.109 188.593 103.837 188.484C99.0606 186.203 94.3381 183.868 89.5612 181.749C84.1873 179.359 78.7048 177.187 73.3309 174.851C68.5541 172.787 63.8315 170.669 59.0547 168.55C57.6434 167.899 57.0463 168.387 57.0463 170.017C57.0463 174.091 56.992 178.164 56.8834 182.184C56.8292 185.932 56.612 189.679 56.612 193.482C56.612 196.089 56.8291 198.642 56.8291 201.249C56.8291 203.367 56.612 205.485 56.6663 207.549C56.7206 209.613 56.4492 211.623 56.7749 213.687C57.0463 215.697 57.7519 217.109 59.3261 218.195C62.4202 220.368 65.84 222.052 69.3683 223.355C74.1994 225.202 79.1934 226.723 84.0788 228.352C86.9014 229.276 89.7784 230.036 92.4925 231.123C96.6179 232.806 100.581 234.762 104.652 236.554C105.303 236.88 106.063 237.043 106.932 237.315C106.986 236.609 107.094 236.228 107.04 235.848C106.769 229.819 106.66 223.736 107.312 217.707C107.42 215.86 107.529 214.013 107.529 212.166Z" fill="#29353A"/>
<path d="M183.848 131.996C184.391 132.865 184.283 133.462 183.523 133.951C181.623 135.309 179.723 136.613 177.769 137.916C171.852 141.827 165.772 145.52 160.019 149.648C154.916 153.288 150.193 157.361 145.254 161.218C143.3 162.793 141.183 164.205 139.174 165.672C137.98 166.541 136.786 167.41 135.646 168.333C130.218 172.624 124.789 176.969 119.307 181.315C118.167 182.184 116.973 182.999 115.453 184.139C115.344 182.89 115.127 182.129 115.182 181.315C115.562 174.145 113.445 167.573 110.405 161.218C109.645 159.588 108.885 157.904 107.745 156.492C106.334 154.646 104.922 152.799 103.185 151.169C101.068 149.16 98.7883 147.53 96.5085 145.792C95.5857 145.086 94.5543 144.38 93.4687 144C89.5061 142.642 85.5435 141.121 81.3638 140.523C80.2781 140.36 79.1382 140.306 77.6726 140.197C78.324 139.437 78.6497 138.84 79.1925 138.459C81.9609 136.395 84.7293 134.44 88.0405 133.299C90.9174 132.322 93.2516 130.475 95.7486 128.737C97.8656 127.216 100.363 126.075 102.859 125.26C105.628 124.391 108.071 123.034 110.079 121.078C111.762 119.449 113.716 118.471 115.724 117.548C116.43 117.222 117.136 116.896 117.787 116.624C119.09 116.081 120.338 115.538 121.641 114.94C126.744 112.551 131.846 110.161 136.894 107.771C137.546 107.445 138.089 107.065 138.686 106.684C142.54 104.349 146.611 103.317 151.171 104.566C153.993 105.381 156.924 105.815 159.747 106.63C162.841 107.553 165.664 109.02 167.998 111.464C170.278 113.854 172.938 115.864 175.163 118.254C177.606 120.915 179.994 123.631 181.189 127.216C181.84 128.9 182.871 130.475 183.848 131.996Z" fill="#4343A8"/>
<path d="M182.492 140.523C182.492 141.501 182.6 142.261 182.546 142.967C182.112 150.028 181.569 157.144 181.189 164.205C181.08 166.16 181.135 168.116 181.08 170.071C181.08 171.049 180.7 171.809 179.94 172.461C178.203 173.765 176.521 175.122 174.784 176.48C174.349 176.806 173.915 177.186 173.481 177.567C167.944 182.944 162.407 188.321 156.87 193.699C153.342 197.12 149.76 200.488 146.231 203.91C144.983 205.105 143.843 206.463 142.594 207.712C140.206 210.102 137.709 212.383 135.32 214.773C132.444 217.652 129.621 220.639 126.744 223.518C123.107 227.212 119.416 230.905 115.779 234.599C114.965 235.468 114.205 236.391 113.391 237.26C113.173 237.477 112.848 237.586 112.522 237.803C112.359 237.477 112.196 237.314 112.196 237.151C112.251 232.698 111.328 228.244 111.708 223.735C112.033 219.879 112.359 216.022 112.576 212.22C112.631 210.971 112.413 209.722 112.413 208.418C112.413 203.693 112.413 198.967 112.468 194.296C112.468 193.861 112.576 193.481 112.631 193.047C113.445 192.775 114.205 192.667 114.856 192.286C115.562 191.852 116.43 191.309 116.647 190.657C117.407 188.484 119.09 187.181 120.827 185.823C123.541 183.65 126.201 181.369 129.024 179.196C133.638 175.666 138.36 172.189 142.974 168.659C146.883 165.671 150.682 162.575 154.591 159.588C157.142 157.633 159.747 155.732 162.353 153.831C164.47 152.31 166.533 150.68 168.813 149.485C173.264 147.204 176.955 143.836 181.189 141.229C181.406 141.012 181.786 140.849 182.492 140.523Z" fill="#6891D8"/>
<path d="M156.926 373.757C157.686 376.581 157.523 379.351 154.7 381.252C154.483 381.415 154.374 381.687 154.157 381.904C150.792 385.326 147.426 388.694 143.138 391.029C140.641 392.387 138.09 393.365 135.159 393.528C132.879 393.691 130.707 393.691 128.482 393.202C127.831 393.039 127.071 393.148 126.365 393.093C125.496 393.093 124.791 392.985 124.139 392.224C123.759 391.79 122.891 391.627 122.294 391.627C119.417 391.573 116.54 391.898 113.663 391.138C112.957 390.975 112.143 390.703 111.654 390.215C110.949 389.509 110.243 389.291 109.375 389.4C105.846 389.997 102.318 390.595 98.8439 391.301C97.9211 391.464 97.0526 392.116 96.1841 392.496C93.5785 393.691 91.1901 392.605 88.9646 391.573C87.5532 390.921 86.359 389.726 85.0562 388.748C84.622 388.422 84.1334 388.042 83.8078 387.607C82.505 385.706 81.0936 383.86 80.008 381.904C78.1081 378.482 77.2939 374.735 76.5882 370.932C76.4797 370.335 76.5882 369.629 76.8596 369.14C78.271 366.967 79.6823 364.795 81.2565 362.731C82.3964 361.21 84.1334 360.449 85.8162 359.743C89.5617 358.168 93.3614 356.702 97.4326 355.941C99.821 355.507 102.264 355.181 104.706 354.963C105.466 354.909 106.335 355.398 107.04 355.724C108.289 356.376 109.483 357.082 110.677 357.842C112.252 358.874 113.934 359.146 115.671 358.657C117.083 358.277 118.548 357.897 119.851 357.245C122.999 355.724 126.202 354.475 129.622 354.149C132.119 353.931 134.67 354.094 137.167 354.312C139.447 354.475 141.781 354.909 144.007 355.289C145.581 355.561 146.015 356.213 145.635 357.625C145.309 358.766 145.147 359.798 146.286 360.395C147.426 360.993 148.675 361.21 149.815 360.178C149.978 360.015 150.14 359.961 150.683 359.526C151.823 361.21 153.072 362.568 153.723 364.197C155.026 367.402 156.057 370.552 156.926 373.757Z" fill="#A3A3A3"/>
<path d="M156.493 328.348C156.818 329.815 156.33 330.847 155.896 331.77C153.073 337.636 150.684 343.72 148.567 349.912C148.35 350.509 148.025 351.052 147.699 351.759C145.582 351.378 143.519 351.053 141.456 350.727C139.774 350.455 138.145 350.238 136.463 350.183C134.128 350.075 131.794 349.858 129.514 350.075C126.746 350.346 123.978 350.835 121.372 351.976C119.201 352.954 116.921 353.66 114.695 354.474C114.044 354.692 113.338 354.855 112.633 354.909C111.927 354.963 111.276 354.692 111.004 353.877C110.299 352.085 109.701 350.292 108.779 348.663C107.096 345.567 106.987 341.927 105.467 338.777C104.87 337.528 104.273 336.279 103.73 334.975C103.459 334.323 103.296 333.671 102.97 332.639C103.568 332.965 103.948 333.074 104.219 333.291C106.065 335.084 107.964 336.876 109.756 338.777C112.144 341.221 114.533 343.774 116.867 346.273C117.844 347.305 120.721 347.902 122.186 347.196C122.621 346.979 123.001 346.599 123.218 346.218C125.498 342.688 127.723 339.103 129.949 335.518C130.817 334.106 131.523 332.531 132.446 331.173C133.206 330.032 134.128 329.054 134.997 327.968C135.105 328.022 135.268 328.131 135.377 328.185C135.268 330.467 135.214 332.748 134.997 335.029C134.78 337.636 134.4 340.189 134.128 342.796C134.128 343.014 134.074 343.231 134.074 343.448C134.183 344.535 134.074 345.784 135.377 346.327C137.114 347.033 138.742 346.762 139.774 345.458C143.302 341.058 147.319 337.148 151.444 333.345C153.019 331.716 154.593 330.141 156.493 328.348Z" fill="#0BB20F"/>
<path d="M131.956 229.331C131.956 231.667 131.902 233.948 131.848 236.284C131.739 239 131.576 241.77 131.468 244.485C131.251 249.374 131.196 254.317 130.925 259.205C130.654 264.745 130.274 270.286 129.894 275.826C129.514 281.746 129.025 287.612 128.754 293.533C128.591 296.52 128.862 299.508 128.808 302.549C128.808 304.396 128.482 306.189 128.374 307.981C128.211 312 128.102 315.965 127.939 319.985C127.831 322.809 127.505 325.579 127.559 328.404C127.559 330.468 126.04 331.554 125.008 333.021C124.845 330.305 124.845 327.589 124.574 324.873C124.194 321.125 124.954 317.432 125.008 313.738C125.008 312.706 125.063 311.62 125.063 310.588C125.063 310.099 125.063 309.61 125.117 309.122C125.497 305.374 125.931 301.572 126.311 297.824C126.745 292.99 127.234 288.156 127.451 283.376C127.668 279.139 127.451 274.957 127.614 270.72C127.722 266.484 128.211 262.301 128.157 258.119C128.157 256.055 127.939 253.991 127.939 251.927C127.939 248.831 127.777 245.735 127.831 242.639C127.885 240.629 128.428 238.565 128.265 236.61C128.048 234.328 128.917 232.101 128.265 229.82C128.102 229.331 128.157 228.571 128.482 228.191C129.297 227.104 130.328 226.181 131.251 225.203C131.414 225.258 131.522 225.312 131.685 225.366C131.739 226.615 131.956 227.973 131.956 229.331Z" fill="#2A287F"/>
<path d="M104.168 161.815C107.751 169.094 109.759 176.644 109.216 184.791C109.216 184.9 109.108 185.063 109.053 185.171C106.068 183.868 103.028 182.944 100.423 181.315C97.4371 179.414 94.0173 178.545 90.9232 176.861C88.9691 175.774 86.7978 175.123 84.7351 174.199C81.6953 172.896 78.7098 171.592 75.67 170.289C72.5759 168.985 69.4275 167.736 66.3335 166.486C64.8136 165.835 63.2937 165.183 61.7738 164.585C60.091 163.879 58.4083 163.173 56.7255 162.521C55.3142 161.978 55.2056 161.707 55.4228 160.186C55.7484 157.307 57.4312 155.134 59.0597 152.907C61.0681 150.083 64.1622 148.888 67.1477 147.476C67.2563 147.421 67.4191 147.421 67.5277 147.367C73.7158 143.945 80.0668 144.651 86.4721 146.77C88.1549 147.313 89.8376 147.802 91.4118 148.562C94.7773 150.246 97.5457 152.636 99.8798 155.623C101.4 157.579 103.028 159.534 104.168 161.815Z" fill="#20207F"/>
<path d="M107.474 194.023C107.529 200.052 107.529 206.136 107.529 212.165C107.529 214.012 107.42 215.804 107.203 217.651C106.552 223.68 106.66 229.709 106.931 235.792C106.931 236.173 106.877 236.607 106.823 237.259C105.954 236.987 105.249 236.824 104.543 236.498C100.472 234.706 96.5093 232.751 92.3839 231.067C89.6698 229.981 86.7928 229.22 83.9702 228.297C79.0848 226.667 74.0908 225.146 69.2597 223.3C65.7314 221.942 62.3116 220.312 59.2175 218.14C57.6433 216.999 56.9377 215.587 56.6663 213.631C56.3949 211.567 56.6663 209.558 56.5577 207.494C56.5034 205.375 56.7206 203.257 56.7206 201.193C56.7206 198.586 56.5034 196.033 56.5034 193.426C56.5577 189.678 56.7205 185.93 56.7748 182.128C56.8291 178.054 56.9377 173.981 56.9377 169.961C56.9377 168.332 57.5348 167.843 58.9461 168.495C63.7229 170.613 68.4455 172.731 73.2223 174.795C78.6505 177.131 84.0787 179.304 89.4527 181.693C94.2838 183.866 99.0063 186.202 103.729 188.429C104 188.537 104.217 188.646 104.489 188.809C107.42 190.601 107.474 190.601 107.474 194.023ZM91.4611 222.105C92.4924 221.779 92.981 220.855 92.8724 219.769C92.7639 218.52 92.221 217.977 90.9725 217.651C89.6155 217.271 88.3127 216.836 86.9557 216.401C86.0872 216.13 85.87 215.532 85.9786 214.609C86.4129 210.59 86.25 206.462 87.2814 202.497C87.3899 202.116 87.3899 201.682 87.4442 201.247C87.4985 197.011 87.4985 192.774 87.4985 188.483C87.4985 187.831 87.3357 187.234 87.3357 186.582C87.2814 185.496 86.63 185.061 85.6529 185.115C84.893 185.115 84.133 185.333 83.4273 185.604C82.1246 186.093 80.8218 186.636 79.5733 187.288C77.022 188.7 74.4708 190.167 71.9738 191.742C70.5625 192.611 70.6168 193.915 72.0824 194.675C72.7338 195.001 73.7651 195.164 74.4708 194.892C75.7736 194.458 76.9678 193.697 78.162 192.991C79.4105 192.231 80.5504 191.362 82.0703 190.33C82.2874 191.253 82.5045 191.796 82.5045 192.394C82.5045 195.001 82.396 197.608 82.3417 200.215C82.3417 201.03 82.6674 202.008 82.396 202.714C81.2561 205.538 81.1475 208.417 81.2018 211.35C81.2561 213.794 80.659 214.175 78.3248 213.143C76.5335 212.382 75.0679 213.143 73.4937 213.794C72.4624 214.229 72.3538 215.044 72.1367 215.967C72.5166 216.293 72.788 216.619 73.1137 216.836C73.3852 217.053 73.7108 217.162 74.0365 217.271C78.8134 219.117 83.5359 221.073 88.5299 222.322C89.6698 222.648 90.5383 222.431 91.4611 222.105ZM80.9304 203.637C80.9846 203.04 80.9846 202.442 81.0389 201.845C80.8761 201.845 80.7132 201.845 80.6047 201.845C80.659 202.442 80.659 203.04 80.7132 203.583C80.7675 203.637 80.8761 203.637 80.9304 203.637Z" fill="#6891D8"/>
<path d="M92.8723 219.77C92.9809 220.856 92.4923 221.725 91.4609 222.106C90.5382 222.432 89.6696 222.649 88.5297 222.377C83.5358 221.128 78.8132 219.173 74.0364 217.326C73.7107 217.217 73.385 217.054 73.1136 216.891C72.7879 216.674 72.5165 216.348 72.1365 216.022C72.3537 215.099 72.4622 214.284 73.4936 213.85C75.0678 213.198 76.5334 212.437 78.3247 213.198C80.6588 214.23 81.2559 213.85 81.2016 211.405C81.0931 208.418 81.2559 205.539 82.3958 202.769C82.6673 202.063 82.3416 201.14 82.3416 200.271C82.3958 197.663 82.5044 195.056 82.5044 192.449C82.5044 191.906 82.2873 191.308 82.0702 190.385C80.5503 191.417 79.4103 192.286 78.1618 193.046C76.9676 193.753 75.7734 194.513 74.4707 194.948C73.765 195.219 72.7879 195.056 72.0822 194.73C70.6166 193.97 70.5623 192.721 71.9737 191.797C74.4707 190.222 77.0219 188.756 79.5732 187.343C80.8217 186.637 82.1244 186.148 83.4272 185.659C84.1329 185.388 84.9471 185.225 85.6528 185.171C86.5756 185.171 87.2812 185.551 87.3355 186.637C87.3898 187.289 87.4984 187.886 87.4984 188.538C87.4984 192.775 87.4441 197.012 87.4441 201.303C87.4441 201.737 87.3898 202.172 87.2812 202.552C86.2499 206.517 86.4127 210.645 85.9785 214.664C85.8699 215.588 86.087 216.185 86.9555 216.457C88.2583 216.891 89.6154 217.326 90.9724 217.706C92.2209 217.978 92.7637 218.521 92.8723 219.77Z" fill="black"/>
<path d="M81.039 201.899C80.9847 202.497 80.9847 203.094 80.9304 203.692C80.8761 203.692 80.7674 203.692 80.7131 203.692C80.6588 203.094 80.6588 202.497 80.6045 201.954C80.7674 201.899 80.9304 201.899 81.039 201.899Z" fill="black"/>
<path d="M385.29 271.59C385.29 271.59 383.552 275.772 385.29 276.478C387.028 277.184 388.06 274.74 388.06 274.414C388.06 274.088 387.354 271.97 387.354 271.97L385.29 271.59Z" fill="#895B38"/>
<path d="M379.864 234.274C379.864 234.274 378.18 238.293 379.864 238.945C381.548 239.597 382.526 237.261 382.526 236.935C382.526 236.609 381.874 234.6 381.874 234.6L379.864 234.274Z" fill="#895B38"/>
<path d="M467.852 251.057C467.852 251.057 468.938 257.249 471.545 256.76C474.152 256.271 473.501 252.632 473.229 252.198C472.958 251.763 470.568 249.862 470.568 249.862L467.852 251.057Z" fill="#895B38"/>
<path d="M414.279 233.027C415.329 233.027 416.18 232.175 416.18 231.126C416.18 230.076 415.329 229.224 414.279 229.224C413.229 229.224 412.378 230.076 412.378 231.126C412.378 232.175 413.229 233.027 414.279 233.027Z" fill="#895B38"/>
<path d="M297.788 223.248C298.658 223.248 299.363 222.543 299.363 221.673C299.363 220.803 298.658 220.098 297.788 220.098C296.918 220.098 296.213 220.803 296.213 221.673C296.213 222.543 296.918 223.248 297.788 223.248Z" fill="#895B38"/>
<path d="M329.869 234.112C330.769 234.112 331.498 233.382 331.498 232.483C331.498 231.583 330.769 230.853 329.869 230.853C328.969 230.853 328.239 231.583 328.239 232.483C328.239 233.382 328.969 234.112 329.869 234.112Z" fill="#895B38"/>
<path d="M254.688 193.375C255.438 193.375 256.046 192.768 256.046 192.018C256.046 191.268 255.438 190.66 254.688 190.66C253.938 190.66 253.33 191.268 253.33 192.018C253.33 192.768 253.938 193.375 254.688 193.375Z" fill="#895B38"/>
<path d="M433.548 211.299C434.448 211.299 435.177 210.569 435.177 209.669C435.177 208.769 434.448 208.04 433.548 208.04C432.648 208.04 431.918 208.769 431.918 209.669C431.918 210.569 432.648 211.299 433.548 211.299Z" fill="#895B38"/>
<path d="M378.179 218.358C379.679 218.358 380.895 217.993 380.895 217.544C380.895 217.094 379.679 216.729 378.179 216.729C376.679 216.729 375.463 217.094 375.463 217.544C375.463 217.993 376.679 218.358 378.179 218.358Z" fill="#895B38"/>
<path d="M354.838 221.075C355.738 221.075 356.468 220.346 356.468 219.446C356.468 218.546 355.738 217.816 354.838 217.816C353.938 217.816 353.209 218.546 353.209 219.446C353.209 220.346 353.938 221.075 354.838 221.075Z" fill="#895B38"/>
<path d="M272.761 209.777C273.511 209.777 274.119 208.537 274.119 207.007C274.119 205.477 273.511 204.237 272.761 204.237C272.011 204.237 271.403 205.477 271.403 207.007C271.403 208.537 272.011 209.777 272.761 209.777Z" fill="#895B38"/>
<path d="M279.118 221.618C279.868 221.618 280.476 221.01 280.476 220.26C280.476 219.51 279.868 218.902 279.118 218.902C278.368 218.902 277.76 219.51 277.76 220.26C277.76 221.01 278.368 221.618 279.118 221.618Z" fill="#895B38"/>
<path d="M314.128 236.827C315.328 236.827 316.301 235.854 316.301 234.654C316.301 233.454 315.328 232.481 314.128 232.481C312.929 232.481 311.956 233.454 311.956 234.654C311.956 235.854 312.929 236.827 314.128 236.827Z" fill="#895B38"/>
<path d="M354.567 256.381C355.317 256.381 355.925 255.652 355.925 254.752C355.925 253.852 355.317 253.122 354.567 253.122C353.817 253.122 353.209 253.852 353.209 254.752C353.209 255.652 353.817 256.381 354.567 256.381Z" fill="#895B38"/>
<path d="M329.6 221.508C330.56 221.508 331.338 220.73 331.338 219.77C331.338 218.81 330.56 218.032 329.6 218.032C328.64 218.032 327.862 218.81 327.862 219.77C327.862 220.73 328.64 221.508 329.6 221.508Z" fill="#895B38"/>
<path d="M424.049 222.161C424.799 222.161 425.407 221.553 425.407 220.803C425.407 220.053 424.799 219.445 424.049 219.445C423.299 219.445 422.691 220.053 422.691 220.803C422.691 221.553 423.299 222.161 424.049 222.161Z" fill="#895B38"/>
<path d="M390.397 253.123C391.747 253.123 392.841 252.028 392.841 250.678C392.841 249.329 391.747 248.234 390.397 248.234C389.047 248.234 387.953 249.329 387.953 250.678C387.953 252.028 389.047 253.123 390.397 253.123Z" fill="#895B38"/>
<path d="M437.077 242.26C437.827 242.26 438.435 241.652 438.435 240.902C438.435 240.152 437.827 239.544 437.077 239.544C436.327 239.544 435.719 240.152 435.719 240.902C435.719 241.652 436.327 242.26 437.077 242.26Z" fill="#895B38"/>
<path d="M399.895 223.792C400.795 223.792 401.524 223.062 401.524 222.162C401.524 221.262 400.795 220.533 399.895 220.533C398.995 220.533 398.265 221.262 398.265 222.162C398.265 223.062 398.995 223.792 399.895 223.792Z" fill="#895B38"/>
<path d="M353.752 232.482C354.951 232.482 355.924 231.509 355.924 230.309C355.924 229.11 354.951 228.137 353.752 228.137C352.552 228.137 351.579 229.11 351.579 230.309C351.579 231.509 352.552 232.482 353.752 232.482Z" fill="#895B38"/>
</g>
<defs>
<filter id="filter0_d" x="478.234" y="85.9209" width="176.127" height="191.277" filterUnits="userSpaceOnUse" color-interpolation-filters="sRGB">
<feFlood flood-opacity="0" result="BackgroundImageFix"/>
<feColorMatrix in="SourceAlpha" type="matrix" values="0 0 0 0 0 0 0 0 0 0 0 0 0 0 0 0 0 0 127 0"/>
<feOffset dy="4"/>
<feGaussianBlur stdDeviation="2"/>
<feColorMatrix type="matrix" values="0 0 0 0 0 0 0 0 0 0 0 0 0 0 0 0 0 0 0.25 0"/>
<feBlend mode="normal" in2="BackgroundImageFix" result="effect1_dropShadow"/>
<feBlend mode="normal" in="SourceGraphic" in2="effect1_dropShadow" result="shape"/>
</filter>
</defs>
</svg>
