<svg width="696" height="444" viewBox="0 0 696 444" fill="none" xmlns="http://www.w3.org/2000/svg">
<mask id="mask0" mask-type="alpha" maskUnits="userSpaceOnUse" x="0" y="0" width="696" height="444">
<rect width="696" height="444" fill="#C4C4C4"/>
</mask>
<g mask="url(#mask0)">
<path d="M588.712 339.71V343.475C585.417 343.14 582.305 342.964 579.327 342.511C567.185 340.674 555.079 338.754 542.974 336.825C541.094 336.531 539.63 336.381 538.178 337.462C534.053 340.507 529.745 343.475 525.303 346.62C528.159 348.356 530.868 349.974 533.528 351.652C536.945 353.782 540.338 355.92 543.681 358.101C544.999 358.939 546.513 358.864 548.245 358.746C556.202 358.235 564.171 357.723 572.152 357.388C574.494 357.438 576.824 357.646 579.108 358.008C578.363 360.893 577.472 361.363 573.47 361.489C566.831 361.715 560.192 362 553.554 362.327C552.658 362.403 551.77 362.515 550.894 362.663C551.906 363.392 552.602 363.912 553.334 364.415C556.178 366.369 559.18 368.248 561.791 370.286C562.629 371.169 563.14 372.179 563.28 373.229C563.585 374.177 562.45 374.638 561.096 374.982C560.509 375.207 559.838 375.305 559.169 375.263C558.501 375.221 557.866 375.041 557.349 374.747C557.044 374.554 556.702 374.378 556.397 374.177C552.578 371.552 548.441 369.061 545.036 366.26C542.144 363.87 538.788 363.275 534.138 363.803C525.974 364.734 517.749 365.48 509.549 366.319C505.363 366.73 501.177 367.091 496.979 367.418C494.672 367.541 492.524 368.275 490.987 369.464C486.411 372.877 481.518 376.173 476.758 379.477C476.099 379.938 475.538 380.441 474.769 381.037L487.241 386.068C488.364 386.521 489.34 387.1 490.511 387.511C492.476 388.198 492.842 389.238 491.732 390.219C491.197 390.717 490.435 391.077 489.568 391.241C488.7 391.405 487.778 391.364 486.948 391.125C485.614 390.719 484.318 390.257 483.067 389.741L469.448 384.508C465.092 386.093 462.578 389.121 456.977 389.146C455.073 387.343 454.926 385.347 456.427 382.873C458.526 383.209 460.601 383.578 462.724 383.838C463.066 383.88 463.579 383.41 464.433 382.957C460.564 380.735 455.317 380.24 450.619 378.194C450.619 379.72 450.619 380.71 450.619 381.724C450.725 382.293 450.515 382.868 450.031 383.334C449.547 383.801 448.824 384.124 448.007 384.24C444.883 384.97 443.382 384.5 443.272 382.487C443.3 381.336 443.443 380.187 443.699 379.049C443.821 378.211 443.98 377.322 444.126 376.424C440.465 375.359 437.146 374.328 433.717 373.43C432.566 373.196 431.361 373.113 430.166 373.187C428.531 373.229 426.895 373.43 425.284 373.523C417.169 374.001 409.042 374.445 400.939 374.957C397.534 375.166 394.166 375.527 390.114 375.879C391.786 377.615 393.19 379.049 394.556 380.492C395.215 381.188 395.887 381.875 396.46 382.596C397.803 384.274 397.595 384.928 395.643 385.515C392.714 386.353 391.152 386.152 389.687 384.534C388.064 382.731 386.502 380.902 384.989 379.066C383.952 377.791 382.805 376.684 379.9 377.07C379.602 377.109 379.296 377.109 378.997 377.07C376.349 376.776 375.617 375.854 377.203 374.638C377.901 374.234 378.683 373.903 379.522 373.657C375.056 368.432 370.882 363.594 366.818 358.771C365.281 356.943 363.938 355.056 362.584 353.178C361.229 351.299 358.569 350.461 355.396 349.387C354.932 350.83 354.456 352.004 354.176 353.203C352.772 359.342 351.442 365.497 350.026 371.653C349.294 374.814 348.44 377.959 347.586 381.112C347.122 382.865 346.073 383.376 343.107 383.477C341.057 383.552 339.776 383.058 339.824 381.858C339.71 380.281 339.945 378.7 340.52 377.171C341.923 374.353 342.29 371.82 339.959 368.977C336.871 365.212 335.736 361.036 334.858 356.876C334.748 356.373 334.589 355.878 334.37 355.082L300.2 363.946C302.104 365.623 303.788 367.149 305.606 368.642C309.731 371.996 313.868 375.418 318.127 378.747C319.148 379.666 320.497 380.389 322.044 380.844C323.618 381.196 324.607 381.607 324.229 382.454C323.858 383.309 323.069 384.05 321.995 384.55C321.173 384.915 320.199 385.084 319.224 385.029C318.248 384.975 317.327 384.7 316.601 384.249C315.294 383.529 314.07 382.741 312.94 381.892C306.631 376.793 300.395 371.661 294.123 366.554C293.696 366.305 293.234 366.086 292.744 365.9C286.911 367.577 280.943 369.254 275 370.931C274.363 371.149 273.795 371.451 273.328 371.82C270.131 374.043 266.97 376.282 263.468 378.73L286.423 386.748C287.775 387.125 289.081 387.576 290.328 388.098C291.133 388.509 292.17 389.414 291.902 389.775C291.585 390.17 291.152 390.515 290.631 390.789C290.11 391.063 289.513 391.26 288.875 391.368C286.957 391.463 285.033 391.233 283.274 390.697C276.184 388.324 269.253 385.792 262.26 383.318L258.514 381.909C256.768 383.066 254.926 384.198 253.229 385.414C243.552 392.341 233.79 399.235 224.283 406.245C220.72 408.87 217.852 411.83 214.447 414.548C212.909 415.659 211.17 416.632 209.273 417.441C208.67 417.752 207.924 417.902 207.172 417.864C206.42 417.825 205.714 417.6 205.185 417.231C204.062 416.451 204.88 415.73 205.734 415.076C213.654 408.929 221.33 402.664 229.604 396.685C236.352 391.804 243.809 387.259 250.947 382.563C251.948 381.909 252.9 381.23 253.986 380.492C251.472 378.948 248.971 378.227 245.444 379.175C243.529 379.568 241.57 379.848 239.586 380.014C239.171 380.592 238.622 381.221 238.244 381.884C237.023 384.131 230.031 385.515 225.87 383.402C225.11 383.035 224.532 382.516 224.216 381.916C223.899 381.316 223.859 380.663 224.1 380.047C224.845 376.969 225.503 373.892 226.431 370.822C226.821 369.506 226.321 368.726 224.393 367.938C219.06 365.757 213.935 363.392 208.651 361.17C207.498 360.766 206.264 360.483 204.99 360.331C203.769 360.13 202.415 360.029 200.755 359.845C201.609 358.008 200.487 356.977 198.022 356.063C194.978 354.809 192.04 353.437 189.223 351.954L169.698 363.577C171.174 364.072 172.138 364.474 173.2 364.734C180.168 366.411 187.148 368.088 194.116 369.766C202.354 371.778 210.591 373.774 218.792 375.846C219.974 376.232 221.087 376.711 222.111 377.271L221.672 377.917C219.964 377.925 218.259 377.816 216.583 377.59C203.342 374.831 190.138 372.005 176.946 369.204C172.992 368.365 169.112 367.418 164.987 366.478C160.382 369.331 156.234 372.513 152.613 375.971C151.161 377.322 149.965 378.764 148.488 380.106C146.047 382.395 144.632 382.622 139.812 381.783C140.031 379.116 148.439 371.544 159.239 364.34L156.725 363.501L154.114 362.604C152.723 363.384 151.368 364.189 149.916 364.927C146.584 366.604 145.901 366.604 141.471 365.078C142.228 363.023 146.353 362.512 147.805 360.373C142.862 357.757 136.968 355.652 131.623 353.153C126.278 350.654 121.031 348.264 115.734 345.882C118.614 343.794 120.054 343.442 123.581 344.75C128.035 346.427 132.197 348.331 136.419 350.192C141.837 352.591 147.182 355.031 153.077 357.681L174.31 343.769C171.003 341.907 167.745 340.112 164.548 338.267C158.202 334.586 151.93 330.871 145.584 327.189C144.632 326.636 143.448 326.225 142.435 325.705C140.641 324.791 140.8 323.902 142.85 323.147C145.694 322.099 150.697 323.013 153.052 324.967C154.292 326.085 155.668 327.129 157.165 328.087C163.767 331.978 170.491 335.81 177.178 339.651C177.703 339.89 178.259 340.095 178.838 340.263C188.308 333.764 196.374 326.711 205.771 319.592C202.83 319.264 200.889 319.063 199.071 318.837L160.399 314.174C159.653 314.156 158.918 314.048 158.226 313.855C157.006 313.344 154.26 313.47 154.919 312.178C155.273 311.482 157.226 310.92 158.654 310.61C159.951 310.384 161.31 310.384 162.607 310.61C176.763 312.925 191.273 314.141 205.746 315.482C208.883 315.776 210.554 315.197 211.848 313.671C212.8 312.589 214.057 311.6 215.399 310.367L179.509 294.777C183.17 292.328 184.854 292.144 189.028 293.938C197.57 297.603 206.003 301.343 214.52 305.025C216.18 305.738 218.023 306.325 220 307.046L237.768 292.244C235.547 291.171 233.997 291.968 232.35 292.286C224.759 293.762 217.144 295.213 209.566 296.706C208.243 297.02 206.809 297.041 205.469 296.764C204.128 296.487 202.949 295.927 202.097 295.163C202.842 293.829 204.624 293.486 206.601 293.192C211.116 292.479 215.594 291.674 220.024 290.877C221.029 290.641 222.012 290.361 222.965 290.039C216.18 289.074 210.237 288.169 204.257 287.397C196.582 286.416 188.893 285.468 181.181 284.63C176.58 284.135 171.906 283.883 167.257 283.531C164.743 283.338 162.07 283.355 160.35 281.795C161.046 280.984 162.096 280.344 163.351 279.964C164.605 279.585 166.002 279.486 167.342 279.682C176.153 280.521 184.964 281.359 193.714 282.349C202.903 283.414 212.019 284.68 221.171 285.871C223.978 286.232 226.821 286.525 229.555 287.02C232.02 287.518 234.659 287.423 237.036 286.751C237.174 286.711 237.317 286.677 237.463 286.651C240.765 286.264 243.913 285.408 246.705 284.137C249.498 282.866 251.874 281.209 253.681 279.271C255.743 277.124 258.025 275.036 260.417 272.722C253.486 266.851 246.92 260.729 237.426 256.134C237.731 255.706 237.756 255.471 237.963 255.396C239.183 254.909 240.489 254.448 242.185 253.828C244.03 254.522 245.789 255.319 247.445 256.209C250.413 258.065 253.24 260.024 255.914 262.08C262.211 266.943 268.349 271.883 274.598 276.772C275.126 277.264 275.867 277.629 276.716 277.814C277.564 277.999 278.475 277.996 279.32 277.804C288.888 275.858 298.467 273.921 308.059 271.992C308.443 271.842 308.803 271.665 309.133 271.464C303.458 261.065 299.663 250.28 296.32 239.512C301.115 237.902 302.592 238.162 303.642 240.913C305.533 245.66 307.119 250.448 309.023 255.169C310.927 259.891 313.026 264.637 315.064 269.359C315.257 269.687 315.503 269.999 315.796 270.29L393.019 255.807C392.933 255.111 392.897 254.423 392.738 253.744C391.408 248.041 389.956 242.347 388.748 236.636C388.113 233.709 389.321 233.089 395.179 233.231C396.265 240.351 397.351 247.546 400.329 254.758L406.577 254.155C407.459 254.013 408.357 253.923 409.262 253.886C411.385 253.937 413.716 253.953 414.57 255.404C415.314 256.654 414.131 257.492 412.532 258.356C409.689 259.882 409.872 259.874 406.235 258.985C405.137 258.717 403.599 259.069 401.744 259.161C405.32 265.526 408.737 271.48 411.971 277.468C412.715 278.843 414.24 279.263 416.352 279.313C423.906 279.481 431.459 279.766 439.013 279.732C448.093 279.682 447.983 279.523 452.156 274.793C456.11 270.315 460.32 265.92 464.604 261.283C456.488 257.35 449.96 252.058 439.745 249.165C439.953 247.664 441.381 247.018 443.821 246.943C446.654 246.859 449.432 247.498 451.619 248.737C456.907 251.533 462.196 254.328 467.484 257.123C467.923 257.35 468.436 257.526 469.095 257.811C472.389 256.402 475.513 254.717 479.821 254.691C481.347 254.691 482.884 255.169 485.569 255.622L476.795 258.893L480.688 260.209C479.687 260.956 478.882 261.534 477.796 262.348C480.236 263.723 482.762 265.249 485.496 266.591C491.488 269.535 497.699 272.353 503.654 275.304C504.182 275.644 504.808 275.902 505.492 276.063C506.176 276.223 506.901 276.282 507.62 276.235C514.479 275.598 521.337 274.994 528.244 274.374C528.403 273.267 528.525 272.386 528.659 271.388L540.02 274.038C539.154 276.059 536.957 276.957 533.699 277.3C526.755 278.038 519.836 278.852 512.429 279.69C513.12 280.163 513.854 280.605 514.625 281.015C522.094 284.496 529.623 287.926 537.067 291.423C539.032 292.345 540.728 292.991 543.535 292.328C546.155 291.885 548.842 291.659 551.54 291.657C554.188 291.532 555.372 292.01 555.628 293.108C555.934 294.442 555.177 294.987 552.443 295.448C550.991 295.691 549.551 295.959 548.111 296.228C548.001 296.228 547.953 296.362 547.635 296.655C550.076 297.838 552.517 299.037 554.957 300.262C555.914 300.663 556.774 301.164 557.508 301.746C558.033 302.274 558.521 303.146 558.118 303.574C557.31 304.097 556.25 304.395 555.14 304.413C554.123 304.383 553.135 304.172 552.273 303.8C549.307 302.744 546.439 301.578 543.437 300.555C542.196 300.061 540.795 299.79 539.361 299.767C534.844 299.922 530.354 300.337 525.938 301.008C512.783 303.373 499.762 305.981 486.692 308.505C484.105 309.008 481.53 309.511 479.004 310.098C477.621 310.512 476.276 310.982 474.977 311.507C476.966 311.851 478.369 311.86 479.028 312.27C479.99 312.837 480.622 313.623 480.81 314.484C480.81 314.92 479.504 315.575 478.552 315.826C476.993 316.097 475.399 316.266 473.793 316.329C490.878 323.684 509.988 327.156 529.794 330.175C531.136 329.135 532.454 328.087 533.821 327.055C539.081 323.055 544.511 319.122 549.576 315.029C552.216 312.805 554.591 310.438 556.678 307.952C557.581 306.903 558.569 306.082 560.485 305.947C561.739 305.837 563.012 305.983 564.146 306.367C565.538 306.987 564.317 307.692 563.768 308.438C557.959 316.438 546.683 322.141 538.641 329.202C537.995 329.772 537.323 330.317 536.64 330.879C538.702 332.045 539.776 331.173 540.911 330.485C544.17 328.498 547.44 326.527 550.674 324.531C555.47 321.579 560.363 318.661 564.988 315.633C567.76 313.811 570.33 311.849 572.677 309.763C574.019 308.572 575.325 308.178 577.814 308.841C576.594 311.751 574.861 314.476 571.163 316.707C563.353 321.395 555.641 326.149 547.904 330.879C547.208 331.307 546.622 331.802 545.536 332.556L588.712 339.71ZM524.949 341.169C526.536 340.288 528.5 339.551 529.623 338.494C530.746 337.437 533.76 336.909 532.283 334.703C529.196 336.909 526.536 338.829 525.047 341.228L522.875 342.452L523.692 342.788L524.949 341.169ZM478.174 350.872C474.513 353.572 472.072 353.597 468.497 351.551C465.824 350.05 462.871 348.717 459.368 346.972C458.356 350.847 457.355 354.134 456.684 357.438C456.013 360.742 454.145 363.904 454.182 367.409C465.885 366.327 477.076 365.279 488.266 364.29C489.11 364.21 489.921 364.011 490.646 363.703C491.371 363.395 491.995 362.987 492.476 362.503C497.357 358.444 502.312 354.419 507.218 350.377C508.938 348.96 510.549 347.501 512.197 346.075C504.704 341.504 497.553 337.186 490.463 332.825C483.372 328.464 476.282 324.036 469.082 319.566C465.617 322.845 462.651 325.898 462.859 329.462C463.017 332.431 461.638 335.24 461.248 338.133C461.138 338.922 460.796 339.701 460.65 340.49C460.381 341.991 463.359 344.087 465.751 343.752C466.353 343.659 466.979 343.664 467.578 343.765C468.178 343.867 468.734 344.064 469.204 344.339C473.292 346.016 474.281 349.01 478.174 350.872ZM404.612 278.131C404.246 277.233 404.026 276.453 403.636 275.757C401.256 271.279 398.754 266.818 396.448 262.34C395.301 260.184 395.325 260.067 391.384 260.755C383.561 262.105 375.8 263.564 368.014 264.998C364.439 265.652 360.887 266.34 357.031 267.061C357.507 268.57 358.081 269.853 358.251 271.145C359.554 279.084 359.962 287.08 359.472 295.062C359.399 296.521 359.74 297.989 359.887 299.532C366.623 298.417 378.546 295.096 379.815 294.19C376.508 290.072 373.347 286.055 370.052 282.08C369.657 281.718 369.465 281.27 369.512 280.819C369.559 280.368 369.842 279.943 370.308 279.623C371.529 278.651 373.213 279.07 374.445 279.372C375.567 279.691 376.503 280.257 377.106 280.982C378.607 282.709 379.693 284.571 381.23 286.282C383.036 288.295 385.135 290.207 387.112 292.152L387.723 291.657C389.504 291.943 391.957 291.901 392.909 292.588C394.752 293.896 392.348 294.945 390.7 295.943C392.316 297.477 394.047 298.952 395.887 300.362C396.872 300.913 398.107 301.21 399.377 301.201C405.649 301.142 411.934 300.966 418.402 300.823C418.435 300.441 418.389 300.057 418.268 299.683C414.912 294.374 411.495 289.083 408.175 283.749C407.885 283.301 407.41 282.921 406.81 282.656C406.209 282.391 405.509 282.252 404.795 282.257C399.832 281.966 394.87 281.686 389.907 281.418C388.683 281.408 387.46 281.349 386.246 281.242C383.891 280.906 383.305 279.816 385.221 278.961C386.801 278.257 388.624 277.852 390.505 277.787C395.008 277.736 399.389 277.988 404.563 278.131H404.612ZM412.739 362.151C415.679 361.131 418.216 359.638 420.135 357.799C426.236 352.289 432.46 346.897 438.635 341.404C439.697 340.456 440.685 339.483 441.722 338.519C440.893 337.966 440.319 337.555 439.697 337.177C433.595 333.487 427.493 329.8 421.392 326.116C419.329 324.875 418.451 324.875 415.961 325.931C413.472 326.988 412.007 328.221 412.849 329.999C412.996 330.238 413.063 330.497 413.045 330.756C413.027 331.015 412.925 331.268 412.746 331.497C412.567 331.725 412.315 331.923 412.01 332.076C411.705 332.229 411.354 332.333 410.982 332.38C405.271 333.764 403.428 336.959 400.072 339.928C403.733 340.607 407.016 341.194 410.262 341.815C413.252 342.393 416.278 342.93 419.183 343.626C420.83 344.012 421.807 344.817 421.355 345.974C420.904 347.132 419.171 347.358 417.45 347.19C415.828 347.012 414.229 346.748 412.666 346.402C407.431 345.303 402.208 344.163 396.692 342.98L382.609 354.503L412.739 362.151ZM283.482 358.05L262.541 341.504C258.062 341.647 253.998 341.806 249.922 341.882C247.665 341.932 246.261 342.41 245.724 343.777C244.248 347.199 242.6 350.587 241.038 353.983C239.305 357.74 237.536 361.531 235.876 365.262C235.449 366.26 234.79 367.359 236.743 368.164L247.982 372.776C256.598 370.311 278.478 361.262 283.433 358.05H283.482ZM533.211 295.02C532.373 294.918 531.555 294.752 530.77 294.525C521.862 290.408 512.917 286.332 504.155 282.114C503.218 281.638 502.154 281.293 501.023 281.1C499.892 280.908 498.717 280.87 497.565 280.99C489.34 281.577 481.09 282.047 472.853 282.517C469.619 282.701 469.192 282.793 468.863 284.655C468.143 288.085 467.41 291.515 466.898 294.953C466.642 296.63 466.898 298.383 466.898 300.345C470.083 300.127 472.902 299.859 475.745 299.758C476.742 299.79 477.731 299.625 478.595 299.283C479.46 298.942 480.165 298.437 480.627 297.83C483.067 294.869 485.715 292.001 488.095 289.049C489.084 287.808 490.182 286.953 492.757 287.003C495.82 287.07 496.723 287.682 495.564 289.309C494.404 290.936 492.818 292.664 491.488 294.341C490.328 295.8 489.254 297.284 488.034 298.878C488.667 298.958 489.307 299.006 489.95 299.02C499.554 298.383 509.17 297.796 518.762 297.058C523.168 296.706 527.793 296.815 533.211 295.02ZM399.67 314.308C398.449 315.986 395.618 316.187 393.263 316.606C382.187 318.666 371.558 321.729 361.656 325.713C359.63 326.502 358.569 327.307 359.936 328.674C367.477 328.045 410.165 321.269 412.752 320.288C406.65 315.667 400.646 311.063 394.447 306.451C393.522 306.002 392.403 305.784 391.274 305.83C386.588 305.83 381.889 305.922 377.216 306.056C371.675 306.207 366.147 306.425 360.582 306.618C360.253 312.036 359.936 317.185 359.618 322.317C360.35 322.359 360.729 322.46 360.912 322.384C370.939 318.538 381.638 315.585 392.75 313.595C395.35 313.092 397.693 312.883 399.67 314.308ZM337.164 306.09C339.519 305.069 341.964 304.15 344.486 303.339C347.107 302.728 349.776 302.219 352.479 301.813C351.259 290.542 353.59 279.531 349.782 268.268L318.054 274.55C320.871 280.404 324.13 286.153 327.816 291.775C328.235 291.441 328.445 291.007 328.402 290.567C328.146 287.909 327.877 285.25 327.536 282.6C327.109 279.246 327.682 278.919 333.405 279.489C333.65 279.489 333.845 279.707 334.553 280.076C335.395 288.353 336.237 296.907 337.164 306.09ZM274.829 283.095C272.108 283.288 271.034 284.018 270.729 285.376C270.143 288.001 269.24 290.601 268.679 293.226C268.557 293.821 268.935 294.861 269.619 295.062C272.553 295.913 274.882 297.526 276.099 299.549C276.452 300.069 277.514 300.454 278.344 300.823C282.554 302.694 286.703 304.614 291.048 306.375C297.613 309.025 304.313 311.558 310.866 314.107L323.838 309.914C306.814 301.15 289.083 293.268 274.829 283.095ZM332.1 331.81C331.998 330.799 331.998 329.785 332.1 328.774C332.649 326.376 330.721 325.001 327.218 324.036C324.187 323.285 321.269 322.333 318.505 321.193C314.722 319.516 310.707 319.516 306.448 319.977C305.853 320.003 305.266 320.085 304.703 320.22C299.602 321.898 294.538 323.575 288.741 325.453C294.196 326.56 298.748 327.458 303.251 328.422C304.665 328.675 306.012 329.079 307.242 329.621C309.133 330.544 308.608 331.944 306.192 332.196C304.282 332.376 302.339 332.302 300.469 331.978C294.843 330.963 289.315 329.739 283.701 328.699C282.443 328.436 281.095 328.459 279.857 328.766C274.488 330.695 269.277 332.775 264.054 334.796C266.128 337.035 266.116 337.001 269.643 336.708C277.258 336.07 284.877 335.455 292.5 334.863C305.521 333.848 318.554 332.858 332.1 331.81ZM329.037 306.652C328.402 305.486 327.816 304.312 327.121 303.18C326.01 301.444 324.619 299.767 323.631 298.014C319.86 291.305 316.211 284.596 312.513 277.837C311.5 275.984 311.159 275.824 308.01 276.411C302.25 277.474 296.515 278.592 290.804 279.766C287.863 280.353 284.97 281.041 281.651 281.77C296.027 291.146 312.574 298.786 329.037 306.627V306.652ZM270.387 340.582C277.111 345.857 283.103 350.57 289.217 355.358L326.755 337.362C326.328 337.051 325.925 336.523 325.62 336.573C307.547 337.848 289.486 339.165 270.387 340.557V340.582ZM446.872 367.896C449.142 359.786 451.339 351.962 453.547 344.071L446.799 341.052L420.659 364.29C425.712 365.724 430.422 367.082 435.218 368.399C435.936 368.566 436.699 368.621 437.451 368.558C440.441 368.39 443.431 368.122 446.872 367.87V367.896ZM257.635 317.411C273.084 317.168 287.704 317.034 302.36 315.625L266.189 299.951L257.635 317.411ZM233.448 302.526C234.461 303.624 235.339 304.438 235.986 305.302C237.914 307.893 239.757 310.501 241.6 313.101C242.515 314.409 243.87 315.164 246.481 314.627C247.093 314.549 247.714 314.51 248.336 314.51C248.812 315.348 249.215 316.053 249.752 316.983C251.692 315.038 259.514 298.064 259.722 295.297C255.731 294.609 251.594 293.863 247.433 293.192C246.746 293.038 246.005 293.043 245.322 293.205C244.64 293.367 244.053 293.677 243.65 294.089C240.379 296.957 236.865 299.725 233.448 302.526ZM231.666 321.252C225.381 320.799 219.707 320.346 214.02 320.019C213.538 320.022 213.061 320.09 212.617 320.219C212.173 320.349 211.771 320.537 211.433 320.774C204.367 326.418 197.411 332.112 190.382 337.781C188.393 339.391 186.245 340.951 184.073 342.611C191.554 342.746 197.643 341.773 202.708 338.469C209.48 334.066 216.912 330.024 224.051 325.814C226.48 324.388 228.859 322.938 231.666 321.252ZM207.992 340.347L208.394 340.926C212.055 340.599 215.79 340.213 219.512 339.945C225.357 339.534 231.215 339.106 237.084 338.88C239.72 338.762 241.099 338.343 241.563 336.624C242.158 334.231 243.217 331.904 244.712 329.705C247.311 326.049 243.015 324.028 240.477 321.512C234.693 324.799 229.238 327.843 223.88 330.946C218.523 334.049 213.276 337.211 207.992 340.347ZM292.597 358.327C293.745 359.073 294.696 359.702 295.624 360.298L316.553 354.864C321.105 353.673 325.656 352.49 330.196 351.283C333.479 350.444 333.674 350.243 333.528 348.062C333.405 346.293 333.161 344.523 333.039 342.754C332.966 341.739 333.039 340.716 333.039 339.567C327.865 340.792 298.26 354.578 292.597 358.327ZM419.744 369.766C419.073 369.229 418.951 369.028 418.707 368.969C405.275 365.173 391.827 361.385 378.363 357.606C377.645 357.33 376.804 357.248 376.003 357.375C375.202 357.502 374.499 357.829 374.03 358.293C377.691 362.21 381.413 366.21 385.013 370.277C386.234 371.678 387.784 371.787 390.139 371.619C398.523 371.015 406.931 370.546 415.327 370.026L419.744 369.766ZM428.958 301.234C434.156 295.322 439.086 289.703 444.432 283.623H416.254C417.596 287.548 425.87 299.28 428.958 301.234ZM461.76 283.213C459.637 283.28 457.404 283.456 455.195 283.414C454.206 283.331 453.203 283.463 452.328 283.791C451.453 284.118 450.749 284.626 450.314 285.242C446.25 289.972 441.966 294.643 437.805 299.347C437.533 299.764 437.328 300.2 437.195 300.647H450.46C452.144 296.957 454.353 297.293 459.32 299.398C460.149 294.047 460.93 288.806 461.76 283.213ZM207.601 355.014L232.154 343.274C230.446 343.274 229.579 343.224 228.737 343.274C220.341 343.853 211.958 344.507 203.537 345.01C199.108 345.278 196.765 346.888 194.544 349.018L207.601 355.014ZM229.091 364.558C232.057 358.143 234.839 352.088 237.634 346.041C228.923 349.371 220.651 353.215 212.91 357.53L229.091 364.558ZM454.438 305.075C451.29 305.075 448.581 305.075 445.896 305.075C441.539 305.134 437.195 305.243 432.96 305.335C431.447 307.633 432.826 309.864 438.757 314.811L458.465 310.249L454.438 305.075ZM520.08 350.595L502.91 362.336C503.044 362.52 503.191 362.705 503.337 362.881C513.515 361.799 523.729 360.868 534.736 359.644L520.08 350.595ZM484.275 369.372L483.702 368.717C473.866 369.598 464.018 370.453 454.182 371.384C453.486 371.451 452.352 372.063 452.425 372.332C452.496 372.67 452.67 372.994 452.935 373.283C453.199 373.571 453.55 373.819 453.962 374.009C457.343 375.183 460.906 376.181 464.372 377.271C466.19 377.842 467.96 378.47 469.973 379.15C474.903 375.77 479.589 372.583 484.275 369.372ZM391.176 342.192C387.357 340.708 385.27 340.171 383.598 340.641C377.496 342.318 371.517 344.18 365.476 345.974C366.355 350.645 373.115 351.006 378.216 352.952L391.176 342.192ZM493.806 328.137C501.128 332.8 508.011 337.638 516.468 342.041L525.376 334.15L493.806 328.137ZM493.806 277.393L494.355 276.663L474.037 266.474C472.511 270.86 470.876 274.625 470.461 278.76L493.806 277.393ZM416.754 316.304C418.56 314.292 420.061 312.681 421.465 311.038C422.255 310.203 422.902 309.308 423.393 308.371C424.235 306.526 423.088 305.486 419.732 305.444C414.362 305.369 408.969 305.545 403.587 305.637C403.404 305.637 403.233 305.872 402.879 306.115L416.754 316.304ZM352.077 320.204C352.357 316.011 352.675 312.379 352.821 308.748C352.894 306.878 352.26 306.643 349.038 306.937C345.337 307.34 341.817 308.312 338.738 309.78C340.276 314.526 345.658 317.235 352.162 320.237L352.077 320.204ZM163.864 361.681L184.281 349.387L178.679 346.586L158.446 359.795L163.864 361.681ZM273.841 326.829C269.362 325.277 257.903 323.206 255.036 323.357C253.156 326.493 255.206 329.387 261.137 331.743L273.841 326.829ZM426.004 322.862L445.127 334.393C448.007 333.236 446.933 332.154 445.896 331.173C443.59 328.984 441.1 326.871 438.818 324.674C435.157 321.135 435.157 321.109 428.445 322.2C427.615 322.39 426.8 322.612 426.004 322.862ZM456.574 318.409L443.004 320.187L451.741 328.196C456.733 325.353 457.538 322.141 456.574 318.409ZM392.958 328.523L392.531 328.078L367.758 332.045C372.639 333.898 377.716 334.611 382.402 335.794C382.853 335.903 383.622 335.508 384.428 335.316C381.377 333.638 381.291 333.336 383.964 331.961C385.399 331.306 386.89 330.713 388.43 330.183L392.958 328.523ZM359.801 333.898C357.361 337.01 360.058 339.391 361.766 342.125L375.019 338.016L359.801 333.898ZM263.505 285.259C259.844 286.039 257.147 286.76 254.291 287.179C253.101 287.319 251.989 287.679 251.074 288.219C250.158 288.76 249.473 289.461 249.093 290.249L262.016 292.597C262.48 290.072 262.919 287.942 263.456 285.284L263.505 285.259ZM340.898 335.03C339.983 338.267 342.277 339.827 349.697 341.135C351.357 338.737 350.466 336.557 348.22 334.284L340.898 335.03ZM384.208 297.771C378.839 299.205 373.457 300.111 368.783 302.073L388.308 301.519L384.208 297.771ZM236.877 379.368C235.657 378.689 234.082 378.236 233.997 377.691C233.79 376.525 235.852 376.558 237.219 376.298L241.49 375.46L233.484 372.105C231.044 375.896 230.678 379.695 232.545 381.573L236.877 379.368ZM465.836 269.51L464.823 269.35L455.695 279.254L462.846 279.053C463.945 275.682 464.921 272.587 465.885 269.501L465.836 269.51ZM216.4 316.262L232.887 317.235L233.204 316.749L220.683 312.698L216.4 316.262ZM431.557 316.765L427.286 312.463L420.318 318.87C424.796 319.021 427.505 317.461 431.606 316.757L431.557 316.765ZM288.619 321.428L288.375 320.833L270.79 321.311C274.01 322.338 277.381 323.126 280.846 323.659C281.719 323.762 282.617 323.68 283.421 323.424C285.227 322.829 286.899 322.099 288.619 321.428ZM465.568 308.379C471.047 308.178 472.804 307.306 473.951 304.379C470.29 303.993 468.985 304.102 465.873 305.092C465.726 306.149 465.629 307.256 465.519 308.379H465.568ZM343.632 360.516L345.06 360.465C345.706 357.555 346.341 354.654 347.049 351.459C344.608 351.987 342.167 352.121 342.167 353.564C342.338 355.887 343.083 358.193 343.583 360.516H343.632ZM225.32 309.025C230.519 311.541 230.934 311.709 233.094 311.692C231.8 310.015 230.519 308.337 228.981 306.333L225.32 309.025ZM348.367 345.924C345.658 344.708 343.791 343.794 340.789 343.509C341.008 345.027 341.191 346.31 341.435 347.987L348.367 345.924ZM494.807 303.096L494.575 302.534C491.512 302.719 488.473 302.861 485.386 303.121C484.567 303.145 483.795 303.39 483.237 303.803C482.68 304.216 482.382 304.764 482.408 305.327L494.807 303.096ZM277.05 364.902C277.221 365.103 277.38 365.313 277.551 365.522C280.846 364.6 284.275 363.803 287.387 362.696C289.217 362.05 287.741 361.455 286.484 360.935L277.05 364.902ZM265.982 276.52L264.762 276.219C263.065 277.804 261.381 279.397 259.258 281.401L263.517 280.864C264.396 279.321 265.177 277.921 265.945 276.52H265.982ZM251.741 332.171L250.642 332.313C250.215 333.462 249.776 334.619 249.093 336.439L254.23 334.477L251.741 332.171ZM330.513 314.275C327.78 312.514 326.303 312.598 323.399 314.66L330.513 314.275ZM330.342 320.984L331.404 320.715C331.16 320.103 331.233 319.181 330.574 318.937C329.086 318.376 327.34 318.61 325.339 319.214L330.342 320.984ZM339.983 331.114L344.096 329.303L339.983 327.911V331.114ZM256.598 376.315C259.941 376.995 259.941 376.995 262.016 374.714L256.598 376.315ZM348.513 324.422C349.05 325.11 349.599 325.789 350.332 326.711C351.869 325.118 351.869 325.118 348.525 324.43L348.513 324.422ZM396.9 336.791C394.642 336.984 393.507 337.353 393.116 338.469C395.508 338.888 396.204 338.133 396.912 336.8L396.9 336.791Z" fill="#4D3826"/>
<path d="M451.931 177.507C453.893 178.421 454.773 180.186 454.824 182.375C454.87 184.801 454.706 187.228 454.824 189.642C455.118 195.746 455.578 201.853 455.851 207.958C456.124 214.064 456.358 220.028 456.387 226.057C456.404 229.111 455.916 232.157 455.68 235.206C455.002 242.789 453.882 250.326 452.328 257.779C451.568 261.099 450.59 264.365 449.4 267.557C447.557 273.018 445.767 278.511 443.658 283.876C441.027 290.563 438.158 297.152 435.268 303.735C434.333 305.863 433.005 307.823 431.87 309.864C429.799 313.602 427.81 317.369 425.657 321.076C423.651 324.5 420.484 326.682 417.089 328.606C415.666 329.401 414.324 330.334 413.084 331.391C410.667 333.396 408.042 335.139 405.256 336.591C399.636 339.718 394.16 343.044 388.436 346.02C384.071 348.338 379.294 349.784 374.373 350.278C368.337 350.832 362.26 351.116 356.19 351.191C353.075 351.226 349.951 350.609 346.841 350.191C340.305 349.421 333.937 347.604 327.982 344.81C326.318 344.005 324.593 343.284 322.986 342.367C315.471 338.056 307.626 334.178 300.752 328.809C296.938 325.838 293.489 322.404 289.688 319.417C286.549 316.832 283.817 313.791 281.586 310.396C279.975 307.88 278.501 305.28 277.171 302.607C276.093 300.604 275.036 298.578 274.106 296.508C272.714 293.398 271.404 290.225 270.133 287.093C268.537 283.127 266.815 279.207 265.501 275.15C263.249 268.04 261.706 260.726 260.896 253.314L258.716 251.956C258.456 251.782 258.157 251.677 257.846 251.649C257.534 251.621 257.221 251.671 256.934 251.796C256.648 251.92 256.397 252.114 256.205 252.36C256.014 252.606 255.887 252.897 255.838 253.204C255.768 253.547 255.787 253.926 255.716 254.262C255.703 254.442 255.647 254.616 255.553 254.77C255.46 254.925 255.33 255.054 255.176 255.149C255.022 255.244 254.848 255.301 254.668 255.316C254.487 255.331 254.306 255.302 254.139 255.234C252.571 254.889 252.176 254.291 252.205 252.528C252.209 252.075 252.12 251.305 251.896 251.198C250.075 250.44 249.526 248.86 249.18 247.008C248.462 246.893 247.734 246.852 247.007 246.885C246.467 246.971 245.975 247.244 245.618 247.657C244.172 249.489 243.759 249.568 241.505 248.071C242.024 247.022 242.503 245.917 243.109 244.883C243.715 243.85 243.251 243.4 242.419 243.055C240.844 242.395 239.263 241.757 237.653 241.228C237.196 241.099 236.708 241.146 236.284 241.359C235.638 241.713 235.114 242.583 234.496 242.625C233.656 242.684 232.782 242.155 231.719 241.811C232.201 241.273 232.643 240.702 233.044 240.102C233.304 239.628 233.472 239.109 233.536 238.573C233.667 237.543 233.688 236.492 233.764 235.308C232.523 234.172 231.835 234.126 230.49 235.233C228.859 236.567 228.482 236.543 226.556 234.786L229.522 231.892C228.88 230.643 229.351 229.424 230.218 228.3C232.81 225.001 235.432 221.722 237.988 218.418C239.853 215.989 241.635 213.494 243.418 211.005C245.624 207.978 247.781 204.845 249.991 201.767C251.856 199.073 253.235 196.076 254.066 192.909C254.996 189.836 256.122 186.824 257.436 183.892C258.787 180.694 260.345 177.574 261.732 174.38C262.136 173.405 262.407 172.38 262.538 171.334C263.76 162.444 265.027 153.579 267.668 144.957C270.111 137.089 273.295 129.468 277.176 122.196C279.772 117.287 282.337 112.351 285.06 107.512C286.446 105.036 288.193 102.759 289.706 100.347C294.837 92.1497 301.119 84.8504 307.764 77.8855C310.561 75.0324 313.63 72.4562 316.926 70.193C321.886 66.7015 327.013 63.4357 332.191 60.2885C338.882 56.2912 346.09 53.2242 353.614 51.1729C356.832 50.2316 360.139 50.4773 363.423 50.4945C364.347 50.5025 365.278 50.6035 366.207 50.5895C370.336 50.5124 374.318 51.4303 378.221 52.5692C381.903 53.6444 385.539 54.9816 389.134 56.3646C390.835 57.0906 392.469 57.9612 394.019 58.9668C398.622 61.8477 403.007 65.0592 407.14 68.5757C411.259 71.9785 414.368 76.2345 417.356 80.614C419.431 83.6836 421.473 86.7987 424.258 89.2873C424.789 89.7681 424.903 90.6803 425.335 91.2974C426.587 93.1157 427.922 94.8779 429.181 96.6886C430.077 97.9636 430.947 99.262 431.761 100.593C435.091 106.049 438.47 111.486 441.71 116.999C444.973 122.535 447.288 128.575 448.558 134.869C448.922 136.684 449.329 138.489 449.707 140.303C449.82 140.709 449.819 141.137 449.706 141.542C449.594 141.948 449.372 142.315 449.066 142.605C448.531 143.146 448.129 143.804 447.891 144.526C447.654 145.249 447.587 146.016 447.696 146.768C448.212 151.599 449.625 156.245 450.303 161.022C450.783 164.403 451.156 167.799 451.515 171.196C451.694 173.253 451.779 175.311 451.931 177.507ZM451.598 185.796C451.585 185.079 451.499 184.366 451.449 183.65C450.982 183.939 450.603 184.351 450.356 184.84C449.146 186.85 447.982 188.893 446.704 190.843C445.854 192.162 444.923 193.427 443.915 194.63C442.476 196.488 440.911 198.244 439.229 199.885C437.315 201.621 435.819 201.487 433.93 199.742C432.782 198.685 431.808 197.437 430.698 196.321C428.373 194.009 426.05 191.725 423.817 189.493C420.816 191.476 418.02 193.179 415.39 195.108C413.98 196.189 412.723 197.456 411.655 198.874C409.43 201.745 407.449 204.801 405.217 207.672C401.19 212.853 397.282 218.09 394.074 223.833C393.125 225.342 392.078 226.788 390.94 228.161C389.804 229.677 388.559 231.165 387.537 232.767C386.898 233.88 386.38 235.058 385.992 236.281C384.352 240.815 382.587 245.322 381.212 249.946C380.575 252.096 379.717 254.068 377.97 255.202C376.428 256.171 376.24 257.305 376.283 258.747C376.36 260.899 376.502 263.045 376.605 265.151C376.781 268.827 376.87 272.501 377.37 276.161C377.736 278.432 377.227 280.757 375.946 282.672C375.792 282.946 375.566 283.174 375.292 283.331C375.019 283.487 374.708 283.568 374.392 283.563C372.888 283.616 371.785 282.593 371.301 280.614C370.034 275.461 369.854 270.176 369.353 264.934C369.138 262.67 368.787 260.416 368.5 258.157C368.487 257.728 368.334 257.316 368.063 256.983C367.792 256.65 367.419 256.414 367.001 256.313C365.906 255.976 364.906 255.386 364.083 254.591C363.261 253.796 362.638 252.818 362.267 251.738C361.4 249.641 360.708 247.475 359.842 245.386C357.591 239.985 354.998 234.759 351.399 230.098C349.346 227.458 347.327 224.773 345.085 222.311C341.808 218.757 338.328 215.396 334.936 211.958C333.313 212.588 332.926 214.181 332.01 215.33C330.021 217.861 328.29 220.569 326.253 223.031C324.373 225.274 322.352 227.394 320.201 229.38C318.799 230.692 317.587 230.697 316.313 229.815C314.501 228.553 312.729 227.238 310.943 225.938C307.369 223.325 303.541 221.076 299.517 219.223C297.602 218.35 296.956 218.409 295.835 220.032C294.058 222.598 291.604 224.457 289.375 226.538C288.021 227.696 286.498 228.642 284.859 229.345C283.178 230.18 282.16 229.761 280.93 228.358C279.982 227.151 278.628 226.326 277.118 226.034C276.846 226.484 276.593 226.897 276.356 227.323C274.513 230.607 272.807 233.981 270.791 237.154C269.194 239.848 268.141 242.826 267.691 245.922C267.367 248.156 266.78 250.343 265.943 252.441C265.667 253.157 265.613 253.94 265.789 254.687C266.248 256.61 266.311 256.591 264.29 257.615C265.155 261.344 265.982 264.945 266.818 268.554C267.834 272.796 269.603 276.757 271.112 280.829C274.598 290.019 278.821 298.914 283.74 307.429C285.28 310.25 287.296 312.785 289.7 314.924C293.147 317.899 296.679 320.767 300.065 323.803C303.725 327.097 307.801 329.901 312.189 332.144C316.752 334.481 321.24 336.967 325.792 339.348C328.189 340.62 330.594 341.891 333.089 342.919C339.604 345.61 346.473 346.967 353.436 347.701C357.07 348.082 360.709 347.809 364.351 347.772C371.178 347.703 377.892 346.915 384.257 344.239C385.577 343.718 386.868 343.124 388.124 342.462C392.096 340.24 396.052 337.989 399.967 335.663C403.702 333.435 407.371 331.104 411.072 328.813C411.635 328.379 412.24 328 412.876 327.682C415.761 326.62 418.06 324.714 420.24 322.659C421.14 321.86 421.931 320.948 422.592 319.944C423.753 318.074 424.726 316.087 425.797 314.159C427.293 311.489 428.9 308.869 430.291 306.142C431.558 303.611 432.643 300.948 433.827 298.371C436.933 291.72 439.673 284.905 442.034 277.957C444.043 271.874 446.398 265.895 448.099 259.732C449.372 254.771 450.33 249.735 450.969 244.654C452.023 237.393 452.991 230.138 452.874 222.749C452.814 218.98 452.588 215.207 452.435 211.444C452.233 206.246 452.002 201.058 451.836 195.865C451.666 192.477 451.664 189.134 451.598 185.796ZM448.593 178.363C448.369 171.514 447.268 164.797 446.127 158.04C445.705 155.496 444.991 153.001 444.32 150.093C443.856 150.685 443.687 150.855 443.537 151.088C441.558 153.755 439.582 156.466 437.47 159.092C436.144 160.779 434.554 160.731 433.188 159.043C432.857 158.634 432.566 158.187 431.991 157.393C429.209 169.281 424.282 179.779 418.067 189.805C419.308 189.01 420.467 188.094 421.528 187.071C423.398 185.324 424.842 185.339 426.664 187.169C427.173 187.76 427.725 188.313 428.316 188.823C431.106 190.798 433.474 193.308 435.279 196.205C435.751 196.779 436.296 197.29 436.9 197.725C437.206 197.493 437.5 197.245 437.779 196.981C441.853 192.691 445.239 187.802 447.818 182.485C448.407 181.194 448.672 179.779 448.593 178.363ZM445.038 142.668C445.623 141.55 445.844 140.279 445.672 139.03C444.398 130.551 441.377 122.426 436.799 115.167C435.529 113.185 434.431 111.097 433.189 109.099C430.142 104.198 427.234 99.2025 423.947 94.4771C419.716 88.401 415.181 82.5399 410.742 76.5931C410.161 75.8138 409.547 75.0656 408.787 74.0975C408.532 75.0334 408.225 75.9545 407.867 76.8566C407.364 77.9525 406.769 79.0037 406.087 79.9988C405.43 80.9284 403.645 81.2028 402.529 80.7122C401.413 80.2215 400.908 79.1854 401.124 77.7327C401.638 74.779 401.672 71.7622 401.225 68.798C401.184 68.383 401.052 67.9821 400.838 67.6241C400.623 67.2661 400.332 66.9598 399.984 66.7273C397.071 64.7723 394.226 62.7695 391.282 60.8957C390.061 60.1646 388.766 59.5626 387.42 59.0998C385.012 58.2024 382.55 57.4526 380.144 56.5623C376.46 55.1967 372.621 54.2888 368.715 53.8593C365.942 53.5782 363.156 53.4517 360.369 53.4804C358.653 53.451 356.939 53.642 355.272 54.0486C348.497 55.8376 341.985 58.499 335.901 61.9656C333.556 63.3281 331.196 64.6631 328.977 66.1679C324.25 69.3701 319.523 72.5724 314.912 75.8888C311.017 78.71 307.963 82.4147 304.79 85.9695C300.41 90.7506 296.423 95.8749 292.867 101.293C289.85 105.951 286.856 110.629 284.065 115.423C282.209 118.613 280.796 122.054 279.06 125.315C276.223 130.649 273.752 136.168 271.665 141.835C271.301 142.83 270.953 143.839 270.611 144.847C269.919 146.631 269.323 148.45 268.825 150.297C267.835 154.729 266.984 159.202 266.147 163.666C265.826 165.284 265.652 166.928 265.39 168.563C266.078 168.406 266.7 168.042 267.172 167.52C269.853 164.567 272.534 161.621 275.212 158.625C277.299 156.26 278.078 156.048 280.966 157.322C281.36 157.491 281.742 157.685 282.11 157.904C286.23 160.494 290.32 163.087 293.658 166.68C294.247 167.235 294.876 167.746 295.539 168.21C295.781 168.015 296.007 167.803 296.217 167.574C300.287 162.029 304.658 156.709 309.309 151.638C310.503 150.333 312.064 150.376 313.564 151.502C315.9 153.252 318.336 154.874 320.764 156.488C322.125 157.413 323.542 158.251 325.008 158.998C327.862 160.404 330.096 162.643 332.679 164.413C335.406 166.28 335.953 166.263 338.368 163.947C340.486 161.925 342.495 159.794 344.637 157.806C347.762 154.909 351.333 152.513 354.143 149.242C355.192 148.026 357.004 147.944 358.22 149.549C358.721 150.238 359.275 150.887 359.877 151.49C363.639 155.069 367.436 158.623 371.206 162.208C372.457 163.394 372.9 163.529 374.279 162.305C376.017 160.82 377.663 159.232 379.209 157.55C381.688 154.812 384.489 152.34 386.439 149.143C387.443 147.506 388.531 145.922 389.641 144.35C390.89 142.596 392.828 142.246 394.371 143.685C396.346 145.532 398.219 147.485 399.98 149.536C401.299 151.077 402.374 152.835 403.631 154.632C404.343 153.964 404.951 153.477 405.459 152.902C408.927 149.025 412.388 145.139 415.84 141.244C416.837 140.125 417.773 138.954 418.84 137.902C420.05 136.726 421.507 136.934 422.47 138.219C424.469 140.82 426.439 143.429 428.541 145.958C430.805 148.715 432.753 151.715 434.35 154.901C434.713 155.521 435.116 156.118 435.557 156.686C436.096 156.031 436.486 155.623 436.807 155.162C439.682 151.053 443.023 147.314 445.051 142.652L445.038 142.668ZM428.114 157.561C428.539 156 428.847 154.405 429.324 152.344L420.4 140.936C417.877 143.777 415.476 146.394 413.174 149.091C410.719 151.971 408.294 154.863 405.329 157.253C403.812 158.472 402.776 158.414 401.42 156.977C400.853 156.337 400.34 155.651 399.886 154.927C397.75 151.811 395.724 148.616 392.448 146.017L391.292 147.751C390.098 149.691 388.797 151.564 387.396 153.361C384.838 156.32 382.12 159.16 379.332 161.919C377.894 163.301 376.325 164.541 374.647 165.622C372.654 166.946 371.605 166.81 369.875 165.175C366.716 162.181 363.641 159.137 360.486 156.106C358.942 154.653 357.561 153.052 355.973 152.105C353.854 153.797 351.96 155.301 350.081 156.826C349.34 157.382 348.63 157.978 347.954 158.612C345.734 160.814 343.568 163.084 341.331 165.266C340.378 166.224 339.337 167.09 338.221 167.853C335.779 169.46 334.346 169.408 331.963 167.711C328.6 165.313 325.269 162.862 321.854 160.539C319.378 158.856 316.771 157.376 314.256 155.76C313.38 155.188 312.599 154.437 311.609 153.686C310.647 154.694 309.696 155.55 308.921 156.538C305.205 161.216 301.558 165.947 297.836 170.625C296.429 172.39 294.989 172.748 293.153 170.834C289.436 166.972 285.615 163.276 280.957 160.514C278.789 159.226 278.331 159.172 276.666 161.062C274.328 163.661 272.099 166.367 269.575 168.777C267.769 170.505 266.73 172.683 265.595 174.724C263.721 178.323 262.051 182.024 260.593 185.809C259.154 188.991 258.01 192.296 257.173 195.685C256.717 197.551 255.909 199.315 254.793 200.881C250.58 206.923 246.253 212.973 241.883 218.925C239.53 222.136 236.987 225.209 234.529 228.347C233.866 229.191 233.203 230.042 233.477 231.389C233.992 231.564 234.525 231.679 235.067 231.732C235.351 231.702 235.639 231.73 235.913 231.812C236.187 231.895 236.442 232.031 236.662 232.212C236.883 232.393 237.065 232.617 237.199 232.869C237.332 233.121 237.414 233.397 237.439 233.681C237.578 234.447 237.67 235.221 237.715 235.998C237.765 236.713 237.746 237.376 237.753 238.102C240.031 238.9 242.128 239.898 244.338 240.342C246.306 240.738 247.41 241.567 247.719 243.522C247.725 243.608 247.945 243.658 248.14 243.766C248.642 243.549 249.156 243.362 249.681 243.207C251.632 242.727 252.477 243.265 252.859 245.223C252.938 245.641 252.918 246.081 253.027 246.498C253.523 248.972 254.731 249.528 256.948 248.311C258.741 247.332 259.985 247.576 261.256 249.156C261.667 249.667 262.105 250.154 262.717 250.867C263.12 250.12 263.537 249.681 263.529 249.265C263.503 246.391 264.468 243.665 265.246 240.944C265.66 239.222 266.323 237.568 267.213 236.035C269.816 231.952 271.944 227.593 274.195 223.332C275.975 219.917 278.201 216.751 280.814 213.918C282.116 212.513 283.472 211.154 284.805 209.782C285.055 209.528 285.344 209.119 285.618 209.115C287.412 209.077 288.495 207.643 289.964 206.974C291.433 206.305 292.451 206.313 292.858 207.083C293.265 207.853 292.659 208.685 291.295 209.513C290.196 210.159 289.158 210.905 288.196 211.74C286.925 212.87 285.834 214.203 284.556 215.334C282.123 217.486 280.57 220.268 278.684 222.929C280.189 223.824 281.602 224.531 282.882 225.406C284.534 226.542 284.888 226.647 286.381 225.394C289.456 222.823 292.313 220.009 294.299 216.508C295.044 215.191 296.31 215.341 297.318 214.789C298.138 214.337 298.503 215.225 299.061 215.575C299.632 215.872 300.224 216.129 300.832 216.343C301.966 216.745 303.072 217.223 304.142 217.775C308.991 220.689 313.801 223.67 318.783 226.725C321.768 224.628 323.57 221.269 325.731 218.208C327.892 215.148 330.609 212.307 332.023 208.766L327.475 203.539C326.777 202.732 326.138 201.848 325.366 201.118C321.318 197.265 318.088 192.737 314.674 188.351C313.59 186.988 312.701 185.397 311.759 183.895C311.012 182.696 310.335 181.463 309.602 180.256C307.382 176.628 305.156 173.008 302.924 169.396C305.09 167.967 305.629 168.037 306.876 169.784C307.002 169.957 307.112 170.142 307.202 170.337C310.11 176.145 314.13 181.251 317.762 186.592C319.643 189.363 321.698 192.013 323.912 194.527C328.203 199.377 332.657 204.079 337.05 208.836C338.789 210.714 340.535 212.584 342.322 214.416C344.109 216.247 346.018 217.97 347.75 219.848C349.147 221.362 350.286 223.116 351.688 224.608C355.893 229.147 358.95 234.421 361.535 239.956C362.917 242.916 363.913 246.039 365.056 249.094C366.026 251.629 367.721 253.28 370.531 253.538C371.314 253.607 372.101 253.624 372.887 253.591C375.809 253.482 376.765 252.712 377.685 249.953C379.301 245.176 380.873 240.387 382.643 235.65C383.594 233.133 384.594 230.591 386.479 228.542C388.73 226.054 390.681 223.311 392.289 220.369C392.808 219.433 393.376 218.525 393.991 217.649C396.179 214.572 398.376 211.502 400.61 208.451C403.305 204.771 406.099 201.156 408.748 197.436C411.141 194.072 413.696 190.768 415.645 187.147C418.438 181.958 421.893 177.068 423.497 171.286C423.596 171.03 423.714 170.781 423.85 170.543C425.772 166.334 426.91 161.942 428.113 157.546L428.114 157.561ZM373.314 257.975C373.275 257.41 373.365 256.735 372.506 256.73C371.647 256.725 371.61 257.331 371.668 258.06C372.065 262.525 372.368 266.99 372.8 271.453C373.002 273.523 373.419 275.579 373.743 277.648L374.402 277.481C374.119 274.956 373.706 272.447 373.581 269.918C373.413 265.94 373.403 261.958 373.314 257.975Z" fill="#4D3826"/>
<path d="M451.384 183.516C451.433 184.231 451.482 184.946 451.532 185.662C451.596 189 451.596 192.343 451.699 195.714C451.862 200.907 452.091 206.096 452.291 211.293C452.442 215.057 452.666 218.829 452.725 222.599C452.836 229.96 451.867 237.245 450.809 244.507C450.169 249.588 449.208 254.625 447.932 259.587C446.229 265.751 443.872 271.731 441.86 277.816C439.496 284.765 436.753 291.582 433.645 298.235C432.46 300.826 431.402 303.473 430.105 306.008C428.713 308.736 427.104 311.356 425.608 314.027C424.536 315.956 423.562 317.943 422.4 319.814C421.738 320.818 420.947 321.731 420.047 322.53C417.866 324.587 415.566 326.494 412.681 327.557C412.045 327.876 411.44 328.255 410.877 328.689C407.175 330.981 403.505 333.314 399.77 335.544C395.854 337.872 391.897 340.125 387.923 342.349C386.668 343.012 385.377 343.606 384.056 344.128C377.69 346.807 370.977 347.598 364.15 347.671C360.509 347.708 356.841 347.985 353.236 347.604C346.274 346.874 339.384 345.52 332.892 342.831C330.397 341.804 327.992 340.512 325.597 339.263C321.046 336.884 316.56 334.4 311.998 332.065C307.612 329.823 303.537 327.021 299.879 323.729C296.495 320.694 292.978 317.826 289.519 314.854C287.116 312.716 285.101 310.181 283.562 307.361C278.647 298.848 274.429 289.954 270.947 280.765C269.44 276.694 267.652 272.735 266.659 268.491C265.825 264.883 265 261.281 264.136 257.553C266.158 256.528 266.094 256.547 265.637 254.624C265.461 253.877 265.515 253.094 265.792 252.377C266.63 250.28 267.217 248.091 267.543 245.858C267.994 242.761 269.048 239.782 270.646 237.087C272.663 233.913 274.371 230.538 276.215 227.254C276.453 226.828 276.706 226.415 276.978 225.964C278.488 226.255 279.841 227.08 280.789 228.287C282.018 229.689 283.033 230.072 284.717 229.271C286.356 228.568 287.88 227.621 289.234 226.463C291.464 224.381 293.92 222.542 295.697 219.953C296.819 218.329 297.464 218.27 299.378 219.143C303.395 220.997 307.214 223.248 310.78 225.861C312.566 227.174 314.338 228.489 316.148 229.736C317.421 230.618 318.633 230.612 320.036 229.3C322.187 227.313 324.21 225.191 326.091 222.948C328.128 220.484 329.875 217.774 331.85 215.243C332.745 214.095 333.155 212.5 334.778 211.869C338.168 215.307 341.646 218.666 344.922 222.219C347.191 224.678 349.209 227.362 351.231 230.003C354.828 234.663 357.418 239.888 359.667 245.288C360.533 247.384 361.23 249.543 362.089 251.639C362.46 252.72 363.081 253.697 363.904 254.492C364.726 255.287 365.725 255.876 366.82 256.213C367.238 256.314 367.611 256.549 367.882 256.882C368.153 257.215 368.306 257.628 368.318 258.056C368.604 260.315 368.955 262.57 369.168 264.833C369.653 270.083 369.845 275.368 371.109 280.513C371.599 282.492 372.702 283.515 374.199 283.461C374.514 283.466 374.825 283.385 375.099 283.228C375.373 283.071 375.599 282.844 375.753 282.569C377.035 280.654 377.544 278.329 377.18 276.058C376.689 272.397 376.601 268.722 376.42 265.047C376.315 262.898 376.174 260.751 376.1 258.643C376.059 257.208 376.247 256.067 377.789 255.097C379.567 253.981 380.428 252.038 381.034 249.839C382.41 245.214 384.177 240.706 385.819 236.171C386.208 234.948 386.726 233.77 387.366 232.656C388.388 231.054 389.636 229.587 390.771 228.048C391.909 226.674 392.957 225.228 393.906 223.718C397.117 217.974 401.085 212.731 405.056 207.552C407.289 204.679 409.272 201.622 411.498 198.75C412.567 197.332 413.824 196.064 415.235 194.982C417.864 193.038 420.661 191.333 423.663 189.363C426.018 191.6 428.341 193.89 430.664 196.194C431.773 197.31 432.747 198.557 433.895 199.613C435.783 201.358 437.278 201.491 439.193 199.755C440.875 198.112 442.442 196.355 443.88 194.497C444.889 193.293 445.821 192.028 446.671 190.709C447.978 188.734 449.114 186.693 450.326 184.703C450.564 184.219 450.93 183.809 451.384 183.516ZM438.436 223.709C438.533 223.6 438.599 223.467 438.628 223.325C438.657 223.183 438.648 223.035 438.602 222.897C438.556 222.759 438.474 222.636 438.365 222.539C438.257 222.443 438.124 222.376 437.981 222.346C437.409 222.167 436.792 222.187 436.232 222.402C435.671 222.618 435.2 223.016 434.896 223.531C434.428 224.484 434.139 225.525 433.715 226.489C432.955 228.231 432.15 229.955 431.318 231.796C433.212 233.102 434.729 233.233 435.658 231.968C436.995 230.284 437.8 228.245 437.974 226.106C437.973 225.258 437.855 224.483 438.436 223.709ZM426.354 289.922C426.793 289.033 427.161 288.111 427.455 287.164C426.025 285.79 424.701 286.156 423.525 286.877C421.091 288.39 419.098 290.511 417.744 293.031C417.448 293.595 417.27 294.214 417.221 294.85C417.104 296.188 417.69 296.837 419.019 296.96C419.76 297.092 420.523 297.01 421.22 296.723C421.916 296.437 422.515 295.957 422.947 295.342C424.137 293.556 425.291 291.765 426.354 289.922ZM378.193 335.687C378.681 333.885 376.954 331.338 375.313 331.489C374.019 331.559 372.8 332.114 371.899 333.042C369.685 335.352 367.435 337.666 365.045 340.161C365.736 341.285 366.716 341.26 367.808 340.774C368.699 340.405 369.656 340.224 370.621 340.24C373.142 340.196 375.545 339.161 377.305 337.359C377.733 336.893 378.039 336.328 378.194 335.716L378.193 335.687ZM351.565 294.123C352.985 293.787 353.483 293.055 353.041 291.669C352.409 289.729 351.714 287.808 350.938 285.555C350.032 285.503 349.046 285.428 348.042 285.411C347.632 285.376 347.221 285.445 346.845 285.612C346.469 285.779 346.142 286.037 345.893 286.364C345.645 286.691 345.484 287.075 345.424 287.48C345.365 287.886 345.41 288.299 345.555 288.683C345.977 289.965 346.546 291.194 347.251 292.346C348.38 294.179 349.555 294.586 351.565 294.123ZM306.962 319.419C308.239 319.1 309.271 318.367 309.007 317.681C308.618 316.8 308.074 315.995 307.4 315.305C305.596 313.425 303.623 311.701 301.867 309.774C299.853 307.571 297.996 305.228 296.078 302.939C295.968 302.775 295.826 302.634 295.661 302.525C295.496 302.416 295.311 302.34 295.117 302.303C294.922 302.266 294.722 302.267 294.528 302.308C294.334 302.348 294.15 302.426 293.987 302.538C293.203 303.002 292.615 303.575 292.998 304.62C293.391 305.536 293.737 306.472 294.035 307.423C295.344 312.27 298.653 315.476 302.824 317.896C304.153 318.519 305.535 319.024 306.954 319.405L306.962 319.419ZM296.883 260.348C298.115 260.112 298.391 259.201 297.881 258.079C297.532 257.313 297.198 256.545 296.807 255.688C296.505 255.592 296.19 255.546 295.874 255.552C294.76 255.725 293.656 255.955 292.566 256.242C291.646 256.493 292.026 257.409 291.772 258.009C291.648 258.298 291.122 258.413 290.385 258.824C291.276 259.558 292.325 260.077 293.451 260.339C294.577 260.601 295.749 260.6 296.875 260.335L296.883 260.348Z" fill="#FFFDE1"/>
<path d="M446.067 157.942C447.203 164.678 448.305 171.445 448.523 178.266C448.608 179.68 448.35 181.094 447.768 182.387C445.18 187.707 441.785 192.599 437.702 196.89C437.422 197.154 437.129 197.402 436.822 197.634C436.219 197.199 435.674 196.689 435.202 196.115C433.398 193.218 431.032 190.709 428.243 188.735C427.652 188.225 427.1 187.673 426.592 187.082C424.77 185.253 423.326 185.239 421.456 186.986C420.395 188.01 419.235 188.926 417.994 189.722C424.213 179.692 429.174 169.189 431.932 157.302C432.506 158.096 432.797 158.543 433.128 158.951C434.491 160.61 436.076 160.687 437.41 158.998C439.494 156.373 441.466 153.684 443.48 150.991C443.632 150.787 443.799 150.588 444.263 149.995C444.94 152.903 445.653 155.398 446.067 157.942Z" fill="#E5AD83"/>
<path d="M445.631 138.943C445.802 140.191 445.58 141.463 444.994 142.581C442.979 147.243 439.636 150.984 436.802 155.077C436.48 155.538 436.09 155.946 435.551 156.602C435.111 156.034 434.708 155.437 434.346 154.817C432.75 151.631 430.803 148.632 428.541 145.876C426.462 143.347 424.471 140.739 422.473 138.14C421.483 136.857 420.026 136.649 418.844 137.824C417.776 138.869 416.833 140.049 415.842 141.167C412.378 145.056 408.916 148.944 405.457 152.831C404.948 153.406 404.34 153.894 403.628 154.562C402.357 152.767 401.298 151.008 399.98 149.468C398.22 147.417 396.348 145.465 394.374 143.618C392.832 142.18 390.894 142.531 389.644 144.285C388.533 145.858 387.445 147.443 386.439 149.08C384.496 152.278 381.687 154.752 379.206 157.491C377.66 159.174 376.013 160.763 374.275 162.248C372.915 163.457 372.452 163.338 371.202 162.153C367.435 158.584 363.64 155.031 359.878 151.44C359.276 150.837 358.723 150.188 358.222 149.499C357.007 147.895 355.231 147.975 354.146 149.194C351.32 152.46 347.748 154.858 344.637 157.763C342.494 159.752 340.484 161.884 338.365 163.907C335.95 166.232 335.404 166.27 332.676 164.375C330.094 162.607 327.863 160.397 325.008 158.964C323.543 158.218 322.126 157.38 320.766 156.456C318.339 154.842 315.902 153.2 313.568 151.472C312.047 150.349 310.508 150.305 309.313 151.61C304.611 156.691 300.191 162.024 296.073 167.585C295.863 167.814 295.637 168.027 295.395 168.222C294.732 167.758 294.103 167.247 293.515 166.692C290.178 163.093 286.088 160.495 281.971 157.921C281.603 157.702 281.221 157.508 280.827 157.339C277.943 156.102 277.147 156.28 275.073 158.645C272.437 161.639 269.712 164.59 267.03 167.544C266.557 168.066 265.935 168.431 265.248 168.588C265.495 166.953 265.685 165.308 266.006 163.69C266.867 159.224 267.72 154.751 268.691 150.32C269.189 148.472 269.786 146.653 270.479 144.868C270.821 143.86 271.17 142.851 271.534 141.855C273.624 136.187 276.097 130.666 278.936 125.331C280.673 122.069 282.082 118.642 283.946 115.436C286.739 110.641 289.735 105.961 292.753 101.301C296.311 95.8812 300.3 90.7548 304.682 85.9714C307.886 82.4129 310.941 78.7066 314.809 75.8854C319.419 72.5381 324.148 69.3407 328.877 66.1576C331.125 64.6496 333.486 63.3135 335.802 61.9518C341.888 58.4823 348.4 55.8177 355.175 54.0256C356.843 53.6182 358.557 53.4264 360.273 53.455C363.061 53.4128 365.848 53.5259 368.623 53.7939C372.529 54.2217 376.367 55.1279 380.05 56.4919C382.456 57.3811 384.917 58.1298 387.324 59.0262C388.67 59.4885 389.964 60.0899 391.185 60.8205C394.128 62.693 396.974 64.7305 399.887 66.6843C400.234 66.9167 400.525 67.2228 400.74 67.5807C400.954 67.9387 401.086 68.3395 401.126 68.7545C401.572 71.7188 401.537 74.7357 401.022 77.6899C400.804 79.1427 401.279 80.1592 402.425 80.6689C403.571 81.1785 405.29 80.8863 405.983 79.9539C406.665 78.9583 407.261 77.9068 407.765 76.8107C408.122 75.9083 408.43 74.987 408.685 74.0509C409.473 75.0168 410.059 75.7668 410.64 76.5459C415.054 82.4925 419.607 88.3504 423.836 94.425C427.12 99.1492 430.026 104.144 433.07 109.043C434.311 111.041 435.408 113.129 436.677 115.111C441.281 122.352 444.329 130.466 445.631 138.943ZM413.018 123.867C414.151 122.717 414.137 122.726 413.197 120.915C413.011 120.459 412.865 119.988 412.76 119.507C412.121 119.382 411.462 119.384 410.823 119.515C410.184 119.646 409.578 119.902 409.04 120.27C407.259 121.551 407.371 123.376 409.327 124.433C409.928 124.716 410.601 124.813 411.259 124.712C411.916 124.611 412.529 124.317 413.018 123.867ZM360.457 117.908C359.834 115.357 357.883 114.271 355.409 115.32C352.325 116.634 348.806 117.296 346.649 120.638C347.121 123.301 348.339 124.215 351.057 123.775C351.815 123.596 352.556 123.352 353.272 123.045C356.187 121.994 358.061 119.571 360.457 117.908ZM349.46 72.7253C349.227 71.4333 348.944 70.0584 348.733 68.6713C348.575 67.6328 348.287 66.6969 347.096 66.485C346.524 66.4176 345.945 66.5496 345.459 66.8586C344.973 67.1676 344.608 67.6346 344.428 68.1803C343.985 69.5188 343.669 70.8958 343.485 72.2931C343.421 72.5382 343.417 72.7952 343.473 73.0421C343.53 73.289 343.645 73.5186 343.81 73.7112C343.975 73.9038 344.185 74.0537 344.421 74.1482C344.656 74.2426 344.912 74.2788 345.165 74.2536C345.863 74.2025 346.548 74.0283 347.185 73.7392C347.891 73.5032 348.53 73.1495 349.46 72.7253ZM309.763 110.555C310.37 110.253 311.051 110.084 310.828 109.258C310.712 108.573 310.419 107.929 309.977 107.391C308.195 105.718 306.306 104.167 304.457 102.564L303.111 102.823C302.688 102.872 302.269 102.954 301.858 103.068C300.536 103.563 300.127 104.116 300.581 105.472C301.081 107.085 301.791 108.626 302.694 110.055C304.05 112.045 305.966 112.623 307.904 111.848C308.587 111.6 309.087 110.896 309.763 110.555Z" fill="#FFFDE1"/>
<path d="M437.99 222.343C438.133 222.373 438.265 222.439 438.374 222.536C438.483 222.633 438.564 222.756 438.61 222.894C438.656 223.032 438.665 223.179 438.636 223.322C438.607 223.464 438.541 223.597 438.445 223.706C437.862 224.465 437.982 225.255 437.955 226.12C437.781 228.258 436.975 230.298 435.639 231.982C434.738 233.245 433.221 233.121 431.298 231.81C432.131 229.969 432.935 228.245 433.695 226.503C434.118 225.524 434.407 224.483 434.876 223.545C435.18 223.02 435.654 222.614 436.221 222.396C436.787 222.177 437.412 222.158 437.99 222.343Z" fill="#4D3826"/>
<path d="M429.272 152.24C428.794 154.301 428.485 155.889 428.06 157.457C426.87 161.853 425.694 166.248 423.795 170.413C423.659 170.652 423.541 170.9 423.442 171.156C421.836 176.94 418.407 181.83 415.584 187.022C413.633 190.644 411.076 193.949 408.682 197.315C406.053 201.035 403.236 204.653 400.539 208.334C398.303 211.365 396.106 214.458 393.916 217.536C393.301 218.413 392.733 219.321 392.214 220.257C390.605 223.202 388.653 225.948 386.4 228.44C384.522 230.49 383.521 233.032 382.562 235.55C380.789 240.274 379.216 245.078 377.597 249.856C376.669 252.616 375.713 253.387 372.798 253.497C372.013 253.53 371.226 253.513 370.442 253.445C367.633 253.188 365.939 251.537 364.97 249.003C363.8 245.95 362.805 242.828 361.453 239.867C358.907 234.329 355.816 229.059 351.614 224.521C350.219 223.015 349.08 221.262 347.678 219.763C345.947 217.885 344.039 216.171 342.253 214.333C340.467 212.495 338.722 210.632 336.983 208.755C332.595 204.028 328.142 199.306 323.854 194.451C321.64 191.938 319.587 189.288 317.707 186.519C314.078 181.179 310.06 176.074 307.156 170.267C307.065 170.073 306.956 169.888 306.829 169.714C305.583 167.968 305.044 167.898 302.878 169.328C305.104 172.94 307.328 176.559 309.55 180.186C310.283 181.392 310.96 182.625 311.706 183.824C312.647 185.325 313.533 186.881 314.618 188.279C318.03 192.664 321.256 197.162 325.304 201.042C326.076 201.772 326.714 202.655 327.412 203.462L331.957 208.688C330.542 212.23 327.856 215.019 325.661 218.133C323.466 221.248 321.696 224.555 318.71 226.654C313.73 223.601 308.914 220.622 304.074 217.71C303.005 217.158 301.899 216.681 300.764 216.28C300.157 216.065 299.565 215.808 298.994 215.511C298.436 215.162 298.072 214.274 297.252 214.727C296.244 215.279 294.978 215.13 294.232 216.447C292.244 219.949 289.387 222.765 286.31 225.337C284.817 226.591 284.463 226.486 282.812 225.35C281.532 224.476 280.141 223.768 278.615 222.875C280.493 220.192 282.055 217.41 284.49 215.278C285.769 214.146 286.86 212.812 288.131 211.681C289.094 210.846 290.132 210.1 291.231 209.453C292.618 208.637 293.196 207.814 292.795 207.022C292.394 206.231 291.343 206.261 289.902 206.914C288.461 207.568 287.349 209.019 285.555 209.057C285.282 209.076 284.992 209.47 284.742 209.725C283.394 211.098 282.045 212.457 280.749 213.863C278.135 216.698 275.908 219.865 274.127 223.281C271.875 227.564 269.774 231.923 267.139 235.988C266.233 237.518 265.555 239.17 265.126 240.894C264.347 243.615 263.379 246.314 263.406 249.216C263.434 249.631 262.995 250.057 262.593 250.818C261.981 250.106 261.543 249.619 261.133 249.108C259.862 247.529 258.619 247.285 256.825 248.265C254.608 249.483 253.4 248.928 252.905 246.453C252.826 246.035 252.846 245.595 252.738 245.178C252.357 243.221 251.512 242.683 249.561 243.164C249.037 243.319 248.522 243.506 248.02 243.724C247.825 243.615 247.612 243.565 247.599 243.48C247.292 241.539 246.188 240.703 244.219 240.301C242.024 239.857 239.914 238.861 237.636 238.063C237.63 237.345 237.645 236.625 237.6 235.96C237.555 235.183 237.463 234.409 237.324 233.643C237.299 233.359 237.217 233.083 237.084 232.831C236.951 232.578 236.769 232.355 236.548 232.174C236.328 231.993 236.073 231.857 235.799 231.775C235.525 231.692 235.238 231.665 234.953 231.694C234.412 231.642 233.878 231.527 233.364 231.352C233.112 230.004 233.754 229.168 234.416 228.31C236.871 225.192 239.416 222.139 241.761 218.899C246.14 212.937 250.466 206.928 254.678 200.848C255.795 199.281 256.604 197.517 257.061 195.651C257.899 192.261 259.045 188.955 260.485 185.772C261.945 181.986 263.616 178.284 265.491 174.684C266.628 172.643 267.668 170.464 269.475 168.735C272 166.324 274.23 163.617 276.568 161.017C278.27 159.123 278.728 159.177 280.859 160.467C285.516 163.226 289.335 166.921 293.05 170.782C294.885 172.695 296.325 172.336 297.732 170.571C301.457 165.89 305.106 161.158 308.823 156.478C309.606 155.489 310.557 154.632 311.512 153.624C312.504 154.403 313.282 155.125 314.159 155.697C316.673 157.312 319.279 158.791 321.754 160.473C325.168 162.795 328.497 165.244 331.859 167.641C334.241 169.337 335.676 169.424 338.117 167.781C339.233 167.016 340.274 166.15 341.228 165.192C343.465 163.009 345.632 160.737 347.854 158.534C348.529 157.9 349.24 157.303 349.981 156.747C351.861 155.229 353.755 153.724 355.875 152.024C357.464 152.998 358.866 154.597 360.386 156.023C363.536 159.024 366.613 162.095 369.77 165.088C371.499 166.722 372.547 166.857 374.541 165.532C376.219 164.451 377.789 163.21 379.228 161.827C382.01 159.067 384.728 156.226 387.295 153.265C388.697 151.467 389.998 149.594 391.193 147.653L392.387 145.93C395.662 148.528 397.686 151.722 399.82 154.837C400.274 155.561 400.787 156.247 401.354 156.887C402.708 158.324 403.744 158.381 405.262 157.161C408.23 154.798 410.669 151.875 413.111 148.995C415.414 146.297 417.794 143.68 420.34 140.836L429.272 152.24ZM401.735 201.091C399.963 200.186 399.6 200.262 398.625 201.509C398.062 202.231 397.415 202.894 396.829 203.596C395.383 205.336 393.9 207.049 392.523 208.849C392.222 209.474 392.024 210.143 391.938 210.83C393.324 211.151 394.307 211.492 395.226 210.271C396.6 208.391 398.099 206.606 399.713 204.927C400.737 203.864 401.438 202.534 401.735 201.091ZM374.584 250.109C375.057 248.286 375.34 246.419 375.69 244.597C373.774 244.012 373.282 244.097 372.899 245.23C372.225 247.137 371.94 249.159 372.061 251.176C373.398 251.629 374.295 251.25 374.584 250.109ZM370.441 252.072C370.923 249.645 369.834 247.665 368.708 245.766C368.496 245.415 367.402 245.354 366.799 245.504C366.09 245.683 366 246.465 366.239 247.11C366.675 248.302 367.237 249.449 367.656 250.606C368.075 251.763 368.817 252.365 370.442 252.087L370.441 252.072ZM343.269 213.788C344.665 215.523 346.372 215.376 347.629 213.204L341.915 206.514C340.965 205.401 340.157 205.4 338.861 205.957C337.789 206.413 337.564 207.449 338.499 208.139C340.552 209.656 341.73 211.875 343.277 213.801L343.269 213.788Z" fill="#E5AD83"/>
<path d="M427.464 287.161C427.17 288.108 426.801 289.03 426.362 289.919C425.299 291.762 424.145 293.553 422.953 295.311C422.521 295.927 421.922 296.406 421.226 296.692C420.529 296.979 419.766 297.061 419.024 296.929C417.695 296.806 417.109 296.157 417.226 294.819C417.275 294.183 417.454 293.564 417.75 292.999C419.104 290.48 421.097 288.358 423.531 286.846C424.71 286.152 426.034 285.787 427.464 287.161Z" fill="#4D3826"/>
<path d="M413.197 120.899C414.137 122.71 414.151 122.702 413.018 123.852C412.529 124.305 411.916 124.601 411.257 124.703C410.597 124.806 409.923 124.709 409.32 124.426C407.371 123.368 407.259 121.543 409.033 120.262C409.571 119.894 410.177 119.638 410.816 119.507C411.455 119.376 412.114 119.374 412.754 119.499C412.861 119.978 413.009 120.446 413.197 120.899Z" fill="#4D3826"/>
<path d="M398.629 201.506C399.603 200.259 399.981 200.183 401.739 201.088C401.434 202.522 400.73 203.842 399.707 204.896C398.093 206.575 396.594 208.361 395.22 210.241C394.301 211.462 393.316 211.092 391.932 210.8C392.018 210.113 392.215 209.443 392.517 208.819C393.893 207.019 395.377 205.305 396.823 203.566C397.418 202.891 398.065 202.228 398.629 201.506Z" fill="#4D3826"/>
<path d="M375.681 244.61C375.331 246.431 375.048 248.299 374.575 250.122C374.285 251.249 373.385 251.592 372.051 251.189C371.931 249.171 372.216 247.15 372.889 245.243C373.273 244.109 373.767 244.053 375.681 244.61Z" fill="#4D3826"/>
<path d="M372.442 256.668C373.272 256.675 373.21 257.334 373.25 257.913C373.337 261.897 373.345 265.879 373.54 269.855C373.664 272.384 374.075 274.892 374.358 277.418L373.698 277.586C373.375 275.516 372.959 273.461 372.758 271.39C372.328 266.927 372.027 262.462 371.632 257.997C371.546 257.27 371.511 256.661 372.442 256.668Z" fill="#FF8888"/>
<path d="M375.307 331.516C376.948 331.366 378.675 333.913 378.187 335.715C378.034 336.338 377.726 336.914 377.292 337.388C375.528 339.177 373.128 340.202 370.613 340.239C369.651 340.223 368.696 340.405 367.807 340.772C366.715 341.258 365.735 341.283 365.045 340.16C367.435 337.686 369.686 335.38 371.898 333.04C372.803 332.125 374.019 331.581 375.307 331.516Z" fill="#4D3826"/>
<path d="M368.703 245.781C369.83 247.679 370.919 249.66 370.437 252.087C368.811 252.366 368.068 251.835 367.654 250.656C367.241 249.477 366.67 248.316 366.237 247.16C365.998 246.516 366.081 245.733 366.797 245.554C367.398 245.369 368.491 245.429 368.703 245.781Z" fill="#4D3826"/>
<path d="M355.403 115.321C357.878 114.271 359.829 115.358 360.452 117.909C358.056 119.571 356.183 122.016 353.267 123.046C352.551 123.353 351.81 123.597 351.052 123.775C348.326 124.217 347.118 123.33 346.644 120.639C348.801 117.297 352.305 116.636 355.403 115.321Z" fill="#4D3826"/>
<path d="M348.727 68.6719C348.938 70.0591 349.221 71.4341 349.454 72.7263C348.524 73.1505 347.863 73.5056 347.166 73.7555C346.53 74.0355 345.851 74.202 345.158 74.2475C344.904 74.2739 344.648 74.2387 344.411 74.1448C344.174 74.0509 343.964 73.9012 343.798 73.7084C343.632 73.5157 343.516 73.2857 343.459 73.0382C343.402 72.7907 343.406 72.533 343.471 72.2873C343.655 70.8899 343.97 69.5128 344.414 68.1742C344.595 67.6296 344.96 67.1641 345.447 66.8564C345.933 66.5488 346.511 66.4179 347.082 66.4858C348.28 66.6972 348.569 67.6333 348.727 68.6719Z" fill="#4D3826"/>
<path d="M353.034 291.659C353.478 293.066 353.007 293.774 351.558 294.112C349.557 294.59 348.381 294.182 347.243 292.335C346.539 291.183 345.97 289.954 345.548 288.672C345.403 288.288 345.358 287.875 345.417 287.469C345.476 287.064 345.637 286.68 345.886 286.353C346.134 286.026 346.462 285.767 346.837 285.601C347.213 285.434 347.625 285.365 348.035 285.4C349.025 285.417 350.011 285.492 350.931 285.543C351.707 287.797 352.405 289.754 353.034 291.659Z" fill="#4D3826"/>
<path d="M347.634 213.218C346.377 215.391 344.67 215.538 343.273 213.802C341.697 211.878 340.549 209.678 338.473 208.141C337.538 207.451 337.762 206.415 338.835 205.959C340.131 205.401 340.961 205.401 341.89 206.515L347.634 213.218Z" fill="#4D3826"/>
<path d="M310.827 109.262C311.049 110.087 310.368 110.257 309.761 110.558C309.155 110.859 308.585 111.603 307.897 111.874C305.957 112.627 304.041 112.049 302.686 110.08C301.783 108.651 301.073 107.11 300.573 105.497C300.112 104.141 300.521 103.588 301.85 103.093C302.261 102.979 302.68 102.897 303.103 102.848L304.443 102.596C306.292 104.2 308.181 105.751 309.964 107.424C310.405 107.952 310.702 108.585 310.827 109.262Z" fill="#4D3826"/>
<path d="M308.974 317.669C309.268 318.367 308.235 319.086 306.929 319.407C305.495 319.023 304.098 318.511 302.755 317.879C298.584 315.459 295.274 312.254 293.966 307.406C293.668 306.455 293.321 305.519 292.928 304.603C292.531 303.56 293.134 302.986 293.917 302.521C294.081 302.41 294.265 302.331 294.459 302.291C294.653 302.251 294.853 302.249 295.047 302.286C295.242 302.324 295.427 302.399 295.592 302.508C295.757 302.617 295.898 302.758 296.008 302.922C297.927 305.211 299.784 307.555 301.798 309.758C303.554 311.684 305.527 313.409 307.331 315.289C308.018 315.977 308.575 316.783 308.974 317.669Z" fill="#4D3826"/>
<path d="M297.859 258.067C298.369 259.189 298.093 260.1 296.861 260.336C295.736 260.595 294.567 260.591 293.445 260.325C292.323 260.059 291.277 259.538 290.391 258.803C291.085 258.402 291.625 258.285 291.778 257.987C292.032 257.387 291.673 256.47 292.572 256.221C293.662 255.934 294.766 255.703 295.88 255.531C296.197 255.525 296.512 255.571 296.813 255.667C297.197 256.532 297.532 257.299 297.859 258.067Z" fill="#4D3826"/>
</g>
</svg>
