<svg width="257" height="270" viewBox="0 0 257 270" fill="none" xmlns="http://www.w3.org/2000/svg">
<mask id="mask0" mask-type="alpha" maskUnits="userSpaceOnUse" x="0" y="0" width="257" height="270">
<path fill-rule="evenodd" clip-rule="evenodd" d="M127.348 2.61876C143.746 0.71872 161.444 -2.8368 176.427 4.08762C191.471 11.0407 197.898 28.7971 209.527 40.5995C220.629 51.8668 236.147 58.9059 243.979 72.6455C251.871 86.4912 252.517 103.084 254.178 118.932C255.849 134.882 258.395 151.259 253.827 166.633C249.267 181.975 237.674 193.869 228.096 206.697C218.484 219.572 210.208 233.904 196.886 242.895C183.449 251.963 166.943 254.393 151.27 258.544C134.842 262.895 118.022 272.621 101.635 268.12C85.0193 263.557 77.1783 244.284 63.1147 234.334C49.8768 224.969 31.8709 222.935 20.8967 211C9.81687 198.951 3.27865 182.819 0.863568 166.635C-1.49385 150.837 4.69342 135.322 7.25109 119.555C9.68565 104.547 9.89403 89.1788 15.7075 75.1284C21.666 60.7275 29.9741 47.0752 41.5574 36.6411C53.1243 26.2219 68.0146 20.7128 82.4894 14.9725C97.0297 9.20616 111.809 4.41937 127.348 2.61876Z" fill="#C4C4C4"/>
</mask>
<g mask="url(#mask0)">
<rect x="-49.4536" y="-18.29" width="355.656" height="307.357" fill="#E8F4EF"/>
<path d="M75.4289 95.7656C78.7343 95.4846 81.7587 95.3524 84.7376 94.9392C90.6047 94.1129 96.4593 93.4064 102.409 93.5634C107.338 93.6915 112.275 93.5882 117.238 93.5882C116.543 90.4481 115.858 87.341 115.172 84.1885C112.251 84.1885 112.251 84.1885 112.404 83.2589C114.717 82.8044 116.911 82.3499 119.113 81.9616C119.46 81.9037 119.857 82.1392 120.229 82.2425C119.985 82.5896 119.75 82.949 119.477 83.2754C119.407 83.3663 119.221 83.3581 119.064 83.3911C116.771 83.9654 116.345 84.6306 116.804 86.9237C116.987 87.9805 117.23 89.0261 117.531 90.0556C117.655 90.4398 118.167 90.6877 118.44 91.0513C118.63 91.2855 118.738 91.576 118.746 91.8776C118.661 92.4685 118.539 93.0536 118.382 93.6295H126.282C125.794 92.2867 125.311 90.9645 124.732 89.3821C124.509 89.9068 124.365 90.2539 124.212 90.5927C123.609 91.9272 122.642 92.1173 121.816 90.9067C121.324 90.1878 121.216 89.2044 120.952 88.3326C120.758 87.6922 120.584 87.0477 120.402 86.4031L119.948 86.2668C120.303 85.99 120.659 85.7131 121.01 85.4405C121.309 85.7905 121.554 86.1832 121.737 86.6056C122.068 87.8451 122.299 89.0846 122.588 90.4315C124.584 89.1259 123.154 86.6428 124.906 85.3124C125.836 88.1798 126.699 90.8488 127.583 93.6006L130.414 93.77C128.682 92.0305 128.348 90.0184 128.699 87.8492C128.939 86.4114 129.786 85.647 130.785 86.0313C131.318 86.2379 132.025 86.8287 132.062 87.2708C132.099 87.9567 131.682 88.7128 131.31 89.3366C131.137 89.6383 130.633 89.7498 130.104 90.0473C130.459 90.8736 130.806 91.7 131.207 92.6255L133.686 90.853L134.037 91.2L132.05 93.898C136.053 93.898 140.032 93.8154 144.003 93.898C150.056 94.0509 156.109 94.336 162.162 94.5509C165.839 94.6789 169.528 94.6831 173.201 94.9186C177.891 95.2202 182.564 95.8771 187.249 96.0589C194.1 96.3233 200.962 96.1374 207.804 96.4721C213.75 96.753 219.675 97.4513 225.604 98.0256C226.058 98.0711 226.467 98.6206 226.897 98.9387C226.335 99.0833 225.753 99.4097 225.215 99.3519C221.753 98.9387 218.311 98.2198 214.845 98.0752C206.602 97.7281 198.339 97.7901 190.1 97.4141C183.684 97.1208 177.292 96.3812 170.884 95.9019C168.979 95.7614 167.053 95.8606 165.145 95.7862C158.902 95.5466 152.663 95.1995 146.42 95.0384C139.297 94.8525 132.17 94.7864 125.047 94.7409C118.436 94.6996 111.825 94.7409 105.194 94.7409C101.789 94.7409 98.3681 94.6418 94.9843 94.9268C89.6998 95.3772 84.4484 96.1333 79.1722 96.7076C78.0396 96.7694 76.9045 96.7694 75.7719 96.7076C75.7719 99.3519 75.7471 101.81 75.7719 104.273C75.8628 111.454 75.9495 118.635 76.0859 125.815C76.2594 135.376 76.499 144.937 77.6766 154.44C78.3831 160.084 79.2177 165.711 79.8374 171.38C80.3209 175.772 80.5274 180.197 80.9241 184.601C81.1059 186.63 81.4447 188.646 81.7174 190.667C81.7985 190.934 81.8348 191.213 81.8248 191.493C81.6908 191.849 81.519 192.19 81.3125 192.509C81.0109 192.237 80.4861 191.993 80.4407 191.683C80.1391 189.704 79.8912 187.712 79.7176 185.713C79.2631 180.519 78.8913 175.317 78.4244 170.128C78.1021 166.599 77.66 163.104 77.2675 159.567C76.6478 153.969 75.8751 148.383 75.4496 142.772C75.0943 138.124 75.1232 133.447 75.0364 128.782C74.834 119.787 74.6935 110.788 74.4621 101.798C74.2406 94.5353 74.5305 87.2663 75.3298 80.0445C75.5487 78.148 75.5405 76.2268 75.8214 74.3427C76.0735 72.6487 76.4412 71.653 78.4037 71.7232C80.8828 71.81 83.3824 72.1612 85.8656 72.4215C90.5427 72.9131 95.2115 73.6114 99.9134 73.8552C103.198 74.0287 106.524 73.3387 109.829 73.4668C117.552 73.7643 125.261 74.4377 132.967 74.7352C136.636 74.8757 140.321 74.4832 143.999 74.3675C145.858 74.3097 147.717 74.3344 149.585 74.3055C153.964 74.2394 158.34 74.1444 162.719 74.0989C167.562 74.0494 172.408 74.1485 177.242 73.975C181.572 73.818 185.886 73.3346 190.212 73.0784C193.141 72.9049 196.075 72.7851 199.004 72.7975C205.904 72.8346 212.8 72.9792 219.695 73.0495C221.468 73.0495 223.245 73.0495 225.009 72.8801C226.248 72.7727 226.703 73.2933 226.79 74.4253C227.116 78.6975 227.517 82.9697 227.789 87.2336C228.343 95.8482 228.88 104.459 229.331 113.073C229.595 118.155 229.715 123.241 229.851 128.323C230.012 134.182 230.091 140.041 230.264 145.9C230.454 152.457 230.525 159.026 230.992 165.562C231.4 170.719 232.069 175.852 232.995 180.941C233.384 183.147 233.206 185.072 231.884 186.725C231.232 187.539 230.305 188.086 229.277 188.262C223.625 188.836 217.931 189.088 212.291 189.741C206.838 190.394 201.421 189.894 195.988 189.803C187.369 189.663 178.75 189.295 170.132 189.266C163.422 189.245 156.708 189.534 150.002 189.795C145.391 189.972 140.788 190.361 136.181 190.621C132.69 190.815 129.182 190.803 125.703 191.125C120.613 191.6 115.539 192.307 110.457 192.889C108.003 193.17 105.549 193.497 103.082 193.637C96.3932 194.017 89.6957 194.315 82.9982 194.629C82.3971 194.658 81.7946 194.624 81.2009 194.526C80.9406 194.484 80.4861 194.133 80.515 194.05C80.6303 193.716 80.8329 193.417 81.1017 193.187C81.2422 193.067 81.5521 193.137 81.7835 193.129C87.0762 192.947 92.3689 192.815 97.6575 192.563C101.698 192.373 105.756 192.232 109.759 191.712C119.006 190.51 128.277 189.646 137.586 189.233C142.755 188.985 147.915 188.82 153.097 188.58C157.798 188.378 162.496 188.047 167.198 187.956C171.094 187.882 174.995 188.088 178.895 188.134C181.68 188.167 184.464 188.134 187.522 188.134C186.981 182.292 186.448 176.565 185.911 170.744L165.074 171.983C165.488 173.636 165.901 175.218 166.248 176.809C166.595 178.4 167.016 180.077 167.272 181.734C167.339 182.147 166.938 182.672 166.752 183.147C166.479 182.692 166.066 182.267 165.967 181.779C165.62 180.102 165.74 178.214 164.988 176.768C164.36 175.565 164.215 174.412 164.041 173.198C163.905 172.281 163.459 172.082 162.604 172.169C158.612 172.582 154.621 172.95 150.622 173.28C147.928 173.509 145.228 173.676 142.524 173.78C141.573 173.822 141.325 174.156 141.412 175.061C141.598 177.007 141.677 178.961 141.85 180.908C141.883 181.263 142.23 181.577 142.296 181.936C142.512 183.082 142.668 184.237 142.763 185.399C142.763 185.572 142.04 186.018 141.937 185.944C141.57 185.706 141.304 185.341 141.189 184.919C140.896 182.139 140.677 179.354 140.433 176.569C140.363 175.743 140.28 174.917 140.181 173.879C136.966 174.065 133.859 174.222 130.752 174.441C126.707 174.726 122.671 175.074 118.626 175.355C117.853 175.408 117.324 175.516 117.531 176.466C118.027 178.722 118.539 180.969 118.973 183.238C119.043 183.585 118.729 184.006 118.593 184.395C118.233 184.155 117.609 183.961 117.552 183.659C117.167 181.697 116.907 179.705 116.601 177.726C116.552 177.404 116.453 177.086 116.432 176.763C116.37 175.718 115.87 175.388 114.804 175.412C109.631 175.528 104.475 175.565 99.2812 175.627C96.9096 175.652 94.5422 175.702 92.1747 175.656C91.7161 175.656 91.2657 175.243 90.8112 175.02C91.2946 174.797 91.7781 174.392 92.2697 174.384C99.7316 174.268 107.189 174.206 114.651 174.127C115.015 174.127 115.378 174.057 115.94 173.999C115.06 166.918 114.188 159.914 113.312 152.845C110.23 153.056 107.268 153.295 104.305 153.452C98.9507 153.728 93.5946 153.966 88.2372 154.167C87.9314 154.167 87.6092 153.804 87.2952 153.605C87.6464 153.378 87.9852 152.961 88.3488 152.944C92.1623 152.746 95.9841 152.651 99.7977 152.444C103.929 152.217 108.061 151.903 112.213 151.618C112.412 151.593 112.608 151.552 112.8 151.494C112.246 142.553 111.697 133.682 111.147 124.638C108.202 124.915 105.442 125.241 102.669 125.423C98.2111 125.712 93.7489 126.034 89.2866 126.084C87.1712 126.109 85.0434 125.576 82.9362 125.216C82.44 125.038 82.0267 124.684 81.7752 124.221C85.0393 123.683 88.1174 125.109 91.2988 124.981C94.5546 124.853 97.8145 124.642 101.062 124.373C104.31 124.105 107.528 123.717 110.809 123.374C110.639 120.271 110.445 117.3 110.325 114.329C110.121 109.391 109.953 104.452 109.821 99.513C109.886 99.1289 110.019 98.7594 110.214 98.4223C110.528 98.6949 111.04 98.9305 111.119 99.2486C111.336 100.243 111.429 101.26 111.395 102.277C111.035 109.207 111.216 116.154 111.937 123.055H136.966C136.611 115.705 134.818 108.347 136.231 100.984H137.02C137.079 101.273 137.104 101.569 137.095 101.864C136.363 106.859 136.904 111.825 137.4 116.792C137.57 118.506 137.793 120.221 137.937 121.936C138.016 122.857 138.293 123.283 139.363 123.328C144.16 123.535 148.948 123.836 153.741 124.154C156.104 124.307 158.468 124.543 160.848 124.745C160.848 122.556 160.934 120.477 160.827 118.407C160.53 112.491 160.149 106.582 159.811 100.67C159.75 100.356 159.779 100.031 159.893 99.732C160.059 99.4758 160.435 99.3519 160.72 99.1742C160.868 99.4304 161.133 99.6824 161.158 99.9468C161.45 107.213 161.725 114.481 161.984 121.75C162.021 122.717 162.116 123.679 162.195 124.832L183.679 125.427C183.411 122.651 183.146 120.118 182.915 117.577C182.502 113.032 182.089 108.487 181.733 103.942C181.663 102.996 181.915 102.025 182.014 101.05H182.799C182.899 103.678 182.94 106.31 183.113 108.933C183.295 111.681 183.584 114.42 183.861 117.155C184.138 119.891 184.448 122.527 184.745 125.212L206.139 125.658C206.139 121.969 206.139 118.341 206.139 114.718C206.139 111.454 206.185 108.19 206.255 104.926C206.276 104.141 206.296 103.223 207.362 103.153V125.572C210.792 125.572 214.171 125.572 217.547 125.596C217.96 125.596 218.373 125.902 218.786 126.067C218.547 126.427 218.328 127.071 218.059 127.088C216.845 127.183 215.613 127.088 214.386 127.088C212.073 127.088 209.759 127.088 207.185 127.088C207.185 128.691 207.152 130.265 207.185 131.839C207.288 136.174 207.453 140.516 207.515 144.842C207.515 145.904 207.792 146.189 208.883 146.081C211.932 145.751 214.998 145.536 218.063 145.342C218.398 145.321 218.762 145.73 219.113 145.937C218.877 146.214 218.671 146.701 218.402 146.734C216.336 147.003 214.299 147.205 212.242 147.379C210.767 147.507 209.284 147.552 207.656 147.643V152.977C207.656 157.778 207.656 162.577 207.656 167.372C207.656 169.785 207.8 169.901 210.184 169.851C214.985 169.735 219.786 169.665 224.587 169.5C226.034 169.45 225.951 170.153 225.769 171.02H207.817C208.47 174.681 209.085 178.09 209.672 181.507C209.743 181.92 209.716 182.345 209.593 182.746C209.552 182.887 208.924 183.027 208.875 182.953C208.617 182.61 208.438 182.215 208.35 181.796C207.821 178.441 207.35 175.078 206.784 171.727C206.698 171.537 206.565 171.372 206.398 171.247C206.231 171.122 206.036 171.041 205.829 171.012C200.57 170.847 195.306 170.735 190.042 170.62C189.084 170.599 188.121 170.62 187.03 170.62C187.625 176.528 188.208 182.3 188.807 188.233C193.765 188.39 198.595 188.349 203.396 188.754C208.437 189.167 213.312 188.175 218.233 187.605C221.278 187.254 224.373 186.927 227.422 187.084C230.81 187.258 232.632 184.043 231.901 180.833C230.05 172.694 229.835 164.381 229.401 156.109C229.058 149.697 229.19 143.264 228.988 136.839C228.641 125.799 228.327 114.755 227.748 103.727C227.277 94.7409 226.451 85.771 225.736 76.8011C225.534 74.2849 225.459 74.2642 222.968 74.2477C213.238 74.1816 203.503 74.0618 193.773 74.1237C190.203 74.1237 186.642 74.6485 183.076 74.8509C179.221 75.0699 175.362 75.2641 171.507 75.3467C165.05 75.5037 158.588 75.5864 152.126 75.6772C148.539 75.7268 144.916 75.4046 141.383 75.8177C133.946 76.6854 126.592 75.1401 119.188 75.1319C113.565 75.1319 107.933 75.2186 102.314 75.0079C97.2526 74.8137 92.2078 74.2559 87.1547 73.88C84.0972 73.6527 81.0398 73.442 77.9823 73.2767C77.2882 73.2354 76.8213 73.5081 76.7676 74.4171C76.5114 78.6025 76.1313 82.7796 75.8586 86.9609C75.652 89.7002 75.5777 92.4809 75.4289 95.7656ZM113.854 151.283L138.966 148.304C138.714 145.288 138.437 142.326 138.227 139.355C137.888 134.703 137.611 130.05 137.239 125.398C137.173 125.171 137.049 124.964 136.881 124.798C136.713 124.632 136.504 124.511 136.276 124.448C129.286 124.351 122.292 124.305 115.296 124.307C114.255 124.307 113.23 124.489 112.176 124.588C112.734 133.583 113.288 142.4 113.845 151.283H113.854ZM140.247 172.442C139.669 164.91 140.082 157.278 139.008 149.742C138.809 149.712 138.609 149.696 138.408 149.693C130.732 150.607 123.055 151.519 115.378 152.428C114.354 152.548 114.366 153.151 114.469 153.919C114.825 156.597 115.135 159.29 115.498 161.955C116.044 165.959 116.618 169.954 117.221 174.231L140.247 172.442ZM163.583 170.702C163.612 170.516 163.626 170.328 163.624 170.14C163.025 163.116 162.405 156.13 161.839 149.118C161.769 148.251 161.364 148.292 160.74 148.337C157.253 148.552 153.762 148.73 150.275 148.936C146.94 149.139 143.606 149.35 140.214 149.585C140.214 149.998 140.243 150.209 140.255 150.436C140.623 157.32 141.036 164.199 141.321 171.095C141.379 172.425 141.821 172.611 142.974 172.508C147.197 172.144 151.432 171.9 155.654 171.549C158.29 171.322 160.914 170.987 163.583 170.702ZM164.802 170.545C165.009 170.582 165.219 170.605 165.43 170.615C171.846 170.202 178.263 169.789 184.688 169.417C185.82 169.355 185.799 168.756 185.741 167.938C185.27 161.208 184.82 154.477 184.353 147.602L162.914 148.069C163.55 155.741 164.17 163.104 164.793 170.545H164.802ZM140.012 148.391L161.327 147.04V125.898L138.161 124.349C138.764 132.505 139.371 140.384 139.987 148.391H140.012ZM184.717 146.23C184.423 139.822 184.146 133.542 183.808 127.262C183.808 126.989 183.25 126.547 182.932 126.526C181.543 126.439 180.147 126.493 178.754 126.464C175.172 126.398 171.594 126.336 168.012 126.233C166.124 126.175 164.236 126.039 162.228 125.931C162.389 133.062 162.542 140.02 162.69 146.887L184.717 146.23ZM206.379 126.919C199.082 127.005 191.976 126.187 184.787 126.638C185.13 133.281 185.456 139.681 185.791 146.181H206.379V126.919ZM206.623 147.552C206.106 147.486 205.883 147.432 205.656 147.432C202.735 147.432 199.814 147.457 196.888 147.453C193.678 147.453 190.464 147.511 187.258 147.371C185.716 147.304 185.568 148.052 185.646 149.213C186.059 155.485 186.472 161.757 186.886 168.033C186.935 168.909 187.229 169.273 188.125 169.273C189.943 169.223 191.761 169.182 193.579 169.244C197.442 169.368 201.305 169.566 205.173 169.719C205.85 169.744 206.577 169.93 206.573 168.76C206.553 164.108 206.61 159.46 206.631 154.812C206.606 152.386 206.598 149.978 206.598 147.552H206.623Z" fill="#4D3826"/>
<path d="M89.7231 107.08L95.0571 109.923L93.3424 110.621C93.6151 111.675 93.7556 112.831 95.4331 112.245C95.7677 112.125 96.2842 112.513 96.7139 112.658C96.4558 113.1 96.142 113.507 95.7801 113.868C95.4951 114.092 95.0199 114.067 94.1275 114.257C95.2224 114.852 95.9702 115.273 96.7387 115.666C96.9825 115.794 97.2923 115.798 97.5237 115.943C97.967 116.22 98.3822 116.539 98.7632 116.897C98.8128 116.942 98.5277 117.533 98.3996 117.533C97.9534 117.533 97.5072 117.385 97.3832 117.496C96.8337 118.141 96.404 119.103 95.7306 119.364C94.4291 119.855 93.5821 118.95 92.9623 117.426C92.7433 118.017 92.6566 118.322 92.5161 118.599C92.3756 118.876 92.1029 119.244 91.9253 119.566C91.7038 119.229 91.543 118.856 91.4501 118.463C91.4743 118.092 91.6194 117.739 91.8633 117.459C93.3053 115.529 93.1441 114.43 91.008 113.096C90.8552 113.695 90.756 114.253 90.5618 114.782C90.4244 115.06 90.2477 115.318 90.0371 115.546C89.8718 115.257 89.5661 114.959 89.5785 114.674C89.5785 114.178 89.8759 113.695 89.9421 113.191C90.0412 112.472 90.0495 111.737 90.0949 111.009L89.6363 110.951L88.81 112.749L88.3513 112.534C88.2975 112.041 88.3855 111.542 88.6051 111.097C88.8246 110.652 89.1666 110.279 89.5909 110.022C89.6239 108.972 89.6735 108.109 89.7231 107.08Z" fill="#4D3826"/>
<path d="M125.021 114.763C122.513 116.544 122.195 116.552 120.89 114.763C120.545 114.973 120.181 115.15 119.803 115.292C119.523 115.309 119.243 115.274 118.977 115.189C119.142 114.961 119.258 114.66 119.481 114.515C120.98 113.523 120.989 113.536 121.018 112.263L119.27 111.825C120.385 110.677 122.914 111.734 122.505 108.875L119.584 109.466C119.923 108.958 120.129 108.346 120.381 108.326C121.323 108.251 121.621 107.739 121.976 106.95C122.199 106.454 123.038 106.029 123.629 105.975C124.335 105.909 125.232 105.975 125.422 107.099C125.467 107.355 126.058 107.615 126.438 107.702C126.936 107.762 127.439 107.77 127.938 107.727C127.74 108.793 126.538 109.425 125.459 109.247C125.08 109.255 124.705 109.325 124.348 109.454C124.631 109.737 124.937 109.998 125.261 110.235C125.434 110.342 125.719 110.235 125.947 110.297C126.418 110.375 126.885 110.478 127.352 110.573C126.892 110.905 126.409 111.202 125.905 111.462C125.591 111.598 125.187 111.528 124.525 111.565C125.476 112.85 126.319 113.957 127.12 115.098C127.256 115.382 127.346 115.686 127.389 115.998C127.099 115.969 126.752 116.036 126.529 115.899C126.005 115.55 125.502 115.17 125.021 114.763Z" fill="#4D3826"/>
<path d="M172.594 89.4498C172.888 88.7208 173.245 88.0186 173.66 87.3509C173.961 86.9377 174.535 86.4667 174.94 86.5245C175.275 86.5617 175.725 87.2765 175.796 87.7393C175.957 88.7846 175.878 89.863 175.977 90.9207C176.019 91.3752 176.432 91.8214 176.391 92.247C176.269 93.0844 176.091 93.9126 175.858 94.726C175.548 94.4326 174.998 94.1641 174.965 93.8418C174.812 92.4577 174.808 91.0529 174.75 89.6564C174.75 89.2225 174.701 88.7928 174.676 88.359L174.292 88.297C173.969 89.1895 173.639 90.0778 173.333 90.9785C173.193 91.5654 173.007 92.1402 172.775 92.6973C172.614 92.9948 172.168 93.1435 171.85 93.3584C171.657 93.0789 171.517 92.7667 171.437 92.437C171.366 90.3422 171.358 88.2433 171.309 86.1444C171.309 85.4586 171.209 84.7727 171.16 84.1158C169.598 83.905 169.135 84.5868 169.214 85.9378C169.272 86.9584 169.073 88.0037 169.131 89.016C169.16 89.6233 169.524 90.2059 169.623 90.8215C169.738 91.6205 169.791 92.4273 169.78 93.2344C169.78 93.3914 169.305 93.722 169.226 93.6724C168.933 93.4989 168.54 93.2262 168.499 92.9452C168.271 91.5244 168.133 90.0906 168.086 88.6524C168.086 87.3633 168.272 86.0742 168.379 84.7644C167.041 84.9132 165.772 85.0991 164.495 85.1776C164.19 85.1776 163.863 84.8223 163.549 84.6281C163.888 84.3802 164.198 83.9836 164.57 83.9174C166.251 83.6241 167.954 83.4464 169.639 83.182C169.951 83.09 170.235 82.9226 170.466 82.6945C171.325 81.9838 171.974 82.178 172.118 83.3349C172.317 85.2602 172.416 87.2063 172.594 89.4498Z" fill="#4D3826"/>
<path d="M146.295 88.7975C146.295 87.3142 146.295 85.8268 146.295 84.3435C146.271 83.7431 146.278 83.1418 146.316 82.5421C146.337 82.3355 146.626 82.1578 146.791 81.9678C146.969 82.1496 147.304 82.3314 147.304 82.5132C147.324 84.7773 147.469 87.058 147.221 89.2933C147.068 90.6815 145.638 90.8881 144.742 89.7478C144.073 88.8925 143.54 87.9298 142.85 86.8556C142.391 88.4091 142.06 89.8345 141.527 91.1815C141.284 91.793 140.635 92.2433 140.172 92.768C139.689 92.2681 138.887 91.8301 138.78 91.26C138.346 88.9462 138.106 86.5911 137.858 84.2361C137.834 84.0006 138.243 83.7155 138.449 83.4552C138.714 83.7114 139.152 83.9386 139.21 84.2361C139.261 84.7878 139.236 85.344 139.135 85.8888C138.906 87.7143 139.379 89.5588 140.457 91.0493C140.99 89.3553 141.503 87.6571 142.081 85.9838C142.281 85.599 142.534 85.2443 142.833 84.9302C143.169 85.191 143.474 85.489 143.742 85.8185C144.395 86.8391 144.982 87.8844 145.601 88.9421L146.295 88.7975Z" fill="#4D3826"/>
<path d="M81.6333 88.1513C81.7779 89.49 81.9597 90.6303 81.9886 91.7542C81.9886 92.2086 81.6746 92.6755 81.5052 93.1383C81.216 92.7251 80.7408 92.3656 80.6789 91.9318C80.3855 89.9569 80.1872 87.9613 80.0095 85.9698C79.9806 85.6351 80.245 85.2756 80.369 84.9286C80.764 85.0801 81.1387 85.28 81.4845 85.5236C82.2861 86.2549 82.9802 87.1101 83.8066 87.8043C84.8023 88.6306 85.3725 88.0811 85.7319 87.0564C86.0168 86.1274 86.3718 85.2213 86.7938 84.346C86.9276 84.1181 87.1066 83.92 87.3198 83.7637C87.5329 83.6074 87.7757 83.4962 88.0333 83.437C88.2729 83.3999 88.8018 84.0651 88.9051 84.4865C89.4257 86.6556 89.8884 88.8413 90.2768 91.0394C90.3429 91.4236 89.9504 91.8905 89.7686 92.3202C89.4711 91.907 88.9753 91.5476 88.9051 91.1096C88.5993 89.1471 88.4134 87.1638 88.1862 85.193L87.6986 85.131C87.3392 86.04 86.9466 86.9407 86.6285 87.8662C85.9385 89.8701 85.389 90.1056 83.4512 89.1057C82.91 88.8537 82.3935 88.5645 81.6333 88.1513Z" fill="#4D3826"/>
<path d="M156.761 90.9566C155.324 91.6218 154.625 91.3697 154.282 89.8865C154.099 89.026 154.052 88.1421 154.142 87.267C154.324 85.23 154.729 85.0317 156.534 85.9076C156.534 84.7631 156.476 83.6145 156.563 82.4742C156.596 82.0156 156.943 81.5859 157.15 81.1396C157.365 81.5528 157.741 81.966 157.77 82.3792C157.927 84.7384 157.927 87.1141 158.137 89.4692C158.224 90.4277 158.728 91.3449 158.964 92.2952C159.041 92.7329 159.077 93.177 159.071 93.6215C158.629 93.4852 157.997 93.481 157.778 93.1794C157.366 92.4743 157.025 91.7296 156.761 90.9566ZM155.468 89.7832C156.708 87.7999 156.675 87.3041 155.328 86.7959C155.377 87.8619 155.423 88.8329 155.468 89.7832Z" fill="#4D3826"/>
<path d="M188.873 87.9888H195.099C194.364 89.2985 191.876 89.7199 188.683 88.8936C188.91 90.3851 189.154 91.7651 189.311 93.1575C189.288 93.5727 189.199 93.9815 189.046 94.3681C188.716 94.0624 188.108 93.769 188.092 93.4467C187.964 90.9677 187.951 88.4639 187.906 85.9684C187.916 85.8297 187.933 85.6917 187.959 85.5552C188.302 82.4316 188.517 82.3325 191.48 83.4893C192.331 83.8199 193.298 83.8405 194.19 84.0884C194.467 84.1669 194.665 84.5264 194.897 84.7619C194.587 84.9148 194.244 85.2412 193.971 85.1751C192.781 85.0061 191.611 84.7167 190.48 84.3115C189.422 83.8984 189.12 84.233 189.054 85.1916C189.001 86.0262 188.947 86.8608 188.873 87.9888Z" fill="#4D3826"/>
<path d="M215.588 88.8549C216.534 88.2104 216.985 88.7062 217.055 89.8796C217.07 90.5705 217.122 91.2602 217.212 91.9454C217.282 92.3586 217.625 92.7057 217.712 93.1106C217.843 93.6512 217.895 94.2077 217.869 94.7632C217.869 94.9078 217.212 95.1764 217.109 95.1103C216.726 94.8179 216.422 94.4344 216.224 93.9947C216.08 93.4677 215.998 92.9254 215.981 92.3792C215.642 92.937 215.448 93.4824 215.068 93.8129C214.687 94.1435 214.055 94.4823 213.65 94.3749C213.407 94.27 213.193 94.1083 213.026 93.9034C212.858 93.6985 212.742 93.4563 212.688 93.1973C212.581 91.9971 212.624 90.7883 212.816 89.5986C212.875 89.2713 213.001 88.9597 213.186 88.6831C213.37 88.4066 213.61 88.1711 213.89 87.9914C214.208 87.8633 214.923 88.4996 215.588 88.8549ZM213.989 93.1353C215.452 91.3009 215.481 90.425 213.989 89.297V93.1353Z" fill="#4D3826"/>
<path d="M221.171 84.1455V87.55L223.013 87.8021L223.079 88.2152L221.299 89.2151C221.423 90.0786 221.513 91.0868 221.741 92.066C221.836 92.4791 222.187 92.9997 222.505 93.07C222.823 93.1402 223.278 92.6857 223.526 92.3552C223.804 91.8956 224.036 91.4099 224.22 90.905H224.682C224.682 91.4958 224.972 92.2891 224.682 92.6362C224.057 93.4416 223.248 94.0861 222.323 94.5161C221.98 94.6607 220.947 93.9128 220.699 93.3592C220.286 92.4089 220.286 91.2933 219.997 90.2522C219.846 89.8264 219.6 89.4407 219.278 89.1242C219.006 88.8763 218.707 88.6601 218.386 88.4797C218.733 88.24 219.076 87.988 219.427 87.7566C219.544 87.6953 219.667 87.6468 219.795 87.612C220.038 84.2323 220.038 84.2323 221.171 84.1455Z" fill="#4D3826"/>
<path d="M103.103 90.2559C102.892 89.4499 102.732 88.6316 102.623 87.8058C102.545 86.4341 101.797 84.8144 101.095 84.9714C99.7434 85.2813 99.76 86.6241 99.4955 87.6281C99.2642 88.5082 99.3716 89.475 99.2105 90.3798C99.1402 90.76 98.7642 91.0822 98.5287 91.4293C98.3304 91.1029 97.9957 90.7889 97.9503 90.4418C97.7065 88.5702 97.5371 86.6944 97.3471 84.8186C97.3264 84.5913 97.4834 84.1782 97.6156 84.1492C97.7601 84.1213 97.9089 84.1253 98.0517 84.161C98.1944 84.1967 98.3276 84.2632 98.442 84.3558C98.6403 84.5624 98.6609 84.9425 98.7642 85.2483C98.8717 85.2235 98.9956 85.2483 99.0411 85.178C99.7434 84.3517 100.57 83.265 101.669 83.8972C102.561 84.4095 103.247 85.5086 103.706 86.496C104.206 87.5703 104.681 88.847 103.103 90.2559Z" fill="#4D3826"/>
<path d="M206.181 93.0394C207.367 92.5641 208.527 92.0262 209.655 91.428C210.949 90.6554 210.973 89.9034 209.928 88.8044C209.83 88.7046 209.738 88.5998 209.651 88.4904C208.961 87.5731 207.895 86.6889 208.453 85.4288C209.011 84.1686 210.25 83.4538 211.655 83.2514C212.593 83.1109 213.552 83.1026 214.832 83.0117C214.535 83.6976 214.39 84.024 214.287 84.2512C214.06 84.2925 213.99 84.3256 213.973 84.3091C212.585 82.7225 211.527 84.2058 210.424 84.747C209.416 85.2428 209.399 86.1394 209.978 86.9947C210.373 87.5091 210.812 87.9875 211.292 88.4242C212.304 89.4613 212.49 90.3827 211.345 91.2751C210.106 92.2419 208.552 92.8121 207.106 93.4897C206.941 93.5765 206.59 93.2335 206.181 93.0394Z" fill="#4D3826"/>
<path d="M149.774 89.7185L150.526 91.1687L151.675 90.1647L153.443 88.607C153.29 90.0738 151.675 92.1851 150.766 92.4371C149.613 92.7553 148.345 91.5199 148.634 90.0366C149.009 88.4674 149.532 86.9373 150.196 85.4669C150.317 85.3143 150.473 85.1925 150.65 85.1114C150.828 85.0303 151.021 84.9921 151.216 85.0001C151.415 85.0001 151.729 85.5372 151.737 85.8264C151.811 86.6582 151.743 87.4966 151.534 88.3054C151.353 88.8343 150.708 89.1979 150.237 89.6358L149.774 89.7185Z" fill="#4D3826"/>
<path d="M178.378 87.594C178.452 89.1682 178.522 90.7382 178.597 92.3124L179.043 92.4198C179.427 91.6265 179.787 90.8208 180.208 90.0523C180.402 89.7011 180.671 89.2673 181.001 89.1599C181.208 89.0938 181.766 89.5235 181.857 89.821C182.245 91.0935 182.972 90.982 184.154 90.1804C184.067 90.8374 184.154 91.3497 183.947 91.5687C182.952 92.5809 181.881 92.2835 180.778 91.4695C180.562 91.9511 180.317 92.4189 180.043 92.8702C179.353 93.87 178.175 93.8742 177.721 92.7834C176.994 91.0481 177.357 89.2962 177.779 87.5898L178.378 87.594Z" fill="#4D3826"/>
<path d="M95.8234 87.1222C95.3055 88.1131 94.7028 89.0573 94.0219 89.9442C93.5633 90.4689 92.6957 90.7705 92.3693 89.531C92.2742 89.1963 91.8611 88.8988 91.5429 88.7047C91.3714 88.6246 91.2176 88.5111 91.0904 88.3709C90.9632 88.2307 90.8653 88.0666 90.8022 87.8882C90.7391 87.7097 90.7122 87.5205 90.723 87.3315C90.7339 87.1425 90.7823 86.9576 90.8653 86.7875C91.419 85.3704 92.6502 84.573 93.8815 84.8374C94.902 85.0564 95.7077 85.5356 95.8234 87.1222ZM93.5757 88.3617L94.0302 88.403L94.4145 86.3372C93.7887 86.3882 93.1714 86.5144 92.5758 86.7132C92.3114 86.833 92.266 87.4197 92.0057 88.0973L93.1667 87.3288L93.5757 88.3617Z" fill="#4D3826"/>
<path d="M198.992 89.2641C198.703 89.574 198.612 89.7641 198.463 89.8219C196.707 90.5243 196.162 91.3672 196.282 93.2512C196.282 93.4371 196.426 93.6644 196.356 93.7966C196.108 94.2552 195.802 94.6767 195.53 95.1146C195.278 94.7015 194.782 94.2635 194.811 93.8751C194.935 92.0572 195.203 90.2475 195.389 88.665L198.992 89.2641Z" fill="#4D3826"/>
<path d="M200.073 92.6957C200.267 91.5967 200.412 90.4894 200.689 89.411C200.767 89.1176 201.234 88.9193 201.515 88.6797C201.65 89.0137 201.742 89.3636 201.788 89.7209C201.804 90.8738 201.76 92.0267 201.656 93.175C201.533 93.733 201.343 94.2741 201.09 94.7863C200.771 94.2823 200.433 93.7865 200.148 93.2617C200.073 93.1254 200.148 92.8982 200.168 92.7122L200.073 92.6957Z" fill="#4D3826"/>
<path d="M199.689 86.0271C199.669 85.585 199.466 84.9198 199.669 84.7545C200.003 84.486 200.603 84.5397 201.086 84.457C201.131 84.5727 201.177 84.6884 201.226 84.8L200.14 86.0725L199.689 86.0271Z" fill="#4D3826"/>
<path d="M28.257 161.924L27.8687 160.168C30.17 159.449 32.4466 158.825 34.6612 158.032C39.2955 156.383 43.7425 154.249 47.9281 151.665C53.5967 148.149 59.4224 144.885 65.182 141.509C65.5952 141.261 66.0084 140.988 66.4918 140.683C66.1447 142.158 58.6168 148.066 55.142 149.855C50.8285 152.078 46.9943 155.139 42.2842 156.681C37.574 158.222 33.0581 160.114 28.257 161.924Z" fill="white"/>
<path d="M150.361 134.176C149.853 134.176 149.502 134.176 149.155 134.176C148.808 134.176 148.159 134.147 148.064 134.333C147.83 134.776 147.774 135.292 147.907 135.775C148.014 136.035 148.671 136.134 149.097 136.188C149.418 136.162 149.736 136.1 150.043 136.002C150.506 135.94 150.977 135.915 151.444 135.874C151.369 136.374 151.299 136.874 151.167 137.779C151.53 137.803 152.043 137.824 152.551 137.874C152.935 137.915 153.319 137.993 153.704 138.051C153.456 138.369 153.2 138.679 152.956 139.002C152.712 139.324 152.241 139.72 152.171 140.129C151.873 141.877 150.216 142.716 148.481 141.832L147.837 143.579L147.523 143.517V138.51L146.961 138.328C146.547 139.097 146.192 139.882 145.75 140.621C145.538 140.873 145.285 141.088 145.002 141.257C144.982 140.902 144.82 140.472 144.965 140.2C145.49 139.2 146.118 138.254 146.762 137.196L144.663 136.932L144.052 138.407L143.639 138.481C143.602 138.068 143.412 137.564 143.552 137.204C143.965 136.13 144.535 135.101 145.006 134.134C144.593 133.668 144.329 133.374 143.932 132.932L145.205 132.63L145.676 130.92C146.031 131.631 146.333 131.957 146.337 132.288C146.337 133.886 147.163 133.577 148.213 133.254C148.737 133.089 149.386 133.254 149.96 133.366C150.126 133.395 150.192 133.791 150.361 134.176Z" fill="#4D3826"/>
<path d="M198.248 160.196C198.661 161.348 199.182 162.522 199.545 163.737C199.677 164.183 199.487 164.724 199.442 165.224L197.992 164.476C196.116 165.802 194.509 165.302 193.749 162.823C193.462 163.125 193.137 163.387 192.782 163.604C192.46 163.681 192.126 163.695 191.798 163.646C191.898 163.307 191.893 162.844 192.121 162.646C193.042 161.819 194.075 161.138 194.988 160.316C195.352 159.985 195.517 159.427 195.852 158.832C195.455 158.797 195.065 158.705 194.695 158.56C194.441 158.34 194.22 158.085 194.038 157.803C194.315 157.662 194.608 157.553 194.91 157.477C195.5 157.386 196.099 157.357 196.81 157.295C196.256 156.006 195.757 155.134 194.389 155.229C194.087 155.25 193.749 154.816 193.426 154.589L193.538 154.213C194.108 154.147 194.777 153.854 195.228 154.056C196.405 154.585 196.93 154.151 197.339 153.097C197.555 152.722 197.825 152.379 198.141 152.081L198.521 152.242C198.426 152.817 198.326 153.395 198.211 154.089L199.268 153.56C199.603 154.209 199.773 154.928 200.227 155.308C200.578 155.601 201.281 155.473 201.83 155.535L201.809 155.89L197.996 158.299L199.905 159.448L199.963 159.828L198.248 160.196Z" fill="#4D3826"/>
<path d="M65.182 141.522C65.5952 141.274 66.0084 141.001 66.4918 140.695C66.1447 142.17 58.6168 148.079 55.142 149.868C50.8285 152.091 46.9943 155.152 42.2842 156.693C37.574 158.234 33.0581 160.114 28.257 161.924C28.0918 161.193 28.005 160.8 27.8687 160.18C30.17 159.461 32.4466 158.838 34.6612 158.044C39.2955 156.395 43.7425 154.261 47.9281 151.677C53.5967 148.161 59.4224 144.881 65.182 141.522Z" fill="#FF8888"/>
<path d="M-6.23038 159.754H-6.64355V158.514C-1.20211 158.353 6.99105 158.101 12.4325 158.432C16.151 158.642 19.9233 157.866 23.6377 157.304C24.8317 157.122 25.6622 157.225 26.2985 158.155C26.8232 158.919 27.3851 158.96 28.2115 158.733C36.6319 156.419 44.3705 152.61 51.7622 148.04C54.0057 146.656 56.1046 145.037 58.3026 143.582C60.3685 142.202 62.4798 140.814 64.6613 139.595C65.7173 139.039 66.8702 138.689 68.0576 138.566C68.3866 138.576 68.7079 138.669 68.9917 138.836C69.2755 139.002 69.5127 139.238 69.6813 139.521C69.8549 140 69.483 140.893 69.0657 141.326C67.9259 142.492 66.7069 143.577 65.4174 144.574C63.1892 146.391 60.8712 148.096 58.472 149.681C54.8114 151.974 51.035 154.081 47.2421 156.143C45.701 156.969 43.9904 157.514 42.346 158.147C40.1893 158.973 38.0077 159.75 35.851 160.58C33.3389 161.543 30.8392 162.543 28.2569 163.555C28.0545 165.282 27.695 165.716 25.7242 166.034C23.3485 166.447 20.9479 166.712 18.5722 167.133C17.7962 167.284 17.055 167.578 16.3865 168.001C10.6228 171.599 4.53683 174.388 -2.20611 175.487C-2.78042 175.591 -6.09404 176.214 -6.64355 176.281V174.215H-6.23038C-5.50734 174.173 -4.71818 174.107 -3.88358 174.016V174.318C0.0010047 174.13 3.80225 173.125 7.27201 171.368C7.39183 171.314 7.50752 171.256 7.61907 171.199C10.5443 169.703 13.3456 167.951 16.2956 166.53C17.6756 165.865 19.2994 165.703 20.8405 165.348C22.1379 165.059 23.4559 164.861 24.6293 164.646C24.431 163.047 24.2574 161.646 24.088 160.241C24.0095 159.576 23.8236 159.068 22.9766 159.167C20.4067 159.477 17.8368 159.762 15.1636 160.068C15.1222 160.547 15.0685 161.167 14.99 162.084C13.6927 161.282 13.2217 159.13 11.1723 160.278L10.6972 163.051L10.3129 163.216C10.0264 162.761 9.7987 162.27 9.63534 161.758C9.56234 161.015 9.55267 160.267 9.60642 159.522C7.00345 159.522 4.54922 159.522 2.09086 159.522H2.03302C0.0663261 159.522 -1.90863 159.489 -3.87532 159.473V159.717C-4.77189 159.725 -5.58997 159.754 -6.23038 159.754ZM66.4875 140.698C66.0041 141.004 65.5992 141.277 65.1778 141.525C59.4182 144.9 53.609 148.164 47.9238 151.68C43.7433 154.262 39.3019 156.395 34.6734 158.043C32.4589 158.837 30.1823 159.46 27.8809 160.179C28.0173 160.799 28.104 161.192 28.2693 161.923C33.0703 160.113 37.6235 158.204 42.3171 156.692C47.0107 155.18 50.8614 152.089 55.1749 149.867C58.6373 148.078 66.1446 142.169 66.4875 140.694V140.698Z" fill="#4D3826"/>
<path d="M24.0672 160.22C24.2366 161.625 24.4101 163.026 24.6084 164.625C23.435 164.84 22.1294 165.038 20.8196 165.327C19.2909 165.666 17.6672 165.844 16.2748 166.509C13.3123 167.93 10.4904 169.682 7.5982 171.178C7.48665 171.236 7.37096 171.293 7.25114 171.347C4.35895 172.715 -0.185918 173.595 -3.88379 173.996V159.692C-1.78075 159.613 0.702397 159.497 2.02454 159.497H2.06999C4.52835 159.497 6.98258 159.497 9.58555 159.497C9.5318 160.242 9.54147 160.99 9.61447 161.733C9.77881 162.247 10.0079 162.739 10.2962 163.195L10.6805 163.03L11.1556 160.258C13.2214 159.109 13.6759 161.262 14.9733 162.063C15.0518 161.146 15.1055 160.526 15.1468 160.047C17.82 159.741 20.3899 159.456 22.9599 159.146C23.8027 159.047 23.9887 159.555 24.0672 160.22Z" fill="#C8A468"/>
<path d="M7.25114 171.347C3.78768 173.101 -0.00623655 174.106 -3.88379 174.297V173.995C-0.169391 173.594 4.36308 172.714 7.25114 171.347Z" fill="#4D3826"/>
<path d="M-3.88379 159.449C-1.9171 159.449 0.0578525 159.495 2.02454 159.499C0.702398 159.499 -1.78075 159.614 -3.88379 159.693V159.449Z" fill="#4D3826"/>
</g>
</svg>
