<svg width="325" height="322" viewBox="0 0 325 322" fill="none" xmlns="http://www.w3.org/2000/svg">
<mask id="mask0" mask-type="alpha" maskUnits="userSpaceOnUse" x="0" y="0" width="325" height="322">
<path fill-rule="evenodd" clip-rule="evenodd" d="M211.882 49.4132C224.314 55.639 227.005 73.6851 239.113 80.5194C255.88 89.9833 281.196 81.7949 294.273 95.9173C305.79 108.354 301.469 129.143 299.728 145.978C298.079 161.928 292.136 177.088 284.424 191.145C277.294 204.141 267.381 215.255 256.308 225.119C246.04 234.265 231.846 237.675 221.731 246.99C208.896 258.811 205.705 282.391 188.911 287.186C173.005 291.728 159.056 273.359 142.962 269.482C127.247 265.696 109.592 271.828 95.1361 264.594C80.6554 257.348 72.6983 241.765 62.4838 229.21C51.8392 216.126 37.8307 204.681 33.2072 188.474C28.5774 172.244 31.7728 154.58 36.5831 138.417C41.1559 123.052 52.6159 111.12 60.3991 97.1049C68.0784 83.2766 71.2685 66.681 82.5698 55.6078C93.9715 44.4363 108.958 35.6324 124.853 33.9526C140.737 32.2739 155.022 43.4933 170.755 46.2882C184.409 48.7138 199.48 43.2032 211.882 49.4132Z" fill="#C4C4C4"/>
</mask>
<g mask="url(#mask0)">
<rect x="11.7778" y="44.2686" width="284.341" height="250.89" fill="#E8F4EF"/>
<path d="M281.017 216.499C280.154 214.275 279.166 212.102 278.058 209.989C276.644 207.515 274.898 205.255 273.383 202.816C272.424 201.295 271.607 199.668 270.767 198.082C271.402 198.19 272.008 198.432 272.542 198.792C274.827 199.975 277.105 201.124 279.425 202.207C279.804 202.384 280.384 202.13 280.869 202.076C280.84 201.657 280.748 201.244 280.597 200.851C276.704 194.466 272.156 188.504 267.027 183.061C266.758 182.742 266.511 182.406 266.287 182.055C270.915 184.127 274.572 187.885 280.053 188.873C279.985 188.302 279.841 187.743 279.626 187.21C277.91 184.428 276.295 181.57 274.365 178.924C270.785 174.03 267.003 169.278 263.322 164.449C263.108 164.055 262.941 163.638 262.825 163.206L274.661 167.94L275.034 167.632C274.821 167.112 274.762 166.402 274.377 166.1C270.743 163.188 267.056 160.347 263.387 157.477C262.961 157.145 262.558 156.779 262.15 156.429L262.493 155.92L270.779 159.294L271.217 159.063C271.08 158.525 270.861 158.012 270.566 157.542C269.927 156.79 269.134 156.175 268.435 155.477C264.225 151.267 260.025 147.053 255.835 142.835C254.823 141.811 253.888 140.705 252.924 139.633L253.302 139.136L265.139 142.35C265.263 142.149 265.387 141.947 265.506 141.758C262.547 138.657 258.599 136.757 255.291 134.064C251.983 131.372 248.503 128.821 245.1 126.211C245.159 126.075 245.212 125.933 245.265 125.797C246.881 126.181 248.497 126.554 250.106 126.98C251.113 127.235 251.545 126.927 251.379 125.891L242.028 123.151C242.028 122.991 242.028 122.832 242.028 122.666L250.284 118.44C249.834 118.174 249.455 117.76 249.041 117.718C246.2 117.452 243.348 117.346 240.513 117.026C232.819 116.162 225.291 116.973 217.793 118.582C216.769 118.801 215.645 118.73 214.692 119.109C208.993 121.394 203.583 124.057 199.121 128.578C196.505 131.218 193.268 133.313 190.049 135.236C187.681 136.645 184.864 137.308 182.278 138.373C181.686 138.616 180.792 139.16 180.787 139.557C180.787 141.439 180.662 143.451 181.278 145.173C182.083 147.434 183.704 147.801 187.06 147.292C191.084 146.7 195.115 146.457 199.127 147.292C199.849 147.446 200.76 147.635 201.175 148.138C202.911 150.103 204.507 152.187 205.951 154.376C206.43 154.968 206.904 155.595 207.359 156.21C207.951 157.057 208.543 157.921 209.182 158.767C209.49 159.187 209.774 159.607 210.099 160.034L210.224 160.14C210.673 160.384 211.086 160.691 211.449 161.051C212.091 161.25 212.693 161.563 213.224 161.975L217.722 164.082L215.615 169.023L215.177 169.136C215.036 169.627 214.838 170.1 214.585 170.544C214.269 171.212 213.829 171.815 213.289 172.32C212.998 172.763 212.681 173.19 212.342 173.598C209.715 176.859 207.128 180.173 204.814 183.659C202.82 186.671 200.861 189.613 198.085 192.027C196.103 193.75 194.535 195.963 192.493 198.295C196.044 199.443 197.139 195.791 199.595 195.294C198.535 197.946 197.541 200.348 196.635 202.787C196.55 203.238 196.55 203.702 196.635 204.154C197.162 204.106 197.866 204.26 198.186 203.976C199.541 202.793 200.796 201.485 202.068 200.2C202.814 199.443 203.512 198.644 204.53 197.531C204.649 198.46 204.743 198.892 204.749 199.307C204.797 201.289 204.749 203.278 204.909 205.225C204.968 205.852 205.661 206.409 206.063 207C206.484 206.539 206.855 206.036 207.17 205.497C207.998 203.686 208.744 201.84 209.537 200.011L210.898 201.514C211.378 201.077 211.819 200.6 212.218 200.088C212.412 199.665 212.545 199.217 212.615 198.756C213.585 195.608 214.982 192.738 218.207 190.536C218.018 191.382 217.947 191.802 217.829 192.205C216.598 196.395 215.236 200.55 214.189 204.781C213.769 206.474 213.597 207.391 211.401 207.699C208.12 208.116 204.956 209.189 202.097 210.854C199.238 212.518 196.743 214.74 194.759 217.387C193.837 218.594 192.626 219.55 191.238 220.168C190.563 220.452 189.374 219.506 188.415 219.109L188.249 219.056C186.166 218.316 185.805 218.559 185.882 220.642L179.372 220.162C179.319 220.387 179.266 220.618 179.206 220.843L181.538 222.477C180.763 222.544 179.993 222.655 179.23 222.808C178.769 222.973 178.327 223.185 177.91 223.441C178.177 223.909 178.336 224.625 178.727 224.791C179.995 225.308 181.314 225.689 182.663 225.927C184.089 226.164 185.716 225.785 186.977 226.323C190.096 227.667 193.049 229.377 196.239 231.028C195.405 233.922 194.434 236.947 193.688 240.065C193.363 241.427 192.783 241.48 191.605 241.302C187.742 240.726 183.866 240.235 179.976 239.829C179.189 239.746 178.354 240.131 177.549 240.296C177.52 240.568 177.496 240.841 177.466 241.107L184.965 244.936C181.855 244.671 178.745 245.446 176.123 247.138C175.628 247.572 175.199 248.076 174.851 248.635C175.442 249.049 175.963 249.659 176.626 249.848C178.591 250.41 180.603 250.795 182.586 251.28C185.789 252.17 189.172 252.191 192.386 251.34C194.681 250.677 197.093 250.525 199.453 250.896C206.418 252.162 211.839 249.842 216.402 244.693C217.639 243.297 219.261 242.237 220.385 241.29C220.592 243.119 220.977 245.433 221.084 247.771C221.291 251.511 222.794 254.074 226.694 254.873C227.315 255.003 227.842 255.63 228.375 256.056C230.529 257.832 232.784 259.501 235.696 259.424C241.164 259.276 246.627 258.909 252.089 258.672C253.77 258.595 255.451 258.601 257.131 258.613C259.203 258.613 261.665 259.424 263.263 258.572C266.092 257.062 268.542 254.713 270.885 252.44C272.613 250.76 271.519 248.345 271.72 246.262C271.903 244.303 272.27 242.356 272.554 240.409C273.779 241.794 274.896 243.27 275.898 244.824C276.206 245.25 276.869 245.415 277.366 245.705C277.484 245.114 277.798 244.522 277.691 243.977C276.508 238.148 275.176 232.342 274.004 226.507C273.602 224.506 273.513 222.441 273.282 220.399L273.951 220.103C274.12 220.46 274.331 220.796 274.578 221.103C275.762 222.287 276.946 223.471 278.253 224.554C278.614 224.85 279.301 224.749 279.84 224.826C279.986 224.35 280.039 223.849 279.993 223.352C279.514 221.92 278.94 220.518 278.319 219.133C277.833 218.05 277.23 217.02 276.679 215.961C277.721 216.356 278.714 216.871 279.638 217.493C279.982 217.689 280.603 217.831 280.852 217.653C280.968 217.488 281.044 217.297 281.073 217.096C281.102 216.895 281.083 216.691 281.017 216.499ZM180.195 224.376L180.248 223.82C182.615 223.122 186.166 223.471 186.717 224.376H180.195ZM189.125 250.245C185.338 250.535 180.349 249.653 177.768 248.185C180.189 247.386 182.231 246.41 184.87 246.895C186.551 247.221 188.451 246.422 190.244 246.084C190.652 245.936 191.039 245.737 191.398 245.492C191.463 246.084 191.481 246.564 191.564 247.007C192.108 249.854 191.984 250.026 189.125 250.245ZM185.847 243.699C184.722 243.107 183.479 242.829 182.296 242.35C181.704 242.067 181.13 241.747 180.579 241.391L180.804 240.752L192.203 242.498C190.125 244.54 188.013 244.812 185.847 243.699ZM245.768 128.324C250.781 132.171 255.96 135.81 260.984 139.882C260.523 139.867 260.064 139.816 259.611 139.728C256.297 138.872 252.991 137.994 249.692 137.095C249.367 137.006 248.929 136.828 248.816 136.574C248.082 134.875 246.976 135.81 246.017 135.911C246.141 137.059 246.248 138.024 246.354 138.994L245.763 139.172C244.537 137.527 243.312 135.893 242.093 134.248C241.58 133.615 241.1 132.955 240.655 132.271C239.903 130.999 238.832 129.726 240.265 128.128L238.317 126.637C241.365 125.56 243.543 126.613 245.768 128.324ZM245.283 141.936C244.691 144.143 244.005 146.333 243.348 148.523L242.715 148.594C241.322 143.22 239.929 137.846 238.536 132.472L239.199 132.194C240.898 134.526 243.111 136.473 244.094 139.338C244.329 139.914 244.595 140.477 244.893 141.024C245.04 141.344 245.354 141.705 245.283 141.953V141.936ZM245.999 118.855C243.999 121.512 240.673 122.672 237.939 121.689C235.098 120.677 232.281 119.589 229.458 118.517C229.375 118.488 229.339 118.334 229.18 118.062C234.879 117.298 240.389 118.168 246.011 118.866L245.999 118.855ZM226.682 118.79L238.341 122.932L236.601 123.524L236.637 123.85L238.945 123.956C237.619 126.229 237.631 126.211 235.358 125.14C232.263 123.684 229.15 122.269 225.925 120.784C226.12 120.328 226.357 119.683 226.682 118.801V118.79ZM205.104 146.824C205.448 146.138 206.714 145.919 207.56 145.487L207.993 145.966C207.46 147.741 206.933 149.517 206.347 151.482C204.282 150.085 204.341 148.375 205.104 146.836V146.824ZM211.461 197.514L210.466 195.312C208.389 197.679 208.052 200.638 206.637 202.97L205.821 202.757C206.217 200.265 206.631 197.768 207.004 195.271C207.031 194.735 207.012 194.199 206.945 193.667C206.466 193.886 205.844 193.974 205.519 194.335C203.53 196.537 201.607 198.804 199.654 201.041C199.445 201.273 199.163 201.428 198.855 201.479C199.731 198.147 201.601 195.312 203.589 192.181C200.749 191.891 199.553 194.46 197.239 194.691C199.606 192.749 202.015 190.802 204.453 188.814L213.295 193.584C212.822 194.602 212.2 195.939 211.461 197.525V197.514ZM190.291 226.619C189.581 226.317 188.711 225.518 188.628 224.844C188.545 224.169 189.279 223.329 189.865 222.784C192.327 220.488 194.919 218.334 197.358 216.014C201.157 212.392 205.442 209.746 210.679 208.835C211.591 208.675 212.496 208.462 213.402 208.273C214.331 210.593 213.893 211.552 211.875 212.818C208.638 214.854 205.365 216.896 202.364 219.227C199.902 221.121 198.683 223.962 197.713 226.921C197.494 227.578 197.174 228.199 196.825 229.016C194.523 228.188 192.357 227.513 190.291 226.619ZM218.977 239.284C216.018 242.764 212.97 246.191 208.833 248.215C207.057 249.091 204.797 249.209 202.737 249.327C200.37 249.469 197.955 249.15 195.564 249.191C194.422 249.191 193.789 248.889 193.588 247.777C193.386 246.664 193.197 245.623 192.96 244.303C194.588 244.764 195.055 244.344 195.239 242.77C196.005 236.201 197.918 229.817 200.891 223.909C202.98 219.766 206.696 217.482 210.608 215.458C211.839 214.824 213.266 214.57 214.597 214.12C214.804 214.049 215.142 213.919 215.154 213.789C215.42 211.238 217.864 210.238 219.006 208.332C219.147 208.05 219.26 207.754 219.344 207.45L219 207.107L215.449 209.906C214.798 207.427 215.23 205.089 215.876 202.864C217.142 198.508 218.485 194.158 220.113 189.926C220.652 188.506 222.048 187.352 223.22 186.251C226.008 183.618 229.02 181.221 231.701 178.486C233.476 176.676 234.843 174.468 236.329 172.397C236.506 172.142 236.287 171.604 236.258 171.213C235.903 171.408 235.364 171.515 235.222 171.805C233.488 175.492 230.701 178.315 227.706 180.925C224.025 184.15 220.302 187.334 216.58 190.524C216.008 191.044 215.3 191.389 214.538 191.518C213.777 191.647 212.994 191.555 212.283 191.252C209.981 190.156 207.779 188.861 205.702 187.382C204.519 186.553 204.909 185.423 206.294 183.677C208.206 181.309 209.845 178.705 211.739 176.279C212.763 174.947 214.106 173.864 215.106 172.497C216.117 171.018 216.992 169.452 217.722 167.816C218.837 165.522 219.442 163.015 219.498 160.466C218.633 161.122 217.923 162.081 217.13 162.164C216.337 162.247 215.296 161.572 214.384 161.188C211.011 159.749 209.821 156.264 207.566 153.778C207.259 153.435 207.389 152.523 207.566 151.943C208.158 149.813 208.916 147.718 209.555 145.599C209.679 145.203 209.744 144.569 209.555 144.356C209.366 144.242 209.155 144.169 208.936 144.141C208.717 144.112 208.495 144.129 208.283 144.19C205.957 144.705 203.672 145.451 201.323 145.788C199.815 145.982 198.283 145.872 196.819 145.463C193.517 144.54 190.309 145.463 187.066 145.67C184.16 145.865 183.515 145.67 183.379 142.746C183.379 142.51 183.379 142.279 183.349 142.042C183.272 141.255 182.822 140.142 183.177 139.752C183.876 138.977 184.988 138.527 185.989 138.071C188.101 137.118 190.25 136.219 192.404 135.355C193.033 135.16 193.679 135.025 194.333 134.952C194.221 133.206 195.973 132.751 196.979 131.798C198.352 130.508 200.086 129.596 201.477 128.318C204.041 125.931 206.998 124.005 210.218 122.625C210.275 122.613 210.33 122.595 210.383 122.571C214.325 120.204 218.225 119.861 222.664 121.66C225.806 122.932 229.434 123.145 232.251 125.211C234.394 126.803 236.631 128.265 237.282 131.395C238.424 136.87 240.057 142.249 241.561 147.653C242.047 149.038 242.61 150.396 243.247 151.718C245.745 149.203 244.496 145.889 246.112 143.054C245.52 154.47 244.928 165.395 245.839 176.397C248.645 173.243 249.426 169.177 251.722 165.703C251.551 167.082 251.586 168.52 251.178 169.846C248.97 176.977 246.65 184.05 244.384 191.151C244.336 191.293 244.425 191.477 244.52 192.069C247.384 190.181 248.662 187.115 251.172 184.825C251.172 186.009 251.124 186.884 251.172 187.784C251.219 188.684 250.426 190.068 252.207 190.447C252.355 190.477 252.379 191.512 252.32 192.069C251.823 196.709 251.272 201.343 250.787 205.982C250.685 207.037 250.775 208.102 251.053 209.125C253.48 206.645 253.61 202.952 256.048 200.419C255.954 201.301 255.823 202.195 255.764 203.065C255.486 207.137 255.232 211.208 254.977 215.286C254.931 215.634 254.951 215.987 255.036 216.327C255.222 216.785 255.441 217.228 255.693 217.653C256.119 217.411 256.557 217.18 256.978 216.925C257.296 216.682 257.602 216.424 257.895 216.15C257.599 217.766 257.374 218.908 257.191 220.05C256.776 222.589 256.445 225.14 255.942 227.655C255.847 228.134 254.882 228.921 254.758 228.839C252.16 227.335 249.331 228.495 246.662 228.051C245.117 227.791 243.549 227.673 241.987 227.525C237.418 227.087 233.068 228.282 228.712 229.353C228.211 229.504 227.761 229.789 227.41 230.176C224.558 233.212 221.664 236.165 218.977 239.284ZM251.207 174.379C251.207 177.161 251.207 179.936 251.207 182.718C251.218 182.953 251.154 183.185 251.024 183.381C249.6 185.167 248.045 186.844 246.372 188.399L250.746 174.296L251.207 174.379ZM252.669 195.768C252.884 194.699 253.033 193.618 253.113 192.53C253.036 189.246 254.888 187.026 257.125 184.742C257.883 192.294 256.173 198.999 251.675 205.077C252.006 201.964 252.32 198.875 252.669 195.785V195.768ZM271.335 239.503C270.542 242.752 269.873 245.972 270.335 249.357C270.536 250.831 269.844 251.991 268.559 252.908C267.654 253.639 266.841 254.477 266.139 255.405C263.576 258.329 262.239 258.282 260.28 254.814C260.428 258.14 258.25 257.151 256.628 257.264C254.717 257.388 252.811 257.607 250.9 257.737C248.532 257.903 246.135 258.086 243.75 258.134C241.365 258.181 238.962 257.927 236.583 258.075C233.95 258.234 232.062 256.968 230.103 255.512C228.795 254.535 227.144 253.985 225.824 253.038C224.877 252.375 223.788 251.505 223.421 250.493C221.746 245.865 221.297 241.273 223.954 236.686C225.818 233.467 228.647 231.679 231.896 230.395C236.116 228.732 240.501 228.572 244.964 229.259C246.513 229.532 248.095 229.571 249.657 229.377C250.517 229.245 251.396 229.289 252.239 229.505C253.082 229.722 253.873 230.107 254.563 230.638C254.937 231.007 255.15 231.509 255.155 232.034C255.238 233.402 255.184 234.775 255.184 236.148L255.894 236.325C257.836 234.313 258.025 231.342 259.718 228.631C260.422 231.484 261.091 233.916 261.606 236.378C262.487 240.521 263.245 244.729 264.115 248.895C264.21 249.357 264.665 249.748 264.955 250.174C265.242 249.723 265.443 249.224 265.547 248.7C265.547 245.676 265.464 242.652 265.441 239.627C265.512 239.048 265.639 238.478 265.819 237.923L267.826 241.947L268.577 241.764V233.62C270.66 235.106 271.814 237.574 271.335 239.521V239.503ZM261.6 224.489H262.191C262.529 225.369 262.816 226.268 263.05 227.181C263.979 231.916 266.654 236.473 263.641 241.841C262.606 236.574 261.582 231.591 260.712 226.584C260.582 225.945 261.28 225.175 261.6 224.489ZM267.121 231.336C268.027 231.928 268.021 235.065 267.121 237.089C265.742 235.017 266.973 233.212 267.121 231.324V231.336ZM278.857 215.895C277.591 214.641 276.295 213.416 275.081 212.114C274.087 211.043 273.235 209.853 272.246 208.776C271.847 208.46 271.402 208.206 270.927 208.024C271.004 208.567 271.149 209.098 271.359 209.604C273.637 213.747 275.963 217.843 278.253 221.962C278.446 222.473 278.587 223.002 278.674 223.542C275.848 221.633 273.676 218.902 272.454 215.718C272.489 220.192 272.501 224.595 273.466 229.022C274.43 233.449 275.241 237.751 276.117 242.119L275.573 242.32C274.981 241.237 274.389 240.136 273.797 239.077C272.613 237.118 271.507 235.147 270.246 233.259C268.471 230.614 269.246 227.738 269.311 224.915C269.388 221.192 269.495 217.464 269.512 213.735C269.409 213.054 269.21 212.39 268.92 211.765L268.411 211.871V229.111L266.896 228.519L266.133 232.881L265.541 232.928C265.009 230.371 264.316 227.832 264.002 225.234C263.817 223.233 263.845 221.217 264.085 219.222C264.245 217.523 264.381 217.535 262.594 217.482C262.547 217.275 262.471 217.076 262.369 216.89C262.138 216.57 261.854 216.298 261.594 215.99C261.416 216.363 261.079 216.736 261.097 217.103C261.16 217.857 261.285 218.605 261.469 219.34C261.866 221.399 261.245 223.08 260.043 224.814C258.996 226.329 258.528 228.253 257.806 229.993L256.622 232.822L256.066 232.685C256.859 228.105 257.54 223.506 258.481 218.955C259.404 214.499 260.588 210.078 261.274 205.574L256.847 215.842L256.054 215.629C256.054 214.972 256.013 214.315 256.054 213.664C256.433 208.604 256.611 203.509 257.339 198.496C257.652 196.294 259.114 194.259 260.031 192.146C260.386 191.347 260.747 190.548 261.108 189.778L260.635 189.583C259.818 190.865 259.005 192.154 258.197 193.448L257.924 193.359C258.137 190.755 258.386 188.151 258.516 185.541C258.496 184.714 258.403 183.89 258.238 183.079C257.486 183.523 256.717 183.943 255.983 184.422C255.741 184.62 255.527 184.849 255.344 185.103L253.734 183.221C254.711 185.346 252.959 186.606 252.509 188.139C251.876 185.606 251.687 183.162 253.829 181.037L252.32 181.878C252.245 181.496 252.194 181.111 252.166 180.724C252.166 177.622 252.166 174.527 252.261 171.438C252.296 170.574 252.758 169.722 253.03 168.869C253.095 168.656 253.273 168.449 253.267 168.242C253.214 165.751 253.131 163.259 253.042 160.288C252.565 160.729 252.146 161.228 251.793 161.773C250.195 165.271 248.657 168.798 247.094 172.314C246.953 172.577 246.797 172.832 246.627 173.077C245.129 170.485 246.668 142.261 248.615 138.124C255.717 143.291 261.481 149.671 267.388 155.92L267.139 156.388L255.149 153.234C255.078 153.435 255.001 153.63 254.93 153.825C260.475 157.376 266.731 159.921 271.258 164.904C271.181 165.07 271.098 165.23 271.021 165.395L258.481 160.247C258.936 160.921 259.339 161.631 259.848 162.265C263.695 166.999 267.678 171.681 271.376 176.551C273.794 179.83 275.938 183.301 277.786 186.932C277.216 186.878 276.657 186.738 276.129 186.517C272.578 184.31 269.074 182.043 265.547 179.812C263.973 178.824 262.399 177.841 260.783 176.924C260.505 176.764 260.031 176.924 259.226 176.989C266.743 184.239 273.554 191.447 278.585 200.07L278.319 200.502C277.348 200.118 276.247 199.91 275.436 199.319C272.602 197.218 269.873 194.969 267.092 192.809C266.612 192.412 266.036 192.149 265.423 192.045C270.063 199.91 275.371 207.249 279.455 215.315L278.857 215.895Z" fill="#4D3826"/>
<path d="M138.134 60.5542C143.597 60.3589 149.071 59.9624 154.533 60.0156C161.795 60.1103 168.613 62.0988 175.206 65.2296C179.887 67.4367 184.19 70.371 187.953 73.9234C191.564 77.3145 193.659 81.4632 194.978 86.0025C196.766 92.117 197.778 98.4318 197.991 104.799C198.239 112.794 194.961 119.15 188.563 123.873C185.589 126.194 182.483 128.34 179.26 130.3C176.892 131.644 174.182 132.295 171.619 133.259C171.294 133.384 170.933 133.401 170.595 133.496C166.098 134.757 166.973 134.218 166.66 138.384C166.476 140.864 167.086 143.45 167.648 145.918C167.948 147.499 168.645 148.977 169.674 150.213C170.703 151.45 172.031 152.404 173.531 152.985C174.051 153.294 174.523 153.677 174.933 154.121C174.403 154.477 173.823 154.752 173.211 154.938C167.524 155.707 162.493 152.387 160.818 146.717C160.073 144.172 159.505 142.604 156.167 142.663C152.523 142.663 148.941 141.715 145.774 139.911C143.65 138.728 141.111 138.302 139.039 137.059C135.755 135.088 132.707 132.721 129.57 130.519C128.85 129.942 128.1 129.405 127.321 128.909C123.457 126.761 119.492 124.767 115.716 122.476C114.177 121.416 112.816 120.118 111.686 118.63C108.851 115.227 105.72 111.972 103.465 108.202C98.553 99.9872 97.3221 91.246 101.009 82.0609C102.82 77.5513 105.389 73.6097 109.224 70.7394C112.129 68.5556 115.503 66.9932 118.693 65.1704C121.803 63.3246 125.222 62.0555 128.783 61.4242C131.884 60.9093 135.015 60.5542 138.128 60.1281L138.134 60.5542ZM120.427 114.889C119.776 115.002 119.332 115.108 118.876 115.15C118.414 115.224 117.942 115.224 117.479 115.15C117.154 115.073 116.888 114.741 116.598 114.522C116.822 114.163 117.106 113.845 117.438 113.581C117.693 113.439 118.119 113.581 118.468 113.617C120.527 113.617 120.888 113.268 121.036 111.25C121.09 110.321 121.259 109.402 121.539 108.515C122.332 106.148 124.208 105.521 126.422 106.87C125.238 107.344 123.67 107.509 122.972 108.373C122.184 109.35 121.604 110.906 122.291 112.291L125.795 111.658L125.942 112.285C125.351 112.516 124.717 112.729 124.12 112.989C122.995 113.487 121.8 113.972 121.717 115.457C121.557 118.079 121.397 120.701 121.362 123.323C121.373 123.65 121.451 123.972 121.593 124.267C121.735 124.563 121.936 124.825 122.184 125.039C123.41 125.915 124.812 126.542 126.09 127.353C128.091 128.619 130.062 129.933 132.009 131.271C135.128 133.395 137.927 136.005 141.649 137.189C145.242 138.337 148.692 139.953 152.302 140.935C154.936 141.651 157.759 141.663 160.588 142.001C161.771 150.286 166.506 153.577 170.584 153.511C169.489 152.044 168.157 150.694 167.352 149.085C165.701 145.776 164.612 142.219 165.251 138.479C166.062 133.745 165.6 133.904 169.82 132.561C173.427 131.448 176.945 130.063 180.343 128.418C182.958 127.098 185.201 125.057 187.628 123.358C194.108 118.801 197.31 112.522 196.967 104.651C196.801 100.703 196.008 96.7854 195.464 92.8557C194.126 83.2505 189.587 75.5687 181.426 70.26C178.62 68.4372 175.436 67.1826 172.436 65.6557C167.512 63.2108 162.137 61.8086 156.646 61.5366C152.421 61.2703 148.148 61.7023 143.892 61.8621C139.637 62.0219 135.494 62.0396 131.328 62.4539C126.641 62.9333 122.332 64.7679 118.142 66.863C111.632 70.1298 105.986 74.1009 102.974 81.2916C100.423 87.3755 99.5177 93.3647 101.198 99.6913C102.163 103.29 103.075 106.917 105.969 109.652C107.306 110.912 108.336 112.516 109.478 113.966C111.111 116.014 112.573 118.245 114.432 120.068C116.053 121.654 118.125 122.784 120.415 124.406L120.427 114.889Z" fill="#4D3826"/>
<path d="M246.093 143.088C245.501 154.504 244.91 165.429 245.821 176.431C248.626 173.277 249.407 169.211 251.704 165.737C251.532 167.116 251.568 168.554 251.159 169.88C248.952 177.011 246.632 184.084 244.365 191.186C244.318 191.328 244.407 191.511 244.501 192.103C247.366 190.215 248.644 187.149 251.153 184.859C251.153 186.043 251.106 186.918 251.153 187.818C251.201 188.718 250.408 190.102 252.189 190.481C252.337 190.511 252.361 191.547 252.301 192.103C251.804 196.743 251.254 201.377 250.769 206.017C250.667 207.072 250.757 208.136 251.035 209.159C253.461 206.679 253.592 202.986 256.03 200.453C255.935 201.335 255.805 202.229 255.746 203.099C255.468 207.171 255.213 211.242 254.959 215.32C254.913 215.668 254.933 216.021 255.018 216.362C255.203 216.819 255.423 217.262 255.675 217.687C256.101 217.445 256.539 217.214 256.959 216.959C257.278 216.717 257.584 216.458 257.876 216.184C257.58 217.8 257.356 218.942 257.172 220.084C256.758 222.623 256.426 225.174 255.923 227.689C255.829 228.168 254.864 228.956 254.74 228.873C252.142 227.369 249.313 228.529 246.644 228.086C245.099 227.825 243.531 227.707 241.968 227.559C237.399 227.121 233.049 228.316 228.694 229.388C228.193 229.538 227.743 229.823 227.392 230.21C224.563 233.217 221.669 236.17 218.982 239.306C216.023 242.786 212.975 246.213 208.838 248.237C207.063 249.113 204.802 249.231 202.742 249.35C200.375 249.492 197.96 249.172 195.569 249.214C194.427 249.214 193.794 248.912 193.593 247.799C193.392 246.686 193.202 245.645 192.965 244.325C194.593 244.787 195.061 244.367 195.244 242.792C196.01 236.223 197.923 229.839 200.896 223.931C202.985 219.788 206.702 217.504 210.614 215.48C211.845 214.847 213.271 214.592 214.602 214.142C214.81 214.071 215.147 213.941 215.159 213.811C215.425 211.26 217.869 210.26 219.012 208.354C219.152 208.072 219.265 207.776 219.349 207.472L219.006 207.129L215.455 209.928C214.804 207.449 215.236 205.111 215.881 202.886C217.147 198.53 218.491 194.18 220.118 189.949C220.657 188.528 222.053 187.374 223.225 186.273C226.013 183.64 229.025 181.243 231.706 178.509C233.482 176.698 234.849 174.49 236.334 172.419C236.512 172.164 236.293 171.626 236.263 171.235C235.908 171.431 235.369 171.537 235.227 171.827C233.493 175.514 230.706 178.337 227.711 180.947C224.03 184.172 220.308 187.356 216.585 190.546C216.014 191.066 215.305 191.411 214.543 191.54C213.782 191.669 212.999 191.577 212.288 191.274C209.986 190.178 207.784 188.883 205.707 187.404C204.524 186.575 204.914 185.445 206.299 183.699C208.211 181.332 209.85 178.728 211.744 176.301C212.768 174.97 214.111 173.887 215.111 172.52C216.122 171.041 216.997 169.474 217.727 167.838C218.842 165.545 219.447 163.037 219.503 160.488C218.639 161.145 217.928 162.103 217.135 162.186C216.342 162.269 215.301 161.594 214.389 161.21C211.016 159.772 209.826 156.286 207.572 153.8C207.264 153.457 207.394 152.546 207.572 151.966C208.163 149.835 208.921 147.74 209.56 145.621C209.684 145.225 209.75 144.591 209.56 144.378C209.371 144.265 209.16 144.191 208.941 144.163C208.722 144.134 208.5 144.151 208.288 144.213C205.962 144.728 203.677 145.473 201.328 145.811C199.82 146.005 198.289 145.894 196.824 145.485C193.522 144.562 190.314 145.485 187.071 145.692C184.165 145.888 183.52 145.692 183.384 142.769C183.384 142.532 183.384 142.301 183.354 142.064C183.277 141.277 182.828 140.165 183.183 139.774C183.881 138.999 184.994 138.549 185.994 138.093C188.107 137.14 190.255 136.241 192.409 135.377C193.038 135.182 193.684 135.047 194.339 134.974C194.226 133.229 195.978 132.773 196.984 131.82C198.357 130.53 200.091 129.618 201.482 128.34C204.046 125.954 207.003 124.028 210.223 122.647C210.28 122.635 210.336 122.617 210.389 122.594C214.33 120.226 218.23 119.883 222.669 121.682C225.812 122.955 229.439 123.168 232.256 125.233C234.399 126.825 236.636 128.287 237.287 131.418C238.429 136.892 240.063 142.272 241.566 147.675C242.052 149.06 242.615 150.418 243.252 151.741C245.726 149.237 244.478 145.923 246.093 143.088ZM210.501 125.849C207.672 125.801 205.512 126.937 204.234 129.5C204.122 129.741 204.065 130.004 204.065 130.269C204.065 130.535 204.122 130.798 204.234 131.039C204.826 131.932 207.607 132.187 208.412 131.423C209.365 130.512 210.158 129.441 211.028 128.464C211.306 128.118 211.615 127.797 211.951 127.506C212.331 127.243 212.726 127.004 213.135 126.79C212.685 126.501 212.214 126.248 211.726 126.032C211.326 125.923 210.915 125.862 210.501 125.849Z" fill="#C8A468"/>
<path d="M278.673 223.531C275.847 221.622 273.676 218.89 272.453 215.707C272.489 220.181 272.501 224.584 273.465 229.011C274.43 233.438 275.241 237.74 276.117 242.108L275.572 242.309C274.98 241.226 274.389 240.125 273.797 239.066C272.613 237.107 271.506 235.136 270.246 233.248C268.47 230.603 269.246 227.727 269.311 224.904C269.388 221.181 269.494 217.453 269.512 213.724C269.409 213.043 269.21 212.379 268.92 211.753L268.411 211.86V229.1L266.896 228.508L266.133 232.881L265.541 232.929C265.008 230.372 264.316 227.833 264.002 225.235C263.817 223.233 263.845 221.218 264.085 219.222C264.245 217.524 264.381 217.535 262.594 217.482C262.546 217.276 262.471 217.076 262.369 216.89C262.138 216.571 261.854 216.299 261.593 215.991C261.416 216.364 261.078 216.737 261.096 217.103C261.16 217.858 261.285 218.606 261.469 219.341C261.866 221.4 261.244 223.081 260.043 224.815C258.995 226.33 258.528 228.253 257.806 229.993L256.622 232.822L256.066 232.686C256.859 228.105 257.539 223.507 258.48 218.956C259.404 214.499 260.587 210.079 261.274 205.575L256.847 215.843L256.054 215.63C256.054 214.973 256.013 214.316 256.054 213.665C256.433 208.605 256.61 203.509 257.338 198.497C257.652 196.295 259.114 194.259 260.031 192.146C260.386 191.347 260.747 190.548 261.108 189.779L260.635 189.584C259.818 190.866 259.005 192.154 258.196 193.448L257.924 193.36C258.137 190.756 258.386 188.152 258.516 185.542C258.496 184.714 258.403 183.891 258.238 183.08C257.486 183.524 256.717 183.944 255.983 184.423C255.741 184.621 255.526 184.85 255.344 185.104L253.734 183.222C254.711 185.346 252.959 186.607 252.509 188.14C251.876 185.607 251.686 183.163 253.829 181.038L252.32 181.878C252.245 181.497 252.194 181.112 252.166 180.724C252.166 177.623 252.166 174.528 252.26 171.439C252.296 170.575 252.757 169.722 253.03 168.87C253.095 168.657 253.272 168.45 253.266 168.243C253.213 165.751 253.13 163.26 253.042 160.289C252.565 160.73 252.145 161.229 251.793 161.774C250.195 165.272 248.656 168.799 247.094 172.314C246.953 172.578 246.797 172.833 246.626 173.078C245.129 170.486 246.668 142.262 248.615 138.125C255.717 143.292 261.481 149.671 267.387 155.921L267.139 156.389L255.148 153.234C255.077 153.435 255.001 153.631 254.929 153.826C260.475 157.377 266.73 159.922 271.258 164.905L271.021 165.396L258.48 160.247C258.936 160.922 259.339 161.632 259.848 162.265C263.694 167 267.677 171.681 271.376 176.552C273.794 179.83 275.938 183.302 277.786 186.932C277.215 186.879 276.657 186.739 276.129 186.518C272.578 184.311 269.074 182.044 265.547 179.813C263.973 178.824 262.398 177.842 260.783 176.925C260.504 176.765 260.031 176.925 259.226 176.99C266.742 184.24 273.554 191.448 278.585 200.071L278.318 200.503C277.348 200.118 276.247 199.911 275.436 199.319C272.601 197.218 269.873 194.969 267.091 192.809C266.612 192.413 266.036 192.15 265.422 192.046C270.062 199.911 275.371 207.25 279.455 215.316L278.863 215.849C277.596 214.594 276.3 213.369 275.087 212.067C274.093 210.996 273.24 209.806 272.252 208.729C271.853 208.413 271.408 208.16 270.932 207.978C271.009 208.52 271.154 209.051 271.364 209.558C273.643 213.7 275.969 217.796 278.259 221.915C278.452 222.438 278.591 222.979 278.673 223.531Z" fill="#4D3826"/>
<path d="M255.877 236.326C257.818 234.314 258.007 231.343 259.7 228.633C260.404 231.485 261.073 233.918 261.588 236.38C262.47 240.522 263.227 244.73 264.097 248.897C264.192 249.358 264.648 249.749 264.938 250.175C265.224 249.725 265.425 249.225 265.53 248.701C265.53 245.677 265.447 242.653 265.423 239.629C265.494 239.05 265.621 238.479 265.802 237.924L267.808 241.949L268.56 241.765V233.622C270.649 235.107 271.803 237.575 271.323 239.54C270.53 242.789 269.862 246.009 270.323 249.394C270.524 250.868 269.832 252.027 268.548 252.945C267.642 253.675 266.829 254.514 266.127 255.442C263.565 258.366 262.227 258.319 260.268 254.85C260.416 258.176 258.238 257.188 256.617 257.301C254.705 257.425 252.799 257.644 250.888 257.774C248.521 257.94 246.124 258.123 243.739 258.171C241.354 258.218 238.951 257.963 236.572 258.111C233.938 258.271 232.05 257.005 230.091 255.549C228.783 254.572 227.132 254.022 225.812 253.075C224.866 252.412 223.777 251.542 223.41 250.53C221.735 245.902 221.285 241.31 223.942 236.723C225.807 233.504 228.635 231.716 231.885 230.432C236.104 228.769 240.49 228.609 244.952 229.296C246.502 229.568 248.084 229.608 249.645 229.414C250.506 229.282 251.384 229.325 252.227 229.542C253.07 229.759 253.861 230.144 254.551 230.675C254.925 231.044 255.138 231.546 255.143 232.071C255.226 233.438 255.173 234.811 255.173 236.184L255.877 236.326Z" fill="#D8D8D8"/>
<path d="M196.824 229.011C194.516 228.188 192.356 227.513 190.314 226.643C189.604 226.341 188.734 225.543 188.651 224.868C188.568 224.193 189.302 223.353 189.888 222.808C192.35 220.512 194.942 218.358 197.38 216.038C201.18 212.416 205.465 209.77 210.702 208.859C211.614 208.699 212.519 208.486 213.425 208.297C214.354 210.617 213.916 211.576 211.898 212.842C208.66 214.878 205.388 216.92 202.387 219.251C199.925 221.145 198.706 223.986 197.735 226.945C197.481 227.572 197.173 228.194 196.824 229.011Z" fill="#C8A468"/>
<path d="M260.984 139.858C260.523 139.844 260.063 139.792 259.611 139.705C256.296 138.848 252.99 137.97 249.692 137.071C249.366 136.982 248.928 136.805 248.816 136.55C248.082 134.852 246.975 135.787 246.016 135.887C246.141 137.035 246.247 138 246.354 138.971L245.762 139.148C244.537 137.503 243.312 135.87 242.093 134.224C241.579 133.591 241.099 132.931 240.655 132.248C239.903 130.975 238.832 129.703 240.264 128.105L238.317 126.637C241.377 125.56 243.554 126.637 245.78 128.324C250.781 132.165 255.959 135.81 260.984 139.858Z" fill="#4D3826"/>
<path d="M213.295 193.595C212.821 194.601 212.2 195.963 211.46 197.525L210.466 195.323C208.389 197.691 208.051 200.65 206.637 202.982L205.82 202.768C206.217 200.277 206.631 197.779 207.004 195.282C207.031 194.747 207.011 194.21 206.945 193.678C206.465 193.897 205.844 193.986 205.518 194.347C203.53 196.548 201.606 198.815 199.653 201.052C199.445 201.285 199.163 201.439 198.854 201.49C199.73 198.158 201.6 195.323 203.589 192.193C200.748 191.903 199.553 194.471 197.239 194.702C199.606 192.761 202.015 190.814 204.453 188.825L213.295 193.595Z" fill="#4D3826"/>
<path d="M251.675 205.054C252.007 201.965 252.32 198.876 252.67 195.787C252.886 194.712 253.034 193.625 253.113 192.532C253.036 189.247 254.889 187.028 257.126 184.743C257.883 192.271 256.173 198.976 251.675 205.054Z" fill="#4D3826"/>
<path d="M245.283 141.953C244.691 144.161 244.005 146.351 243.348 148.54L242.714 148.611C241.322 143.238 239.929 137.864 238.536 132.49L239.199 132.212C240.897 134.544 243.111 136.491 244.093 139.355C244.328 139.932 244.595 140.495 244.892 141.042C245.04 141.344 245.354 141.705 245.283 141.953Z" fill="#4D3826"/>
<path d="M246.011 118.868C244.011 121.525 240.685 122.685 237.951 121.703C235.11 120.691 232.293 119.602 229.47 118.53C229.387 118.501 229.352 118.347 229.192 118.075C234.879 117.299 240.389 118.169 246.011 118.868Z" fill="#4D3826"/>
<path d="M189.126 250.245C185.338 250.534 180.349 249.653 177.769 248.185C180.189 247.386 182.231 246.41 184.87 246.895C186.551 247.22 188.451 246.421 190.244 246.084C190.652 245.935 191.04 245.737 191.398 245.492C191.463 246.084 191.481 246.563 191.564 247.007C192.108 249.854 191.984 250.026 189.126 250.245Z" fill="#4D3826"/>
<path d="M263.624 241.823C262.588 236.556 261.564 231.572 260.694 226.566C260.582 225.944 261.286 225.175 261.6 224.477H262.191C262.529 225.357 262.816 226.256 263.05 227.169C263.955 231.868 266.63 236.455 263.624 241.823Z" fill="#4D3826"/>
<path d="M225.924 120.837C226.12 120.322 226.356 119.653 226.682 118.801L238.341 122.944L236.601 123.535L236.636 123.861L238.944 123.967C237.619 126.24 237.631 126.222 235.358 125.151C232.263 123.737 229.15 122.322 225.924 120.837Z" fill="#4D3826"/>
<path d="M251.207 174.396C251.207 177.177 251.207 179.953 251.207 182.734C251.218 182.969 251.154 183.201 251.024 183.397C249.6 185.183 248.045 186.86 246.372 188.416L250.746 174.295L251.207 174.396Z" fill="#4D3826"/>
<path d="M192.184 242.499C190.125 244.541 188.006 244.813 185.846 243.683C184.721 243.091 183.479 242.813 182.295 242.333C181.703 242.051 181.13 241.731 180.579 241.375L180.804 240.735L192.184 242.499Z" fill="#4D3826"/>
<path d="M207.992 145.976C207.46 147.752 206.933 149.527 206.347 151.492C204.282 150.084 204.341 148.373 205.104 146.835C205.448 146.148 206.714 145.929 207.56 145.497L207.992 145.976Z" fill="#4D3826"/>
<path d="M186.716 224.377H180.206L180.259 223.821C182.609 223.123 186.172 223.472 186.716 224.377Z" fill="#4D3826"/>
<path d="M267.121 237.077C265.742 235.017 266.973 233.212 267.121 231.324C268.027 231.91 268.021 235.053 267.121 237.077Z" fill="#4D3826"/>
<path d="M210.502 125.85C210.902 125.863 211.299 125.92 211.686 126.022C212.174 126.238 212.645 126.491 213.095 126.779C212.686 126.994 212.291 127.233 211.911 127.495C211.575 127.787 211.266 128.108 210.988 128.454C210.118 129.442 209.325 130.514 208.372 131.413C207.567 132.177 204.785 131.922 204.194 131.028C204.082 130.787 204.024 130.525 204.024 130.259C204.024 129.993 204.082 129.731 204.194 129.49C205.49 126.939 207.65 125.803 210.502 125.85Z" fill="#4D3826"/>
<path d="M165.382 92.3004L165.766 85.0861L165.174 84.9086C164.713 85.962 164.162 86.9859 163.807 88.0807C163.328 89.5603 163.109 91.1404 162.553 92.5904C162.233 93.413 161.464 94.0581 160.896 94.7861C160.23 94.1324 159.626 93.4192 159.091 92.6555C158.66 91.7121 158.309 90.7341 158.043 89.7319C158.274 89.1401 158.635 88.0867 159.037 87.0924C159.242 86.4915 159.567 85.938 159.99 85.4649C160.449 85.191 160.958 85.01 161.487 84.9323C161.629 85.3939 161.955 85.8969 161.866 86.3053C161.757 87.1728 161.436 88 160.931 88.714C159.552 90.2468 160.339 91.6731 160.635 93.129L161.18 93.2828L165.524 83.0858L166.37 83.1331C166.607 84.2753 166.849 85.4235 167.133 86.7787L171.832 82.8076L172.306 83.2692C171.016 84.6363 169.524 85.8732 168.477 87.412C167.429 88.9507 166.885 90.7203 166.109 92.3951L165.382 92.3004Z" fill="#4D3826"/>
<path d="M141.259 93.821L140.957 87.6187L140.075 87.4056C139.484 88.5064 138.892 89.6309 138.217 90.7021C137.844 91.219 137.428 91.704 136.974 92.152C136.699 91.5757 136.46 90.9827 136.258 90.3766C136.168 89.8808 136.128 89.3771 136.14 88.8734L135.678 88.7432C135.193 89.8972 134.755 91.0749 134.216 92.2053C133.938 92.6527 133.607 93.0642 133.228 93.4304C133.064 92.894 132.966 92.3394 132.938 91.7792C133.11 89.6546 133.37 87.5299 133.577 85.4053C133.625 84.8667 133.577 84.3163 133.577 83.7719L134.216 83.6357C134.483 84.3992 134.749 85.1686 135.009 85.932L135.193 85.6243L138.152 87.5832C138.347 87.4116 138.862 86.9144 139.43 86.4765C140.72 85.4881 142.064 85.8314 142.324 87.3997C142.564 89.0612 142.63 90.7432 142.52 92.4184C142.52 92.9628 141.886 93.4777 141.543 94.0044L141.259 93.821Z" fill="#4D3826"/>
<path d="M152.1 85.8298C152.349 85.4106 152.634 85.0144 152.953 84.6462C153.545 84.1372 154.136 83.6756 154.77 83.1903C155.255 83.8591 156.101 84.4923 156.166 85.2025C156.466 88.476 156.216 91.7765 155.427 94.9675H154.87V84.9362L154.278 84.8533C152.847 86.8512 152.056 89.2372 152.012 91.6948C151.904 92.6072 151.742 93.5123 151.526 94.4053C150.343 92.6298 150.858 78.2131 152.083 77.1123L152.1 85.8298Z" fill="#4D3826"/>
<path d="M116.467 78.4395H125.427C124.907 79.0313 124.747 79.3627 124.552 79.3804C122.445 79.5757 122.457 81.0731 122.386 82.6473C122.226 86.2337 121.965 89.8202 121.711 93.9747L126.25 91.0156L126.558 91.3352C126.372 91.6943 126.141 92.0284 125.871 92.3295C123.841 94.1049 121.77 95.8212 118.882 95.8331C118.432 95.8331 117.982 95.3833 117.533 95.1406C117.926 94.8208 118.365 94.5614 118.835 94.3713C119.511 94.2607 120.197 94.2132 120.882 94.2292C120.882 92.223 120.77 90.3765 120.882 88.5477C121.066 86.0621 121.474 83.5942 121.675 81.1086C121.646 80.855 121.552 80.6131 121.403 80.406C121.254 80.1988 121.054 80.0332 120.823 79.9249C119.929 79.7355 118.959 79.9249 118.042 79.7829C117.426 79.6331 116.83 79.4106 116.266 79.12L116.467 78.4395Z" fill="#4D3826"/>
<path d="M143.389 128.614C143.756 127.762 144.087 126.892 144.49 126.057C145.082 124.797 145.774 123.572 146.366 122.299C146.958 121.027 147.437 120.074 146.301 118.494C144.804 116.423 145.413 113.866 147.088 111.629V118.553C149.947 116.742 150.118 113.819 151.787 111.83C150.047 117.908 146.922 123.335 144.093 128.892L143.389 128.614Z" fill="#4D3826"/>
<path d="M154.812 112.545L155.167 113.616C155.544 112.974 155.995 112.378 156.51 111.841C156.998 111.403 157.631 111.163 158.286 111.166C158.653 111.225 159.097 112.083 159.156 112.622C159.452 115.309 158.416 117.646 156.789 119.676C156.499 119.954 156.146 120.158 155.761 120.271C155.376 120.385 154.969 120.404 154.575 120.327C154.212 120.143 153.901 119.871 153.67 119.536C153.438 119.202 153.294 118.815 153.25 118.41C153.528 116.418 153.913 114.442 154.404 112.492L154.812 112.545ZM158.576 112.734L157.712 112.279C156.126 113.462 155.7 115.279 155.345 117.138L153.847 117.262L155.06 119.144C155.605 118.765 156.41 118.511 156.641 117.99C157.398 116.291 157.943 114.492 158.576 112.734Z" fill="#4D3826"/>
<path d="M126.309 119.144C126.365 116.805 127.158 114.543 128.576 112.682C128.736 112.379 128.991 112.138 129.303 111.997C129.615 111.856 129.965 111.823 130.298 111.903C130.63 111.983 130.927 112.172 131.14 112.439C131.354 112.707 131.472 113.038 131.476 113.38C132.068 116.381 130.937 119.02 129.387 121.458C129.085 121.932 128.055 122.18 127.422 122.098C127.02 122.05 126.641 121.228 126.416 120.683C126.302 120.179 126.266 119.66 126.309 119.144ZM128.156 120.831C130.215 118.523 131.02 114.564 129.795 113.137C128.109 114.611 127.102 119.085 128.156 120.825V120.831Z" fill="#4D3826"/>
<path d="M178.479 88.5186C177.665 89.4807 176.787 90.3863 175.851 91.2292C175.595 91.4768 175.286 91.6633 174.947 91.7749C174.609 91.8865 174.249 91.9202 173.896 91.8736C173.543 91.8269 173.205 91.7011 172.907 91.5055C172.609 91.3099 172.359 91.0495 172.176 90.7439C171.134 89.2998 171.27 86.5301 172.424 85.1748C172.935 84.4698 173.493 83.7995 174.093 83.1686C174.305 82.9914 174.551 82.8587 174.815 82.7784C175.079 82.6981 175.357 82.6718 175.632 82.701C175.83 82.8413 175.989 83.0306 176.093 83.2505C176.197 83.4703 176.242 83.7133 176.224 83.9557C175.584 85.5181 174.774 87.0095 174.034 88.5305C173.815 88.9803 173.643 89.4419 173.442 89.8976C174.034 90.0396 174.827 90.4894 175.218 90.2527C176.223 89.6083 177.173 88.8819 178.058 88.0807L178.479 88.5186ZM175.519 83.9143L174.697 83.5533L173.312 86.7313L173.969 87.0332L175.519 83.9143Z" fill="#4D3826"/>
<path d="M167.098 117.818L165.524 116.907C164.99 117.805 164.397 118.667 163.749 119.487C162.985 120.363 162.228 120.168 161.689 119.138C160.695 117.215 160.653 113.137 161.731 110.959C162.009 113.533 162.263 115.918 162.524 118.303L163.299 118.475C163.832 117.155 164.388 115.847 164.885 114.51C165.045 114.084 164.956 113.563 165.134 113.149C165.264 112.835 165.631 112.433 165.897 112.427C166.163 112.421 166.589 112.865 166.631 113.155C166.856 114.575 166.945 116.013 167.098 117.818Z" fill="#4D3826"/>
<path d="M133.446 121.885C133.789 118.879 134.126 115.873 134.511 112.487L135.428 114.979C137.985 112.979 137.985 112.979 139.05 113.091C137.92 114.565 136.831 115.944 135.795 117.364C134.76 118.784 135.748 120.915 134.103 122.098L133.446 121.885Z" fill="#4D3826"/>
<path d="M132.039 80.0841C131.044 83.2405 130.046 86.383 129.044 89.5118C128.452 86.3988 130.163 80.5161 131.411 79.877L132.039 80.0841Z" fill="#4D3826"/>
<path d="M176.313 104.49C176.106 106.858 175.898 109.16 175.721 111.456C174.093 108.615 174.478 105.052 176.313 104.49Z" fill="#4D3826"/>
<path d="M174.951 116.488C175.33 115.582 175.655 114.813 176.135 113.694C176.857 115.795 176.632 116.269 174.951 116.488Z" fill="#4D3826"/>
<path d="M175.537 83.9118L173.987 87.0307L173.33 86.7289L174.714 83.5508L175.537 83.9118Z" fill="#4D3826"/>
<path d="M207.542 127.43C207.542 127.43 208.134 126.247 211.093 126.839L208.726 129.206C208.705 128.831 208.585 128.469 208.376 128.157C208.168 127.844 207.88 127.594 207.542 127.43Z" fill="white"/>
<path d="M202.217 146.96C202.303 147.869 202.725 148.713 203.4 149.327C203.755 148.932 203.998 148.449 204.102 147.929C204.206 147.408 204.168 146.869 203.992 146.368C203.495 146.78 202.862 146.991 202.217 146.96Z" fill="white"/>
<path d="M173.738 226.156C173.767 225.86 173.791 225.564 173.82 225.274C169.703 223.848 165.485 222.728 161.203 221.924C156.93 221.042 152.568 220.604 148.23 219.971C148.721 219.687 149.313 219.35 149.905 219.001C152.716 217.337 155.545 215.704 158.327 213.988C158.838 213.568 159.292 213.082 159.676 212.544C152.456 212.218 145.821 213.899 138.773 215.657C139.844 214 140.548 212.538 141.602 211.336C145.579 206.691 149.668 202.134 153.669 197.506C154.065 197.05 154.119 196.322 154.486 195.245C150.787 196.541 147.638 197.553 144.555 198.737C141.472 199.92 138.418 201.281 135.003 202.714C135.595 201.601 135.997 200.826 136.441 200.08C138.092 197.275 139.797 194.493 141.389 191.658C141.637 191.209 141.43 190.504 141.436 189.918C140.886 189.977 140.35 190.127 139.85 190.362C136.565 192.67 133.31 195.038 130.067 197.399C129.126 198.086 128.238 198.831 127.327 199.547C127.652 198.273 128.131 197.043 128.753 195.884C130.221 192.848 131.712 189.824 133.115 186.764C133.298 186.373 133.115 185.817 133.115 185.344C132.685 185.422 132.265 185.545 131.86 185.711C131.304 186.012 130.807 186.427 130.274 186.776C125.836 189.682 121.361 192.534 116.964 195.505C115.118 196.754 113.413 198.251 111.259 199.968C111.549 197.198 111.679 195.002 112.028 192.866C112.786 188.208 113.686 183.568 114.443 178.911C114.532 178.319 114.076 177.727 113.851 177.1C113.224 177.378 112.342 177.484 112.005 177.97C110.525 180.059 109.306 182.331 107.797 184.397C105.471 187.587 102.985 190.658 100.34 194.073C100.043 193.39 99.7956 192.685 99.6002 191.966C99.2688 190.072 99.0676 188.155 98.6888 186.273C98.5559 185.68 98.1944 185.163 97.6827 184.835C97.4342 184.705 96.647 185.208 96.3452 185.604C94.481 188.072 92.67 190.581 90.8768 193.102C89.5511 194.961 88.2846 196.861 86.8879 198.896C86.6891 198.586 86.513 198.262 86.3612 197.926C85.3788 194.748 84.4082 191.558 83.4021 188.38C82.7452 186.267 82.1119 184.142 81.3603 182.053C81.2124 181.633 80.5969 181.378 80.1767 181.047C79.9109 181.434 79.711 181.862 79.5849 182.314C79.2238 185.32 78.993 188.35 78.5847 191.339C77.5135 198.624 76.5192 205.904 77.4306 213.295C77.3903 213.758 77.299 214.214 77.1584 214.657C76.0162 213.443 74.7911 212.644 74.3058 211.526C73.4762 209.351 72.8076 207.117 72.3055 204.844C71.9622 203.513 71.9208 203.442 70.6069 204.063C71.3211 205.929 72.0332 207.791 72.7434 209.65L72.3114 209.934C71.903 209.579 71.4769 209.241 71.0863 208.863C67.7958 205.649 64.523 202.412 61.2029 199.222C60.8952 198.926 60.3152 198.92 59.8595 198.778C59.765 199.245 59.7371 199.723 59.7766 200.198C60.0607 201.435 60.617 202.637 60.759 203.885C61.0786 206.726 61.2147 209.585 61.4278 212.437C61.487 213.272 61.5698 214.106 61.6764 215.396C60.6407 214.722 59.8595 214.408 59.3387 213.846C57.1253 211.478 55.0302 208.951 52.7991 206.578C52.3434 206.093 51.4734 205.986 50.7928 205.72C50.7928 205.844 50.7514 205.975 50.7277 206.105L60.0607 219.16L59.7234 219.675C56.4388 219.93 53.1423 220.113 49.8636 220.468C46.6974 220.811 43.4128 220.078 40.3116 221.06C40.2761 221.315 40.2465 221.569 40.211 221.818L55.9594 227.286L55.8173 227.736C53.2843 226.949 50.7573 226.126 48.2065 225.398C47.492 225.271 46.7657 225.221 46.0405 225.25C50.0412 228.967 54.7284 230.736 59.6523 232.121C55.2255 232.713 50.8401 233.009 46.4843 233.559C42.1285 234.11 37.7313 233.79 33.4229 235.808C33.7037 236.096 34.0064 236.361 34.3283 236.601C41.4302 240.442 49.3487 241.217 57.1963 242.466C54.2372 243.75 51.2781 244.833 48.319 245.976C47.8214 246.268 47.3722 246.635 46.9874 247.065C47.4076 247.414 47.7745 247.952 48.2539 248.083C52.399 249.1 56.7073 249.267 60.9188 248.574C64.8781 248.017 68.8492 247.562 73.0216 247.041C72.7493 247.887 72.5008 248.757 72.1812 249.598C71.5894 251.125 70.9561 252.616 70.4057 254.155C70.2814 254.51 70.5359 254.995 70.6188 255.421C71.0745 255.267 71.6485 255.244 71.9622 254.942C73.0867 253.853 74.0395 252.574 75.2172 251.545C78.2414 248.917 81.3485 246.384 84.6212 243.65C84.9794 244.26 85.2939 244.895 85.5622 245.55C86.6157 248.822 87.6218 252.113 88.6515 255.392C89.5393 258.232 90.3974 261.085 91.3621 263.902C91.51 264.346 92.1374 264.624 92.5457 264.979C92.8239 264.583 93.3032 264.21 93.3447 263.795C93.5873 261.316 93.6465 258.812 93.9365 256.338C94.2738 253.379 94.771 250.42 95.2444 247.136C95.5471 247.431 95.8262 247.749 96.0789 248.088C99.2037 253.557 102.299 259.037 105.465 264.476C105.773 265.009 106.519 265.287 107.063 265.66C107.29 265.055 107.433 264.421 107.489 263.778C107.306 260.712 106.897 257.652 106.838 254.581C106.779 252.213 107.093 249.894 107.27 247.136C110.034 249.053 112.283 250.734 113.993 253.089C114.271 253.474 115.07 253.486 115.633 253.681C115.749 253.147 115.785 252.598 115.739 252.054C115.452 251.129 115.116 250.22 114.733 249.331L115.23 249.083C122.19 253.078 128.15 258.351 133.985 263.789C134.545 264.184 135.156 264.501 135.802 264.73C135.908 264.044 136.293 263.245 136.074 262.683C134.524 258.676 132.843 254.717 131.215 250.746C130.949 250.101 130.724 249.438 130.333 248.378C134.435 250.047 138.092 251.562 141.773 252.995C142.294 253.196 142.957 252.995 143.549 252.995C143.393 252.421 143.164 251.871 142.868 251.355C142.228 250.591 141.546 249.862 140.826 249.172C145.561 249.988 149.976 250.769 154.385 251.491C155.015 251.513 155.645 251.455 156.261 251.32C155.971 250.791 155.637 250.288 155.261 249.817C154.042 248.521 152.763 247.278 151.509 246.017C154.576 246.427 157.615 247.02 160.611 247.793C161.034 247.823 161.459 247.789 161.872 247.692C161.881 247.206 161.807 246.721 161.653 246.26C161.237 245.691 160.761 245.169 160.232 244.703C162.138 244.532 163.647 244.443 165.138 244.236C165.732 244.083 166.306 243.863 166.849 243.579C166.393 243.034 166.044 242.265 165.458 241.987C162.244 240.466 158.948 239.081 155.723 237.619C155.048 237.317 154.426 236.891 153.781 236.524C153.835 236.329 153.894 236.134 153.947 235.932C158.303 235.932 162.659 235.932 167.02 235.932C167.316 235.932 167.849 235.69 167.855 235.548C167.863 235.36 167.833 235.172 167.768 234.995C167.703 234.819 167.604 234.656 167.476 234.518C167.12 234.214 166.702 233.99 166.251 233.861C160.597 231.888 154.939 229.916 149.278 227.943C148.857 227.801 148.443 227.641 148.029 227.487L148.118 226.895L173.738 226.156ZM128.759 199.743C132.002 197.506 135.086 195.008 138.228 192.67C138.642 192.372 139.157 192.249 139.661 192.327C139.264 193.221 138.921 194.144 138.477 195.002C137.045 197.665 135.577 200.329 134.109 202.95C133.953 203.321 133.707 203.646 133.393 203.897C129.416 206.152 125.415 208.371 120.965 210.839C123.013 206.341 124.883 202.394 128.73 199.743H128.759ZM89.3795 197.334C91.5574 194.097 93.8063 190.913 96.0434 187.717C96.3809 187.354 96.7492 187.022 97.1442 186.723C97.6768 188.966 97.949 191.055 98.677 192.966C99.4878 195.109 98.8723 196.748 97.7064 198.458C95.3391 201.915 93.0665 205.412 90.7525 208.898L90.1607 208.969C89.2611 206.259 88.113 203.595 87.5981 200.814C87.4028 199.79 88.616 198.447 89.3499 197.334H89.3795ZM73.7317 215.414C74.2703 218.639 74.797 221.871 75.3652 225.339C69.2398 222.859 65.7244 216.799 66.8074 210.697C69.1333 212.23 71.3349 213.656 73.5305 215.142C73.6281 215.205 73.6995 215.302 73.7317 215.414ZM61.4751 202.394L62.067 202.187L73.5956 212.721L73.2287 213.195C72.0036 212.414 70.7845 211.609 69.5357 210.857C68.5469 210.251 67.5277 209.696 66.4819 209.194C66.0569 209.086 65.6157 209.056 65.1799 209.105C65.1132 209.524 65.0993 209.95 65.1385 210.372C65.7658 213.189 66.4287 215.994 67.1685 219.202C64.5467 217.906 62.6825 216.728 62.5404 213.781C62.3392 209.963 61.8362 206.176 61.4751 202.382V202.394ZM68.2692 228.369C64.9077 225.824 63.6886 222.646 63.7951 218.764C68.4645 220.456 67.7899 224.487 68.2692 228.357V228.369ZM57.7467 214.307C59.4215 215.935 62.5286 216.272 62.1912 219.723C59.9127 218.61 58.9954 216.302 57.7467 214.307ZM44.336 222.155C44.3775 221.942 44.4248 221.735 44.4721 221.522L50.1181 221.202C53.0772 221.036 56.0363 220.894 58.9954 220.693C59.5633 220.601 60.1458 220.687 60.6628 220.939C61.1799 221.192 61.6063 221.598 61.8835 222.102C63.3512 224.38 65.0675 226.505 66.5175 228.949C58.9185 227.215 51.6983 224.487 44.336 222.155ZM52.1303 228.387C52.0415 228.351 51.9823 228.215 51.6746 227.848C54.1129 228.363 56.273 228.771 58.4036 229.286C60.5341 229.801 62.6292 230.411 64.7361 230.979L64.7716 231.506C63.8306 231.63 62.7949 232.097 61.9723 231.825C58.6581 230.801 55.4031 229.559 52.1303 228.387ZM40.7022 237.856C39.2996 237.412 37.9444 236.802 36.5595 236.264C36.5595 236.057 36.6128 235.844 36.6424 235.631C44.9811 234.258 53.4146 233.79 61.8362 233.169C62.5286 233.121 63.2684 233.672 63.9904 233.938L63.9194 234.53C60.1317 234.796 56.35 235.151 52.5623 235.305C50.7869 235.376 48.9641 235.015 47.159 234.974C46.7151 234.974 46.2535 235.435 45.8037 235.684C46.1323 236.021 46.5117 236.305 46.9282 236.524C52.4972 238.335 58.3385 237.921 64.0496 238.566C65.1148 238.684 66.2038 238.566 67.3401 238.773C64.5822 239.596 62.1084 241.513 59.0546 241.182C52.8819 240.495 46.6796 239.756 40.7022 237.856ZM164.706 234.193C164.706 234.429 164.653 234.666 164.629 234.897C161.96 235.11 159.303 235.287 156.622 235.536C153.941 235.785 151.515 233.761 148.816 234.625C148.739 234.861 148.656 235.092 148.579 235.329L164.298 242.774L164.209 243.271H155.048C155.569 245.183 157.735 243.952 159.285 245.218C157.658 245.218 156.409 245.455 155.285 245.171C153.095 244.615 150.982 243.75 148.816 243.064C148.344 242.974 147.863 242.945 147.384 242.975C147.539 243.466 147.771 243.929 148.07 244.348C149.787 246.088 151.562 247.769 153.32 249.467L152.953 250.059C151.177 249.799 149.36 249.752 147.686 249.219C144.815 248.319 142.046 247.094 139.223 246.053C138.745 245.946 138.256 245.902 137.767 245.922C137.768 246.459 137.869 246.991 138.063 247.491C138.672 248.347 139.328 249.168 140.027 249.953L139.708 250.379C138.934 250.249 138.174 250.051 137.435 249.787C134.796 248.574 132.204 247.26 129.564 246.059C128.962 245.886 128.338 245.804 127.712 245.816C127.836 246.502 127.712 247.402 128.126 247.84C131.239 251.296 131.6 255.924 133.411 259.925C133.523 260.351 133.596 260.787 133.63 261.227C132.571 260.463 131.807 259.949 131.091 259.38C126.356 255.616 121.622 251.841 116.887 248.053C116.165 247.461 115.591 246.692 114.834 246.171C114.212 245.843 113.552 245.594 112.869 245.431C112.644 246.101 112.472 246.788 112.354 247.485C112.313 247.941 112.573 248.42 112.401 249.041C111.07 247.858 109.774 246.674 108.395 245.555C108.189 245.375 107.948 245.241 107.687 245.161C107.426 245.082 107.15 245.059 106.88 245.094C106.53 245.23 106.288 245.993 106.229 246.496C105.968 251.101 105.767 255.705 105.542 260.315C105.517 260.59 105.478 260.862 105.424 261.132L105.057 261.233C103.51 258.313 101.962 255.395 100.411 252.48C99.1031 250.024 97.807 247.556 96.4162 245.141C96.1262 244.626 95.4634 244.325 94.9722 243.928C94.623 244.52 94.043 245.112 93.9543 245.745C93.3328 250.189 92.818 254.652 92.2498 259.102C92.1027 259.676 91.9189 260.239 91.6994 260.789C91.2615 259.682 90.9478 259.061 90.7703 258.422C89.5866 253.805 88.403 249.172 87.2193 244.549C87.1821 244.439 87.1386 244.33 87.0891 244.224C85.9055 241.229 85.7102 241.2 83.2896 243.259C80.3305 245.792 77.3004 248.266 74.2881 250.758C74.0073 250.944 73.7102 251.105 73.4003 251.237L72.9742 250.941C73.9093 249.272 74.874 247.615 75.7617 245.916C76.0273 245.295 76.2372 244.652 76.389 243.993C75.7439 243.887 74.7201 243.46 74.513 243.715C72.6665 245.946 69.9559 245.982 67.5236 246.42C63.8489 247.056 60.1394 247.471 56.4151 247.662C54.3358 247.694 52.2641 247.407 50.272 246.81C53.1282 244.603 56.5379 243.227 60.1258 242.833C63.5939 242.395 67.2276 243.289 70.7786 243.597L71.0449 242.857C70.5182 242.579 70.0092 242.111 69.4647 242.052C67.4626 241.936 65.4688 241.705 63.4933 241.359L70.7075 238.329C69.6659 236.613 68.4764 236.743 66.8903 237.057C64.8604 237.459 62.712 237.335 60.6229 237.288C58.7041 237.253 56.7964 236.987 54.9414 236.495C59.1848 236.104 63.4282 235.684 67.6774 235.347C68.719 235.264 69.7843 235.518 70.82 235.447C71.2875 235.418 71.7255 234.974 72.1753 234.713C71.7255 234.441 71.2994 233.985 70.82 233.92C69.2102 233.695 67.5827 233.63 65.9671 233.459C65.5062 233.327 65.0616 233.145 64.6414 232.914C67.4407 231.535 70.6602 233.104 73.2109 230.724C68.5888 229.541 69.0682 225.907 68.6007 222.386C70.8496 224.019 72.844 225.487 74.8562 226.925C75.2462 227.266 75.7133 227.508 76.2174 227.629C77.1406 227.73 77.5372 227.44 77.2472 226.286C76.4186 223.007 75.7794 219.675 74.9746 215.923C77.7265 217.201 80.1293 218.29 82.4907 219.427C84.0886 220.214 85.6096 221.161 87.2253 221.948C87.5212 222.09 88.0183 221.829 88.4089 221.758C88.2373 221.391 88.1603 220.847 87.8763 220.693C85.8173 219.494 83.6822 218.43 81.4846 217.509C80.9006 217.338 80.3777 217.004 79.9772 216.546C79.5767 216.087 79.3153 215.524 79.2238 214.923C78.8088 212.521 78.5204 210.099 78.3598 207.667C77.9041 200.334 79.4014 193.156 80.3483 185.941C80.4713 185.551 80.638 185.176 80.8454 184.823C81.6385 187.007 82.3427 188.835 82.9701 190.688C83.8696 193.339 84.6568 196.014 85.6037 198.666C86.0061 199.796 86.0712 200.707 85.3314 201.761C84.5657 203.006 83.876 204.297 83.266 205.625C85.6333 205.318 85.2486 203.098 86.6808 202.228C87.0477 203.382 87.3436 204.454 87.7283 205.495C88.3201 207.028 88.9119 208.549 89.5689 210.04C89.7819 210.52 90.2435 211.177 90.6341 211.224C91.0247 211.271 91.6225 210.697 91.8888 210.253C93.3565 207.809 94.7059 205.3 96.1736 202.856C97.1738 201.187 98.2982 199.589 99.6712 197.5C100.074 199.21 100.346 200.382 100.618 201.56L101.34 201.37C101.157 199.902 100.914 198.411 100.813 196.967C100.766 196.263 100.76 195.363 101.139 194.854C104.577 190.22 108.105 185.646 111.62 181.065C111.774 180.864 112.028 180.733 112.703 180.722C112.425 182.633 112.111 184.539 111.869 186.456C111.348 190.451 110.94 194.458 110.33 198.435C110.087 200.003 109.442 201.506 108.945 203.169C109.114 203.909 109.196 204.666 109.188 205.424C109.046 206.933 108.655 208.383 108.489 209.922C108.442 210.301 108.85 210.733 109.046 211.141C109.466 210.928 110.028 210.816 110.277 210.478C110.46 210.243 110.583 209.966 110.635 209.672C110.687 209.378 110.665 209.075 110.573 208.792C110.356 207.867 110.225 206.924 110.182 205.975C110.283 203.069 111.543 200.914 114.082 199.228C118.817 196.067 123.368 192.588 128.025 189.291C129.105 188.625 130.221 188.021 131.369 187.48C131.326 188.021 131.222 188.554 131.061 189.072C128.943 193.28 126.788 197.476 124.646 201.672C124.629 201.728 124.601 201.781 124.563 201.826C121.693 204.306 121.64 208.336 119.426 211.194C118.965 211.786 119.071 212.828 118.905 213.739C124.362 210.579 129.529 207.655 134.624 204.607C139.897 201.531 145.58 199.217 151.503 197.736C151.218 198.293 150.897 198.83 150.544 199.346C146.468 204.349 142.387 209.352 138.299 214.355C137.784 214.988 137.116 215.491 136.636 216.13C136.441 216.571 136.329 217.045 136.305 217.527C136.784 217.568 137.341 217.793 137.725 217.622C142.697 215.384 148.058 214.804 153.338 213.887C154.091 213.761 154.863 213.793 155.604 213.982C151.89 217.049 147.66 219.43 143.111 221.013L143.217 221.676C147.36 221.735 151.592 221.451 155.705 221.936C159.818 222.421 163.925 223.711 167.991 224.848C159.658 226.339 151.154 225.108 142.827 227.286L164.706 234.193Z" fill="#4D3826"/>
<path d="M62.1921 219.754C59.9136 218.641 59.0141 216.333 57.7476 214.339C59.4224 215.937 62.5472 216.274 62.1921 219.754Z" fill="#4D3826"/>
<path d="M142.81 227.306L164.707 234.195C164.707 234.431 164.654 234.668 164.63 234.899C161.961 235.112 159.304 235.289 156.623 235.538C153.942 235.787 151.516 233.763 148.817 234.627C148.74 234.863 148.657 235.094 148.58 235.331L164.299 242.776L164.21 243.273H155.049C155.57 245.185 157.736 243.954 159.286 245.22C157.659 245.22 156.41 245.457 155.286 245.173C153.096 244.617 150.983 243.753 148.817 243.066C148.345 242.976 147.864 242.947 147.385 242.977C147.54 243.468 147.772 243.932 148.071 244.35C149.788 246.09 151.563 247.771 153.321 249.469L152.954 250.061C151.178 249.801 149.361 249.754 147.687 249.221C144.816 248.321 142.047 247.096 139.224 246.055C138.746 245.948 138.257 245.904 137.768 245.924C137.769 246.461 137.87 246.993 138.064 247.493C138.673 248.349 139.329 249.171 140.028 249.955L139.709 250.381C138.935 250.251 138.175 250.053 137.436 249.789C134.797 248.576 132.205 247.262 129.565 246.061C128.963 245.888 128.339 245.806 127.713 245.818C127.837 246.504 127.713 247.404 128.127 247.842C131.24 251.298 131.601 255.926 133.412 259.927C133.524 260.354 133.597 260.789 133.631 261.229C132.572 260.466 131.808 259.951 131.092 259.382C126.357 255.619 121.623 251.843 116.888 248.055C116.166 247.463 115.592 246.694 114.835 246.173C114.213 245.845 113.553 245.597 112.87 245.433C112.645 246.103 112.473 246.79 112.355 247.487C112.314 247.943 112.574 248.422 112.402 249.043C111.071 247.86 109.775 246.676 108.396 245.558C108.19 245.377 107.949 245.243 107.688 245.164C107.427 245.084 107.151 245.061 106.881 245.096C106.531 245.232 106.289 245.996 106.23 246.499C105.969 251.103 105.768 255.707 105.543 260.318C105.518 260.592 105.479 260.864 105.425 261.134L105.058 261.235C103.511 258.315 101.963 255.398 100.412 252.482C99.1041 250.026 97.808 247.558 96.4172 245.143C96.1272 244.628 95.4644 244.327 94.9732 243.93C94.624 244.522 94.044 245.114 93.9552 245.747C93.3338 250.192 92.8189 254.654 92.2508 259.104C92.1037 259.678 91.9198 260.241 91.7004 260.791C91.2624 259.684 90.9488 259.063 90.7712 258.424C89.5876 253.808 88.4039 249.174 87.2203 244.551C87.1831 244.441 87.1396 244.332 87.0901 244.226C85.9065 241.231 85.7112 241.202 83.2906 243.261C80.3315 245.794 77.3014 248.268 74.289 250.76C74.0083 250.946 73.7112 251.107 73.4013 251.239L72.9752 250.943C73.9103 249.274 74.8749 247.617 75.7627 245.919C76.0282 245.297 76.2382 244.654 76.39 243.995C75.7449 243.889 74.7211 243.463 74.5139 243.717C72.6674 245.948 69.9569 245.984 67.5245 246.422C63.8499 247.058 60.1404 247.473 56.416 247.664C54.3368 247.696 52.265 247.409 50.2729 246.812C53.1292 244.605 56.5388 243.229 60.1268 242.835C63.5948 242.397 67.2286 243.291 70.7795 243.599L71.0459 242.859C70.5191 242.581 70.0102 242.113 69.4657 242.054C67.4636 241.938 65.4698 241.707 63.4942 241.362L70.7085 238.331C69.6669 236.615 68.4773 236.745 66.8913 237.059C64.8613 237.461 62.713 237.337 60.6239 237.29C58.705 237.255 56.7974 236.989 54.9424 236.497C59.1858 236.106 63.4291 235.686 67.6784 235.349C68.72 235.266 69.7853 235.52 70.821 235.449C71.2885 235.42 71.7264 234.976 72.1762 234.715C71.7264 234.443 71.3003 233.987 70.821 233.922C69.2112 233.697 67.5837 233.632 65.968 233.461C65.5072 233.329 65.0625 233.147 64.6423 232.916C67.4417 231.537 70.6612 233.106 73.2119 230.727C68.5898 229.543 69.0692 225.909 68.6016 222.388C70.8505 224.021 72.845 225.489 74.8572 226.927C75.2472 227.269 75.7143 227.51 76.2184 227.631C77.1416 227.732 77.5381 227.442 77.2481 226.288C76.4196 223.009 75.7804 219.677 74.9755 215.925C77.7275 217.203 80.1303 218.292 82.4917 219.429C84.0896 220.216 85.6106 221.163 87.2262 221.95C87.5221 222.092 88.0193 221.831 88.4099 221.76C88.2382 221.394 88.1613 220.849 87.8772 220.695C85.8182 219.496 83.6831 218.432 81.4856 217.511C80.9016 217.34 80.3786 217.006 79.9782 216.548C79.5777 216.089 79.3163 215.527 79.2248 214.925C78.8098 212.523 78.5214 210.101 78.3608 207.669C77.9051 200.337 79.4024 193.158 80.3493 185.943C80.4722 185.553 80.639 185.178 80.8464 184.825C81.6394 187.009 82.3437 188.837 82.971 190.69C83.8706 193.341 84.6577 196.016 85.6046 198.668C86.0071 199.798 86.0722 200.709 85.3324 201.763C84.5667 203.008 83.877 204.299 83.2669 205.627C85.6342 205.32 85.2495 203.1 86.6818 202.23C87.0487 203.384 87.3446 204.456 87.7293 205.497C88.3211 207.03 88.9129 208.551 89.5698 210.042C89.7829 210.522 90.2445 211.179 90.6351 211.226C91.0257 211.273 91.6235 210.699 91.8898 210.255C93.3575 207.811 94.7068 205.302 96.1746 202.858C97.1747 201.189 98.2992 199.591 99.6722 197.502C100.075 199.212 100.347 200.384 100.619 201.562L101.341 201.372C101.158 199.905 100.915 198.413 100.814 196.969C100.767 196.265 100.761 195.365 101.14 194.856C104.578 190.222 108.106 185.648 111.621 181.067C111.775 180.866 112.029 180.735 112.704 180.724C112.426 182.635 112.112 184.541 111.87 186.458C111.349 190.453 110.94 194.46 110.331 198.437C110.088 200.005 109.443 201.508 108.946 203.171C109.115 203.911 109.197 204.668 109.189 205.426C109.047 206.935 108.656 208.385 108.49 209.924C108.443 210.303 108.851 210.735 109.047 211.143C109.467 210.93 110.029 210.818 110.278 210.48C110.461 210.245 110.584 209.968 110.636 209.674C110.688 209.38 110.666 209.078 110.574 208.794C110.357 207.869 110.226 206.926 110.183 205.977C110.284 203.071 111.544 200.917 114.083 199.23C118.818 196.07 123.369 192.59 128.026 189.293C129.106 188.627 130.222 188.023 131.37 187.482C131.327 188.023 131.223 188.557 131.062 189.074C128.944 193.282 126.789 197.478 124.647 201.674C124.63 201.731 124.602 201.783 124.564 201.828C121.694 204.308 121.641 208.338 119.427 211.196C118.966 211.788 119.072 212.83 118.906 213.741C124.363 210.581 129.53 207.657 134.625 204.61C139.898 201.533 145.581 199.22 151.504 197.738C151.219 198.295 150.898 198.832 150.545 199.348C146.469 204.351 142.388 209.354 138.3 214.357C137.785 214.99 137.117 215.493 136.637 216.132C136.442 216.574 136.33 217.047 136.306 217.529C136.785 217.57 137.342 217.795 137.726 217.624C142.698 215.387 148.059 214.807 153.339 213.889C154.092 213.763 154.864 213.795 155.605 213.984C151.891 217.051 147.661 219.432 143.112 221.015L143.218 221.678C147.361 221.737 151.593 221.453 155.706 221.938C159.819 222.423 163.926 223.713 167.992 224.85C159.641 226.359 151.137 225.128 142.81 227.306Z" fill="#4D3826"/>
<path d="M97.6773 198.449C95.31 201.905 93.0375 205.403 90.7234 208.888L90.1316 208.959C89.232 206.249 88.0839 203.586 87.569 200.804C87.3796 199.78 88.5988 198.437 89.3445 197.324C91.5224 194.087 93.7713 190.903 96.0084 187.707C96.3459 187.345 96.7142 187.012 97.1092 186.713C97.6418 188.956 97.9141 191.045 98.642 192.957C99.4587 195.111 98.8432 196.75 97.6773 198.449Z" fill="#4D3826"/>
<path d="M67.3518 238.764C64.5939 239.586 62.1201 241.504 59.0663 241.172C52.87 240.498 46.6381 239.758 40.7199 237.858C39.3173 237.414 37.962 236.805 36.5771 236.266C36.5771 236.059 36.6304 235.846 36.66 235.633C44.9988 234.26 53.4322 233.792 61.8538 233.171C62.5462 233.123 63.286 233.674 64.008 233.94L63.937 234.532C60.1494 234.798 56.3676 235.153 52.58 235.307C50.8045 235.378 48.9817 235.017 47.1767 234.976C46.7328 234.976 46.2712 235.438 45.8214 235.686C46.1499 236.023 46.5293 236.307 46.9458 236.526C52.5149 238.337 58.3561 237.923 64.0672 238.568C65.1266 238.693 66.2155 238.574 67.3518 238.764Z" fill="#4D3826"/>
<path d="M139.655 192.329C139.258 193.222 138.915 194.146 138.471 195.004C137.039 197.667 135.571 200.33 134.103 202.952C133.947 203.322 133.701 203.648 133.387 203.899C129.41 206.154 125.409 208.373 120.959 210.841C123.013 206.343 124.883 202.396 128.73 199.744C131.973 197.507 135.056 195.01 138.199 192.672C138.407 192.521 138.642 192.413 138.892 192.355C139.142 192.296 139.401 192.287 139.655 192.329Z" fill="#4D3826"/>
<path d="M66.542 228.952C58.9194 227.218 51.6992 224.472 44.3369 222.158C44.3783 221.945 44.4257 221.738 44.473 221.525L50.119 221.205C53.0781 221.039 56.0372 220.897 58.9963 220.696C59.5642 220.604 60.1466 220.69 60.6637 220.942C61.1808 221.194 61.6072 221.6 61.8844 222.105C63.3758 224.383 65.0921 226.508 66.542 228.952Z" fill="#4D3826"/>
<path d="M75.3647 225.342C69.2394 222.862 65.724 216.802 66.807 210.7C69.1328 212.233 71.3344 213.659 73.5301 215.145C73.6276 215.208 73.6991 215.305 73.7313 215.417C74.2698 218.642 74.7966 221.874 75.3647 225.342Z" fill="#4D3826"/>
<path d="M73.5729 212.71L73.206 213.184C71.9809 212.402 70.7617 211.598 69.513 210.846C68.5242 210.24 67.5049 209.685 66.4592 209.183C66.0342 209.075 65.593 209.044 65.1572 209.094C65.0905 209.513 65.0766 209.938 65.1158 210.361C65.7431 213.178 66.4059 215.983 67.1457 219.191C64.524 217.895 62.6597 216.717 62.5177 213.77C62.3401 209.964 61.8371 206.176 61.4761 202.383L62.0679 202.176L73.5729 212.71Z" fill="#4D3826"/>
<path d="M68.2696 228.359C64.9081 225.814 63.6889 222.636 63.7954 218.754C68.4649 220.458 67.7902 224.489 68.2696 228.359Z" fill="#4D3826"/>
<path d="M64.7728 231.508C63.8318 231.632 62.7961 232.1 61.9735 231.828C58.6593 230.804 55.4043 229.561 52.1315 228.389C52.0427 228.354 51.9835 228.218 51.6758 227.851C54.1141 228.365 56.2742 228.774 58.4048 229.289C60.5353 229.804 62.6304 230.413 64.7373 230.981L64.7728 231.508Z" fill="#4D3826"/>
<path d="M70.2402 214.427L70.8321 200.815L79.1175 204.958L80.3012 218.57L70.8321 215.019" fill="#4D3826"/>
</g>
</svg>
