<svg width="330" height="330" viewBox="0 0 330 330" fill="none" xmlns="http://www.w3.org/2000/svg">
<mask id="mask0" mask-type="alpha" maskUnits="userSpaceOnUse" x="0" y="0" width="330" height="330">
<path fill-rule="evenodd" clip-rule="evenodd" d="M234.079 259.96C221.852 268.411 209.024 277.869 194.218 279.077C179.427 280.284 166.241 270.405 151.889 266.667C138.994 263.308 125.859 262.18 113.215 257.979C99.1898 253.319 82.7086 251.487 72.919 240.43C63.1565 229.403 65.5281 212.256 60.4826 198.418C55.3597 184.368 43.6829 172.565 42.7301 157.634C41.7726 142.629 47.0849 127.354 55.1362 114.634C62.975 102.25 77.4785 96.1861 88.0527 86.0321C98.3563 76.138 104.161 61.0061 117.157 55.0776C130.152 49.1496 145.318 53.0027 159.587 53.4006C173.108 53.7777 186.577 53.8086 199.617 57.3773C212.913 61.016 225.46 66.7774 236.84 74.5423C248.642 82.5952 259.268 92.2363 267.654 103.8C276.416 115.882 284.478 129.035 287.027 143.746C289.586 158.523 285.818 173.541 282.261 188.123C278.734 202.582 274.438 216.998 266.143 229.366C257.845 241.738 246.336 251.489 234.079 259.96Z" fill="white"/>
</mask>
<g mask="url(#mask0)">
<rect x="15.1782" y="27.0635" width="284.255" height="275.433" fill="#E8F4EF"/>
<path d="M186.469 131.43C186.122 136.974 185.862 142.527 185.569 148.075C185.184 155.335 184.732 162.599 184.448 169.862C184.23 175.323 184.264 180.796 184.126 186.26C183.917 194.422 183.679 202.586 183.414 210.751C183.285 214.935 183.105 219.119 182.963 223.303C182.937 223.824 182.958 224.347 183.025 224.864C183.327 227.006 182.423 227.73 180.239 227.517C178.054 227.304 175.778 227.408 173.544 227.375C171.033 227.341 171.033 227.341 170.799 224.818C170.724 223.981 170.611 223.144 170.506 222.203L178.205 221.764C178.205 221.575 178.205 221.387 178.205 221.199C177.188 220.182 175.887 220.634 174.678 220.713C173.741 220.776 172.803 220.943 171.87 221.098C170.937 221.253 170.309 221.056 170.402 219.877C170.406 219.223 170.354 218.571 170.247 217.927L173.293 216.956L173.167 216.37C172.581 216.502 171.985 216.584 171.385 216.617C170.951 216.548 170.529 216.42 170.13 216.236C170.461 216.013 170.81 215.816 171.171 215.646C171.669 215.454 172.201 215.337 172.72 215.19C172.72 215.044 172.699 214.897 172.69 214.747L170.142 214.491C170.142 214.04 170.1 213.634 170.079 213.211L173.029 212.977V212.437L170.234 212.069V208.5H178.59C178.423 207.521 178.08 207.244 177.138 207.286C174.845 207.399 172.535 207.324 170.176 207.324V205.123L172.623 204.658V204.152L170.159 203.859C170.13 203.441 170.1 203.022 170.067 202.525L173.029 202.692L173.117 202.219C172.301 201.441 171.167 201.738 169.607 201.646C170.084 201.198 170.297 200.809 170.586 200.75C171.544 200.52 172.527 200.395 173.515 200.232L173.443 199.55L170.071 199.738V195.641C171.581 195.533 173.163 195.457 174.741 195.298C176.176 195.156 177.67 196.357 179.448 195.139C176.163 193.993 173.171 194.227 170.088 194.616V192.713L172.619 192.06C171.895 190.938 169.581 192.637 170.079 190.265L172.908 189.788C172.908 189.616 172.908 189.445 172.908 189.273C172.489 189.227 172.104 189.156 171.699 189.135C171.293 189.114 170.766 189.135 170.205 189.135V187.687L173.36 187.143C173.335 186.959 173.314 186.771 173.293 186.587L170.201 186.415C170.297 184.507 170.427 182.716 170.464 180.921C170.464 179.93 171.012 179.729 171.833 179.754C173.958 179.825 176.084 179.9 178.209 179.938C178.558 179.9 178.9 179.815 179.226 179.687L179.188 179.218C176.506 177.783 173.54 179.093 170.703 178.578V175.591H173.611L173.657 175.172L170.862 174.691V172.277H173.791C173.088 170.804 171.845 171.833 171.008 171.231V169.557H173.912C173.937 169.381 173.958 169.21 173.983 169.034L171.159 168.578C171.188 168.632 171.109 168.553 171.113 168.473C171.238 164.708 170.694 165.423 174.331 165.247C175.556 165.189 176.791 165.39 178.021 165.431C178.585 165.466 179.145 165.32 179.619 165.013C177.029 163.875 174.276 164.36 171.535 164.281V161.599L173.853 161.289C173.853 161.151 173.874 161.013 173.887 160.871L171.757 160.385V158.795H174.556L174.644 158.255L171.715 157.645V157.193L175.013 156.724L174.992 156.214L171.954 155.845C171.996 155.092 172.038 154.402 172.071 153.849C174.724 153.849 177.272 153.87 179.816 153.829C180.151 153.829 180.485 153.506 180.82 153.335C180.515 153.042 180.222 152.498 179.9 152.498C178.577 152.431 177.247 152.531 175.916 152.548C174.741 152.548 173.569 152.548 172.243 152.548C172.351 151.293 172.435 150.322 172.535 149.155H175.092C175.092 148.987 175.13 148.82 175.146 148.653L172.607 148.18C172.644 147.761 172.686 147.217 172.728 146.69L175.912 146.515C175.912 146.309 175.912 146.096 175.933 145.899L172.946 145.519V144.205L176.008 143.786L175.971 143.196C175.352 143.201 174.734 143.159 174.121 143.071C173.749 142.991 173.1 142.573 173.13 142.481C173.293 141.958 173.59 141.092 173.9 141.067C175.782 140.92 177.665 140.979 179.569 140.949C180.034 140.958 180.492 140.829 180.883 140.577C178.502 138.778 175.996 139.912 173.469 140.096V137.544L176.1 137.769L176.234 137.159L173.548 136.401C174.146 134.364 176.205 136.477 177.209 134.958L173.904 134.439V132.974C175.025 132.824 176.226 133.811 177.389 132.476L173.971 131.849C174.012 131.276 174.05 130.74 174.084 130.246H181.795C181.833 130.07 181.875 129.895 181.912 129.715C181.337 129.526 180.746 129.386 180.147 129.296C178.473 129.196 176.812 129.146 175.163 129.146C174.326 129.146 174.075 128.778 174.18 128.008C174.305 127.075 174.402 126.137 174.54 124.978L187.159 126.782C186.912 128.359 186.565 129.886 186.469 131.43ZM186.594 125.413C182.653 124.895 178.703 124.455 174.757 123.957C174.195 123.816 173.645 123.628 173.113 123.397C179.177 121.035 185.863 120.797 192.08 122.723C190.406 124.351 188.95 125.723 186.594 125.413ZM208.298 228.492C208.298 228.316 208.319 228.14 208.327 227.965C209.679 227.965 211.03 227.998 212.382 227.965C215.03 227.881 217.687 227.835 220.332 227.63C222.658 227.45 223.604 229.007 224.901 230.818C219.321 230.413 213.775 229.636 208.298 228.492ZM260.107 213.031C259.078 214.529 258.195 216.132 257.245 217.688L256.655 217.517L259.613 208.265C261.438 209.96 261.212 211.429 260.107 213.031ZM284.71 179.616C282.618 177.524 280.375 175.545 278.434 173.34C276.145 170.745 274.082 167.95 271.94 165.231C271.484 164.649 271.103 164.051 270.07 164.783C270.601 165.528 271.103 166.239 271.61 166.942C274.505 170.938 276.003 175.566 277.363 180.214C279.091 186.135 280.593 192.127 282.187 198.089C282.209 198.288 282.209 198.489 282.187 198.688C279.957 197.759 278.488 196.135 277.371 194.227C275.48 190.993 273.735 187.671 271.932 184.386C271.789 184.082 271.603 183.8 271.379 183.549C271.241 183.419 270.856 183.323 270.781 183.403C270.63 183.605 270.54 183.846 270.522 184.097C270.522 184.219 270.61 184.365 270.676 184.491C273.626 189.775 275.149 195.579 276.652 201.37C277.551 204.855 278.162 208.42 278.806 211.964C278.991 212.998 278.836 214.098 278.836 215.546C278.326 215.064 277.847 214.551 277.401 214.01C275.003 210.596 272.626 207.161 270.245 203.734C270.15 203.627 270.074 203.504 270.024 203.37C269.689 201.566 268.802 201.612 267.655 202.633C268.372 208.112 269.088 213.599 269.802 219.094L269.333 219.241C266.697 216.567 265.241 213.098 263.279 209.977L263.697 209.939C263.722 209.29 263.752 208.642 263.777 207.998L261.823 208.24C261.526 207.462 260.149 206.696 260.986 205.119C261.111 204.884 260.877 204.458 260.806 204.119C260.422 204.19 260.054 204.332 259.722 204.537C258.563 205.579 257.471 206.696 256.337 207.759C256.114 207.913 255.87 208.034 255.613 208.119L255.245 207.901L264.45 184.595H264.672C264.601 185.691 264.521 186.783 264.455 187.88C264.19 192.468 263.927 197.06 263.668 201.654C263.618 201.887 263.628 202.129 263.697 202.357C263.881 202.637 264.096 202.895 264.337 203.127C264.555 202.826 264.998 202.483 264.957 202.223C264.12 197.202 264.923 192.21 265.475 187.223C265.653 185.145 265.704 183.059 265.63 180.976C265.63 180.557 265.166 180.139 264.915 179.7C264.585 180.042 264.296 180.421 264.053 180.829C263.028 183.164 262.044 185.52 261.049 187.867L260.45 187.796C260.45 186.189 260.367 184.574 260.45 182.972C260.735 178.285 261.115 173.607 261.408 168.921C261.526 167.026 261.546 165.122 261.53 163.222C261.53 162.829 261.166 162.435 260.969 162.046C260.664 162.343 260.241 162.586 260.069 162.95C259.053 165.08 258.099 167.235 257.14 169.385L256.751 169.327C256.645 168.423 256.595 167.513 256.601 166.603C256.906 162.105 257.312 157.615 257.588 153.113C257.768 150.184 257.81 147.255 257.848 144.326C257.848 143.962 257.429 143.59 257.233 143.222C256.94 143.556 256.521 143.841 256.371 144.226C255.475 146.569 254.643 148.933 253.517 151.305C253.396 150.331 253.212 149.36 253.161 148.376C252.994 144.866 252.86 141.36 252.743 137.849C252.668 135.728 252.701 133.598 252.576 131.476C252.458 129.506 251.881 129.225 250.182 130.129C249.764 130.347 249.345 130.548 248.508 130.916C248.697 127.836 248.839 125.15 249.036 122.464C249.207 120.146 249.454 117.827 249.626 115.509C249.589 115.112 249.488 114.724 249.329 114.359C248.942 114.447 248.569 114.588 248.22 114.777C247.462 115.338 246.764 115.978 245.638 116.924V107.329L246.475 106.731C245.952 106.097 245.384 105.501 244.776 104.948C244.09 104.404 243.274 104.024 242.596 103.337C249.206 104.069 255.683 105.71 261.844 108.216H251.559C251.525 108.375 251.488 108.53 251.454 108.689C259.793 110.915 266.383 115.865 272.643 122.079C268.605 121.154 264.789 120.823 261.505 118.652C260.669 118.104 259.797 117.614 258.894 117.187C258.634 117.062 258.228 117.237 257.894 117.271C258.053 117.568 258.145 118.032 258.387 118.133C262.818 119.961 265.534 123.652 268.329 127.242C271.04 130.723 273.672 134.267 276.191 138.004C274.886 137.46 273.572 136.937 272.279 136.364C270.986 135.79 269.656 134.979 268.262 134.548C267.007 134.158 265.998 132.949 264.463 133.292C272.882 140.535 277.384 150.448 283.417 159.293L283.087 159.636C282.212 159.071 281.313 158.54 280.463 157.963C276.091 154.896 272.304 151.172 268.605 147.347C268.175 146.941 267.607 146.714 267.015 146.711C276.062 156.021 280.786 167.578 285.007 179.407L284.71 179.616ZM286.61 180.905C285.258 177.411 283.907 173.917 282.468 170.444C281.212 167.427 279.957 164.39 278.476 161.481C277.129 158.85 275.472 156.381 273.773 153.531C275.363 154.841 276.66 155.996 278.049 157.029C279.949 158.435 281.907 159.758 283.869 161.076C284.006 161.148 284.158 161.186 284.313 161.186C284.467 161.186 284.62 161.148 284.756 161.076C284.838 160.949 284.887 160.804 284.899 160.654C284.912 160.503 284.887 160.352 284.828 160.214C283.802 158.339 282.781 156.448 281.656 154.644C279.878 151.787 278.116 148.904 276.162 146.163C273.748 142.774 271.141 139.518 268.63 136.205C268.413 135.92 268.178 135.648 267.953 135.368C268.028 135.259 268.099 135.146 268.17 135.033L278.467 140.217C278.936 139.489 278.932 138.845 278.099 138.125C277.298 137.387 276.569 136.572 275.923 135.694C272.492 131.338 269.086 126.957 265.664 122.589C265.27 122.087 264.827 121.61 264.429 121.12C264.48 121.037 264.53 120.949 264.584 120.865L276.145 124.213L276.363 123.874C270.145 118.53 264.484 112.463 256.697 109.2H266.321C266.226 108.961 266.084 108.743 265.904 108.56C265.723 108.377 265.508 108.231 265.27 108.133C260.705 106.681 256.166 105.12 251.538 103.89C248.308 103.053 244.952 102.635 241.646 102.061C241.127 101.973 240.529 102.3 240.023 102.183C236.604 101.409 233.228 100.446 229.788 99.7934C227.286 99.2621 224.735 99.0012 222.177 99.0152C218.775 99.1363 215.386 99.4971 212.035 100.095C210.361 100.383 208.742 101.208 207.202 101.986C205.11 103.04 203.273 104.743 200.641 104.003C200.432 103.944 200.176 104.07 199.938 104.095C197.155 104.379 194.377 104.693 191.57 104.932C190.39 105.032 189.184 104.873 188.013 105.024C187.752 105.099 187.509 105.225 187.297 105.394C187.085 105.564 186.909 105.773 186.779 106.011C185.862 107.589 187.005 109.183 188.649 109.995C190.507 110.907 192.616 111.321 194.444 112.275C197.825 114.049 201.139 115.995 204.369 118.016C205.206 118.543 206.018 119.405 205.75 120.748C205.331 122.886 205.562 123.095 207.679 122.869C209.244 127.393 210.817 131.92 212.415 136.531C211.742 136.581 211.16 136.577 210.612 136.669C208.888 136.941 207.62 136.518 206.817 134.782C206.27 133.787 205.584 132.875 204.779 132.075C203.202 130.309 201.515 128.644 199.959 126.861C197.67 124.234 195.436 121.581 191.54 121.501C191.305 121.465 191.075 121.404 190.854 121.317C189.39 120.949 187.925 120.338 186.456 120.258C182.134 120.028 177.954 121.028 173.845 122.263C173.109 122.48 172.51 123.167 171.849 123.639C172.502 124.058 173.163 124.476 173.812 124.895C173.879 124.941 173.895 125.058 173.845 124.953C173.619 126.334 173.343 127.539 173.234 128.757C172.569 136.33 171.87 143.904 171.326 151.485C170.699 160.159 170.025 168.837 169.724 177.528C169.33 189.018 169.171 200.516 169.13 212.014C169.109 217.035 169.632 222.057 169.878 227.078C169.929 228.161 170.464 228.387 171.439 228.358C175.397 228.237 179.356 228.136 183.314 228.115C184.26 228.115 184.461 227.843 184.36 226.96C184.128 225.374 184.007 223.773 183.996 222.169C184.071 218.14 184.306 214.119 184.414 210.09C184.569 204.822 184.632 199.55 184.833 194.282C184.979 189.968 185.31 185.658 185.444 181.34C185.678 173.934 185.783 166.523 186.017 159.117C186.173 154.18 186.402 149.245 186.703 144.314C187.025 139.15 187.469 133.991 187.908 128.832C187.963 128.196 188.327 127.577 188.544 126.966L188.917 127.041C188.962 127.487 188.984 127.936 188.984 128.384C188.929 129.472 188.846 130.56 188.754 131.644C188.381 135.887 189.31 139.975 190.39 144.012C190.758 145.389 191.352 147.017 192.385 147.849C196.515 151.163 200.335 154.962 205.842 156.218C208.951 156.925 211.938 158.055 215.198 157.398C215.699 157.353 216.203 157.353 216.704 157.398C216.704 159.887 217.001 162.247 216.65 164.511C215.712 170.486 214.83 176.444 215.453 182.503C215.846 186.323 216.01 190.206 216.855 193.93C217.315 195.943 217.231 198.298 218.926 200.006C219.453 200.541 219.441 201.608 219.959 202.156C222.34 204.667 224.851 207.056 227.253 209.546C227.897 210.204 228.409 210.98 228.763 211.83C229.516 213.722 230.177 215.655 230.755 217.609C231.395 219.776 231.943 221.973 232.454 224.174C232.65 225.011 232.387 225.584 231.286 225.621C229.449 225.68 227.612 225.889 225.78 226.082C223.771 226.295 221.78 226.659 219.767 226.772C216.641 226.948 213.491 226.902 210.373 227.09C208.926 227.178 207.499 227.596 206.068 227.881C205.747 227.958 205.43 228.052 205.118 228.161L205.516 228.747C207.051 229.165 208.57 229.693 210.118 229.977C212.813 230.463 215.558 230.751 218.24 231.207C221.047 231.68 223.943 231.433 226.679 232.668C228.181 233.35 230.027 233.325 231.7 233.605C234.943 234.149 238.203 234.626 241.462 233.889C242.747 233.601 243.927 232.81 245.228 232.609C247.981 232.191 250.768 231.877 253.55 231.718C255.868 231.584 258.048 229.538 257.986 227.437C257.948 226.253 257.986 225.065 258.011 223.877C258.074 221.496 257.559 219.056 258.998 216.826C260.107 215.098 261.032 213.249 262.187 211.194C263.086 212.332 263.835 213.215 264.513 214.157C266.061 216.312 267.542 218.517 269.116 220.646C269.388 221.01 270.024 221.102 270.492 221.32C270.643 220.818 270.978 220.291 270.911 219.818C270.321 215.345 269.655 210.88 269.036 206.428C268.923 205.633 268.953 204.817 268.902 203.78C273.049 208.136 275.099 213.667 279.543 217.73C279.714 217.399 279.882 217.236 279.882 217.065C280.024 208.458 277.308 200.395 275.246 192.148C275.551 192.713 275.84 193.29 276.162 193.846C277.664 196.441 279.585 198.629 282.292 200.018C282.614 200.155 282.976 200.17 283.309 200.06C283.422 200.018 283.447 199.487 283.388 199.202C283.112 197.855 282.882 196.495 282.484 195.185C280.083 187.294 277.639 179.419 275.212 171.536C275.133 171.273 275.082 171.005 274.986 170.607C275.134 170.682 275.274 170.77 275.405 170.871C278.752 174.478 282.099 178.097 285.48 181.683C285.74 181.959 286.259 181.993 286.66 182.135C286.713 181.725 286.696 181.309 286.61 180.905ZM259.27 195.784C257.823 199.395 256.274 202.96 254.776 206.55C254.631 206.85 254.532 207.17 254.484 207.5C254.433 208.127 254.454 208.755 254.446 209.391C255.14 209.198 255.91 209.148 256.5 208.788C257.337 208.282 258.028 207.554 259.011 207.018C258.287 209.136 257.458 211.224 256.869 213.374C256.337 215.328 256.061 217.349 255.689 219.345C255.655 219.512 255.709 219.814 255.814 219.872C257.22 220.596 256.726 221.918 256.751 223.015C256.793 224.764 256.718 226.517 256.609 228.266C256.555 229.132 256.149 229.789 255.086 229.613C254.998 229.613 254.86 229.571 254.814 229.613C252.567 232.007 249.5 230.32 246.927 231.153C246.638 231.249 246.115 230.634 245.713 230.354C244.896 231.307 243.861 232.049 242.695 232.515C241.529 232.982 240.268 233.159 239.019 233.032C235.027 232.73 231.069 231.94 227.11 231.304C226.914 231.24 226.733 231.137 226.577 231.001C226.422 230.865 226.296 230.699 226.207 230.513C225.692 229.496 224.604 228.596 225.399 227.224C227.395 227.052 229.424 226.885 231.449 226.701C233.475 226.517 233.638 226.224 233.7 224.253C233.784 221.383 232.445 218.973 231.416 216.445C230.926 215.224 230.466 213.989 229.993 212.759L230.244 212.316C230.822 212.496 231.52 212.525 231.951 212.88C234.341 214.872 237.111 216.061 240.048 216.927C240.401 217.067 240.777 217.139 241.157 217.14C241.54 217.047 241.908 216.899 242.249 216.701C241.989 216.345 241.797 215.784 241.458 215.68C240.758 215.533 240.047 215.45 239.332 215.433C238.869 215.395 238.412 215.3 237.973 215.148C235.68 214.228 233.466 213.257 231.977 211.056C231.416 210.219 230.303 209.709 229.341 209.249C226.525 207.889 224.767 205.349 222.587 203.299C222.428 203.148 222.269 202.993 222.119 202.834C221.968 202.675 221.859 202.566 221.738 202.416C221.616 202.265 221.524 202.169 221.42 202.043C221.315 201.918 221.223 201.809 221.131 201.688C221.039 201.566 221.026 201.554 220.98 201.487C220.934 201.42 220.842 201.303 220.775 201.207L220.708 201.11C220.579 200.926 220.457 200.738 220.34 200.545C220.223 200.353 220.11 200.165 220.001 199.968C219.893 199.771 219.792 199.575 219.696 199.374C219.6 199.173 219.508 198.955 219.424 198.767C219.34 198.579 219.29 198.445 219.231 198.282C219.227 198.271 219.227 198.259 219.231 198.248C219.173 198.093 219.118 197.939 219.068 197.78C219.055 197.744 219.044 197.708 219.035 197.671C218.989 197.524 218.943 197.374 218.905 197.223C218.901 197.209 218.901 197.195 218.905 197.181C218.863 197.031 218.821 196.876 218.784 196.721C218.696 196.349 218.625 195.968 218.57 195.583L218.508 195.499C217.959 194.793 217.651 193.929 217.629 193.035C217.629 192.964 217.629 192.892 217.629 192.821C217.629 190.859 217.583 188.884 217.478 186.917V192.357C216.064 183.896 215.386 175.423 217.478 166.934V167.473C217.478 167.406 217.516 167.348 217.533 167.285C217.568 166.78 217.681 166.283 217.867 165.812C217.867 165.682 217.901 165.553 217.922 165.423C217.944 165.166 217.987 164.911 218.051 164.661C218.051 164.636 218.051 164.611 218.051 164.586C218.051 163.883 218.022 163.176 218.01 162.494C217.98 160.749 218.01 159 218.01 157.055C218.78 156.904 219.759 156.77 220.7 156.498C221.119 156.377 221.47 155.975 221.851 155.703C221.407 155.607 220.947 155.373 220.529 155.439C218.892 155.703 217.282 156.109 215.646 156.377C209.687 157.347 204.562 155.121 199.674 152.088C198.001 151.067 196.494 149.841 194.883 148.741C192.791 147.322 191.741 145.33 191.318 142.883C190.925 140.565 190.109 138.309 189.862 135.987C189.653 133.987 189.988 131.932 190.072 129.899C190.101 129.142 190.118 128.38 190.126 127.619C190.126 126.941 189.833 125.945 190.168 125.644C191.284 124.618 192.538 123.752 193.892 123.07C194.239 122.895 195.18 123.556 195.645 124.033C197.637 126.062 199.44 128.28 201.503 130.213C203.868 132.406 205.827 134.999 207.29 137.874C207.842 138.954 208.742 138.673 209.763 138.1C210.67 137.59 211.972 137.765 213.11 137.682C213.361 137.661 213.771 137.928 213.859 137.832C215.085 136.502 216.821 136.723 218.336 136.288C218.629 136.205 218.855 135.899 219.11 135.694C218.775 135.539 218.411 135.209 218.114 135.276C217.033 135.434 215.97 135.701 214.943 136.075C213.968 136.46 213.524 136.142 213.231 135.267C211.997 131.589 210.721 127.928 209.553 124.221C209.302 123.422 208.796 122.74 209.101 121.602C209.545 119.928 210.231 119.2 211.88 119.137C212.168 119.137 212.44 118.652 212.717 118.388C212.328 118.253 211.922 118.171 211.512 118.145C210.143 118.275 208.788 118.593 207.424 118.606C206.691 118.536 205.993 118.264 205.407 117.819C203.382 116.463 201.369 115.087 199.432 113.614C196.955 111.739 194.063 110.886 191.172 109.974C190.374 109.666 189.603 109.294 188.866 108.861L189.737 105.651L195.444 106.166C195.632 106.166 195.825 106.304 196.001 106.275C199.888 105.647 204.018 105.932 207.327 103.141C207.874 102.764 208.494 102.508 209.147 102.388C215.75 100.614 222.395 99.5633 229.232 101.053C231.679 101.584 234.165 101.948 236.646 102.308C239.127 102.668 241.249 103.823 243.207 105.237C243.799 105.734 244.175 106.44 244.257 107.208C244.462 110.241 244.471 113.288 244.621 116.321C244.646 116.886 244.998 117.438 245.199 117.995C245.794 117.773 246.378 117.52 246.948 117.237C247.487 116.878 248.005 116.485 248.496 116.062C248.375 117.911 248.282 119.371 248.182 120.836C247.973 123.916 247.722 126.995 247.567 130.083C247.475 131.912 247.881 132.15 249.659 131.493C250.078 131.33 250.525 131.146 251.245 130.857C251.354 132.531 251.462 134.075 251.555 135.61C251.919 141.82 252.27 148.033 252.672 154.239C252.693 154.544 253.132 154.82 253.375 155.109C253.622 154.816 253.986 154.561 254.09 154.226C254.808 151.714 255.668 149.244 256.663 146.828C256.663 148.632 256.73 150.439 256.663 152.239C256.396 158.071 256.078 163.9 255.785 169.733C255.756 170.014 255.78 170.298 255.856 170.57C256.007 170.894 256.186 171.205 256.392 171.499C256.684 171.302 257.103 171.176 257.249 170.9C258.266 169.034 259.224 167.134 260.375 164.921C260.375 166.415 260.429 167.636 260.375 168.846C260.124 173.545 259.772 178.239 259.588 182.938C259.505 185.068 259.697 187.214 259.818 189.348C259.915 189.713 260.075 190.057 260.291 190.365C260.568 190.154 260.824 189.916 261.053 189.654C261.28 189.234 261.581 188.859 261.94 188.545C261.019 190.98 260.224 193.42 259.27 195.784Z" fill="#4D3826"/>
<path d="M218.503 195.537C217.954 194.83 217.646 193.967 217.625 193.072C217.802 193.93 218.098 194.76 218.503 195.537Z" fill="#C8A468"/>
<path d="M218.567 195.621L218.504 195.537C218.098 194.76 217.803 193.931 217.625 193.073C217.529 192.654 217.471 192.391 217.471 192.391C216.056 183.93 215.378 175.457 217.471 166.967V167.507C217.471 167.44 217.508 167.382 217.525 167.319C217.56 166.814 217.673 166.317 217.86 165.846C217.86 165.716 217.893 165.587 217.914 165.457C217.936 165.2 217.979 164.945 218.044 164.695C218.044 164.67 218.044 164.645 218.044 164.62C218.173 171.365 218.328 178.11 218.429 184.859C218.475 187.997 218.27 191.136 218.429 194.27C218.451 194.722 218.497 195.173 218.567 195.621Z" fill="#C8A468"/>
<path d="M136.426 212.633C135.769 210.415 135.816 208.048 136.56 205.858C137.313 203.528 139.439 201.846 141.418 201.795C143.397 201.745 144.401 202.532 144.832 204.457L145.196 206.042C145.845 204.967 146.368 204.105 146.912 203.197C142.535 202.804 140.1 197.687 142.259 194.05C143.627 191.745 146.481 191.272 148.435 191.586C148.891 191.661 149.431 192.331 149.611 192.841C150.607 195.678 151.531 198.548 149.874 201.457C153.343 202.975 154.264 204.486 153.983 208.243C153.854 209.959 153.603 211.662 153.385 213.549C155.87 213.549 156.075 215.666 156.239 217.662C156.382 219.581 156.389 221.508 156.26 223.428C156.184 224.704 155.423 225.599 154.092 225.938C152.582 226.357 151.126 226.394 150.025 225.102C149.276 224.219 148.69 223.198 147.962 222.135C147.46 224.432 146.05 226.064 143.699 226.114C141.234 226.164 140.385 223.947 139.426 222.064C138.64 223.068 137.962 224.068 137.146 224.943C136.576 225.595 135.819 226.057 134.978 226.266C134.137 226.474 133.252 226.42 132.443 226.11C130.803 225.545 130.154 224.056 129.932 222.428C129.631 220.361 130.305 218.499 131.276 216.716C131.757 215.829 132.158 214.888 132.715 214.055C133.038 213.597 133.491 213.245 134.016 213.047C134.807 212.845 135.613 212.707 136.426 212.633ZM134.079 214.306C133.97 214.657 133.812 214.991 133.61 215.298C131.836 217.294 130.736 219.545 131.075 222.273C131.238 223.587 131.765 224.997 133.213 225.143C134.361 225.229 135.502 224.894 136.422 224.202C138.69 222.281 139.071 219.658 138.619 216.8C138.297 214.754 136.008 212.821 134.079 214.285V214.306ZM144.205 206.883L143.937 206.821C143.895 206.206 143.895 205.565 143.799 204.975C143.447 202.77 141.707 202.072 139.832 203.264C137.129 204.984 136.514 210.176 137.841 212.294C138.527 213.377 139.556 214.064 140.652 213.762C141.156 213.611 141.624 213.36 142.03 213.027C142.435 212.693 142.771 212.281 143.016 211.817C143.669 210.26 143.837 208.519 144.205 206.863V206.883ZM152.741 208.411L153.038 208.34C152.732 206.98 152.569 205.57 152.092 204.281C151.523 202.745 149.431 202.109 148.326 203.105C146.234 205.009 145.067 208.725 146.611 211.52C147.268 212.716 149.251 213.733 150.297 213.499C151.971 213.126 152.636 212.189 152.736 210.118C152.762 209.528 152.741 208.959 152.741 208.39V208.411ZM155.406 220.963C155.197 219.549 155.038 217.746 154.624 216.001C154.485 215.436 153.695 214.662 153.167 214.637C152.18 214.587 150.774 214.674 150.238 215.298C148.418 217.432 148.607 221.599 150.377 223.796C151.192 224.809 152.343 225.633 153.582 224.993C154.347 224.574 154.774 223.461 155.255 222.604C155.444 222.231 155.343 221.725 155.406 220.93V220.963ZM140.313 220.545C140.732 221.541 140.937 222.679 141.569 223.44C142.201 224.202 143.418 225.114 144.176 224.959C145.05 224.784 145.987 223.633 146.393 222.687C147.519 220.064 147.029 217.453 145.527 215.097C145.171 214.536 144.238 213.972 143.632 214.034C143.234 214.096 142.855 214.247 142.524 214.476C142.193 214.705 141.918 215.006 141.719 215.357C141.1 216.955 140.795 218.691 140.313 220.532V220.545ZM149.707 197.532C149.351 196.214 149.025 194.674 148.481 193.214C148.331 192.969 148.122 192.768 147.872 192.628C147.622 192.488 147.341 192.414 147.054 192.414C145.448 192.795 143.795 193.076 143 194.984C142.138 197.076 143.138 200.841 145.201 201.595C148.008 202.649 149.335 201.172 149.72 197.532H149.707ZM144.037 212.821C146.774 213.189 147.197 215.444 148.117 217.424L149.159 214.595C148.167 214.36 147.252 213.873 146.504 213.181C145.755 212.489 145.198 211.616 144.887 210.645L144.037 212.821Z" fill="#4D3826"/>
<path d="M103.066 217.625C103.388 216.985 103.61 216.533 103.874 216.01C102.96 215.266 102.087 214.474 101.259 213.637C100.744 213.068 100.179 212.298 100.133 211.587C99.9531 208.817 99.9615 206.039 102.472 204.055C102.697 203.88 102.9 203.678 103.075 203.453C103.43 202.997 103.798 202.101 104.083 202.131C105.066 202.235 106.25 202.394 106.937 203.005C109.577 205.361 109.803 208.528 109.355 211.792C109.263 212.188 109.287 212.602 109.424 212.985C109.562 213.368 109.806 213.704 110.129 213.951C112.954 216.545 112.857 222.106 110.05 224.7C108.309 226.303 105.535 226.156 103.748 224.353C103.459 224.06 103.204 223.734 102.815 223.29C101.485 226.027 99.2627 226.801 96.5095 226.453C95.3881 226.315 94.8149 225.713 94.4174 224.621C93.363 221.612 94.1287 219.039 95.9907 216.633C96.3347 216.184 96.6399 215.707 96.9028 215.206C97.9907 213.173 100.514 213.03 101.731 214.98C102.221 215.742 102.556 216.587 103.066 217.625ZM105.321 203.206C105.051 203.522 104.741 203.803 104.401 204.043C101.38 205.57 100.982 209.039 101.472 211.549C101.681 212.595 103.941 214.83 104.635 214.52C105.815 213.989 107.192 213.29 107.824 212.256C109.1 210.202 108.167 204.687 105.321 203.206ZM102.518 220.47C101.899 218.796 101.384 217.093 100.631 215.495C100.054 214.273 98.8276 214.24 98.0075 215.34C97.3296 216.248 96.794 217.257 96.1664 218.198C94.886 220.106 94.9111 222.14 95.748 224.152C95.9025 224.443 96.1183 224.697 96.3806 224.896C96.6428 225.096 96.9452 225.236 97.2668 225.307C99.974 225.696 102.192 223.516 102.518 220.47ZM111.175 219.596C110.677 218.139 110.276 216.641 109.652 215.24C109.087 213.964 108.506 213.934 107.401 214.821C107.087 215.109 106.722 215.336 106.326 215.491C105.012 215.909 104.48 216.901 104.204 218.102C104 218.977 103.86 219.867 103.786 220.763C103.644 222.654 104.685 223.893 106.899 224.575C108.075 224.939 109.242 224.378 110.075 222.805C110.556 221.868 110.769 220.792 111.175 219.591V219.596Z" fill="#4D3826"/>
<path d="M71.8254 222.328C71.6288 223.583 71.4698 224.943 71.1894 226.282C70.6037 229.077 64.8252 230.374 62.9925 228.751C60.0217 226.119 59.4443 224.077 61.4318 220.052C62.3607 218.173 63.6662 216.474 64.9047 214.767C65.0949 214.58 65.324 214.437 65.5757 214.349C65.8274 214.261 66.0955 214.229 66.3608 214.257C68.8714 214.566 70.5953 215.809 71.089 218.441C71.3359 219.663 71.566 220.922 71.8254 222.328ZM70.3108 222.412C70.1769 220.106 70.1099 218.202 68.8421 216.612C67.5743 215.022 65.8922 214.75 64.7876 216.219C62.98 218.621 61.5783 221.29 61.6243 224.428C61.6536 226.102 63.8754 228.416 65.4278 228.282C67.7375 228.085 69.8379 227.542 70.0011 224.684C70.0513 223.792 70.2396 222.91 70.3108 222.412Z" fill="#4D3826"/>
<path d="M213.884 104.253C214.236 104.976 214.634 105.674 215.077 106.345C215.495 106.885 215.985 107.6 216.554 107.722C219.065 108.282 221.609 106.692 222.571 104.148C221.044 102.956 215.374 103.106 213.884 104.253ZM254.777 206.565C256.275 202.975 257.823 199.41 259.271 195.799C260.225 193.419 261.036 190.979 261.915 188.565C261.553 188.878 261.25 189.254 261.02 189.674C260.791 189.936 260.535 190.174 260.258 190.385C260.042 190.077 259.882 189.733 259.785 189.368C259.664 187.234 259.472 185.088 259.555 182.958C259.739 178.259 260.091 173.565 260.342 168.866C260.409 167.656 260.342 166.435 260.342 164.941C259.191 167.158 258.25 169.054 257.216 170.92C257.07 171.196 256.651 171.339 256.359 171.518C256.153 171.225 255.974 170.914 255.823 170.59C255.747 170.317 255.723 170.034 255.752 169.753C256.045 163.92 256.363 158.091 256.63 152.258C256.71 150.459 256.63 148.652 256.63 146.848C255.636 149.254 254.776 151.714 254.057 154.217C253.953 154.551 253.589 154.807 253.342 155.1C253.099 154.811 252.66 154.535 252.639 154.229C252.22 148.024 251.886 141.81 251.522 135.601C251.429 134.065 251.321 132.534 251.212 130.848C250.492 131.136 250.065 131.321 249.626 131.484C247.848 132.141 247.442 131.902 247.534 130.074C247.689 126.986 247.952 123.906 248.149 120.827C248.249 119.362 248.342 117.898 248.463 116.052C247.972 116.476 247.454 116.868 246.915 117.228C246.345 117.51 245.761 117.763 245.166 117.985C244.965 117.429 244.613 116.877 244.588 116.312C244.438 113.278 244.429 110.232 244.224 107.199C244.142 106.431 243.766 105.724 243.174 105.228C241.216 103.793 239.094 102.638 236.613 102.299C234.132 101.96 231.646 101.579 229.199 101.044C222.366 99.5539 215.721 100.625 209.114 102.378C208.461 102.498 207.841 102.755 207.294 103.131C203.985 105.922 199.855 105.642 195.968 106.265C195.792 106.295 195.599 106.173 195.411 106.157L189.704 105.642L188.833 108.851C189.57 109.285 190.341 109.657 191.139 109.964C194.03 110.876 196.922 111.73 199.399 113.605C201.336 115.077 203.349 116.454 205.374 117.81C205.96 118.255 206.658 118.527 207.391 118.596C208.755 118.596 210.11 118.266 211.479 118.136C211.889 118.161 212.295 118.243 212.684 118.379C212.407 118.642 212.135 119.115 211.847 119.128C210.198 119.19 209.512 119.927 209.068 121.592C208.763 122.73 209.269 123.412 209.52 124.212C210.671 127.919 211.964 131.58 213.198 135.258C213.491 136.132 213.935 136.45 214.91 136.065C215.937 135.692 217 135.424 218.081 135.266C218.378 135.212 218.742 135.542 219.077 135.685C218.822 135.89 218.596 136.195 218.303 136.279C216.788 136.697 215.052 136.492 213.826 137.823C213.738 137.919 213.328 137.651 213.077 137.672C211.947 137.764 210.646 137.589 209.73 138.091C208.709 138.664 207.809 138.927 207.257 137.865C205.794 134.99 203.835 132.396 201.47 130.203C199.378 128.27 197.587 126.053 195.612 124.023C195.147 123.546 194.206 122.885 193.859 123.061C192.505 123.743 191.251 124.609 190.135 125.634C189.8 125.944 190.097 126.931 190.093 127.609C190.093 128.371 190.068 129.132 190.039 129.89C189.955 131.923 189.62 133.978 189.829 135.978C190.076 138.3 190.892 140.555 191.285 142.873C191.704 145.338 192.75 147.329 194.85 148.731C196.461 149.823 197.984 151.049 199.641 152.079C204.529 155.095 209.654 157.338 215.613 156.367C217.249 156.1 218.859 155.694 220.496 155.43C220.914 155.363 221.374 155.597 221.818 155.694C221.437 155.966 221.094 156.367 220.667 156.489C219.726 156.761 218.747 156.907 217.977 157.045C217.977 159.003 217.952 160.752 217.977 162.485C217.977 163.188 218.002 163.895 218.018 164.577C218.148 171.322 218.303 178.067 218.403 184.816C218.449 187.954 218.244 191.092 218.403 194.226C218.424 194.68 218.469 195.133 218.537 195.582C218.592 195.967 218.663 196.348 218.751 196.72C218.788 196.875 218.83 197.03 218.872 197.18C218.868 197.194 218.868 197.208 218.872 197.222C218.91 197.373 218.956 197.523 219.002 197.67C219.011 197.707 219.022 197.743 219.035 197.779C219.085 197.938 219.14 198.092 219.198 198.247C219.194 198.258 219.194 198.27 219.198 198.281C219.257 198.444 219.324 198.607 219.391 198.766C219.733 199.591 220.164 200.377 220.675 201.109L220.742 201.205C220.809 201.302 220.876 201.394 220.947 201.486C221.019 201.578 221.044 201.62 221.098 201.687C221.152 201.754 221.286 201.925 221.387 202.042C221.487 202.159 221.596 202.293 221.705 202.415C221.814 202.536 221.956 202.687 222.086 202.833C222.215 202.98 222.395 203.147 222.554 203.298C224.734 205.348 226.492 207.9 229.307 209.248C230.266 209.708 231.4 210.231 231.944 211.055C233.433 213.256 235.647 214.227 237.94 215.147C238.379 215.299 238.836 215.394 239.299 215.432C240.014 215.449 240.725 215.532 241.425 215.679C241.764 215.783 241.956 216.344 242.216 216.7C241.875 216.898 241.507 217.046 241.124 217.139C240.744 217.138 240.368 217.066 240.015 216.926C237.086 216.059 234.308 214.871 231.918 212.879C231.5 212.524 230.789 212.495 230.211 212.315L229.96 212.758C230.433 213.988 230.893 215.223 231.383 216.444C232.4 218.955 233.751 221.382 233.667 224.252C233.605 226.223 233.437 226.516 231.416 226.7C229.395 226.884 227.362 227.051 225.366 227.223C224.571 228.595 225.659 229.495 226.174 230.512C226.263 230.712 226.395 230.89 226.559 231.034C226.724 231.178 226.918 231.286 227.128 231.349C231.09 231.985 235.044 232.775 239.036 233.077C240.285 233.204 241.546 233.027 242.712 232.56C243.878 232.094 244.914 231.352 245.731 230.399C246.149 230.679 246.655 231.294 246.944 231.198C249.517 230.361 252.584 232.035 254.831 229.658C254.877 229.608 255.015 229.633 255.103 229.658C256.166 229.834 256.572 229.177 256.626 228.311C256.735 226.562 256.81 224.809 256.769 223.06C256.743 221.963 257.237 220.641 255.831 219.917C255.727 219.859 255.672 219.558 255.706 219.39C256.078 217.394 256.354 215.373 256.886 213.419C257.476 211.269 258.304 209.181 259.028 207.063C258.028 207.599 257.354 208.319 256.518 208.833C255.928 209.193 255.158 209.252 254.463 209.436C254.463 208.804 254.463 208.181 254.501 207.545C254.541 207.206 254.635 206.876 254.777 206.565Z" fill="#C8A468"/>
<path d="M248.467 130.928C248.655 127.848 248.798 125.162 248.994 122.476C249.166 120.157 249.413 117.844 249.584 115.521C249.547 115.124 249.447 114.736 249.287 114.371C248.9 114.459 248.527 114.6 248.178 114.789C247.421 115.35 246.722 115.99 245.597 116.936V107.329L246.433 106.73C245.911 106.096 245.343 105.501 244.735 104.948C244.048 104.404 243.233 104.023 242.555 103.337C249.165 104.068 255.642 105.71 261.802 108.216H251.559L251.455 108.689C259.794 110.915 266.384 115.864 272.643 122.078C268.606 121.153 264.79 120.823 261.505 118.651C260.67 118.103 259.797 117.614 258.894 117.187C258.635 117.061 258.229 117.237 257.894 117.27C258.053 117.567 258.145 118.032 258.388 118.132C262.819 119.961 265.534 123.651 268.329 127.241C271.041 130.723 273.673 134.267 276.192 138.003C274.886 137.459 273.572 136.936 272.279 136.363C270.986 135.79 269.656 134.978 268.263 134.547C267.007 134.158 265.999 132.949 264.463 133.292C272.882 140.535 277.384 150.447 283.418 159.293L283.087 159.636C282.213 159.071 281.313 158.539 280.464 157.962C276.091 154.895 272.305 151.171 268.606 147.347C268.175 146.941 267.607 146.714 267.016 146.711C276.062 156.02 280.786 167.577 285.008 179.406L284.711 179.64C282.619 177.548 280.376 175.569 278.434 173.364C276.146 170.77 274.083 167.975 271.94 165.255C271.484 164.673 271.104 164.075 270.07 164.807C270.602 165.552 271.104 166.263 271.61 166.966C274.505 170.962 276.003 175.59 277.363 180.239C279.091 186.159 280.593 192.151 282.188 198.114C282.209 198.313 282.209 198.513 282.188 198.712C279.957 197.783 278.489 196.16 277.372 194.252C275.48 191.017 273.736 187.695 271.932 184.41C271.789 184.106 271.603 183.824 271.38 183.574C271.242 183.444 270.857 183.348 270.781 183.427C270.631 183.629 270.541 183.87 270.522 184.122C270.522 184.243 270.61 184.39 270.677 184.515C273.627 189.8 275.15 195.603 276.652 201.394C277.552 204.88 278.162 208.445 278.807 211.989C278.991 213.022 278.836 214.123 278.836 215.57C278.326 215.089 277.847 214.576 277.401 214.035C275.003 210.62 272.627 207.185 270.246 203.758C270.15 203.652 270.075 203.528 270.024 203.394C269.689 201.591 268.802 201.637 267.656 202.658C268.367 208.136 269.083 213.623 269.802 219.119L269.334 219.265C266.698 216.591 265.242 213.123 263.279 210.001L263.698 209.964L263.777 208.022L261.823 208.265C261.526 207.486 260.149 206.721 260.986 205.143C261.112 204.909 260.877 204.482 260.806 204.143C260.422 204.214 260.055 204.356 259.723 204.562C258.564 205.604 257.471 206.721 256.338 207.784C256.115 207.937 255.871 208.058 255.614 208.143L255.245 207.926L264.451 184.62H264.672C264.601 185.716 264.522 186.808 264.455 187.904C264.19 192.493 263.928 197.084 263.668 201.679C263.618 201.912 263.628 202.154 263.698 202.382C263.881 202.662 264.096 202.92 264.338 203.152C264.555 202.85 264.999 202.507 264.957 202.248C264.12 197.227 264.924 192.235 265.476 187.247C265.653 185.17 265.705 183.084 265.631 181C265.631 180.582 265.166 180.163 264.915 179.724C264.586 180.067 264.296 180.446 264.053 180.854C263.028 183.189 262.045 185.544 261.049 187.892L260.451 187.821C260.451 186.214 260.367 184.599 260.451 182.996C260.735 178.31 261.116 173.632 261.409 168.946C261.526 167.05 261.547 165.146 261.53 163.247C261.53 162.853 261.166 162.46 260.969 162.071C260.664 162.368 260.241 162.611 260.07 162.975C259.053 165.104 258.099 167.259 257.141 169.41L256.752 169.351C256.646 168.447 256.595 167.538 256.601 166.627C256.907 162.129 257.312 157.64 257.589 153.138C257.769 150.209 257.81 147.28 257.848 144.351C257.848 143.987 257.43 143.614 257.233 143.246C256.94 143.581 256.522 143.865 256.371 144.25C255.476 146.593 254.643 148.958 253.517 151.33C253.396 150.355 253.212 149.384 253.162 148.401C252.994 144.89 252.86 141.384 252.743 137.874C252.668 135.752 252.701 133.622 252.576 131.505C252.459 129.53 251.881 129.25 250.183 130.154C249.722 130.342 249.304 130.509 248.467 130.928Z" fill="#4D3826"/>
<path d="M179.184 179.224C176.502 177.789 173.535 179.098 170.699 178.584V175.596H173.607L173.653 175.178L170.858 174.696V172.282H173.786C173.084 170.809 171.841 171.839 171.004 171.236V169.562H173.908C173.933 169.387 173.954 169.215 173.979 169.039L171.155 168.583C171.184 168.638 171.104 168.558 171.109 168.479C171.234 164.713 170.69 165.428 174.326 165.253C175.552 165.194 176.787 165.395 178.017 165.437C178.581 165.472 179.141 165.325 179.615 165.018C177.025 163.88 174.272 164.366 171.531 164.286V161.6L173.849 161.29L173.883 160.872L171.753 160.391V158.796H174.552L174.64 158.257L171.711 157.646V157.194L175.008 156.725C175.008 156.554 175.008 156.386 174.987 156.215L171.95 155.847C171.991 155.093 172.033 154.403 172.067 153.851C174.72 153.851 177.268 153.872 179.812 153.83C180.147 153.83 180.481 153.508 180.816 153.336C180.511 153.043 180.218 152.499 179.895 152.499C178.573 152.432 177.243 152.533 175.912 152.549C174.736 152.549 173.565 152.549 172.238 152.549C172.347 151.294 172.431 150.323 172.531 149.156H175.088L175.142 148.654L172.602 148.181C172.64 147.763 172.682 147.219 172.724 146.691L175.908 146.516C175.908 146.311 175.908 146.097 175.929 145.901L172.941 145.52V144.206L176.004 143.788L175.966 143.198C175.348 143.202 174.729 143.16 174.117 143.072C173.745 142.993 173.096 142.574 173.125 142.482C173.289 141.959 173.586 141.093 173.895 141.068C175.778 140.921 177.661 140.98 179.565 140.951C180.03 140.959 180.487 140.83 180.879 140.578C178.498 138.779 175.992 139.913 173.464 140.097V137.545L176.096 137.771L176.23 137.16L173.544 136.402C174.142 134.365 176.201 136.478 177.205 134.959L173.899 134.44V132.976C175.021 132.825 176.222 133.812 177.385 132.478L173.966 131.85C174.008 131.277 174.046 130.741 174.079 130.247H181.791L181.908 129.716C181.332 129.527 180.742 129.387 180.142 129.298C178.469 129.197 176.807 129.147 175.159 129.147C174.322 129.147 174.071 128.779 174.176 128.009C174.301 127.076 174.397 126.139 174.535 124.979L187.155 126.783C186.912 128.36 186.565 129.888 186.469 131.432C186.122 136.976 185.862 142.528 185.569 148.076C185.184 155.336 184.732 162.6 184.448 169.864C184.23 175.324 184.264 180.797 184.126 186.262C183.916 194.424 183.679 202.587 183.414 210.752C183.285 214.936 183.105 219.12 182.962 223.305C182.937 223.826 182.958 224.348 183.025 224.865C183.327 227.008 182.423 227.731 180.239 227.518C178.054 227.305 175.778 227.409 173.544 227.376C171.033 227.342 171.033 227.342 170.799 224.819C170.724 223.982 170.611 223.146 170.506 222.204L178.205 221.765C178.205 221.576 178.205 221.388 178.205 221.2C177.188 220.183 175.887 220.635 174.678 220.715C173.74 220.777 172.803 220.945 171.87 221.099C170.937 221.254 170.309 221.058 170.401 219.878C170.406 219.225 170.354 218.572 170.247 217.928L173.293 216.957L173.167 216.371C172.581 216.503 171.985 216.585 171.385 216.618C170.951 216.549 170.528 216.421 170.129 216.237C170.461 216.014 170.809 215.817 171.171 215.647C171.669 215.455 172.201 215.338 172.72 215.191L172.69 214.748L170.142 214.493C170.142 214.045 170.1 213.635 170.079 213.212L173.029 212.978V212.438L170.234 212.07V208.501H178.59C178.423 207.522 178.079 207.246 177.138 207.287C174.845 207.4 172.535 207.325 170.176 207.325V205.124L172.623 204.66V204.153L170.159 203.86C170.129 203.442 170.1 203.024 170.067 202.526L173.029 202.693L173.117 202.22C172.301 201.442 171.167 201.739 169.606 201.647C170.083 201.199 170.297 200.81 170.586 200.752C171.544 200.521 172.527 200.396 173.515 200.233L173.443 199.551L170.071 199.739V195.643C171.581 195.534 173.163 195.459 174.74 195.3C176.176 195.157 177.669 196.358 179.448 195.141C176.163 193.994 173.171 194.228 170.088 194.618V192.714L172.619 192.061C171.895 190.94 169.581 192.638 170.079 190.266L172.908 189.789C172.908 189.617 172.908 189.446 172.908 189.274C172.489 189.228 172.104 189.157 171.699 189.136C171.293 189.115 170.765 189.136 170.205 189.136V187.688L173.36 187.145L173.293 186.588L170.201 186.416C170.297 184.508 170.427 182.718 170.464 180.923C170.464 179.931 171.012 179.73 171.832 179.755C173.958 179.826 176.084 179.902 178.209 179.939C178.558 179.901 178.9 179.816 179.226 179.688L179.184 179.224Z" fill="#F79221"/>
<path d="M173.113 123.397C179.177 121.036 185.863 120.798 192.08 122.724C190.406 124.351 188.95 125.724 186.594 125.414C182.653 124.895 178.703 124.456 174.757 123.958C174.195 123.817 173.645 123.629 173.113 123.397Z" fill="#4D3826"/>
<path d="M208.327 227.966C209.679 227.966 211.03 228 212.382 227.966C215.03 227.882 217.687 227.836 220.332 227.631C222.658 227.451 223.604 229.008 224.901 230.82C219.321 230.414 213.774 229.637 208.298 228.493C208.298 228.318 208.319 228.142 208.327 227.966Z" fill="#4D3826"/>
<path d="M256.656 217.516C257.627 214.487 258.593 211.453 259.614 208.265C261.434 209.959 261.212 211.428 260.108 213.03C259.078 214.528 258.196 216.131 257.246 217.688L256.656 217.516Z" fill="#4D3826"/>
<path d="M134.079 214.285C136.008 212.821 138.296 214.754 138.619 216.796C139.07 219.654 138.69 222.277 136.422 224.198C135.501 224.89 134.361 225.225 133.212 225.139C131.765 224.993 131.238 223.583 131.074 222.269C130.735 219.541 131.836 217.29 133.61 215.294C133.813 214.982 133.971 214.642 134.079 214.285Z" fill="#FFFDE1"/>
<path d="M144.205 206.865C143.836 208.539 143.669 210.263 143.016 211.798C142.771 212.263 142.435 212.674 142.029 213.008C141.624 213.342 141.155 213.592 140.652 213.744C139.556 214.045 138.527 213.359 137.84 212.275C136.514 210.158 137.129 204.965 139.832 203.246C141.711 202.053 143.447 202.752 143.799 204.957C143.895 205.564 143.895 206.187 143.937 206.802L144.205 206.865Z" fill="#FFFDE1"/>
<path d="M152.74 208.391C152.74 208.96 152.74 209.529 152.74 210.098C152.639 212.19 151.957 213.107 150.3 213.479C149.254 213.713 147.271 212.697 146.614 211.5C145.07 208.705 146.221 204.989 148.33 203.086C149.434 202.09 151.526 202.726 152.095 204.261C152.572 205.55 152.736 206.96 153.041 208.32L152.74 208.391Z" fill="#FFFDE1"/>
<path d="M155.406 220.931C155.343 221.735 155.443 222.233 155.255 222.571C154.778 223.429 154.351 224.559 153.581 224.961C152.326 225.601 151.192 224.777 150.376 223.764C148.606 221.567 148.418 217.4 150.238 215.266C150.769 214.642 152.175 214.554 153.167 214.605C153.694 214.63 154.485 215.404 154.623 215.969C155.037 217.714 155.196 219.517 155.406 220.931Z" fill="#FFFDE1"/>
<path d="M140.314 220.534C140.795 218.693 141.101 216.956 141.741 215.346C141.939 214.995 142.214 214.694 142.545 214.465C142.876 214.236 143.255 214.085 143.653 214.023C144.26 213.961 145.193 214.525 145.548 215.086C147.051 217.442 147.54 220.053 146.415 222.676C145.996 223.622 145.071 224.768 144.197 224.948C143.44 225.103 142.239 224.183 141.59 223.429C140.942 222.676 140.728 221.53 140.314 220.534Z" fill="#FFFDE1"/>
<path d="M149.719 197.533C149.347 201.174 148.02 202.651 145.213 201.596C143.15 200.822 142.15 197.069 143.012 194.985C143.807 193.077 145.459 192.797 147.066 192.416C147.352 192.416 147.634 192.49 147.884 192.629C148.134 192.769 148.343 192.971 148.493 193.215C149.024 194.675 149.351 196.203 149.719 197.533Z" fill="#FFFDE1"/>
<path d="M144.037 212.822L144.874 210.634C145.185 211.604 145.742 212.478 146.491 213.17C147.239 213.862 148.154 214.349 149.146 214.584L148.104 217.412C147.209 215.45 146.79 213.19 144.037 212.822Z" fill="#4D3826"/>
<path d="M105.32 203.207C108.165 204.688 109.086 210.203 107.83 212.27C107.199 213.304 105.822 214.002 104.642 214.534C103.947 214.843 101.688 212.609 101.479 211.563C100.972 209.052 101.37 205.584 104.408 204.056C104.746 203.812 105.052 203.527 105.32 203.207Z" fill="#FFFDE1"/>
<path d="M102.517 220.472C102.19 223.523 99.9725 225.703 97.2486 225.309C96.9269 225.238 96.6245 225.098 96.3623 224.899C96.1001 224.699 95.8842 224.445 95.7297 224.154C94.8929 222.142 94.8929 220.108 96.1481 218.2C96.7758 217.259 97.3113 216.25 97.9892 215.342C98.826 214.25 100.035 214.275 100.613 215.497C101.383 217.091 101.897 218.799 102.517 220.472Z" fill="#FFFDE1"/>
<path d="M111.174 219.591C110.755 220.792 110.554 221.867 110.065 222.792C109.228 224.365 108.065 224.926 106.889 224.562C104.676 223.88 103.634 222.641 103.776 220.75C103.85 219.854 103.99 218.964 104.194 218.089C104.471 216.888 105.002 215.88 106.316 215.478C106.713 215.323 107.077 215.096 107.391 214.808C108.496 213.93 109.065 213.972 109.642 215.227C110.274 216.637 110.676 218.135 111.174 219.591Z" fill="#FFFDE1"/>
<path d="M70.3111 222.413C70.24 222.911 70.0517 223.794 70.0015 224.685C69.8383 227.543 67.7378 228.087 65.4281 228.283C63.8757 228.417 61.6623 226.116 61.6246 224.43C61.5786 221.291 62.9803 218.622 64.7879 216.22C65.8925 214.752 67.5997 215.049 68.8424 216.614C70.0851 218.178 70.1772 220.107 70.3111 222.413Z" fill="#FFFDE1"/>
<path d="M213.885 104.254C215.374 103.108 221.044 102.957 222.571 104.158C221.609 106.702 219.056 108.292 216.554 107.731C215.985 107.601 215.479 106.894 215.077 106.355C214.634 105.681 214.236 104.98 213.885 104.254ZM218.274 106.685L218.559 106.924L221.224 104.907L218.793 104.342C218.588 105.267 218.429 105.974 218.274 106.685Z" fill="black"/>
<path d="M218.274 106.685C218.429 105.974 218.588 105.267 218.793 104.342L221.224 104.907L218.558 106.923L218.274 106.685Z" fill="white"/>
</g>
</svg>
