<svg width="330" height="340" viewBox="0 0 330 340" fill="none" xmlns="http://www.w3.org/2000/svg">
<path fill-rule="evenodd" clip-rule="evenodd" d="M220.084 54.7929C236.159 58.6983 254.155 60.0785 266.514 71.0782C278.856 82.0617 282.48 99.7158 288.054 115.284C293.354 130.087 299.367 145.129 298.652 160.847C297.953 176.231 290.134 190.127 284.011 204.26C278.268 217.515 270.597 229.434 263.487 242.008C255.491 256.148 251.944 273.8 239.083 283.711C226.276 293.581 208.909 296.238 192.761 296.514C177.151 296.781 163.205 287.212 147.717 285.273C130.872 283.164 112.957 290.913 97.2199 284.553C81.4799 278.191 69.854 264.092 60.3955 249.981C51.0229 235.999 43.6399 219.96 42.6472 203.139C41.6788 186.731 52.4219 172.037 54.8356 155.774C57.1798 139.979 51.5895 123.444 56.7193 108.321C61.9973 92.76 71.4713 78.0781 84.5559 68.1527C97.5483 58.2973 114.468 55.7935 130.409 52.4232C145.258 49.2837 160.242 48.5434 175.408 48.9442C190.553 49.3444 205.366 51.2171 220.084 54.7929Z" fill="#E8F4EF"/>
<path d="M234.001 131.278C234.497 131.862 234.585 133.192 234.287 133.991C234.106 134.487 233.908 134.982 233.704 135.467L232.642 135.017C229.644 136.184 228.524 134.971 228.086 132.363C229.107 131.821 230.175 130.998 231.371 130.689C232.152 130.485 233.482 130.718 234.001 131.278Z" fill="#C8A468"/>
<path d="M226.839 196.64C227.673 192.475 229.417 178.889 217.634 175.337C219.092 173.557 220.55 171.784 222.003 169.999C222.697 169.136 223.298 168.208 224.033 167.188C227.113 169.002 229.499 171.498 230.449 174.847C231.477 178.43 232.157 182.105 232.479 185.819C232.818 189.727 230.607 192.574 227.988 195.444C227.632 195.864 227.241 196.26 226.839 196.64Z" fill="#F79221"/>
<path d="M217.949 167.626C221.349 164.418 224.039 160.737 224.949 156.03C225.054 155.481 224.534 154.822 224.301 154.21C223.869 154.641 223.175 155.003 223.047 155.511C222.228 159.051 220.466 162.305 217.949 164.925C217.225 165.66 216.607 166.5 215.942 167.294C216.018 167.521 216.099 167.749 216.181 167.976C216.77 167.86 217.575 167.965 217.949 167.626ZM233.698 135.479C232.829 137.538 231.791 139.527 231.056 141.627C229.218 146.877 227.276 152.127 225.923 157.546C225.794 158.066 225.654 158.573 225.497 159.069C223.455 165.684 219.302 170.374 212.979 173.395C212.092 173.815 211.176 174.194 210.272 174.562C209.98 174.684 209.689 174.749 209.164 174.906C209.265 174.635 209.326 174.35 209.345 174.06C209.286 173.57 209.164 173.08 209.065 172.596C208.621 172.876 208.009 173.051 207.77 173.448C206.148 176.149 204.485 178.838 203.062 181.644C201.557 184.611 200.085 187.595 198.646 190.598C197.608 192.748 196.591 194.91 195.596 197.084C194.861 198.671 194.709 200.52 194.12 202.182C193.472 204.02 192.615 205.776 191.862 207.572C191.565 208.29 190.906 209.142 191.086 209.713C191.67 211.463 190.503 212.151 189.721 212.776L187.056 212.63L185.953 212.571C176.293 199.435 177.238 185.558 184.162 171.36L183.725 170.875C183.101 171.354 182.197 171.698 181.893 172.328C180.839 174.517 179.912 176.764 179.117 179.059C178.761 180.098 178.364 180.518 177.232 180.529C167.345 180.611 157.516 180.366 148.066 177.193C147.495 176.998 146.923 176.794 146.351 176.58C144.018 175.699 141.58 175.093 139.217 174.288C138.257 173.884 137.323 173.418 136.423 172.894L138.389 172.34C138.424 172.159 138.459 171.972 138.488 171.791C137.858 171.578 137.212 171.413 136.557 171.295C131.126 170.712 126.296 172.24 121.875 175.349C119.542 177.006 117.208 178.849 114.624 180.016C112.37 181.06 109.902 181.558 107.42 181.469C107.34 181.463 107.26 181.451 107.181 181.434C106.014 181.159 104.848 179.415 103.757 178.319C102.666 177.222 101.616 175.88 100.467 174.556C100.89 174.344 101.329 174.165 101.779 174.02C102.222 173.88 102.693 173.852 103.149 173.94C103.606 174.028 104.033 174.227 104.393 174.521C105.653 175.46 106.283 174.428 106.848 173.524C110.099 168.395 114.524 164.114 119.757 161.035C120.236 160.691 120.76 160.416 121.315 160.218C127.446 158.637 131.371 153.411 136.919 150.885C146.678 146.393 156.699 142.829 167.584 142.887C172.916 142.849 178.213 143.737 183.241 145.512C185.662 146.393 188.491 146.399 191.145 146.282L192.679 146.207C199.358 145.816 205.985 144.795 212.115 142.047C217.155 139.79 221.816 136.687 226.78 133.881C226.109 134.727 225.421 135.567 224.762 136.424C224.243 137.101 223.549 137.737 223.321 138.507C223.094 139.277 223.175 140.344 223.613 140.758C224.05 141.172 225.182 141.207 225.899 141.009C226.617 140.811 227.171 140.122 227.783 139.632C229.049 138.612 230.321 137.597 231.563 136.547C231.955 136.076 232.304 135.573 232.608 135.042L233.698 135.479Z" fill="#C8A468"/>
<path d="M224.978 140.039L228.81 136.766C228.32 136.183 227.999 135.804 227.41 135.098C226.185 136.848 225.246 138.143 224.313 139.455L224.978 140.039ZM228.057 132.362C228.495 134.97 229.615 136.189 232.613 135.016C232.31 135.547 231.96 136.051 231.569 136.521C230.327 137.571 229.055 138.586 227.789 139.607C227.177 140.097 226.622 140.774 225.905 140.984C225.187 141.194 224.073 141.164 223.618 140.733C223.163 140.301 223.123 139.175 223.327 138.481C223.531 137.787 224.248 137.075 224.768 136.399C225.427 135.541 226.115 134.701 226.786 133.855C221.822 136.661 217.161 139.765 212.121 142.022C205.99 144.769 199.364 145.79 192.685 146.181L192.58 144.577C197.205 144.314 201.773 143.189 206.387 142.045C212.873 140.435 218.433 136.9 223.782 133.015C225.485 131.779 227.206 130.554 228.979 129.434C229.949 128.862 231.076 128.616 232.196 128.734C233.316 128.851 234.368 129.326 235.197 130.087C236.784 131.475 236.947 133.039 235.962 135.448C233.85 140.599 231.686 145.738 229.772 150.964C228.74 153.776 227.929 156.669 227.077 159.545L225.473 159.055C225.631 158.559 225.771 158.052 225.899 157.533C227.252 152.137 229.195 146.875 231.032 141.614C231.767 139.514 232.782 137.53 233.675 135.465C233.885 134.981 234.083 134.485 234.258 133.99C234.55 133.19 234.468 131.855 233.972 131.277C233.477 130.7 232.147 130.484 231.336 130.694C230.146 130.997 229.078 131.82 228.057 132.362Z" fill="#4D3826"/>
<path d="M224.29 154.207C224.523 154.82 225.042 155.479 224.937 156.027C224.039 160.734 221.35 164.415 217.937 167.624C217.564 167.974 216.771 167.869 216.158 167.974C216.076 167.746 215.995 167.519 215.919 167.291C216.584 166.498 217.202 165.658 217.926 164.923C220.443 162.302 222.205 159.049 223.024 155.508C223.164 154.989 223.858 154.627 224.29 154.207Z" fill="#4D3826"/>
<path d="M226.559 197.862L218.48 204.278C218.554 203.539 218.612 202.822 218.655 202.126C221.626 200.688 224.376 198.831 226.822 196.613C226.682 197.412 226.559 197.862 226.559 197.862Z" fill="#4D3826"/>
<path d="M209.193 182.092C209.193 182.092 219.57 185.3 218.648 202.152C216.438 203.29 214.163 204.322 211.952 205.466C209.403 206.778 206.579 207.566 203.651 208.674C203.791 206.982 203.114 206.726 201.697 207.431C199.457 208.551 197.614 208.796 195.98 208.301C195.429 208.134 194.902 207.897 194.411 207.595C195.652 201.958 197.553 196.488 200.075 191.297C201.551 188.199 203.208 185.178 204.987 182.214L205.768 185.131C206.615 184.527 207.423 183.873 208.189 183.171C208.528 182.792 208.866 182.453 209.193 182.092Z" fill="#F79221"/>
<path d="M216.549 173.618C215.411 175.234 214.49 176.535 213.265 178.285C213.457 176.85 213.58 175.951 213.714 174.942L216.549 173.618Z" fill="#4D3826"/>
<path d="M226.839 196.64C224.394 198.858 221.643 200.714 218.672 202.152C219.594 185.3 209.216 182.092 209.216 182.092V182.063C209.98 181.217 210.721 180.313 211.515 179.432C212.576 180.791 213.48 180.476 214.431 179.269C215.481 177.95 216.549 176.644 217.616 175.337C229.417 178.889 227.673 192.475 226.839 196.64Z" fill="white"/>
<path d="M211.515 179.432C210.721 180.33 209.98 181.217 209.216 182.063L211.835 178.125L213.002 179.292L217.634 175.337C216.566 176.644 215.499 177.95 214.449 179.269C213.48 180.459 212.576 180.791 211.515 179.432Z" fill="#4D3826"/>
<path d="M213.713 174.935C213.579 175.944 213.457 176.842 213.264 178.277C214.489 176.527 215.411 175.232 216.548 173.611L213.713 174.935ZM229.259 197.101C225.957 199.902 222.339 202.308 218.479 204.27L226.558 197.854C226.558 197.854 226.681 197.405 226.838 196.635C227.241 196.255 227.632 195.859 228.005 195.439C230.624 192.569 232.835 189.722 232.497 185.814C232.185 182.103 231.517 178.43 230.502 174.847C229.527 171.499 227.142 169.014 224.085 167.188C223.35 168.209 222.749 169.137 222.055 170C220.608 171.785 219.138 173.558 217.686 175.337L213.002 179.292L211.835 178.126L209.216 182.063V182.092C208.889 182.454 208.551 182.816 208.213 183.16L207.629 182.092L211.929 175.792C211.048 176.055 210.301 176.3 209.683 176.551L209.14 174.906C209.648 174.748 209.957 174.684 210.249 174.561C211.153 174.176 212.069 173.797 212.955 173.395C219.278 170.373 223.455 165.683 225.473 159.068L227.077 159.558C226.792 160.521 226.494 161.477 226.202 162.428C225.911 163.379 225.374 164.342 224.826 165.584C229.691 168.501 232.683 172.882 233.815 178.592C234.894 184.041 235.209 189.349 231.697 194.459C231.385 194.821 231.108 195.211 230.869 195.625L230.502 195.946C230.161 196.248 229.839 196.572 229.539 196.915C229.441 196.98 229.347 197.052 229.259 197.13V197.101Z" fill="#4D3826"/>
<path d="M209.683 176.555C210.302 176.304 211.048 176.059 211.929 175.797L207.607 182.091C206.673 178.871 206.907 177.675 209.683 176.555Z" fill="#4D3826"/>
<path d="M209.684 176.556C206.907 177.675 206.674 178.889 207.607 182.091L208.191 183.159C207.424 183.863 206.616 184.519 205.77 185.125L204.988 182.208C203.209 185.171 201.552 188.193 200.076 191.29L198.624 190.596C200.059 187.594 201.531 184.609 203.04 181.642C204.463 178.836 206.126 176.147 207.747 173.446C207.986 173.05 208.599 172.863 209.042 172.595C209.141 173.079 209.264 173.569 209.322 174.059C209.304 174.348 209.243 174.633 209.141 174.905L209.684 176.556Z" fill="#4D3826"/>
<path d="M195.981 208.303C197.638 208.798 199.481 208.553 201.698 207.433C203.115 206.728 203.792 206.984 203.652 208.676C206.569 207.568 209.404 206.78 211.953 205.468C214.163 204.301 216.438 203.292 218.649 202.154C218.61 202.85 218.552 203.568 218.474 204.307C215.311 205.926 212.047 207.343 208.704 208.548C208.33 208.688 207.957 208.816 207.584 208.944L198.344 212.129L197.947 210.963C197.912 210.706 197.883 210.443 197.848 210.187L195.713 209.784L195.981 208.303Z" fill="#4D3826"/>
<path d="M197.836 210.207C197.871 210.464 197.9 210.726 197.935 210.983C196.561 211.177 195.176 211.294 193.788 211.333C193.56 211.333 193.35 210.254 192.989 209.291L195.701 209.804L197.836 210.207Z" fill="#4D3826"/>
<path d="M191.805 212.919C193.683 218.647 192.499 223.419 190.387 225.81C190.457 224.06 190.533 222.31 190.609 220.491C190.708 218.239 190.813 215.935 190.941 213.636C190.935 213.606 190.935 213.574 190.941 213.543C191.081 213.339 191.525 213.123 191.805 212.919Z" fill="#4D3826"/>
<path d="M200.076 191.297C197.554 196.488 195.653 201.958 194.411 207.595C194.902 207.897 195.429 208.134 195.981 208.301L195.712 209.794L193 209.281C193.361 210.243 193.583 211.316 193.799 211.322C195.187 211.284 196.572 211.167 197.946 210.972L198.343 212.139L194.161 213.58C194.266 214.501 194.411 215.913 194.592 217.307C195.123 221.461 193.513 224.89 190.941 227.959C190.515 228.466 189.447 228.513 188.66 228.542C188.346 228.037 188.188 227.451 188.205 226.856C188.397 224.78 188.724 222.721 189.027 220.44L190.608 220.504C190.532 222.312 190.457 224.097 190.387 225.824C192.498 223.409 193.682 218.661 191.804 212.932C191.524 213.16 191.081 213.352 190.97 213.556L189.698 212.792C190.48 212.168 191.629 211.491 191.063 209.73C190.882 209.147 191.542 208.307 191.839 207.589C192.591 205.792 193.449 204.037 194.096 202.199C194.68 200.537 194.837 198.699 195.572 197.101C196.568 194.931 197.585 192.769 198.623 190.614L200.076 191.297Z" fill="#4D3826"/>
<path d="M187.389 219.18C188.421 217.377 189.267 215.68 186.963 213.796L187.033 212.629L189.699 212.775L190.971 213.539C190.964 213.57 190.964 213.601 190.971 213.632C190.842 215.931 190.737 218.235 190.638 220.486L189.057 220.422C186.572 223.146 185.353 227.247 181.824 228.466L181.445 227.3C183.988 225.118 185.691 222.155 187.389 219.18Z" fill="#4D3826"/>
<path d="M186.962 213.793C189.267 215.683 188.421 217.375 187.388 219.177C185.691 222.152 183.988 225.115 181.415 227.279C182.541 224.555 183.748 221.785 184.822 218.973C185.224 217.946 185.306 216.797 185.702 215.765C186.049 215.063 186.472 214.402 186.962 213.793Z" fill="#4D3826"/>
<path d="M180.161 206.579C180.83 208.198 181.414 209.851 181.911 211.532C178.493 211.765 175.319 212.442 172.222 210.948C172.021 210.891 171.808 210.885 171.604 210.932C171.4 210.979 171.211 211.077 171.055 211.217C170.886 211.473 171.055 212.051 171.236 212.424C171.524 212.897 171.858 213.341 172.234 213.748C165.578 213.083 159.085 212.447 152.587 211.788C146.235 211.147 140.425 208.872 134.708 206.293C134.323 200.95 134.189 183.415 148.446 179.099C155.259 181.286 162.364 181.689 169.445 182.074C172.245 182.225 175.051 182.354 177.699 182.482C177.384 185.982 176.784 189.552 176.801 193.122C176.836 197.841 178.183 202.303 180.161 206.579Z" fill="#F79221"/>
<path d="M184.21 213.382C183.259 217.389 175.337 221.694 171.826 219.758C174.159 219.128 176.726 218.859 178.826 217.768C180.926 216.678 182.565 214.77 184.21 213.382Z" fill="#4D3826"/>
<path d="M171.826 219.757C175.326 221.693 183.259 217.388 184.21 213.381C182.565 214.769 180.92 216.688 178.843 217.768C176.767 218.847 174.177 219.127 171.826 219.757ZM148.02 177.174C157.494 180.347 167.323 180.592 177.187 180.51C178.318 180.51 178.715 180.079 179.071 179.041C179.866 176.745 180.793 174.498 181.847 172.309C182.151 171.679 183.055 171.335 183.679 170.856L184.117 171.341C177.192 185.539 176.247 199.416 185.907 212.553L187.01 212.611L186.94 213.778C186.449 214.387 186.026 215.048 185.68 215.749C185.283 216.782 185.202 217.931 184.799 218.957C183.708 221.769 182.518 224.54 181.392 227.264L181.772 228.431C180.752 228.76 179.673 228.862 178.61 228.728C180.459 225.228 182.804 222.096 183.23 217.814C180.249 219.867 177.595 221.897 174.118 221.857C172.882 221.795 171.664 221.523 170.519 221.052C170.237 220.918 169.991 220.716 169.805 220.465C169.619 220.214 169.497 219.92 169.452 219.611C169.51 219.156 170.268 218.572 170.817 218.444C172.275 218.059 173.809 217.977 175.268 217.604C176.545 217.278 177.77 216.723 179.018 216.268C178.989 216.029 178.954 215.79 178.925 215.551C177.175 215.446 175.425 215.306 173.646 215.248L172.17 215.224L172.217 213.772C171.841 213.364 171.507 212.921 171.219 212.448C171.05 212.074 170.869 211.497 171.038 211.24C171.194 211.1 171.383 211.002 171.587 210.955C171.791 210.908 172.004 210.914 172.205 210.972C175.303 212.442 178.476 211.765 181.894 211.555C181.397 209.875 180.813 208.222 180.144 206.603C178.167 202.327 176.807 197.853 176.784 193.186C176.784 189.616 177.367 186.04 177.682 182.546C175.034 182.418 172.228 182.29 169.428 182.138C162.324 181.753 155.219 181.35 148.429 179.163C148.936 179.006 149.461 178.866 150.009 178.749L147.77 178.002L148.02 177.174Z" fill="#4D3826"/>
<path d="M140.594 176.415C142.344 176.998 144.129 177.523 145.844 178.194C146.708 178.533 147.573 178.842 148.44 179.122C134.184 183.438 134.318 200.973 134.703 206.316C133.536 205.797 132.369 205.26 131.203 204.73C129.605 203.995 128.006 203.26 126.42 202.501C123.357 185.515 136.552 178.223 140.594 176.415Z" fill="white"/>
<path d="M143.808 142.881C144.621 143.145 145.361 143.596 145.967 144.199C141.16 146.568 136.336 148.767 131.699 151.31C129.196 152.681 127.09 154.746 124.699 156.297C123.281 157.207 121.613 157.721 119.991 158.438C119.834 158.11 119.713 157.766 119.63 157.412C119.408 156.344 119.781 155.475 120.954 154.495C124.687 151.374 128.094 147.863 131.786 144.695C134.044 142.741 140.034 141.557 143.808 142.881Z" fill="#C8A468"/>
<path d="M145.826 178.197C144.129 177.526 142.326 177.03 140.576 176.418C141.294 176.091 141.743 175.945 141.743 175.945L147.769 177.964L150.003 178.71C149.454 178.827 148.929 178.967 148.422 179.124C147.555 178.848 146.689 178.539 145.826 178.197Z" fill="#4D3826"/>
<path d="M140.594 176.419C136.552 178.227 123.357 185.519 126.413 202.505C123.987 201.338 121.578 200.172 119.239 198.859C114.07 195.978 110.611 191.859 110.734 185.484C110.734 183.862 111.317 183.185 113.067 182.812C114.817 182.439 116.427 181.249 117.979 180.234C121.811 177.72 125.422 174.832 129.954 173.555C131.019 173.207 132.15 173.112 133.257 173.277C134.365 173.442 135.419 173.863 136.336 174.505C137.679 175.301 139.107 175.942 140.594 176.419Z" fill="#F79221"/>
<path d="M134.837 207.875C134.837 207.875 134.755 207.292 134.685 206.317C140.402 208.884 146.212 211.171 152.564 211.812C159.062 212.471 165.555 213.107 172.211 213.772L172.17 215.225C163.128 214.927 154.022 214.717 145.273 212.308C141.623 211.314 138.027 210.132 134.499 208.767L134.837 207.875Z" fill="#4D3826"/>
<path d="M134.685 206.317C134.755 207.303 134.837 207.874 134.837 207.874L126.67 203.791C126.571 203.354 126.489 202.928 126.414 202.502C128 203.26 129.599 203.995 131.197 204.73C132.358 205.261 133.518 205.798 134.685 206.317Z" fill="#4D3826"/>
<path d="M191.151 146.257C188.52 146.373 185.668 146.368 183.247 145.487C178.22 143.711 172.922 142.823 167.591 142.862C156.706 142.803 146.684 146.362 136.925 150.859C131.378 153.408 127.452 158.635 121.321 160.192C120.767 160.391 120.242 160.666 119.764 161.009C114.522 164.093 110.09 168.382 106.837 173.521C106.254 174.426 105.671 175.458 104.382 174.519C104.022 174.225 103.594 174.025 103.138 173.938C102.682 173.85 102.211 173.877 101.768 174.017L101.477 172.302C103.483 171.999 105.56 171.136 106.487 169.969C107.823 168.347 109.182 166.743 110.524 165.133C110.553 165.092 110.524 165.011 110.524 164.941L108.056 164.456L108.325 163.103H113.091C113.091 162.94 113.091 162.782 113.091 162.619L113.826 161.126C115.383 161.639 116.211 160.805 117.051 159.959C117.635 159.376 117.751 158.279 117.926 157.801L119.577 157.369C119.66 157.723 119.782 158.067 119.939 158.396C121.56 157.678 123.229 157.165 124.646 156.255C127.061 154.703 129.167 152.638 131.646 151.267C136.284 148.724 141.108 146.525 145.914 144.157C145.309 143.554 144.569 143.102 143.756 142.838L144.182 141.672C145.16 142.053 146.095 142.538 146.97 143.118C147.623 143.501 148.389 143.641 149.134 143.515C152.739 142.803 156.292 141.8 159.914 141.182C166.628 140.068 173.57 139.951 179.794 142.506C183.843 144.166 188.22 144.875 192.586 144.577L192.691 146.181L191.151 146.257Z" fill="#4D3826"/>
<path d="M118.316 154.629C118.071 155.212 117.85 155.708 117.791 155.854L114.257 153.958L108.622 150.942C110.552 151.292 112.244 151.351 113.732 151.928C115.219 152.506 116.66 153.626 118.316 154.629Z" fill="#4D3826"/>
<path d="M109.596 159.822C110.935 160.087 112.245 160.477 113.51 160.989C113.627 161.041 113.743 161.082 113.854 161.123L113.119 162.616H108.674V161.03L109.392 160.721L109.596 159.822Z" fill="#4D3826"/>
<path d="M131.191 143.398C135.351 140.954 139.795 139.992 144.235 141.718L143.809 142.885C140.035 141.561 134.044 142.745 131.763 144.699C128.071 147.867 124.664 151.378 120.931 154.499C119.764 155.479 119.385 156.348 119.607 157.416L117.956 157.847C117.008 157.461 116.088 157.008 115.202 156.494C114.644 156.108 114.059 155.761 113.452 155.456L114.252 153.962L117.787 155.858C117.845 155.712 118.067 155.193 118.312 154.633C116.655 153.63 115.284 152.533 113.727 151.932C112.169 151.332 110.548 151.297 108.617 150.947V149.78C109.008 149.78 109.393 149.78 109.783 149.78C112.344 149.78 114.905 150.171 116.947 152.055C117.792 152.836 118.522 152.906 119.612 152.055C123.346 149.016 127.056 145.825 131.191 143.398Z" fill="#4D3826"/>
<path d="M108.675 161.053V162.639H108.343C108.343 162.803 108.343 162.96 108.343 163.124L108.074 164.477C107.188 164.302 106.324 164.127 105.426 163.929C105.158 163.87 104.954 163.526 104.3 162.931L108.675 161.053Z" fill="#4D3826"/>
<path d="M106.154 154.302L109.526 155.848L109.053 156.881L100.239 155.481C102.345 153.346 104.731 153.433 106.994 152.564L104.235 151.397C104.815 150.845 105.5 150.416 106.25 150.134C107 149.853 107.798 149.725 108.598 149.758V150.925L114.233 153.941L113.434 155.434C111.188 154.298 108.639 153.902 106.154 154.302Z" fill="#4D3826"/>
<path d="M108.342 162.639H113.119C113.119 162.802 113.119 162.96 113.119 163.123H108.353C108.342 162.96 108.342 162.802 108.342 162.639Z" fill="#4D3826"/>
<path d="M107.846 184.184C107.773 186.792 107.04 189.338 105.717 191.586L105.192 191.476C105.449 188.722 105.703 185.971 105.956 183.221L106.604 182.959C107.035 183.373 107.858 183.787 107.846 184.184Z" fill="#4D3826"/>
<path d="M134.492 208.752C128.984 206.67 123.748 203.928 118.9 200.585C118.247 200.124 117.547 199.733 116.812 199.419C116.384 199.126 115.924 198.884 115.441 198.695C115.077 198.415 114.686 198.171 114.274 197.966C113.997 197.759 113.705 197.574 113.399 197.412C113.217 197.183 113.023 196.965 112.816 196.759C111.498 194.385 110.138 191.923 108.773 189.45C108.414 190.608 107.965 191.738 107.432 192.827C107.029 193.545 106.201 194.029 105.565 194.612C104.924 193.86 103.815 193.166 103.728 192.343C103.728 192.104 103.675 191.859 103.658 191.614L105.209 191.486L105.734 191.596C107.058 189.348 107.79 186.802 107.863 184.194C107.863 183.797 107.053 183.377 106.621 182.969L107.204 181.441C107.283 181.458 107.363 181.47 107.443 181.476C109.906 181.566 112.355 181.078 114.595 180.052C117.191 178.886 119.489 177.019 121.846 175.386C126.267 172.277 131.097 170.719 136.528 171.332C137.183 171.449 137.829 171.615 138.459 171.827C138.43 172.008 138.395 172.195 138.36 172.376L136.394 172.93C137.294 173.455 138.228 173.92 139.188 174.324C141.521 175.129 143.989 175.736 146.322 176.617C146.894 176.83 147.465 177.035 148.037 177.229L147.78 177.993L141.755 175.975C141.755 175.975 141.329 176.121 140.588 176.447C139.099 175.971 137.669 175.33 136.324 174.534C135.407 173.891 134.353 173.471 133.245 173.306C132.138 173.141 131.007 173.236 129.942 173.583C125.41 174.861 121.776 177.748 117.967 180.262C116.415 181.277 114.799 182.467 113.055 182.841C111.311 183.214 110.757 183.891 110.722 185.512C110.599 191.871 114.058 196.012 119.227 198.888C121.56 200.195 123.975 201.39 126.402 202.534C126.477 202.96 126.559 203.385 126.658 203.823L134.825 207.906L134.492 208.752Z" fill="#4D3826"/>
<path d="M113.172 159.704C110.139 159.121 107.099 158.538 104.06 157.954L104.014 156.998C105.691 156.959 107.367 157.118 109.007 157.47C109.007 157.278 109.007 157.085 109.054 156.887L109.526 155.854C111.48 156.747 113.493 157.669 115.488 158.619C115.879 158.806 116.071 159.337 116.404 159.71C115.921 159.95 115.403 160.112 114.869 160.189C114.292 160.072 113.724 159.91 113.172 159.704Z" fill="#4D3826"/>
<path d="M105.752 158.983C107.018 159.292 108.319 159.532 109.597 159.817L109.392 160.739L99.2075 159.829C99.2075 159.584 99.2075 159.333 99.2075 159.088C100.479 157.797 102.197 157.041 104.008 156.977L104.055 157.933C104.008 158.178 103.967 158.417 103.921 158.662C104.539 158.767 105.152 158.872 105.752 158.983Z" fill="#4D3826"/>
<path d="M105.752 158.986C105.168 158.846 104.538 158.77 103.926 158.665C103.972 158.42 104.013 158.181 104.06 157.936C107.099 158.519 110.138 159.103 113.171 159.686C113.724 159.889 114.291 160.049 114.869 160.164C115.403 160.087 115.92 159.926 116.403 159.686C116.1 159.313 115.878 158.782 115.487 158.595C113.492 157.644 111.48 156.723 109.526 155.83L106.154 154.284C108.651 153.889 111.208 154.298 113.457 155.451C114.064 155.756 114.649 156.103 115.207 156.489C116.093 157.004 117.013 157.456 117.961 157.843C117.786 158.321 117.686 159.418 117.086 160.001C116.246 160.823 115.417 161.657 113.86 161.167C113.749 161.127 113.632 161.086 113.516 161.033C112.251 160.522 110.94 160.131 109.602 159.867C108.318 159.534 107.017 159.295 105.752 158.986Z" fill="#4D3826"/>
<path d="M101.499 179.643L102.625 181.486L101.529 183.522C100.455 185.528 99.417 187.459 98.3787 189.384L97.8887 189.18C99.0262 186.164 100.169 183.148 101.499 179.643Z" fill="#4D3826"/>
<path d="M97.8892 189.21L98.3792 189.414C99.4175 187.489 100.456 185.558 101.529 183.552L103.069 184.31C101.442 187.629 99.8083 190.943 98.1692 194.279C96.5709 194.133 96.46 192.984 96.4192 191.858C96.3724 190.939 96.3841 190.017 96.4542 189.099L97.8892 189.21Z" fill="#4D3826"/>
<path d="M98.3084 175.336L92.7144 173.586C94.9368 172.647 97.3868 173.294 98.3084 175.336Z" fill="#4D3826"/>
<path d="M92.7147 173.594L98.3088 175.344C97.3872 173.296 94.9372 172.649 92.7147 173.594ZM102.631 181.486L101.505 179.643C100.175 183.143 99.0321 186.165 97.8947 189.18L96.4422 189.07C96.6248 186.302 97.4475 183.614 98.8455 181.218C99.0963 180.792 99.3238 180.349 99.5571 179.917L99.0263 179.509C97.4863 181.387 95.9522 183.271 94.4122 185.144C93.6781 186.15 92.8626 187.094 91.9739 187.967C91.3906 188.486 90.4456 188.62 89.6406 188.93C89.5181 188.025 88.9931 186.911 89.3373 186.258C90.6591 183.852 92.1038 181.516 93.6655 179.258C94.4306 178.239 95.2545 177.265 96.133 176.341C93.543 174.224 89.6581 176.989 86.7998 174.661C89.3606 171.651 94.383 170.526 97.743 172.025C98.9382 172.45 100.227 172.543 101.47 172.293L101.762 174.008C101.312 174.154 100.873 174.333 100.45 174.545C101.616 175.869 102.608 177.146 103.74 178.307C104.871 179.468 105.968 181.148 107.164 181.422L106.58 182.95L105.933 183.213C105.684 185.958 105.429 188.71 105.169 191.467L103.617 191.595C103.43 189.507 103.53 187.384 103.506 185.272C103.518 185.067 103.489 184.861 103.421 184.667C103.353 184.472 103.247 184.294 103.11 184.14C103.11 184.181 103.069 184.228 103.045 184.269L101.505 183.51L102.631 181.486Z" fill="#4D3826"/>
</svg>
