<svg width="266" height="65" viewBox="0 0 266 65" fill="none" xmlns="http://www.w3.org/2000/svg">
<path d="M46.3528 25.6924C46.3528 22.6515 46.3528 19.5617 46.3528 16.5577C46.3528 14.6939 45.6048 13.7989 43.5082 13.7743C37.3775 13.7743 31.3449 13.2348 25.2633 13.2961C21.5013 13.5162 17.7527 13.9254 14.0319 14.5223C9.75264 15.0005 5.44891 15.6381 1.88086 12.3152C0.99804 11.4815 -0.203575 10.0224 0.0293903 9.20084C0.601268 7.73532 1.57438 6.46051 2.83724 5.52244C3.70803 5.06601 4.68908 4.86215 5.66961 4.93389C11.6286 4.46796 17.5876 3.92846 23.5589 3.64645C27.8259 3.43801 32.1419 3.46253 36.372 3.64645C40.124 3.79359 43.8637 4.44344 47.6157 4.59057C49.6266 4.66414 51.6497 4.01429 53.6728 3.9162C59.4234 3.64645 65.1862 3.36444 70.9368 3.35218C72.8672 3.32391 74.7736 3.78362 76.4789 4.68866C77.0525 5.04023 77.5228 5.53725 77.8422 6.12931C78.1616 6.72137 78.3187 7.38738 78.2975 8.05976C78.2763 8.73214 78.0777 9.38695 77.7217 9.95775C77.3657 10.5285 76.865 10.995 76.2705 11.3098C74.9891 12.0372 73.5764 12.5039 72.1139 12.6831C67.945 13.1735 63.7517 13.6395 59.5705 13.7375C56.8608 13.8111 56.2477 14.9637 56.3213 17.4159C56.5052 23.2524 56.6523 29.1133 56.4439 34.9374C56.2232 41.0681 54.8131 46.929 50.6197 51.527C46.5519 55.7219 41.3915 58.6949 35.7222 60.11C34.7506 60.2193 33.7686 60.0357 32.9021 59.5827C22.4554 55.5365 14.1667 48.5475 6.76087 40.3692C6.54017 40.1362 6.34399 39.8542 6.11102 39.6335C1.0716 34.729 3.94076 32.1418 8.44068 29.8244C10.3044 28.8435 13.2471 30.5846 12.9283 32.5342C12.4501 35.4769 14.1545 36.9728 15.9692 38.5177C19.6476 41.6934 23.1666 44.9182 27.0044 47.7996C28.9128 49.0837 31.0281 50.0294 33.2577 50.5952C35.5751 51.2941 37.2303 49.5652 38.9347 48.2778C45.6294 43.2138 47.0394 36.0164 46.7819 28.2673C46.7819 27.4457 46.7084 26.6242 46.6716 25.815L46.3528 25.6924Z" fill="#73BA9B"/>
<path d="M144.259 40.7578C144.112 38.5508 144.124 36.3315 143.781 34.1612C143.401 31.709 142.555 31.2185 140.838 32.8125C138.338 35.2443 136.022 37.8592 133.911 40.6352C133.494 41.1379 133.727 42.2047 133.739 43.0139C133.739 46.5575 133.935 50.0887 133.837 53.62C133.776 55.8638 131.041 58.8801 129.631 58.1812C127.854 57.2984 125.683 55.8025 125.156 54.0982C124.393 51.0917 124.092 47.9869 124.261 44.8899C124.261 41.8001 124.739 38.7592 124.935 35.6203C125.033 33.9037 124.8 32.1381 125.07 30.446C125.266 29.2199 125.781 27.2091 126.591 26.9516C127.351 26.7271 128.149 26.6646 128.935 26.7681C129.721 26.8716 130.476 27.1387 131.152 27.5524C132.832 28.8643 133.604 28.3003 135.149 27.4298C137.341 26.037 139.78 25.0795 142.334 24.6096C146.307 24.0701 149.409 25.8358 151.444 29.5142C153.087 32.4692 153.296 32.1258 155.699 29.7594C158.063 27.4044 160.766 25.4165 163.718 23.8617C164.539 23.5591 165.422 23.4612 166.289 23.5766C167.156 23.692 167.983 24.0171 168.696 24.5238C170.623 26.4385 172.142 28.7244 173.159 31.243C174.03 33.2907 174.005 35.7307 174.385 37.999C174.854 42.0889 173.845 46.2117 171.541 49.6228C170.315 51.5724 168.291 51.3517 166.71 50.4566C166.186 50.0833 165.747 49.6026 165.424 49.0466C165.1 48.4905 164.899 47.8718 164.834 47.2318C164.576 43.8109 164.834 40.341 164.662 36.9078C164.437 35.5253 164.046 34.1749 163.497 32.8861C162.124 33.683 160.322 34.1122 159.439 35.3383C156.521 38.7937 154.366 42.8255 153.112 47.1705C152.964 48.118 152.48 48.9804 151.748 49.5998C151.016 50.2191 150.086 50.5538 149.127 50.5424C146.932 50.5424 144.222 47.5629 144.075 45.2087C143.977 43.7374 144.075 42.2537 144.075 40.7701L144.259 40.7578Z" fill="#73BA9B"/>
<path d="M191.209 24.7707C192.9 23.8632 194.649 23.0686 196.445 22.392C198.284 21.8525 200.356 21.1659 202.122 21.5337C210.509 23.3116 216.431 31.4286 214.138 39.656C212.642 45.0142 209.552 49.3792 203.986 51.4759C201.926 52.2607 200.013 53.5236 197.916 54.1367C195.41 54.8799 192.75 54.9304 190.217 54.2827C187.685 53.635 185.375 52.3134 183.534 50.4582C181.756 48.4221 180.787 45.8043 180.812 43.1014C180.812 32.7406 181.229 22.3797 181.621 12.0189C181.769 8.81631 182.146 5.6284 182.749 2.47956C182.888 1.93229 183.153 1.42526 183.524 0.999314C183.894 0.573369 184.36 0.240418 184.883 0.0272886C186.201 -0.109752 187.52 0.27297 188.561 1.09403C190.388 2.54087 190.866 4.68661 190.842 7.05305C190.78 12.3132 190.842 17.5733 190.952 22.8334C191.004 23.4832 191.09 24.1298 191.209 24.7707ZM190.67 41.3481V43.0033C190.572 47.0741 191.173 47.6381 195.329 46.9147C199.302 46.2158 202.306 43.8371 204.967 40.9802C205.918 39.6995 206.502 38.1833 206.655 36.5952C206.809 35.0072 206.526 33.4073 205.837 31.9681C204.01 28.866 200.221 27.505 197.659 29.43C193.576 32.4954 189.088 35.6465 190.67 41.3481Z" fill="#73BA9B"/>
<path d="M243.774 42.0111C241.322 44.6105 239.066 47.2589 236.515 49.5763C232.346 53.3651 226.473 51.6975 224.327 46.4497C222.795 42.9644 222.594 39.0378 223.763 35.4145C224.022 33.9634 224.185 32.4972 224.254 31.0249C225.37 24.6858 229.318 20.5169 234.946 17.9298C237.288 16.8508 239.2 18.5919 241.015 19.8303C242.898 21.0041 244.667 22.3504 246.3 23.852C247.715 25.2409 248.862 26.8785 249.684 28.683C250.91 31.3682 251.266 34.4213 252.565 37.033C254.478 40.8953 256.869 44.5001 259.076 48.2153C260.964 51.4155 262.755 54.6525 264.778 57.7914C265.002 58.032 265.168 58.3203 265.264 58.6345C265.361 58.9487 265.384 59.2808 265.333 59.6055C265.283 59.9302 265.159 60.2391 264.971 60.509C264.784 60.7789 264.537 61.0026 264.25 61.1633C262.84 62.2423 261.553 63.1619 259.579 62.2668C256.342 60.82 254.319 58.2574 252.516 55.3882C249.733 50.9864 246.913 46.5968 244.105 42.2072C243.946 42.0356 243.676 41.9498 243.774 42.0111ZM238.575 29.3328C238.646 28.8581 238.67 28.3777 238.649 27.8983C238.465 27.0032 238.232 26.1081 238.011 25.2253C237.199 25.6495 236.444 26.177 235.767 26.7947C232.273 31.0126 232.297 36.1992 232.015 41.2631C232.015 41.6923 232.518 42.4893 232.837 42.4893C233.105 42.4555 233.364 42.366 233.596 42.2267C233.829 42.0874 234.029 41.9012 234.186 41.68C236.983 38.168 238.528 33.8226 238.575 29.3328Z" fill="#73BA9B"/>
<path d="M100.524 52.1387C103.479 54.9465 106.79 54.9956 110.247 53.8308C112.418 53.1073 114.453 51.9793 116.648 51.3785C117.85 51.0861 119.119 51.28 120.179 51.918C121.614 52.9357 120.179 53.9656 119.652 55.0324C115.373 64.3387 104.558 64.5104 98.2559 61.7761C93.7069 59.7898 90.5312 55.5351 88.6798 50.6551C88.5081 50.2014 88.5694 49.5516 88.2629 49.2695C85.5286 46.8173 86.9754 44.5121 88.3732 42.0231C89.771 39.534 90.2983 36.7997 91.7328 34.4824C96.5638 26.6596 105.784 27.2359 111.241 32.1036C114.711 35.2058 114.147 38.0014 112.92 41.3732C111.032 46.5475 106.728 48.8772 102.13 50.9248C101.689 51.1333 101.211 51.2681 100.769 51.4766C100.671 51.5869 100.659 51.7831 100.524 52.1387ZM106.275 35.1199C106.337 34.8 106.337 34.4712 106.275 34.1513C105.956 33.3543 105.551 32.5941 105.184 31.8339C104.459 32.1143 103.781 32.5029 103.173 32.9865C101.881 34.3415 100.688 35.788 99.6046 37.3147C98.9226 38.3183 98.4244 39.4351 98.1333 40.613C98.0352 40.9686 98.8444 41.9863 99.2491 41.9986C102.523 42.0844 106.287 38.3324 106.275 35.1199Z" fill="#73BA9B"/>
<path d="M81.5312 48.9859C81.5312 51.6098 81.5312 54.246 81.5312 56.8699C81.4864 59.5218 80.3931 62.048 78.4904 63.8957C77.1662 65.3793 75.6826 65.269 74.1131 64.1532C71.1581 62.0565 70.3611 59.5552 71.2685 55.8645C72.0409 52.6643 71.5873 49.1698 71.6608 45.7979C71.6608 43.2598 71.8325 40.7095 71.8202 38.1714C71.7636 37.1327 72.0777 36.1077 72.7065 35.2791C73.3352 34.4505 74.2379 33.872 75.2534 33.647C76.3197 33.5099 77.4011 33.7352 78.3239 34.2867C79.2468 34.8381 79.9574 35.6838 80.3419 36.6878C81.2369 40.6972 81.7029 44.817 82.3405 48.9491L81.5312 48.9859Z" fill="#73BA9B"/>
<path d="M73.5249 19.7094C76.4799 19.7094 79.6556 24.381 78.3191 27.0662C78.0694 27.4116 77.7488 27.6997 77.3787 27.9112C77.0087 28.1226 76.5977 28.2526 76.1733 28.2923C74.8129 28.346 73.4777 27.9143 72.4063 27.0742C71.3349 26.2342 70.5971 25.0405 70.3247 23.7066C70.1952 23.2251 70.181 22.7199 70.2831 22.2319C70.3853 21.7438 70.6008 21.2867 70.9125 20.8975C71.2241 20.5083 71.6229 20.1979 72.0768 19.9915C72.5306 19.7851 73.0267 19.6885 73.5249 19.7094Z" fill="#73BA9B"/>
</svg>
