<svg width="169" height="157" viewBox="0 0 169 157" fill="none" xmlns="http://www.w3.org/2000/svg">
<g filter="url(#filter0_d)">
<path d="M82.4326 78.0952C82.3773 78.0054 82.3151 77.9156 82.2529 77.8328C82.1008 77.6395 82.0663 77.3426 81.8935 77.1424C79.82 75.0711 78.3893 72.5856 76.8757 70.1346C76.1845 68.954 77.2213 68.7055 77.6567 68.1393C78.8825 69.8368 80.1999 71.4663 81.6032 73.0206C83.2896 74.7121 85.218 76.1689 87.0633 77.7016C88.4148 78.9105 89.8315 80.0444 91.307 81.0985C94.2376 83.0386 97.251 84.8682 100.292 86.684C102.573 88.0648 104.847 89.4456 107.204 90.6124C109.111 91.5376 111.247 91.9933 113.161 92.9184C114.35 93.5191 115.409 94.3472 116.279 95.3556C117.91 97.2266 118.539 99.6155 119.181 101.963C120.094 105.242 120.923 108.529 122.395 111.629C123.614 114.379 125.076 117.015 126.763 119.506C128.058 121.263 129.755 122.683 131.712 123.649C132.728 124.181 133.426 123.159 133.958 122.489C134.089 122.247 134.157 121.977 134.157 121.702C134.157 121.427 134.089 121.157 133.958 120.915C132.445 118.961 131.74 116.676 131.028 114.384C130.862 113.859 130.689 113.334 130.475 112.678C130.116 112.802 129.853 112.989 129.639 112.947C129.286 112.826 128.948 112.666 128.63 112.471C128.858 112.25 129.051 111.891 129.321 111.829C129.867 111.698 130.198 111.546 130.136 110.897C129.95 109.026 129.805 107.155 129.639 105.222C129.472 105.211 129.308 105.171 129.155 105.104C128.892 104.932 128.464 104.725 128.464 104.497C128.464 104.269 128.733 103.917 128.934 103.661C129.134 103.406 129.625 103.054 129.742 102.695C130.302 100.106 130.821 97.5166 131.277 94.9137C131.549 93.3688 131.743 91.8111 131.857 90.2465C132.023 87.7955 132.009 85.3307 132.23 82.8797C132.459 80.2907 132.922 77.7154 133.198 75.1264C133.492 73.5724 133.619 71.9917 133.578 70.4108C133.323 67.8424 134.269 65.4329 134.269 62.9267C134.244 60.9346 134.033 58.9492 133.64 56.996C132.853 53.5832 131.555 50.3085 129.791 47.2818C129.411 46.5914 128.941 45.9907 128.512 45.3555C127.731 44.1956 126.957 43.0426 126.162 41.9034C125.128 40.4008 123.674 39.2361 121.981 38.5549C117.371 36.6563 112.85 36.4837 108.116 38.5549C103.996 40.4406 99.9955 42.5781 96.1382 44.9551C95.3849 45.4039 94.7559 46.0459 94.0095 46.5292C93.6985 46.7295 93.1317 46.9366 92.9244 46.7916C92.777 46.6564 92.6667 46.4859 92.6038 46.2962C92.5409 46.1065 92.5275 45.9039 92.565 45.7076C93.1455 44.4718 93.8574 43.2981 94.5209 42.1037C94.6868 41.8068 94.8527 41.5168 95.0117 41.2475C91.4591 43.0979 87.9411 44.8308 84.5268 46.7709C82.7229 47.7927 81.1125 49.1528 79.4122 50.3403C78.4101 51.0308 77.3388 51.6798 76.385 52.4116C75.4312 53.1434 74.3806 54.0272 73.413 54.8695C72.4454 55.7118 71.4985 56.7336 70.441 57.5276C70.1162 57.7692 69.4319 57.5276 68.9136 57.5276C68.9007 57.1236 68.964 56.7207 69.1002 56.3401C70.7451 53.7441 72.4315 51.1896 74.1041 48.6143C74.2025 48.4656 74.2465 48.2876 74.2286 48.1103C67.3585 52.7292 61.2832 58.2594 55.2701 63.9209C56.141 65.0255 56.9773 65.9438 57.6477 66.9725C58.5807 68.4017 59.3134 69.9413 58.6637 71.7088C58.4082 72.2609 58.0905 72.782 57.7168 73.2622C57.4645 73.5851 57.2897 73.9616 57.2058 74.3625C57.1219 74.7635 57.1312 75.1783 57.233 75.5751C57.4116 76.406 57.534 77.2479 57.5993 78.0952H56.217C56.217 77.9226 56.217 77.7499 56.1686 77.5842C56.1202 77.4185 56.1271 77.1838 56.0926 76.9905V76.8662C56.0926 76.7696 56.058 76.6798 56.0373 76.5831C56.0239 76.4941 56.0031 76.4063 55.9751 76.3208C55.9607 76.25 55.9399 76.1807 55.9129 76.1137C55.9161 76.1 55.9161 76.0859 55.9129 76.0722L55.8507 75.8927C55.8244 75.8099 55.7921 75.7291 55.7539 75.6511C55.7097 75.5277 55.6565 75.4077 55.5949 75.2921L55.5466 75.2161L55.4291 75.0228C55.4291 74.9676 55.36 74.9123 55.3185 74.8571C55.2015 74.6932 55.0721 74.5386 54.9314 74.3945L54.807 74.2702C54.7242 74.189 54.6365 74.1129 54.5444 74.0424C54.4301 73.9455 54.3101 73.8556 54.185 73.7731C52.6921 72.7582 51.5862 71.1841 50.197 69.9827C49.5784 69.4216 48.8056 69.0585 47.9784 68.9402C45.511 68.7607 43.0228 68.8988 40.5554 68.6848C39.097 68.5536 37.7009 68.4569 36.3462 69.0645C35.8722 69.2447 35.4515 69.5416 35.1229 69.9275C33.6438 71.9988 32.22 74.1045 30.7893 76.2034C30.5405 76.5693 30.3539 76.9836 30.029 77.5842C30.7359 77.5481 31.4441 77.5481 32.1509 77.5842C32.6485 77.6395 33.3189 77.6671 33.5954 77.9847L33.6783 78.0813H28.8402C28.7882 77.7311 28.7882 77.3752 28.8402 77.025C28.9721 76.281 29.2492 75.5702 29.6558 74.933C30.8653 73.0827 32.1924 71.3153 33.4157 69.4787C34.798 67.4075 37.0236 67.0692 39.2076 67.0692C42.1519 67.0692 45.0894 67.4213 48.0337 67.5249C48.9043 67.5346 49.7596 67.7559 50.5254 68.1697C51.2913 68.5835 51.9448 69.1773 52.4294 69.8999C53.4524 71.2807 54.5029 72.5649 56.3967 72.7789C58.2283 70.7629 57.392 68.9264 56.0096 67.0968C54.7616 65.4559 53.4038 63.9012 51.9456 62.4434C51.0512 61.5515 50.0199 60.808 48.8907 60.2409C46.9185 59.188 44.8522 58.3212 42.7187 57.6519C40.0678 56.9453 37.3631 56.458 34.6321 56.1951C32.2062 55.9465 29.794 55.7394 27.3197 55.6151L27.3612 54.6762C29.0061 54.7452 30.658 54.9247 32.3029 54.9178C32.9949 54.8483 33.6628 54.6266 34.2589 54.2688C37.0236 52.888 40.1545 52.4047 43.009 51.2103C43.2785 51.0998 43.5619 51.017 43.9973 50.872C42.8431 50.437 41.834 50.0504 40.818 49.6844C38.3506 48.8007 35.8624 47.9515 33.4088 47.0332C32.4132 46.6391 31.4457 46.1778 30.5128 45.6524C30.3858 45.5756 30.2752 45.4744 30.1874 45.3548C30.0996 45.2351 30.0364 45.0993 30.0014 44.9551C30.0014 44.8101 30.3815 44.5063 30.6165 44.4649C31.9279 44.2264 33.2529 44.0696 34.5838 43.9954C37.9221 43.9126 41.2603 43.9333 44.5986 43.9264H53.3487L49.7685 42.8838C45.4902 41.6756 41.2051 40.4881 36.9406 39.2453C34.8671 38.6378 32.7937 37.9473 30.7202 37.2707C30.3284 37.1724 29.9643 36.9859 29.6558 36.7253C29.4433 36.4421 29.3425 36.0907 29.3724 35.738C29.3724 35.5999 29.801 35.4204 30.0636 35.3721C34.9639 34.3779 39.9126 34.3019 44.8958 34.3986C48.4207 34.4676 51.9526 34.3019 55.4775 34.2329C55.8498 34.2335 56.2101 34.1013 56.4935 33.8601C55.3461 33.6875 54.185 33.5632 53.0377 33.3215C50.0311 32.6933 47.0384 32.0166 44.0526 31.3607C43.1956 31.1743 42.3178 31.0294 41.4815 30.7601C41.2873 30.7 41.1078 30.6003 40.9543 30.4671C40.8008 30.334 40.6767 30.1704 40.5899 29.9868C40.4102 29.4207 40.8871 29.2964 41.3848 29.2412C47.0592 28.3436 52.7266 27.4116 58.401 26.4795C59.7618 26.3104 61.1069 26.0334 62.4236 25.651C61.0413 25.216 59.659 24.8018 58.3181 24.3461C54.3647 23.0205 50.4113 21.688 46.4578 20.3486C46.1691 20.279 45.9042 20.1336 45.6907 19.9274C45.4961 19.6816 45.4066 19.3689 45.4418 19.0575C45.4418 18.9125 45.9049 18.7537 46.133 18.7537C49.8307 18.6709 53.5353 18.6294 57.233 18.5466C61.8154 18.443 66.4046 18.3049 71.0561 18.1807C70.2613 17.6836 69.4734 17.1796 68.6855 16.6963C65.7964 14.9081 62.9005 13.1406 60.0391 11.3248C59.7972 11.1729 59.7488 10.7103 59.6175 10.3927C59.9771 10.1833 60.3736 10.045 60.7855 9.9854C63.6331 10.1994 66.4669 10.5861 69.3144 10.7172C72.2795 10.8553 75.2722 10.593 78.2234 10.8415C80.902 11.1476 83.5605 11.6086 86.1856 12.2224C86.7888 12.4309 87.3626 12.7163 87.8927 13.0716L88.1899 12.6987C87.948 12.5676 87.7061 12.4364 87.4988 12.2983C84.6789 10.6137 81.8658 8.92216 79.0459 7.25134C78.5414 6.94756 77.9401 6.79567 77.4701 6.45736C77.1989 6.15724 76.9793 5.81429 76.8204 5.44245C77.166 5.30437 77.553 4.99368 77.864 5.04891C80.2052 5.42972 82.5258 5.92744 84.8171 6.54021C90.0008 8.09365 95.1292 9.8197 100.361 11.4974C100.776 10.5654 101.35 10.7656 102.061 11.2972C103.705 12.5555 105.428 13.7085 107.217 14.7493L105.967 13.3684C103.368 10.4825 100.714 7.63798 98.1841 4.68989C97.2722 3.52261 96.4541 2.28522 95.7374 0.989251C95.6744 0.868848 95.6415 0.735015 95.6415 0.599166C95.6415 0.463317 95.6744 0.329481 95.7374 0.209078C95.8427 0.11732 95.9691 0.0529357 96.1054 0.0216244C96.2416 -0.00968692 96.3835 -0.00695812 96.5184 0.0295704C99.6424 1.50016 102.78 2.79124 105.289 5.47007C108.192 8.59076 110.21 12.2224 112.567 15.6675C112.782 15.9718 113.013 16.2645 113.258 16.5444C114.447 17.8562 115.645 19.1588 116.852 20.4521C117.179 20.734 117.526 20.9924 117.889 21.2254C117.758 20.3762 117.689 19.8446 117.585 19.2715C117.06 16.5099 116.583 13.6584 115.193 11.1177C114.906 10.677 114.652 10.2155 114.433 9.73685C114.336 9.46068 114.371 8.93596 114.544 8.81859C114.693 8.74846 114.858 8.71796 115.023 8.73005C115.187 8.74215 115.346 8.79642 115.484 8.88763C116.281 9.88942 117.024 10.9335 117.709 12.0152C118.874 13.7419 119.935 15.5355 120.889 17.3867C121.845 19.5006 122.667 21.6728 123.349 23.8904C124.04 26.1412 124.552 28.4679 125.229 30.7325C125.906 32.997 126.736 35.379 127.503 37.6988C127.607 38.0095 127.773 38.2995 127.876 38.6032C127.98 38.907 128.16 39.2315 128.056 39.4248C127.261 40.9783 128.056 42.1451 128.83 43.4154C129.839 45.107 131.194 46.5638 131.816 48.5314C132.438 50.4991 133.613 52.239 134.332 54.1653C135.608 57.8589 136.146 61.767 135.914 65.6676C135.914 65.8126 135.914 65.9645 135.914 66.1095C135.458 68.7814 137.145 70.328 138.9 71.8745C140.656 73.421 142.529 75.1264 144.264 76.8248C145.583 78.0423 146.792 79.373 147.878 80.8016C148.589 81.963 149.158 83.2054 149.572 84.5022C150.733 87.3744 151.894 90.2465 152.958 93.1463C153.684 95.1347 154.209 97.1921 154.914 99.1874C155.201 99.8969 155.595 100.558 156.082 101.148C156.559 101.783 156.697 102.419 156.034 102.888C155.37 103.358 155.011 102.819 154.603 102.308C152.599 99.7881 150.525 97.3233 148.514 94.8033C146.835 92.732 145.217 90.5434 143.559 88.4169C143.337 88.1269 143.095 87.8646 142.667 87.3675C142.784 88.2995 142.854 88.9485 142.95 89.5906C143.559 93.595 144.229 97.5926 144.754 101.611C145.058 103.917 145.141 106.25 145.252 108.57C145.252 108.853 144.796 109.447 144.664 109.413C144.111 109.274 143.33 109.095 143.13 108.681C141.057 104.414 139.059 100.092 136.999 95.8044C136.419 94.5823 135.672 93.4362 134.871 92.0209C134.818 92.8104 134.707 93.595 134.539 94.3683C133.903 96.4879 133.274 98.6213 132.465 100.693C131.686 102.683 131.328 104.813 131.415 106.948C131.423 108.774 131.617 110.595 131.995 112.381C132.645 114.888 133.378 117.401 135.023 119.534C135.714 120.466 136.592 121.44 135.956 122.827C137.566 124.284 139.19 125.741 140.794 127.218C142.494 128.793 144.111 130.456 145.867 131.968C148.017 133.826 150.221 135.642 152.502 137.34C155.599 139.66 158.792 141.855 161.943 144.113C162.51 144.52 163.042 144.983 163.595 145.411C164.286 145.929 165.316 146.274 164.743 147.448C164.169 148.621 163.243 148.228 162.406 148.007C159.484 147.229 156.646 146.165 153.933 144.831C151.016 143.395 148.569 141.379 146.095 139.308C144.793 138.331 143.549 137.28 142.37 136.159C139.771 133.474 137.283 130.691 134.767 127.936C134.076 127.212 133.468 126.445 132.694 125.582C131.629 126.659 130.993 125.762 130.212 125.03C129.093 123.973 127.669 123.186 126.757 121.999C125.304 120.111 123.998 118.114 122.851 116.027C121.498 113.658 120.271 111.22 119.175 108.722C118.556 107.177 118.113 105.567 117.854 103.924C117.385 101.597 116.326 99.4288 114.779 97.6271C114.118 96.8663 113.287 96.2724 112.353 95.8941C110.625 95.1554 108.745 94.748 107.052 93.9472C105.358 93.1463 103.693 91.9518 101.999 90.9576C99.5249 89.5009 97.1059 87.9198 94.5278 86.6632C91.7899 85.376 89.2487 83.7069 86.9804 81.706C86.4257 81.1473 85.7193 80.7633 84.9484 80.6014C83.3587 80.4012 83.0823 79.0894 82.4326 78.0952ZM158.418 144.976C159.3 145.336 160.205 145.636 161.128 145.874C151.963 139.232 143.26 131.978 135.078 124.16L133.882 125.085C134.912 126.266 135.845 127.432 136.882 128.503C139.336 131.05 141.775 133.619 144.346 136.042C146.146 137.842 148.118 139.461 150.235 140.875C152.883 142.395 155.615 143.764 158.418 144.976ZM153.083 97.9723L153.325 97.7583C152.91 96.7779 152.461 95.8044 152.101 94.8033C151.127 92.0416 150.36 89.2247 149.198 86.5597C148.249 84.2392 146.997 82.0546 145.473 80.0629C143.828 77.9916 141.686 76.3553 139.695 74.6016C138.499 73.5522 137.186 72.6478 135.686 71.4948V77.6326C136.025 77.8397 136.585 77.9916 136.847 78.323C137.698 79.5105 138.451 80.7671 139.218 82.0098C139.536 82.5138 139.764 83.004 140.552 82.9212C140.771 82.9514 140.981 83.0295 141.166 83.1501C141.351 83.2706 141.507 83.4306 141.623 83.6185C142.377 84.6748 142.95 85.8624 143.745 86.8773C144.734 88.1338 145.943 89.2247 146.945 90.4813C148.563 92.5042 150.069 94.6238 151.666 96.695C152.102 97.1587 152.576 97.5858 153.083 97.9723ZM143.697 106.478L144.008 106.423C143.89 104.635 143.856 102.833 143.641 101.058C143.324 98.4211 142.95 95.7906 142.467 93.1739C142.163 91.364 141.748 89.5747 141.222 87.8162C140.859 86.9997 140.395 86.2319 139.84 85.531C138.644 83.5978 137.463 81.6577 136.239 79.7384C136.094 79.5105 135.721 79.4277 135.313 79.2067C135.196 82.721 135.092 85.9866 134.995 89.2523C134.999 89.4356 135.047 89.6154 135.133 89.777C135.824 91.0681 136.516 92.3385 137.207 93.6227C138.184 95.4638 139.144 97.3256 140.089 99.2081C141.25 101.625 142.453 104.055 143.697 106.478ZM125.817 39.5077C125.86 39.2799 125.885 39.049 125.893 38.8173C125.893 38.6309 125.823 38.4513 125.796 38.2718C125.381 35.2202 124.061 32.5137 122.527 29.8971C121.94 28.8394 121.294 27.8159 120.591 26.8316C119.962 25.9962 119.064 25.361 118.456 24.5118C116.769 22.1368 114.495 20.4521 112.104 18.8987C111.676 18.7343 111.222 18.65 110.763 18.6502L110.68 18.9263C111.282 19.4096 112.27 19.6927 111.62 20.8733C110.466 20.6247 109.381 20.4452 108.662 19.168C108.086 18.0895 107.249 17.1712 106.229 16.496C103.071 14.6112 100.009 12.5054 96.4009 11.4422C92.3161 10.2409 88.3143 8.79098 84.2572 7.49299C83.2877 7.23137 82.3049 7.02164 81.3129 6.86471C81.6343 7.28275 82.0483 7.62069 82.5224 7.85201C85.5497 9.61257 88.5632 11.4008 91.6112 13.1199C92.9935 13.907 94.4587 14.5629 95.8756 15.2878C96.5668 15.6261 96.622 16.1854 96.0691 16.5789C94.7974 17.4902 94.3412 17.4626 93.0557 16.4408C92.8813 16.3071 92.688 16.2 92.482 16.1232C90.8831 15.4466 89.2843 14.7792 87.6854 14.121C84.168 12.6087 80.3802 11.8243 76.5508 11.815C72.2933 11.815 68.0358 11.6148 63.7713 11.5043C63.6114 11.5289 63.4555 11.5754 63.3083 11.6424C63.2737 11.7529 63.2322 11.8564 63.1977 11.9669C65.0845 13.0923 66.9507 14.2453 68.8514 15.3499C72.3763 17.4212 75.9012 19.4165 79.8062 20.68C80.6498 20.9734 81.4496 21.3798 82.1838 21.8882C82.4326 22.0539 82.4049 22.6339 82.5086 23.0205C82.1998 23.1014 81.8784 23.1224 81.5617 23.0826C80.5596 22.7029 79.585 22.261 78.6036 21.8261C74.389 19.9388 69.7764 19.1093 65.1675 19.4096C61.3938 19.6374 57.6062 19.6444 53.8256 19.7617C52.4433 19.81 50.9918 19.8998 49.5819 19.9688L49.5404 20.2657L56.6939 22.5303C58.7259 23.1793 60.7303 23.9802 62.8037 24.4704C65.907 25.2091 69.0656 25.7131 72.1896 26.3483C73.1365 26.5347 74.0627 26.8178 74.9957 27.0387C74.9957 27.2113 75.0303 27.3908 75.051 27.5634C74.5741 27.7982 74.0627 28.2539 73.6272 28.2193C72.2035 28.026 70.8211 27.5289 69.3974 27.3632C67.1573 27.017 64.8881 26.8967 62.624 27.0042C58.2352 27.4116 53.8671 28.1296 49.492 28.7924C47.8125 29.0478 46.1537 29.4828 44.1909 29.9316C44.6885 30.1594 44.882 30.263 45.0824 30.332C48.6834 31.561 52.4295 32.0995 56.141 32.6933C58.3319 33.0316 60.4814 33.6115 62.6309 34.1569C62.935 34.2398 63.3843 34.8474 63.3221 35.0683C63.1493 35.4825 62.8037 35.9244 62.1195 35.5309C61.6481 35.3143 61.1306 35.2171 60.6127 35.2478C56.9773 35.2478 53.3418 35.3652 49.6994 35.4135C46.5823 35.4549 43.479 35.6828 40.3549 35.4135C37.5903 35.1857 35.0676 36.0556 32.4135 36.3939C32.5449 36.5382 32.7154 36.6413 32.9043 36.6908C35.1021 37.3812 37.2931 38.0716 39.491 38.6861C43.1956 39.77 46.8933 40.8471 50.6117 41.8689C53.3501 42.5136 55.9632 43.6054 58.3458 45.1001C58.2006 46.1012 57.7583 46.4395 56.8321 45.9493C56.5283 45.8048 56.2001 45.7182 55.8645 45.6938C53.791 45.4936 51.7176 45.2451 49.6856 45.1346C46.9209 44.9827 44.1978 44.8998 41.4539 44.8584C39.567 44.8584 37.6732 44.9068 35.7864 44.9758C34.8464 44.9758 33.9064 45.1277 32.9665 45.2105C33.0909 45.5212 33.2084 45.611 33.3397 45.6593C36.595 46.8675 39.8296 48.1448 43.1265 49.2426C44.4082 49.7107 45.7732 49.9081 47.1352 49.8225C48.2963 49.7121 48.87 49.9675 49.1395 50.9893C49.1341 51.1316 49.0918 51.2701 49.0167 51.3912C48.9416 51.5122 48.8362 51.6116 48.711 51.6798C46.1745 52.2597 43.5965 52.7016 41.1083 53.3644C39.3458 53.827 37.6525 54.5795 35.8348 55.2423C36.0615 55.3155 36.2922 55.3755 36.5259 55.4218C38.4612 55.7118 40.4102 55.9534 42.3316 56.2987C46.6738 57.1214 50.6753 59.2089 53.8325 62.2984C53.9814 62.395 54.1509 62.4553 54.3273 62.4745C54.5038 62.4937 54.6823 62.4712 54.8485 62.4089C55.298 62.1545 55.7078 61.8359 56.0649 61.463C57.4887 60.1788 58.8987 58.8739 60.3294 57.5966C61.5113 56.5403 62.7208 55.5254 63.9165 54.4829L63.7783 54.3241C62.0227 55.1802 60.2672 56.0432 58.5047 56.8855C57.6961 57.2721 57.1846 56.9338 57.309 56.0432C57.3929 55.0837 57.5924 54.1379 57.9034 53.2263C58.8365 50.8858 59.8317 48.5729 60.9169 46.3221C62.0737 44.0252 63.746 42.0263 65.8033 40.4812C66.6803 39.8879 67.605 39.3683 68.568 38.9277L68.9827 39.3903C62.9765 43.1393 60.1566 48.8283 58.6913 55.3804C60.2669 54.7958 61.7906 54.0798 63.2461 53.2401C65.7061 51.8601 68.0852 50.3411 70.3719 48.6902C72.9361 46.7502 76.302 45.8043 77.9746 42.6629C78.5053 41.8145 79.1015 41.0089 79.7578 40.2533C81.0987 38.4444 82.4257 36.6148 83.7873 34.8197C84.3125 34.1293 84.9138 33.4941 85.4046 32.9142C85.7563 33.3629 86.049 33.8548 86.2754 34.3779C86.335 34.5815 86.3517 34.7952 86.3243 35.0056C86.2969 35.2159 86.2262 35.4183 86.1165 35.5999C84.9415 36.9186 83.6421 38.1269 82.4533 39.4386C81.2645 40.7504 80.0066 42.2901 78.7971 43.7261C78.7073 43.8366 78.7349 44.0437 78.7073 44.2509C80.2347 43.7814 80.2347 43.7814 80.5319 44.2992C78.2165 44.8584 75.832 47.2818 75.4312 49.4911C78.4653 49.2495 80.1725 46.5569 82.8888 45.2313C82.7436 45.7836 82.6814 46.0321 82.5639 46.4671C84.9691 45.0863 87.2292 43.9333 89.3995 42.6008C91.5697 41.2682 93.816 39.7286 95.9655 38.2097C96.9676 37.5193 98.108 36.7667 98.7301 35.7587C99.4973 34.4952 99.7945 32.9418 100.271 31.4988C100.472 30.9051 100.714 30.622 101.405 30.9327C102.372 31.3677 102.656 32.1202 101.909 32.9142C100.638 34.295 100.092 35.9382 99.6009 37.6574C99.442 38.2166 99.2692 38.7758 99.0687 39.4594C101.287 38.7689 103.216 38.0371 105.234 37.5124C107.459 36.9393 109.726 36.5596 111.973 36.0625C112.394 35.9297 112.803 35.7611 113.196 35.5585C113.196 35.448 113.196 35.3376 113.196 35.2202C112.284 34.8543 111.364 34.5298 110.431 34.1224C109.18 33.577 107.936 33.0177 106.706 32.424C106.499 32.3204 106.409 31.9821 106.264 31.7336C106.554 31.6714 106.886 31.4781 107.114 31.5679C108.869 32.2583 110.57 32.997 112.36 33.6391C113.5 34.0465 114.433 35.0752 115.878 34.6471C116.287 34.5959 116.703 34.6099 117.108 34.6886C117.025 35.0131 116.942 35.379 116.811 35.8347L120.502 36.5251L120.626 36.2282C120.376 35.8369 120.068 35.4855 119.714 35.1857C116.603 33.287 113.984 30.6151 110.424 29.4276C110.169 29.3378 110.01 28.7993 109.92 28.4403C109.92 28.3643 110.473 27.9777 110.611 28.0467C111.95 28.5614 113.256 29.1563 114.523 29.828C115.539 30.4476 116.51 31.1399 117.426 31.8993C118.946 33.0661 120.502 34.1915 121.918 35.4756C123.335 36.7598 124.393 38.0509 125.789 39.5422L125.817 39.5077ZM123.446 28.5991C122.402 23.9388 121.49 19.2025 118.241 15.3707C118.926 20.2174 119.658 25.0227 123.418 28.6336L123.446 28.5991ZM112.712 17.7595C112.201 17 111.793 16.3787 111.385 15.7849C109.664 13.2097 108.095 10.517 106.188 8.08675C104.518 5.80573 102.326 3.95689 99.7945 2.69459C99.3245 2.47365 98.8268 2.31486 98.3361 2.12844C98.3238 2.4676 98.437 2.7994 98.6541 3.06051C100.465 5.15477 102.283 7.24214 104.107 9.3226C105.718 11.1522 107.487 12.8644 108.911 14.8459C109.818 16.2092 111.141 17.2433 112.685 17.794L112.712 17.7595ZM104.301 39.1487L104.107 38.762C102.338 39.6458 100.582 40.5433 98.7992 41.3856C98.3952 41.6021 97.9282 41.6704 97.4791 41.5789C97.2579 41.503 97.2303 40.8885 97.1197 40.4605C97.0851 40.35 97.0575 40.2326 97.0022 40.0117L94.6039 44.382L104.301 39.1487ZM75.4726 51.1688C75.3897 51.086 75.3137 50.9962 75.2376 50.9065C74.1663 51.8938 72.4177 52.1354 72.0376 54.11L75.4726 51.1688Z" fill="#4D3826"/>
<path d="M161.128 145.874C160.205 145.636 159.3 145.336 158.418 144.976C155.614 143.751 152.882 142.368 150.235 140.833C148.118 139.42 146.146 137.801 144.346 136.001C141.775 133.577 139.336 131.009 136.882 128.461C135.845 127.391 134.912 126.224 133.882 125.044L135.078 124.118C143.258 131.951 151.962 139.219 161.128 145.874Z" fill="#FF8888"/>
<path d="M153.324 97.7583L153.083 97.9723C152.586 97.569 152.124 97.1257 151.7 96.6467C150.104 94.5755 148.597 92.5042 146.98 90.433C145.977 89.1764 144.768 88.0856 143.78 86.829C142.985 85.8141 142.397 84.6266 141.658 83.5702C141.536 83.3905 141.376 83.2393 141.19 83.1273C141.004 83.0152 140.796 82.9449 140.579 82.9212C139.792 83.0041 139.563 82.5139 139.246 82.0099C138.478 80.7671 137.725 79.5106 136.875 78.323C136.612 77.9571 136.052 77.8052 135.714 77.6326V71.4948C137.214 72.6478 138.527 73.5661 139.722 74.6017C141.713 76.3554 143.869 78.0124 145.501 80.0629C147.024 82.0547 148.277 84.2393 149.226 86.5597C150.387 89.2247 151.154 92.0831 152.129 94.8033C152.461 95.8044 152.91 96.7779 153.324 97.7583Z" fill="#4D3826"/>
<path d="M143.98 106.402L143.669 106.458C142.452 104.034 141.25 101.625 140.02 99.1875C139.07 97.3234 138.11 95.4616 137.137 93.602C136.446 92.3179 135.755 91.0475 135.064 89.7564C134.977 89.5948 134.93 89.415 134.926 89.2317C135.023 85.966 135.126 82.7003 135.244 79.1861C135.652 79.407 136.025 79.4899 136.17 79.7177C137.393 81.6371 138.575 83.5772 139.771 85.5103C140.326 86.2113 140.79 86.9791 141.153 87.7956C141.678 89.554 142.094 91.3434 142.397 93.1533C142.853 95.7699 143.254 98.4004 143.572 101.038C143.828 102.833 143.862 104.635 143.98 106.402Z" fill="#4D3826"/>
<path d="M134.2 62.9888C134.262 65.4951 133.281 67.9046 133.509 70.473C133.55 72.0539 133.423 73.6346 133.129 75.1885C132.825 77.7776 132.389 80.3529 132.161 82.9419C131.94 85.3929 131.954 87.8577 131.788 90.3087C131.674 91.8732 131.48 93.431 131.207 94.9759C130.751 97.5788 130.233 100.168 129.673 102.757C129.59 103.116 129.12 103.385 128.864 103.724C128.609 104.062 128.36 104.303 128.394 104.559C128.429 104.814 128.837 104.994 129.086 105.166C129.239 105.233 129.403 105.273 129.569 105.284C129.735 107.217 129.88 109.088 130.067 110.959C130.129 111.608 129.797 111.76 129.251 111.891C128.989 111.953 128.795 112.312 128.56 112.533C128.878 112.728 129.217 112.888 129.569 113.01C129.784 113.051 130.046 112.865 130.406 112.74C130.62 113.396 130.793 113.921 130.959 114.446C131.65 116.738 132.375 119.023 133.889 120.977C134.02 121.219 134.088 121.489 134.088 121.764C134.088 122.039 134.02 122.309 133.889 122.551C133.357 123.242 132.659 124.243 131.643 123.711C129.686 122.745 127.989 121.325 126.694 119.569C125.007 117.078 123.545 114.441 122.326 111.691C120.854 108.57 120.024 105.284 119.112 102.025C118.469 99.6777 117.84 97.2888 116.209 95.4178C115.34 94.4094 114.281 93.5813 113.092 92.9806C111.178 92.0624 109.042 91.5998 107.134 90.6746C104.75 89.5078 102.476 88.1132 100.223 86.7461C97.2093 84.9303 94.1959 83.1007 91.2377 81.1607C89.7621 80.1066 88.3455 78.9726 86.994 77.7638C85.1486 76.2311 83.2203 74.7743 81.5339 73.0828C80.1306 71.5285 78.8132 69.899 77.5874 68.2015C77.152 68.7676 76.0807 69.0162 76.8064 70.1968C78.32 72.6478 79.7507 75.154 81.8242 77.2046C81.997 77.3703 82.0315 77.6671 82.1836 77.895C82.2458 77.9778 82.308 78.0676 82.3633 78.1573H57.5991C57.5337 77.3101 57.4114 76.4681 57.2328 75.6373C57.131 75.2405 57.1217 74.8257 57.2056 74.4247C57.2895 74.0237 57.4643 73.6473 57.7166 73.3244C58.0917 72.8377 58.4094 72.3095 58.6635 71.7502C59.3132 69.9828 58.5805 68.4431 57.6475 67.014C56.9563 65.9853 56.1408 65.067 55.2699 63.9623C61.283 58.3009 67.3582 52.7707 74.2284 48.1518C74.2463 48.3291 74.2023 48.5071 74.1039 48.6558C72.4313 51.231 70.7449 53.7856 69.1 56.3815C68.9638 56.7622 68.9005 57.165 68.9134 57.5691C69.4317 57.5691 70.116 57.8038 70.4408 57.5691C71.4983 56.7751 72.4106 55.7878 73.4128 54.9109C74.415 54.0341 75.3618 53.2263 76.3848 52.4531C77.4077 51.6798 78.4099 51.0722 79.412 50.3818C81.1123 49.1943 82.7227 47.8342 84.5266 46.8123C87.9409 44.893 91.4382 43.16 95.0115 41.289C94.8525 41.5583 94.6866 41.8482 94.5207 42.1451C93.8296 43.3395 93.1384 44.5133 92.5648 45.7491C92.5273 45.9454 92.5407 46.148 92.6036 46.3377C92.6665 46.5274 92.7768 46.6979 92.9242 46.8331C93.1315 46.978 93.6983 46.7709 94.0093 46.5707C94.7488 46.0874 95.3916 45.4453 96.138 44.9965C99.9741 42.6385 103.951 40.5173 108.047 38.6447C112.781 36.5734 117.301 36.7599 121.911 38.6447C123.604 39.3259 125.059 40.4906 126.093 41.9932C126.888 43.1393 127.662 44.2923 128.443 45.4453C128.871 46.0805 129.341 46.7019 129.721 47.3716C131.485 50.3983 132.783 53.673 133.571 57.0858C133.962 59.0299 134.173 61.006 134.2 62.9888ZM124.448 69.8102C125.409 68.5536 126.584 67.2349 125.789 65.4053C125.519 64.7959 125.217 64.2013 124.883 63.624C122.367 59.2192 123.266 59.4815 118.379 58.9499C118.227 58.9499 118.082 58.8947 117.937 58.8878C117.53 58.828 117.115 58.9306 116.783 59.1735C116.451 59.4163 116.227 59.7798 116.161 60.1857C115.857 61.5666 115.587 63.0096 115.29 64.5078C115.346 64.9571 115.464 65.3963 115.643 65.8127C116.371 67.0871 117.169 68.3203 118.034 69.5064C120.149 72.3026 122.824 71.985 124.448 69.8102ZM106.595 86.8083C107.342 86.035 106.595 83.7428 104.784 82.5622C102.52 81.0827 100.015 80.0081 97.3821 79.3863C96.297 79.1101 95.8616 79.8419 96.5044 80.9397C96.9621 81.7128 97.5625 82.3923 98.2737 82.9419C100.015 84.2123 101.806 85.3998 103.609 86.4907C104.529 87.0706 105.683 87.9613 106.595 86.8359V86.8083Z" fill="#C8A468"/>
<path d="M125.789 65.4329C126.584 67.2625 125.409 68.5812 124.448 69.8378C122.824 71.985 120.149 72.3026 118.034 69.534C117.169 68.3479 116.371 67.1147 115.643 65.8403C115.464 65.4239 115.346 64.9847 115.29 64.5354C115.587 63.0372 115.857 61.6218 116.161 60.2134C116.227 59.8075 116.451 59.4439 116.783 59.2011C117.115 58.9582 117.53 58.8556 117.937 58.9154C118.082 58.9154 118.227 58.9568 118.38 58.9775C123.266 59.5091 122.368 59.2468 124.883 63.6516C125.217 64.2289 125.519 64.8235 125.789 65.4329ZM118.124 62.906H122.962C122.784 62.6553 122.58 62.4239 122.354 62.2156C121.633 61.593 120.847 61.0491 120.011 60.5931C119.727 60.455 119.14 60.959 118.684 61.1592C118.628 61.1592 118.511 61.1178 118.483 61.1592C118.255 61.4009 117.903 61.6425 117.875 61.9118C117.89 62.2565 117.975 62.5946 118.124 62.906Z" fill="#4D3826"/>
<path d="M125.865 38.8725C125.858 39.1043 125.832 39.3352 125.789 39.5629C124.407 38.0785 123.225 36.677 121.891 35.4619C120.557 34.2467 118.919 33.0523 117.398 31.8855C116.482 31.1261 115.512 30.4339 114.495 29.8142C113.228 29.1425 111.922 28.5477 110.583 28.033C110.418 27.9639 109.851 28.3505 109.892 28.4265C109.982 28.7855 110.141 29.324 110.397 29.4138C113.956 30.6013 116.576 33.2732 119.686 35.1719C120.041 35.4717 120.348 35.8231 120.598 36.2144L120.474 36.5113L116.783 35.8209C116.914 35.3307 116.997 34.9993 117.08 34.6748C116.675 34.5961 116.26 34.5821 115.85 34.6334C114.468 35.0614 113.472 34.0327 112.332 33.6253C110.563 33.004 108.842 32.2445 107.086 31.5541C106.858 31.4643 106.526 31.6577 106.236 31.7198C106.381 31.9476 106.471 32.2859 106.678 32.4102C107.909 33.004 109.153 33.5632 110.404 34.1086C111.309 34.4953 112.228 34.8405 113.168 35.2064C113.168 35.3238 113.168 35.4342 113.168 35.5447C112.776 35.7473 112.366 35.9159 111.945 36.0487C109.699 36.5458 107.432 36.9255 105.206 37.4986C103.209 38.0233 101.26 38.7413 99.0411 39.4456C99.2415 38.7551 99.4143 38.2028 99.5733 37.6436C100.064 35.9244 100.61 34.2605 101.882 32.9004C102.628 32.1064 102.345 31.3539 101.377 30.9189C100.686 30.6082 100.444 30.9189 100.244 31.485C99.7668 32.928 99.4696 34.4815 98.7024 35.7449C98.1011 36.7529 96.9607 37.4848 95.9378 38.1959C93.7883 39.7148 91.6112 41.2061 89.3718 42.587C87.1325 43.9678 84.9415 45.1001 82.5363 46.4533C82.6538 46.0183 82.716 45.7629 82.8611 45.2175C80.1449 46.5431 78.4377 49.2357 75.4035 49.4773C75.8044 47.268 78.1682 44.8446 80.5043 44.2854C80.2071 43.7676 80.2071 43.7676 78.6796 44.2371C78.6796 44.0299 78.6796 43.8228 78.7695 43.7124C79.979 42.2763 81.1678 40.8126 82.4257 39.4249C83.6836 38.0371 84.9138 36.9048 86.0888 35.5861C86.1985 35.4045 86.2693 35.2021 86.2967 34.9918C86.324 34.7814 86.3074 34.5677 86.2478 34.3641C86.0214 33.841 85.7287 33.3491 85.3769 32.9004C84.8862 33.4804 84.2849 34.1155 83.7596 34.806C82.3773 36.601 81.071 38.4307 79.7302 40.2395C79.0738 40.9951 78.4776 41.8007 77.947 42.6491C76.3089 45.7905 72.943 46.7364 70.3442 48.6765C68.0669 50.3311 65.697 51.8548 63.2461 53.2401C61.779 54.0768 60.2438 54.7882 58.6568 55.3666C60.122 48.8145 62.942 43.1255 68.9481 39.3765L68.5334 38.9139C67.5705 39.3545 66.6457 39.8741 65.7688 40.4674C63.7114 42.0125 62.0391 44.0114 60.8823 46.3083C59.7972 48.5798 58.8088 50.8927 57.8689 53.2125C57.5579 54.1241 57.3583 55.07 57.2745 56.0294C57.1501 56.9201 57.6615 57.2584 58.4702 56.8717C60.2326 56.0294 61.9882 55.1664 63.7437 54.3103L63.8819 54.4691C62.6862 55.5047 61.4767 56.5403 60.2948 57.5829C58.8641 58.8601 57.4542 60.165 56.0304 61.4492C55.6733 61.8221 55.2634 62.1408 54.8139 62.3951C54.6478 62.4574 54.4692 62.4799 54.2928 62.4607C54.1163 62.4415 53.9468 62.3812 53.7979 62.2846C50.6408 59.1951 46.6393 57.1076 42.2971 56.2849C40.3757 55.9397 38.4266 55.698 36.4913 55.408C36.2577 55.3617 36.0269 55.3017 35.8002 55.2285C37.6179 54.5381 39.3113 53.8477 41.0737 53.3506C43.5895 52.6602 46.1676 52.2459 48.6765 51.666C48.8017 51.5979 48.907 51.4984 48.9821 51.3774C49.0572 51.2563 49.0996 51.1179 49.105 50.9756C48.8354 49.9537 48.2618 49.6983 47.1006 49.8087C45.7386 49.8944 44.3736 49.6969 43.0919 49.2288C39.7951 48.131 36.5605 46.8538 33.3051 45.6455C33.1738 45.5972 33.0563 45.5074 32.9319 45.1968C33.8719 45.1139 34.8118 44.9965 35.7518 44.962C37.6387 44.893 39.5324 44.817 41.4193 44.8446C44.1839 44.8861 46.9071 44.9689 49.651 45.1208C51.7245 45.2313 53.7979 45.4798 55.8299 45.68C56.1656 45.7044 56.4937 45.7911 56.7976 45.9355C57.7237 46.4257 58.1799 46.0874 58.3112 45.0863C55.9287 43.5916 53.3155 42.4999 50.5771 41.8551C46.8587 40.8333 43.161 39.7839 39.4564 38.6723C37.3207 38.0509 35.1298 37.3605 32.9319 36.6701C32.743 36.6206 32.5725 36.5175 32.4412 36.3732C35.0952 36.0349 37.6179 35.165 40.3826 35.3928C43.4789 35.6552 46.603 35.3928 49.727 35.3928C53.3694 35.3445 57.0049 35.2616 60.6404 35.2271C61.1583 35.1964 61.6758 35.2937 62.1471 35.5102C62.8383 35.9037 63.1769 35.4619 63.3497 35.0476C63.4258 34.8543 62.9765 34.2191 62.6586 34.1363C60.5091 33.5908 58.3596 33.0109 56.1686 32.6726C52.4225 32.0788 48.6765 31.5403 45.1101 30.3113C44.9096 30.2423 44.7161 30.1387 44.2185 29.9109C46.1814 29.4828 47.8402 29.0272 49.5197 28.7717C53.8878 28.0813 58.2559 27.3909 62.6517 26.9835C64.9158 26.876 67.185 26.9963 69.425 27.3425C70.8488 27.4944 72.2311 28.033 73.6549 28.1987C74.0903 28.2539 74.6018 27.7775 75.0787 27.5428C75.0787 27.3702 75.0441 27.1906 75.0234 27.018C74.0903 26.7764 73.1642 26.4933 72.2173 26.3276C69.0933 25.6924 65.9347 25.1884 62.8314 24.4497C60.7579 23.9595 58.7535 23.1586 56.7215 22.5096L49.568 20.245L49.6095 19.9482C50.9918 19.8791 52.4364 19.7894 53.8532 19.741C57.6339 19.6237 61.4214 19.6168 65.1951 19.3889C69.8046 19.1005 74.4148 19.9419 78.6243 21.8399C79.6058 22.2749 80.5803 22.7167 81.5825 23.0965C81.8992 23.1363 82.2206 23.1152 82.5294 23.0343C82.4257 22.6477 82.4533 22.0677 82.2045 21.902C81.471 21.4039 80.6736 21.0068 79.8338 20.7214C75.9288 19.458 72.4039 17.4281 68.879 15.3914C66.9783 14.2867 65.1122 13.1337 63.2253 12.0083C63.2599 11.8979 63.3013 11.7943 63.3359 11.6839C63.4832 11.6168 63.639 11.5703 63.799 11.5458C68.0634 11.6562 72.321 11.8841 76.5785 11.8565C80.4004 11.8781 84.1785 12.6719 87.6854 14.1901C89.2889 14.8437 90.8877 15.5111 92.482 16.1923C92.688 16.2691 92.8813 16.3761 93.0557 16.5099C94.3412 17.5317 94.7974 17.5593 96.0691 16.648C96.6221 16.2544 96.546 15.6952 95.8756 15.3569C94.4587 14.6665 93.0004 13.976 91.6112 13.189C88.5632 11.4698 85.5497 9.68164 82.5224 7.92108C82.0483 7.68976 81.6343 7.35182 81.3129 6.93378C82.3049 7.09071 83.2877 7.30043 84.2572 7.56206C88.3143 8.86004 92.3162 10.3237 96.4009 11.5113C100.023 12.5745 103.071 14.6803 106.229 16.5651C107.249 17.2403 108.086 18.1585 108.662 19.237C109.353 20.5143 110.466 20.6938 111.62 20.9424C112.27 19.7617 111.282 19.4787 110.68 18.9954L110.763 18.7192C111.222 18.7191 111.676 18.8034 112.104 18.9678C114.495 20.5212 116.769 22.2058 118.456 24.5809C119.064 25.4301 119.962 26.0653 120.591 26.9007C121.294 27.885 121.94 28.9084 122.527 29.9661C124.061 32.5828 125.381 35.2892 125.796 38.3409C125.796 38.5066 125.851 38.6861 125.865 38.8725Z" fill="#4D3826"/>
<path d="M122.962 62.906H118.124C117.979 62.5983 117.897 62.2651 117.882 61.9256C117.882 61.6563 118.262 61.4147 118.49 61.173C118.49 61.173 118.635 61.2145 118.691 61.173C119.147 60.9728 119.734 60.4826 120.018 60.6069C120.854 61.0629 121.64 61.6068 122.361 62.2294C122.584 62.4338 122.785 62.6605 122.962 62.906Z" fill="white"/>
<path d="M118.214 15.4052C121.462 19.237 122.36 23.9733 123.418 28.6336C119.658 25.0227 118.925 20.2174 118.214 15.4052Z" fill="#4D3826"/>
<path d="M111.357 15.8195C111.765 16.4339 112.173 17.0346 112.684 17.7941C111.133 17.2521 109.799 16.2226 108.883 14.8598C107.459 12.899 105.69 11.1868 104.08 9.33643C102.236 7.25597 100.419 5.16861 98.6263 3.07434C98.4093 2.81323 98.2961 2.48143 98.3084 2.14227C98.7991 2.32869 99.2968 2.48748 99.7667 2.70842C102.298 3.97072 104.49 5.81956 106.16 8.10058C108.068 10.5516 109.636 13.2442 111.357 15.8195Z" fill="#4D3826"/>
<path d="M104.784 82.5898C106.561 83.7704 107.342 86.0419 106.595 86.8359C105.669 87.9612 104.522 87.0706 103.609 86.5183C101.805 85.4274 100.015 84.2399 98.2736 82.9695C97.5624 82.4198 96.962 81.7404 96.5042 80.9673C95.8615 79.8695 96.2969 79.1377 97.382 79.4139C100.015 80.0356 102.52 81.1103 104.784 82.5898Z" fill="#C8A468"/>
<path d="M104.086 38.7414L104.28 39.128L94.6035 44.3614L97.0018 39.991C97.0571 40.212 97.0848 40.3294 97.1193 40.4398C97.2299 40.8334 97.2576 41.4824 97.4787 41.5583C97.9279 41.6498 98.3949 41.5814 98.7988 41.365C100.561 40.5434 102.317 39.6458 104.086 38.7414Z" fill="#4D3826"/>
<path d="M75.2721 50.9272C75.3481 51.017 75.4241 51.1068 75.507 51.1896L72.0513 54.1308C72.4176 52.1562 74.1662 51.9145 75.2721 50.9272Z" fill="#4D3826"/>
<path d="M57.7928 80.9811C57.9656 83.37 58.2075 85.7657 58.2006 88.1546C58.2006 90.288 57.931 92.4282 57.7098 94.5547C57.6273 95.508 57.4348 96.4486 57.1362 97.3578C56.8803 97.7677 56.4731 98.0605 56.0027 98.1725C55.8644 98.214 55.4567 97.6202 55.3115 97.2612C53.3555 93.1187 52.9892 88.4998 51.9732 84.0811C51.6415 82.6243 51.1231 81.202 50.6877 79.766L50.3905 79.8074C50.345 80.0206 50.3264 80.2386 50.3352 80.4564C50.8052 83.8325 51.3443 87.1949 51.7175 90.571C52.0464 92.9506 52.2173 95.3493 52.229 97.7514C52.229 100.133 51.7797 102.515 51.5378 104.897C51.5496 105.084 51.5038 105.269 51.4065 105.429C50.9088 105.947 50.3767 106.43 49.8583 106.927C49.4482 106.547 49.0986 106.107 48.8216 105.622C48.5192 104.79 48.3151 103.926 48.2133 103.047C47.7986 99.8848 47.6189 96.6881 47.0107 93.5674C46.2228 89.5009 45.4487 85.3998 43.237 81.6784C43.396 83.9568 43.5895 86.2283 43.707 88.4998C43.7899 89.9911 43.7554 91.4962 43.7899 92.9875C43.884 94.0526 43.9233 95.1219 43.9074 96.191C43.7814 97.5485 43.562 98.8957 43.2508 100.223C43.182 100.4 43.069 100.556 42.9226 100.677C42.7762 100.798 42.6013 100.879 42.4145 100.913C42.2144 100.876 42.0252 100.794 41.8603 100.675C41.6954 100.555 41.559 100.401 41.4607 100.223C40.4585 97.6823 39.4909 95.1347 38.5855 92.5525C37.6801 89.9704 37.0511 87.4434 36.042 84.9579C35.2637 83.2478 34.3241 81.6157 33.236 80.0836C32.9474 79.6073 32.4901 79.257 31.9548 79.1022C31.4195 78.9474 30.8455 78.9995 30.3469 79.2482C29.8715 79.3636 29.3847 79.4261 28.8955 79.4346C28.8609 78.9375 28.7918 78.4956 28.7642 78.0952H33.6023L34.3694 78.9789C34.6044 79.2551 34.8325 79.5381 35.0606 79.8212C35.2887 80.1043 35.5444 80.4495 35.7518 80.774C35.9707 81.0973 36.1692 81.434 36.3462 81.782C37.1564 83.5999 37.849 85.4678 38.4196 87.3744C39.1592 89.494 39.8019 91.6412 40.5899 93.7538C40.9354 94.7066 41.4193 95.6111 41.8409 96.5155L42.2556 96.4741C42.2556 94.9759 42.3039 93.4846 42.2556 91.9933C42.1519 89.5837 42.0137 87.1604 41.8063 84.7784C41.6335 82.8314 41.3847 80.8914 41.0737 78.9582C41.035 78.8041 41.0349 78.6428 41.0735 78.4887C41.1121 78.3345 41.1881 78.1923 41.2948 78.0745H42.7877L42.9675 78.1435L43.1471 78.2125L43.313 78.2954L43.4651 78.3851C43.6554 78.4902 43.8131 78.6455 43.9212 78.8339C44.899 80.731 45.7062 82.7111 46.3334 84.7508C47.8348 89.6018 48.7058 94.6255 48.9252 99.6984C49.0971 101.331 49.3999 102.947 49.8306 104.531H50.3421C50.6888 102.324 50.9195 100.1 51.0333 97.8687C50.9615 92.5367 50.4086 87.222 49.3814 81.9891C49.257 81.2987 49.1395 80.6428 49.0289 79.9662C48.9183 79.2896 48.8216 78.682 48.7179 78.033H51.5793C51.6346 78.1504 51.6899 78.2816 51.7382 78.399L51.7797 78.4887C51.8419 78.6337 51.9041 78.7787 51.9594 78.9237C52.0147 79.0687 52.1115 79.3103 52.1737 79.5036C52.2359 79.6969 52.2428 79.6831 52.2704 79.7798C52.2981 79.8764 52.2704 79.7798 52.2704 79.7798C52.3326 79.9662 52.3948 80.1526 52.4432 80.339C53.3625 83.7014 53.9085 87.1604 54.6687 90.5641C54.9867 92.0002 55.4636 93.4017 55.8644 94.8171H56.3344C56.596 92.9007 56.7552 90.9717 56.8113 89.0383C56.7629 85.7105 56.521 82.3827 56.2861 79.0687C56.2861 78.7235 56.2446 78.3782 56.2239 78.0261H57.6062C57.6822 79.0548 57.7237 80.0214 57.7928 80.9811Z" fill="#4D3826"/>
<path d="M56.7767 89.1419C56.7206 91.0752 56.5614 93.0042 56.2998 94.9207H55.8299C55.429 93.5053 54.9521 92.1038 54.6342 90.6677C53.8739 87.2639 53.3279 83.8049 52.4086 80.4426C52.3605 80.2534 52.3029 80.0667 52.2358 79.8834C52.2098 79.7892 52.1775 79.697 52.1391 79.6072C52.0769 79.4139 52.0008 79.2206 51.9248 79.0272C51.8488 78.8339 51.8073 78.7373 51.7451 78.5923L51.7036 78.5025C51.6553 78.3782 51.6 78.2609 51.5447 78.1366H56.2031C56.2031 78.4818 56.2376 78.827 56.2653 79.1791C56.4865 82.4517 56.7284 85.7795 56.7767 89.1419Z" fill="#4D3826"/>
<path d="M55.9958 67.0968C57.3781 68.9264 58.2144 70.7629 56.3829 72.779C54.5167 72.5649 53.4385 71.2877 52.4156 69.8999C51.931 69.1773 51.2775 68.5835 50.5116 68.1697C49.7457 67.7559 48.8905 67.5346 48.0199 67.5249C45.0755 67.4213 42.1381 67.0692 39.1938 67.0692C37.0097 67.0692 34.8118 67.3799 33.4019 69.4788C32.1785 71.3153 30.8515 73.0827 29.642 74.9331C29.2215 75.5717 28.9325 76.2875 28.7919 77.0388C28.7398 77.389 28.7398 77.745 28.7919 78.0952H5.42383C5.54884 78.0335 5.65592 77.9407 5.73485 77.8259C5.95763 77.3329 6.04585 76.7898 5.99058 76.2518C5.73485 71.5983 6.87526 67.3937 10.0891 63.914C11.7134 62.1603 13.5449 60.5931 15.1277 58.8256C16.103 57.7342 17.3058 56.8695 18.6515 56.2922C19.9972 55.7149 21.4532 55.439 22.917 55.484C24.3754 55.484 25.8406 55.5392 27.3059 55.6152C29.7526 55.7394 32.1924 55.9466 34.6183 56.1951C37.3493 56.4581 40.054 56.9453 42.7049 57.6519C44.8384 58.3212 46.9047 59.188 48.8769 60.241C50.006 60.808 51.0373 61.5515 51.9318 62.4434C53.39 63.9012 54.7478 65.4559 55.9958 67.0968Z" fill="#C8A468"/>
<path d="M56.1407 77.5842C56.1407 77.7499 56.1407 77.9225 56.1891 78.0951H51.5307C51.04 77.0181 50.4594 75.9617 49.9341 74.8985C49.7911 74.7598 49.6158 74.6588 49.4239 74.6045C49.2321 74.5503 49.0298 74.5445 48.8352 74.5878C48.6732 74.6787 48.5374 74.8096 48.4405 74.9679C48.3437 75.1263 48.2892 75.3068 48.2823 75.4922C48.3998 76.3622 48.5311 77.2321 48.6693 78.0951H42.7876C42.6428 78.0429 42.4951 77.9991 42.3452 77.9639L42.0135 77.9018C41.8912 77.8771 41.7647 77.8817 41.6446 77.9153C41.5244 77.9489 41.414 78.0105 41.3223 78.0951H33.6228L33.5399 77.9985C33.2634 77.6809 32.593 77.6533 32.0954 77.598C31.3885 77.5619 30.6803 77.5619 29.9735 77.598C30.2984 76.9974 30.485 76.5831 30.7338 76.2172C32.1645 74.1459 33.5883 72.0056 35.0673 69.9413C35.3959 69.5554 35.8167 69.2585 36.2907 69.0783C37.673 68.4707 39.0553 68.5674 40.4998 68.6985C42.9673 68.9126 45.4554 68.7745 47.9229 68.954C48.7501 69.0722 49.5228 69.4354 50.1415 69.9965C51.5238 71.1979 52.6366 72.7582 54.1295 73.7869C54.2561 73.8671 54.3763 73.9572 54.4889 74.0562C54.581 74.1267 54.6687 74.2028 54.7515 74.284L54.8759 74.4083C55.0166 74.5523 55.146 74.707 55.263 74.8709C55.3044 74.9261 55.339 74.9813 55.3736 75.0366L55.491 75.2299C55.503 75.2576 55.5193 75.2833 55.5394 75.3058C55.601 75.4215 55.6542 75.5415 55.6984 75.6649C55.7377 75.7424 55.7701 75.8233 55.7952 75.9065C55.82 75.9648 55.8408 76.0248 55.8574 76.086C55.8606 76.0996 55.8606 76.1138 55.8574 76.1274C55.8844 76.1944 55.9052 76.2638 55.9196 76.3346C55.9476 76.4201 55.9684 76.5079 55.9818 76.5969C55.9818 76.6867 56.0232 76.7833 56.0371 76.88V77.0043C56.0993 77.1907 56.12 77.4047 56.1407 77.5842Z" fill="#4D3826"/>
<path d="M55.8643 76.1136C55.8913 76.1806 55.9121 76.25 55.9265 76.3208C55.9121 76.25 55.8913 76.1806 55.8643 76.1136Z" fill="#4D3826"/>
<path d="M55.5396 75.292C55.5195 75.2694 55.5032 75.2438 55.4912 75.2161L55.5396 75.292Z" fill="#4D3826"/>
<path d="M55.3736 75.0229C55.3736 74.9676 55.3045 74.9124 55.2631 74.8572C55.3045 74.9124 55.3391 74.9676 55.3736 75.0229Z" fill="#4D3826"/>
<path d="M54.8759 74.3945L54.7515 74.2703L54.8759 74.3945Z" fill="#4D3826"/>
<path d="M52.4084 80.4357C52.36 80.2493 52.2978 80.0629 52.2356 79.8765C52.3026 80.0598 52.3603 80.2465 52.4084 80.4357Z" fill="#4D3826"/>
<path d="M51.9248 79.0134C51.8695 78.8684 51.8073 78.7234 51.7451 78.5784C51.8073 78.7234 51.8695 78.8615 51.9248 79.0134Z" fill="#4D3826"/>
<path d="M49.9341 74.8985C50.4594 75.9618 51.0399 77.0181 51.5307 78.0952H48.6693C48.531 77.2321 48.3997 76.3622 48.2822 75.4923C48.2892 75.3069 48.3437 75.1263 48.4405 74.968C48.5373 74.8096 48.6732 74.6787 48.8352 74.5878C49.0298 74.5446 49.2321 74.5503 49.4239 74.6045C49.6157 74.6588 49.7911 74.7598 49.9341 74.8985Z" fill="#4D3826"/>
<path d="M49.3329 82.0512C50.3601 87.2841 50.9129 92.5988 50.9847 97.9309C50.8709 100.162 50.6402 102.386 50.2936 104.593H49.7821C49.3514 103.009 49.0486 101.393 48.8767 99.7605C48.6573 94.6876 47.7862 89.664 46.2849 84.8129C45.6577 82.7732 44.8505 80.7931 43.8727 78.896C43.7646 78.7076 43.6068 78.5524 43.4166 78.4473L43.2645 78.3575L43.0986 78.2747C43.0417 78.2446 42.9814 78.2214 42.9189 78.2056L42.7876 78.0952H48.6832C48.7799 78.7441 48.8836 79.3862 48.9942 80.0283C49.1048 80.6704 49.2084 81.3815 49.3329 82.0512Z" fill="#4D3826"/>
<path d="M42.7877 78.0951H41.3431C41.4348 78.0106 41.5452 77.9489 41.6654 77.9153C41.7856 77.8817 41.912 77.8771 42.0343 77.9018L42.3661 77.964C42.5089 77.9998 42.6497 78.0436 42.7877 78.0951Z" fill="#4D3826"/>
<path d="M42.29 92.014C42.3522 93.5053 42.29 94.9966 42.29 96.4948L41.8753 96.5362C41.4537 95.6111 40.9699 94.7066 40.6244 93.7746C39.8641 91.6619 39.1937 89.5147 38.4541 87.3951C37.8835 85.4885 37.1909 83.6206 36.3806 81.8027C36.2037 81.4547 36.0052 81.118 35.7863 80.7947C35.572 80.4702 35.337 80.1526 35.0951 79.8419C34.8532 79.5312 34.6458 79.2758 34.4039 78.9996L33.6229 78.0952H41.3293C41.2226 78.213 41.1466 78.3552 41.108 78.5094C41.0694 78.6635 41.0695 78.8248 41.1082 78.9789C41.4192 80.9121 41.668 82.8521 41.8408 84.7991C42.0481 87.2018 42.1864 89.6044 42.29 92.014Z" fill="#4D3826"/>
<path d="M34.3899 78.9789C34.6249 79.255 34.8599 79.5381 35.0811 79.8212C34.853 79.5381 34.6249 79.255 34.3899 78.9789Z" fill="#4D3826"/>
<path d="M5.42378 78.0951C5.17935 78.2363 4.89485 78.2921 4.61513 78.2539C4.43773 78.1543 4.28836 78.0116 4.18084 77.8391C4.07331 77.6665 4.01111 77.4696 4 77.2666C4.18661 74.36 4.26955 71.4257 5.29937 68.6571C5.90068 67.0415 6.42596 65.3569 7.8221 64.1625C8.1184 63.833 8.39312 63.4848 8.64458 63.12C9.28044 62.4295 9.93013 61.7391 10.6006 61.0487C11.0222 60.6345 11.5682 60.3583 11.9414 59.8957C14.2637 57.0926 17.1458 55.0628 20.7537 54.5588C22.8271 54.2619 24.9559 54.5588 27.0639 54.6485H27.3473L27.3058 55.5875C25.8406 55.5116 24.3753 55.4632 22.917 55.4563C21.4533 55.4168 19.9987 55.698 18.6554 56.2801C17.3121 56.8622 16.1127 57.731 15.1415 58.8256C13.538 60.593 11.7271 62.1603 10.1029 63.9139C6.88904 67.366 5.74863 71.5983 6.00436 76.2517C6.05963 76.7898 5.9714 77.3329 5.74863 77.8259C5.66588 77.9425 5.55384 78.0354 5.42378 78.0951Z" fill="#4D3826"/>
</g>
<defs>
<filter id="filter0_d" x="0" y="0" width="168.91" height="156.252" filterUnits="userSpaceOnUse" color-interpolation-filters="sRGB">
<feFlood flood-opacity="0" result="BackgroundImageFix"/>
<feColorMatrix in="SourceAlpha" type="matrix" values="0 0 0 0 0 0 0 0 0 0 0 0 0 0 0 0 0 0 127 0"/>
<feOffset dy="4"/>
<feGaussianBlur stdDeviation="2"/>
<feColorMatrix type="matrix" values="0 0 0 0 0 0 0 0 0 0 0 0 0 0 0 0 0 0 0.25 0"/>
<feBlend mode="normal" in2="BackgroundImageFix" result="effect1_dropShadow"/>
<feBlend mode="normal" in="SourceGraphic" in2="effect1_dropShadow" result="shape"/>
</filter>
</defs>
</svg>
