<svg width="117" height="150" viewBox="0 0 117 150" fill="none" xmlns="http://www.w3.org/2000/svg">
<g filter="url(#filter0_d)">
<path d="M80.4753 62.3108L77.7429 61.6655L74.6175 77.9785C77.8459 79.041 80.7705 80.8688 83.1428 83.3066C86.5163 86.7551 89.556 90.4789 89.9873 95.4755C90.1653 97.7711 89.8386 100.078 89.0302 102.233C87.6595 105.827 85.9875 109.338 83.6036 112.44C82.6465 113.683 81.6097 114.867 80.6496 116.113C78.1771 119.346 76.5317 122.832 76.9718 127.08C77.1964 129.253 77.477 129.833 79.5389 129.857C83.32 129.904 87.113 129.937 90.8882 129.718C94.501 129.507 98.099 129.004 101.697 128.563C104.116 128.267 106.423 128.389 108.429 129.96C109.756 130.955 110.999 132.057 112.145 133.255C113.265 134.486 112.346 137.446 110.73 137.87C109.552 138.212 108.317 138.318 107.097 138.18C102.834 137.529 98.5982 137.825 94.3356 138.115C87.1544 138.604 79.9643 139.276 72.7712 138.157C72.2395 138.074 71.6398 138.101 71.1879 137.861C69.0817 136.724 66.8898 137.34 64.7363 137.479C60.518 137.754 56.3173 137.89 52.1669 136.842C51.2276 136.606 50.2321 136.514 49.34 136.162C46.4361 135.016 46.0019 132.636 46.0078 129.809C46.0078 125.89 45.7124 121.968 45.4495 118.052C45.3372 116.38 44.7553 115.116 42.7495 114.618C40.3656 114.026 38.2299 112.748 36.809 110.575C36.6617 110.384 36.491 110.213 36.3009 110.066C36.2743 110.042 36.2064 110.066 36.0291 110.066C35.7987 111.199 35.4915 112.357 35.3349 113.535C34.8505 117.22 33.2848 120.491 31.601 123.732C29.2764 128.161 26.3496 132.246 22.9044 135.869C22.157 136.665 20.7746 137.1 19.6284 137.245C14.7247 137.867 9.79152 138.243 4.88489 138.849C0.0727901 139.441 -4.70682 140.368 -9.53073 140.839C-12.9988 141.176 -16.514 141.013 -20.0057 141.052C-22.3335 141.078 -24.4988 140.534 -26.2091 138.858C-27.5059 137.585 -27.1899 136.407 -25.3938 135.883C-23.7041 135.392 -21.9613 135.081 -20.242 134.699C-18.248 134.252 -16.257 133.794 -14.2572 133.364C-11.5276 132.772 -8.74496 132.382 -6.06862 131.609C-2.9569 130.721 0.0965805 129.639 3.07407 128.371C5.86799 127.17 8.56601 125.757 11.1445 124.144C16.2106 120.95 20.0863 116.696 22.0743 110.886C23.7625 105.947 24.7083 100.785 24.8807 95.5672C25.0047 92.0152 25.6871 88.4631 26.3163 84.9554C27.5127 78.2775 30.5317 72.3484 33.9377 66.5526C37.0896 61.189 40.0732 55.701 41.9903 49.7424C43.4674 45.175 44.5131 40.4714 46.0669 35.9366C47.4641 31.8605 49.2159 27.9 50.9558 23.9512C52.5716 20.2807 54.3795 16.6961 56.2258 12.8095C54.9851 13.5051 54.1579 14.3192 53.3013 14.3458C52.4446 14.3724 51.6027 13.5939 51.3369 13.2002L55.4134 8.29541C55.1416 6.20856 54.8226 4.16907 54.6424 2.11774C54.5922 1.5938 54.7488 0.723541 55.0767 0.563697C55.5936 0.312091 56.5005 0.26769 56.9584 0.584418C59.5165 2.28646 61.9802 4.1365 64.497 5.89479C65.014 6.26184 65.5427 6.72065 66.1276 6.85681C66.7318 6.99636 67.3658 6.91445 67.9148 6.62593C69.6872 5.49518 71.3533 4.19571 73.1198 3.05608C73.5363 2.78671 74.1951 2.89919 74.7416 2.83703C74.7947 3.37577 75.0222 3.97074 74.8745 4.44731C74.328 6.20263 73.6604 7.92244 73.0519 9.61856C76.4608 11.069 79.7398 12.4721 83.0217 13.8603C85.1309 14.7484 85.441 15.4913 84.7616 17.7084C84.7334 17.9199 84.7551 18.135 84.8248 18.3365C84.8946 18.538 85.0105 18.7203 85.1634 18.8688C87.1603 20.5175 89.2488 22.0627 91.228 23.7351C92.0051 24.4101 92.6728 25.202 93.2072 26.0825C94.4774 28.1545 93.7714 30.1052 91.1541 30.6824C89.0272 31.1501 86.8087 31.2745 84.6257 31.3633C81.7012 31.4728 78.7709 31.3899 75.6898 31.3899C75.7076 31.8975 75.7559 32.4036 75.8346 32.9055C76.2983 35.315 76.8685 37.7037 77.2466 40.1251C77.4031 41.1374 77.7724 41.5874 78.7679 41.6673C82.5313 41.9633 86.2918 42.3066 90.0552 42.6175C91.2368 42.7151 92.4834 42.5346 93.5646 42.8898C95.4227 43.4966 95.9514 42.3185 96.4773 41.0812C97.331 39.0594 98.4505 38.7901 99.8537 40.5069C101.806 42.875 103.661 45.3555 105.466 47.8597C105.762 48.2682 105.59 49.0615 105.508 49.6595C105.452 50.0828 105.174 50.4735 105.017 50.8879C102.723 57.0172 100.432 63.1485 98.1433 69.2818C97.5525 70.8802 96.8554 72.458 96.4152 74.1008C96.0991 75.2848 95.2897 75.421 94.4212 75.4032C91.8956 75.3499 89.3699 75.1931 86.8442 75.0776C85.8664 75.0332 84.8886 74.9089 83.9168 74.9592C82.8828 75.0125 81.8342 75.4358 80.8357 75.3203C79.6985 75.2094 78.6055 74.8223 77.6513 74.1926C77.2259 73.8966 77.158 72.6563 77.3559 71.9725C78.3041 68.7401 79.406 65.5669 80.4753 62.3108ZM87.8102 45.169L93.6414 46.9451C93.798 46.2761 93.9013 45.838 94.055 45.1868H87.7983C87.5857 45.024 87.3848 44.7339 87.1573 44.7132C84.0054 44.4172 80.8534 44.1597 77.6838 43.8932C77.7248 44.4848 77.7189 45.0787 77.666 45.6693C77.4031 47.2766 78.1564 48.209 79.6511 48.2919C81.1459 48.3748 82.7263 48.1261 84.2653 48.0285C85.0009 47.9841 85.4026 47.6851 85.4292 46.8444C85.4765 45.3259 86.3243 44.7783 87.8102 45.169ZM72.656 77.2473C73.4152 72.0258 74.1773 67.0055 74.8509 61.9704C74.9927 60.9225 74.6323 60.0434 73.4388 59.5461C71.304 58.6743 69.2183 57.6861 67.1911 56.586C64.8811 55.3162 62.6537 53.8924 60.4471 52.4419C60.1517 52.2555 60.0867 51.5095 60.1753 51.0773C60.2255 50.8465 60.8724 50.5268 61.1678 50.5949C61.8657 50.7689 62.5331 51.0484 63.147 51.4237C64.1041 51.9979 64.952 52.7735 65.9386 53.2826C68.03 54.3601 70.1559 55.3714 72.3163 56.3167C75.1285 57.5481 77.9053 58.9541 80.8416 59.7829C83.7011 60.591 86.7497 60.7775 89.7037 61.2008C90.1424 61.2241 90.5817 61.1679 91.0005 61.035C92.0374 60.7953 92.445 60.1322 91.5618 59.4011C90.4186 58.4509 89.0951 57.7109 87.8279 56.9176C84.8414 55.0468 81.7928 53.2737 78.8595 51.326C74.4137 48.3659 70.0329 45.3141 65.6461 42.2682C65.1794 41.9455 64.8485 41.4245 64.4645 40.9953C65.1174 40.7793 65.8943 40.2257 66.3965 40.4033C67.5603 40.8355 68.6002 41.6081 69.6725 42.2741C71.4656 43.3812 73.2468 44.5149 75.034 45.6367L75.5273 45.3407C74.8007 41.1433 74.0828 36.943 73.3354 32.7486C73.173 31.828 73.2468 30.7594 71.95 30.4397C71.7166 30.3835 71.439 29.6642 71.5305 29.3593C71.6221 29.0544 72.1716 28.785 72.529 28.7673C73.5552 28.762 74.5809 28.8143 75.6012 28.9242C77.7429 29.1106 79.8786 29.4126 82.0232 29.5162C84.3569 29.6198 86.6994 29.5399 88.6225 29.5399C88.6225 27.8793 88.655 26.6183 88.6048 25.3602C88.5867 24.9947 88.4341 24.6488 88.1765 24.3893C86.6433 23.0543 85.0688 21.7697 83.4766 20.4435C83.066 21.1984 82.6436 21.8969 82.295 22.631C81.9228 23.4184 81.7721 24.3716 81.2345 24.9991C80.8328 25.4698 79.8875 25.8871 79.3262 25.7362C77.8492 25.3721 77.8256 24.1348 78.1269 22.8797C78.5138 21.2694 78.8979 19.6591 79.2908 18.0518C79.8963 15.5861 79.6866 15.1835 77.3529 14.3576C77.2141 14.3073 77.0575 14.2807 76.9305 14.2274C74.0621 13.1262 71.0431 12.3063 68.3638 10.847C65.1617 9.10055 62.2579 6.80945 59.2271 4.74924C58.5594 4.29635 57.9007 3.83162 56.917 3.1508C57.2922 5.16069 57.623 6.78577 57.8889 8.41973C58.1163 9.80504 58.7249 11.3295 58.3733 12.5638C57.4428 15.8199 56.3853 19.1026 54.8285 22.0864C52.6425 26.266 50.56 30.4723 49.1007 34.9509C47.086 41.1197 45.5558 47.472 43.1926 53.4928C41.0982 58.8209 38.3687 63.93 35.4944 68.8851C32.2805 74.4234 29.7636 80.2163 28.6175 86.465C27.4566 92.7729 27.0814 99.2259 26.018 105.557C25.4862 108.719 24.4139 111.848 23.1673 114.817C21.7937 118.093 19.2976 120.547 16.6862 123.028C11.9598 127.509 6.27032 129.913 0.409546 132.124C-2.42632 133.196 -5.38624 133.951 -8.32254 134.726C-10.4937 135.303 -12.7063 135.73 -14.9189 136.135C-17.6395 136.635 -20.3808 137.044 -23.1104 137.5C-23.1813 137.5 -23.2344 137.636 -23.4353 137.867C-23.0453 138.06 -22.6338 138.206 -22.2094 138.302C-20.3572 138.473 -18.4844 138.808 -16.644 138.684C-12.9367 138.435 -9.24419 137.947 -5.55167 137.5C-1.26834 136.996 3.01499 136.416 7.29242 135.922C10.3085 135.573 13.3334 135.167 16.3642 135.034C19.7495 134.895 22.4436 133.761 24.2514 130.771C24.9191 129.661 25.823 128.699 26.4729 127.575C28.0247 124.903 29.5244 122.201 30.9718 119.47C32.9333 115.761 33.0662 111.555 34.0293 107.576C34.1161 106.993 34.0593 106.398 33.8638 105.842C33.0131 102.882 32.1269 99.9215 31.2377 96.9614C31.0162 96.2303 30.8655 95.6738 31.9319 95.4518C32.8624 95.2594 33.3941 95.4903 33.5655 96.3842C34.2098 99.8582 35.2814 103.239 36.7558 106.448C37.8695 108.843 39.4971 110.773 41.757 111.777C44.8574 113.116 48.0714 114.174 51.3605 114.938C53.6646 115.494 56.1194 115.42 58.5033 115.675C60.6361 115.903 62.7689 116.158 64.8869 116.486C65.2916 116.548 65.8706 116.936 65.9652 117.285C66.541 119.295 67.0113 121.333 67.3742 123.392C67.649 125.02 67.327 126.808 67.8735 128.303C68.21 129.195 68.3048 130.162 68.1482 131.103C68.0448 131.991 68.29 133.225 68.8749 133.805C69.773 134.639 70.8779 135.215 72.0741 135.475C76.9098 136.538 81.8223 136.419 86.7378 136.2C92.1791 135.954 97.6145 135.525 103.059 135.312C105.236 135.226 107.428 135.496 109.812 135.608C109.702 135.132 109.741 134.59 109.493 134.356C107.682 132.654 105.983 130.567 103.177 130.804C101.05 130.979 98.9616 131.766 96.8406 131.855C90.5219 132.118 84.1944 132.216 77.8699 132.284C75.7193 132.308 74.8686 131.491 74.4905 129.351C73.6427 124.579 74.3989 120.077 77.3618 116.193C80.6112 111.925 83.707 107.609 85.9757 102.683C87.9608 98.3734 87.8574 94.2767 85.5356 90.251C81.0779 82.5281 74.263 78.7629 65.4275 78.6179C63.7467 78.5883 62.0659 78.8813 60.3821 78.9494C56.9584 79.0885 53.5317 79.1507 50.3177 80.5952C49.7515 80.8846 49.1276 81.0424 48.4921 81.057C48.2482 81.0205 48.0155 80.9297 47.811 80.7915C47.6066 80.6532 47.4356 80.4708 47.3105 80.2577C47.2012 80.0446 47.6296 79.2987 47.9634 79.1625C49.9603 78.3426 51.9602 77.1556 54.0368 76.975C60.0778 76.4452 66.1601 75.6578 72.656 77.2473ZM87.5679 47.9426C87.305 48.7507 86.9771 49.8578 86.5901 50.9323C86.0614 52.3591 86.345 53.3004 87.8249 53.9989C89.4965 54.8101 91.1128 55.7307 92.6636 56.7548C95.1775 58.365 95.532 60.8782 93.3962 62.3167C92.6134 62.8466 91.4643 63.0094 90.4776 63.0153C88.336 63.0301 86.1913 62.7963 84.0438 62.7608C83.6184 62.7608 82.9153 63.0893 82.7972 63.4268C81.7249 66.4993 80.756 69.6074 79.6275 73.1121C84.0585 73.1121 88.2621 73.0796 92.4775 73.1299C93.6946 73.1299 94.3445 72.7096 94.7403 71.5403C95.6797 68.749 96.749 65.9991 97.7327 63.2196C99.2718 58.8594 100.704 54.4607 102.359 50.1479C102.837 48.9017 102.772 48.0225 101.998 47.0457C101.112 45.9298 100.291 44.7635 99.3988 43.6535C98.9814 43.2124 98.5322 42.8028 98.0547 42.428C97.2896 44.133 96.6397 45.5864 95.9012 47.2292C97.653 47.5105 99.1506 47.8213 100.628 47.9545C101.478 48.0255 102.246 48.2238 102.105 49.0941C102.037 49.5411 101.136 50.1834 100.628 50.1775C99.073 50.1357 97.5246 49.9634 95.9987 49.6624C93.2426 49.1592 90.4894 48.5494 87.5679 47.9485V47.9426ZM48.2794 116.616C48.5483 121.512 48.8466 126.299 49.0623 131.091C49.1627 133.326 49.8923 134.347 52.1729 134.625C54.796 134.945 57.4399 135.161 60.0808 135.294C62.1958 135.401 64.3227 135.315 66.5796 135.315L65.4453 130.819C64.0244 130.819 62.6537 130.866 61.289 130.819C57.8032 130.668 56.0987 128.791 56.2671 125.322C56.3469 123.8 56.465 122.279 56.6009 120.763C56.8638 117.803 56.7516 117.723 53.901 117.469C51.9749 117.279 50.0578 116.88 48.2735 116.613L48.2794 116.616ZM59.6258 118.333C59.552 119.446 59.487 120.367 59.4309 121.293C59.3423 122.773 59.1886 124.23 59.1946 125.698C59.1946 127.353 60.3407 128.554 61.93 128.616C62.9373 128.655 63.9505 128.498 65.2798 128.409C65.0022 125.354 64.7717 122.436 64.4291 119.529C64.3848 119.162 63.7822 118.641 63.3774 118.579C62.1309 118.386 60.8754 118.395 59.6199 118.33L59.6258 118.333ZM72.2129 5.75862L68.7744 8.33981L71.1377 9.18639C71.4537 8.16516 71.7639 7.16762 72.207 5.75566L72.2129 5.75862ZM82.3748 50.4291L82.292 50.7932L83.7927 51.6812C84.0704 51.1069 84.286 50.6689 84.6375 49.9525L82.3748 50.4291Z" fill="#4D3826"/>
<path d="M72.6568 77.2491C66.158 75.6595 60.0786 76.4469 54.0465 76.9797C51.9787 77.1603 49.97 78.3473 47.973 79.1672C47.6392 79.3034 47.2109 80.0553 47.3202 80.2625C47.4452 80.4755 47.6162 80.6579 47.8207 80.7962C48.0251 80.9344 48.2579 81.0252 48.5018 81.0617C49.1372 81.0471 49.7612 80.8893 50.3274 80.5999C53.5414 79.1554 56.968 79.0932 60.3917 78.9541C62.0755 78.886 63.7564 78.593 65.4372 78.6226C74.2727 78.7676 81.0935 82.5328 85.5452 90.2557C87.8671 94.2784 87.9705 98.3751 85.9854 102.688C83.7167 107.608 80.6297 111.929 77.3715 116.198C74.4174 120.081 73.6523 124.584 74.5001 129.355C74.8783 131.495 75.729 132.315 77.8795 132.289C84.2041 132.221 90.5316 132.123 96.8503 131.859C98.9713 131.771 101.06 130.971 103.187 130.809C105.993 130.578 107.692 132.665 109.502 134.361C109.75 134.595 109.712 135.136 109.821 135.613C107.437 135.494 105.246 135.225 103.068 135.317C97.6242 135.53 92.1888 135.959 86.7475 136.205C81.8409 136.424 76.9195 136.542 72.0838 135.48C70.8875 135.22 69.7827 134.643 68.8845 133.81C68.2937 133.218 68.0545 131.993 68.1579 131.108C68.3145 130.166 68.2197 129.2 67.8831 128.307C67.3366 126.813 67.6586 125.025 67.3839 123.397C67.0144 121.345 66.5381 119.315 65.9571 117.314C65.8626 116.964 65.2836 116.577 64.8789 116.514C62.7609 116.186 60.6281 115.922 58.4953 115.703C56.1114 115.449 53.6566 115.523 51.3524 114.966C48.0634 114.202 44.8493 113.144 41.7489 111.805C39.4891 110.796 37.8614 108.866 36.7478 106.477C35.2733 103.267 34.2017 99.8866 33.5574 96.4126C33.3861 95.5246 32.8544 95.2878 31.9238 95.4802C30.8574 95.7022 31.0081 96.2587 31.2297 96.9898C32.1159 99.9499 33.0021 102.91 33.8558 105.87C34.0513 106.426 34.1081 107.022 34.0212 107.605C33.0582 111.583 32.9253 115.789 30.9638 119.498C29.5203 122.229 28.0206 124.931 26.4648 127.603C25.8149 128.722 24.911 129.675 24.2434 130.8C22.4355 133.789 19.7415 134.923 16.3562 135.062C13.3253 135.187 10.3004 135.592 7.28436 135.95C2.99808 136.445 -1.2823 137.025 -5.55972 137.528C-9.25224 137.963 -12.9448 138.452 -16.6521 138.712C-18.4924 138.836 -20.3653 138.502 -22.2174 138.33C-22.6419 138.234 -23.0534 138.088 -23.4434 137.895C-23.2425 137.664 -23.1893 137.54 -23.1184 137.528C-20.3889 137.072 -17.6476 136.664 -14.9269 136.163C-12.7144 135.758 -10.4959 135.332 -8.33059 134.754C-5.39429 133.979 -2.42255 133.224 0.401495 132.153C6.26227 129.941 11.9606 127.538 16.6782 123.056C19.2895 120.576 21.7857 118.122 23.1593 114.845C24.4059 111.885 25.4782 108.747 26.0099 105.586C27.0733 99.2543 27.4485 92.8013 28.6094 86.4934C29.7556 80.2447 32.2724 74.4518 35.4864 68.9135C38.3607 63.9554 41.099 58.8493 43.1846 53.5212C45.5478 47.5004 47.0839 41.1481 49.0926 34.9793C50.5519 30.5007 52.6374 26.2944 54.8205 22.1148C56.3802 19.131 57.4377 15.8454 58.3653 12.5922C58.7168 11.3579 58.1083 9.83344 57.8808 8.44813C57.615 6.81417 57.29 5.19205 56.909 3.1792C57.8926 3.86002 58.5514 4.32475 59.219 4.77764C62.2498 6.84969 65.1536 9.12895 68.3558 10.8754C71.0292 12.3347 74.0482 13.1546 76.9224 14.2558C77.0583 14.3091 77.2178 14.3357 77.3449 14.386C79.6785 15.2119 79.8883 15.6145 79.2827 18.0802C78.8898 19.6875 78.5058 21.2978 78.1188 22.9081C77.8234 24.1632 77.8411 25.4005 79.3182 25.7646C79.8794 25.9037 80.8247 25.4982 81.2265 25.0275C81.7641 24.397 81.9147 23.4439 82.2869 22.6594C82.6385 21.9253 83.0609 21.2268 83.4686 20.4719C85.0608 21.7981 86.6353 23.0827 88.1684 24.4177C88.4261 24.6772 88.5787 25.0231 88.5967 25.3886C88.6469 26.6467 88.6145 27.9076 88.6145 29.5683C86.6914 29.5683 84.3488 29.6482 82.0152 29.5446C79.8706 29.4498 77.7348 29.1479 75.5931 28.9526C74.5728 28.8427 73.5471 28.7904 72.521 28.7957C72.1635 28.7957 71.6082 29.0917 71.5225 29.3877C71.4368 29.6837 71.7086 30.4119 71.942 30.4681C73.2388 30.7878 73.1649 31.8564 73.3274 32.777C74.0748 36.9714 74.8044 41.1717 75.5193 45.3691L75.026 45.6651C73.2388 44.5433 71.4575 43.4096 69.6644 42.3025C68.5921 41.6365 67.5523 40.8639 66.3884 40.4317C65.8862 40.2452 65.1093 40.7988 64.4565 41.0237C64.8494 41.4529 65.1802 41.9739 65.6381 42.2966C70.0248 45.3425 74.4056 48.4002 78.8514 51.3544C81.7848 53.3021 84.8333 55.0752 87.8198 56.946C89.0871 57.7393 90.4105 58.4793 91.5537 59.4295C92.4399 60.1606 92.0293 60.8237 90.9924 61.0634C90.5736 61.1963 90.1343 61.2525 89.6956 61.2292C86.7416 60.8059 83.699 60.6194 80.8336 59.8113C77.8973 58.9825 75.1205 57.5765 72.3083 56.3451C70.142 55.4018 68.0161 54.3904 65.9305 53.311C64.9439 52.8019 64.0961 52.0263 63.139 51.4521C62.5315 51.0614 61.8681 50.7659 61.1716 50.5759C60.8762 50.5078 60.2293 50.8275 60.1791 51.0584C60.0904 51.4906 60.1643 52.2424 60.4508 52.423C62.6575 53.8704 64.8819 55.2942 67.1949 56.5671C69.222 57.6672 71.3077 58.6553 73.4426 59.5271C74.6242 60.0244 74.9964 60.9036 74.8546 61.9514C74.1693 67.0073 73.416 72.0275 72.6568 77.2491ZM73.8384 22.5588L75.0821 23.3935C75.4315 22.9129 75.7454 22.4074 76.0215 21.8809C76.6566 20.4335 77.2651 18.9682 77.7939 17.4764C77.8054 17.2836 77.7668 17.0912 77.6819 16.918C77.5969 16.7447 77.4686 16.5964 77.3094 16.4877C76.0299 16.0438 74.721 15.6897 73.3924 15.428C72.8843 15.3333 72.2994 15.6204 71.75 15.724C71.75 15.9075 71.7293 16.091 71.7204 16.2746L75.4041 17.9292C74.9078 19.3619 74.4352 20.762 73.8296 22.5588H73.8384Z" fill="#E8B158"/>
<path d="M87.5682 47.9482C90.4898 48.5402 93.2429 49.1589 96.0108 49.668C97.5367 49.969 99.0851 50.1413 100.64 50.1831C101.16 50.1831 102.061 49.5466 102.117 49.0997C102.247 48.2294 101.479 48.0311 100.64 47.96C99.1391 47.8357 97.6532 47.516 95.9133 47.2348C96.6518 45.592 97.3017 44.1386 98.0668 42.4336C98.5443 42.8084 98.9935 43.218 99.4109 43.6591C100.297 44.7691 101.124 45.9354 102.01 47.0513C102.784 48.0281 102.849 48.9073 102.371 50.1535C100.717 54.4663 99.2839 58.8649 97.7448 63.2251C96.7611 66.0046 95.6918 68.7545 94.7524 71.5459C94.3566 72.7151 93.7067 73.1502 92.4896 73.1355C88.2742 73.0851 84.0589 73.1177 79.6396 73.1177C80.7681 69.613 81.737 66.5049 82.8093 63.4323C82.9275 63.0949 83.6305 62.7574 84.0559 62.7663C86.2035 62.8018 88.3481 63.0357 90.4898 63.0209C91.4764 63.0209 92.6255 62.8522 93.4083 62.3223C95.5441 60.8837 95.1807 58.3706 92.6757 56.7603C91.125 55.7363 89.5086 54.8157 87.837 54.0045C86.36 53.3089 86.0646 52.3646 86.6023 50.9379C86.9892 49.8634 87.3053 48.7563 87.5682 47.9482Z" fill="#E56565"/>
<path d="M48.2729 116.614C50.0454 116.887 51.9743 117.28 53.9122 117.455C56.7628 117.709 56.8662 117.781 56.6122 120.749C56.4763 122.265 56.3581 123.787 56.2783 125.308C56.0982 128.777 57.8026 130.654 61.3002 130.805C62.6649 130.864 64.0356 130.805 65.4565 130.805L66.5908 135.301C64.3281 135.301 62.2012 135.387 60.092 135.28C57.4511 135.147 54.8072 134.931 52.1841 134.612C49.8858 134.345 49.1562 133.324 49.0587 131.089C48.8401 126.297 48.5418 121.51 48.2729 116.614Z" fill="#E8B158"/>
<path d="M87.7988 45.178C86.3218 44.7784 85.4769 45.326 85.4356 46.8682C85.409 47.697 85.0073 47.996 84.2717 48.0522C82.7327 48.1499 81.1877 48.3985 79.6575 48.3157C78.1273 48.2328 77.4095 47.3004 77.6724 45.693C77.7253 45.1024 77.7312 44.5085 77.6901 43.917C80.8598 44.1834 84.0117 44.4409 87.1637 44.7369C87.3911 44.7577 87.592 45.0477 87.8047 45.2105L87.7988 45.178Z" fill="#E8B158"/>
<path d="M87.7983 45.1896H94.0549C93.9013 45.8409 93.7979 46.2789 93.6414 46.9479C91.5972 46.3263 89.7037 45.7491 87.8042 45.1719C87.7983 45.1808 87.7983 45.1896 87.7983 45.1896Z" fill="#E8B158"/>
<path d="M72.206 5.75732C71.7629 7.16928 71.4528 8.16683 71.1337 9.1851L68.7705 8.33851L72.206 5.75732Z" fill="#E8B158"/>
<path d="M73.829 22.5572C74.4199 20.7604 74.9073 19.3603 75.3858 17.9365L71.7021 16.2818C71.7021 16.0983 71.7228 15.9148 71.7317 15.7313C72.2811 15.6188 72.866 15.3316 73.3741 15.4352C74.7028 15.6969 76.0116 16.051 77.2912 16.4949C77.4504 16.6037 77.5787 16.7519 77.6636 16.9252C77.7485 17.0985 77.7871 17.2909 77.7756 17.4836C77.2557 18.9637 76.6472 20.4437 76.0032 21.8882C75.7272 22.4146 75.4132 22.9202 75.0638 23.4008L73.829 22.5572Z" fill="#4D3826"/>
</g>
<defs>
<filter id="filter0_d" x="-31" y="0.36084" width="147.639" height="148.697" filterUnits="userSpaceOnUse" color-interpolation-filters="sRGB">
<feFlood flood-opacity="0" result="BackgroundImageFix"/>
<feColorMatrix in="SourceAlpha" type="matrix" values="0 0 0 0 0 0 0 0 0 0 0 0 0 0 0 0 0 0 127 0"/>
<feOffset dy="4"/>
<feGaussianBlur stdDeviation="2"/>
<feColorMatrix type="matrix" values="0 0 0 0 0 0 0 0 0 0 0 0 0 0 0 0 0 0 0.25 0"/>
<feBlend mode="normal" in2="BackgroundImageFix" result="effect1_dropShadow"/>
<feBlend mode="normal" in="SourceGraphic" in2="effect1_dropShadow" result="shape"/>
</filter>
</defs>
</svg>
