<svg width="339" height="153" viewBox="0 0 339 153" fill="none" xmlns="http://www.w3.org/2000/svg">
<g filter="url(#filter0_d)">
<path d="M310.864 100.913C309.582 101.349 308.549 101.763 307.484 102.036C306.821 102.209 306.341 102.368 306.219 103.162C305.759 105.986 305.192 108.793 304.752 111.619C304.334 114.296 303.945 116.984 303.697 119.681C303.467 122.188 303.469 124.718 303.312 127.233C303.125 130.253 302.869 133.264 302.654 136.281C302.553 137.703 302.596 139.151 302.333 140.54C302.189 141.301 301.65 142.077 301.083 142.637C300.757 142.961 300.016 142.966 299.472 142.939C298.682 142.898 297.898 142.576 297.114 142.581C293.423 142.609 289.731 142.713 286.04 142.774C285.743 142.798 285.447 142.729 285.19 142.579C284.805 142.236 284.445 141.865 284.115 141.468C284.502 141.182 284.851 140.809 285.281 140.626C287.811 139.541 290.493 138.718 292.884 137.381C294.943 136.231 295.998 134.071 296.767 131.804C298.235 127.494 298.052 122.974 298.48 118.548C298.886 114.362 298.998 110.152 298.816 105.951C298.682 102.863 296.873 100.437 294.311 98.4694C294.09 98.8978 293.886 99.1386 293.845 99.4074C293.453 101.899 291.978 103.877 290.746 105.966C289.481 108.103 288.201 110.227 286.88 112.329C283.993 116.92 281.061 121.476 278.19 126.08C277.124 127.791 276.206 129.593 275.217 131.353C274.228 133.112 273.168 134.902 272.204 136.725C271.521 138.013 271.159 139.377 271.986 141.179C270.215 141.329 268.586 141.562 266.956 141.582C264.224 141.615 261.489 141.582 258.762 141.43C257.671 141.369 256.579 140.971 255.539 140.594C255.212 140.474 254.8 139.833 254.873 139.579C254.967 139.242 255.493 138.88 255.885 138.796C258.094 138.327 260.33 137.977 262.539 137.506C263.643 137.281 264.722 136.947 265.76 136.507C266.337 136.241 266.813 135.797 267.118 135.239C268.991 131.622 270.797 127.974 272.611 124.325C274.068 121.392 275.647 118.507 276.912 115.498C279.083 110.402 281.162 105.261 282.354 99.8181C282.422 99.5012 282.541 99.0981 282.415 98.8496C281.603 97.2423 280.76 95.6477 279.844 94.1013C279.685 93.8326 278.951 93.574 278.777 93.7058C277.79 94.4384 277.036 93.8604 276.247 93.394C275.257 95.2345 274.101 95.5387 272.426 94.2914C271.323 93.47 270.349 92.4737 269.274 91.6117C268.56 91.0363 267.756 90.5977 267.025 90.0273C266.294 89.4569 265.626 88.8307 264.89 88.1918C262.734 90.1743 261.854 87.5758 260.336 86.9749C260.113 87.1778 259.852 87.3856 259.632 87.629C258.696 88.6634 257.206 88.7039 256.409 87.6011C254.514 84.995 252.692 82.3305 250.818 79.7117C250.484 79.2452 249.684 78.9765 249.581 78.5101C249.168 76.6315 247.574 75.4831 246.886 73.8149C246.294 72.3851 245.854 70.8919 245.343 69.4266C245.315 69.3026 245.253 69.1891 245.163 69.0995C243.031 67.7077 243.703 65.4312 243.392 63.469C243.372 63.3447 243.357 63.2154 243.327 63C242.14 62.9492 241.854 62.1405 241.895 61.1113C242.011 58.2136 242.132 55.3184 242.241 52.6641C241.201 52.1571 239.984 51.7388 238.952 51.034C237.33 49.9211 235.706 48.7524 234.317 47.3682C232.278 45.34 232.41 44.1739 234.714 42.4195C237.426 40.3341 239.718 37.7536 241.472 34.8141C243.537 31.4043 246.408 28.8083 249.343 26.2427C251.653 24.2146 253.995 22.2422 256.336 20.2572C256.697 19.9659 257.082 19.7048 257.487 19.4764C258.843 18.6677 259.05 17.7018 258.031 16.5077C257.859 16.3074 257.386 16.2821 257.059 16.3074C253.753 16.5609 250.448 17.0071 247.142 17.0325C245.535 17.0477 243.878 16.4038 242.335 15.8333C241.224 15.4252 241.093 14.6722 241.829 13.7621C242.376 13.0777 243.022 12.4794 243.747 11.9875C245.738 10.6642 247.855 9.52841 249.791 8.13154C251.562 6.85128 253.333 5.51272 254.656 3.70008C255.777 2.17899 257.33 1.33478 259.197 0.97225C261.578 0.508316 263.883 -0.434763 266.395 0.229448C267.751 0.589441 267.89 0.713663 267.407 2.0573C268.09 2.24743 268.783 2.40968 269.454 2.63531C269.712 2.75002 269.948 2.91063 270.149 3.10939C270.519 3.41868 270.873 3.74571 271.227 4.07021C271.543 4.36176 271.849 4.66344 272.163 4.96005C271.791 5.19582 271.427 5.44427 271.047 5.66229C270.837 5.78144 270.6 5.85243 270.167 6.03242C270.648 6.67889 270.989 7.3 271.485 7.77915C273.38 9.56897 273.714 11.9292 273.605 14.2742C273.481 16.9108 272.644 19.5271 272.651 22.151C272.651 25.0639 270.977 26.8765 269.474 28.968C268.282 30.6285 267.45 32.5426 266.423 34.3273C264.502 37.6661 265.158 41.1292 266.003 44.5567C266.309 45.6073 266.818 46.5874 267.5 47.4417C268.821 49.2011 270.455 49.5154 272.497 48.6155C274.372 47.7915 276.183 46.6152 278.147 46.2426C282.627 45.3933 287.131 44.4477 291.75 44.7215C292.745 44.7798 293.418 45.1296 293.445 46.2882C296.241 46.1259 299.026 45.9586 301.814 45.8014C302.509 45.7436 303.206 45.7275 303.902 45.7533C304.957 45.8243 305.243 46.6482 304.643 47.9639C307.211 48.1667 309.126 49.7132 311.158 51.0365C312.248 51.7464 313.435 52.3168 314.545 52.9835C315.656 53.6503 317.275 54.099 317.738 55.0827C318.773 57.2958 320.928 57.0423 322.515 57.9854C324.572 59.2048 326.563 60.5561 327.78 62.7464C327.873 62.8878 327.934 63.0479 327.959 63.2154C328.106 66.1157 330.183 67.9892 331.754 70.0604C333.019 71.7133 333.809 73.2623 333.229 75.3487C333.133 75.696 333.333 76.1498 333.482 76.5301C333.958 77.8712 334.494 79.1945 334.945 80.5407C335.031 80.7942 335.02 81.2785 334.884 81.3545C333.571 82.0948 334.226 83.1748 334.378 84.1432C334.631 85.7277 334.826 87.2411 334.054 88.8028C333.717 89.4822 333.902 90.4532 333.965 91.2847C334.036 92.1847 333.664 92.7019 332.819 92.7602C331.853 92.8261 331.678 93.3128 331.716 94.1723C331.728 95.1803 331.684 96.1882 331.587 97.1916C331.57 97.4806 331.559 97.9522 331.395 98.0257C329.399 99.0119 329.804 101.192 328.981 102.754C328.799 103.175 328.518 103.547 328.162 103.836C327.988 103.939 327.793 104.002 327.592 104.021C327.391 104.041 327.188 104.015 326.998 103.948C325.986 103.426 325.07 102.761 324.088 102.193C323.873 102.069 323.451 101.996 323.299 102.117C322.401 102.835 321.488 102.624 320.589 102.221C319.77 101.864 319.292 102.084 318.841 102.85C317.918 104.419 317.576 104.455 315.752 104.095C313.78 103.691 312.034 102.555 310.864 100.913ZM264.477 33.1333C261.714 34.1752 259.238 35.2628 256.667 36.0335C254.097 36.8042 251.468 37.2351 249.037 37.7777C249.191 38.3202 249.517 38.9768 249.543 39.6435C249.64 41.9732 248.822 44.2483 247.266 45.9814C244.989 48.5774 244.399 51.7489 243.916 54.9508C243.676 56.5454 243.777 58.1958 243.769 59.8183C243.769 60.0972 243.974 60.5992 244.131 60.6194C245.158 60.7513 245.128 61.4586 245.143 62.2064C245.137 63.2092 245.189 64.2115 245.3 65.2081C245.411 65.8321 245.629 66.4324 245.943 66.9827C246.196 67.4365 246.702 67.7585 246.891 68.2249C247.741 70.3595 247.875 72.849 250.046 74.3093C250.243 74.4411 250.256 74.8442 250.367 75.1155C250.669 75.8481 250.873 76.6619 251.304 77.2957C252.857 79.5191 254.494 81.6841 256.11 83.8618C256.778 84.7617 257.472 85.6364 258.152 86.5364C260.429 84.5944 260.847 84.6172 263.576 86.7544C264.981 86.0217 265.803 86.1738 267.091 87.2437C268.049 88.0422 269.097 88.7343 270.094 89.4873C270.422 89.7469 270.737 90.0245 271.035 90.3188C271.991 91.2239 272.94 92.1391 273.957 93.1075C275.321 90.0881 275.321 90.0881 278.136 91.9667C278.47 91.7892 278.895 91.3811 279.121 91.4749C280.487 92.0732 282.06 91.665 283.325 92.1771C285.446 93.0365 287.373 94.3497 289.425 95.4855C289.504 95.3663 289.61 95.1863 289.731 95.0165C291.062 93.1303 291.502 93.1354 292.866 95.0545C294.063 96.7429 295.996 97.1536 297.764 96.0964C299.684 94.9429 301.177 95.2624 302.571 97.0091C302.991 97.5313 303.644 97.8634 304.17 98.3096C304.421 98.5144 304.641 98.7553 304.823 99.0246C306.032 100.908 308.013 101.053 309.521 99.3845C309.861 98.9554 310.293 98.6088 310.786 98.3705C311.112 98.2463 311.947 98.5074 311.952 98.624C312.003 100.018 313.265 100.378 314.034 101.081C316.058 102.926 317.04 102.769 318.588 100.596C319.476 99.344 319.929 99.3161 321.042 100.419C321.422 100.794 321.751 101.283 322.396 100.705C323.858 99.3972 323.977 99.4175 325.563 100.563C325.916 100.859 326.306 101.106 326.725 101.296C326.957 101.38 327.496 101.238 327.552 101.081C328.329 98.8293 330.236 96.9457 329.763 94.2889C329.558 93.1328 329.963 92.2836 331.117 91.9236C331.812 91.7081 331.992 91.2999 331.946 90.6028C331.901 89.8549 331.792 89.0031 332.078 88.3591C333.007 86.2752 332.531 84.3485 331.805 82.3635C331.666 81.9858 331.838 81.2075 332.129 81.0173C332.743 80.6142 332.779 80.1579 332.564 79.6382C332.081 78.4746 331.509 77.3566 331.015 76.1929C330.889 75.8938 330.778 75.4476 330.907 75.1991C331.58 73.9011 331.238 72.8059 330.439 71.7108C329.454 70.3545 328.523 68.9601 327.567 67.581C327.314 67.2007 327.099 66.7393 326.752 66.4655C325.872 65.7709 325.677 64.8658 325.556 63.8137C325.473 63.1341 325.143 62.5087 324.63 62.0569C322.707 60.622 321.07 58.7054 318.558 58.2161C318.226 58.1623 317.908 58.0416 317.624 57.8612C316.741 57.2375 315.481 56.7356 315.135 55.8762C314.687 54.7708 313.92 54.4083 313.08 53.9621C312.005 53.3917 310.735 53.0621 309.847 52.2889C307.454 50.2076 304.805 49.0794 301.612 49.2112C301.21 49.2264 300.79 48.8031 300.122 48.4507L301.906 47.3935C299.059 47.4417 296.279 47.6952 293.498 47.9589C291.09 48.1845 290.789 48.0425 289.825 46.0271C287.692 46.3516 285.506 46.8586 283.303 46.9752C279.637 47.1679 276.388 48.4025 273.223 50.1543C271.414 51.1684 269.454 51.3585 267.521 50.1036C265.383 48.7194 264.214 46.8789 263.652 44.3463C262.812 40.5663 262.481 36.9157 264.477 33.1333ZM253.907 32.246C259.068 30.7477 263.356 28.2252 267.526 25.4517C268.892 24.5441 269.848 23.4033 270.144 21.7834C270.564 19.4764 271.068 17.177 271.298 14.8497C271.551 12.3145 271.002 9.96699 269.218 7.95915C268.538 7.1986 268.206 6.11862 267.688 5.13498C267.382 5.03662 267.083 4.91892 266.792 4.78259C266.23 4.49612 265.712 4.13106 265.14 3.8674C264.667 3.64938 264.128 3.58093 263.652 3.36037C260.401 1.87223 257.482 2.64545 255.438 5.66229C255.367 5.78022 255.326 5.91326 255.317 6.05038C255.308 6.18749 255.332 6.32473 255.387 6.45073C256.487 7.96168 257.623 9.44728 258.764 10.9202C260.535 13.25 261.122 13.9624 259.814 15.6964C262.483 19.5879 260.46 23.0281 258.511 26.3289C257.3 28.3798 255.579 30.1316 253.907 32.246ZM258.081 139.861C261.37 139.861 264.642 139.841 267.903 139.861C269.168 139.861 269.952 139.511 269.927 138.051C269.927 137.544 270.215 136.994 270.463 136.512C272.156 133.216 273.765 129.888 275.612 126.688C278.455 121.767 281.496 116.963 284.403 112.078C286.566 108.438 288.704 104.784 290.728 101.065C291.447 99.742 292.276 98.2767 291.416 96.5021C290.432 97.4502 289.377 97.9395 288.193 97.2626C286.169 96.1193 284.208 94.8922 282.217 93.7007L281.929 93.9542C282.268 94.4942 282.584 95.0494 282.941 95.5666C284.335 97.5161 285.094 99.4885 284.37 102.021C283.072 106.569 281.537 111.006 279.353 115.204C278.415 117.009 277.312 118.733 276.393 120.551C274.718 123.864 273.125 127.221 271.498 130.559C270.739 132.08 270.119 133.69 269.221 135.123C268.624 136.086 267.801 137.232 266.827 137.579C264.55 138.393 262.096 138.768 259.718 139.339C259.179 139.501 258.62 139.699 258.081 139.861ZM242.648 36.6977C240.589 38.8551 238.636 41.1368 236.43 43.1649C234.644 44.795 234.494 45.0358 236.321 46.7141C236.501 46.8918 236.693 47.0569 236.895 47.2085C238.282 48.1718 239.656 49.1555 241.082 50.0529C241.254 50.1594 241.841 49.8754 242.041 49.6219C242.858 48.6079 243.638 47.5735 244.364 46.5011C245.614 44.6556 246.876 42.815 247.21 40.5207C247.319 39.7804 247.263 39.281 246.476 38.8906C245.103 38.2061 243.82 37.3797 242.638 36.6977H242.648ZM289.415 141.113C292.846 140.961 295.993 140.842 299.143 140.652C299.324 140.608 299.491 140.519 299.629 140.394C299.767 140.269 299.871 140.111 299.932 139.934C300.241 138.066 300.562 136.187 300.691 134.301C301.007 129.555 301.185 124.799 301.506 120.054C301.617 118.424 302.202 116.814 302.214 115.191C302.245 110.854 302.973 106.633 303.965 102.439C304.177 101.544 303.844 101.207 303.039 101.032C302.697 100.969 302.386 100.79 302.159 100.525C301.589 99.715 301.062 98.8755 300.58 98.0105C300.122 97.1891 299.467 97.2221 298.758 97.5161C298.253 97.7524 297.761 98.0147 297.283 98.302C297.557 98.6037 297.761 98.8091 297.944 99.0322C299.894 101.443 301.415 103.905 301.549 107.261C301.759 112.585 300.967 117.82 300.598 123.088C300.428 125.527 299.952 127.953 299.462 130.354C298.703 134.116 297.083 137.338 293.352 139.06C292.11 139.628 290.925 140.317 289.415 141.113ZM258.764 21.1217L258.312 20.8023C253.319 24.257 248.867 28.4368 245.103 33.2042C246.337 34.1397 247.587 33.9217 248.796 33.5972C249.884 33.3031 250.982 33.3031 251.777 32.0026C253.191 29.6905 255.124 27.6928 256.657 25.4517C257.54 24.1335 258.076 22.5743 258.764 21.1217ZM245.507 13.1866C247.01 12.7633 248.596 12.2461 250.218 11.9191C250.648 11.8278 251.192 12.2765 251.686 12.4768C251.319 12.8393 251.013 13.3742 250.572 13.534C249.105 14.0739 247.587 14.4796 246.087 14.9359C249.469 14.9866 252.763 14.7863 256.052 14.5176C256.718 14.4618 257.363 14.1475 258.016 13.9548C257.671 13.2145 257.353 12.459 256.963 11.7441C256.832 11.4906 256.477 11.3994 256.3 11.1737C255.599 10.289 254.641 9.47517 254.319 8.46364C253.889 7.1048 253.376 7.49014 252.655 8.00985C250.251 9.74136 247.845 11.4957 245.517 13.1866H245.507ZM269.145 27.0616L268.892 26.7903C268.404 27.1021 267.925 27.4342 267.422 27.7182C264.96 29.11 262.58 30.697 259.997 31.8175C257.257 33.0065 254.355 33.8659 251.465 34.6493C249.654 35.1411 247.807 35.9878 245.836 35.2653C245.285 35.0625 244.741 34.8369 244.192 34.6239L243.984 34.9941C244.579 35.3617 245.173 36.0411 245.77 36.0436C248.047 36.0588 250.433 36.2566 252.569 35.6481C256.462 34.5377 260.227 32.9583 264.001 31.4601C266.2 30.5905 267.594 28.7145 269.155 27.0616H269.145Z" fill="#4D3826"/>
<path d="M264.478 33.1323C262.482 36.9148 262.801 40.5654 263.643 44.3529C264.205 46.8881 265.374 48.7261 267.511 50.1103C269.444 51.3652 271.405 51.1649 273.214 50.161C276.379 48.4092 279.628 47.1746 283.293 46.9819C285.497 46.8653 287.683 46.3583 289.816 46.0338C290.78 48.0619 291.081 48.1912 293.489 47.9655C296.272 47.712 299.055 47.4585 301.896 47.4002L300.113 48.4574C300.781 48.8097 301.201 49.2331 301.603 49.2179C304.796 49.0861 307.445 50.2142 309.838 52.2956C310.726 53.0561 311.996 53.3984 313.071 53.9688C313.911 54.415 314.678 54.7775 315.126 55.8828C315.472 56.7423 316.732 57.2442 317.615 57.8679C317.899 58.0483 318.217 58.169 318.549 58.2228C321.079 58.7121 322.708 60.6287 324.621 62.0636C325.134 62.5154 325.464 63.1407 325.547 63.8204C325.668 64.8725 325.863 65.7776 326.743 66.4722C327.09 66.746 327.295 67.2074 327.558 67.5877C328.514 68.9668 329.445 70.3611 330.429 71.7174C331.229 72.8126 331.57 73.9078 330.897 75.2058C330.768 75.4593 330.88 75.9005 331.006 76.1996C331.512 77.3582 332.071 78.4812 332.555 79.6449C332.77 80.1646 332.734 80.6209 332.119 81.024C331.828 81.2141 331.656 81.9924 331.796 82.3702C332.522 84.3552 332.997 86.2819 332.069 88.3658C331.783 89.0098 331.892 89.8616 331.937 90.6094C331.983 91.3066 331.803 91.7148 331.107 91.9303C329.954 92.2902 329.549 93.1395 329.754 94.2956C330.227 96.9524 328.319 98.836 327.543 101.087C327.487 101.244 326.948 101.386 326.715 101.303C326.297 101.112 325.906 100.866 325.554 100.57C323.968 99.4242 323.849 99.4039 322.387 100.712C321.741 101.29 321.413 100.801 321.033 100.426C319.92 99.3228 319.467 99.3507 318.579 100.603C317.036 102.776 316.049 102.933 314.025 101.087C313.266 100.385 312.001 100.025 311.943 98.6307C311.943 98.5191 311.103 98.258 310.777 98.3772C310.284 98.6155 309.852 98.9621 309.512 99.3912C307.994 101.062 306.023 100.912 304.813 99.0312C304.632 98.762 304.412 98.5211 304.161 98.3163C303.634 97.8701 302.982 97.538 302.562 97.0158C301.16 95.2691 299.667 94.9496 297.755 96.1031C295.984 97.1603 294.053 96.7496 292.857 95.0612C291.501 93.1421 291.053 93.137 289.722 95.0232C289.601 95.193 289.494 95.373 289.416 95.4922C287.374 94.3564 285.436 93.0432 283.316 92.1838C282.051 91.6767 280.478 92.0798 279.111 91.4815C278.894 91.3877 278.461 91.7959 278.127 91.9734C275.311 90.0948 275.311 90.0948 273.948 93.1142C272.936 92.1432 271.982 91.228 271.026 90.3255C270.723 90.0326 270.405 89.7566 270.072 89.499C269.075 88.7385 268.028 88.054 267.069 87.2554C265.781 86.1856 264.959 86.0335 263.555 86.7661C260.825 84.629 260.41 84.6062 258.13 86.5481C257.45 85.6557 256.757 84.7735 256.089 83.8735C254.472 81.6958 252.835 79.5308 251.282 77.3075C250.839 76.6737 250.647 75.8599 250.346 75.1272C250.234 74.856 250.222 74.4529 250.024 74.321C247.854 72.8557 247.719 70.3662 246.869 68.2367C246.685 67.7702 246.161 67.4482 245.921 66.9944C245.607 66.4441 245.389 65.8439 245.278 65.2198C245.167 64.2232 245.115 63.221 245.121 62.2182C245.109 61.4577 245.139 60.763 244.109 60.6312C243.952 60.6109 243.747 60.1089 243.747 59.8301C243.747 58.2076 243.654 56.5572 243.894 54.9626C244.377 51.7607 244.959 48.5892 247.244 45.9932C248.8 44.26 249.618 41.985 249.521 39.6553C249.496 38.9885 249.169 38.3319 249.015 37.7894C251.446 37.2469 254.093 36.8083 256.645 36.0452C259.198 35.2821 261.715 34.1743 264.478 33.1323Z" fill="#965353"/>
<path d="M253.905 32.2463C255.578 30.1319 257.298 28.3801 258.51 26.3292C260.458 23.0335 262.482 19.5781 259.803 15.6968C261.111 13.9526 260.534 13.2503 258.763 10.9205C257.632 9.43745 256.486 7.96199 255.395 6.4561C255.341 6.33011 255.317 6.19287 255.326 6.05575C255.334 5.91864 255.376 5.7856 255.446 5.66767C257.49 2.65083 260.41 1.86493 263.661 3.36574C264.134 3.58123 264.673 3.64968 265.149 3.87277C265.72 4.12629 266.239 4.50149 266.801 4.78797C267.088 4.92303 267.384 5.03988 267.686 5.13782C268.192 6.12146 268.536 7.1989 269.217 7.96199C270.988 9.96983 271.547 12.325 271.296 14.8525C271.066 17.1798 270.563 19.4792 270.143 21.7862C269.847 23.4062 268.878 24.547 267.524 25.4546C263.355 28.2255 259.066 30.7429 253.905 32.2463ZM261.225 3.19589C258.915 3.20349 256.992 4.85895 256.992 6.82623C256.992 8.11663 258.834 9.48308 260.534 9.46026C262.173 9.43745 263.884 7.74143 263.881 6.14428C263.878 4.54713 262.669 3.19082 261.225 3.19589Z" fill="#965353"/>
<path d="M258.082 139.861C258.621 139.699 259.18 139.504 259.752 139.367C262.13 138.797 264.571 138.421 266.861 137.608C267.835 137.26 268.657 136.114 269.254 135.151C270.147 133.711 270.772 132.109 271.531 130.588C273.158 127.249 274.752 123.892 276.427 120.579C277.345 118.761 278.451 117.03 279.387 115.232C281.57 111.037 283.106 106.6 284.404 102.049C285.127 99.5142 284.368 97.5444 282.974 95.5949C282.605 95.0878 282.289 94.5225 281.962 93.9825L282.251 93.729C284.242 94.9205 286.21 96.1475 288.227 97.2909C289.411 97.9602 290.466 97.4709 291.45 96.5304C292.31 98.305 291.48 99.7652 290.762 101.094C288.738 104.813 286.597 108.466 284.437 112.106C281.53 116.992 278.489 121.796 275.645 126.717C273.798 129.916 272.189 133.255 270.497 136.54C270.244 137.022 269.955 137.554 269.96 138.079C269.973 139.539 269.201 139.902 267.936 139.889C264.642 139.841 261.381 139.861 258.082 139.861Z" fill="#DCD594"/>
<path d="M242.639 36.6953C243.821 37.3773 245.113 38.2037 246.477 38.8806C247.264 39.271 247.319 39.7705 247.211 40.5107C246.877 42.805 245.614 44.6456 244.364 46.4912C243.638 47.5635 242.846 48.6055 242.042 49.6119C241.837 49.8654 241.255 50.1494 241.083 50.0429C239.656 49.1455 238.282 48.1618 236.896 47.1985C236.694 47.0469 236.502 46.8818 236.322 46.7041C234.495 45.0258 234.644 44.785 236.43 43.1549C238.637 41.1344 240.59 38.8527 242.639 36.6953Z" fill="#EFEFEF"/>
<path d="M289.417 141.112C290.934 140.316 292.111 139.626 293.351 139.053C297.082 137.332 298.691 134.11 299.461 130.348C299.951 127.947 300.427 125.531 300.596 123.082C300.966 117.814 301.758 112.584 301.548 107.255C301.414 103.898 299.893 101.437 297.943 99.0256C297.76 98.8025 297.555 98.5971 297.282 98.2955C297.76 98.0081 298.252 97.7458 298.757 97.5096C299.466 97.2155 300.121 97.1825 300.579 98.0039C301.061 98.869 301.588 99.7084 302.157 100.519C302.385 100.783 302.695 100.962 303.038 101.026C303.842 101.201 304.176 101.533 303.964 102.433C302.972 106.626 302.243 110.847 302.213 115.185C302.2 116.807 301.616 118.417 301.505 120.047C301.183 124.793 300.999 129.549 300.69 134.295C300.564 136.181 300.242 138.059 299.931 139.928C299.87 140.104 299.766 140.262 299.628 140.387C299.49 140.513 299.323 140.601 299.142 140.645C296 140.841 292.847 140.96 289.417 141.112Z" fill="#DCD594"/>
<path d="M245.518 13.1863C247.846 11.4954 250.252 9.74103 252.665 7.99684C253.386 7.47713 253.9 7.09179 254.33 8.45063C254.651 9.4647 255.61 10.2759 256.311 11.1607C256.488 11.3863 256.842 11.4903 256.974 11.7311C257.363 12.446 257.682 13.2015 258.026 13.9418C257.374 14.1345 256.728 14.4488 256.063 14.5046C252.774 14.7733 249.485 14.9736 246.097 14.9229C247.598 14.4666 249.116 14.0609 250.583 13.521C251.023 13.3612 251.342 12.8263 251.696 12.4638C251.203 12.2635 250.659 11.8148 250.229 11.9061C248.607 12.2356 247.021 12.7629 245.518 13.1863Z" fill="#B7B7B7"/>
<path d="M269.157 27.0613C267.596 28.7041 266.202 30.5902 264.008 31.4598C260.234 32.9581 256.469 34.5375 252.575 35.6479C250.44 36.2563 248.052 36.0586 245.777 36.0434C245.18 36.0434 244.586 35.3614 243.991 34.9938L244.199 34.6237C244.748 34.8366 245.292 35.0623 245.843 35.2651C247.814 35.9876 249.661 35.1409 251.472 34.649C254.362 33.8657 257.263 33.0062 260.003 31.8173C262.587 30.6967 264.967 29.1097 267.429 27.7179C267.935 27.434 268.41 27.1019 268.899 26.79L269.157 27.0613Z" fill="#FFF794"/>
<path d="M261.225 3.19482C262.67 3.19482 263.882 4.53339 263.884 6.14321C263.887 7.75304 262.177 9.44653 260.535 9.4592C258.842 9.48202 257.008 8.11557 256.993 6.82517C256.993 4.85789 258.915 3.20243 261.225 3.19482ZM260.049 5.67167L261.165 7.81642L262.591 6.56912C261.425 6.49053 261.271 4.75141 260.049 5.67167Z" fill="#4D3826"/>
<path d="M260.05 5.67371C261.272 4.75345 261.427 6.49257 262.58 6.57116L261.153 7.81846L260.05 5.67371Z" fill="white"/>
</g>
<g filter="url(#filter1_d)">
<path d="M80.4753 65.3108L77.7429 64.6655L74.6175 80.9785C77.8459 82.041 80.7705 83.8688 83.1428 86.3066C86.5163 89.7551 89.556 93.4789 89.9873 98.4755C90.1653 100.771 89.8386 103.078 89.0302 105.233C87.6595 108.827 85.9875 112.338 83.6036 115.44C82.6465 116.683 81.6097 117.867 80.6496 119.113C78.1771 122.346 76.5317 125.832 76.9718 130.08C77.1964 132.253 77.477 132.833 79.5389 132.857C83.32 132.904 87.113 132.937 90.8882 132.718C94.501 132.507 98.099 132.004 101.697 131.563C104.116 131.267 106.423 131.389 108.429 132.96C109.756 133.955 110.999 135.057 112.145 136.255C113.265 137.486 112.346 140.446 110.73 140.87C109.552 141.212 108.317 141.318 107.097 141.18C102.834 140.529 98.5982 140.825 94.3356 141.115C87.1544 141.604 79.9643 142.276 72.7712 141.157C72.2395 141.074 71.6398 141.101 71.1879 140.861C69.0817 139.724 66.8898 140.34 64.7363 140.479C60.518 140.754 56.3173 140.89 52.1669 139.842C51.2276 139.606 50.2321 139.514 49.34 139.162C46.4361 138.016 46.0019 135.636 46.0078 132.809C46.0078 128.89 45.7124 124.968 45.4495 121.052C45.3372 119.38 44.7553 118.116 42.7495 117.618C40.3656 117.026 38.2299 115.748 36.809 113.575C36.6617 113.384 36.491 113.213 36.3009 113.066C36.2743 113.042 36.2064 113.066 36.0291 113.066C35.7987 114.199 35.4915 115.357 35.3349 116.535C34.8505 120.22 33.2848 123.491 31.601 126.732C29.2764 131.161 26.3496 135.246 22.9044 138.869C22.157 139.665 20.7746 140.1 19.6284 140.245C14.7247 140.867 9.79152 141.243 4.88489 141.849C0.0727901 142.441 -4.70682 143.368 -9.53073 143.839C-12.9988 144.176 -16.514 144.013 -20.0057 144.052C-22.3335 144.078 -24.4988 143.534 -26.2091 141.858C-27.5059 140.585 -27.1899 139.407 -25.3938 138.883C-23.7041 138.392 -21.9613 138.081 -20.242 137.699C-18.248 137.252 -16.257 136.794 -14.2572 136.364C-11.5276 135.772 -8.74496 135.382 -6.06862 134.609C-2.9569 133.721 0.0965805 132.639 3.07407 131.371C5.86799 130.17 8.56601 128.757 11.1445 127.144C16.2106 123.95 20.0863 119.696 22.0743 113.886C23.7625 108.947 24.7083 103.785 24.8807 98.5672C25.0047 95.0152 25.6871 91.4631 26.3163 87.9554C27.5127 81.2775 30.5317 75.3484 33.9377 69.5526C37.0896 64.189 40.0732 58.701 41.9903 52.7424C43.4674 48.175 44.5131 43.4714 46.0669 38.9366C47.4641 34.8605 49.2159 30.9 50.9558 26.9512C52.5716 23.2807 54.3795 19.6961 56.2258 15.8095C54.9851 16.5051 54.1579 17.3192 53.3013 17.3458C52.4446 17.3724 51.6027 16.5939 51.3369 16.2002L55.4134 11.2954C55.1416 9.20856 54.8226 7.16907 54.6424 5.11774C54.5922 4.5938 54.7488 3.72354 55.0767 3.5637C55.5936 3.31209 56.5005 3.26769 56.9584 3.58442C59.5165 5.28646 61.9802 7.1365 64.497 8.89479C65.014 9.26184 65.5427 9.72065 66.1276 9.85681C66.7318 9.99636 67.3658 9.91445 67.9148 9.62593C69.6872 8.49518 71.3533 7.19571 73.1198 6.05608C73.5363 5.78671 74.1951 5.89919 74.7416 5.83703C74.7947 6.37577 75.0222 6.97074 74.8745 7.44731C74.328 9.20263 73.6604 10.9224 73.0519 12.6186C76.4608 14.069 79.7398 15.4721 83.0217 16.8603C85.1309 17.7484 85.441 18.4913 84.7616 20.7084C84.7334 20.9199 84.7551 21.135 84.8248 21.3365C84.8946 21.538 85.0105 21.7203 85.1634 21.8688C87.1603 23.5175 89.2488 25.0627 91.228 26.7351C92.0051 27.4101 92.6728 28.202 93.2072 29.0825C94.4774 31.1545 93.7714 33.1052 91.1541 33.6824C89.0272 34.1501 86.8087 34.2745 84.6257 34.3633C81.7012 34.4728 78.7709 34.3899 75.6898 34.3899C75.7076 34.8975 75.7559 35.4036 75.8346 35.9055C76.2983 38.315 76.8685 40.7037 77.2466 43.1251C77.4031 44.1374 77.7724 44.5874 78.7679 44.6673C82.5313 44.9633 86.2918 45.3066 90.0552 45.6175C91.2368 45.7151 92.4834 45.5346 93.5646 45.8898C95.4227 46.4966 95.9514 45.3185 96.4773 44.0812C97.331 42.0594 98.4505 41.7901 99.8537 43.5069C101.806 45.875 103.661 48.3555 105.466 50.8597C105.762 51.2682 105.59 52.0615 105.508 52.6595C105.452 53.0828 105.174 53.4735 105.017 53.8879C102.723 60.0172 100.432 66.1485 98.1433 72.2818C97.5525 73.8802 96.8554 75.458 96.4152 77.1008C96.0991 78.2848 95.2897 78.421 94.4212 78.4032C91.8956 78.3499 89.3699 78.1931 86.8442 78.0776C85.8664 78.0332 84.8886 77.9089 83.9168 77.9592C82.8828 78.0125 81.8342 78.4358 80.8357 78.3203C79.6985 78.2094 78.6055 77.8223 77.6513 77.1926C77.2259 76.8966 77.158 75.6563 77.3559 74.9725C78.3041 71.7401 79.406 68.5669 80.4753 65.3108ZM87.8102 48.169L93.6414 49.9451C93.798 49.2761 93.9013 48.838 94.055 48.1868H87.7983C87.5857 48.024 87.3848 47.7339 87.1573 47.7132C84.0054 47.4172 80.8534 47.1597 77.6838 46.8932C77.7248 47.4848 77.7189 48.0787 77.666 48.6693C77.4031 50.2766 78.1564 51.209 79.6511 51.2919C81.1459 51.3748 82.7263 51.1261 84.2653 51.0285C85.0009 50.9841 85.4026 50.6851 85.4292 49.8444C85.4765 48.3259 86.3243 47.7783 87.8102 48.169ZM72.656 80.2473C73.4152 75.0258 74.1773 70.0055 74.8509 64.9704C74.9927 63.9225 74.6323 63.0434 73.4388 62.5461C71.304 61.6743 69.2183 60.6861 67.1911 59.586C64.8811 58.3162 62.6537 56.8924 60.4471 55.4419C60.1517 55.2555 60.0867 54.5095 60.1753 54.0773C60.2255 53.8465 60.8724 53.5268 61.1678 53.5949C61.8657 53.7689 62.5331 54.0484 63.147 54.4237C64.1041 54.9979 64.952 55.7735 65.9386 56.2826C68.03 57.3601 70.1559 58.3714 72.3163 59.3167C75.1285 60.5481 77.9053 61.9541 80.8416 62.7829C83.7011 63.591 86.7497 63.7775 89.7037 64.2008C90.1424 64.2241 90.5817 64.1679 91.0005 64.035C92.0374 63.7953 92.445 63.1322 91.5618 62.4011C90.4186 61.4509 89.0951 60.7109 87.8279 59.9176C84.8414 58.0468 81.7928 56.2737 78.8595 54.326C74.4137 51.3659 70.0329 48.3141 65.6461 45.2682C65.1794 44.9455 64.8485 44.4245 64.4645 43.9953C65.1174 43.7793 65.8943 43.2257 66.3965 43.4033C67.5603 43.8355 68.6002 44.6081 69.6725 45.2741C71.4656 46.3812 73.2468 47.5149 75.034 48.6367L75.5273 48.3407C74.8007 44.1433 74.0828 39.943 73.3354 35.7486C73.173 34.828 73.2468 33.7594 71.95 33.4397C71.7166 33.3835 71.439 32.6642 71.5305 32.3593C71.6221 32.0544 72.1716 31.785 72.529 31.7673C73.5552 31.762 74.5809 31.8143 75.6012 31.9242C77.7429 32.1106 79.8786 32.4126 82.0232 32.5162C84.3569 32.6198 86.6994 32.5399 88.6225 32.5399C88.6225 30.8793 88.655 29.6183 88.6048 28.3602C88.5867 27.9947 88.4341 27.6488 88.1765 27.3893C86.6433 26.0543 85.0688 24.7697 83.4766 23.4435C83.066 24.1984 82.6436 24.8969 82.295 25.631C81.9228 26.4184 81.7721 27.3716 81.2345 27.9991C80.8328 28.4698 79.8875 28.8871 79.3262 28.7362C77.8492 28.3721 77.8256 27.1348 78.1269 25.8797C78.5138 24.2694 78.8979 22.6591 79.2908 21.0518C79.8963 18.5861 79.6866 18.1835 77.3529 17.3576C77.2141 17.3073 77.0575 17.2807 76.9305 17.2274C74.0621 16.1262 71.0431 15.3063 68.3638 13.847C65.1617 12.1005 62.2579 9.80945 59.2271 7.74924C58.5594 7.29635 57.9007 6.83162 56.917 6.1508C57.2922 8.16069 57.623 9.78577 57.8889 11.4197C58.1163 12.805 58.7249 14.3295 58.3733 15.5638C57.4428 18.8199 56.3853 22.1026 54.8285 25.0864C52.6425 29.266 50.56 33.4723 49.1007 37.9509C47.086 44.1197 45.5558 50.472 43.1926 56.4928C41.0982 61.8209 38.3687 66.93 35.4944 71.8851C32.2805 77.4234 29.7636 83.2163 28.6175 89.465C27.4566 95.7729 27.0814 102.226 26.018 108.557C25.4862 111.719 24.4139 114.848 23.1673 117.817C21.7937 121.093 19.2976 123.547 16.6862 126.028C11.9598 130.509 6.27032 132.913 0.409546 135.124C-2.42632 136.196 -5.38624 136.951 -8.32254 137.726C-10.4937 138.303 -12.7063 138.73 -14.9189 139.135C-17.6395 139.635 -20.3808 140.044 -23.1104 140.5C-23.1813 140.5 -23.2344 140.636 -23.4353 140.867C-23.0453 141.06 -22.6338 141.206 -22.2094 141.302C-20.3572 141.473 -18.4844 141.808 -16.644 141.684C-12.9367 141.435 -9.24419 140.947 -5.55167 140.5C-1.26834 139.996 3.01499 139.416 7.29242 138.922C10.3085 138.573 13.3334 138.167 16.3642 138.034C19.7495 137.895 22.4436 136.761 24.2514 133.771C24.9191 132.661 25.823 131.699 26.4729 130.575C28.0247 127.903 29.5244 125.201 30.9718 122.47C32.9333 118.761 33.0662 114.555 34.0293 110.576C34.1161 109.993 34.0593 109.398 33.8638 108.842C33.0131 105.882 32.1269 102.922 31.2377 99.9614C31.0162 99.2303 30.8655 98.6738 31.9319 98.4518C32.8624 98.2594 33.3941 98.4903 33.5655 99.3842C34.2098 102.858 35.2814 106.239 36.7558 109.448C37.8695 111.843 39.4971 113.773 41.757 114.777C44.8574 116.116 48.0714 117.174 51.3605 117.938C53.6646 118.494 56.1194 118.42 58.5033 118.675C60.6361 118.903 62.7689 119.158 64.8869 119.486C65.2916 119.548 65.8706 119.936 65.9652 120.285C66.541 122.295 67.0113 124.333 67.3742 126.392C67.649 128.02 67.327 129.808 67.8735 131.303C68.21 132.195 68.3048 133.162 68.1482 134.103C68.0448 134.991 68.29 136.225 68.8749 136.805C69.773 137.639 70.8779 138.215 72.0741 138.475C76.9098 139.538 81.8223 139.419 86.7378 139.2C92.1791 138.954 97.6145 138.525 103.059 138.312C105.236 138.226 107.428 138.496 109.812 138.608C109.702 138.132 109.741 137.59 109.493 137.356C107.682 135.654 105.983 133.567 103.177 133.804C101.05 133.979 98.9616 134.766 96.8406 134.855C90.5219 135.118 84.1944 135.216 77.8699 135.284C75.7193 135.308 74.8686 134.491 74.4905 132.351C73.6427 127.579 74.3989 123.077 77.3618 119.193C80.6112 114.925 83.707 110.609 85.9757 105.683C87.9608 101.373 87.8574 97.2767 85.5356 93.251C81.0779 85.5281 74.263 81.7629 65.4275 81.6179C63.7467 81.5883 62.0659 81.8813 60.3821 81.9494C56.9584 82.0885 53.5317 82.1507 50.3177 83.5952C49.7515 83.8846 49.1276 84.0424 48.4921 84.057C48.2482 84.0205 48.0155 83.9297 47.811 83.7915C47.6066 83.6532 47.4356 83.4708 47.3105 83.2577C47.2012 83.0446 47.6296 82.2987 47.9634 82.1625C49.9603 81.3426 51.9602 80.1556 54.0368 79.975C60.0778 79.4452 66.1601 78.6578 72.656 80.2473ZM87.5679 50.9426C87.305 51.7507 86.9771 52.8578 86.5901 53.9323C86.0614 55.3591 86.345 56.3004 87.8249 56.9989C89.4965 57.8101 91.1128 58.7307 92.6636 59.7548C95.1775 61.365 95.532 63.8782 93.3962 65.3167C92.6134 65.8466 91.4643 66.0094 90.4776 66.0153C88.336 66.0301 86.1913 65.7963 84.0438 65.7608C83.6184 65.7608 82.9153 66.0893 82.7972 66.4268C81.7249 69.4993 80.756 72.6074 79.6275 76.1121C84.0585 76.1121 88.2621 76.0796 92.4775 76.1299C93.6946 76.1299 94.3445 75.7096 94.7403 74.5403C95.6797 71.749 96.749 68.9991 97.7327 66.2196C99.2718 61.8594 100.704 57.4607 102.359 53.1479C102.837 51.9017 102.772 51.0225 101.998 50.0457C101.112 48.9298 100.291 47.7635 99.3988 46.6535C98.9814 46.2124 98.5322 45.8028 98.0547 45.428C97.2896 47.133 96.6397 48.5864 95.9012 50.2292C97.653 50.5105 99.1506 50.8213 100.628 50.9545C101.478 51.0255 102.246 51.2238 102.105 52.0941C102.037 52.5411 101.136 53.1834 100.628 53.1775C99.073 53.1357 97.5246 52.9634 95.9987 52.6624C93.2426 52.1592 90.4894 51.5494 87.5679 50.9485V50.9426ZM48.2794 119.616C48.5483 124.512 48.8466 129.299 49.0623 134.091C49.1627 136.326 49.8923 137.347 52.1729 137.625C54.796 137.945 57.4399 138.161 60.0808 138.294C62.1958 138.401 64.3227 138.315 66.5796 138.315L65.4453 133.819C64.0244 133.819 62.6537 133.866 61.289 133.819C57.8032 133.668 56.0987 131.791 56.2671 128.322C56.3469 126.8 56.465 125.279 56.6009 123.763C56.8638 120.803 56.7516 120.723 53.901 120.469C51.9749 120.279 50.0578 119.88 48.2735 119.613L48.2794 119.616ZM59.6258 121.333C59.552 122.446 59.487 123.367 59.4309 124.293C59.3423 125.773 59.1886 127.23 59.1946 128.698C59.1946 130.353 60.3407 131.554 61.93 131.616C62.9373 131.655 63.9505 131.498 65.2798 131.409C65.0022 128.354 64.7717 125.436 64.4291 122.529C64.3848 122.162 63.7822 121.641 63.3774 121.579C62.1309 121.386 60.8754 121.395 59.6199 121.33L59.6258 121.333ZM72.2129 8.75862L68.7744 11.3398L71.1377 12.1864C71.4537 11.1652 71.7639 10.1676 72.207 8.75566L72.2129 8.75862ZM82.3748 53.4291L82.292 53.7932L83.7927 54.6812C84.0704 54.1069 84.286 53.6689 84.6375 52.9525L82.3748 53.4291Z" fill="#4D3826"/>
<path d="M72.6568 80.2491C66.158 78.6595 60.0786 79.4469 54.0465 79.9797C51.9787 80.1603 49.97 81.3473 47.973 82.1672C47.6392 82.3034 47.2109 83.0553 47.3202 83.2625C47.4452 83.4755 47.6162 83.6579 47.8207 83.7962C48.0251 83.9344 48.2579 84.0252 48.5018 84.0617C49.1372 84.0471 49.7612 83.8893 50.3274 83.5999C53.5414 82.1554 56.968 82.0932 60.3917 81.9541C62.0755 81.886 63.7564 81.593 65.4372 81.6226C74.2727 81.7676 81.0935 85.5328 85.5452 93.2557C87.8671 97.2784 87.9705 101.375 85.9854 105.688C83.7167 110.608 80.6297 114.929 77.3715 119.198C74.4174 123.081 73.6523 127.584 74.5001 132.355C74.8783 134.495 75.729 135.315 77.8795 135.289C84.2041 135.221 90.5316 135.123 96.8503 134.859C98.9713 134.771 101.06 133.971 103.187 133.809C105.993 133.578 107.692 135.665 109.502 137.361C109.75 137.595 109.712 138.136 109.821 138.613C107.437 138.494 105.246 138.225 103.068 138.317C97.6242 138.53 92.1888 138.959 86.7475 139.205C81.8409 139.424 76.9195 139.542 72.0838 138.48C70.8875 138.22 69.7827 137.643 68.8845 136.81C68.2937 136.218 68.0545 134.993 68.1579 134.108C68.3145 133.166 68.2197 132.2 67.8831 131.307C67.3366 129.813 67.6586 128.025 67.3839 126.397C67.0144 124.345 66.5381 122.315 65.9571 120.314C65.8626 119.964 65.2836 119.577 64.8789 119.514C62.7609 119.186 60.6281 118.922 58.4953 118.703C56.1114 118.449 53.6566 118.523 51.3524 117.966C48.0634 117.202 44.8493 116.144 41.7489 114.805C39.4891 113.796 37.8614 111.866 36.7478 109.477C35.2733 106.267 34.2017 102.887 33.5574 99.4126C33.3861 98.5246 32.8544 98.2878 31.9238 98.4802C30.8574 98.7022 31.0081 99.2587 31.2297 99.9898C32.1159 102.95 33.0021 105.91 33.8558 108.87C34.0513 109.426 34.1081 110.022 34.0212 110.605C33.0582 114.583 32.9253 118.789 30.9638 122.498C29.5203 125.229 28.0206 127.931 26.4648 130.603C25.8149 131.722 24.911 132.675 24.2434 133.8C22.4355 136.789 19.7415 137.923 16.3562 138.062C13.3253 138.187 10.3004 138.592 7.28436 138.95C2.99808 139.445 -1.2823 140.025 -5.55972 140.528C-9.25224 140.963 -12.9448 141.452 -16.6521 141.712C-18.4924 141.836 -20.3653 141.502 -22.2174 141.33C-22.6419 141.234 -23.0534 141.088 -23.4434 140.895C-23.2425 140.664 -23.1893 140.54 -23.1184 140.528C-20.3889 140.072 -17.6476 139.664 -14.9269 139.163C-12.7144 138.758 -10.4959 138.332 -8.33059 137.754C-5.39429 136.979 -2.42255 136.224 0.401495 135.153C6.26227 132.941 11.9606 130.538 16.6782 126.056C19.2895 123.576 21.7857 121.122 23.1593 117.845C24.4059 114.885 25.4782 111.747 26.0099 108.586C27.0733 102.254 27.4485 95.8013 28.6094 89.4934C29.7556 83.2447 32.2724 77.4518 35.4864 71.9135C38.3607 66.9554 41.099 61.8493 43.1846 56.5212C45.5478 50.5004 47.0839 44.1481 49.0926 37.9793C50.5519 33.5007 52.6374 29.2944 54.8205 25.1148C56.3802 22.131 57.4377 18.8454 58.3653 15.5922C58.7168 14.3579 58.1083 12.8334 57.8808 11.4481C57.615 9.81417 57.29 8.19205 56.909 6.1792C57.8926 6.86002 58.5514 7.32475 59.219 7.77764C62.2498 9.84969 65.1536 12.1289 68.3558 13.8754C71.0292 15.3347 74.0482 16.1546 76.9224 17.2558C77.0583 17.3091 77.2178 17.3357 77.3449 17.386C79.6785 18.2119 79.8883 18.6145 79.2827 21.0802C78.8898 22.6875 78.5058 24.2978 78.1188 25.9081C77.8234 27.1632 77.8411 28.4005 79.3182 28.7646C79.8794 28.9037 80.8247 28.4982 81.2265 28.0275C81.7641 27.397 81.9147 26.4439 82.2869 25.6594C82.6385 24.9253 83.0609 24.2268 83.4686 23.4719C85.0608 24.7981 86.6353 26.0827 88.1684 27.4177C88.4261 27.6772 88.5787 28.0231 88.5967 28.3886C88.6469 29.6467 88.6145 30.9076 88.6145 32.5683C86.6914 32.5683 84.3488 32.6482 82.0152 32.5446C79.8706 32.4498 77.7348 32.1479 75.5931 31.9526C74.5728 31.8427 73.5471 31.7904 72.521 31.7957C72.1635 31.7957 71.6082 32.0917 71.5225 32.3877C71.4368 32.6837 71.7086 33.4119 71.942 33.4681C73.2388 33.7878 73.1649 34.8564 73.3274 35.777C74.0748 39.9714 74.8044 44.1717 75.5193 48.3691L75.026 48.6651C73.2388 47.5433 71.4575 46.4096 69.6644 45.3025C68.5921 44.6365 67.5523 43.8639 66.3884 43.4317C65.8862 43.2452 65.1093 43.7988 64.4565 44.0237C64.8494 44.4529 65.1802 44.9739 65.6381 45.2966C70.0248 48.3425 74.4056 51.4002 78.8514 54.3544C81.7848 56.3021 84.8333 58.0752 87.8198 59.946C89.0871 60.7393 90.4105 61.4793 91.5537 62.4295C92.4399 63.1606 92.0293 63.8237 90.9924 64.0634C90.5736 64.1963 90.1343 64.2525 89.6956 64.2292C86.7416 63.8059 83.699 63.6194 80.8336 62.8113C77.8973 61.9825 75.1205 60.5765 72.3083 59.3451C70.142 58.4018 68.0161 57.3904 65.9305 56.311C64.9439 55.8019 64.0961 55.0263 63.139 54.4521C62.5315 54.0614 61.8681 53.7659 61.1716 53.5759C60.8762 53.5078 60.2293 53.8275 60.1791 54.0584C60.0904 54.4906 60.1643 55.2424 60.4508 55.423C62.6575 56.8704 64.8819 58.2942 67.1949 59.5671C69.222 60.6672 71.3077 61.6553 73.4426 62.5271C74.6242 63.0244 74.9964 63.9036 74.8546 64.9514C74.1693 70.0073 73.416 75.0275 72.6568 80.2491ZM73.8384 25.5588L75.0821 26.3935C75.4315 25.9129 75.7454 25.4074 76.0215 24.8809C76.6566 23.4335 77.2651 21.9682 77.7939 20.4764C77.8054 20.2836 77.7668 20.0912 77.6819 19.918C77.5969 19.7447 77.4686 19.5964 77.3094 19.4877C76.0299 19.0438 74.721 18.6897 73.3924 18.428C72.8843 18.3333 72.2994 18.6204 71.75 18.724C71.75 18.9075 71.7293 19.091 71.7204 19.2746L75.4041 20.9292C74.9078 22.3619 74.4352 23.762 73.8296 25.5588H73.8384Z" fill="#E8B158"/>
<path d="M87.5682 50.9482C90.4898 51.5402 93.2429 52.1589 96.0108 52.668C97.5367 52.969 99.0851 53.1413 100.64 53.1831C101.16 53.1831 102.061 52.5466 102.117 52.0997C102.247 51.2294 101.479 51.0311 100.64 50.96C99.1391 50.8357 97.6532 50.516 95.9133 50.2348C96.6518 48.592 97.3017 47.1386 98.0668 45.4336C98.5443 45.8084 98.9935 46.218 99.4109 46.6591C100.297 47.7691 101.124 48.9354 102.01 50.0513C102.784 51.0281 102.849 51.9073 102.371 53.1535C100.717 57.4663 99.2839 61.8649 97.7448 66.2251C96.7611 69.0046 95.6918 71.7545 94.7524 74.5459C94.3566 75.7151 93.7067 76.1502 92.4896 76.1355C88.2742 76.0851 84.0589 76.1177 79.6396 76.1177C80.7681 72.613 81.737 69.5049 82.8093 66.4323C82.9275 66.0949 83.6305 65.7574 84.0559 65.7663C86.2035 65.8018 88.3481 66.0357 90.4898 66.0209C91.4764 66.0209 92.6255 65.8522 93.4083 65.3223C95.5441 63.8837 95.1807 61.3706 92.6757 59.7603C91.125 58.7363 89.5086 57.8157 87.837 57.0045C86.36 56.3089 86.0646 55.3646 86.6023 53.9379C86.9892 52.8634 87.3053 51.7563 87.5682 50.9482Z" fill="#E56565"/>
<path d="M48.2729 119.614C50.0454 119.887 51.9743 120.28 53.9122 120.455C56.7628 120.709 56.8662 120.781 56.6122 123.749C56.4763 125.265 56.3581 126.787 56.2783 128.308C56.0982 131.777 57.8026 133.654 61.3002 133.805C62.6649 133.864 64.0356 133.805 65.4565 133.805L66.5908 138.301C64.3281 138.301 62.2012 138.387 60.092 138.28C57.4511 138.147 54.8072 137.931 52.1841 137.612C49.8858 137.345 49.1562 136.324 49.0587 134.089C48.8401 129.297 48.5418 124.51 48.2729 119.614Z" fill="#E8B158"/>
<path d="M87.7988 48.178C86.3218 47.7784 85.4769 48.326 85.4356 49.8682C85.409 50.697 85.0073 50.996 84.2717 51.0522C82.7327 51.1499 81.1877 51.3985 79.6575 51.3157C78.1273 51.2328 77.4095 50.3004 77.6724 48.693C77.7253 48.1024 77.7312 47.5085 77.6901 46.917C80.8598 47.1834 84.0117 47.4409 87.1637 47.7369C87.3911 47.7577 87.592 48.0477 87.8047 48.2105L87.7988 48.178Z" fill="#E8B158"/>
<path d="M87.7983 48.1896H94.0549C93.9013 48.8409 93.7979 49.2789 93.6414 49.9479C91.5972 49.3263 89.7037 48.7491 87.8042 48.1719C87.7983 48.1808 87.7983 48.1896 87.7983 48.1896Z" fill="#E8B158"/>
<path d="M72.206 8.75732C71.7629 10.1693 71.4528 11.1668 71.1337 12.1851L68.7705 11.3385L72.206 8.75732Z" fill="#E8B158"/>
<path d="M73.829 25.5572C74.4199 23.7604 74.9073 22.3603 75.3858 20.9365L71.7021 19.2818C71.7021 19.0983 71.7228 18.9148 71.7317 18.7313C72.2811 18.6188 72.866 18.3316 73.3741 18.4352C74.7028 18.6969 76.0116 19.051 77.2912 19.4949C77.4504 19.6037 77.5787 19.7519 77.6636 19.9252C77.7485 20.0985 77.7871 20.2909 77.7756 20.4836C77.2557 21.9637 76.6472 23.4437 76.0032 24.8882C75.7272 25.4146 75.4132 25.9202 75.0638 26.4008L73.829 25.5572Z" fill="#4D3826"/>
</g>
<g filter="url(#filter2_d)">
<path d="M244.008 130.107C244.053 130.552 244.008 131.179 243.758 131.441C243.011 132.162 242.237 132.887 241.027 132.935C238.057 133.077 235.094 133.414 232.128 133.514C228.556 133.641 224.977 133.612 221.402 133.634C220.244 133.634 219.082 133.578 217.92 133.57C217.696 133.57 217.352 133.57 217.259 133.724C216.579 134.755 215.783 134.123 215.017 133.91C214.251 133.697 213.616 133.417 212.899 133.242C212.455 133.195 212.008 133.195 211.565 133.242C211.729 133.761 211.823 134.161 211.98 134.531C212.454 135.651 212.951 136.772 213.444 137.893C213.848 138.816 213.545 139.268 212.533 139.223C210.317 139.13 208.404 138.102 206.465 137.187C204.792 136.397 203.127 135.594 201.47 134.777C200.723 134.404 200.036 133.974 199.322 133.57C199.408 134.762 199.629 135.946 199.55 137.116C199.464 138.446 199.965 139.828 199.221 141.128C199.085 141.411 198.873 141.651 198.61 141.821C198.346 141.992 198.041 142.087 197.727 142.096C196.526 142.188 195.335 141.827 194.387 141.083C191.398 138.898 189.493 135.905 187.916 132.651C187.825 132.458 187.667 132.304 187.472 132.218C187.296 132.995 187.098 133.768 186.952 134.549C186.713 135.924 186.53 137.31 186.306 138.685C186.067 140.138 185.843 141.599 185.559 143.041C185.462 143.516 185.234 144.21 184.898 144.337C184.218 144.58 183.362 144.595 182.865 143.856C181.965 142.522 180.949 141.24 180.302 139.78C179.35 137.635 178.673 135.364 177.878 133.145C177.822 132.988 177.736 132.838 177.571 132.491C177.063 133.316 176.604 133.985 176.23 134.695C175.483 136.148 174.769 137.639 173.989 139.088C173.469 140.056 172.741 140.758 171.493 140.631C170.413 140.519 169.845 139.839 169.52 138.92C168.672 136.507 167.865 134.064 167.013 131.572C166.867 131.68 166.728 131.798 166.599 131.927C163.561 135.386 161.107 139.227 158.817 143.179C158.635 143.555 158.332 143.859 157.957 144.042C157.41 144.217 156.825 144.241 156.265 144.11C156.067 144.057 155.974 143.362 155.944 142.955C155.727 140.247 155.544 137.538 155.335 134.829C155.275 134.056 155.174 133.283 155.081 132.513C155.043 132.199 154.972 131.889 154.857 131.269C154.162 132.087 153.613 132.689 153.112 133.328C151.748 135.069 150.385 136.81 149.062 138.58C148.517 139.309 147.792 139.436 146.996 139.365C146.324 139.309 146.107 138.782 146.129 138.203C146.2 136.335 146.305 134.445 146.413 132.569C146.462 131.71 146.559 130.854 146.649 129.838C144.407 130.918 142.281 131.927 140.171 132.95C138.534 133.742 136.935 134.628 135.25 135.308C134.503 135.607 133.606 135.539 132.773 135.524C132.438 135.448 132.145 135.246 131.955 134.96C131.88 134.867 132.082 134.471 132.247 134.291C134.77 131.579 137.3 128.876 139.838 126.181L141.295 124.645C139.379 125.112 137.72 125.531 136.065 125.923C133.633 126.494 131.208 127.044 128.761 127.593C128.507 127.685 128.231 127.699 127.969 127.634C127.585 127.399 127.222 127.13 126.885 126.831C127.115 126.554 127.375 126.304 127.659 126.084C128.877 125.336 130.098 124.589 131.354 123.894C134.051 122.422 136.775 120.991 139.487 119.538C139.823 119.359 140.144 119.165 140.69 118.828C140.204 118.679 139.924 118.563 139.633 118.503C137.354 118.06 135.072 117.619 132.788 117.181C130.735 116.806 128.749 116.126 126.897 115.163C126.523 114.958 126.295 114.453 126 114.091C126.352 113.821 126.743 113.605 127.158 113.448C128.954 113.009 130.77 112.661 132.601 112.406C135.568 112.077 138.553 111.924 141.534 111.7C141.823 111.701 142.107 111.627 142.36 111.487C141.717 111.158 141.052 110.867 140.436 110.493C138.194 109.122 135.979 107.725 133.756 106.335C133.63 106.253 133.514 106.155 133.412 106.044C133.039 105.67 132.486 105.341 132.359 104.893C132.232 104.445 133.659 103.515 134.227 103.578C135.501 103.716 136.771 103.918 138.041 104.097C138.299 104.135 138.557 104.187 139.087 104.28C138.796 102.652 138.519 101.18 138.276 99.7001C138.217 99.3489 138.146 98.7362 138.276 98.669C138.65 98.4822 139.259 98.329 139.58 98.5121C140.731 99.1621 141.799 99.9616 142.902 100.698L147.501 103.761L147.702 103.615C147.19 102.17 146.712 100.705 146.152 99.2779C145.524 97.6752 144.792 96.1136 144.161 94.5109C143.94 93.9542 144.306 93.5918 144.844 93.476C145.08 93.4332 145.324 93.4672 145.539 93.5731C148.446 95.0675 151.689 95.1721 154.801 95.8147C155.118 95.882 155.439 95.9417 155.761 96.0164C156.751 96.2481 156.799 96.1696 156.882 95.1871C157.131 91.7574 157.415 88.3316 157.733 84.9094C157.763 84.5732 158.066 84.2631 158.342 83.7587V83.0489C158.742 83.0489 159.239 82.8957 159.523 83.0788C160.198 83.5049 160.804 84.0315 161.32 84.6404C162.967 86.6466 164.555 88.7052 166.143 90.7599C166.535 91.268 166.849 91.8396 167.365 92.6279C167.738 91.3278 168.089 90.2892 168.362 89.2357C169.061 86.5159 169.7 83.7849 170.428 81.0726C170.619 80.4103 170.929 79.7886 171.343 79.2382C171.624 78.8459 172.18 78.3192 172.52 78.3827C172.796 78.4535 173.054 78.5815 173.278 78.7585C173.501 78.9355 173.685 79.1575 173.817 79.4101C174.59 81.0838 175.192 82.8322 175.913 84.5321C176.409 85.7052 176.992 86.8446 177.616 88.156C178.535 87.1211 179.309 86.1908 180.145 85.3204C182.761 82.6155 185.376 79.9182 188.047 77.2694C188.234 77.1424 188.447 77.0575 188.67 77.0208C188.893 76.984 189.122 76.9962 189.34 77.0564C189.514 77.1377 189.665 77.2607 189.781 77.4145C189.896 77.5682 189.972 77.7481 190.001 77.9381C190.031 79.6604 190.001 81.3901 189.919 83.1124C189.814 85.0514 189.624 86.9829 189.455 88.9144C189.403 89.5345 189.306 90.1472 189.213 90.9019C189.837 90.6068 190.397 90.3714 190.931 90.0875C195.228 87.8011 199.524 85.496 203.82 83.232C204.299 83.0081 204.824 82.903 205.352 82.9256C206.398 82.9443 206.746 83.5607 206.249 84.4574C205.087 86.5682 203.899 88.6603 202.718 90.7599C202.427 91.2718 202.12 91.7724 201.754 92.3926C203.947 91.6977 206.028 91.0887 208.072 90.3826C211.225 89.288 214.348 88.1149 217.494 87.0202C217.894 86.9097 218.313 86.8868 218.723 86.953C219.41 87.0277 219.713 87.5283 219.328 88.0738C217.871 90.1435 216.34 92.1833 214.845 94.2232C214.251 95.0339 213.653 95.8446 213.014 96.6179C212.058 97.7761 210.358 100.309 209.338 101.605C209.591 101.551 209.841 101.481 210.085 101.396C212.282 100.623 214.434 99.7263 216.642 99.009C218.256 98.4897 219.937 98.1646 221.6 97.7873C222.04 97.7081 222.489 97.6943 222.933 97.7462C223.924 97.8359 224.11 98.1198 223.681 99.0202C221.813 102.79 220.124 106.66 217.647 110.101C217.513 110.288 217.408 110.497 217.146 110.945C218.45 110.945 219.56 110.919 220.669 110.945C224.136 111.035 227.605 111.141 231.074 111.263C231.71 111.278 232.34 111.389 232.942 111.592C233.282 111.711 233.521 112.111 233.805 112.387C233.566 112.608 233.361 112.929 233.058 113.041C230.351 114.11 227.635 115.158 224.91 116.187C223.789 116.605 222.668 116.979 221.323 117.461C221.92 117.802 222.536 118.107 223.169 118.376C224.91 118.981 226.669 119.546 228.429 120.11C230.103 120.644 231.791 121.111 233.454 121.701C233.887 121.854 234.201 122.363 234.575 122.71C234.239 123.054 233.955 123.562 233.547 123.704C232.5 124.022 231.438 124.288 230.364 124.499C230.148 124.552 229.923 124.563 229.557 124.615C231.706 126.076 233.966 126.775 236.316 127.279C238.385 127.727 240.425 128.254 242.484 128.807C243.138 128.983 243.926 129.244 244.008 130.107ZM241.49 131.034C241.681 130.978 241.957 130.589 241.908 130.455C241.855 130.323 241.773 130.204 241.67 130.107C241.566 130.009 241.442 129.936 241.307 129.89C239.338 129.416 237.373 128.93 235.382 128.56C233.22 128.22 231.148 127.45 229.288 126.296C226.999 124.803 224.301 124.062 221.57 124.178C220.899 124.229 220.232 124.316 219.571 124.44C219.65 124.638 219.657 124.709 219.694 124.742C219.806 124.839 219.934 124.922 220.049 125.015C221.663 126.341 223.337 127.63 224.185 129.622C224.284 129.966 224.343 130.321 224.361 130.679C223.987 130.724 223.554 130.907 223.221 130.798C221.073 130.096 218.955 129.304 216.81 128.602C215.663 128.228 214.479 127.952 213.313 127.63L213.085 127.892C213.657 128.695 214.206 129.506 214.804 130.294C215.491 131.224 216.168 132.069 217.554 132.072C221.222 132.072 224.895 132.282 228.567 132.27C231.668 132.27 234.773 132.125 237.866 131.897C239.088 131.818 240.295 131.37 241.49 131.034ZM173.839 86.9492L173.593 86.755C173.544 88.2008 172.535 88.2307 171.519 88.2494L171.497 88.4773L173.028 89.4934C173.32 88.5595 173.578 87.745 173.839 86.9306V86.9492Z" fill="#4D3826"/>
<path d="M241.908 130.456C241.957 130.591 241.68 130.979 241.49 131.035C240.294 131.372 239.087 131.82 237.866 131.91C234.772 132.126 231.668 132.261 228.567 132.283C224.894 132.283 221.222 132.093 217.553 132.085C216.167 132.085 215.491 131.237 214.804 130.307C214.217 129.519 213.657 128.708 213.085 127.905L213.313 127.643C214.478 127.964 215.663 128.237 216.81 128.614C218.954 129.321 221.072 130.109 223.221 130.811C223.553 130.92 223.968 130.736 224.36 130.692C224.343 130.334 224.284 129.979 224.185 129.634C223.336 127.628 221.663 126.354 220.049 125.028C219.933 124.935 219.806 124.852 219.694 124.755C219.657 124.722 219.649 124.651 219.571 124.453C220.232 124.329 220.899 124.242 221.569 124.191C224.3 124.075 226.999 124.815 229.288 126.309C231.148 127.463 233.219 128.233 235.381 128.573C237.373 128.947 239.338 129.429 241.306 129.903C241.44 129.947 241.563 130.019 241.667 130.115C241.771 130.21 241.853 130.327 241.908 130.456ZM239.988 130.946C239.838 130.707 239.745 130.333 239.536 130.251C238.715 129.929 237.872 129.668 237.014 129.47C236.868 129.464 236.723 129.495 236.592 129.56C236.461 129.626 236.349 129.723 236.267 129.844C236.244 129.994 236.261 130.147 236.314 130.289C236.368 130.431 236.457 130.557 236.573 130.654C237.316 131.009 238.077 131.326 238.852 131.603C239.267 131.372 239.629 131.162 239.988 130.946Z" fill="#C8A468"/>
<path d="M239.536 130.251C239.745 130.334 239.838 130.707 239.988 130.946C239.614 131.163 239.267 131.372 238.867 131.619C238.092 131.341 237.331 131.025 236.588 130.67C236.472 130.572 236.383 130.446 236.329 130.304C236.276 130.163 236.259 130.009 236.282 129.859C236.364 129.739 236.476 129.641 236.607 129.576C236.738 129.511 236.883 129.48 237.029 129.486C237.882 129.68 238.72 129.936 239.536 130.251Z" fill="#4D3826"/>
<path d="M173.592 86.7393L173.839 86.9335C173.578 87.748 173.32 88.5624 173.028 89.4777L171.497 88.4615L171.519 88.2336C172.528 88.215 173.544 88.1851 173.592 86.7393Z" fill="#4D3826"/>
</g>
<defs>
<filter id="filter0_d" x="228.881" y="0" width="110.119" height="150.949" filterUnits="userSpaceOnUse" color-interpolation-filters="sRGB">
<feFlood flood-opacity="0" result="BackgroundImageFix"/>
<feColorMatrix in="SourceAlpha" type="matrix" values="0 0 0 0 0 0 0 0 0 0 0 0 0 0 0 0 0 0 127 0"/>
<feOffset dy="4"/>
<feGaussianBlur stdDeviation="2"/>
<feColorMatrix type="matrix" values="0 0 0 0 0 0 0 0 0 0 0 0 0 0 0 0 0 0 0.25 0"/>
<feBlend mode="normal" in2="BackgroundImageFix" result="effect1_dropShadow"/>
<feBlend mode="normal" in="SourceGraphic" in2="effect1_dropShadow" result="shape"/>
</filter>
<filter id="filter1_d" x="-31" y="3.36084" width="147.639" height="148.697" filterUnits="userSpaceOnUse" color-interpolation-filters="sRGB">
<feFlood flood-opacity="0" result="BackgroundImageFix"/>
<feColorMatrix in="SourceAlpha" type="matrix" values="0 0 0 0 0 0 0 0 0 0 0 0 0 0 0 0 0 0 127 0"/>
<feOffset dy="4"/>
<feGaussianBlur stdDeviation="2"/>
<feColorMatrix type="matrix" values="0 0 0 0 0 0 0 0 0 0 0 0 0 0 0 0 0 0 0.25 0"/>
<feBlend mode="normal" in2="BackgroundImageFix" result="effect1_dropShadow"/>
<feBlend mode="normal" in="SourceGraphic" in2="effect1_dropShadow" result="shape"/>
</filter>
<filter id="filter2_d" x="122" y="77" width="126.023" height="75.4868" filterUnits="userSpaceOnUse" color-interpolation-filters="sRGB">
<feFlood flood-opacity="0" result="BackgroundImageFix"/>
<feColorMatrix in="SourceAlpha" type="matrix" values="0 0 0 0 0 0 0 0 0 0 0 0 0 0 0 0 0 0 127 0"/>
<feOffset dy="4"/>
<feGaussianBlur stdDeviation="2"/>
<feColorMatrix type="matrix" values="0 0 0 0 0 0 0 0 0 0 0 0 0 0 0 0 0 0 0.25 0"/>
<feBlend mode="normal" in2="BackgroundImageFix" result="effect1_dropShadow"/>
<feBlend mode="normal" in="SourceGraphic" in2="effect1_dropShadow" result="shape"/>
</filter>
</defs>
</svg>
