<svg width="111" height="151" viewBox="0 0 111 151" fill="none" xmlns="http://www.w3.org/2000/svg">
<g filter="url(#filter0_d)">
<path d="M82.8642 100.913C81.5815 101.349 80.5493 101.763 79.4842 102.036C78.8213 102.209 78.3406 102.368 78.2192 103.162C77.7587 105.986 77.192 108.793 76.7518 111.619C76.3344 114.296 75.9447 116.984 75.6968 119.681C75.4666 122.188 75.4691 124.718 75.3122 127.233C75.125 130.253 74.8695 133.264 74.6544 136.281C74.5532 137.703 74.5963 139.151 74.3331 140.54C74.1889 141.301 73.65 142.077 73.0833 142.637C72.757 142.961 72.0157 142.966 71.4717 142.939C70.6824 142.898 69.8981 142.576 69.1138 142.581C65.4226 142.609 61.7313 142.713 58.0401 142.774C57.7435 142.798 57.4467 142.729 57.19 142.579C56.8046 142.236 56.4452 141.865 56.1148 141.468C56.5019 141.182 56.851 140.809 57.2811 140.626C59.8111 139.541 62.4928 138.718 64.8837 137.381C66.9431 136.231 67.9981 134.071 68.7672 131.804C70.2346 127.494 70.0524 122.974 70.48 118.548C70.8855 114.362 70.9979 110.152 70.8165 105.951C70.6824 102.863 68.8734 100.437 66.3106 98.4694C66.0905 98.8978 65.8855 99.1386 65.8451 99.4074C65.4529 101.899 63.9779 103.877 62.7458 105.966C61.4809 108.103 60.2007 110.227 58.88 112.329C55.9933 116.92 53.0611 121.476 50.1896 126.08C49.1245 127.791 48.2061 129.593 47.2169 131.353C46.2276 133.112 45.1676 134.902 44.2037 136.725C43.5206 138.013 43.1588 139.377 43.9861 141.179C42.2151 141.329 40.5858 141.562 38.9565 141.582C36.2241 141.615 33.4892 141.582 30.7619 141.43C29.6715 141.369 28.5785 140.971 27.5387 140.594C27.2123 140.474 26.8 139.833 26.8733 139.579C26.9669 139.242 27.4932 138.88 27.8853 138.796C30.094 138.327 32.3305 137.977 34.5391 137.506C35.6432 137.281 36.7222 136.947 37.7598 136.507C38.3367 136.241 38.813 135.797 39.1184 135.239C40.9906 131.622 42.797 127.974 44.611 124.325C46.0682 121.392 47.6469 118.507 48.9119 115.498C51.0827 110.402 53.1623 105.261 54.3539 99.8181C54.4222 99.5012 54.5411 99.0981 54.4146 98.8496C53.6025 97.2423 52.76 95.6477 51.8442 94.1013C51.6848 93.8326 50.9511 93.574 50.7765 93.7058C49.7898 94.4384 49.0359 93.8604 48.2466 93.394C47.2573 95.2345 46.1011 95.5387 44.4263 94.2914C43.3232 93.47 42.3492 92.4737 41.2739 91.6117C40.5605 91.0363 39.756 90.5977 39.0248 90.0273C38.2936 89.4569 37.6257 88.8307 36.8895 88.1918C34.734 90.1743 33.8535 87.5758 32.3355 86.9749C32.1129 87.1778 31.8523 87.3856 31.6322 87.629C30.6961 88.6634 29.206 88.7039 28.409 87.6011C26.5141 84.995 24.6925 82.3305 22.8178 79.7117C22.4838 79.2452 21.6844 78.9765 21.5806 78.5101C21.1682 76.6315 19.5743 75.4831 18.8862 73.8149C18.2942 72.3851 17.854 70.8919 17.3429 69.4266C17.3155 69.3026 17.2531 69.1891 17.1633 69.0995C15.0305 67.7077 15.7035 65.4312 15.3923 63.469C15.3721 63.3447 15.3569 63.2154 15.3265 63C14.14 62.9492 13.8541 62.1405 13.8946 61.1113C14.0109 58.2136 14.1324 55.3184 14.2412 52.6641C13.2013 52.1571 11.9844 51.7388 10.9522 51.034C9.33048 49.9211 7.70623 48.7524 6.31728 47.3682C4.27812 45.34 4.40968 44.1739 6.71449 42.4195C9.42552 40.3341 11.7184 37.7536 13.4721 34.8141C15.5365 31.4043 18.408 28.8083 21.3428 26.2427C23.6527 24.2146 25.9954 22.2422 28.3357 20.2572C28.6975 19.9659 29.0825 19.7048 29.4868 19.4764C30.8429 18.6677 31.0503 17.7018 30.0307 16.5077C29.8587 16.3074 29.3856 16.2821 29.0592 16.3074C25.7526 16.5609 22.4484 17.0071 19.1417 17.0325C17.5352 17.0477 15.8781 16.4038 14.3348 15.8333C13.2241 15.4252 13.0926 14.6722 13.8288 13.7621C14.3757 13.0777 15.0221 12.4794 15.7465 11.9875C17.7376 10.6642 19.8552 9.52841 21.7906 8.13154C23.5616 6.85128 25.3326 5.51272 26.6558 3.70008C27.7765 2.17899 29.3299 1.33478 31.1971 0.97225C33.5778 0.508316 35.8826 -0.434763 38.3948 0.229448C39.7509 0.589441 39.89 0.713663 39.4068 2.0573C40.0899 2.24743 40.7831 2.40968 41.4536 2.63531C41.7121 2.75002 41.9478 2.91063 42.1493 3.10939C42.5187 3.41868 42.8729 3.74571 43.2271 4.07021C43.5433 4.36176 43.8495 4.66344 44.1632 4.96005C43.7913 5.19582 43.427 5.44427 43.0475 5.66229C42.8375 5.78144 42.5997 5.85243 42.167 6.03242C42.6477 6.67889 42.9893 7.3 43.4851 7.77915C45.3801 9.56897 45.714 11.9292 45.6053 14.2742C45.4813 16.9108 44.6439 19.5271 44.6515 22.151C44.6515 25.0639 42.9766 26.8765 41.4738 28.968C40.2822 30.6285 39.4498 32.5426 38.4227 34.3273C36.5024 37.6661 37.1577 41.1292 38.0027 44.5567C38.3088 45.6073 38.8177 46.5874 39.5004 47.4417C40.8211 49.2011 42.4555 49.5154 44.4971 48.6155C46.3719 47.7915 48.1833 46.6152 50.1466 46.2426C54.6272 45.3933 59.1305 44.4477 63.7502 44.7215C64.7445 44.7798 65.4175 45.1296 65.4453 46.2882C68.241 46.1259 71.0265 45.9586 73.8145 45.8014C74.5086 45.7436 75.2056 45.7275 75.9017 45.7533C76.9567 45.8243 77.2426 46.6482 76.643 47.9639C79.2109 48.1667 81.1261 49.7132 83.1577 51.0365C84.2481 51.7464 85.4347 52.3168 86.5453 52.9835C87.656 53.6503 89.2752 54.099 89.7381 55.0827C90.7729 57.2958 92.9284 57.0423 94.5147 57.9854C96.5716 59.2048 98.5627 60.5561 99.7796 62.7464C99.8729 62.8878 99.9342 63.0479 99.9593 63.2154C100.106 66.1157 102.183 67.9892 103.754 70.0604C105.019 71.7133 105.809 73.2623 105.229 75.3487C105.133 75.696 105.333 76.1498 105.482 76.5301C105.958 77.8712 106.494 79.1945 106.945 80.5407C107.031 80.7942 107.02 81.2785 106.884 81.3545C105.571 82.0948 106.226 83.1748 106.378 84.1432C106.631 85.7277 106.826 87.2411 106.054 88.8028C105.717 89.4822 105.902 90.4532 105.965 91.2847C106.036 92.1847 105.664 92.7019 104.819 92.7602C103.853 92.8261 103.678 93.3128 103.716 94.1723C103.728 95.1803 103.684 96.1882 103.587 97.1916C103.57 97.4806 103.559 97.9522 103.395 98.0257C101.399 99.0119 101.804 101.192 100.981 102.754C100.799 103.175 100.518 103.547 100.162 103.836C99.9876 103.939 99.7931 104.002 99.5921 104.021C99.391 104.041 99.1882 104.015 98.9978 103.948C97.9859 103.426 97.07 102.761 96.0884 102.193C95.8733 102.069 95.4508 101.996 95.299 102.117C94.4009 102.835 93.4876 102.624 92.5894 102.221C91.7697 101.864 91.2915 102.084 90.8412 102.85C89.9178 104.419 89.5762 104.455 87.7521 104.095C85.7802 103.691 84.0338 102.555 82.8642 100.913ZM36.4771 33.1333C33.7144 34.1752 31.2375 35.2628 28.6671 36.0335C26.0966 36.8042 23.468 37.2351 21.0367 37.7777C21.191 38.3202 21.5174 38.9768 21.5427 39.6435C21.6396 41.9732 20.8223 44.2483 19.2657 45.9814C16.9887 48.5774 16.3992 51.7489 15.916 54.9508C15.6757 56.5454 15.7769 58.1958 15.7693 59.8183C15.7693 60.0972 15.9742 60.5992 16.131 60.6194C17.1582 60.7513 17.1279 61.4586 17.143 62.2064C17.1369 63.2092 17.1893 64.2115 17.2999 65.2081C17.4112 65.8321 17.6286 66.4324 17.9425 66.9827C18.1955 67.4365 18.7015 67.7585 18.8913 68.2249C19.7413 70.3595 19.8754 72.849 22.0461 74.3093C22.2435 74.4411 22.2561 74.8442 22.3674 75.1155C22.6685 75.8481 22.8734 76.6619 23.3035 77.2957C24.8569 79.5191 26.4938 81.6841 28.1105 83.8618C28.7784 84.7617 29.4716 85.6364 30.1522 86.5364C32.4292 84.5944 32.8466 84.6172 35.5764 86.7544C36.9806 86.0217 37.8028 86.1738 39.0906 87.2437C40.0494 88.0422 41.0969 88.7343 42.0937 89.4873C42.4224 89.7469 42.7366 90.0245 43.0348 90.3188C43.9911 91.2239 44.9399 92.1391 45.9569 93.1075C47.3206 90.0881 47.3206 90.0881 50.1365 91.9667C50.4704 91.7892 50.8954 91.3811 51.1206 91.4749C52.4868 92.0732 54.0604 91.665 55.3254 92.1771C57.4456 93.0365 59.3734 94.3497 61.4252 95.4855C61.5036 95.3663 61.6099 95.1863 61.7313 95.0165C63.0621 93.1303 63.5023 93.1354 64.866 95.0545C66.0626 96.7429 67.9956 97.1536 69.764 96.0964C71.6843 94.9429 73.1769 95.2624 74.571 97.0091C74.9909 97.5313 75.6437 97.8634 76.1699 98.3096C76.4214 98.5144 76.6414 98.7553 76.8226 99.0246C78.032 100.908 80.0129 101.053 81.5208 99.3845C81.8609 98.9554 82.2933 98.6088 82.7858 98.3705C83.1121 98.2463 83.947 98.5074 83.9521 98.624C84.0027 100.018 85.2651 100.378 86.0343 101.081C88.0582 102.926 89.0399 102.769 90.5882 100.596C91.4762 99.344 91.9291 99.3161 93.0423 100.419C93.4218 100.794 93.7507 101.283 94.3958 100.705C95.8582 99.3972 95.9771 99.4175 97.5634 100.563C97.9156 100.859 98.3063 101.106 98.7246 101.296C98.9574 101.38 99.4963 101.238 99.5519 101.081C100.329 98.8293 102.236 96.9457 101.763 94.2889C101.558 93.1328 101.963 92.2836 103.117 91.9236C103.812 91.7081 103.992 91.2999 103.946 90.6028C103.901 89.8549 103.792 89.0031 104.078 88.3591C105.007 86.2752 104.531 84.3485 103.805 82.3635C103.666 81.9858 103.838 81.2075 104.129 81.0173C104.743 80.6142 104.779 80.1579 104.564 79.6382C104.081 78.4746 103.509 77.3566 103.015 76.1929C102.889 75.8938 102.778 75.4476 102.907 75.1991C103.58 73.9011 103.238 72.8059 102.439 71.7108C101.454 70.3545 100.523 68.9601 99.5671 67.581C99.3141 67.2007 99.0991 66.7393 98.7524 66.4655C97.872 65.7709 97.6772 64.8658 97.5558 63.8137C97.4728 63.1341 97.1432 62.5087 96.6298 62.0569C94.707 60.622 93.0701 58.7054 90.5579 58.2161C90.2259 58.1623 89.9083 58.0416 89.6243 57.8612C88.7413 57.2375 87.4814 56.7356 87.1348 55.8762C86.687 54.7708 85.9204 54.4083 85.0805 53.9621C84.0052 53.3917 82.7352 53.0621 81.8472 52.2889C79.4538 50.2076 76.8049 49.0794 73.6121 49.2112C73.2098 49.2264 72.7898 48.8031 72.1219 48.4507L73.9056 47.3935C71.0593 47.4417 68.2789 47.6952 65.4985 47.9589C63.0899 48.1845 62.7889 48.0425 61.8249 46.0271C59.6922 46.3516 57.5063 46.8586 55.3027 46.9752C51.6367 47.1679 48.3882 48.4025 45.2232 50.1543C43.4143 51.1684 41.4536 51.3585 39.5207 50.1036C37.3828 48.7194 36.214 46.8789 35.6523 44.3463C34.8124 40.5663 34.481 36.9157 36.4771 33.1333ZM25.9069 32.246C31.068 30.7477 35.3563 28.2252 39.5257 25.4517C40.8919 24.5441 41.8482 23.4033 42.1443 21.7834C42.5642 19.4764 43.0677 17.177 43.2979 14.8497C43.5509 12.3145 43.0019 9.96699 41.2183 7.95915C40.5377 7.1986 40.2063 6.11862 39.6877 5.13498C39.382 5.03662 39.0828 4.91892 38.792 4.78259C38.2304 4.49612 37.7117 4.13106 37.14 3.8674C36.6669 3.64938 36.128 3.58093 35.6523 3.36037C32.4013 1.87223 29.4817 2.64545 27.4375 5.66229C27.3672 5.78022 27.3259 5.91326 27.3171 6.05038C27.3083 6.18749 27.3322 6.32473 27.3869 6.45073C28.4875 7.96168 29.6234 9.44728 30.7644 10.9202C32.5354 13.25 33.1224 13.9624 31.8144 15.6964C34.4835 19.5879 32.4595 23.0281 30.5114 26.3289C29.2996 28.3798 27.5792 30.1316 25.9069 32.246ZM30.0813 139.861C33.3703 139.861 36.6416 139.841 39.9027 139.861C41.1677 139.861 41.952 139.511 41.9267 138.051C41.9267 137.544 42.2151 136.994 42.463 136.512C44.1556 133.216 45.7647 129.888 47.6115 126.688C50.4552 121.767 53.4963 116.963 56.4032 112.078C58.5663 108.438 60.7042 104.784 62.7281 101.065C63.4467 99.742 64.2765 98.2767 63.4163 96.5021C62.4321 97.4502 61.3771 97.9395 60.1931 97.2626C58.1691 96.1193 56.2084 94.8922 54.2173 93.7007L53.9289 93.9542C54.2679 94.4942 54.5841 95.0494 54.9409 95.5666C56.3349 97.5161 57.0939 99.4885 56.3703 102.021C55.0724 106.569 53.5367 111.006 51.3534 115.204C50.4147 117.009 49.3117 118.733 48.3933 120.551C46.7184 123.864 45.1246 127.221 43.4978 130.559C42.7388 132.08 42.119 133.69 41.2208 135.123C40.6237 136.086 39.8015 137.232 38.8275 137.579C36.5505 138.393 34.0964 138.768 31.7182 139.339C31.1793 139.501 30.6202 139.699 30.0813 139.861ZM14.6485 36.6977C12.5891 38.8551 10.6359 41.1368 8.4298 43.1649C6.64364 44.795 6.49437 45.0358 8.32101 46.7141C8.50103 46.8918 8.69291 47.0569 8.89532 47.2085C10.2817 48.1718 11.6555 49.1555 13.0824 50.0529C13.2545 50.1594 13.8414 49.8754 14.0413 49.6219C14.8585 48.6079 15.6377 47.5735 16.3638 46.5011C17.6136 44.6556 18.8761 42.815 19.21 40.5207C19.3188 39.7804 19.2632 39.281 18.4763 38.8906C17.1026 38.2061 15.8199 37.3797 14.6384 36.6977H14.6485ZM61.4151 141.113C64.8457 140.961 67.993 140.842 71.1428 140.652C71.3238 140.608 71.4909 140.519 71.6288 140.394C71.7667 140.269 71.871 140.111 71.9322 139.934C72.2408 138.066 72.5621 136.187 72.6912 134.301C73.0074 129.555 73.1845 124.799 73.5058 120.054C73.6171 118.424 74.2016 116.814 74.2142 115.191C74.2446 110.854 74.9732 106.633 75.965 102.439C76.1775 101.544 75.8435 101.207 75.039 101.032C74.6966 100.969 74.386 100.79 74.1586 100.525C73.5893 99.715 73.0624 98.8755 72.5799 98.0105C72.1219 97.1891 71.4667 97.2221 70.7583 97.5161C70.2534 97.7524 69.7611 98.0147 69.2833 98.302C69.5565 98.6037 69.7615 98.8091 69.9436 99.0322C71.8942 101.443 73.4147 103.905 73.5488 107.261C73.7588 112.585 72.9669 117.82 72.5976 123.088C72.4281 125.527 71.9524 127.953 71.4616 130.354C70.7026 134.116 69.0834 137.338 65.3517 139.06C64.1095 139.628 62.9255 140.317 61.4151 141.113ZM30.7644 21.1217L30.3116 20.8023C25.3192 24.257 20.8675 28.4368 17.1026 33.2042C18.3372 34.1397 19.587 33.9217 20.7963 33.5972C21.8842 33.3031 22.9822 33.3031 23.7766 32.0026C25.1909 29.6905 27.1238 27.6928 28.657 25.4517C29.5399 24.1335 30.0763 22.5743 30.7644 21.1217ZM17.5074 13.1866C19.0102 12.7633 20.5965 12.2461 22.2182 11.9191C22.6483 11.8278 23.1922 12.2765 23.6856 12.4768C23.3187 12.8393 23.0126 13.3742 22.5724 13.534C21.105 14.0739 19.587 14.4796 18.0867 14.9359C21.4693 14.9866 24.7633 14.7863 28.0523 14.5176C28.7177 14.4618 29.3628 14.1475 30.0156 13.9548C29.6715 13.2145 29.3527 12.459 28.9631 11.7441C28.8315 11.4906 28.4773 11.3994 28.3002 11.1737C27.5994 10.289 26.6406 9.47517 26.3193 8.46364C25.8892 7.1048 25.3756 7.49014 24.6545 8.00985C22.2511 9.74136 19.8451 11.4957 17.5175 13.1866H17.5074ZM41.1449 27.0616L40.8919 26.7903C40.4036 27.1021 39.9255 27.4342 39.422 27.7182C36.9603 29.11 34.5796 30.697 31.9965 31.8175C29.2566 33.0065 26.3547 33.8659 23.4655 34.6493C21.654 35.1411 19.8071 35.9878 17.8363 35.2653C17.2847 35.0625 16.7408 34.8369 16.1918 34.6239L15.9843 34.9941C16.5789 35.3617 17.1734 36.0411 17.7705 36.0436C20.0475 36.0588 22.4332 36.2566 24.5685 35.6481C28.4622 34.5377 32.2268 32.9583 36.0015 31.4601C38.2 30.5905 39.594 28.7145 41.155 27.0616H41.1449Z" fill="#4D3826"/>
<path d="M36.4781 33.1323C34.4819 36.9148 34.8007 40.5654 35.6432 44.3529C36.2048 46.8881 37.3737 48.7261 39.5115 50.1103C41.4444 51.3652 43.4051 51.1649 45.214 50.161C48.379 48.4092 51.6275 47.1746 55.2935 46.9819C57.4971 46.8653 59.683 46.3583 61.8157 46.0338C62.7797 48.0619 63.0807 48.1912 65.4893 47.9655C68.2722 47.712 71.0552 47.4585 73.8964 47.4002L72.1127 48.4574C72.7806 48.8097 73.2006 49.2331 73.6029 49.2179C76.7957 49.0861 79.4446 50.2142 81.838 52.2956C82.726 53.0561 83.996 53.3984 85.0713 53.9688C85.9112 54.415 86.6778 54.7775 87.1256 55.8828C87.4722 56.7423 88.7321 57.2442 89.6151 57.8679C89.8991 58.0483 90.2167 58.169 90.5487 58.2228C93.0786 58.7121 94.7079 60.6287 96.6206 62.0636C97.134 62.5154 97.4636 63.1407 97.5465 63.8204C97.668 64.8725 97.8628 65.7776 98.7432 66.4722C99.0898 66.746 99.2948 67.2074 99.5579 67.5877C100.514 68.9668 101.445 70.3611 102.429 71.7174C103.229 72.8126 103.57 73.9078 102.897 75.2058C102.768 75.4593 102.88 75.9005 103.006 76.1996C103.512 77.3582 104.071 78.4812 104.555 79.6449C104.77 80.1646 104.734 80.6209 104.119 81.024C103.828 81.2141 103.656 81.9924 103.796 82.3702C104.522 84.3552 104.997 86.2819 104.069 88.3658C103.783 89.0098 103.892 89.8616 103.937 90.6094C103.983 91.3066 103.803 91.7148 103.107 91.9303C101.954 92.2902 101.549 93.1395 101.754 94.2956C102.227 96.9524 100.319 98.836 99.5427 101.087C99.487 101.244 98.9482 101.386 98.7154 101.303C98.297 101.112 97.9064 100.866 97.5541 100.57C95.9678 99.4242 95.8489 99.4039 94.3866 100.712C93.7415 101.29 93.4126 100.801 93.0331 100.426C91.9199 99.3228 91.467 99.3507 90.579 100.603C89.0357 102.776 88.049 102.933 86.0251 101.087C85.2661 100.385 84.0011 100.025 83.9429 98.6307C83.9429 98.5191 83.1029 98.258 82.7766 98.3772C82.2841 98.6155 81.8517 98.9621 81.5116 99.3912C79.9936 101.062 78.0228 100.912 76.8134 99.0312C76.6322 98.762 76.4122 98.5211 76.1607 98.3163C75.6345 97.8701 74.9817 97.538 74.5617 97.0158C73.1601 95.2691 71.6674 94.9496 69.7548 96.1031C67.9838 97.1603 66.0534 96.7496 64.8568 95.0612C63.5007 93.1421 63.0529 93.137 61.7221 95.0232C61.6007 95.193 61.4944 95.373 61.416 95.4922C59.3743 94.3564 57.4363 93.0432 55.3162 92.1838C54.0512 91.6767 52.4776 92.0798 51.1114 91.4815C50.8938 91.3877 50.4612 91.7959 50.1273 91.9734C47.3114 90.0948 47.3114 90.0948 45.9477 93.1142C44.9358 92.1432 43.982 91.228 43.0256 90.3255C42.7232 90.0326 42.4048 89.7566 42.0718 89.499C41.075 88.7385 40.0276 88.054 39.0687 87.2554C37.781 86.1856 36.9587 86.0335 35.5546 86.7661C32.8248 84.629 32.4098 84.6062 30.1303 86.5481C29.4498 85.6557 28.7566 84.7735 28.0886 83.8735C26.472 81.6958 24.8351 79.5308 23.2817 77.3075C22.839 76.6737 22.6467 75.8599 22.3456 75.1272C22.2343 74.856 22.2216 74.4529 22.0243 74.321C19.8536 72.8557 19.7195 70.3662 18.8694 68.2367C18.6847 67.7702 18.161 67.4482 17.9207 66.9944C17.6067 66.4441 17.3894 65.8439 17.2781 65.2198C17.1675 64.2232 17.1151 63.221 17.1212 62.2182C17.1086 61.4577 17.1389 60.763 16.1092 60.6312C15.9524 60.6109 15.7474 60.1089 15.7474 59.8301C15.7474 58.2076 15.6538 56.5572 15.8942 54.9626C16.3774 51.7607 16.9593 48.5892 19.2439 45.9932C20.8005 44.26 21.6178 41.985 21.5208 39.6553C21.4955 38.9885 21.1692 38.3319 21.0149 37.7894C23.4462 37.2469 26.0925 36.8083 28.6452 36.0452C31.198 35.2821 33.7153 34.1743 36.4781 33.1323Z" fill="#965353"/>
<path d="M25.9053 32.2463C27.5776 30.1319 29.298 28.3801 30.5098 26.3292C32.4579 23.0335 34.4819 19.5781 31.8027 15.6968C33.1107 13.9526 32.5338 13.2503 30.7628 10.9205C29.6319 9.43745 28.4859 7.96199 27.3954 6.4561C27.3407 6.33011 27.3168 6.19287 27.3256 6.05575C27.3344 5.91864 27.3757 5.7856 27.446 5.66767C29.4903 2.65083 32.4099 1.86493 35.6609 3.36574C36.134 3.58123 36.6729 3.64968 37.1485 3.87277C37.7203 4.12629 38.239 4.50149 38.8006 4.78797C39.0882 4.92303 39.3839 5.03988 39.6861 5.13782C40.1921 6.12146 40.5362 7.1989 41.2167 7.96199C42.9877 9.96983 43.5468 12.325 43.2964 14.8525C43.0661 17.1798 42.5627 19.4792 42.1427 21.7862C41.8467 23.4062 40.8777 24.547 39.5242 25.4546C35.3548 28.2255 31.0664 30.7429 25.9053 32.2463ZM33.2245 3.19589C30.9146 3.20349 28.9919 4.85895 28.9919 6.82623C28.9919 8.11663 30.8337 9.48308 32.5338 9.46026C34.1733 9.43745 35.8835 7.74143 35.881 6.14428C35.8785 4.54713 34.6691 3.19082 33.2245 3.19589Z" fill="#965353"/>
<path d="M30.082 139.861C30.6209 139.699 31.1801 139.504 31.7518 139.367C34.13 138.797 36.5714 138.421 38.8611 137.608C39.8351 137.26 40.6573 136.114 41.2544 135.151C42.1475 133.711 42.7724 132.109 43.5314 130.588C45.1582 127.249 46.7521 123.892 48.4269 120.579C49.3453 118.761 50.4509 117.03 51.387 115.232C53.5703 111.037 55.106 106.6 56.4039 102.049C57.1275 99.5142 56.3685 97.5444 54.9745 95.5949C54.6051 95.0878 54.2889 94.5225 53.9625 93.9825L54.2509 93.729C56.242 94.9205 58.2103 96.1475 60.2267 97.2909C61.4107 97.9602 62.4657 97.4709 63.4499 96.5304C64.3101 98.305 63.4802 99.7652 62.7617 101.094C60.7378 104.813 58.5974 108.466 56.4368 112.106C53.5299 116.992 50.4888 121.796 47.6451 126.717C45.7982 129.916 44.1892 133.255 42.4966 136.54C42.2436 137.022 41.9552 137.554 41.9603 138.079C41.9729 139.539 41.2013 139.902 39.9363 139.889C36.6423 139.841 33.3811 139.861 30.082 139.861Z" fill="#DCD594"/>
<path d="M14.639 36.6953C15.8205 37.3773 17.1133 38.2037 18.477 38.8806C19.2638 39.271 19.3195 39.7705 19.2107 40.5107C18.8767 42.805 17.6143 44.6456 16.3644 46.4912C15.6383 47.5635 14.8465 48.6055 14.0419 49.6119C13.837 49.8654 13.2551 50.1494 13.0831 50.0429C11.6562 49.1455 10.2824 48.1618 8.89597 47.1985C8.69356 47.0469 8.50168 46.8818 8.32166 46.7041C6.49502 45.0258 6.64429 44.785 8.43045 43.1549C10.6366 41.1344 12.5897 38.8527 14.639 36.6953Z" fill="#EFEFEF"/>
<path d="M61.4165 141.112C62.9345 140.316 64.1109 139.626 65.3506 139.053C69.0823 137.332 70.6914 134.11 71.4605 130.348C71.9513 127.947 72.427 125.531 72.5965 123.082C72.9659 117.814 73.7577 112.584 73.5477 107.255C73.4137 103.898 71.8931 101.437 69.9425 99.0256C69.7604 98.8025 69.5554 98.5971 69.2822 98.2955C69.76 98.0081 70.2523 97.7458 70.7572 97.5096C71.4656 97.2155 72.1208 97.1825 72.5788 98.0039C73.0613 98.869 73.5882 99.7084 74.1575 100.519C74.385 100.783 74.6955 100.962 75.0379 101.026C75.8424 101.201 76.1764 101.533 75.9639 102.433C74.9721 106.626 74.2435 110.847 74.2131 115.185C74.2005 116.807 73.6161 118.417 73.5047 120.047C73.1834 124.793 72.9988 129.549 72.6901 134.295C72.5636 136.181 72.2423 138.059 71.9311 139.928C71.8699 140.104 71.7656 140.262 71.6277 140.387C71.4898 140.513 71.3227 140.601 71.1417 140.645C67.9995 140.841 64.8472 140.96 61.4165 141.112Z" fill="#DCD594"/>
<path d="M17.5181 13.1863C19.8456 11.4954 22.2517 9.74103 24.6653 7.99684C25.3863 7.47713 25.8999 7.09179 26.33 8.45063C26.6513 9.4647 27.6101 10.2759 28.3109 11.1607C28.488 11.3863 28.8422 11.4903 28.9738 11.7311C29.3634 12.446 29.6822 13.2015 30.0263 13.9418C29.3735 14.1345 28.7284 14.4488 28.063 14.5046C24.774 14.7733 21.4851 14.9736 18.0974 14.9229C19.5977 14.4666 21.1157 14.0609 22.5831 13.521C23.0233 13.3612 23.3421 12.8263 23.6963 12.4638C23.2029 12.2635 22.659 11.8148 22.2289 11.9061C20.6072 12.2356 19.0209 12.7629 17.5181 13.1863Z" fill="#B7B7B7"/>
<path d="M41.1568 27.0613C39.5958 28.7041 38.2018 30.5902 36.0083 31.4598C32.2336 32.9581 28.469 34.5375 24.5754 35.6479C22.4401 36.2563 20.0518 36.0586 17.7774 36.0434C17.1803 36.0434 16.5858 35.3614 15.9912 34.9938L16.1987 34.6237C16.7477 34.8366 17.2916 35.0623 17.8432 35.2651C19.814 35.9876 21.6609 35.1409 23.4723 34.649C26.3616 33.8657 29.2634 33.0062 32.0034 31.8173C34.5865 30.6967 36.9672 29.1097 39.4289 27.7179C39.9349 27.434 40.4105 27.1019 40.8988 26.79L41.1568 27.0613Z" fill="#FFF794"/>
<path d="M33.2253 3.19482C34.6699 3.19482 35.8817 4.53339 35.8843 6.14321C35.8868 7.75304 34.1765 9.44653 32.5346 9.4592C30.8421 9.48202 29.0079 8.11557 28.9927 6.82517C28.9927 4.85789 30.9154 3.20243 33.2253 3.19482ZM32.0489 5.67167L33.1646 7.81642L34.5915 6.56912C33.4251 6.49053 33.2708 4.75141 32.0489 5.67167Z" fill="#4D3826"/>
<path d="M32.0503 5.67371C33.2723 4.75345 33.4266 6.49257 34.5803 6.57116L33.1534 7.81846L32.0503 5.67371Z" fill="white"/>
</g>
<defs>
<filter id="filter0_d" x="0.880859" y="0" width="110.119" height="150.949" filterUnits="userSpaceOnUse" color-interpolation-filters="sRGB">
<feFlood flood-opacity="0" result="BackgroundImageFix"/>
<feColorMatrix in="SourceAlpha" type="matrix" values="0 0 0 0 0 0 0 0 0 0 0 0 0 0 0 0 0 0 127 0"/>
<feOffset dy="4"/>
<feGaussianBlur stdDeviation="2"/>
<feColorMatrix type="matrix" values="0 0 0 0 0 0 0 0 0 0 0 0 0 0 0 0 0 0 0.25 0"/>
<feBlend mode="normal" in2="BackgroundImageFix" result="effect1_dropShadow"/>
<feBlend mode="normal" in="SourceGraphic" in2="effect1_dropShadow" result="shape"/>
</filter>
</defs>
</svg>
