<svg width="127" height="76" viewBox="0 0 127 76" fill="none" xmlns="http://www.w3.org/2000/svg">
<g filter="url(#filter0_d)">
<path d="M122.008 53.1072C122.053 53.5518 122.008 54.1794 121.758 54.4409C121.011 55.162 120.237 55.8867 119.027 55.9353C116.057 56.0773 113.094 56.4135 110.128 56.5144C106.556 56.6414 102.977 56.6115 99.4017 56.6339C98.2436 56.6339 97.0817 56.5779 95.9198 56.5704C95.6957 56.5704 95.352 56.5704 95.2585 56.7236C94.5786 57.7547 93.7828 57.1233 93.017 56.9104C92.2511 56.6974 91.616 56.4172 90.8987 56.2417C90.4553 56.1954 90.0083 56.1954 89.5649 56.2417C89.7293 56.761 89.8227 57.1607 89.9796 57.5306C90.4541 58.6514 90.951 59.7722 91.4441 60.8929C91.8476 61.8157 91.545 62.2678 90.5325 62.2229C88.3171 62.1296 86.4043 61.1022 84.4653 60.1868C82.7916 59.3973 81.1266 58.5941 79.4703 57.7771C78.7232 57.4035 78.0357 56.9739 77.3222 56.5704C77.4081 57.7622 77.6285 58.9465 77.55 60.1159C77.4641 61.4459 77.9647 62.8282 77.2213 64.1283C77.0846 64.4109 76.873 64.6506 76.6095 64.8212C76.346 64.9918 76.0407 65.0869 75.7269 65.0959C74.5261 65.1879 73.3345 64.8267 72.3869 64.0835C69.3982 61.8979 67.4928 58.9054 65.9162 55.6514C65.8249 55.4582 65.6671 55.3044 65.4717 55.218C65.2961 55.9951 65.0981 56.7684 64.9524 57.5492C64.7133 58.9241 64.5302 60.3101 64.306 61.685C64.0669 63.1383 63.8428 64.599 63.5588 66.0411C63.4617 66.5156 63.2338 67.2105 62.8976 67.3375C62.2176 67.5803 61.3621 67.5953 60.8652 66.8556C59.9648 65.5218 58.9487 64.2404 58.3023 62.7796C57.3497 60.6352 56.6735 58.3637 55.8777 56.1445C55.8216 55.9876 55.7357 55.8382 55.5713 55.4907C55.0632 56.3164 54.6037 56.9851 54.2301 57.695C53.4829 59.1482 52.7694 60.6389 51.9885 62.0884C51.4692 63.0561 50.7407 63.7584 49.4929 63.6314C48.4132 63.5193 47.8454 62.8394 47.5203 61.9203C46.6723 59.5069 45.8653 57.0636 45.0135 54.5717C44.8669 54.6798 44.7283 54.7984 44.5988 54.9266C41.5614 58.3861 39.1069 62.2267 36.8168 66.1793C36.6348 66.5549 36.3323 66.8587 35.9575 67.0424C35.4098 67.2174 34.8249 67.2406 34.2651 67.1096C34.0671 67.0573 33.9737 66.3624 33.9438 65.9552C33.7271 63.2466 33.5441 60.538 33.3348 57.8294C33.2751 57.0561 33.1742 56.2828 33.0808 55.5131C33.0434 55.1993 32.9725 54.8892 32.8566 54.2691C32.1617 55.0872 31.6126 55.6887 31.1119 56.3276C29.7483 58.0686 28.3847 59.8095 27.0621 61.5804C26.5167 62.3089 25.7919 62.4359 24.9962 62.3649C24.3237 62.3089 24.107 61.7821 24.1294 61.203C24.2004 59.335 24.305 57.4446 24.4133 55.5692C24.4619 54.7099 24.559 53.8544 24.6487 52.8382C22.4071 53.9179 20.2814 54.9266 18.1705 55.9503C16.5342 56.7423 14.9352 57.6277 13.2503 58.3076C12.5031 58.6065 11.6064 58.5393 10.7733 58.5243C10.4383 58.4484 10.1453 58.2464 9.95514 57.9602C9.88042 57.8668 10.0822 57.4708 10.2465 57.2915C12.7696 54.5792 15.3001 51.8756 17.838 49.1807L19.2951 47.6452C17.3785 48.1122 15.7197 48.5306 14.0647 48.9229C11.6326 49.4945 9.20794 50.0437 6.76088 50.5929C6.50687 50.6852 6.23106 50.6995 5.96886 50.634C5.58481 50.3986 5.22226 50.1298 4.88543 49.8307C5.11522 49.5542 5.37454 49.3037 5.65877 49.0835C6.8767 48.3363 8.09836 47.5892 9.35365 46.8943C12.051 45.4223 14.7745 43.9914 17.4869 42.5381C17.8231 42.3588 18.1444 42.1645 18.6898 41.8283C18.2042 41.6789 17.924 41.563 17.6326 41.5033C15.3536 41.0599 13.0722 40.6191 10.7883 40.1807C8.73474 39.8059 6.74887 39.1259 4.89663 38.1633C4.52304 37.9578 4.29514 37.4535 4 37.0911C4.35232 36.821 4.74258 36.6045 5.15815 36.4485C6.95369 36.0088 8.77049 35.6609 10.6015 35.4062C13.5678 35.0774 16.5529 34.9242 19.5342 34.7001C19.823 34.7005 20.1072 34.6272 20.3598 34.4871C19.7172 34.1583 19.0522 33.8669 18.4358 33.4933C16.1942 32.1222 13.9788 30.725 11.7559 29.3352C11.6297 29.2527 11.5142 29.1548 11.4122 29.0438C11.0386 28.6702 10.4856 28.3414 10.3586 27.8931C10.2316 27.4448 11.6587 26.5145 12.2266 26.5781C13.5006 26.7163 14.7708 26.918 16.041 27.0974C16.2988 27.1347 16.5566 27.187 17.0871 27.2804C16.7957 25.6515 16.5192 24.1796 16.2764 22.7001C16.2166 22.3489 16.1456 21.7362 16.2764 21.669C16.65 21.4822 17.259 21.329 17.5803 21.5121C18.7309 22.1621 19.7994 22.9616 20.9015 23.6976L25.5005 26.7611L25.7023 26.6154C25.1904 25.1696 24.7122 23.7051 24.1518 22.2779C23.5242 20.6752 22.7919 19.1136 22.1606 17.5109C21.9401 16.9542 22.3063 16.5918 22.8442 16.476C23.0803 16.4332 23.3239 16.4672 23.5391 16.5731C26.4457 18.0675 29.6885 18.1721 32.8006 18.8147C33.1182 18.882 33.4394 18.9417 33.7607 19.0164C34.7508 19.2481 34.7993 19.1696 34.8815 18.1871C35.1306 14.7574 35.4145 11.3316 35.7333 7.90941C35.7632 7.57317 36.0658 7.26309 36.3423 6.75873V6.0489C36.742 6.0489 37.2389 5.89572 37.5229 6.07879C38.1978 6.50489 38.8038 7.03149 39.3199 7.64042C40.9674 9.64664 42.5552 11.7052 44.143 13.7599C44.5353 14.268 44.8491 14.8396 45.3647 15.6279C45.7383 14.3278 46.0894 13.2892 46.3622 12.2357C47.0608 9.51588 47.6996 6.78488 48.4282 4.07257C48.6186 3.41031 48.9288 2.78858 49.3435 2.2382C49.6237 1.84593 50.1803 1.31916 50.5203 1.38267C50.7963 1.45346 51.0544 1.58151 51.2777 1.75851C51.5011 1.93551 51.6847 2.15749 51.8167 2.41006C52.59 4.08378 53.1915 5.83221 53.9126 7.53208C54.4095 8.70517 54.9923 9.84464 55.6162 11.156C56.5352 10.1211 57.3086 9.19085 58.1454 8.32037C60.7606 5.61553 63.3758 2.91815 66.047 0.269351C66.2342 0.142356 66.4467 0.0575373 66.6699 0.020769C66.8931 -0.0159993 67.1216 -0.00384257 67.3396 0.056398C67.5139 0.137685 67.6653 0.260667 67.7807 0.414455C67.896 0.568243 67.9717 0.748092 68.0009 0.938087C68.0308 2.66037 68.0009 4.39013 67.9187 6.11241C67.8141 8.05138 67.6236 9.98287 67.4555 11.9144C67.4032 12.5345 67.306 13.1472 67.2126 13.9019C67.8365 13.6068 68.3969 13.3714 68.9312 13.0875C73.2275 10.8011 77.5239 8.49595 81.8203 6.23196C82.2988 6.00812 82.8242 5.90304 83.352 5.92561C84.3981 5.94429 84.7455 6.56072 84.2486 7.45735C83.0868 9.56818 81.8987 11.6603 80.7182 13.7599C80.4268 14.2718 80.1204 14.7724 79.7543 15.3926C81.9473 14.6977 84.0282 14.0887 86.0718 13.3826C89.225 12.288 92.3482 11.1149 95.4939 10.0202C95.894 9.90974 96.3133 9.88681 96.7231 9.95299C97.4105 10.0277 97.7131 10.5283 97.3283 11.0738C95.8713 13.1435 94.3395 15.1833 92.8451 17.2232C92.2511 18.0339 91.6533 18.8446 91.0145 19.6179C90.0581 20.7761 88.3582 23.3091 87.3383 24.6055C87.5914 24.5511 87.841 24.4813 88.0855 24.3963C90.2822 23.6229 92.4342 22.7263 94.6421 22.009C96.2561 21.4897 97.9372 21.1646 99.5998 20.7873C100.04 20.7081 100.489 20.6943 100.933 20.7462C101.924 20.8359 102.11 21.1198 101.681 22.0202C99.8127 25.7898 98.124 29.6602 95.6471 33.1011C95.5126 33.2879 95.408 33.4971 95.1465 33.9454C96.4503 33.9454 97.5599 33.9192 98.6695 33.9454C102.136 34.0351 105.605 34.1409 109.074 34.263C109.71 34.2778 110.34 34.3886 110.942 34.5917C111.282 34.7113 111.521 35.111 111.805 35.3875C111.566 35.6079 111.361 35.9292 111.058 36.0413C108.351 37.1098 105.635 38.1583 102.91 39.187C101.789 39.6054 100.668 39.979 99.3233 40.4609C99.9202 40.8016 100.536 41.1072 101.169 41.3762C102.91 41.9815 104.669 42.5456 106.429 43.1097C108.103 43.644 109.791 44.111 111.454 44.7013C111.887 44.8544 112.201 45.3625 112.575 45.71C112.239 46.0537 111.955 46.5618 111.547 46.7037C110.5 47.0224 109.438 47.288 108.364 47.4995C108.148 47.5518 107.923 47.563 107.557 47.6153C109.706 49.0761 111.966 49.7747 114.316 50.2791C116.385 50.7274 118.425 51.2541 120.484 51.8071C121.138 51.9827 121.926 52.2442 122.008 53.1072ZM119.49 54.0337C119.681 53.9777 119.957 53.5891 119.908 53.4546C119.855 53.3228 119.773 53.2041 119.67 53.1067C119.566 53.0093 119.442 52.9355 119.307 52.8905C117.338 52.416 115.373 51.9303 113.382 51.5605C111.22 51.2199 109.148 50.4501 107.288 49.2965C104.999 47.8026 102.301 47.0619 99.5699 47.1782C98.8993 47.2286 98.2321 47.316 97.5711 47.4397C97.6496 47.6377 97.6571 47.7087 97.6944 47.7423C97.8065 47.8395 97.9335 47.9217 98.0493 48.0151C99.6633 49.3413 101.337 50.6302 102.185 52.6215C102.284 52.9659 102.343 53.3208 102.361 53.6788C101.987 53.7236 101.554 53.9067 101.221 53.7983C99.073 53.096 96.9547 52.304 94.8102 51.6016C93.6633 51.228 92.479 50.9515 91.3134 50.6302L91.0855 50.8917C91.6571 51.695 92.2063 52.5057 92.804 53.294C93.4914 54.2242 94.1676 55.0686 95.5537 55.0723C99.2224 55.0723 102.895 55.2815 106.567 55.2703C109.668 55.2703 112.773 55.1246 115.866 54.8967C117.088 54.8182 118.295 54.3699 119.49 54.0337ZM51.8391 9.94925L51.5925 9.75498C51.544 11.2008 50.5352 11.2307 49.5191 11.2494L49.4967 11.4773L51.0284 12.4934C51.3198 11.5595 51.5776 10.745 51.8391 9.93057V9.94925Z" fill="#4D3826"/>
<path d="M119.908 53.4563C119.957 53.5908 119.68 53.9793 119.49 54.0354C118.294 54.3716 117.087 54.8199 115.866 54.9096C112.772 55.1263 109.668 55.2608 106.567 55.2832C102.894 55.2832 99.2219 55.0926 95.5532 55.0852C94.1671 55.0852 93.4909 54.2371 92.8035 53.3069C92.217 52.5186 91.6566 51.7079 91.085 50.9046L91.3129 50.6431C92.4785 50.9644 93.6628 51.2371 94.8097 51.6145C96.9542 52.3206 99.0725 53.1088 101.221 53.8112C101.553 53.9196 101.968 53.7365 102.36 53.6917C102.343 53.3336 102.284 52.9788 102.185 52.6344C101.336 50.6282 99.6628 49.3542 98.0488 48.0279C97.933 47.9345 97.806 47.8523 97.6939 47.7552C97.6565 47.7216 97.6491 47.6506 97.5706 47.4526C98.2316 47.3288 98.8988 47.2415 99.5694 47.1911C102.3 47.0748 104.999 47.8155 107.288 49.3094C109.148 50.463 111.219 51.2328 113.381 51.5734C115.373 51.947 117.338 52.4289 119.306 52.9034C119.44 52.9472 119.563 53.0192 119.667 53.1146C119.771 53.21 119.853 53.3265 119.908 53.4563ZM117.988 53.9457C117.838 53.7066 117.745 53.333 117.536 53.2508C116.715 52.9294 115.872 52.6684 115.014 52.47C114.868 52.4639 114.723 52.495 114.592 52.5604C114.461 52.6257 114.349 52.7232 114.267 52.8436C114.244 52.9936 114.261 53.1469 114.314 53.2888C114.368 53.4307 114.457 53.5565 114.573 53.6543C115.316 54.0089 116.077 54.3256 116.852 54.6032C117.267 54.3716 117.629 54.1624 117.988 53.9457Z" fill="#C8A468"/>
<path d="M117.536 53.2515C117.745 53.3337 117.838 53.7073 117.988 53.9464C117.614 54.1631 117.267 54.3723 116.867 54.6188C116.092 54.3412 115.331 54.0245 114.588 53.6699C114.472 53.5721 114.383 53.4463 114.329 53.3044C114.276 53.1625 114.259 53.0092 114.282 52.8592C114.364 52.7388 114.476 52.6413 114.607 52.576C114.738 52.5106 114.883 52.4795 115.029 52.4856C115.882 52.6798 116.72 52.9358 117.536 53.2515Z" fill="#4D3826"/>
<path d="M51.5925 9.73926L51.839 9.93353C51.5775 10.748 51.3197 11.5624 51.0283 12.4777L49.4966 11.4615L49.519 11.2336C50.5277 11.215 51.5439 11.1851 51.5925 9.73926Z" fill="#4D3826"/>
</g>
<defs>
<filter id="filter0_d" x="0" y="0" width="126.023" height="75.4868" filterUnits="userSpaceOnUse" color-interpolation-filters="sRGB">
<feFlood flood-opacity="0" result="BackgroundImageFix"/>
<feColorMatrix in="SourceAlpha" type="matrix" values="0 0 0 0 0 0 0 0 0 0 0 0 0 0 0 0 0 0 127 0"/>
<feOffset dy="4"/>
<feGaussianBlur stdDeviation="2"/>
<feColorMatrix type="matrix" values="0 0 0 0 0 0 0 0 0 0 0 0 0 0 0 0 0 0 0.25 0"/>
<feBlend mode="normal" in2="BackgroundImageFix" result="effect1_dropShadow"/>
<feBlend mode="normal" in="SourceGraphic" in2="effect1_dropShadow" result="shape"/>
</filter>
</defs>
</svg>
