<svg width="139" height="137" viewBox="0 0 139 137" fill="none" xmlns="http://www.w3.org/2000/svg">
<path d="M134.086 34.084C134.2 34.2301 134.053 34.5776 134.027 34.8308C133.642 34.7399 133.109 34.7724 132.893 34.5321C132.188 33.7398 131.613 32.8339 130.956 31.9961C130.299 31.1583 129.649 30.418 128.995 29.6159C128.847 29.3933 128.72 29.1574 128.616 28.9113C128.675 28.8204 128.737 28.7327 128.796 28.645C129.208 28.7717 129.776 28.7749 130.002 29.0477C131.416 30.6875 132.756 32.3825 134.086 34.084Z" fill="#FFB90B"/>
<path d="M137.167 19.1693C135.063 18.3965 132.982 17.5457 130.907 16.7112C130.641 16.5565 130.398 16.3664 130.185 16.1462C130.234 16.0196 130.286 15.8929 130.338 15.7695C130.675 15.7711 131.011 15.8114 131.338 15.8897C133.41 16.6398 135.478 17.4028 137.53 18.2049C137.811 18.3153 137.991 18.6725 138.219 18.9128C137.867 19.0069 137.448 19.2732 137.167 19.1693Z" fill="#FFB90B"/>
<path d="M128.632 3.52588C128.632 3.88956 128.76 4.32468 128.606 4.60393C128.107 5.49273 127.55 6.34852 126.94 7.16594C126.649 7.46351 126.32 7.72025 125.959 7.92902L125.587 7.57508C126.24 6.37038 126.861 5.14296 127.587 3.98373C127.743 3.71421 128.27 3.672 128.632 3.52588Z" fill="#FFB90B"/>
<path d="M119.487 12.3259C122.921 12.8227 125.728 16.4336 125.538 19.6223C125.411 21.7297 125.211 23.7981 124.231 25.6977C122.669 28.724 120.225 30.1431 116.337 30.0749C114.687 30.1073 112.743 29.5164 110.841 28.6201C107.547 27.068 106.296 24.2722 106.351 20.9244C106.4 17.7065 107.985 15.2581 110.91 13.6475C113.628 12.1376 116.353 11.8713 119.487 12.3259Z" fill="#FFB90B"/>
<path d="M116.215 0.824707C116.395 1.12345 116.787 1.47414 116.719 1.70469C116.202 3.37372 115.608 5.01678 114.993 6.65335C114.922 6.74013 114.829 6.80698 114.723 6.84739C114.618 6.88779 114.504 6.90037 114.392 6.8839C114.226 6.8222 114.15 6.51372 114.023 6.29291C114.35 5.31877 114.66 4.37384 114.948 3.43542C115.14 2.81196 115.238 2.15604 115.484 1.55856C115.604 1.26307 115.964 1.06824 116.215 0.824707Z" fill="#FFB90B"/>
<path d="M114.49 38.6437C114.36 38.832 113.938 38.8255 113.651 38.91C113.613 38.6483 113.624 38.3819 113.683 38.1242C114.386 36.6045 115.105 35.0881 115.879 33.6009C116.007 33.3573 116.412 33.221 116.719 33.1365C116.801 33.1171 116.983 33.4612 117.127 33.6528C116.768 34.4711 116.493 35.2277 116.121 35.9258C115.626 36.8596 115.081 37.7668 114.49 38.6437Z" fill="#FFB90B"/>
<path d="M117.239 30.9235C114.198 30.9864 111.216 30.0894 108.721 28.3615C106.548 26.8711 104.973 23.0492 105.355 20.4482C106.058 15.6717 109.253 13.2363 113.468 11.8303C115.775 11.0607 118.242 10.8561 120.601 11.5932C124.457 12.8109 126.702 15.8535 126.542 19.7533C126.522 23.257 125.764 26.2801 123.258 28.6083C121.631 30.1285 119.472 30.9589 117.239 30.9235ZM116.328 30.089C120.216 30.1572 122.66 28.7382 124.222 25.7119C125.202 23.8123 125.411 21.7438 125.529 19.6364C125.718 16.4477 122.915 12.8369 119.477 12.3401C116.344 11.8855 113.619 12.1518 110.89 13.6617C107.979 15.2853 106.381 17.7206 106.332 20.9385C106.277 24.2864 107.528 27.0822 110.822 28.6343C112.73 29.5175 114.677 30.1085 116.328 30.089Z" fill="#FFB90B"/>
<path d="M105.354 8.14388C104.802 7.53667 104.234 6.93919 103.701 6.31249C103.143 5.68101 102.625 5.01627 102.149 4.32198C102.082 4.17522 102.05 4.01497 102.055 3.85382C102.061 3.69268 102.104 3.53504 102.182 3.3933C102.306 3.32165 102.447 3.28153 102.591 3.27643C102.735 3.27134 102.879 3.30143 103.008 3.36407C103.989 4.69216 104.897 6.05596 105.795 7.43276C105.874 7.54966 105.72 7.81267 105.675 8.0075L105.354 8.14388Z" fill="#FFB90B"/>
<path d="M93.9443 13.8521H103.685C102.525 15.0869 94.4377 14.8887 93.9443 13.8521Z" fill="#FFB90B"/>
<path d="M101.46 33.2231C99.9896 33.5478 98.5192 33.8401 97.0358 34.0771C96.6894 34.1323 96.2973 33.8953 95.9248 33.7946C96.2058 33.5673 96.4574 33.2004 96.7711 33.1452C98.6401 32.775 100.522 32.4633 102.404 32.171C102.747 32.1567 103.09 32.1806 103.427 32.2425L103.486 32.6841C102.823 32.8562 102.153 33.0802 101.46 33.2231Z" fill="#FFB90B"/>
<path d="M100.332 22.8004C99.9565 23.0537 99.6102 23.4499 99.1919 23.5375C97.6595 23.9174 96.1041 24.2129 94.5553 24.5117C94.1959 24.5831 93.8234 24.5929 93.2483 24.6513L92.5752 24.1253C92.8269 23.9336 93.1054 23.7794 93.4019 23.6674C95.0945 23.32 96.7968 23.018 98.4927 22.6933C98.6364 22.664 98.7802 22.5666 98.9174 22.5829C99.3945 22.6413 99.8618 22.729 100.332 22.8004Z" fill="#FFB90B"/>
<g filter="url(#filter0_d)">
<path d="M116.154 55.2948C116.529 55.7331 116.595 56.7324 116.37 57.3328C116.233 57.7054 116.083 58.0779 115.929 58.4417L115.126 58.1042C112.859 58.9808 112.012 58.0692 111.682 56.11C112.453 55.7024 113.261 55.0845 114.165 54.8522C114.756 54.6988 115.761 54.8741 116.154 55.2948Z" fill="#C8A468"/>
<path d="M110.738 104.402C111.368 101.273 112.687 91.0649 103.778 88.3958C104.881 87.059 105.983 85.7266 107.082 84.3855C107.606 83.7368 108.061 83.0399 108.616 82.2729C110.945 83.636 112.749 85.5119 113.468 88.0276C114.245 90.7202 114.759 93.481 115.003 96.2717C115.258 99.2082 113.587 101.347 111.607 103.503C111.338 103.819 111.042 104.117 110.738 104.402Z" fill="#F79221"/>
<path d="M104.016 82.6032C106.587 80.1927 108.621 77.4271 109.309 73.8902C109.388 73.4782 108.995 72.9829 108.819 72.5227C108.493 72.847 107.968 73.1188 107.871 73.5001C107.252 76.1604 105.92 78.6048 104.016 80.574C103.469 81.1262 103.002 81.7573 102.499 82.3534C102.556 82.5243 102.618 82.6953 102.68 82.8662C103.125 82.7785 103.734 82.8574 104.016 82.6032ZM115.924 58.4494C115.267 59.9966 114.482 61.4911 113.926 63.0689C112.537 67.0135 111.068 70.958 110.045 75.0297C109.948 75.4198 109.842 75.8011 109.723 76.1736C108.18 81.1438 105.039 84.6675 100.259 86.9379C99.5883 87.2534 98.8959 87.5383 98.2122 87.8144C97.9917 87.9065 97.7712 87.9547 97.3743 88.073C97.4509 87.869 97.497 87.6548 97.511 87.4375C97.4669 87.0693 97.3743 86.7012 97.2993 86.3374C96.9641 86.5478 96.501 86.6793 96.3202 86.9773C95.0942 89.0066 93.8372 91.027 92.7611 93.1352C91.6232 95.3646 90.5104 97.6071 89.4225 99.8628C88.6375 101.479 87.8686 103.103 87.1159 104.737C86.5602 105.929 86.4455 107.318 86.0001 108.567C85.5105 109.948 84.8622 111.267 84.2933 112.617C84.0684 113.156 83.57 113.796 83.7067 114.225C84.1477 115.54 83.2657 116.057 82.6747 116.526L80.6592 116.417L79.8256 116.373C72.5221 106.503 73.2366 96.0761 78.4717 85.4082L78.1409 85.0445C77.669 85.4039 76.9854 85.6625 76.756 86.1358C75.9592 87.7803 75.2582 89.469 74.6567 91.1936C74.3877 91.9737 74.0878 92.2893 73.2322 92.2981C65.7567 92.3594 58.3253 92.1753 51.1806 89.7911C50.7484 89.645 50.3162 89.4916 49.884 89.3309C48.1198 88.6691 46.2763 88.2133 44.4901 87.6084C43.7639 87.3051 43.0582 86.9552 42.3776 86.5609L43.8639 86.1446C43.8903 86.0087 43.9168 85.8684 43.9388 85.7326C43.4622 85.5726 42.9743 85.4481 42.479 85.36C38.373 84.9217 34.7213 86.0701 31.3783 88.4061C29.6141 89.6508 27.85 91.0358 25.8962 91.9124C24.1923 92.6969 22.3262 93.0709 20.4495 93.0037C20.3887 92.9992 20.3282 92.9904 20.2687 92.9774C19.3866 92.7714 18.5045 91.4609 17.6798 90.637C16.8551 89.813 16.0612 88.8049 15.1924 87.81C15.5124 87.6509 15.8442 87.5161 16.1847 87.4068C16.5197 87.3018 16.8756 87.2813 17.2206 87.3471C17.5655 87.4129 17.8885 87.563 18.1605 87.7837C19.1132 88.4894 19.5895 87.7136 20.0173 87.0343C22.4753 83.1811 25.8208 79.9646 29.7773 77.6506C30.1392 77.3926 30.5355 77.1861 30.9549 77.037C35.5901 75.8493 38.5583 71.9223 42.7525 70.0245C50.1309 66.6497 57.7079 63.9718 65.9375 64.0156C69.9685 63.9866 73.9738 64.654 77.7748 65.9879C79.6051 66.6497 81.7441 66.6541 83.7508 66.5664L84.9107 66.5095C89.9605 66.2158 94.9707 65.4488 99.6059 63.3845C103.416 61.6883 106.94 59.3567 110.693 57.2485C110.186 57.884 109.666 58.5152 109.167 59.1595C108.775 59.6679 108.25 60.1456 108.078 60.7241C107.906 61.3027 107.968 62.1047 108.299 62.4159C108.629 62.7271 109.485 62.7534 110.027 62.6044C110.57 62.4553 110.989 61.9382 111.452 61.57C112.409 60.803 113.371 60.0404 114.31 59.2515C114.606 58.8981 114.87 58.5198 115.099 58.1207L115.924 58.4494Z" fill="#C8A468"/>
<path d="M109.331 61.8759L112.228 59.4171C111.858 58.9788 111.615 58.6939 111.17 58.1636C110.244 59.4785 109.534 60.4515 108.828 61.4376L109.331 61.8759ZM111.66 56.1081C111.99 58.0672 112.837 58.9832 115.104 58.1023C114.874 58.5013 114.61 58.8797 114.315 59.233C113.375 60.0219 112.414 60.7846 111.457 61.5516C110.994 61.9197 110.575 62.4281 110.032 62.5859C109.49 62.7437 108.647 62.7218 108.303 62.3974C107.959 62.0731 107.928 61.2272 108.083 60.7057C108.237 60.1841 108.78 59.6494 109.172 59.141C109.67 58.4967 110.191 57.8656 110.698 57.2301C106.945 59.3382 103.421 61.6699 99.6105 63.366C94.9753 65.4304 89.9651 66.1974 84.9153 66.491L84.8359 65.2857C88.3333 65.0885 91.7866 64.2426 95.2752 63.3836C100.179 62.1739 104.382 59.5179 108.427 56.5989C109.715 55.6698 111.016 54.7494 112.356 53.9079C113.089 53.4779 113.942 53.2936 114.789 53.3819C115.635 53.4703 116.431 53.8268 117.058 54.3988C118.257 55.4419 118.381 56.6165 117.635 58.4266C116.039 62.2966 114.403 66.1579 112.956 70.0849C112.176 72.1975 111.562 74.3713 110.919 76.5321L109.706 76.1639C109.825 75.7914 109.931 75.4101 110.028 75.02C111.051 70.9659 112.52 67.0126 113.909 63.0592C114.464 61.4814 115.232 59.9913 115.907 58.4397C116.065 58.076 116.215 57.7034 116.348 57.3309C116.568 56.7304 116.506 55.7268 116.132 55.2929C115.757 54.859 114.751 54.6968 114.138 54.8546C113.238 55.0825 112.431 55.7005 111.66 56.1081Z" fill="#4D3826"/>
<path d="M108.811 72.522C108.988 72.9822 109.38 73.4774 109.301 73.8894C108.622 77.4264 106.588 80.1919 104.008 82.6025C103.726 82.8655 103.126 82.7866 102.663 82.8655C102.602 82.6945 102.54 82.5236 102.482 82.3527C102.985 81.7566 103.453 81.1255 104 80.5732C105.903 78.604 107.235 76.1597 107.854 73.4993C107.96 73.1093 108.485 72.8375 108.811 72.522Z" fill="#4D3826"/>
<path d="M110.526 105.32L104.418 110.141C104.474 109.586 104.518 109.047 104.55 108.524C106.797 107.443 108.876 106.048 110.725 104.382C110.619 104.982 110.526 105.32 110.526 105.32Z" fill="#4D3826"/>
<path d="M97.3965 93.4712C97.3965 93.4712 105.242 95.8818 104.546 108.544C102.874 109.398 101.154 110.174 99.4825 111.033C97.5552 112.019 95.4206 112.611 93.2066 113.444C93.3125 112.173 92.8009 111.98 91.7292 112.51C90.0356 113.352 88.642 113.536 87.4071 113.163C86.9903 113.038 86.5916 112.86 86.2207 112.633C87.1591 108.398 88.5965 104.288 90.5031 100.387C91.6189 98.06 92.8715 95.7897 94.2166 93.5632L94.8076 95.7547C95.4473 95.3012 96.0585 94.8094 96.6379 94.282C96.8937 93.9971 97.1495 93.7429 97.3965 93.4712Z" fill="#F79221"/>
<path d="M102.959 87.1064C102.099 88.3205 101.402 89.2979 100.476 90.6127C100.621 89.5345 100.714 88.8596 100.815 88.1013L102.959 87.1064Z" fill="#4D3826"/>
<path d="M110.739 104.404C108.89 106.071 106.811 107.465 104.564 108.546C105.261 95.8838 97.415 93.4733 97.415 93.4733V93.4514C97.9928 92.8158 98.5529 92.1365 99.1527 91.4747C99.9554 92.4959 100.639 92.2592 101.358 91.352C102.152 90.3615 102.959 89.3797 103.766 88.3979C112.688 91.0671 111.369 101.275 110.739 104.404Z" fill="white"/>
<path d="M99.1527 91.4747C98.5529 92.1497 97.9928 92.8158 97.415 93.4514L99.3953 90.4929L100.277 91.3695L103.779 88.3979C102.972 89.3797 102.165 90.3615 101.371 91.352C100.639 92.2461 99.9554 92.4959 99.1527 91.4747Z" fill="#4D3826"/>
<path d="M100.814 88.0951C100.712 88.8534 100.62 89.5283 100.474 90.6065C101.4 89.2917 102.097 88.3187 102.957 87.1002L100.814 88.0951ZM112.567 104.75C110.071 106.854 107.335 108.662 104.417 110.136L110.525 105.315C110.525 105.315 110.618 104.978 110.737 104.399C111.041 104.114 111.337 103.816 111.619 103.501C113.599 101.344 115.271 99.2056 115.015 96.2691C114.78 93.4808 114.275 90.7215 113.507 88.0294C112.77 85.5136 110.966 83.6466 108.655 82.2747C108.1 83.0417 107.645 83.7386 107.121 84.3873C106.027 85.7284 104.915 87.0608 103.817 88.3976L100.276 91.3691L99.3937 90.4925L97.4135 93.451V93.4729C97.1665 93.7446 96.9107 94.0163 96.6549 94.2749L96.2139 93.4729L99.4643 88.7394C98.7983 88.9366 98.2338 89.1207 97.7663 89.3092L97.3561 88.0732C97.7398 87.9549 97.9736 87.9067 98.1941 87.8146C98.8777 87.5254 99.5701 87.2405 100.24 86.9381C105.021 84.6678 108.179 81.144 109.705 76.1738L110.918 76.542C110.702 77.2652 110.477 77.9839 110.256 78.6983C110.036 79.4127 109.63 80.1359 109.215 81.0695C112.894 83.2609 115.156 86.5524 116.012 90.8432C116.828 94.9367 117.066 98.9251 114.411 102.764C114.175 103.036 113.965 103.33 113.785 103.641L113.507 103.882C113.249 104.109 113.006 104.352 112.779 104.61C112.705 104.659 112.634 104.713 112.567 104.772V104.75Z" fill="#4D3826"/>
<path d="M97.7674 89.3139C98.2349 89.1254 98.7994 88.9414 99.4654 88.7441L96.1973 93.4732C95.4917 91.0539 95.6681 90.1554 97.7674 89.3139Z" fill="#4D3826"/>
<path d="M97.7672 89.3143C95.6679 90.1558 95.4915 91.0674 96.1972 93.4736L96.6382 94.2757C96.0589 94.8046 95.4477 95.2979 94.8079 95.7527L94.2169 93.5613C92.8718 95.7878 91.6193 98.0581 90.5034 100.385L89.4053 99.8638C90.4902 97.6081 91.6031 95.3656 92.7439 93.1362C93.82 91.028 95.0769 89.0075 96.303 86.9783C96.4838 86.6802 96.9469 86.54 97.2821 86.3384C97.3571 86.7022 97.4497 87.0703 97.4938 87.4385C97.4797 87.6558 97.4337 87.8699 97.3571 88.074L97.7672 89.3143Z" fill="#4D3826"/>
<path d="M87.408 113.165C88.6605 113.538 90.0541 113.354 91.7301 112.512C92.8018 111.982 93.3134 112.175 93.2075 113.446C95.4127 112.613 97.5561 112.021 99.4834 111.035C101.155 110.159 102.875 109.401 104.546 108.546C104.517 109.069 104.473 109.608 104.414 110.163C102.022 111.38 99.5549 112.444 97.0269 113.349C96.7446 113.455 96.4623 113.551 96.1801 113.648L89.1941 116.041L88.8942 115.164C88.8678 114.971 88.8457 114.774 88.8193 114.581L87.2051 114.279L87.408 113.165Z" fill="#4D3826"/>
<path d="M88.8105 114.599C88.8369 114.792 88.859 114.989 88.8855 115.182C87.846 115.328 86.7991 115.416 85.7497 115.445C85.5777 115.445 85.4189 114.634 85.1455 113.911L87.1963 114.296L88.8105 114.599Z" fill="#4D3826"/>
<path d="M84.2494 116.633C85.6696 120.937 84.7743 124.522 83.1777 126.319C83.2307 125.005 83.288 123.69 83.3453 122.322C83.4203 120.63 83.4997 118.899 83.5967 117.172C83.5916 117.149 83.5916 117.125 83.5967 117.102C83.7026 116.949 84.0378 116.787 84.2494 116.633Z" fill="#4D3826"/>
<path d="M90.5033 100.388C88.5966 104.289 87.1593 108.399 86.2209 112.634C86.5917 112.861 86.9905 113.039 87.4073 113.164L87.2044 114.286L85.1536 113.901C85.427 114.624 85.5946 115.43 85.7578 115.435C86.8072 115.406 87.8541 115.318 88.8935 115.172L89.1934 116.048L86.0312 117.131C86.1106 117.823 86.2209 118.884 86.3576 119.931C86.7589 123.052 85.5417 125.629 83.5967 127.934C83.2748 128.316 82.4677 128.351 81.8723 128.373C81.6349 127.993 81.5153 127.553 81.5283 127.106C81.6738 125.546 81.9208 123.999 82.1502 122.285L83.3454 122.333C83.288 123.692 83.2307 125.033 83.1778 126.33C84.7743 124.516 85.6696 120.948 84.2495 116.644C84.0378 116.815 83.7026 116.96 83.6188 117.113L82.6573 116.539C83.2483 116.07 84.1172 115.562 83.6894 114.238C83.5526 113.8 84.051 113.169 84.2759 112.63C84.8449 111.28 85.4932 109.96 85.9827 108.58C86.4238 107.331 86.5428 105.95 87.0985 104.749C87.8512 103.119 88.6201 101.494 89.4051 99.8755L90.5033 100.388Z" fill="#4D3826"/>
<path d="M80.9111 121.341C81.6917 119.987 82.3312 118.711 80.5892 117.296L80.6421 116.419L82.6576 116.529L83.619 117.103C83.6139 117.126 83.6139 117.15 83.619 117.173C83.522 118.9 83.4426 120.631 83.3677 122.323L82.1725 122.274C80.2937 124.321 79.3719 127.402 76.7037 128.318L76.417 127.442C78.3399 125.803 79.6277 123.576 80.9111 121.341Z" fill="#4D3826"/>
<path d="M80.5887 117.293C82.3308 118.713 81.6913 119.984 80.9107 121.338C79.6273 123.574 78.3395 125.8 76.3945 127.426C77.2457 125.379 78.1587 123.297 78.9702 121.185C79.2745 120.414 79.3362 119.55 79.6361 118.774C79.8981 118.247 80.2176 117.751 80.5887 117.293Z" fill="#4D3826"/>
<path d="M75.4473 111.871C75.953 113.087 76.3946 114.329 76.7704 115.592C74.186 115.767 71.7868 116.275 69.4449 115.153C69.2927 115.11 69.132 115.106 68.9777 115.141C68.8234 115.176 68.6807 115.25 68.5628 115.355C68.4349 115.548 68.5628 115.982 68.6995 116.262C68.9173 116.618 69.17 116.951 69.4537 117.257C64.4215 116.758 59.5128 116.28 54.5998 115.785C49.7969 115.302 45.4042 113.593 41.0821 111.656C40.791 107.641 40.6896 94.4664 51.4684 91.2231C56.6197 92.8667 61.9915 93.1691 67.3456 93.4584C69.4625 93.5723 71.5839 93.6688 73.5862 93.7652C73.348 96.3949 72.8938 99.0772 72.907 101.759C72.9335 105.305 73.9522 108.658 75.4473 111.871Z" fill="#F79221"/>
<path d="M78.5067 116.982C77.7878 119.993 71.7986 123.227 69.1436 121.772C70.9077 121.299 72.8482 121.097 74.4359 120.278C76.0237 119.458 77.263 118.025 78.5067 116.982Z" fill="#4D3826"/>
<path d="M69.1442 121.773C71.7904 123.228 77.7884 119.993 78.5073 116.982C77.2636 118.025 76.0199 119.467 74.4498 120.278C72.8798 121.089 70.9216 121.299 69.1442 121.773ZM51.1457 89.7779C58.3081 92.1621 65.7394 92.3462 73.1973 92.2848C74.0529 92.2848 74.3528 91.9605 74.6218 91.1804C75.2233 89.4558 75.9243 87.7671 76.7211 86.1226C76.9505 85.6492 77.6341 85.3906 78.106 85.0312L78.4368 85.395C73.2017 96.0628 72.4872 106.49 79.7907 116.36L80.6243 116.404L80.5714 117.28C80.2002 117.738 79.8807 118.235 79.6187 118.762C79.3188 119.537 79.2571 120.401 78.9528 121.172C78.128 123.285 77.2283 125.366 76.3771 127.413L76.6638 128.29C75.8931 128.538 75.0771 128.614 74.2734 128.513C75.6715 125.884 77.4444 123.53 77.7664 120.313C75.5127 121.856 73.506 123.381 70.8775 123.35C69.9424 123.304 69.0221 123.099 68.1563 122.746C67.9426 122.645 67.7571 122.494 67.6163 122.305C67.4755 122.116 67.3838 121.895 67.3492 121.663C67.3933 121.321 67.9667 120.883 68.3812 120.786C69.4838 120.497 70.6437 120.436 71.7463 120.155C72.7122 119.91 73.6383 119.493 74.5821 119.152C74.5601 118.972 74.5336 118.792 74.5116 118.613C73.1885 118.534 71.8654 118.428 70.5202 118.385L69.4044 118.367L69.4397 117.276C69.1559 116.97 68.9033 116.636 68.6855 116.281C68.5576 116 68.4209 115.566 68.5488 115.374C68.6666 115.269 68.8094 115.195 68.9637 115.16C69.1179 115.124 69.2787 115.129 69.4309 115.172C71.7728 116.276 74.172 115.768 76.7564 115.61C76.3806 114.348 75.939 113.106 75.4333 111.889C73.9382 108.677 72.9106 105.315 72.893 101.809C72.893 99.1264 73.334 96.4398 73.5722 93.8144C71.5699 93.718 69.4485 93.6216 67.3316 93.5077C61.9598 93.2184 56.588 92.916 51.4544 91.2724C51.8381 91.1541 52.235 91.0489 52.6496 90.9612L50.9561 90.4002L51.1457 89.7779Z" fill="#4D3826"/>
<path d="M45.5311 89.207C46.8542 89.6453 48.2037 90.0398 49.5004 90.5438C50.1531 90.798 50.8073 91.0303 51.463 91.2407C40.6842 94.484 40.7856 107.659 41.0767 111.673C40.1946 111.283 39.3125 110.88 38.4305 110.481C37.222 109.929 36.0136 109.377 34.814 108.807C32.4986 96.0443 42.4747 90.5657 45.5311 89.207Z" fill="white"/>
<path d="M47.9604 64.0118C48.5752 64.2099 49.1342 64.5493 49.5923 65.0024C45.9582 66.7818 42.3108 68.4341 38.8046 70.345C36.9126 71.375 35.3205 72.9265 33.5122 74.0924C32.4405 74.7761 31.1792 75.1618 29.9531 75.7009C29.8343 75.4542 29.7427 75.1956 29.6797 74.9295C29.5121 74.1274 29.7943 73.4744 30.6808 72.7381C33.5034 70.3933 36.079 67.7548 38.8708 65.3749C40.5776 63.9067 45.107 63.0169 47.9604 64.0118Z" fill="#C8A468"/>
<path d="M49.4869 90.5443C48.2035 90.0403 46.8407 89.6678 45.5176 89.2076C46.06 88.9621 46.3996 88.8525 46.3996 88.8525L50.9555 90.369L52.6447 90.93C52.2301 91.0177 51.8332 91.1228 51.4495 91.2412C50.7938 91.0337 50.1396 90.8014 49.4869 90.5443Z" fill="#4D3826"/>
<path d="M45.531 89.2073C42.4746 90.566 32.4985 96.0445 34.8095 108.807C32.9748 107.931 31.1533 107.054 29.3848 106.068C25.4772 103.903 22.8619 100.809 22.9545 96.0182C22.9545 94.7998 23.3956 94.2914 24.7187 94.0109C26.0418 93.7304 27.259 92.8363 28.4322 92.0737C31.3297 90.1847 34.0597 88.0152 37.4865 87.0554C38.2914 86.7942 39.1464 86.7228 39.9838 86.8468C40.8212 86.9708 41.6181 87.2868 42.3114 87.7698C43.3271 88.3672 44.407 88.8494 45.531 89.2073Z" fill="#F79221"/>
<path d="M41.1787 112.846C41.1787 112.846 41.1169 112.408 41.064 111.676C45.3861 113.605 49.7788 115.323 54.5816 115.805C59.4947 116.3 64.4034 116.778 69.4356 117.278L69.4047 118.369C62.5687 118.145 55.6842 117.988 49.0687 116.177C46.3093 115.43 43.5904 114.542 40.9229 113.517L41.1787 112.846Z" fill="#4D3826"/>
<path d="M41.0634 111.674C41.1163 112.415 41.1781 112.844 41.1781 112.844L35.0036 109.776C34.9287 109.448 34.8669 109.128 34.8096 108.808C36.0092 109.377 37.2176 109.93 38.426 110.482C39.3037 110.881 40.1813 111.284 41.0634 111.674Z" fill="#4D3826"/>
<path d="M83.7559 66.5486C81.7668 66.6362 79.6102 66.6318 77.7799 65.97C73.9789 64.6361 69.9736 63.9688 65.9426 63.9978C57.713 63.9539 50.136 66.6274 42.7576 70.0066C38.5634 71.9219 35.5952 75.8489 30.96 77.0191C30.5406 77.1682 30.1443 77.3747 29.7824 77.6327C25.819 79.95 22.4687 83.1728 20.0091 87.0339C19.5681 87.7133 19.1271 88.489 18.1524 87.7834C17.8804 87.5626 17.5573 87.4126 17.2124 87.3468C16.8675 87.281 16.5115 87.3015 16.1766 87.4065L15.9561 86.1179C17.4732 85.89 19.0433 85.2413 19.7445 84.3648C20.7545 83.1464 21.7821 81.9411 22.7965 80.7314C22.8185 80.7007 22.7965 80.6394 22.7965 80.5868L20.9309 80.223L21.1338 79.2062H24.737C24.737 79.0835 24.737 78.9651 24.737 78.8424L25.2927 77.7204C26.4703 78.1061 27.0965 77.4793 27.7316 76.8438C28.1726 76.4056 28.2608 75.5816 28.3932 75.2222L29.6413 74.8979C29.7043 75.164 29.7959 75.4226 29.9147 75.6692C31.1408 75.1301 32.4021 74.7445 33.4738 74.0607C35.2997 72.8949 36.8918 71.3434 38.7662 70.3134C42.2724 68.4025 45.9198 66.7502 49.5539 64.9707C49.0959 64.5177 48.5368 64.1783 47.922 63.9802L48.244 63.1036C48.9839 63.3897 49.6907 63.7541 50.3521 64.1906C50.8454 64.4778 51.4247 64.5833 51.9884 64.4886C54.7139 63.9539 57.3998 63.2001 60.1386 62.7355C65.2149 61.8984 70.4632 61.8107 75.169 63.7304C78.2306 64.978 81.5395 65.5104 84.8408 65.2863L84.9202 66.4916L83.7559 66.5486Z" fill="#4D3826"/>
<path d="M28.6883 72.8388C28.5031 73.2771 28.3355 73.6496 28.2914 73.7592L25.6188 72.3348L21.3584 70.0688C22.8182 70.3318 24.0972 70.3756 25.2218 70.8095C26.3465 71.2434 27.4358 72.085 28.6883 72.8388Z" fill="#4D3826"/>
<path d="M22.0953 76.7373C23.1074 76.9359 24.0983 77.2294 25.0546 77.6139C25.1428 77.6533 25.231 77.684 25.3148 77.7147L24.7591 78.8367H21.3984V77.6446L21.9409 77.4123L22.0953 76.7373Z" fill="#4D3826"/>
<path d="M38.4215 64.4003C41.566 62.5639 44.9267 61.8407 48.2829 63.1381L47.961 64.0146C45.1075 63.0197 40.5781 63.9094 38.8537 65.3777C36.0619 67.7576 33.4863 70.396 30.6637 72.7409C29.7816 73.4772 29.495 74.1302 29.6626 74.9323L28.4144 75.2566C27.6976 74.9661 27.0021 74.6263 26.3328 74.2398C25.9105 73.9494 25.4684 73.6888 25.0097 73.4596L25.6139 72.3376L28.2865 73.7621C28.3306 73.6525 28.4982 73.2624 28.6835 72.8417C27.4309 72.0878 26.3945 71.2638 25.217 70.8124C24.0394 70.361 22.8133 70.3347 21.3535 70.0717V69.1951C21.649 69.1951 21.9401 69.1951 22.2356 69.1951C24.1717 69.1951 26.1078 69.4888 27.6515 70.9044C28.2909 71.4917 28.8422 71.5443 29.667 70.9044C32.4896 68.621 35.2945 66.2236 38.4215 64.4003Z" fill="#4D3826"/>
<path d="M21.3986 77.6646V78.8567H21.1472C21.1472 78.9794 21.1472 79.0977 21.1472 79.2205L20.9443 80.2373C20.2739 80.1058 19.6212 79.9743 18.942 79.8253C18.7391 79.7815 18.5848 79.5229 18.0908 79.0758L21.3986 77.6646Z" fill="#4D3826"/>
<path d="M19.4926 72.5915L22.0417 73.7529L21.6845 74.5287L15.0205 73.4768C16.6126 71.8727 18.4165 71.9385 20.1277 71.2854L18.0416 70.4088C18.4802 69.9941 18.9983 69.6713 19.565 69.4597C20.1318 69.2482 20.7356 69.1521 21.3405 69.1773V70.0538L25.6009 72.3198L24.9966 73.4418C23.2983 72.588 21.3716 72.2904 19.4926 72.5915Z" fill="#4D3826"/>
<path d="M21.1465 78.8555H24.7585C24.7585 78.9783 24.7585 79.0967 24.7585 79.2195H21.1553C21.1465 79.0967 21.1465 78.9783 21.1465 78.8555Z" fill="#4D3826"/>
<path d="M20.7723 95.0454C20.7168 97.0046 20.163 98.918 19.1626 100.607L18.7656 100.524C18.9597 98.4552 19.1523 96.388 19.3434 94.3222L19.8329 94.125C20.1593 94.4362 20.7811 94.7474 20.7723 95.0454Z" fill="#4D3826"/>
<path d="M40.9184 113.502C36.7537 111.938 32.7952 109.877 29.1296 107.366C28.6359 107.019 28.1067 106.725 27.5507 106.489C27.2272 106.269 26.8795 106.087 26.5143 105.946C26.239 105.735 25.9436 105.551 25.6322 105.398C25.4228 105.242 25.2017 105.103 24.9707 104.982C24.8332 104.81 24.686 104.646 24.5297 104.491C23.5329 102.707 22.5053 100.857 21.4733 98.999C21.2014 99.8695 20.8622 100.718 20.4589 101.537C20.1546 102.076 19.5284 102.439 19.0476 102.878C18.5625 102.312 17.7245 101.791 17.6584 101.173C17.6584 100.993 17.6187 100.809 17.6055 100.625L18.7786 100.529L19.1755 100.612C20.1759 98.9227 20.7297 97.0093 20.7853 95.05C20.7853 94.752 20.1723 94.4364 19.8459 94.1296L20.2869 92.9813C20.3465 92.9944 20.4069 93.0031 20.4678 93.0076C22.3294 93.0754 24.1812 92.7092 25.8748 91.9382C27.8374 91.0616 29.5751 89.6591 31.3568 88.4319C34.6999 86.0959 38.3516 84.9257 42.4576 85.3859C42.9528 85.4739 43.4408 85.5984 43.9174 85.7584C43.8954 85.8943 43.8689 86.0345 43.8425 86.1704L42.3562 86.5868C43.0368 86.981 43.7425 87.3309 44.4687 87.6343C46.2329 88.2391 48.0984 88.6949 49.8625 89.3567C50.2948 89.5174 50.727 89.6708 51.1592 89.8169L50.9651 90.3911L46.4093 88.8746C46.4093 88.8746 46.0873 88.9842 45.5272 89.2296C44.4017 88.872 43.3203 88.3898 42.3033 87.792C41.61 87.3091 40.8131 86.9931 39.9756 86.8691C39.1382 86.7451 38.2832 86.8165 37.4784 87.0777C34.0515 88.0375 31.3039 90.207 28.424 92.096C27.2508 92.8586 26.0292 93.7527 24.7105 94.0332C23.3918 94.3137 22.9728 94.8221 22.9464 96.0405C22.8537 100.818 25.4691 103.93 29.3766 106.09C31.1407 107.072 32.9666 107.971 34.8013 108.83C34.8586 109.15 34.9204 109.47 34.9954 109.798L41.1698 112.866L40.9184 113.502Z" fill="#4D3826"/>
<path d="M24.7982 76.651C22.5049 76.2127 20.2071 75.7744 17.9093 75.3361L17.874 74.6173C19.1421 74.5882 20.4092 74.7074 21.6493 74.9723C21.6493 74.8277 21.6493 74.6831 21.6845 74.5341L22.0418 73.7583C23.5192 74.4289 25.0408 75.1214 26.5491 75.8358C26.8446 75.976 26.9902 76.3748 27.2415 76.6553C26.8766 76.8357 26.4851 76.9571 26.0816 77.0147C25.6449 76.9271 25.2158 76.8055 24.7982 76.651Z" fill="#4D3826"/>
<path d="M19.1886 76.1107C20.1457 76.343 21.1292 76.5227 22.095 76.7375L21.9407 77.43L14.2402 76.7462C14.2402 76.5622 14.2402 76.3737 14.2402 76.1896C15.2017 75.2193 16.5005 74.6516 17.8699 74.603L17.9052 75.3218C17.8699 75.5059 17.8391 75.6856 17.8038 75.8697C18.2713 75.9486 18.7344 76.0274 19.1886 76.1107Z" fill="#4D3826"/>
<path d="M19.189 76.1134C18.748 76.0082 18.2717 75.9512 17.8086 75.8723C17.8439 75.6882 17.8747 75.5085 17.91 75.3245C20.2078 75.7627 22.5056 76.201 24.799 76.6393C25.2166 76.7923 25.6457 76.9125 26.0824 76.9987C26.4858 76.941 26.8773 76.8197 27.2423 76.6393C27.0129 76.3588 26.8453 75.96 26.5498 75.8197C25.0415 75.1053 23.52 74.4128 22.0425 73.7423L19.4933 72.5808C21.3809 72.284 23.3145 72.5909 25.0151 73.4574C25.4738 73.6865 25.9159 73.9472 26.3382 74.2375C27.0075 74.624 27.703 74.9638 28.4198 75.2543C28.2875 75.6137 28.2125 76.4377 27.7583 76.876C27.1232 77.494 26.4969 78.1207 25.3194 77.7526C25.2356 77.7219 25.1474 77.6912 25.0592 77.6517C24.1028 77.2673 23.1119 76.9738 22.0998 76.7752C21.1296 76.5254 20.1461 76.3457 19.189 76.1134Z" fill="#4D3826"/>
<path d="M15.9731 91.6323L16.8243 93.0173L15.9952 94.5469C15.1837 96.0546 14.3987 97.5053 13.6136 98.9516L13.2432 98.7983C14.1032 96.5323 14.9676 94.2664 15.9731 91.6323Z" fill="#4D3826"/>
<path d="M13.244 98.8212L13.6144 98.9746C14.3995 97.5282 15.1845 96.0775 15.996 94.5698L17.1603 95.1396C15.9299 97.6334 14.695 100.123 13.4557 102.63C12.2472 102.52 12.1634 101.657 12.1326 100.811C12.0972 100.12 12.106 99.4277 12.159 98.7379L13.244 98.8212Z" fill="#4D3826"/>
<path d="M13.5606 88.3976L9.33105 87.0827C11.0114 86.3771 12.8637 86.8636 13.5606 88.3976Z" fill="#4D3826"/>
<path d="M9.33144 87.0884L13.5609 88.4032C12.8641 86.8648 11.0118 86.3783 9.33144 87.0884ZM16.829 93.0183L15.9778 91.6334C14.9722 94.2631 14.1078 96.5334 13.2478 98.7993L12.1496 98.716C12.2877 96.6363 12.9097 94.6169 13.9667 92.8167C14.1563 92.4968 14.3283 92.1637 14.5047 91.8393L14.1034 91.5325C12.9391 92.9438 11.7792 94.3595 10.6148 95.7664C10.0598 96.5224 9.44323 97.2319 8.77133 97.8877C8.33029 98.2777 7.61582 98.3785 7.0072 98.6108C6.91458 97.9315 6.51765 97.0944 6.77786 96.6035C7.77729 94.7958 8.86955 93.0403 10.0503 91.3441C10.6288 90.5782 11.2517 89.8465 11.9159 89.1527C9.95771 87.5617 7.02043 89.6392 4.85938 87.8904C6.79551 85.6289 10.5928 84.783 13.1331 85.9094C14.0368 86.2291 15.0109 86.2988 15.9513 86.111L16.1718 87.3995C15.8313 87.5088 15.4996 87.6436 15.1795 87.8028C16.0616 88.7977 16.8113 89.7575 17.6669 90.6297C18.5225 91.5019 19.3517 92.7641 20.2558 92.9701L19.8148 94.1184L19.3252 94.3156C19.137 96.3785 18.9445 98.4457 18.7475 100.517L17.5743 100.614C17.4332 99.0447 17.5082 97.4494 17.4905 95.8628C17.4996 95.7084 17.4777 95.5538 17.4262 95.4078C17.3748 95.2619 17.2947 95.1275 17.1906 95.0125C17.1906 95.0432 17.1598 95.0783 17.1421 95.1089L15.9778 94.5392L16.829 93.0183Z" fill="#4D3826"/>
</g>
<defs>
<filter id="filter0_d" x="0.859375" y="53.3604" width="121.24" height="83.196" filterUnits="userSpaceOnUse" color-interpolation-filters="sRGB">
<feFlood flood-opacity="0" result="BackgroundImageFix"/>
<feColorMatrix in="SourceAlpha" type="matrix" values="0 0 0 0 0 0 0 0 0 0 0 0 0 0 0 0 0 0 127 0"/>
<feOffset dy="4"/>
<feGaussianBlur stdDeviation="2"/>
<feColorMatrix type="matrix" values="0 0 0 0 0 0 0 0 0 0 0 0 0 0 0 0 0 0 0.25 0"/>
<feBlend mode="normal" in2="BackgroundImageFix" result="effect1_dropShadow"/>
<feBlend mode="normal" in="SourceGraphic" in2="effect1_dropShadow" result="shape"/>
</filter>
</defs>
</svg>
