<svg width="167" height="146" viewBox="0 0 167 146" fill="none" xmlns="http://www.w3.org/2000/svg">
<path d="M165.943 116.252C165.99 116.366 166.032 116.48 166.078 116.598C165.324 116.951 164.584 117.351 163.809 117.654C163.485 117.776 163.165 117.898 162.837 118.016C160.408 118.858 157.894 119.367 155.306 119.014C150.254 118.328 145.459 117.027 141.262 113.908C139.722 112.758 137.895 112.005 136.181 111.075C135.8 110.864 135.365 110.768 134.93 110.799C134.495 110.831 134.079 110.988 133.731 111.251C132.111 112.312 130.553 113.478 128.882 114.446C127.232 115.419 125.509 116.263 123.729 116.972C122.946 117.284 121.949 117.082 121.048 117.056C120.896 117.056 120.753 116.787 120.602 116.635C120.795 116.496 120.968 116.273 121.178 116.24C121.928 116.109 122.702 116.109 123.435 115.941C124.129 115.778 124.781 115.471 125.35 115.041C125.919 114.612 126.392 114.068 126.739 113.445L126.979 113.045L127.758 113.546L127.611 113.773L127.783 113.967C128.415 113.546 129.046 113.125 129.686 112.678C130.528 112.089 131.37 111.512 132.178 110.893C134.148 109.403 136.164 109.597 138.164 110.767C140.012 111.845 141.856 112.935 143.611 114.135C145.906 115.718 148.524 116.383 151.138 117.107C153.361 117.717 155.63 118.239 157.928 117.949C159.58 117.718 161.218 117.402 162.837 117.002C163.38 116.88 163.927 116.753 164.474 116.64C165.021 116.526 165.447 116.391 165.943 116.252Z" fill="#180551"/>
<path d="M138.251 97.9067C139.194 98.3276 139.211 98.9717 138.483 99.7084C138.334 99.8755 138.152 100.01 137.948 100.104C136.057 100.874 133.99 101.105 131.975 100.773C131.575 100.706 131.297 100.352 130.758 100.512C130.308 100.639 129.984 100.15 130.283 99.6916C130.573 99.2348 130.949 98.8388 131.39 98.5255C132.535 97.709 133.872 97.2042 135.271 97.0605C136.285 97.2657 137.281 97.5486 138.251 97.9067ZM137.83 98.7486C135.928 97.5194 132.526 98.4918 131.701 100.041C133.873 100.037 135.932 100.205 137.847 98.7486H137.83Z" fill="#180551"/>
<path d="M131.718 100.045C132.56 98.4955 135.928 97.5188 137.847 98.7522C135.932 100.209 133.874 100.04 131.718 100.045Z" fill="#180551"/>
<path d="M126.532 103.114C127.748 102.272 129.941 103.35 129.899 105.034C129.849 107.42 130.131 109.811 128.763 111.963C128.43 112.493 128.089 113.023 127.752 113.55L126.974 113.049C128.331 110.783 128.931 108.143 128.687 105.513C128.527 103.724 127.896 103.329 126.38 104.288C126.048 104.495 125.719 104.709 125.391 104.928L124.907 104.208L126.532 103.114Z" fill="#180551"/>
<path d="M126.187 83.3647C126.89 84.8002 126.41 86.1809 125.888 87.5154C125.579 88.1785 125.189 88.8007 124.726 89.3676C124.217 90.0748 123.665 90.0412 123.105 89.3676C124.789 87.6838 125.454 85.7221 124.848 83.2721L125.299 82.4302C125.687 82.6385 125.999 82.9661 126.187 83.3647Z" fill="#180551"/>
<path d="M124.911 104.21L125.395 104.929C123.118 106.463 120.948 108.151 118.9 109.981C117.397 111.307 115.444 111.88 113.491 112.275C113.234 112.33 112.914 112.073 112.624 111.964V111.648C113.013 111.404 113.439 111.227 113.886 111.122C115.873 110.983 116.787 109.67 117.254 108.002C118.235 104.513 119.039 101.006 117.856 97.3732C117.704 96.7822 117.397 96.2423 116.967 95.8088C116.537 95.3753 116 95.0639 115.41 94.9064L115.566 93.9761C115.765 94.0193 115.961 94.0769 116.151 94.1487C118.003 94.8433 118.829 96.3292 119.355 98.131C119.888 99.994 119.961 101.958 119.569 103.856C119.237 105.595 118.77 107.304 118.349 109.08C119.161 108.407 119.978 107.645 120.874 107.005C122.188 106.028 123.552 105.123 124.911 104.21Z" fill="#180551"/>
<path d="M125.299 82.4158L124.848 83.2577C124.536 83.524 124.267 83.838 124.053 84.188C123.417 85.7877 122.832 87.4084 122.226 89.0207C122.141 89.2522 122.053 89.4795 121.965 89.7068C121.834 89.9526 121.676 90.1828 121.493 90.393C121.25 90.2112 121.038 89.9908 120.866 89.7405C120.771 89.5026 120.771 89.2375 120.866 88.9996C121.666 87.0253 122.386 85.0131 123.354 83.1062C123.429 82.9268 123.54 82.7652 123.681 82.6315C123.823 82.4979 123.99 82.3953 124.173 82.3303C124.356 82.2653 124.551 82.2393 124.745 82.254C124.939 82.2687 125.127 82.3238 125.299 82.4158Z" fill="#180551"/>
<path d="M124.849 83.2666C125.455 85.7166 124.79 87.6909 123.106 89.3621L122.226 89.0296C122.832 87.4173 123.417 85.7966 124.053 84.1969C124.268 83.8469 124.536 83.5329 124.849 83.2666Z" fill="#6712B2"/>
<path d="M122.668 136.689C122.479 136.874 122.327 137.131 122.104 137.227C120.471 137.939 118.812 137.429 117.208 137.156C114.325 136.668 111.668 135.472 109.063 134.175C105.476 132.386 101.751 131.288 97.7177 132.492C97.0653 132.681 96.497 133.131 95.8613 133.397C95.6003 133.506 95.0952 133.557 95.0194 133.426C94.8594 133.195 94.7794 132.643 94.9268 132.504C95.3457 132.071 95.8646 131.747 96.438 131.561C97.9787 131.182 99.5531 130.942 101.115 130.644C104.651 130.774 107.648 132.327 110.658 133.813C113.353 135.134 116.263 135.958 119.25 136.247C120.163 136.339 121.085 136.276 121.999 136.339C122.222 136.339 122.441 136.562 122.668 136.689Z" fill="#180551"/>
<path d="M116.943 87.62C117.103 89.2824 116.613 90.9422 115.575 92.2505C115.373 92.5073 114.918 92.8146 114.695 92.7431C114.515 92.6693 114.354 92.5549 114.226 92.4089C114.097 92.2628 114.004 92.0891 113.954 91.9012C113.571 90.0405 113.264 88.163 112.927 86.2939L113.045 86.2603C113.045 85.3047 113.007 84.3533 113.045 83.4019C113.078 82.7495 113.23 82.0928 114.025 81.9581C114.197 81.9143 114.376 81.9054 114.552 81.9319C114.727 81.9584 114.896 82.0197 115.047 82.1123C115.199 82.2049 115.33 82.3268 115.434 82.471C115.537 82.6151 115.611 82.7785 115.65 82.9515C116.13 84.5175 116.783 86.0456 116.943 87.62ZM114.838 91.1266C116.324 88.2598 115.764 85.7551 114.417 83.2841C114.155 85.9037 114.292 88.5478 114.821 91.1266H114.838Z" fill="#180551"/>
<path d="M115.541 93.9666L115.385 94.897C115.246 95.2052 115.137 95.5268 115.061 95.8568C114.716 98.7319 113.314 101.165 111.883 103.59C109.42 107.762 105.99 111.016 102.092 113.815C99.9025 115.385 97.8314 117.141 95.5582 118.58C92.4263 120.559 88.907 121.653 85.2741 122.314C81.6412 122.975 78.0547 123.632 74.4176 124.065C73.5462 124.166 72.6664 124.208 71.7823 124.225V123.981C71.7823 123.981 71.7066 123.678 71.6182 123.139C72.6706 123.106 73.723 123.038 74.767 122.92C78.2146 122.537 81.6497 121.94 85.0552 121.27C88.3808 120.613 91.6938 119.704 94.51 117.755C98.0966 115.271 101.498 112.518 105.005 109.908C106.334 108.916 107.364 107.576 107.981 106.036C108.978 103.649 109.665 101.195 108.966 98.6309C109.761 98.7277 109.959 98.8456 110.006 98.9003C110.007 98.9072 110.007 98.9144 110.006 98.9213L110.557 98.8161C110.864 100.387 110.789 102.008 110.338 103.544C110.476 103.446 110.599 103.33 110.704 103.198C112.115 100.731 113.58 98.2983 113.937 95.3853C114.089 94.1603 114.565 93.752 115.541 93.9666Z" fill="#180551"/>
<path d="M114.417 83.2974C115.747 85.7684 116.307 88.2731 114.838 91.1399C114.303 88.5619 114.161 85.9178 114.417 83.2974Z" fill="#2A0091"/>
<path d="M110.564 98.8085L110.013 98.9138C110.015 98.9069 110.015 98.8996 110.013 98.8927L107.487 94.2411C107.184 94.1485 106.894 94.0643 106.612 93.9885C106.335 93.6413 106.042 93.3083 105.732 92.9909C105.332 92.5699 105.092 92.0647 104.279 92.1489C102.301 92.3762 100.297 92.4226 98.3059 92.5699L98.247 91.85C99.3583 91.7616 100.47 91.6606 101.573 91.5259C103.501 91.2902 105.403 90.8566 107.319 90.5114C107.319 90.4104 107.298 90.3135 107.289 90.2167C107.179 90.1726 107.067 90.1346 106.952 90.1031C104.271 89.5263 101.594 88.9286 98.9037 88.3898C97.252 87.9999 95.5732 87.7353 93.8816 87.5983C92.4125 87.5352 92.3115 87.5983 92.4546 86.0113C92.8082 86.0113 93.1702 86.0113 93.5365 86.0113C94.3447 85.9819 95.2203 86.1292 95.9486 85.8682C98.5333 84.9589 101.072 83.9107 103.627 82.9215C103.796 82.8371 103.954 82.7325 104.098 82.61C100.108 82.3237 96.1296 82.0711 92.1599 81.7217C91.8882 81.6709 91.6078 81.6946 91.3484 81.7902C91.089 81.8858 90.8603 82.0498 90.6866 82.2648C90.4206 82.6197 90.058 82.8906 89.6423 83.0451C89.2265 83.1996 88.775 83.2312 88.3418 83.1362C90.9985 80.5701 93.3388 77.6956 95.3129 74.5738C95.0024 74.6221 94.6947 74.6867 94.391 74.7675L94.1595 73.9718C94.7151 73.8035 95.275 73.6435 95.8433 73.4793C96.2306 73.3699 96.7189 73.6098 97.1567 73.6856C97.0661 74.0676 96.9245 74.4358 96.7358 74.7801C95.3592 76.6071 93.9448 78.413 92.5262 80.2273C92.4369 80.3767 92.3568 80.5313 92.2862 80.6904L102.023 81.2966C103.391 81.3807 104.759 81.4355 106.127 81.5744C106.439 81.6039 106.721 81.9364 107.02 82.1301C106.771 82.3911 106.574 82.7699 106.275 82.9004C103.576 84.0496 100.861 85.1526 98.1544 86.2681C97.8387 86.3986 97.5356 86.5586 97.0178 86.8027C98.2302 87.1353 99.2152 87.4468 100.221 87.6446C103.168 88.2803 106.115 88.8696 109.028 89.5179C109.392 89.666 109.728 89.8753 110.021 90.1367C109.747 90.3595 109.453 90.5555 109.141 90.7219C108.266 91.0881 107.369 91.4038 106.283 91.8206C108.384 93.917 110.026 96.1691 110.564 98.8085Z" fill="#180551"/>
<path d="M107.463 94.2423L109.988 98.8939C109.942 98.8392 109.744 98.7214 108.949 98.6245C108.949 98.5445 108.907 98.4688 108.885 98.3888C108.412 96.7857 107.628 95.2911 106.579 93.9897C106.869 94.0613 107.16 94.1455 107.463 94.2423Z" fill="#180551"/>
<path d="M108.957 98.6253C109.639 101.189 108.957 103.643 107.972 106.03C107.355 107.57 106.325 108.91 104.996 109.903C101.489 112.513 98.0878 115.266 94.5012 117.75C91.6849 119.699 88.372 120.608 85.0464 121.265C81.6408 121.934 78.2058 122.527 74.7581 122.915C73.7141 123.033 72.6533 123.1 71.6093 123.134C71.0632 119.761 71.0632 116.323 71.6093 112.951C71.8871 113.283 72.1692 113.612 72.4512 113.94C73.2775 114.911 74.1753 115.818 75.137 116.655C76.1052 117.472 76.9681 117.076 76.9976 115.813C77.0608 113.203 76.9976 110.593 76.9976 107.79C77.2239 107.901 77.4445 108.023 77.6585 108.156C80.8578 110.593 84.0445 113.043 87.2648 115.447C87.5932 115.691 88.2836 115.868 88.5277 115.691C88.7069 115.529 88.8469 115.329 88.9373 115.105C89.0277 114.881 89.0662 114.64 89.0497 114.399C88.7593 112.155 88.372 109.928 88.01 107.693C87.85 106.695 87.6858 105.693 87.488 104.502C88.6035 105.037 89.5422 105.546 90.5231 105.958C93.3983 107.167 96.286 108.358 99.1865 109.511C99.8168 109.725 100.469 109.866 101.131 109.932C101.248 109.939 101.365 109.917 101.472 109.868C101.578 109.819 101.671 109.744 101.742 109.65C101.782 109.526 101.796 109.394 101.781 109.264C101.767 109.134 101.725 109.009 101.658 108.897C99.4811 105.883 97.2795 102.89 95.0905 99.8882C94.9137 99.6398 94.7537 99.3704 94.438 98.8779C96.2061 99.0715 97.7426 99.1726 99.258 99.4167C101.863 99.8149 104.527 99.4977 106.966 98.499C107.896 98.5285 108.519 98.5706 108.957 98.6253Z" fill="#F79221"/>
<path d="M108.894 98.3863C108.894 98.4663 108.94 98.5421 108.957 98.622C108.536 98.5673 107.896 98.5252 107.017 98.5042L107.349 98.3695C107.648 98.1999 107.93 98.0025 108.191 97.7801C108.027 97.6875 107.875 97.5949 107.728 97.5065C107.221 97.161 106.679 96.869 106.112 96.6351C103.325 95.6711 100.525 94.7787 97.7261 93.8526C98.5975 93.2843 100.972 92.4466 106.6 93.9873C107.645 95.2897 108.424 96.7842 108.894 98.3863Z" fill="white"/>
<path d="M107.716 97.5059C107.863 97.5943 108.015 97.6869 108.179 97.7795C107.918 98.0019 107.636 98.1992 107.337 98.3688L107.005 98.5035C106.634 98.5035 106.217 98.5035 105.742 98.5035L107.653 97.5858L107.716 97.5059Z" fill="#4D3826"/>
<path d="M107.715 97.5018L107.677 97.5649L97.25 94.2393C97.3722 94.0841 97.5221 93.9528 97.692 93.8521C100.491 94.7782 103.291 95.6706 106.078 96.6346C106.652 96.8658 107.201 97.1565 107.715 97.5018Z" fill="#180551"/>
<path d="M107.678 97.5688L105.766 98.4864C106.23 98.4864 106.646 98.4864 107.029 98.4864C104.591 99.4852 101.926 99.8024 99.3215 99.4042C97.8061 99.16 96.2696 99.059 94.5015 98.8653C94.8173 99.3578 94.9772 99.6273 95.154 99.8756C97.343 102.877 99.5446 105.87 101.721 108.884C101.788 108.996 101.83 109.122 101.845 109.252C101.86 109.382 101.846 109.513 101.805 109.638C101.735 109.731 101.642 109.806 101.535 109.855C101.429 109.905 101.312 109.927 101.195 109.92C100.533 109.853 99.8803 109.712 99.25 109.499C96.3496 108.345 93.4618 107.154 90.5866 105.946C89.6058 105.525 88.667 105.024 87.5515 104.489C87.7493 105.681 87.9135 106.683 88.0735 107.68C88.4355 109.916 88.8228 112.142 89.1132 114.386C89.1297 114.627 89.0912 114.868 89.0008 115.092C88.9104 115.316 88.7704 115.517 88.5912 115.679C88.3345 115.855 87.6441 115.678 87.3284 115.434C84.108 113.031 80.9213 110.581 77.722 108.143C77.508 108.01 77.2874 107.888 77.0611 107.777C77.0611 110.581 77.1032 113.191 77.0611 115.801C77.0317 117.063 76.1687 117.459 75.2005 116.642C74.2388 115.806 73.341 114.898 72.5147 113.927C72.2327 113.599 71.9507 113.271 71.6728 112.938C71.7191 112.652 71.7696 112.37 71.8202 112.075L68.423 108.253L68.082 107.996C69.1597 106.57 70.2345 105.142 71.3066 103.711C71.7486 103.117 72.1906 102.869 72.9904 103.382C71.7612 104.978 70.5657 106.539 69.3702 108.097C71.4371 110.564 73.4788 112.989 75.5204 115.417L75.8951 115.279C75.8951 113.788 75.8951 112.29 75.8951 110.8C75.8698 109.166 75.8067 107.533 75.7772 105.904C75.7772 105.761 75.8951 105.622 75.9456 105.483C76.1114 105.118 76.2521 104.743 76.3665 104.359C76.4415 103.727 76.5539 103.1 76.7033 102.481C76.7959 102.216 77.2379 102.06 77.52 101.863C77.6631 102.14 77.9409 102.427 77.9409 102.704C77.882 103.589 77.6841 104.464 77.6084 105.352C77.5781 105.687 77.6692 106.022 77.8652 106.295C78.5088 107.09 79.2262 107.821 80.0078 108.48C81.999 110.017 84.0617 111.465 86.0992 112.946C86.5959 113.313 87.1137 113.654 87.783 114.129C87.3326 111.229 86.9411 108.552 86.4907 105.879C86.3644 105.129 86.0697 104.409 85.9097 103.664C85.8508 103.391 85.8803 102.898 86.0234 102.822C86.361 102.652 86.7512 102.617 87.1137 102.726C87.5936 102.932 87.9556 103.407 88.4271 103.643C90.8055 104.805 93.1839 105.959 95.5834 107.045C96.8758 107.621 98.2313 108.042 99.7215 108.598C99.6404 108.331 99.5333 108.073 99.4015 107.828C97.3514 105.024 95.3014 102.212 93.205 99.442C92.9861 99.1516 92.4304 99.1263 92.0473 98.9495C91.6643 98.7727 91.3906 98.6043 91.0665 98.4317C91.357 98.2591 91.6558 97.9308 91.9379 97.9476C94.4847 98.0739 97.0399 98.1665 99.5657 98.4486C101.764 98.7488 104.003 98.5252 106.099 97.7961C105.937 97.6667 105.762 97.5539 105.577 97.4593C103.51 96.7858 101.435 96.1459 99.3847 95.4513L97.1957 94.6978L97.2504 94.2432L107.678 97.5688Z" fill="#180551"/>
<path d="M107.265 90.22C107.265 90.3168 107.265 90.4136 107.295 90.5146C105.379 90.8598 103.477 91.2934 101.549 91.5291C100.446 91.6638 99.3343 91.7649 98.223 91.8533C97.019 91.9459 95.8109 92.0259 94.6027 92.1227C94.3207 92.1227 94.0344 92.0806 93.7608 92.1227C93.4556 92.1935 93.1559 92.2863 92.8641 92.4005C93.062 92.7205 93.1841 93.2424 93.4619 93.3393C94.67 93.8107 95.8908 94.257 97.1158 94.6906L99.3048 95.4441C101.355 96.1387 103.43 96.7785 105.497 97.4521C105.682 97.5466 105.857 97.6594 106.019 97.7888C103.921 98.5221 101.68 98.7486 99.4774 98.4497C96.9517 98.1677 94.3964 98.0751 91.8496 97.9488C91.5676 97.9488 91.2687 98.2603 90.9782 98.4329C91.3024 98.6055 91.6223 98.7991 91.9591 98.9507C92.2958 99.1022 92.8978 99.1527 93.1167 99.4432C95.2215 102.213 97.2632 105.025 99.3132 107.829C99.445 108.074 99.5521 108.332 99.6332 108.599C98.143 108.043 96.7875 107.622 95.4951 107.046C93.083 105.96 90.7046 104.806 88.3388 103.644C87.8631 103.409 87.4969 102.933 87.0254 102.727C86.663 102.618 86.2727 102.653 85.9351 102.824C85.792 102.895 85.7625 103.388 85.8214 103.665C85.9772 104.411 86.2761 105.13 86.4024 105.88C86.8486 108.553 87.2443 111.23 87.6947 114.131C87.017 113.655 86.4992 113.314 86.0109 112.948C83.9734 111.466 81.9107 110.001 79.9196 108.481C79.1379 107.822 78.4205 107.091 77.7769 106.296C77.5809 106.023 77.4898 105.688 77.5201 105.353C77.5959 104.465 77.7937 103.59 77.8527 102.706C77.8527 102.432 77.5959 102.146 77.4317 101.864C77.1497 102.066 76.7076 102.217 76.615 102.483C76.4656 103.101 76.3532 103.728 76.2783 104.36C76.1638 104.744 76.0231 105.119 75.8573 105.484C75.8068 105.631 75.6847 105.77 75.6889 105.905C75.7184 107.534 75.7815 109.167 75.8068 110.801C75.8278 112.291 75.8068 113.79 75.8068 115.28L75.4321 115.419C73.3905 112.99 71.3488 110.565 69.2819 108.098C70.4774 106.541 71.6729 104.979 72.9022 103.383C72.1234 102.874 71.6814 103.118 71.2183 103.712C70.1463 105.137 69.0714 106.566 67.9937 107.997C66.1106 110.495 64.229 112.991 62.3487 115.486C62.2726 115.629 62.2213 115.784 62.1971 115.945L61.8814 115.743C61.7509 114.429 61.6246 113.116 61.4899 111.803C61.4183 111.142 61.3552 110.472 61.2415 109.816C61.0647 108.767 60.8669 107.757 62.0624 107.092C62.173 106.963 62.2483 106.808 62.2807 106.641C62.3132 106.474 62.3018 106.302 62.2476 106.141C61.9109 105.741 61.5109 105.913 61.1195 106.28C57.7546 109.437 54.363 112.58 50.9448 115.709C50.9238 115.709 50.8817 115.709 50.7386 115.709C51.088 114.215 51.4584 112.762 51.7699 111.285C52.1909 109.378 52.5782 107.471 52.8602 105.551C52.8787 105.273 52.9733 105.006 53.1337 104.778C53.294 104.55 53.514 104.37 53.7695 104.259C54.342 103.956 55.1923 103.893 55.2681 102.765C54.7503 102.794 54.1946 102.659 53.82 102.866C51.7152 104.015 49.6735 105.244 47.6192 106.456C46.9246 106.877 46.2385 107.277 45.5523 107.694L43.4896 108.936C43.4054 108.847 43.3254 108.755 43.2412 108.662L48.558 100.529C47.9392 100.605 47.5477 100.63 47.1688 100.719C47.0383 100.744 46.9078 100.921 46.8489 101.055C46.0743 102.824 44.643 103.505 43.0981 104.002C42.3951 104.221 41.6626 104.398 40.9638 104.621C38.7791 105.311 36.5858 106.006 34.3926 106.684C32.7088 107.21 30.9955 107.715 29.299 108.233L29.139 107.9L29.1853 107.867L31.046 106.49C32.1686 105.648 33.2911 104.824 34.4137 104.019C35.967 102.878 37.4278 101.493 39.1495 100.723C40.4124 100.142 40.7407 98.837 41.8436 98.2603C41.9615 98.1929 42.0794 97.8393 42.0247 97.7846C41.9068 97.6457 41.629 97.4815 41.4943 97.532C40.989 97.6851 40.5186 97.9353 40.1093 98.2687C39.8036 98.5878 39.4256 98.8285 39.0072 98.9706C38.5888 99.1128 38.1424 99.1521 37.7056 99.0854C34.8473 98.8412 31.9763 98.7149 29.1054 98.5171C28.343 98.4764 27.5936 98.3026 26.8911 98.0035C27.9688 97.6499 29.0759 97.3595 30.1241 96.9259C32.1742 96.0839 34.1695 95.1241 36.228 94.3075L36.4469 94.2191C37.0742 93.9791 37.8487 94.1265 38.5517 94.0844C38.8717 94.0844 39.3179 94.1307 39.4694 93.9539C39.621 93.7771 39.5031 93.3393 39.5031 92.8973L40.2482 92.3626C40.2482 92.2448 40.2187 92.1269 40.2019 92.009C39.8755 91.9499 39.5405 91.957 39.2169 92.0301C38.7685 92.2594 38.2763 92.3904 37.7732 92.4144C37.2701 92.4383 36.7678 92.3547 36.2996 92.169C33.9085 91.3692 31.4796 90.6956 29.0633 89.9632C28.9987 89.9401 28.9354 89.9134 28.8738 89.8832C28.811 89.8476 28.7464 89.8152 28.6802 89.7864C28.6802 89.7232 28.6802 89.6559 28.7097 89.5927C29.1306 89.5927 29.5516 89.5927 29.9725 89.5927C31.7097 89.4889 33.4469 89.378 35.184 89.2602L41.1491 88.8729C41.7426 88.835 42.5467 89.0413 42.5887 88.1067C42.5887 88.0141 41.5742 87.7657 41.0312 87.7784C39.5368 87.812 38.0466 87.9425 36.6574 88.0267C34.039 85.2821 31.4627 82.5837 28.8823 79.8896L29.1012 79.6033L31.6269 80.0706L32.09 80.1548C33.4413 80.4031 34.7968 80.6136 36.1354 80.9167C36.5269 81.0355 36.8676 81.2814 37.1036 81.6155C37.453 82.0996 37.6256 82.7226 38.0003 83.1899C38.1687 83.4004 38.6359 83.3835 38.9685 83.4677C39.0362 83.2039 39.066 82.9317 39.0569 82.6595C38.9324 82.2428 38.7732 81.8373 38.5812 81.4471C40.3113 81.9481 41.8479 82.4069 43.397 82.8321C43.94 82.9878 44.7062 83.674 44.9882 82.7142C45.2113 81.9228 44.2263 82.0407 43.7717 81.8933C42.0878 81.3335 40.345 80.8872 38.6359 80.3652C38.3665 80.2811 38.0003 80.0916 37.9161 79.8601C36.9437 77.1996 36.0133 74.5223 35.0746 71.8618C35.0746 71.8155 35.1041 71.7482 35.163 71.5503C36.4259 71.9713 37.6888 72.3459 38.9306 72.8132C39.8315 73.1374 40.7407 73.4404 41.6416 73.7772C42.5412 74.0987 43.4224 74.4697 44.281 74.8885C45.2198 75.3516 45.9228 76.1893 47.1562 75.962C47.5393 75.8946 47.9981 76.4208 48.4443 76.5093C48.7137 76.564 49.0421 76.2903 49.3368 76.1641C49.182 75.9248 48.9935 75.7093 48.7769 75.5242C48.4484 75.3292 48.098 75.1737 47.7329 75.0611C46.268 74.5181 46.2637 74.5223 46.3269 73.0026C46.4672 69.6574 46.6075 66.3094 46.7478 62.9585C46.7764 62.7036 46.82 62.4506 46.8783 62.2008L49.4041 64.6255C50.5954 65.7832 51.7489 66.9829 52.9907 68.0774C53.7442 68.7467 52.9907 69.2098 52.957 69.7612C52.957 70.0138 53.0412 70.4222 53.2096 70.5021C53.3513 70.5424 53.5 70.5512 53.6455 70.5279C53.7909 70.5047 53.9295 70.4499 54.0515 70.3674C54.2578 70.2201 54.3336 69.8875 54.5398 69.5255C54.7798 69.7907 54.9608 70.1359 55.1839 70.1948C55.5602 70.2254 55.939 70.1998 56.3079 70.1191C56.1984 69.8328 56.1689 69.4161 55.9669 69.2982C54.8808 68.671 55.0155 67.9259 55.3102 66.8271C56.089 63.9688 56.6404 61.0473 57.2845 58.1469C57.3224 57.9701 57.3771 57.8017 57.4908 57.4018C57.6928 57.6881 57.8865 57.9575 58.0801 58.2185C58.6526 59.0141 59.1872 59.734 59.6629 60.4875C60.8963 62.4281 62.0624 64.4024 63.2832 66.3473C63.5697 66.7141 63.8881 67.055 64.2346 67.366C63.8136 68.5489 63.3632 69.837 62.9717 71.1546C62.9001 71.3862 63.0643 71.6892 63.1232 71.9587C63.4432 71.845 63.9441 71.8282 64.0536 71.6051C64.4972 70.726 64.8647 69.8106 65.1523 68.8688C66.1668 65.5474 67.1013 62.205 68.1369 58.892C68.179 58.7531 68.2295 58.6142 68.28 58.4711C68.6571 57.4796 69.1339 56.529 69.7028 55.6338C69.8923 56.5431 70.1238 57.4439 70.2711 58.3532C70.7258 60.9042 71.1131 63.4552 71.6224 65.9894C71.8371 67.0797 71.7108 67.9806 70.8605 68.7678C70.5156 69.156 70.2123 69.5793 69.9554 70.0307C70.5574 70.4053 71.012 70.4937 71.3783 69.8749C71.4288 69.7907 71.4625 69.6728 71.534 69.635C73.3947 68.7299 73.8072 66.6209 75.1669 65.2528C75.2595 65.1643 75.3521 65.0759 75.4532 64.9918C76.8887 63.7836 77.9789 62.1882 79.4523 60.5211C79.2208 62.626 79.1282 64.4487 78.7998 66.2378C78.3073 68.873 77.6253 71.4703 77.0697 74.0971C77.0631 74.4954 77.1273 74.8916 77.2591 75.2674C77.6801 75.158 78.2063 75.1748 78.522 74.9222C80.4752 73.3605 82.3822 71.7355 84.4154 70.0264L84.5333 69.9254C84.4768 70.1245 84.4429 70.3292 84.4323 70.5358C84.4533 70.7337 84.5123 71.0704 84.6007 71.0915C84.7142 71.1146 84.8314 71.1126 84.9441 71.0857C85.0568 71.0588 85.1623 71.0076 85.2532 70.9357C85.5645 70.6324 85.7834 70.2471 85.8846 69.8244C86.1077 68.6752 86.9454 68.17 87.7915 67.6564C88.0736 67.4838 88.3598 67.3155 88.6335 67.1176C87.0457 70.8943 85.1345 74.5267 82.921 77.9742C83.0702 78.1919 83.2946 78.3467 83.5511 78.4088C83.8075 78.471 84.0779 78.4361 84.3102 78.311C87.6779 77.0986 91.0456 75.9199 94.4133 74.737C94.7169 74.6562 95.0247 74.5916 95.3352 74.5434C93.3611 77.6652 91.0208 80.5397 88.3641 83.1057C88.7973 83.2008 89.2487 83.1692 89.6645 83.0147C90.0803 82.8602 90.4428 82.5893 90.7088 82.2343C90.8826 82.0193 91.1113 81.8553 91.3706 81.7597C91.63 81.6641 91.9104 81.6405 92.1822 81.6913C96.1518 82.0407 100.13 82.2933 104.121 82.5795C103.977 82.702 103.818 82.8066 103.649 82.891C101.094 83.8971 98.5555 84.9453 95.9708 85.8377C95.2383 86.0987 94.367 85.9514 93.5587 85.9809C93.1925 85.9809 92.8305 85.9809 92.4768 85.9809C92.3337 87.5847 92.4347 87.5047 93.9039 87.5679C95.5843 87.7079 97.2517 87.9739 98.8923 88.3635C101.582 88.9023 104.26 89.5001 106.941 90.0768C107.052 90.1184 107.16 90.1662 107.265 90.22Z" fill="#4D3826"/>
<path d="M105.707 92.9796C106.017 93.2971 106.311 93.6301 106.587 93.9773C100.959 92.4366 98.5888 93.2743 97.7132 93.8426L97.5701 93.7963C97.0102 93.6069 96.4587 93.3753 95.8862 93.1901V92.8954C96.6776 92.786 97.4606 92.626 98.2562 92.5671C100.247 92.4156 102.251 92.3692 104.23 92.1461C105.067 92.0619 105.307 92.5587 105.707 92.9796Z" fill="#F79221"/>
<path d="M98.223 91.856L98.2819 92.5758C97.4863 92.6347 96.7033 92.7947 95.9119 92.9042V93.1988C96.4676 93.4009 97.019 93.6198 97.5957 93.805L97.7389 93.8513C97.552 93.9485 97.386 94.0815 97.2505 94.2428L97.0906 94.7017C95.8656 94.2807 94.6448 93.8219 93.4366 93.3504C93.1588 93.2409 93.0367 92.7316 92.8389 92.4116C93.1306 92.2974 93.4303 92.2046 93.7355 92.1338C94.0176 92.0875 94.3038 92.1338 94.5774 92.1338C95.8108 92.0286 97.019 91.9486 98.223 91.856Z" fill="#180551"/>
<path d="M94.1694 73.9505L94.4009 74.7462C91.0332 75.9291 87.6656 77.1077 84.2979 78.3201C84.0656 78.4453 83.7952 78.4802 83.5387 78.418C83.2823 78.3558 83.0579 78.201 82.9087 77.9834C85.1221 74.5359 87.0334 70.9035 88.6211 67.1268C88.3559 67.3246 88.0697 67.493 87.7792 67.6656L87.1941 66.7521C87.8109 66.3422 88.4535 65.9724 89.1179 65.645C89.5309 65.5452 89.9573 65.5125 90.3807 65.5482C90.4067 65.9044 90.3855 66.2625 90.3176 66.6132C89.1726 70.1703 87.0762 73.2475 85.2871 76.4763C85.2282 76.5858 85.1735 76.691 84.9925 77.0193C86.5163 76.4679 87.8339 75.9627 89.1684 75.5291C90.8312 74.9861 92.4982 74.4557 94.1694 73.9505Z" fill="#180551"/>
<path d="M87.2074 66.7548L87.7925 67.6683C86.9506 68.1818 86.1087 68.687 85.8856 69.8362C85.7619 70.2319 85.5335 70.5869 85.2246 70.8634C85.1338 70.9353 85.0283 70.9865 84.9156 71.0134C84.8029 71.0403 84.6857 71.0422 84.5722 71.0191C84.4838 70.9981 84.4248 70.6613 84.4038 70.4634C84.4144 70.2568 84.4483 70.0521 84.5048 69.8531L84.3869 69.9541L83.7471 69.1879C83.8481 69.1164 83.9533 69.0532 84.0544 68.9901C86.0539 67.7272 85.8687 65.7403 86.5465 63.7197L86.277 63.8796L85.7593 62.9998C85.8982 62.924 86.0371 62.8483 86.1802 62.7767C86.5212 62.5999 87.1105 62.4862 87.3589 62.6588C87.5053 62.8111 87.6163 62.9938 87.684 63.1939C87.7517 63.394 87.7743 63.6066 87.7504 63.8165C87.6578 64.7763 87.4136 65.6771 87.2074 66.7548Z" fill="#180551"/>
<path d="M86.2759 63.8777L86.5453 63.7178C85.8676 65.7384 86.0528 67.7337 84.0532 68.9882C83.9522 69.0513 83.847 69.1145 83.7459 69.1861C82.2136 70.2006 80.8666 71.5098 79.4269 72.6842C79.1869 72.8779 78.9512 73.0799 78.585 73.3704C79.0059 71.5055 79.3722 69.8049 79.8015 68.1168C79.9121 67.7845 80.1375 67.5024 80.4372 67.3212C82.2936 66.2014 84.1669 65.1112 86.2759 63.8777Z" fill="#4D3826"/>
<path d="M85.7579 62.9979L86.2757 63.8777C84.1709 65.1111 82.2934 66.2014 80.4496 67.3212C80.1499 67.5024 79.9245 67.7845 79.8139 68.1168C79.393 69.8007 79.0225 71.5055 78.5973 73.3704C78.951 73.0799 79.1867 72.8779 79.4393 72.6842C80.879 71.5098 82.226 70.2006 83.7583 69.1861L84.3982 69.9522C82.3481 71.6613 80.4412 73.2862 78.5047 74.848C78.1932 75.1006 77.6628 75.0837 77.2418 75.1932C77.1086 74.8219 77.0416 74.43 77.044 74.0355C77.5997 71.4087 78.2816 68.8114 78.7741 66.1762C79.1025 64.3871 79.1951 62.5475 79.4266 60.4595C77.9659 62.1434 76.863 63.722 75.4275 64.9301C75.3265 65.0143 75.2339 65.1027 75.1413 65.1911L74.333 64.6018C75.0234 63.8356 75.6927 63.0863 76.362 62.337C77.3429 61.2425 78.2858 60.1101 79.3088 59.0493C79.5445 58.8009 80.1507 58.5526 80.3233 58.6747C80.4726 58.8149 80.5901 58.9856 80.6678 59.1751C80.7455 59.3646 80.7816 59.5687 80.7737 59.7734C80.6516 61.4867 80.4369 63.1916 80.2433 64.8965C80.197 65.3174 80.1044 65.7384 80.0034 66.3319L82.8869 64.6986C83.8299 64.1261 84.7771 63.5368 85.7579 62.9979Z" fill="#180551"/>
<path d="M79.4304 136.968C79.4304 137.057 79.4304 137.141 79.4304 137.229C79.241 137.394 79.081 137.65 78.8579 137.718C75.7175 138.905 72.594 139.402 69.542 137.41C67.4877 136.063 65.2314 135.344 62.8319 136.148C61.2242 136.75 59.6743 137.497 58.2013 138.379C55.9615 139.641 54.0327 141.389 52.5562 143.493C52.2962 143.855 52.08 144.247 51.9122 144.659C51.7017 145.181 51.4702 145.644 50.8093 145.299C50.1483 144.954 50.3125 144.588 50.6325 144.036C52.973 140.13 56.4628 137.646 60.5208 135.769C63.7328 134.278 66.81 134.569 69.7399 136.345C70.7851 137.021 71.9667 137.457 73.2002 137.623C74.4336 137.789 75.6886 137.681 76.8752 137.305C77.2994 137.164 77.7344 137.059 78.1759 136.989C78.5932 136.955 79.0122 136.948 79.4304 136.968Z" fill="#180551"/>
<path d="M74.3165 64.5902L75.1247 65.1795C73.765 66.5477 73.3525 68.6567 71.4918 69.5617C71.4202 69.5996 71.3866 69.7175 71.3361 69.8017C70.9698 70.4205 70.5152 70.3321 69.9132 69.9574C70.1701 69.5061 70.4734 69.0828 70.8183 68.6945C71.6602 67.9074 71.7949 67.0107 71.5802 65.9162C71.0877 63.3904 70.6836 60.831 70.2289 58.28C70.0648 57.3707 69.8501 56.4698 69.6606 55.5606C69.0917 56.4558 68.6149 57.4064 68.2378 58.3978L67.2148 58.04C67.2738 57.859 67.3411 57.6738 67.4043 57.4928C67.8589 56.2004 68.3977 54.9418 68.9534 53.7041C69.0839 53.4137 69.5049 52.9927 69.6859 53.0432C69.8685 53.0989 70.0361 53.1953 70.1761 53.3251C70.3161 53.4548 70.4248 53.6147 70.4941 53.7925C70.9796 55.757 71.416 57.7215 71.8033 59.686C72.1822 61.6224 72.4979 63.5799 72.8431 65.5247C72.8962 65.6957 72.9638 65.8619 73.0452 66.0215L74.3165 64.5902Z" fill="#180551"/>
<path d="M71.7735 123.98V124.224C70.2917 124.249 68.8015 124.203 67.3197 124.257C61.9441 124.451 56.6189 123.996 51.2896 123.34C48.7006 123.02 46.1623 122.616 43.7754 121.559C42.6568 120.994 41.5704 120.367 40.5214 119.682C39.8563 119.976 39.0901 120.376 38.2861 120.671C37.8414 120.86 37.356 120.933 36.8753 120.884C36.3946 120.835 35.9342 120.664 35.5372 120.389C35.3629 120.287 35.2104 120.151 35.0887 119.99C34.967 119.829 34.8783 119.645 34.8278 119.449C34.7774 119.254 34.7661 119.05 34.7946 118.85C34.8232 118.65 34.891 118.458 34.9942 118.284C35.4151 117.442 35.9119 116.676 36.2949 115.838C36.417 115.573 36.417 115.022 36.2444 114.883C34.9288 113.726 33.8335 112.342 33.0114 110.795C32.2537 109.49 31.5886 109.406 30.3089 110.298C28.3388 111.662 26.4613 113.157 24.4407 114.436C21.4939 116.305 18.5472 118.225 15.3984 119.762C12.4608 121.218 9.30598 122.188 6.05731 122.633C5.06891 122.765 4.0739 122.842 3.0769 122.864C2.22254 122.838 1.3706 122.759 0.525879 122.628L0.584814 122.249C2.09606 122.077 3.61573 121.959 5.11435 121.715C5.43007 121.669 5.74579 121.61 6.05731 121.555C10.9214 120.722 15.5557 118.875 19.6586 116.133C22.7947 113.999 25.973 111.923 29.1175 109.797C29.2943 109.68 29.4501 109.532 29.7153 109.326C29.5117 109.275 29.3022 109.251 29.0923 109.254L29.307 108.21C30.9908 107.693 32.7083 107.187 34.4006 106.661C36.5938 105.984 38.787 105.289 40.9718 104.599C41.6706 104.375 42.4031 104.199 43.1061 103.98L43.4344 105.032L33.525 108.135C34.3669 110.601 35.3267 112.824 37.4063 114.293C37.8144 114.013 38.2013 113.704 38.5639 113.367L39.4521 113.889C39.1533 114.239 38.8544 114.596 38.5681 114.954C37.7834 115.984 37.0943 117.083 36.5096 118.238C36.2991 118.629 36.4338 119.202 36.417 119.694C36.9358 119.723 37.456 119.678 37.9619 119.56C42.1474 117.828 46.0921 115.565 49.6983 112.824C49.9512 112.641 50.1362 112.379 50.2245 112.079C50.6918 109.932 51.1212 107.777 51.6179 105.344C50.7086 105.925 50.0856 106.358 49.4289 106.729C48.3204 107.352 47.2104 107.97 46.0991 108.585L45.5603 107.676C46.2464 107.255 46.9326 106.834 47.6272 106.438C49.6815 105.226 51.7358 103.997 53.828 102.847C54.2026 102.641 54.7583 102.776 55.2761 102.746C55.2003 103.874 54.3499 103.938 53.7774 104.241C53.5219 104.352 53.302 104.531 53.1416 104.759C52.9813 104.987 52.8867 105.255 52.8682 105.533C52.5861 107.453 52.1778 109.36 51.7779 111.267C51.4664 112.736 51.0959 114.213 50.7465 115.691C50.8896 115.691 50.9317 115.691 50.9528 115.691C54.3598 112.559 57.7625 109.421 61.1611 106.278C61.5526 105.912 61.9525 105.739 62.2893 106.139C62.3434 106.3 62.3548 106.473 62.3224 106.639C62.2899 106.806 62.2147 106.962 62.104 107.091C60.9085 107.756 61.1064 108.774 61.2832 109.814C61.3968 110.471 61.46 111.14 61.5315 111.801C61.6662 113.115 61.7925 114.428 61.923 115.741L62.2388 115.943C62.263 115.783 62.3142 115.628 62.3903 115.485C64.2678 112.984 66.1495 110.488 68.0354 107.996L68.3764 108.252L64.9034 113.881C64.9021 113.892 64.9021 113.903 64.9034 113.914C64.9034 113.914 64.9034 113.935 64.9034 113.94C64.6719 114.272 64.4614 114.609 64.2636 114.958C63.941 115.618 63.4801 116.201 62.9123 116.667C62.4913 116.983 61.8262 117.278 61.3926 117.156C61.0222 117.055 60.6854 116.373 60.576 115.893C60.4708 115.134 60.4103 114.369 60.3949 113.603C60.2434 112.188 60.0666 110.774 59.8645 109.044L51.66 116.819C51.3459 117.175 50.9831 117.486 50.5823 117.741C50.4071 117.826 50.2166 117.875 50.0221 117.885C49.8276 117.895 49.6331 117.866 49.45 117.8C49.2437 117.699 49.1469 117.156 49.1805 116.832C49.2605 116.04 49.4415 115.266 49.5762 114.55L42.0368 119.227C42.7105 119.7 43.4136 120.131 44.1416 120.515C48.1534 122.321 52.4809 122.536 56.7705 122.86C59.3299 123.053 61.8978 123.108 64.4698 123.138C64.4951 123.407 64.5204 123.689 64.5498 123.98H71.7735Z" fill="#180551"/>
<path d="M68.3772 108.262L71.7744 112.085C71.7239 112.379 71.6733 112.661 71.627 112.948C70.5704 111.685 69.5222 110.422 68.4319 109.066C67.9142 109.803 67.5185 110.375 67.1101 110.935C66.3903 111.929 65.5947 112.88 64.9043 113.882L68.3772 108.262Z" fill="#4D3826"/>
<path d="M71.7731 123.98H64.5536C64.5241 123.69 64.4989 123.408 64.4736 123.139H66.9994C68.5317 123.139 70.0682 123.164 71.6047 123.113C71.6973 123.677 71.7731 123.98 71.7731 123.98Z" fill="#4D3826"/>
<path d="M71.6269 112.946C71.0807 116.318 71.0807 119.757 71.6269 123.129C70.0904 123.179 68.5539 123.163 67.0216 123.154H64.4958C63.8896 116.318 64.6852 114.348 64.8831 113.977C64.8831 113.977 64.8831 113.977 64.8831 113.952C64.8818 113.941 64.8818 113.93 64.8831 113.918C65.5734 112.908 66.3691 111.957 67.0889 110.972C67.5099 110.412 67.8929 109.839 68.4107 109.103C69.5389 110.408 70.5703 111.696 71.6269 112.946Z" fill="white"/>
<path d="M68.2377 58.395C68.1872 58.534 68.1367 58.6729 68.0946 58.816C67.059 62.129 66.1245 65.4714 65.11 68.7928C64.8161 69.7293 64.4429 70.6391 63.9944 71.5122C63.885 71.7353 63.384 71.7521 63.0641 71.8658C63.0052 71.5964 62.841 71.2933 62.9126 71.0618C63.3335 69.7568 63.784 68.4686 64.1754 67.2731C63.829 66.9622 63.5106 66.6213 63.2241 66.2544C62.0033 64.3095 60.8372 62.3352 59.6038 60.3946C59.1281 59.6411 58.5935 58.9212 58.021 58.1256L58.9429 57.5952C59.9658 58.9507 60.9425 60.3399 61.8896 61.7333C62.8031 63.0551 63.6071 64.4527 64.487 65.8545C65.3962 63.1729 66.255 60.584 67.1601 58.012L68.2377 58.395Z" fill="#180551"/>
<path d="M64.2214 114.978C64.4193 114.629 64.6424 114.292 64.8613 113.96C64.6635 114.33 63.8678 116.3 64.474 123.137C61.902 123.107 59.3341 123.052 56.7747 122.859C52.4977 122.535 48.1702 122.32 44.1458 120.514C43.4177 120.129 42.7147 119.699 42.041 119.226L49.5804 114.549C49.4457 115.265 49.2647 116.039 49.1847 116.831C49.151 117.155 49.2479 117.698 49.4541 117.799C49.6372 117.865 49.8318 117.894 50.0263 117.884C50.2208 117.874 50.4113 117.825 50.5865 117.74C50.9873 117.485 51.3501 117.174 51.6642 116.818L59.8266 109.06C60.0287 110.79 60.2055 112.204 60.357 113.619C60.3724 114.385 60.4328 115.149 60.538 115.909C60.6475 116.393 60.9843 117.075 61.3547 117.171C61.7757 117.294 62.4534 116.999 62.8744 116.683C63.4402 116.218 63.8996 115.636 64.2214 114.978Z" fill="#F79221"/>
<path d="M58.9769 57.6218L58.055 58.1522C57.8613 57.8912 57.6677 57.6218 57.4656 57.3355C57.352 57.7565 57.2972 57.9038 57.2593 58.0806C56.6153 60.981 56.0638 63.9025 55.285 66.7608C54.9904 67.8596 54.8641 68.6047 55.9417 69.2319C56.1438 69.3498 56.1733 69.7665 56.2827 70.0528C55.9139 70.1335 55.5351 70.1591 55.1587 70.1285C54.923 70.0696 54.7378 69.7076 54.5147 69.4592C54.3084 69.8423 54.2326 70.1748 54.0264 70.3011C53.9043 70.3836 53.7657 70.4384 53.6203 70.4616C53.4749 70.4849 53.3261 70.4761 53.1844 70.4358C53.0161 70.3559 52.9192 69.9475 52.9319 69.6949C52.9613 69.1351 53.7191 68.672 52.9655 68.0111C51.7027 66.9166 50.5703 65.7169 49.379 64.5592L46.8532 62.1345C46.7948 62.3843 46.7512 62.6373 46.7227 62.8922C46.5796 66.2431 46.4392 69.5911 46.3017 72.9363C46.2386 74.456 46.2428 74.4518 47.7077 74.9948C48.0728 75.1074 48.4232 75.2629 48.7517 75.4579C48.9683 75.643 49.1569 75.8585 49.3116 76.0978C49.0169 76.224 48.6886 76.5187 48.4192 76.443C47.9687 76.3545 47.5141 75.8283 47.131 75.8957C45.8976 76.123 45.1946 75.2853 44.2559 74.8222L44.6389 73.7488L44.9673 73.8667C45.0599 71.7029 45.1315 69.556 45.2409 67.4175C45.3504 65.2791 45.4893 63.0859 45.6619 60.9221C45.704 60.2949 46.3059 60.0802 46.87 60.5012C47.32 60.851 47.7423 61.2353 48.1329 61.6504C49.8546 63.3342 51.568 65.0728 53.2939 66.7819C53.4563 66.914 53.6295 67.0323 53.8117 67.1355C54.1316 65.8516 54.4557 64.6687 54.721 63.4689C55.2219 61.2336 55.6723 58.9815 56.1817 56.7336C56.4469 55.5759 57.1457 55.3486 57.8908 56.2747C58.2865 56.7251 58.6317 57.1756 58.9769 57.6218Z" fill="#180551"/>
<path d="M51.6186 105.355C51.1218 107.784 50.6925 109.94 50.2252 112.091C50.1369 112.391 49.9519 112.653 49.699 112.836C46.0927 115.576 42.148 117.84 37.9626 119.571C37.4566 119.689 36.9364 119.735 36.4177 119.706C36.4177 119.214 36.2998 118.641 36.5103 118.25C37.0952 117.096 37.7842 115.998 38.5688 114.97C38.855 114.612 39.1539 114.255 39.4528 113.905C40.3579 112.861 41.3134 111.855 42.2438 110.828C42.3985 110.677 42.5761 110.552 42.77 110.458L43.9697 109.788L46.0998 108.605C47.2223 107.991 48.3323 107.372 49.4296 106.749C50.1031 106.37 50.7093 105.936 51.6186 105.355ZM41.1829 117.315C40.3663 116.751 39.2634 117.126 38.493 118.157C39.5117 118.62 40.3705 118.359 41.1829 117.315ZM38.9434 116.73C38.7203 116.401 38.6445 116.166 38.5225 116.132C38.4261 116.104 38.3246 116.1 38.2259 116.118C38.1273 116.136 38.0343 116.177 37.9542 116.237C37.5946 116.717 37.275 117.225 36.9986 117.757C36.9565 117.845 37.247 118.102 37.3775 118.283C37.8952 117.77 38.413 117.256 38.9434 116.73Z" fill="#C8A468"/>
<path d="M47.1773 100.714C47.5562 100.625 47.9477 100.6 48.5665 100.524L43.2498 108.657C43.3339 108.75 43.4139 108.843 43.4981 108.931L43.9696 109.773L42.7699 110.442C42.576 110.537 42.3984 110.662 42.2437 110.813C41.3133 111.84 40.3577 112.846 39.4527 113.89L38.5645 113.368C41.0608 111.069 42.2437 107.858 44.0875 105.096L43.898 104.886L43.435 105.029L43.1066 103.976C44.6515 103.492 46.0828 102.81 46.8574 101.03C46.9163 100.916 47.0468 100.739 47.1773 100.714Z" fill="#180551"/>
<path d="M45.5598 107.691L46.0986 108.6L43.9685 109.783L43.4971 108.941L45.5598 107.691Z" fill="#180551"/>
<path d="M43.7878 81.8672C44.2424 82.0145 45.2275 81.8966 45.0044 82.6881C44.7223 83.6605 43.9562 82.9617 43.4131 82.8059C41.864 82.385 40.3275 81.9219 38.5973 81.421C38.7894 81.8111 38.9485 82.2167 39.073 82.6333C39.0821 82.9056 39.0523 83.1777 38.9846 83.4416C38.6521 83.3574 38.1848 83.3742 38.0164 83.1637C37.6418 82.6965 37.4692 82.0734 37.1198 81.5893C36.8837 81.2552 36.543 81.0093 36.1516 80.8905C34.8129 80.5875 33.4574 80.377 32.1061 80.1286L31.6431 80.0444L31.8157 79.0973C33.3269 79.3709 34.8929 79.5477 36.4757 79.9392C36.0547 78.6763 35.6801 77.6365 35.3349 76.601C34.7989 75.0013 34.2699 73.3988 33.7479 71.7936C33.6863 71.6141 33.6343 71.4314 33.5921 71.2463C33.5248 70.9769 33.4658 70.6991 33.4027 70.4297C33.8236 70.3371 34.2909 70.0634 34.6361 70.1771C36.1852 70.7131 37.7288 71.259 39.2667 71.8146L38.9425 72.7702C37.7007 72.3198 36.4168 71.9283 35.1749 71.5073C35.116 71.7052 35.0697 71.7725 35.0865 71.8188C36.0253 74.4962 36.9556 77.1735 37.928 79.8171C38.0122 80.0486 38.3784 80.2381 38.6479 80.3223C40.357 80.8611 42.1039 81.3073 43.7878 81.8672Z" fill="#180551"/>
<path d="M44.6763 73.7589L44.2932 74.8324C43.4346 74.4136 42.5534 74.0425 41.6538 73.721L41.9906 72.7949L44.6763 73.7589Z" fill="#180551"/>
<path d="M43.8979 104.893L44.0873 105.104C42.2435 107.865 41.0606 111.077 38.5643 113.375C38.2017 113.712 37.8148 114.022 37.4066 114.302C35.3271 112.832 34.3589 110.61 33.5254 108.143L43.4348 105.036L43.8979 104.893Z" fill="#F79221"/>
<path d="M42.0115 97.7664C42.0662 97.8337 41.9484 98.1874 41.8305 98.2421C40.7276 98.8188 40.4034 100.124 39.1364 100.705C37.4146 101.492 35.9539 102.86 34.4005 104.001C33.278 104.817 32.1554 105.641 31.0329 106.472L30.4477 105.685C31.4201 104.94 31.8664 103.967 31.458 102.443C31.2433 101.627 31.639 100.642 31.7527 99.766C30.0689 99.606 28.3513 99.4671 26.6464 99.2566C25.9887 99.1542 25.3428 98.9864 24.7184 98.7557C24.5248 98.6883 24.2428 98.4147 24.2638 98.28C24.3045 98.1655 24.3685 98.0607 24.4518 97.9722C24.5352 97.8838 24.636 97.8137 24.7479 97.7664C25.2994 97.5222 25.8887 97.3454 26.457 97.1434L35.9244 93.6157L36.1938 94.2892C34.1353 95.1059 32.14 96.0657 30.0899 96.9076C29.0417 97.3286 27.9346 97.6317 26.8569 97.9853C27.5594 98.2844 28.3088 98.4582 29.0712 98.4989C31.9421 98.6967 34.8131 98.823 37.6714 99.0672C38.1082 99.1339 38.5546 99.0946 38.973 98.9524C39.3914 98.8103 39.7694 98.5695 40.0751 98.2505C40.4844 97.9171 40.9548 97.6669 41.4601 97.5138C41.6158 97.4633 41.8937 97.6106 42.0115 97.7664ZM37.5956 100.313C37.5746 100.233 37.5578 100.153 37.5367 100.077C36.2738 99.9596 34.9731 99.8165 33.6891 99.7449C33.5524 99.7788 33.4261 99.8456 33.3212 99.9395C33.2163 100.033 33.1359 100.152 33.0871 100.284C32.8809 101.408 32.7546 102.549 32.603 103.681L32.9356 103.799C34.4847 102.634 36.0381 101.472 37.5956 100.313Z" fill="#180551"/>
<path d="M41.9897 72.7921L41.6529 73.7182C40.752 73.3814 39.8428 73.0783 38.9419 72.7542L39.2745 71.8154L41.9897 72.7921Z" fill="#180551"/>
<path d="M42.584 88.0834C42.5419 89.0179 41.7421 88.8116 41.1443 88.8495L35.1793 89.2368L35.1119 88.176C34.0764 87.1109 33.2134 86.2859 32.422 85.4018C30.9823 83.7769 29.5679 82.1352 28.145 80.4934L28.8775 79.8662C31.458 82.5604 34.0343 85.2587 36.6526 88.0034C38.0418 87.9192 39.532 87.7887 41.0264 87.755C41.5695 87.7424 42.5882 87.9908 42.584 88.0834Z" fill="#180551"/>
<path d="M40.7906 131.244C40.7906 131.383 40.7906 131.514 40.8117 131.665C40.4718 131.776 40.1166 131.831 39.7593 131.829C38.4375 131.611 37.1325 131.299 35.8149 131.076C34.1177 130.745 32.3697 130.776 30.6853 131.167C29.0009 131.558 27.418 132.3 26.0402 133.345C24.6678 134.359 23.2366 135.298 21.8053 136.292L20.9634 135.547C24.0785 133.189 27.0168 130.617 31.0412 129.969C34.4341 129.409 37.6292 130.234 40.7906 131.244Z" fill="#180551"/>
<path d="M38.4922 118.169C39.2625 117.125 40.3655 116.751 41.1821 117.327C40.3697 118.359 39.5109 118.62 38.4922 118.169Z" fill="#4D3826"/>
<path d="M40.1926 91.9918C40.1926 92.1097 40.2221 92.2276 40.2389 92.3454L39.4938 92.8801C39.4938 93.3221 39.6201 93.7514 39.4601 93.9367C39.3002 94.1219 38.8624 94.0503 38.5424 94.0672C37.8352 94.1092 37.0607 93.9619 36.4376 94.2019L36.2187 94.2903L35.9493 93.6167C35.9493 93.4736 35.9199 93.3263 35.9072 93.1958C35.2084 92.9895 34.5012 92.8001 33.8024 92.5727C32.047 91.9918 30.2958 91.4151 28.5488 90.8258L28.8645 89.8828C28.9261 89.913 28.9894 89.9397 29.054 89.9628C31.4703 90.6953 33.8992 91.3688 36.2903 92.1686C36.7585 92.3543 37.2609 92.438 37.7639 92.414C38.267 92.3901 38.7592 92.259 39.2076 92.0297C39.53 91.951 39.865 91.9382 40.1926 91.9918Z" fill="#180551"/>
<path d="M38.5135 116.129C38.644 116.163 38.7198 116.398 38.9344 116.727C38.404 117.253 37.8862 117.766 37.36 118.28C37.2295 118.099 36.9391 117.859 36.9812 117.754C37.2576 117.222 37.5772 116.714 37.9368 116.234C38.0179 116.173 38.1123 116.131 38.2125 116.113C38.3127 116.094 38.4158 116.1 38.5135 116.129Z" fill="#4D3826"/>
<path d="M37.5367 100.077C37.5367 100.152 37.5746 100.232 37.5956 100.312C36.0409 101.474 34.4875 102.636 32.9356 103.798L32.603 103.68C32.7546 102.548 32.8809 101.407 33.0871 100.283C33.1355 100.151 33.2152 100.033 33.3194 99.9396C33.4235 99.8457 33.549 99.7786 33.6849 99.7441C34.973 99.8157 36.257 99.9588 37.5367 100.077Z" fill="#F79221"/>
<path d="M35.1119 88.1768L35.1793 89.2376C33.4421 89.3498 31.7049 89.4607 29.9678 89.5701C29.5468 89.5954 29.1258 89.5701 28.7049 89.5701C28.7049 89.6333 28.7049 89.7006 28.6754 89.7638C28.7416 89.7927 28.8062 89.825 28.8691 89.8606L28.5533 90.8036C27.0519 90.3012 25.5491 89.7932 24.0448 89.2797C23.7965 89.1955 23.6239 88.8292 23.4429 88.5977C23.7524 88.4171 24.0917 88.2931 24.4448 88.2315C25.1604 88.2315 25.8718 88.463 26.5875 88.4462C29.3447 88.3957 32.102 88.2778 35.1119 88.1768Z" fill="#180551"/>
<path d="M31.8117 79.0906L31.6391 80.0377L29.1133 79.5705L28.8944 79.8567L28.1619 80.484C27.9599 80.244 27.741 80.0083 27.5473 79.7683C27.2199 79.4221 26.924 79.0474 26.6633 78.6486C26.5494 78.3692 26.4798 78.0738 26.457 77.773C26.8148 77.7267 27.2695 77.512 27.5136 77.6593C28.8513 78.3848 30.3061 78.8692 31.8117 79.0906Z" fill="#180551"/>
<path d="M30.4689 105.687L31.054 106.474L29.1934 107.85L28.583 107.008C28.9039 106.696 29.2599 106.422 29.6438 106.192C29.932 106.046 30.2079 105.877 30.4689 105.687Z" fill="#180551"/>
<path d="M29.1479 107.886L29.3078 108.218L29.0931 109.262C28.3059 109.262 27.5061 109.473 26.8452 108.635C27.4346 108.088 27.9986 107.545 28.5838 107.027L29.1942 107.869L29.1479 107.886Z" fill="#180551"/>
<path d="M20.2478 136.153C20.4877 135.993 20.9171 136.107 21.2623 136.098C21.2394 136.411 21.1699 136.719 21.056 137.012C20.9339 137.231 20.635 137.348 20.4119 137.513L20.2225 137.361C20.3151 137.163 20.4119 136.97 20.5088 136.772C20.4793 136.747 20.454 136.713 20.4246 136.688C20.2688 136.873 20.0036 137.037 19.9783 137.243C19.7468 138.506 17.8735 140.089 16.6822 140.219C16.1644 140.278 15.3604 140.712 15.2804 141.095C15.0278 142.324 14.1017 142.779 13.2177 143.297C12.7968 143.553 12.3253 143.751 11.8033 144.017C11.7382 143.709 11.7691 143.389 11.8918 143.1C12.0146 142.811 12.2232 142.567 12.4895 142.4C14.3206 141.074 16.0634 139.63 17.8651 138.262C18.2965 137.997 18.7535 137.775 19.229 137.601L18.7239 137.508C19.1979 137.02 19.7073 136.567 20.2478 136.153Z" fill="#180551"/>
<path d="M15.584 141.701C15.584 140.826 15.9208 140.362 17.0068 140.497L15.584 141.701Z" fill="#4D3826"/>
<path d="M162.4 15.2027C163.2 17.1271 162.715 18.9976 161.187 20.5255C162.115 22.2459 162.65 24.051 161.988 26.0023C161.791 26.6207 161.473 27.1937 161.053 27.688C160.049 28.8219 158.676 29.5625 157.177 29.7779C156.266 29.8852 155.38 30.1454 154.556 30.5476C153.336 31.148 152.135 30.7362 151.011 30.1858C150.793 30.0772 150.552 30.0236 150.308 30.0296C150.065 30.0357 149.826 30.1012 149.614 30.2205C148.057 30.9548 146.449 31.576 144.803 32.0794C143.782 32.2914 142.725 32.2505 141.724 31.9601C140.4 31.6176 139.157 30.9864 137.906 30.4899L134.796 42.2247L134.966 42.5364C136.74 42.2593 138.514 41.9707 140.292 41.7166C140.607 41.7062 140.923 41.7321 141.232 41.7936C141.226 42.084 141.163 42.3703 141.047 42.6365C139.831 44.3607 138.58 46.0619 137.329 47.763C136.244 49.2448 135.178 50.7342 134.054 52.1852C132.553 54.1288 130.975 56.0339 129.474 57.9583C129.004 58.5549 128.635 59.2322 128.138 59.8019C127.961 60.0097 127.545 60.0097 127.234 60.1059C127.26 59.8134 127.317 59.5245 127.403 59.2438C127.626 58.7165 127.93 58.2277 128.173 57.7043C129.879 53.8786 131.578 50.0479 133.269 46.212C133.338 46.0503 133.38 45.8733 133.461 45.6193C132.784 45.6847 132.172 45.7925 131.56 45.7886C130.934 45.7913 130.309 45.728 129.697 45.6C128.927 45.4307 128.735 45.065 129.097 44.3453C130.086 42.3786 131.125 40.4427 132.125 38.4837C133.172 36.4311 134.209 34.3784 135.235 32.3257C135.543 31.7022 135.839 31.071 136.186 30.359C134.427 30.2474 132.749 30.1166 131.644 28.5925C128.181 30.7939 123.562 30.4129 120.333 27.053C120.056 28.4616 119.736 29.7471 119.563 31.0441C119.463 31.8754 119.786 32.0679 120.656 32.1564C122.115 32.3026 123.57 32.5105 125.025 32.6683C125.517 32.7183 126.025 32.6375 126.514 32.7106C126.856 32.7394 127.175 32.8928 127.411 33.1417C127.507 33.2879 127.265 33.7729 127.053 33.9845C125.983 35.0429 124.878 36.0629 123.781 37.0943C122.627 38.172 121.472 39.2766 120.318 40.3234C118.678 41.7667 117.023 43.1907 115.333 44.5763C114.831 44.9282 114.283 45.2104 113.705 45.4153C113.532 45.4884 113.29 45.396 113.074 45.3806C113.075 45.1881 113.108 44.9969 113.17 44.8149C114.379 42.648 115.607 40.4889 116.831 38.3298C117.189 37.7024 117.554 37.0789 117.87 36.5362C116.604 36.5362 115.376 36.594 114.16 36.5093C113.485 36.4 112.823 36.226 112.181 35.9897C112.362 35.3836 112.594 34.7939 112.874 34.227C114.491 31.4675 116.157 28.7387 117.804 25.9907C117.842 25.9053 117.87 25.8163 117.889 25.7252C116.938 25.7252 116.019 25.7675 115.103 25.7252C112.874 25.5943 111.065 24.5898 110.08 22.5961C109.394 21.2167 108.949 19.7302 108.764 18.2009C108.529 16.0032 109.649 14.8409 111.804 14.5138C111.804 13.9711 111.77 13.4361 111.804 12.9012C111.962 10.5496 113.205 8.72914 114.664 6.99721C116.396 4.94968 118.536 3.49486 121.153 3.01377C122.935 2.69432 124.801 2.81363 125.894 4.38392C127.788 3.37555 129.52 2.1632 131.437 1.49352C135.47 0.0848822 139.477 0.208041 142.94 3.0715C143.741 3.72963 144.357 3.81046 145.307 3.75657C149.714 3.50256 153.805 4.43395 157.204 7.44751C157.786 8.00486 158.284 8.64404 158.682 9.34494C158.786 9.47901 158.859 9.6344 158.896 9.80005C158.934 9.96569 158.934 10.1375 158.897 10.3033C158.86 10.469 158.788 10.6246 158.684 10.759C158.58 10.8934 158.448 11.0032 158.297 11.0807C159.22 11.4606 160.059 12.0209 160.763 12.7286C161.468 13.4364 162.024 14.2775 162.4 15.2027ZM161.799 17.2156C161.969 14.6947 159.925 12.2815 157.269 11.7042C156.872 11.5808 156.485 11.4238 156.115 11.2347C156.456 11.02 156.813 10.8334 157.185 10.6766C158.035 10.3995 158.301 9.99922 157.762 9.31415C157.046 8.402 156.28 7.38978 155.306 6.82786C151.777 4.74185 147.994 3.74888 143.879 4.9035C143.727 4.90767 143.575 4.87889 143.434 4.81913C143.293 4.75936 143.167 4.67 143.064 4.55711C142.625 4.11066 142.348 3.46407 141.847 3.11768C139.238 1.32417 136.297 1.12789 133.315 1.72444C130.832 2.21708 128.696 3.51026 126.772 5.14597C126.118 5.70403 125.837 5.6617 125.305 4.98432C125.087 4.66256 124.81 4.38451 124.49 4.16454C123.926 3.82481 123.293 3.61563 122.637 3.55237C121.982 3.4891 121.321 3.57334 120.702 3.79891C117.685 4.93044 115.16 6.78553 113.59 9.65284C112.666 11.3424 111.827 13.1513 113.163 15.2066C112.919 15.2497 112.671 15.2678 112.424 15.2604C110.711 15.018 109.607 15.8955 109.449 17.6274C109.299 19.2631 109.834 20.7487 110.569 22.1458C111.017 22.8692 111.576 23.5185 112.224 24.0702C113.398 25.2017 114.941 25.2479 116.43 25.2479C117.566 25.2479 118.616 24.9246 119.213 23.7431C119.619 22.9805 120.096 22.2577 120.637 21.5839C120.791 21.3876 121.183 21.3684 121.468 21.2683C121.557 21.5493 121.78 21.861 121.722 22.1112C121.464 23.2658 121.103 24.4204 120.845 25.6097C120.806 25.7786 120.802 25.9536 120.833 26.1241C120.863 26.2947 120.927 26.4575 121.022 26.6027C123.616 29.647 128.084 29.8202 130.809 28.0036C131.579 27.4994 132.048 27.5918 132.549 28.1999C133.249 29.062 134.192 29.3545 135.243 29.4815C136.444 29.6162 136.652 29.4815 137.167 28.3731C137.417 27.9393 137.704 27.5285 138.026 27.1453L138.322 27.2723C138.351 27.5358 138.351 27.8017 138.322 28.0652C138.029 29.3045 137.995 29.57 139.115 30.1089C140.378 30.6571 141.69 31.0862 143.033 31.3905C143.59 31.5365 144.177 31.5218 144.726 31.3482C146.424 30.7478 148.071 30.0049 149.764 29.3891C150.185 29.2236 150.652 29.2236 151.073 29.3891C152.632 30.2205 154.098 30.3282 155.557 29.189C155.707 29.0697 156.003 29.1274 156.23 29.112C156.477 29.1386 156.726 29.1256 156.969 29.0736C157.627 28.8118 158.247 28.4693 158.893 28.2153C162.007 26.9952 161.857 22.9656 160.433 20.9566C160.333 20.8142 160.148 20.7295 160.025 20.6025C159.902 20.4755 159.759 20.2676 159.64 20.1021C159.836 19.9982 160.025 19.902 160.229 19.7904C160.571 19.5903 161.06 19.4556 161.218 19.1515C161.541 18.5525 161.739 17.8937 161.799 17.2156ZM140.073 42.6711L139.249 42.775C137.772 42.9251 136.297 43.1099 134.816 43.2177C134.015 43.2715 133.615 42.8328 133.788 42.1285C134.258 40.2503 134.744 38.3747 135.247 36.5016C135.535 35.4317 135.866 34.3694 136.17 33.3033L136.063 33.2687L129.97 44.7725C130.032 44.8457 130.093 44.9226 130.151 44.9996C130.559 44.9996 130.967 44.9996 131.371 44.9996C132.233 44.965 133.095 44.8495 133.954 44.8803C135.05 44.9226 135.143 45.0997 134.681 46.1196C133.807 48.044 132.884 49.9683 131.987 51.8927C131.544 52.878 131.152 53.894 130.736 54.8986C130.771 54.9074 130.804 54.9203 130.836 54.9371C133.884 50.8843 136.917 46.8586 140.073 42.6711ZM114.999 43.4409C118.767 40.3619 122.569 37.3406 125.867 33.692C124.005 33.4842 122.223 33.2648 120.437 33.0839C118.855 32.9223 118.308 32.2911 118.478 30.7208C118.52 30.3049 118.589 29.8922 118.686 29.4854C118.932 28.4655 119.225 27.4571 119.455 26.441C119.49 26.1174 119.49 25.7909 119.455 25.4673L119.248 25.4403C117.269 28.808 115.283 32.1679 113.244 35.6279C114.144 35.6741 114.895 35.7704 115.641 35.7357C116.634 35.6895 117.616 35.5163 118.605 35.4355C119.263 35.3855 119.509 35.7857 119.205 36.3708C118.901 36.9558 118.578 37.5254 118.239 38.0796C117.172 39.8603 116.093 41.6422 115.002 43.4255L114.999 43.4409Z" fill="#180551"/>
<path d="M157.269 11.7084C159.924 12.2857 161.968 14.6988 161.799 17.2197C161.732 17.895 161.529 18.5497 161.202 19.1441C161.044 19.4482 160.556 19.5829 160.213 19.783C160.021 19.8946 159.828 19.9908 159.624 20.0947C159.751 20.2602 159.87 20.4373 160.009 20.5951C160.148 20.7529 160.317 20.8068 160.417 20.9492C161.845 22.9582 161.995 26.9878 158.877 28.2079C158.219 28.4619 157.6 28.8044 156.953 29.0661C156.71 29.1182 156.461 29.1312 156.214 29.1046C155.987 29.1046 155.691 29.0623 155.541 29.1816C154.082 30.3362 152.616 30.2131 151.057 29.3817C150.636 29.2162 150.169 29.2162 149.748 29.3817C148.055 29.9975 146.408 30.7403 144.71 31.3407C144.161 31.5144 143.574 31.529 143.017 31.3831C141.674 31.0788 140.362 30.6497 139.099 30.1015C137.979 29.5626 138.013 29.2971 138.306 28.0578C138.335 27.7943 138.335 27.5284 138.306 27.2649L138.01 27.1379C137.688 27.5211 137.401 27.9319 137.151 28.3657C136.639 29.4549 136.432 29.6088 135.227 29.4741C134.184 29.3548 133.241 29.0546 132.533 28.1925C132.033 27.5844 131.555 27.492 130.793 27.9962C128.068 29.8128 123.6 29.6396 121.006 26.5953C120.911 26.45 120.847 26.2873 120.817 26.1167C120.786 25.9462 120.79 25.7712 120.829 25.6023C121.087 24.4477 121.449 23.293 121.706 22.1038C121.764 21.8536 121.541 21.5419 121.452 21.2609C121.168 21.361 120.775 21.3802 120.621 21.5765C120.08 22.2502 119.603 22.9731 119.197 23.7356C118.6 24.9172 117.55 25.2405 116.414 25.2405C114.925 25.2405 113.382 25.1943 112.208 24.0628C111.56 23.5111 111.001 22.8618 110.553 22.1384C109.825 20.7413 109.283 19.2557 109.433 17.62C109.591 15.8881 110.695 15.0106 112.408 15.253C112.655 15.2604 112.903 15.2423 113.147 15.1992C111.811 13.1439 112.65 11.3504 113.574 9.64543C115.144 6.77813 117.669 4.92304 120.686 3.79151C121.305 3.56594 121.966 3.48169 122.622 3.54496C123.277 3.60823 123.91 3.8174 124.474 4.15714C124.794 4.37711 125.071 4.65515 125.29 4.97692C125.821 5.65429 126.102 5.69663 126.756 5.13857C128.68 3.50285 130.824 2.20968 133.299 1.71704C136.282 1.12049 139.222 1.33217 141.831 3.11028C142.332 3.45667 142.601 4.10325 143.048 4.54971C143.151 4.66259 143.277 4.75196 143.418 4.81172C143.559 4.87149 143.711 4.90026 143.864 4.89609C147.982 3.74147 151.761 4.74215 155.29 6.82046C156.264 7.39777 157.03 8.39459 157.746 9.30674C158.285 9.99182 158.019 10.3921 157.169 10.6692C156.797 10.826 156.44 11.0126 156.099 11.2273C156.474 11.4211 156.866 11.5821 157.269 11.7084Z" fill="#9B9B9B"/>
<path d="M139.25 42.7757L140.081 42.6833C136.925 46.8707 133.893 50.8965 130.844 54.9223C130.813 54.9055 130.779 54.8926 130.744 54.8838C131.16 53.8793 131.553 52.8632 131.995 51.8779C132.877 49.9536 133.8 48.0292 134.689 46.1048C135.151 45.0849 135.074 44.9079 133.962 44.8655C133.104 44.8347 132.242 44.9502 131.379 44.9849C130.975 44.9849 130.567 44.9849 130.159 44.9849C130.102 44.9079 130.04 44.8309 129.979 44.7578L136.071 33.2539L136.179 33.2885C135.875 34.3546 135.544 35.4169 135.255 36.4868C134.755 38.3625 134.269 40.2381 133.796 42.1137C133.623 42.8103 134.024 43.2683 134.824 43.2029C136.29 43.099 137.765 42.9142 139.25 42.7757Z" fill="#FFFF0D"/>
<path d="M125.867 33.6775C122.569 37.3261 118.766 40.3473 114.998 43.4263C116.086 41.6302 117.173 39.8431 118.258 38.065C118.597 37.5031 118.924 36.9374 119.224 36.3562C119.525 35.775 119.282 35.3709 118.624 35.4209C117.635 35.5018 116.653 35.675 115.66 35.7211C114.914 35.7558 114.163 35.6596 113.263 35.6134C115.303 32.1495 117.288 28.7934 119.267 25.4258L119.475 25.4527C119.509 25.7764 119.509 26.1028 119.475 26.4265C119.236 27.4425 118.943 28.4509 118.705 29.4708C118.608 29.8776 118.539 30.2903 118.497 30.7062C118.328 32.2765 118.882 32.9077 120.456 33.0694C122.223 33.2503 124.005 33.4696 125.867 33.6775Z" fill="#FFFF0D"/>
</svg>
