<svg width="55" height="61" viewBox="0 0 55 61" fill="none" xmlns="http://www.w3.org/2000/svg">
<path d="M54.3996 15.2027C55.2001 17.1271 54.7152 18.9976 53.1873 20.5255C54.1148 22.2459 54.6498 24.051 53.9878 26.0023C53.7909 26.6207 53.473 27.1937 53.0525 27.688C52.0491 28.8219 50.6756 29.5625 49.1769 29.7779C48.2661 29.8852 47.38 30.1454 46.5559 30.5476C45.3358 31.148 44.135 30.7362 43.0112 30.1858C42.7932 30.0772 42.5519 30.0236 42.3084 30.0296C42.0648 30.0357 41.8265 30.1012 41.6141 30.2205C40.0572 30.9548 38.4494 31.576 36.8032 32.0794C35.7825 32.2914 34.7254 32.2505 33.7242 31.9601C32.4002 31.6176 31.1571 30.9864 29.9063 30.4899L26.7965 42.2247L26.9658 42.5364C28.7401 42.2593 30.5144 41.9707 32.2925 41.7166C32.6074 41.7062 32.9225 41.7321 33.2316 41.7936C33.2257 42.084 33.1629 42.3703 33.0468 42.6365C31.8306 44.3607 30.5798 46.0619 29.329 47.763C28.2436 49.2448 27.1775 50.7342 26.0537 52.1852C24.5527 54.1288 22.9747 56.0339 21.4737 57.9583C21.0041 58.5549 20.6347 59.2322 20.1382 59.8019C19.9611 60.0097 19.5455 60.0097 19.2337 60.1059C19.2601 59.8134 19.3169 59.5245 19.4031 59.2438C19.6263 58.7165 19.9303 58.2277 20.1728 57.7043C21.8791 53.8786 23.5777 50.0479 25.2685 46.212C25.3378 46.0503 25.3801 45.8733 25.461 45.6193C24.7836 45.6847 24.1716 45.7925 23.5597 45.7886C22.9339 45.7913 22.3095 45.728 21.6969 45.6C20.9272 45.4307 20.7347 45.065 21.0965 44.3453C22.0856 42.3786 23.1248 40.4427 24.1255 38.4837C25.1723 36.4311 26.2089 34.3784 27.2352 32.3257C27.5431 31.7022 27.8395 31.071 28.1859 30.359C26.427 30.2474 24.7489 30.1166 23.6444 28.5925C20.1805 30.7939 15.562 30.4129 12.3329 27.053C12.0558 28.4616 11.7364 29.7471 11.5632 31.0441C11.4631 31.8754 11.7864 32.0679 12.6562 32.1564C14.1149 32.3026 15.5697 32.5105 17.0245 32.6683C17.5172 32.7183 18.0252 32.6375 18.514 32.7106C18.8557 32.7394 19.1749 32.8928 19.4108 33.1417C19.507 33.2879 19.2645 33.7729 19.0528 33.9845C17.9829 35.0429 16.8783 36.0629 15.7814 37.0943C14.6268 38.172 13.4722 39.2766 12.3175 40.3234C10.678 41.7667 9.02302 43.1907 7.33343 44.5763C6.83114 44.9282 6.28349 45.2104 5.70541 45.4153C5.53222 45.4884 5.28975 45.396 5.07422 45.3806C5.07511 45.1881 5.10761 44.9969 5.17044 44.8149C6.37894 42.648 7.60669 40.4889 8.83059 38.3298C9.18852 37.7024 9.55415 37.0789 9.86974 36.5362C8.60351 36.5362 7.37576 36.594 6.15956 36.5093C5.485 36.4 4.82253 36.226 4.18131 35.9897C4.36198 35.3836 4.59374 34.7939 4.87409 34.227C6.49056 31.4675 8.15706 28.7387 9.80431 25.9907C9.84159 25.9053 9.86997 25.8163 9.88899 25.7252C8.93835 25.7252 8.0185 25.7675 7.1025 25.7252C4.87408 25.5943 3.06518 24.5898 2.07991 22.5961C1.39396 21.2167 0.948788 19.7302 0.763635 18.2009C0.528862 16.0032 1.64885 14.8409 3.80414 14.5138C3.80414 13.9711 3.7695 13.4361 3.80414 12.9012C3.96194 10.5496 5.20508 8.72914 6.66375 6.99721C8.39568 4.94968 10.5356 3.49486 13.1527 3.01377C14.9347 2.69432 16.8013 2.81363 17.8944 4.38392C19.7879 3.37555 21.5199 2.1632 23.4365 1.49352C27.47 0.0848822 31.4765 0.208041 34.9404 3.0715C35.7409 3.72963 36.3567 3.81046 37.3074 3.75657C41.7142 3.50256 45.8054 4.43395 49.2038 7.44751C49.786 8.00486 50.2838 8.64404 50.6817 9.34494C50.7859 9.47901 50.8592 9.6344 50.8965 9.80005C50.9337 9.96569 50.9339 10.1375 50.8972 10.3033C50.8604 10.469 50.7876 10.6246 50.6838 10.759C50.5801 10.8934 50.4479 11.0032 50.2969 11.0807C51.2203 11.4606 52.0588 12.0209 52.7633 12.7286C53.4677 13.4364 54.024 14.2775 54.3996 15.2027ZM53.7992 17.2156C53.9685 14.6947 51.9249 12.2815 49.2692 11.7042C48.8717 11.5808 48.4854 11.4238 48.1146 11.2347C48.4556 11.02 48.8134 10.8334 49.1846 10.6766C50.0351 10.3995 50.3007 9.99922 49.7619 9.31415C49.046 8.402 48.2801 7.38978 47.3064 6.82786C43.7771 4.74185 39.9938 3.74888 35.8795 4.9035C35.7266 4.90767 35.5746 4.87889 35.4338 4.81913C35.293 4.75936 35.1668 4.67 35.0636 4.55711C34.6248 4.11066 34.3477 3.46407 33.8474 3.11768C31.2379 1.32417 28.2975 1.12789 25.3147 1.72444C22.8323 2.21708 20.6962 3.51026 18.7719 5.14597C18.1176 5.70403 17.8366 5.6617 17.3055 4.98432C17.087 4.66256 16.8103 4.38451 16.4896 4.16454C15.9256 3.82481 15.2928 3.61563 14.6374 3.55237C13.9821 3.4891 13.3209 3.57334 12.7024 3.79891C9.685 4.93044 7.16024 6.78553 5.58995 9.65284C4.66626 11.3424 3.82723 13.1513 5.16274 15.2066C4.91891 15.2497 4.6713 15.2678 4.42379 15.2604C2.7111 15.018 1.60651 15.8955 1.44872 17.6274C1.29861 19.2631 1.83358 20.7487 2.56869 22.1458C3.0172 22.8692 3.57553 23.5185 4.22365 24.0702C5.39751 25.2017 6.94086 25.2479 8.43032 25.2479C9.5657 25.2479 10.6164 24.9246 11.213 23.7431C11.6193 22.9805 12.096 22.2577 12.637 21.5839C12.7909 21.3876 13.1835 21.3684 13.4683 21.2683C13.5568 21.5493 13.7801 21.861 13.7223 22.1112C13.4645 23.2658 13.1027 24.4204 12.8448 25.6097C12.8063 25.7786 12.8021 25.9536 12.8325 26.1241C12.863 26.2947 12.9273 26.4575 13.0219 26.6027C15.6159 29.647 20.0843 29.8202 22.8092 28.0036C23.5789 27.4994 24.0485 27.5918 24.5488 28.1999C25.2493 29.062 26.1922 29.3545 27.2429 29.4815C28.4437 29.6162 28.6516 29.4815 29.1673 28.3731C29.4166 27.9393 29.7039 27.5285 30.0256 27.1453L30.3219 27.2723C30.3509 27.5358 30.3509 27.8017 30.3219 28.0652C30.0294 29.3045 29.9948 29.57 31.1148 30.1089C32.378 30.6571 33.6897 31.0862 35.0328 31.3905C35.5899 31.5365 36.177 31.5218 36.7262 31.3482C38.4235 30.7478 40.0708 30.0049 41.7642 29.3891C42.1847 29.2236 42.6523 29.2236 43.0728 29.3891C44.6315 30.2205 46.0979 30.3282 47.5566 29.189C47.7067 29.0697 48.003 29.1274 48.2301 29.112C48.4769 29.1386 48.7263 29.1256 48.969 29.0736C49.6272 28.8118 50.2468 28.4693 50.8934 28.2153C54.007 26.9952 53.8569 22.9656 52.4329 20.9566C52.3328 20.8142 52.1481 20.7295 52.0249 20.6025C51.9018 20.4755 51.7594 20.2676 51.6401 20.1021C51.8364 19.9982 52.0249 19.902 52.2289 19.7904C52.5715 19.5903 53.0602 19.4556 53.218 19.1515C53.5414 18.5525 53.7392 17.8937 53.7992 17.2156ZM32.0731 42.6711L31.2495 42.775C29.7716 42.9251 28.2975 43.1099 26.8157 43.2177C26.0152 43.2715 25.6149 42.8328 25.7881 42.1285C26.2577 40.2503 26.7439 38.3747 27.2468 36.5016C27.5354 35.4317 27.8664 34.3694 28.1705 33.3033L28.0627 33.2687L21.9702 44.7725C22.0318 44.8457 22.0933 44.9226 22.1511 44.9996C22.559 44.9996 22.967 44.9996 23.3711 44.9996C24.2332 44.965 25.0953 44.8495 25.9536 44.8803C27.0505 44.9226 27.1429 45.0997 26.681 46.1196C25.8074 48.044 24.8837 49.9683 23.9869 51.8927C23.5443 52.878 23.1517 53.894 22.7361 54.8986C22.7708 54.9074 22.8044 54.9203 22.8361 54.9371C25.8843 50.8843 28.9171 46.8586 32.0731 42.6711ZM6.99859 43.4409C10.7665 40.3619 14.5691 37.3406 17.8674 33.692C16.0046 33.4842 14.2227 33.2648 12.4368 33.0839C10.855 32.9223 10.3085 32.2911 10.4778 30.7208C10.5199 30.3049 10.5893 29.8922 10.6857 29.4854C10.932 28.4655 11.2245 27.4571 11.4554 26.441C11.4901 26.1174 11.4901 25.7909 11.4554 25.4673L11.2476 25.4403C9.26934 28.808 7.28339 32.1679 5.24356 35.6279C6.14417 35.6741 6.89467 35.7704 7.64133 35.7357C8.6343 35.6895 9.61572 35.5163 10.6048 35.4355C11.263 35.3855 11.5093 35.7857 11.2053 36.3708C10.9012 36.9558 10.5779 37.5254 10.2392 38.0796C9.17184 39.8603 8.09291 41.6422 7.00244 43.4255L6.99859 43.4409Z" fill="#180551"/>
<path d="M49.2687 11.7084C51.9243 12.2857 53.968 14.6988 53.7987 17.2197C53.7324 17.895 53.5294 18.5497 53.2021 19.1441C53.0443 19.4482 52.5555 19.5829 52.213 19.783C52.0205 19.8946 51.8281 19.9908 51.6241 20.0947C51.7511 20.2602 51.8704 20.4373 52.009 20.5951C52.1476 20.7529 52.3169 20.8068 52.417 20.9492C53.8448 22.9582 53.9949 26.9878 50.8775 28.2079C50.2193 28.4619 49.5997 28.8044 48.9531 29.0661C48.7104 29.1182 48.4609 29.1312 48.2141 29.1046C47.9871 29.1046 47.6907 29.0623 47.5406 29.1816C46.082 30.3362 44.6156 30.2131 43.0569 29.3817C42.6364 29.2162 42.1688 29.2162 41.7483 29.3817C40.0548 29.9975 38.4076 30.7403 36.7103 31.3407C36.1611 31.5144 35.574 31.529 35.0168 31.3831C33.6738 31.0788 32.3621 30.6497 31.0988 30.1015C29.9788 29.5626 30.0135 29.2971 30.306 28.0578C30.3349 27.7943 30.3349 27.5284 30.306 27.2649L30.0096 27.1379C29.6879 27.5211 29.4007 27.9319 29.1514 28.3657C28.6395 29.4549 28.4317 29.6088 27.227 29.4741C26.184 29.3548 25.2411 29.0546 24.5329 28.1925C24.0326 27.5844 23.5553 27.492 22.7933 27.9962C20.0684 29.8128 15.6 29.6396 13.0059 26.5953C12.9114 26.45 12.847 26.2873 12.8166 26.1167C12.7862 25.9462 12.7904 25.7712 12.8289 25.6023C13.0868 24.4477 13.4485 23.293 13.7064 22.1038C13.7641 21.8536 13.5409 21.5419 13.4524 21.2609C13.1676 21.361 12.775 21.3802 12.6211 21.5765C12.0801 22.2502 11.6033 22.9731 11.197 23.7356C10.6005 24.9172 9.54977 25.2405 8.4144 25.2405C6.92494 25.2405 5.3816 25.1943 4.20773 24.0628C3.55961 23.5111 3.00128 22.8618 2.55278 22.1384C1.82537 20.7413 1.28269 19.2557 1.43279 17.62C1.59059 15.8881 2.69518 15.0106 4.40786 15.253C4.65538 15.2604 4.90299 15.2423 5.14682 15.1992C3.81131 13.1439 4.65033 11.3504 5.57403 9.64543C7.14431 6.77813 9.66908 4.92304 12.6865 3.79151C13.305 3.56594 13.9662 3.48169 14.6215 3.54496C15.2768 3.60823 15.9097 3.8174 16.4736 4.15714C16.7944 4.37711 17.0711 4.65515 17.2896 4.97692C17.8207 5.65429 18.1017 5.69663 18.7559 5.13857C20.6803 3.50285 22.8241 2.20968 25.2988 1.71704C28.2816 1.12049 31.222 1.33217 33.8314 3.11028C34.3318 3.45667 34.6012 4.10325 35.0476 4.54971C35.1508 4.66259 35.2771 4.75196 35.4179 4.81172C35.5587 4.87149 35.7107 4.90026 35.8636 4.89609C39.9817 3.74147 43.7612 4.74215 47.2905 6.82046C48.2642 7.39777 49.0301 8.39459 49.7459 9.30674C50.2848 9.99182 50.0192 10.3921 49.1686 10.6692C48.7975 10.826 48.4397 11.0126 48.0987 11.2273C48.4741 11.4211 48.8655 11.5821 49.2687 11.7084Z" fill="#9B9B9B"/>
<path d="M31.2501 42.7757L32.0814 42.6833C28.9255 46.8707 25.8927 50.8965 22.8445 54.9223C22.8128 54.9055 22.7792 54.8926 22.7444 54.8838C23.1601 53.8793 23.5526 52.8632 23.9952 51.8779C24.8766 49.9536 25.8003 48.0292 26.6894 46.1048C27.1512 45.0849 27.0742 44.9079 25.962 44.8655C25.1037 44.8347 24.2416 44.9502 23.3794 44.9849C22.9753 44.9849 22.5674 44.9849 22.1594 44.9849C22.1017 44.9079 22.0401 44.8309 21.9785 44.7578L28.0711 33.2539L28.1788 33.2885C27.8748 34.3546 27.5438 35.4169 27.2551 36.4868C26.7548 38.3625 26.2686 40.2381 25.7965 42.1137C25.6233 42.8103 26.0235 43.2683 26.8241 43.2029C28.2904 43.099 29.7645 42.9142 31.2501 42.7757Z" fill="#FFFF0D"/>
<path d="M17.8673 33.6775C14.5689 37.3261 10.7664 40.3473 6.99848 43.4263C8.08639 41.6302 9.17301 39.8431 10.2584 38.065C10.597 37.5031 10.9242 36.9374 11.2244 36.3562C11.5246 35.775 11.2821 35.3709 10.624 35.4209C9.63486 35.5018 8.65343 35.675 7.66046 35.7211C6.91381 35.7558 6.1633 35.6596 5.2627 35.6134C7.30252 32.1495 9.28847 28.7934 11.2667 25.4258L11.4746 25.4527C11.5092 25.7764 11.5092 26.1028 11.4746 26.4265C11.2359 27.4425 10.9434 28.4509 10.7048 29.4708C10.6085 29.8776 10.539 30.2903 10.497 30.7062C10.3276 32.2765 10.8819 32.9077 12.456 33.0694C14.2226 33.2503 16.0045 33.4696 17.8673 33.6775Z" fill="#FFFF0D"/>
</svg>
