<svg width="167" height="93" viewBox="0 0 167 93" fill="none" xmlns="http://www.w3.org/2000/svg">
<path d="M165.943 63.2523C165.99 63.366 166.032 63.4796 166.078 63.5975C165.324 63.9511 164.584 64.351 163.809 64.6541C163.485 64.7762 163.165 64.8983 162.837 65.0162C160.408 65.8581 157.894 66.3674 155.306 66.0138C150.254 65.3277 145.459 64.0269 141.262 60.9076C139.722 59.7584 137.895 59.0048 136.181 58.0745C135.8 57.8636 135.365 57.7681 134.93 57.7995C134.495 57.8309 134.079 57.9878 133.731 58.2513C132.111 59.3121 130.553 60.4782 128.882 61.4464C127.232 62.4191 125.509 63.2635 123.729 63.9722C122.946 64.2837 121.949 64.0816 121.048 64.0564C120.896 64.0564 120.753 63.787 120.602 63.6354C120.795 63.4965 120.968 63.2734 121.178 63.2397C121.928 63.1092 122.702 63.1092 123.435 62.9408C124.129 62.7776 124.781 62.4713 125.35 62.0415C125.919 61.6116 126.392 61.0677 126.739 60.4445L126.979 60.0446L127.758 60.5455L127.611 60.7729L127.783 60.9665C128.415 60.5455 129.046 60.1246 129.686 59.6784C130.528 59.089 131.37 58.5123 132.178 57.8935C134.148 56.4033 136.164 56.5969 138.164 57.7672C140.012 58.8449 141.856 59.9352 143.611 61.1349C145.906 62.7177 148.524 63.3828 151.138 64.1069C153.361 64.7173 155.63 65.2393 157.928 64.9488C159.58 64.7185 161.218 64.4023 162.837 64.0016C163.38 63.8796 163.927 63.7533 164.474 63.6396C165.021 63.526 165.447 63.3913 165.943 63.2523Z" fill="#180551"/>
<path d="M138.251 44.9067C139.194 45.3276 139.211 45.9717 138.483 46.7084C138.334 46.8755 138.152 47.0101 137.948 47.1041C136.057 47.8738 133.99 48.1054 131.975 47.7734C131.575 47.7061 131.297 47.3525 130.758 47.5124C130.308 47.6387 129.984 47.1504 130.283 46.6916C130.573 46.2348 130.949 45.8388 131.39 45.5255C132.535 44.709 133.872 44.2042 135.271 44.0605C136.285 44.2657 137.281 44.5486 138.251 44.9067ZM137.83 45.7486C135.928 44.5194 132.526 45.4918 131.701 47.0409C133.873 47.0367 135.932 47.2051 137.847 45.7486H137.83Z" fill="#180551"/>
<path d="M131.718 47.0446C132.56 45.4955 135.928 44.5188 137.847 45.7522C135.932 47.2088 133.874 47.0404 131.718 47.0446Z" fill="#180551"/>
<path d="M126.532 50.1139C127.748 49.272 129.941 50.3497 129.899 52.0335C129.849 54.4204 130.131 56.8114 128.763 58.9625C128.43 59.493 128.089 60.0234 127.752 60.5496L126.974 60.0486C128.331 57.7828 128.931 55.1434 128.687 52.5134C128.527 50.7243 127.896 50.3286 126.38 51.2884C126.048 51.4947 125.719 51.7094 125.391 51.9283L124.907 51.2084L126.532 50.1139Z" fill="#180551"/>
<path d="M126.187 30.3647C126.89 31.8002 126.41 33.1809 125.888 34.5154C125.579 35.1785 125.189 35.8007 124.726 36.3676C124.217 37.0748 123.665 37.0412 123.105 36.3676C124.789 34.6838 125.454 32.7221 124.848 30.2721L125.299 29.4302C125.687 29.6385 125.999 29.9661 126.187 30.3647Z" fill="#180551"/>
<path d="M124.911 51.2096L125.395 51.9295C123.118 53.4633 120.948 55.1511 118.9 56.981C117.397 58.307 115.444 58.8795 113.491 59.2752C113.234 59.33 112.914 59.0732 112.624 58.9637V58.648C113.013 58.4045 113.439 58.2267 113.886 58.1218C115.873 57.9829 116.787 56.6695 117.254 55.0025C118.235 51.5127 119.039 48.0061 117.856 44.3732C117.704 43.7822 117.397 43.2423 116.967 42.8088C116.537 42.3753 116 42.0639 115.41 41.9064L115.566 40.9761C115.765 41.0193 115.961 41.0769 116.151 41.1487C118.003 41.8433 118.829 43.3292 119.355 45.131C119.888 46.994 119.961 48.9583 119.569 50.856C119.237 52.5946 118.77 54.3037 118.349 56.0802C119.161 55.4066 119.978 54.6447 120.874 54.0048C122.188 53.0282 123.552 52.1231 124.911 51.2096Z" fill="#180551"/>
<path d="M125.299 29.4158L124.848 30.2577C124.536 30.524 124.267 30.838 124.053 31.188C123.417 32.7877 122.832 34.4084 122.226 36.0207C122.141 36.2522 122.053 36.4795 121.965 36.7068C121.834 36.9526 121.676 37.1828 121.493 37.393C121.25 37.2112 121.038 36.9908 120.866 36.7405C120.771 36.5026 120.771 36.2375 120.866 35.9996C121.666 34.0253 122.386 32.0131 123.354 30.1062C123.429 29.9268 123.54 29.7652 123.681 29.6315C123.823 29.4979 123.99 29.3953 124.173 29.3303C124.356 29.2653 124.551 29.2393 124.745 29.254C124.939 29.2687 125.127 29.3238 125.299 29.4158Z" fill="#180551"/>
<path d="M124.849 30.2666C125.455 32.7166 124.79 34.6909 123.106 36.3621L122.226 36.0296C122.832 34.4173 123.417 32.7966 124.053 31.1969C124.268 30.8469 124.536 30.5329 124.849 30.2666Z" fill="#6712B2"/>
<path d="M122.668 83.6885C122.479 83.8738 122.327 84.1306 122.104 84.2274C120.471 84.9388 118.812 84.4294 117.208 84.1558C114.325 83.6675 111.668 82.472 109.063 81.1754C105.476 79.3863 101.751 78.2876 97.7177 79.4916C97.0653 79.681 96.497 80.1314 95.8613 80.3966C95.6003 80.5061 95.0952 80.5566 95.0194 80.4261C94.8594 80.1946 94.7794 79.6431 94.9268 79.5042C95.3457 79.0708 95.8646 78.747 96.438 78.5612C97.9787 78.1824 99.5531 77.9424 101.115 77.6436C104.651 77.7741 107.648 79.3274 110.658 80.8134C113.353 82.1342 116.263 82.9584 119.25 83.2465C120.163 83.3392 121.085 83.276 121.999 83.3392C122.222 83.3392 122.441 83.5623 122.668 83.6885Z" fill="#180551"/>
<path d="M116.943 34.62C117.103 36.2824 116.613 37.9422 115.575 39.2505C115.373 39.5073 114.918 39.8146 114.695 39.7431C114.515 39.6693 114.354 39.5549 114.226 39.4089C114.097 39.2628 114.004 39.0891 113.954 38.9012C113.571 37.0405 113.264 35.163 112.927 33.2939L113.045 33.2603C113.045 32.3047 113.007 31.3533 113.045 30.4019C113.078 29.7495 113.23 29.0928 114.025 28.9581C114.197 28.9143 114.376 28.9054 114.552 28.9319C114.727 28.9584 114.896 29.0197 115.047 29.1123C115.199 29.2049 115.33 29.3268 115.434 29.471C115.537 29.6151 115.611 29.7785 115.65 29.9515C116.13 31.5175 116.783 33.0456 116.943 34.62ZM114.838 38.1266C116.324 35.2598 115.764 32.7551 114.417 30.2841C114.155 32.9037 114.292 35.5478 114.821 38.1266H114.838Z" fill="#180551"/>
<path d="M115.541 40.9666L115.385 41.897C115.246 42.2052 115.137 42.5268 115.061 42.8568C114.716 45.7319 113.314 48.1651 111.883 50.5898C109.42 54.7615 105.99 58.0156 102.092 60.815C99.9025 62.3851 97.8314 64.1405 95.5582 65.5802C92.4263 67.5587 88.907 68.6532 85.2741 69.3142C81.6412 69.9751 78.0547 70.6318 74.4176 71.0654C73.5462 71.1664 72.6664 71.2085 71.7823 71.2253V70.9812C71.7823 70.9812 71.7066 70.6781 71.6182 70.1392C72.6706 70.1056 73.723 70.0382 74.767 69.9203C78.2146 69.5373 81.6497 68.9395 85.0552 68.2702C88.3808 67.6135 91.6938 66.7042 94.51 64.7552C98.0966 62.2715 101.498 59.5184 105.005 56.9084C106.334 55.9157 107.364 54.5757 107.981 53.0356C108.978 50.6488 109.665 48.1946 108.966 45.6309C109.761 45.7277 109.959 45.8456 110.006 45.9003C110.007 45.9072 110.007 45.9144 110.006 45.9213L110.557 45.8161C110.864 47.3867 110.789 49.008 110.338 50.5435C110.476 50.4462 110.599 50.33 110.704 50.1983C112.115 47.7315 113.58 45.2983 113.937 42.3853C114.089 41.1603 114.565 40.752 115.541 40.9666Z" fill="#180551"/>
<path d="M114.417 30.2974C115.747 32.7684 116.307 35.2731 114.838 38.1399C114.303 35.5619 114.161 32.9178 114.417 30.2974Z" fill="#2A0091"/>
<path d="M110.564 45.8085L110.013 45.9138C110.015 45.9069 110.015 45.8996 110.013 45.8927L107.487 41.2411C107.184 41.1485 106.894 41.0643 106.612 40.9885C106.335 40.6413 106.042 40.3083 105.732 39.9909C105.332 39.5699 105.092 39.0647 104.279 39.1489C102.301 39.3762 100.297 39.4226 98.3059 39.5699L98.247 38.85C99.3583 38.7616 100.47 38.6606 101.573 38.5259C103.501 38.2902 105.403 37.8566 107.319 37.5114C107.319 37.4104 107.298 37.3135 107.289 37.2167C107.179 37.1726 107.067 37.1346 106.952 37.1031C104.271 36.5263 101.594 35.9286 98.9037 35.3898C97.252 34.9999 95.5732 34.7353 93.8816 34.5983C92.4125 34.5352 92.3115 34.5983 92.4546 33.0113C92.8082 33.0113 93.1702 33.0113 93.5365 33.0113C94.3447 32.9819 95.2203 33.1292 95.9486 32.8682C98.5333 31.9589 101.072 30.9107 103.627 29.9215C103.796 29.8371 103.954 29.7325 104.098 29.61C100.108 29.3237 96.1296 29.0711 92.1599 28.7217C91.8882 28.6709 91.6078 28.6946 91.3484 28.7902C91.089 28.8858 90.8603 29.0498 90.6866 29.2648C90.4206 29.6197 90.058 29.8906 89.6423 30.0451C89.2265 30.1996 88.775 30.2312 88.3418 30.1362C90.9985 27.5701 93.3388 24.6956 95.3129 21.5738C95.0024 21.6221 94.6947 21.6867 94.391 21.7675L94.1595 20.9718C94.7151 20.8035 95.275 20.6435 95.8433 20.4793C96.2306 20.3699 96.7189 20.6098 97.1567 20.6856C97.0661 21.0676 96.9245 21.4358 96.7358 21.7801C95.3592 23.6071 93.9448 25.413 92.5262 27.2273C92.4369 27.3767 92.3568 27.5313 92.2862 27.6904L102.023 28.2966C103.391 28.3807 104.759 28.4355 106.127 28.5744C106.439 28.6039 106.721 28.9364 107.02 29.1301C106.771 29.3911 106.574 29.7699 106.275 29.9004C103.576 31.0496 100.861 32.1526 98.1544 33.2681C97.8387 33.3986 97.5356 33.5586 97.0178 33.8027C98.2302 34.1353 99.2152 34.4468 100.221 34.6446C103.168 35.2803 106.115 35.8696 109.028 36.5179C109.392 36.666 109.728 36.8753 110.021 37.1367C109.747 37.3595 109.453 37.5555 109.141 37.7219C108.266 38.0881 107.369 38.4038 106.283 38.8206C108.384 40.917 110.026 43.1691 110.564 45.8085Z" fill="#180551"/>
<path d="M107.463 41.2423L109.988 45.8939C109.942 45.8392 109.744 45.7214 108.949 45.6245C108.949 45.5445 108.907 45.4688 108.885 45.3888C108.412 43.7857 107.628 42.2911 106.579 40.9897C106.869 41.0613 107.16 41.1455 107.463 41.2423Z" fill="#180551"/>
<path d="M108.957 45.6253C109.639 48.189 108.957 50.6432 107.972 53.03C107.355 54.5701 106.325 55.9101 104.996 56.9029C101.489 59.5128 98.0878 62.2659 94.5012 64.7496C91.6849 66.6986 88.372 67.6079 85.0464 68.2646C81.6408 68.9339 78.2058 69.5275 74.7581 69.9148C73.7141 70.0326 72.6533 70.1 71.6093 70.1337C71.0632 66.7613 71.0632 63.323 71.6093 59.9506C71.8871 60.2832 72.1692 60.6115 72.4512 60.9399C73.2775 61.9106 74.1753 62.8182 75.137 63.6551C76.1052 64.4717 76.9681 64.076 76.9976 62.8132C77.0608 60.2032 76.9976 57.5932 76.9976 54.7896C77.2239 54.9005 77.4445 55.0227 77.6585 55.1559C80.8578 57.5932 84.0445 60.0432 87.2648 62.4469C87.5932 62.6911 88.2836 62.8679 88.5277 62.6911C88.7069 62.5292 88.8469 62.3288 88.9373 62.1049C89.0277 61.8811 89.0662 61.6396 89.0497 61.3987C88.7593 59.155 88.372 56.9281 88.01 54.6928C87.85 53.6951 87.6858 52.6932 87.488 51.5019C88.6035 52.0365 89.5422 52.5459 90.5231 52.9585C93.3983 54.1666 96.286 55.3579 99.1865 56.5114C99.8168 56.7247 100.469 56.8659 101.131 56.9323C101.248 56.9393 101.365 56.9172 101.472 56.868C101.578 56.8188 101.671 56.744 101.742 56.6503C101.782 56.526 101.796 56.3944 101.781 56.2644C101.767 56.1344 101.725 56.009 101.658 55.8968C99.4811 52.8827 97.2795 49.8896 95.0905 46.8882C94.9137 46.6398 94.7537 46.3704 94.438 45.8779C96.2061 46.0715 97.7426 46.1726 99.258 46.4167C101.863 46.8149 104.527 46.4977 106.966 45.499C107.896 45.5285 108.519 45.5706 108.957 45.6253Z" fill="#F79221"/>
<path d="M108.894 45.3863C108.894 45.4663 108.94 45.5421 108.957 45.622C108.536 45.5673 107.896 45.5252 107.017 45.5042L107.349 45.3695C107.648 45.1999 107.93 45.0025 108.191 44.7801C108.027 44.6875 107.875 44.5949 107.728 44.5065C107.221 44.161 106.679 43.869 106.112 43.6351C103.325 42.6711 100.525 41.7787 97.7261 40.8526C98.5975 40.2843 100.972 39.4466 106.6 40.9873C107.645 42.2897 108.424 43.7842 108.894 45.3863Z" fill="white"/>
<path d="M107.716 44.5059C107.863 44.5943 108.015 44.6869 108.179 44.7795C107.918 45.0019 107.636 45.1992 107.337 45.3688L107.005 45.5035C106.634 45.5035 106.217 45.5035 105.742 45.5035L107.653 44.5858L107.716 44.5059Z" fill="#4D3826"/>
<path d="M107.715 44.5018L107.677 44.5649L97.25 41.2393C97.3722 41.0841 97.5221 40.9528 97.692 40.8521C100.491 41.7782 103.291 42.6706 106.078 43.6346C106.652 43.8658 107.201 44.1565 107.715 44.5018Z" fill="#180551"/>
<path d="M107.678 44.5688L105.766 45.4864C106.23 45.4864 106.646 45.4864 107.029 45.4864C104.591 46.4852 101.926 46.8024 99.3215 46.4042C97.8061 46.16 96.2696 46.059 94.5015 45.8653C94.8173 46.3578 94.9772 46.6273 95.154 46.8756C97.343 49.8771 99.5446 52.8701 101.721 55.8842C101.788 55.9964 101.83 56.1218 101.845 56.2518C101.86 56.3818 101.846 56.5134 101.805 56.6377C101.735 56.7314 101.642 56.8062 101.535 56.8554C101.429 56.9046 101.312 56.9267 101.195 56.9197C100.533 56.8534 99.8803 56.7121 99.25 56.4988C96.3496 55.3454 93.4618 54.154 90.5866 52.9459C89.6058 52.5249 88.667 52.024 87.5515 51.4894C87.7493 52.6807 87.9135 53.6826 88.0735 54.6802C88.4355 56.9155 88.8228 59.1424 89.1132 61.3862C89.1297 61.627 89.0912 61.8685 89.0008 62.0923C88.9104 62.3162 88.7704 62.5166 88.5912 62.6785C88.3345 62.8553 87.6441 62.6785 87.3284 62.4343C84.108 60.0307 80.9213 57.5807 77.722 55.1433C77.508 55.0102 77.2874 54.8879 77.0611 54.7771C77.0611 57.5807 77.1032 60.1906 77.0611 62.8006C77.0317 64.0635 76.1687 64.4592 75.2005 63.6425C74.2388 62.8057 73.341 61.8981 72.5147 60.9273C72.2327 60.599 71.9507 60.2706 71.6728 59.938C71.7191 59.6518 71.7696 59.3697 71.8202 59.0751L68.423 55.2527L68.082 54.996C69.1597 53.5703 70.2345 52.1418 71.3066 50.7106C71.7486 50.117 72.1906 49.8687 72.9904 50.3822C71.7612 51.9777 70.5657 53.5394 69.3702 55.097C71.4371 57.5638 73.4788 59.9886 75.5204 62.4175L75.8951 62.2786C75.8951 60.7884 75.8951 59.2898 75.8951 57.7996C75.8698 56.1662 75.8067 54.5329 75.7772 52.9038C75.7772 52.7607 75.8951 52.6217 75.9456 52.4828C76.1114 52.1182 76.2521 51.7427 76.3665 51.3589C76.4415 50.7269 76.5539 50.1 76.7033 49.4814C76.7959 49.2162 77.2379 49.0604 77.52 48.8626C77.6631 49.1404 77.9409 49.4266 77.9409 49.7045C77.882 50.5885 77.6841 51.4641 77.6084 52.3523C77.5781 52.6873 77.6692 53.0219 77.8652 53.2953C78.5088 54.0896 79.2262 54.8211 80.0078 55.4801C81.999 57.0166 84.0617 58.4647 86.0992 59.9465C86.5959 60.3127 87.1137 60.6537 87.783 61.1294C87.3326 58.2289 86.9411 55.5516 86.4907 52.8785C86.3644 52.1292 86.0697 51.4094 85.9097 50.6643C85.8508 50.3906 85.8803 49.8981 86.0234 49.8224C86.361 49.6517 86.7512 49.617 87.1137 49.7255C87.5936 49.9318 87.9556 50.4075 88.4271 50.6432C90.8055 51.8051 93.1839 52.9585 95.5834 54.0446C96.8758 54.6213 98.2313 55.0423 99.7215 55.5979C99.6404 55.3312 99.5333 55.0732 99.4015 54.8276C97.3514 52.024 95.3014 49.212 93.205 46.442C92.9861 46.1516 92.4304 46.1263 92.0473 45.9495C91.6643 45.7727 91.3906 45.6043 91.0665 45.4317C91.357 45.2591 91.6558 44.9308 91.9379 44.9476C94.4847 45.0739 97.0399 45.1665 99.5657 45.4486C101.764 45.7488 104.003 45.5252 106.099 44.7961C105.937 44.6667 105.762 44.5539 105.577 44.4593C103.51 43.7858 101.435 43.1459 99.3847 42.4513L97.1957 41.6978L97.2504 41.2432L107.678 44.5688Z" fill="#180551"/>
<path d="M107.265 37.22C107.265 37.3168 107.265 37.4136 107.295 37.5146C105.379 37.8598 103.477 38.2934 101.549 38.5291C100.446 38.6638 99.3343 38.7649 98.223 38.8533C97.019 38.9459 95.8109 39.0259 94.6027 39.1227C94.3207 39.1227 94.0344 39.0806 93.7608 39.1227C93.4556 39.1935 93.1559 39.2863 92.8641 39.4005C93.062 39.7205 93.1841 40.2424 93.4619 40.3393C94.67 40.8107 95.8908 41.257 97.1158 41.6906L99.3048 42.4441C101.355 43.1387 103.43 43.7785 105.497 44.4521C105.682 44.5466 105.857 44.6594 106.019 44.7888C103.921 45.5221 101.68 45.7486 99.4774 45.4497C96.9517 45.1677 94.3964 45.0751 91.8496 44.9488C91.5676 44.9488 91.2687 45.2603 90.9782 45.4329C91.3024 45.6055 91.6223 45.7991 91.9591 45.9507C92.2958 46.1022 92.8978 46.1527 93.1167 46.4432C95.2215 49.2131 97.2632 52.0251 99.3132 54.8287C99.445 55.0744 99.5521 55.3324 99.6332 55.5991C98.143 55.0434 96.7875 54.6225 95.4951 54.0458C93.083 52.9597 90.7046 51.8062 88.3388 50.6444C87.8631 50.4087 87.4969 49.933 87.0254 49.7267C86.663 49.6182 86.2727 49.6529 85.9351 49.8235C85.792 49.8951 85.7625 50.3876 85.8214 50.6655C85.9772 51.4106 86.2761 52.1304 86.4024 52.8797C86.8486 55.5528 87.2443 58.2301 87.6947 61.1305C87.017 60.6549 86.4992 60.3139 86.0109 59.9476C83.9734 58.4659 81.9107 57.0009 79.9196 55.4812C79.1379 54.8223 78.4205 54.0908 77.7769 53.2965C77.5809 53.0231 77.4898 52.6884 77.5201 52.3535C77.5959 51.4653 77.7937 50.5897 77.8527 49.7056C77.8527 49.432 77.5959 49.1458 77.4317 48.8637C77.1497 49.0658 76.7076 49.2173 76.615 49.4825C76.4656 50.1011 76.3532 50.7281 76.2783 51.36C76.1638 51.7439 76.0231 52.1194 75.8573 52.484C75.8068 52.6313 75.6847 52.7702 75.6889 52.905C75.7184 54.5341 75.7815 56.1674 75.8068 57.8007C75.8278 59.2909 75.8068 60.7896 75.8068 62.2798L75.4321 62.4187C73.3905 59.9897 71.3488 57.565 69.2819 55.0982C70.4774 53.5406 71.6729 51.9788 72.9022 50.3834C72.1234 49.874 71.6814 50.1182 71.2183 50.7118C70.1463 52.1374 69.0714 53.5659 67.9937 54.9971C66.1106 57.4948 64.229 59.9911 62.3487 62.486C62.2726 62.6293 62.2213 62.7845 62.1971 62.9449L61.8814 62.7428C61.7509 61.4294 61.6246 60.116 61.4899 58.8026C61.4183 58.1417 61.3552 57.4724 61.2415 56.8157C61.0647 55.7675 60.8669 54.7572 62.0624 54.0921C62.173 53.9631 62.2483 53.8076 62.2807 53.6409C62.3132 53.4741 62.3018 53.3017 62.2476 53.1407C61.9109 52.7408 61.5109 52.9134 61.1195 53.2796C57.7546 56.4368 54.363 59.58 50.9448 62.7091C50.9238 62.7091 50.8817 62.7091 50.7386 62.7091C51.088 61.2147 51.4584 59.7624 51.7699 58.2848C52.1909 56.3779 52.5782 54.4709 52.8602 52.5513C52.8787 52.2733 52.9733 52.0056 53.1337 51.7777C53.294 51.5498 53.514 51.3703 53.7695 51.259C54.342 50.9559 55.1923 50.8928 55.2681 49.7646C54.7503 49.7941 54.1946 49.6593 53.82 49.8656C51.7152 51.0148 49.6735 52.244 47.6192 53.4564C46.9246 53.8774 46.2385 54.2773 45.5523 54.694L43.4896 55.9359C43.4054 55.8475 43.3254 55.7549 43.2412 55.6623L48.558 47.5293C47.9392 47.6051 47.5477 47.6303 47.1688 47.7187C47.0383 47.744 46.9078 47.9208 46.8489 48.0555C46.0743 49.8235 44.643 50.5055 43.0981 51.0022C42.3951 51.2211 41.6626 51.3979 40.9638 51.621C38.7791 52.3114 36.5858 53.006 34.3926 53.6837C32.7088 54.2099 30.9955 54.7151 29.299 55.2329L29.139 54.9003L29.1853 54.8666L31.046 53.4901C32.1686 52.6482 33.2911 51.8245 34.4137 51.0191C35.967 49.8783 37.4278 48.4933 39.1495 47.7229C40.4124 47.142 40.7407 45.837 41.8436 45.2603C41.9615 45.1929 42.0794 44.8393 42.0247 44.7846C41.9068 44.6457 41.629 44.4815 41.4943 44.532C40.989 44.6851 40.5186 44.9353 40.1093 45.2687C39.8036 45.5878 39.4256 45.8285 39.0072 45.9706C38.5888 46.1128 38.1424 46.1521 37.7056 46.0854C34.8473 45.8412 31.9763 45.7149 29.1054 45.5171C28.343 45.4764 27.5936 45.3026 26.8911 45.0035C27.9688 44.6499 29.0759 44.3595 30.1241 43.9259C32.1742 43.0839 34.1695 42.1241 36.228 41.3075L36.4469 41.2191C37.0742 40.9791 37.8487 41.1265 38.5517 41.0844C38.8717 41.0844 39.3179 41.1307 39.4694 40.9539C39.621 40.7771 39.5031 40.3393 39.5031 39.8973L40.2482 39.3626C40.2482 39.2448 40.2187 39.1269 40.2019 39.009C39.8755 38.9499 39.5405 38.957 39.2169 39.0301C38.7685 39.2594 38.2763 39.3904 37.7732 39.4144C37.2701 39.4383 36.7678 39.3547 36.2996 39.169C33.9085 38.3692 31.4796 37.6956 29.0633 36.9632C28.9987 36.9401 28.9354 36.9134 28.8738 36.8832C28.811 36.8476 28.7464 36.8152 28.6802 36.7864C28.6802 36.7232 28.6802 36.6559 28.7097 36.5927C29.1306 36.5927 29.5516 36.5927 29.9725 36.5927C31.7097 36.4889 33.4469 36.378 35.184 36.2602L41.1491 35.8729C41.7426 35.835 42.5467 36.0413 42.5887 35.1067C42.5887 35.0141 41.5742 34.7657 41.0312 34.7784C39.5368 34.812 38.0466 34.9425 36.6574 35.0267C34.039 32.2821 31.4627 29.5837 28.8823 26.8896L29.1012 26.6033L31.6269 27.0706L32.09 27.1548C33.4413 27.4031 34.7968 27.6136 36.1354 27.9167C36.5269 28.0355 36.8676 28.2814 37.1036 28.6155C37.453 29.0996 37.6256 29.7226 38.0003 30.1899C38.1687 30.4004 38.6359 30.3835 38.9685 30.4677C39.0362 30.2039 39.066 29.9317 39.0569 29.6595C38.9324 29.2428 38.7732 28.8373 38.5812 28.4471C40.3113 28.9481 41.8479 29.4069 43.397 29.8321C43.94 29.9878 44.7062 30.674 44.9882 29.7142C45.2113 28.9228 44.2263 29.0407 43.7717 28.8933C42.0878 28.3335 40.345 27.8872 38.6359 27.3652C38.3665 27.2811 38.0003 27.0916 37.9161 26.8601C36.9437 24.1996 36.0133 21.5223 35.0746 18.8618C35.0746 18.8155 35.1041 18.7482 35.163 18.5503C36.4259 18.9713 37.6888 19.3459 38.9306 19.8132C39.8315 20.1374 40.7407 20.4404 41.6416 20.7772C42.5412 21.0987 43.4224 21.4697 44.281 21.8885C45.2198 22.3516 45.9228 23.1893 47.1562 22.962C47.5393 22.8946 47.9981 23.4208 48.4443 23.5093C48.7137 23.564 49.0421 23.2903 49.3368 23.1641C49.182 22.9248 48.9935 22.7093 48.7769 22.5242C48.4484 22.3292 48.098 22.1737 47.7329 22.0611C46.268 21.5181 46.2637 21.5223 46.3269 20.0026C46.4672 16.6574 46.6075 13.3094 46.7478 9.95851C46.7764 9.70359 46.82 9.45057 46.8783 9.20078L49.4041 11.6255C50.5954 12.7832 51.7489 13.9829 52.9907 15.0774C53.7442 15.7467 52.9907 16.2098 52.957 16.7612C52.957 17.0138 53.0412 17.4222 53.2096 17.5021C53.3513 17.5424 53.5 17.5512 53.6455 17.5279C53.7909 17.5047 53.9295 17.4499 54.0515 17.3674C54.2578 17.2201 54.3336 16.8875 54.5398 16.5255C54.7798 16.7907 54.9608 17.1359 55.1839 17.1948C55.5602 17.2254 55.939 17.1998 56.3079 17.1191C56.1984 16.8328 56.1689 16.4161 55.9669 16.2982C54.8808 15.671 55.0155 14.9259 55.3102 13.8271C56.089 10.9688 56.6404 8.04735 57.2845 5.14693C57.3224 4.97012 57.3771 4.80174 57.4908 4.40183C57.6928 4.68808 57.8865 4.95749 58.0801 5.21849C58.6526 6.01411 59.1872 6.73396 59.6629 7.48748C60.8963 9.42811 62.0624 11.4024 63.2832 13.3473C63.5697 13.7141 63.8881 14.055 64.2346 14.366C63.8136 15.5489 63.3632 16.837 62.9717 18.1546C62.9001 18.3862 63.0643 18.6892 63.1232 18.9587C63.4432 18.845 63.9441 18.8282 64.0536 18.6051C64.4972 17.726 64.8647 16.8106 65.1523 15.8688C66.1668 12.5474 67.1013 9.20499 68.1369 5.89203C68.179 5.75311 68.2295 5.6142 68.28 5.47107C68.6571 4.47964 69.1339 3.52902 69.7028 2.63379C69.8923 3.54306 70.1238 4.44392 70.2711 5.3532C70.7258 7.90422 71.1131 10.4552 71.6224 12.9894C71.8371 14.0797 71.7108 14.9806 70.8605 15.7678C70.5156 16.156 70.2123 16.5793 69.9554 17.0307C70.5574 17.4053 71.012 17.4937 71.3783 16.8749C71.4288 16.7907 71.4625 16.6728 71.534 16.635C73.3947 15.7299 73.8072 13.6209 75.1669 12.2528C75.2595 12.1643 75.3521 12.0759 75.4532 11.9918C76.8887 10.7836 77.9789 9.18815 79.4523 7.52115C79.2208 9.62595 79.1282 11.4487 78.7998 13.2378C78.3073 15.873 77.6253 18.4703 77.0697 21.0971C77.0631 21.4954 77.1273 21.8916 77.2591 22.2674C77.6801 22.158 78.2063 22.1748 78.522 21.9222C80.4752 20.3605 82.3822 18.7355 84.4154 17.0264L84.5333 16.9254C84.4768 17.1245 84.4429 17.3292 84.4323 17.5358C84.4533 17.7337 84.5123 18.0704 84.6007 18.0915C84.7142 18.1146 84.8314 18.1126 84.9441 18.0857C85.0568 18.0588 85.1623 18.0076 85.2532 17.9357C85.5645 17.6324 85.7834 17.2471 85.8846 16.8244C86.1077 15.6752 86.9454 15.17 87.7915 14.6564C88.0736 14.4838 88.3598 14.3155 88.6335 14.1176C87.0457 17.8943 85.1345 21.5267 82.921 24.9742C83.0702 25.1919 83.2946 25.3467 83.5511 25.4088C83.8075 25.471 84.0779 25.4361 84.3102 25.311C87.6779 24.0986 91.0456 22.9199 94.4133 21.737C94.7169 21.6562 95.0247 21.5916 95.3352 21.5434C93.3611 24.6652 91.0208 27.5397 88.3641 30.1057C88.7973 30.2008 89.2487 30.1692 89.6645 30.0147C90.0803 29.8602 90.4428 29.5893 90.7088 29.2343C90.8826 29.0193 91.1113 28.8553 91.3706 28.7597C91.63 28.6641 91.9104 28.6405 92.1822 28.6913C96.1518 29.0407 100.13 29.2933 104.121 29.5795C103.977 29.702 103.818 29.8066 103.649 29.891C101.094 30.8971 98.5555 31.9453 95.9708 32.8377C95.2383 33.0987 94.367 32.9514 93.5587 32.9809C93.1925 32.9809 92.8305 32.9809 92.4768 32.9809C92.3337 34.5847 92.4347 34.5047 93.9039 34.5679C95.5843 34.7079 97.2517 34.9739 98.8923 35.3635C101.582 35.9023 104.26 36.5001 106.941 37.0768C107.052 37.1184 107.16 37.1662 107.265 37.22Z" fill="#4D3826"/>
<path d="M105.707 39.9796C106.017 40.2971 106.311 40.6301 106.587 40.9773C100.959 39.4366 98.5888 40.2743 97.7132 40.8426L97.5701 40.7963C97.0102 40.6069 96.4587 40.3753 95.8862 40.1901V39.8954C96.6776 39.786 97.4606 39.626 98.2562 39.5671C100.247 39.4156 102.251 39.3692 104.23 39.1461C105.067 39.0619 105.307 39.5587 105.707 39.9796Z" fill="#F79221"/>
<path d="M98.223 38.856L98.2819 39.5758C97.4863 39.6347 96.7033 39.7947 95.9119 39.9042V40.1988C96.4676 40.4009 97.019 40.6198 97.5957 40.805L97.7389 40.8513C97.552 40.9485 97.386 41.0815 97.2505 41.2428L97.0906 41.7017C95.8656 41.2807 94.6448 40.8219 93.4366 40.3504C93.1588 40.2409 93.0367 39.7316 92.8389 39.4116C93.1306 39.2974 93.4303 39.2046 93.7355 39.1338C94.0176 39.0875 94.3038 39.1338 94.5774 39.1338C95.8108 39.0286 97.019 38.9486 98.223 38.856Z" fill="#180551"/>
<path d="M94.1694 20.9505L94.4009 21.7462C91.0332 22.9291 87.6656 24.1077 84.2979 25.3201C84.0656 25.4453 83.7952 25.4802 83.5387 25.418C83.2823 25.3558 83.0579 25.201 82.9087 24.9834C85.1221 21.5359 87.0334 17.9035 88.6211 14.1268C88.3559 14.3246 88.0697 14.493 87.7792 14.6656L87.1941 13.7521C87.8109 13.3422 88.4535 12.9724 89.1179 12.645C89.5309 12.5452 89.9573 12.5125 90.3807 12.5482C90.4067 12.9044 90.3855 13.2625 90.3176 13.6132C89.1726 17.1703 87.0762 20.2475 85.2871 23.4763C85.2282 23.5858 85.1735 23.691 84.9925 24.0193C86.5163 23.4679 87.8339 22.9627 89.1684 22.5291C90.8312 21.9861 92.4982 21.4557 94.1694 20.9505Z" fill="#180551"/>
<path d="M87.2074 13.7548L87.7925 14.6683C86.9506 15.1818 86.1087 15.687 85.8856 16.8362C85.7619 17.2319 85.5335 17.5869 85.2246 17.8634C85.1338 17.9353 85.0283 17.9865 84.9156 18.0134C84.8029 18.0403 84.6857 18.0422 84.5722 18.0191C84.4838 17.9981 84.4248 17.6613 84.4038 17.4634C84.4144 17.2568 84.4483 17.0521 84.5048 16.8531L84.3869 16.9541L83.7471 16.1879C83.8481 16.1164 83.9533 16.0532 84.0544 15.9901C86.0539 14.7272 85.8687 12.7403 86.5465 10.7197L86.277 10.8796L85.7593 9.99981C85.8982 9.92404 86.0371 9.84827 86.1802 9.7767C86.5212 9.5999 87.1105 9.48624 87.3589 9.65883C87.5053 9.8111 87.6163 9.99381 87.684 10.1939C87.7517 10.394 87.7743 10.6066 87.7504 10.8165C87.6578 11.7763 87.4136 12.6771 87.2074 13.7548Z" fill="#180551"/>
<path d="M86.2759 10.8777L86.5453 10.7178C85.8676 12.7384 86.0528 14.7337 84.0532 15.9882C83.9522 16.0513 83.847 16.1145 83.7459 16.1861C82.2136 17.2006 80.8666 18.5098 79.4269 19.6842C79.1869 19.8779 78.9512 20.0799 78.585 20.3704C79.0059 18.5055 79.3722 16.8049 79.8015 15.1168C79.9121 14.7845 80.1375 14.5024 80.4372 14.3212C82.2936 13.2014 84.1669 12.1112 86.2759 10.8777Z" fill="#4D3826"/>
<path d="M85.7579 9.99793L86.2757 10.8777C84.1709 12.1111 82.2934 13.2014 80.4496 14.3212C80.1499 14.5024 79.9245 14.7845 79.8139 15.1168C79.393 16.8007 79.0225 18.5055 78.5973 20.3704C78.951 20.0799 79.1867 19.8779 79.4393 19.6842C80.879 18.5098 82.226 17.2006 83.7583 16.1861L84.3982 16.9522C82.3481 18.6613 80.4412 20.2862 78.5047 21.848C78.1932 22.1006 77.6628 22.0837 77.2418 22.1932C77.1086 21.8219 77.0416 21.43 77.044 21.0355C77.5997 18.4087 78.2816 15.8114 78.7741 13.1762C79.1025 11.3871 79.1951 9.5475 79.4266 7.45953C77.9659 9.14338 76.863 10.722 75.4275 11.9301C75.3265 12.0143 75.2339 12.1027 75.1413 12.1911L74.333 11.6018C75.0234 10.8356 75.6927 10.0863 76.362 9.33702C77.3429 8.24252 78.2858 7.11013 79.3088 6.04931C79.5445 5.80094 80.1507 5.55258 80.3233 5.67466C80.4726 5.81489 80.5901 5.98555 80.6678 6.1751C80.7455 6.36465 80.7816 6.56866 80.7737 6.77336C80.6516 8.48667 80.4369 10.1916 80.2433 11.8965C80.197 12.3174 80.1044 12.7384 80.0034 13.3319L82.8869 11.6986C83.8299 11.1261 84.7771 10.5368 85.7579 9.99793Z" fill="#180551"/>
<path d="M79.4304 83.9684C79.4304 84.0568 79.4304 84.141 79.4304 84.2294C79.241 84.3936 79.081 84.6504 78.8579 84.7177C75.7175 85.9048 72.594 86.4016 69.542 84.4104C67.4877 83.0634 65.2314 82.3435 62.8319 83.1475C61.2242 83.7499 59.6743 84.4966 58.2013 85.3786C55.9615 86.6409 54.0327 88.3885 52.5562 90.4933C52.2962 90.8551 52.08 91.2466 51.9122 91.6594C51.7017 92.1814 51.4702 92.6444 50.8093 92.2992C50.1483 91.9541 50.3125 91.5878 50.6325 91.0364C52.973 87.1298 56.4628 84.6462 60.5208 82.7687C63.7328 81.2785 66.81 81.5689 69.7399 83.3454C70.7851 84.0211 71.9667 84.4575 73.2002 84.6234C74.4336 84.7893 75.6886 84.6806 76.8752 84.3052C77.2994 84.1644 77.7344 84.0588 78.1759 83.9895C78.5932 83.955 79.0122 83.948 79.4304 83.9684Z" fill="#180551"/>
<path d="M74.3165 11.5902L75.1247 12.1795C73.765 13.5477 73.3525 15.6567 71.4918 16.5617C71.4202 16.5996 71.3866 16.7175 71.3361 16.8017C70.9698 17.4205 70.5152 17.3321 69.9132 16.9574C70.1701 16.5061 70.4734 16.0828 70.8183 15.6945C71.6602 14.9074 71.7949 14.0107 71.5802 12.9162C71.0877 10.3904 70.6836 7.831 70.2289 5.27998C70.0648 4.3707 69.8501 3.46984 69.6606 2.56056C69.0917 3.45579 68.6149 4.40642 68.2378 5.39785L67.2148 5.04003C67.2738 4.85901 67.3411 4.67379 67.4043 4.49277C67.8589 3.20042 68.3977 1.94175 68.9534 0.704125C69.0839 0.413662 69.5049 -0.00729588 69.6859 0.0432194C69.8685 0.0989085 70.0361 0.195267 70.1761 0.325051C70.3161 0.454835 70.4248 0.614667 70.4941 0.79253C70.9796 2.75701 71.416 4.7215 71.8033 6.68599C72.1822 8.62241 72.4979 10.5799 72.8431 12.5247C72.8962 12.6957 72.9638 12.8619 73.0452 13.0215L74.3165 11.5902Z" fill="#180551"/>
<path d="M71.7735 70.9796V71.2237C70.2917 71.249 68.8015 71.2027 67.3197 71.2574C61.9441 71.4511 56.6189 70.9964 51.2896 70.3397C48.7006 70.0198 46.1623 69.6157 43.7754 68.5591C42.6568 67.994 41.5704 67.3672 40.5214 66.6816C39.8563 66.9762 39.0901 67.3762 38.2861 67.6708C37.8414 67.86 37.356 67.9334 36.8753 67.8841C36.3946 67.8347 35.9342 67.6643 35.5372 67.3888C35.3629 67.2867 35.2104 67.1511 35.0887 66.9899C34.967 66.8287 34.8783 66.645 34.8278 66.4494C34.7774 66.2537 34.7661 66.0501 34.7946 65.8501C34.8232 65.6501 34.891 65.4577 34.9942 65.284C35.4151 64.4421 35.9119 63.6759 36.2949 62.8382C36.417 62.573 36.417 62.0215 36.2444 61.8826C34.9288 60.7265 33.8335 59.3416 33.0114 57.7951C32.2537 56.4901 31.5886 56.4059 30.3089 57.2984C28.3388 58.6623 26.4613 60.1567 24.4407 61.4364C21.4939 63.3055 18.5472 65.2251 15.3984 66.7616C12.4608 68.2183 9.30598 69.1879 6.05731 69.6325C5.06891 69.765 4.0739 69.8423 3.0769 69.864C2.22254 69.8377 1.3706 69.759 0.525879 69.6283L0.584814 69.2494C2.09606 69.0768 3.61573 68.959 5.11435 68.7148C5.43007 68.6685 5.74579 68.6096 6.05731 68.5549C10.9214 67.7223 15.5557 65.8749 19.6586 63.1329C22.7947 60.9986 25.973 58.9233 29.1175 56.7974C29.2943 56.6796 29.4501 56.5322 29.7153 56.3259C29.5117 56.2749 29.3022 56.2509 29.0923 56.2544L29.307 55.2104C30.9908 54.6926 32.7083 54.1875 34.4006 53.6613C36.5938 52.9835 38.787 52.2889 40.9718 51.5986C41.6706 51.3754 42.4031 51.1986 43.1061 50.9797L43.4344 52.0321L33.525 55.1346C34.3669 57.6015 35.3267 59.8241 37.4063 61.2933C37.8144 61.0135 38.2013 60.7039 38.5639 60.3672L39.4521 60.8892C39.1533 61.2386 38.8544 61.5964 38.5681 61.9542C37.7834 62.9837 37.0943 64.0828 36.5096 65.2377C36.2991 65.6292 36.4338 66.2017 36.417 66.6942C36.9358 66.7229 37.456 66.6775 37.9619 66.5595C42.1474 64.8283 46.0921 62.5645 49.6983 59.8241C49.9512 59.6407 50.1362 59.3787 50.2245 59.079C50.6918 56.9321 51.1212 54.7768 51.6179 52.3436C50.7086 52.9246 50.0856 53.3582 49.4289 53.7286C48.3204 54.3516 47.2104 54.9704 46.0991 55.5851L45.5603 54.6758C46.2464 54.2548 46.9326 53.8339 47.6272 53.4381C49.6815 52.2258 51.7358 50.9966 53.828 49.8474C54.2026 49.6411 54.7583 49.7758 55.2761 49.7463C55.2003 50.8745 54.3499 50.9376 53.7774 51.2407C53.5219 51.3521 53.302 51.5315 53.1416 51.7594C52.9813 51.9874 52.8867 52.255 52.8682 52.5331C52.5861 54.4527 52.1778 56.3596 51.7779 58.2666C51.4664 59.7357 51.0959 61.2133 50.7465 62.6909C50.8896 62.6909 50.9317 62.6909 50.9528 62.6909C54.3598 59.5589 57.7625 56.4214 61.1611 53.2782C61.5526 52.9119 61.9525 52.7394 62.2893 53.1393C62.3434 53.3003 62.3548 53.4727 62.3224 53.6394C62.2899 53.8062 62.2147 53.9617 62.104 54.0906C60.9085 54.7557 61.1064 55.7745 61.2832 56.8142C61.3968 57.4709 61.46 58.1403 61.5315 58.8012C61.6662 60.1146 61.7925 61.428 61.923 62.7414L62.2388 62.9434C62.263 62.783 62.3142 62.6279 62.3903 62.4846C64.2678 59.9841 66.1495 57.4878 68.0354 54.9957L68.3764 55.2525L64.9034 60.8807C64.9021 60.8919 64.9021 60.9032 64.9034 60.9144C64.9034 60.9144 64.9034 60.9355 64.9034 60.9397C64.6719 61.2722 64.4614 61.609 64.2636 61.9584C63.941 62.6185 63.4801 63.2014 62.9123 63.6675C62.4913 63.9832 61.8262 64.2779 61.3926 64.1558C61.0222 64.0548 60.6854 63.3728 60.576 62.8929C60.4708 62.1338 60.4103 61.3691 60.3949 60.6029C60.2434 59.1885 60.0666 57.774 59.8645 56.0439L51.66 63.819C51.3459 64.1755 50.9831 64.4859 50.5823 64.741C50.4071 64.826 50.2166 64.875 50.0221 64.8851C49.8276 64.8953 49.6331 64.8663 49.45 64.7999C49.2437 64.6988 49.1469 64.1558 49.1805 63.8317C49.2605 63.0403 49.4415 62.2657 49.5762 61.5501L42.0368 66.2269C42.7105 66.7003 43.4136 67.1306 44.1416 67.5151C48.1534 69.321 52.4809 69.5357 56.7705 69.8598C59.3299 70.0535 61.8978 70.1082 64.4698 70.1377C64.4951 70.4071 64.5204 70.6891 64.5498 70.9796H71.7735Z" fill="#180551"/>
<path d="M68.3772 55.2622L71.7744 59.0845C71.7239 59.3792 71.6733 59.6613 71.627 59.9475C70.5704 58.6846 69.5222 57.4217 68.4319 56.0662C67.9142 56.8029 67.5185 57.3754 67.1101 57.9353C66.3903 58.9288 65.5947 59.8802 64.9043 60.882L68.3772 55.2622Z" fill="#4D3826"/>
<path d="M71.7731 70.9805H64.5536C64.5241 70.69 64.4989 70.408 64.4736 70.1386H66.9994C68.5317 70.1386 70.0682 70.1638 71.6047 70.1133C71.6973 70.6774 71.7731 70.9805 71.7731 70.9805Z" fill="#4D3826"/>
<path d="M71.6269 59.9459C71.0807 63.3183 71.0807 66.7566 71.6269 70.129C70.0904 70.1795 68.5539 70.1626 67.0216 70.1542H64.4958C63.8896 63.3178 64.6852 61.3477 64.8831 60.9773C64.8831 60.9773 64.8831 60.9773 64.8831 60.952C64.8818 60.9408 64.8818 60.9295 64.8831 60.9183C65.5734 59.908 66.3691 58.9567 67.0889 57.9716C67.5099 57.4117 67.8929 56.8392 68.4107 56.1025C69.5389 57.4075 70.5703 58.6957 71.6269 59.9459Z" fill="white"/>
<path d="M68.2377 5.39504C68.1872 5.53396 68.1367 5.67287 68.0946 5.816C67.059 9.12896 66.1245 12.4714 65.11 15.7928C64.8161 16.7293 64.4429 17.6391 63.9944 18.5122C63.885 18.7353 63.384 18.7521 63.0641 18.8658C63.0052 18.5964 62.841 18.2933 62.9126 18.0618C63.3335 16.7568 63.784 15.4686 64.1754 14.2731C63.829 13.9622 63.5106 13.6213 63.2241 13.2544C62.0033 11.3095 60.8372 9.33523 59.6038 7.3946C59.1281 6.64108 58.5935 5.92124 58.021 5.12562L58.9429 4.59521C59.9658 5.95071 60.9425 7.33988 61.8896 8.73326C62.8031 10.0551 63.6071 11.4527 64.487 12.8545C65.3962 10.1729 66.255 7.58403 67.1601 5.01196L68.2377 5.39504Z" fill="#180551"/>
<path d="M64.2214 61.9783C64.4193 61.6289 64.6424 61.2921 64.8613 60.9595C64.6635 61.33 63.8678 63.3001 64.474 70.1365C61.902 70.107 59.3341 70.0523 56.7747 69.8587C52.4977 69.5345 48.1702 69.3198 44.1458 67.5139C43.4177 67.1294 42.7147 66.6991 42.041 66.2258L49.5804 61.5489C49.4457 62.2645 49.2647 63.0391 49.1847 63.8305C49.151 64.1546 49.2479 64.6977 49.4541 64.7987C49.6372 64.8651 49.8318 64.8941 50.0263 64.884C50.2208 64.8738 50.4113 64.8248 50.5865 64.7398C50.9873 64.4847 51.3501 64.1743 51.6642 63.8179L59.8266 56.0596C60.0287 57.7897 60.2055 59.2041 60.357 60.6186C60.3724 61.3848 60.4328 62.1495 60.538 62.9086C60.6475 63.3927 60.9843 64.0747 61.3547 64.1715C61.7757 64.2936 62.4534 63.9989 62.8744 63.6832C63.4402 63.2178 63.8996 62.6364 64.2214 61.9783Z" fill="#F79221"/>
<path d="M58.9769 4.62178L58.055 5.15219C57.8613 4.89119 57.6677 4.62178 57.4656 4.33553C57.352 4.75649 57.2972 4.90382 57.2593 5.08063C56.6153 7.98105 56.0638 10.9025 55.285 13.7608C54.9904 14.8596 54.8641 15.6047 55.9417 16.2319C56.1438 16.3498 56.1733 16.7665 56.2827 17.0528C55.9139 17.1335 55.5351 17.1591 55.1587 17.1285C54.923 17.0696 54.7378 16.7076 54.5147 16.4592C54.3084 16.8423 54.2326 17.1748 54.0264 17.3011C53.9043 17.3836 53.7657 17.4384 53.6203 17.4616C53.4749 17.4849 53.3261 17.4761 53.1844 17.4358C53.0161 17.3559 52.9192 16.9475 52.9319 16.6949C52.9613 16.1351 53.7191 15.672 52.9655 15.0111C51.7027 13.9166 50.5703 12.7169 49.379 11.5592L46.8532 9.13448C46.7948 9.38427 46.7512 9.63729 46.7227 9.89221C46.5796 13.2431 46.4392 16.5911 46.3017 19.9363C46.2386 21.456 46.2428 21.4518 47.7077 21.9948C48.0728 22.1074 48.4232 22.2629 48.7517 22.4579C48.9683 22.643 49.1569 22.8585 49.3116 23.0978C49.0169 23.224 48.6886 23.5187 48.4192 23.443C47.9687 23.3545 47.5141 22.8283 47.131 22.8957C45.8976 23.123 45.1946 22.2853 44.2559 21.8222L44.6389 20.7488L44.9673 20.8667C45.0599 18.7029 45.1315 16.556 45.2409 14.4175C45.3504 12.2791 45.4893 10.0859 45.6619 7.92211C45.704 7.29488 46.3059 7.08019 46.87 7.50115C47.32 7.85104 47.7423 8.23527 48.1329 8.65038C49.8546 10.3342 51.568 12.0728 53.2939 13.7819C53.4563 13.914 53.6295 14.0323 53.8117 14.1355C54.1316 12.8516 54.4557 11.6687 54.721 10.4689C55.2219 8.23363 55.6723 5.98148 56.1817 3.73355C56.4469 2.57591 57.1457 2.34859 57.8908 3.27471C58.2865 3.72513 58.6317 4.17556 58.9769 4.62178Z" fill="#180551"/>
<path d="M51.6186 52.3555C51.1218 54.7844 50.6925 56.9397 50.2252 59.0908C50.1369 59.3905 49.9519 59.6525 49.699 59.836C46.0927 62.5764 42.148 64.8402 37.9626 66.5713C37.4566 66.6893 36.9364 66.7347 36.4177 66.706C36.4177 66.2135 36.2998 65.641 36.5103 65.2495C37.0952 64.096 37.7842 62.9984 38.5688 61.9702C38.855 61.6124 39.1539 61.2546 39.4528 60.9052C40.3579 59.8612 41.3134 58.8551 42.2438 57.828C42.3985 57.6774 42.5761 57.5524 42.77 57.4575L43.9697 56.7882L46.0998 55.6053C47.2223 54.9907 48.3323 54.3719 49.4296 53.7488C50.1031 53.37 50.7093 52.9364 51.6186 52.3555ZM41.1829 64.315C40.3663 63.7509 39.2634 64.1255 38.493 65.1569C39.5117 65.62 40.3705 65.359 41.1829 64.315ZM38.9434 63.7298C38.7203 63.4015 38.6445 63.1657 38.5225 63.1321C38.4261 63.1045 38.3246 63.0996 38.2259 63.1179C38.1273 63.1361 38.0343 63.177 37.9542 63.2373C37.5946 63.7168 37.275 64.2251 36.9986 64.757C36.9565 64.8454 37.247 65.1022 37.3775 65.2832C37.8952 64.7696 38.413 64.256 38.9434 63.7298Z" fill="#C8A468"/>
<path d="M47.1773 47.7138C47.5562 47.6254 47.9477 47.6002 48.5665 47.5244L43.2498 55.6574C43.3339 55.75 43.4139 55.8426 43.4981 55.931L43.9696 56.7729L42.7699 57.4423C42.576 57.5371 42.3984 57.6622 42.2437 57.8127C41.3133 58.8398 40.3577 59.8459 39.4527 60.8899L38.5645 60.3679C41.0608 58.0695 42.2437 54.8575 44.0875 52.096L43.898 51.8856L43.435 52.0287L43.1066 50.9763C44.6515 50.4922 46.0828 49.8102 46.8574 48.0296C46.9163 47.9159 47.0468 47.7391 47.1773 47.7138Z" fill="#180551"/>
<path d="M45.5598 54.6909L46.0986 55.6002L43.9685 56.7831L43.4971 55.9412L45.5598 54.6909Z" fill="#180551"/>
<path d="M43.7878 28.8672C44.2424 29.0145 45.2275 28.8966 45.0044 29.6881C44.7223 30.6605 43.9562 29.9617 43.4131 29.8059C41.864 29.385 40.3275 28.9219 38.5973 28.421C38.7894 28.8111 38.9485 29.2167 39.073 29.6333C39.0821 29.9056 39.0523 30.1777 38.9846 30.4416C38.6521 30.3574 38.1848 30.3742 38.0164 30.1637C37.6418 29.6965 37.4692 29.0734 37.1198 28.5893C36.8837 28.2552 36.543 28.0093 36.1516 27.8905C34.8129 27.5875 33.4574 27.377 32.1061 27.1286L31.6431 27.0444L31.8157 26.0973C33.3269 26.3709 34.8929 26.5477 36.4757 26.9392C36.0547 25.6763 35.6801 24.6365 35.3349 23.601C34.7989 22.0013 34.2699 20.3988 33.7479 18.7936C33.6863 18.6141 33.6343 18.4314 33.5921 18.2463C33.5248 17.9769 33.4658 17.6991 33.4027 17.4297C33.8236 17.3371 34.2909 17.0634 34.6361 17.1771C36.1852 17.7131 37.7288 18.259 39.2667 18.8146L38.9425 19.7702C37.7007 19.3198 36.4168 18.9283 35.1749 18.5073C35.116 18.7052 35.0697 18.7725 35.0865 18.8188C36.0253 21.4962 36.9556 24.1735 37.928 26.8171C38.0122 27.0486 38.3784 27.2381 38.6479 27.3223C40.357 27.8611 42.1039 28.3073 43.7878 28.8672Z" fill="#180551"/>
<path d="M44.6763 20.7589L44.2932 21.8324C43.4346 21.4136 42.5534 21.0425 41.6538 20.721L41.9906 19.7949L44.6763 20.7589Z" fill="#180551"/>
<path d="M43.8979 51.8931L44.0873 52.1035C42.2435 54.8651 41.0606 58.077 38.5643 60.3754C38.2017 60.7122 37.8148 61.0218 37.4066 61.3015C35.3271 59.8324 34.3589 57.6097 33.5254 55.1429L43.4348 52.0362L43.8979 51.8931Z" fill="#F79221"/>
<path d="M42.0115 44.7664C42.0662 44.8337 41.9484 45.1874 41.8305 45.2421C40.7276 45.8188 40.4034 47.1238 39.1364 47.7047C37.4146 48.4919 35.9539 49.86 34.4005 51.0008C33.278 51.8175 32.1554 52.6412 31.0329 53.4719L30.4477 52.6847C31.4201 51.9396 31.8664 50.9672 31.458 49.4433C31.2433 48.6266 31.639 47.6416 31.7527 46.766C30.0689 46.606 28.3513 46.4671 26.6464 46.2566C25.9887 46.1542 25.3428 45.9864 24.7184 45.7557C24.5248 45.6883 24.2428 45.4147 24.2638 45.28C24.3045 45.1655 24.3685 45.0607 24.4518 44.9722C24.5352 44.8838 24.636 44.8137 24.7479 44.7664C25.2994 44.5222 25.8887 44.3454 26.457 44.1434L35.9244 40.6157L36.1938 41.2892C34.1353 42.1059 32.14 43.0657 30.0899 43.9076C29.0417 44.3286 27.9346 44.6317 26.8569 44.9853C27.5594 45.2844 28.3088 45.4582 29.0712 45.4989C31.9421 45.6967 34.8131 45.823 37.6714 46.0672C38.1082 46.1339 38.5546 46.0946 38.973 45.9524C39.3914 45.8103 39.7694 45.5695 40.0751 45.2505C40.4844 44.9171 40.9548 44.6669 41.4601 44.5138C41.6158 44.4633 41.8937 44.6106 42.0115 44.7664ZM37.5956 47.3132C37.5746 47.2332 37.5578 47.1532 37.5367 47.0775C36.2738 46.9596 34.9731 46.8165 33.6891 46.7449C33.5524 46.7788 33.4261 46.8456 33.3212 46.9395C33.2163 47.0335 33.1359 47.1516 33.0871 47.2837C32.8809 48.4077 32.7546 49.5485 32.603 50.6809L32.9356 50.7988C34.4847 49.6341 36.0381 48.4723 37.5956 47.3132Z" fill="#180551"/>
<path d="M41.9897 19.7921L41.6529 20.7182C40.752 20.3814 39.8428 20.0783 38.9419 19.7542L39.2745 18.8154L41.9897 19.7921Z" fill="#180551"/>
<path d="M42.584 35.0834C42.5419 36.0179 41.7421 35.8116 41.1443 35.8495L35.1793 36.2368L35.1119 35.176C34.0764 34.1109 33.2134 33.2859 32.422 32.4018C30.9823 30.7769 29.5679 29.1352 28.145 27.4934L28.8775 26.8662C31.458 29.5604 34.0343 32.2587 36.6526 35.0034C38.0418 34.9192 39.532 34.7887 41.0264 34.755C41.5695 34.7424 42.5882 34.9908 42.584 35.0834Z" fill="#180551"/>
<path d="M40.7906 78.2444C40.7906 78.3833 40.7906 78.5138 40.8117 78.6653C40.4718 78.7755 40.1166 78.8309 39.7593 78.8295C38.4375 78.6106 37.1325 78.2991 35.8149 78.076C34.1177 77.7449 32.3697 77.7758 30.6853 78.1668C29.0009 78.5578 27.418 79.3001 26.0402 80.345C24.6678 81.3595 23.2366 82.2982 21.8053 83.2917L20.9634 82.5466C24.0785 80.1892 27.0168 77.6171 31.0412 76.9688C34.4341 76.409 37.6292 77.234 40.7906 78.2444Z" fill="#180551"/>
<path d="M38.4922 65.1692C39.2625 64.1252 40.3655 63.7506 41.1821 64.3273C40.3697 65.3586 39.5109 65.6196 38.4922 65.1692Z" fill="#4D3826"/>
<path d="M40.1926 38.9918C40.1926 39.1097 40.2221 39.2276 40.2389 39.3454L39.4938 39.8801C39.4938 40.3221 39.6201 40.7514 39.4601 40.9367C39.3002 41.1219 38.8624 41.0503 38.5424 41.0672C37.8352 41.1092 37.0607 40.9619 36.4376 41.2019L36.2187 41.2903L35.9493 40.6167C35.9493 40.4736 35.9199 40.3263 35.9072 40.1958C35.2084 39.9895 34.5012 39.8001 33.8024 39.5727C32.047 38.9918 30.2958 38.4151 28.5488 37.8258L28.8645 36.8828C28.9261 36.913 28.9894 36.9397 29.054 36.9628C31.4703 37.6953 33.8992 38.3688 36.2903 39.1686C36.7585 39.3543 37.2609 39.438 37.7639 39.414C38.267 39.3901 38.7592 39.259 39.2076 39.0297C39.53 38.951 39.865 38.9382 40.1926 38.9918Z" fill="#180551"/>
<path d="M38.5135 63.1289C38.644 63.1626 38.7198 63.3983 38.9344 63.7266C38.404 64.2528 37.8862 64.7664 37.36 65.28C37.2295 65.099 36.9391 64.859 36.9812 64.7538C37.2576 64.2219 37.5772 63.7136 37.9368 63.2341C38.0179 63.1725 38.1123 63.1309 38.2125 63.1126C38.3127 63.0943 38.4158 63.0999 38.5135 63.1289Z" fill="#4D3826"/>
<path d="M37.5367 47.0767C37.5367 47.1525 37.5746 47.2325 37.5956 47.3124C36.0409 48.4743 34.4875 49.6361 32.9356 50.798L32.603 50.6801C32.7546 49.5477 32.8809 48.4069 33.0871 47.283C33.1355 47.1513 33.2152 47.0335 33.3194 46.9396C33.4235 46.8457 33.549 46.7786 33.6849 46.7441C34.973 46.8157 36.257 46.9588 37.5367 47.0767Z" fill="#F79221"/>
<path d="M35.1119 35.1768L35.1793 36.2376C33.4421 36.3498 31.7049 36.4607 29.9678 36.5701C29.5468 36.5954 29.1258 36.5701 28.7049 36.5701C28.7049 36.6333 28.7049 36.7006 28.6754 36.7638C28.7416 36.7927 28.8062 36.825 28.8691 36.8606L28.5533 37.8036C27.0519 37.3012 25.5491 36.7932 24.0448 36.2797C23.7965 36.1955 23.6239 35.8292 23.4429 35.5977C23.7524 35.4171 24.0917 35.2931 24.4448 35.2315C25.1604 35.2315 25.8718 35.463 26.5875 35.4462C29.3447 35.3957 32.102 35.2778 35.1119 35.1768Z" fill="#180551"/>
<path d="M31.8117 26.0906L31.6391 27.0377L29.1133 26.5705L28.8944 26.8567L28.1619 27.484C27.9599 27.244 27.741 27.0083 27.5473 26.7683C27.2199 26.4221 26.924 26.0474 26.6633 25.6486C26.5494 25.3692 26.4798 25.0738 26.457 24.773C26.8148 24.7267 27.2695 24.512 27.5136 24.6593C28.8513 25.3848 30.3061 25.8692 31.8117 26.0906Z" fill="#180551"/>
<path d="M30.4689 52.6865L31.054 53.4737L29.1934 54.8503L28.583 54.0083C28.9039 53.6961 29.2599 53.422 29.6438 53.1917C29.932 53.0457 30.2079 52.8768 30.4689 52.6865Z" fill="#180551"/>
<path d="M29.1479 54.8856L29.3078 55.2182L29.0931 56.2622C28.3059 56.2622 27.5061 56.4726 26.8452 55.6349C27.4346 55.0877 27.9986 54.5446 28.5838 54.0269L29.1942 54.8688L29.1479 54.8856Z" fill="#180551"/>
<path d="M20.2478 83.153C20.4877 82.993 20.9171 83.1067 21.2623 83.0982C21.2394 83.4113 21.1699 83.7192 21.056 84.0117C20.9339 84.2306 20.635 84.3485 20.4119 84.5127L20.2225 84.3611C20.3151 84.1633 20.4119 83.9696 20.5088 83.7718C20.4793 83.7465 20.454 83.7128 20.4246 83.6876C20.2688 83.8728 20.0036 84.037 19.9783 84.2433C19.7468 85.5061 17.8735 87.089 16.6822 87.2195C16.1644 87.2784 15.3604 87.712 15.2804 88.095C15.0278 89.3242 14.1017 89.7789 13.2177 90.2967C12.7968 90.5535 12.3253 90.7513 11.8033 91.0165C11.7382 90.7092 11.7691 90.3894 11.8918 90.1002C12.0146 89.8111 12.2232 89.5667 12.4895 89.4C14.3206 88.074 16.0634 86.6301 17.8651 85.262C18.2965 84.9967 18.7535 84.7752 19.229 84.6011L18.7239 84.5085C19.1979 84.0199 19.7073 83.5668 20.2478 83.153Z" fill="#180551"/>
<path d="M15.584 88.7011C15.584 87.8255 15.9208 87.3625 17.0068 87.4972L15.584 88.7011Z" fill="#4D3826"/>
</svg>
