<svg width="131" height="78" viewBox="0 0 131 78" fill="none" xmlns="http://www.w3.org/2000/svg">
<g filter="url(#filter0_d)">
<path d="M126.618 54.5167C126.664 54.9688 126.618 55.6071 126.359 55.8731C125.588 56.6063 124.789 57.3434 123.538 57.3928C120.47 57.5372 117.409 57.8791 114.345 57.9817C110.655 58.1109 106.957 58.0805 103.264 58.1033C102.067 58.1033 100.867 58.0463 99.6667 58.0387C99.4352 58.0387 99.0801 58.0387 98.9836 58.1945C98.2811 59.2431 97.459 58.601 96.6678 58.3844C95.8766 58.1679 95.2205 57.8829 94.4795 57.7043C94.0214 57.6573 93.5596 57.6573 93.1016 57.7043C93.2714 58.2324 93.3679 58.639 93.53 59.0151C94.0202 60.1549 94.5335 61.2947 95.043 62.4345C95.4598 63.3729 95.1472 63.8327 94.1012 63.7871C91.8125 63.6921 89.8364 62.6473 87.8333 61.7164C86.1042 60.9135 84.3841 60.0967 82.6731 59.2659C81.9012 58.8859 81.191 58.449 80.4538 58.0387C80.5426 59.2507 80.7703 60.4551 80.6892 61.6442C80.6005 62.9968 81.1177 64.4026 80.3496 65.7247C80.2084 66.0122 79.9898 66.2559 79.7176 66.4294C79.4454 66.6029 79.13 66.6996 78.8058 66.7088C77.5653 66.8023 76.3343 66.435 75.3553 65.6791C72.2677 63.4565 70.2993 60.4133 68.6706 57.104C68.5763 56.9076 68.4132 56.7511 68.2113 56.6633C68.0299 57.4536 67.8253 58.24 67.6748 59.0341C67.4278 60.4323 67.2387 61.8418 67.0071 63.24C66.7601 64.7179 66.5285 66.2035 66.2352 67.67C66.1348 68.1525 65.8994 68.8592 65.552 68.9884C64.8496 69.2353 63.9658 69.2505 63.4524 68.4982C62.5223 67.1419 61.4725 65.8387 60.8048 64.3532C59.8206 62.1724 59.122 59.8624 58.2999 57.6056C58.242 57.446 58.1533 57.294 57.9835 56.9407C57.4585 57.7803 56.9838 58.4604 56.5979 59.1823C55.826 60.6602 55.0888 62.1762 54.2821 63.6503C53.7456 64.6343 52.993 65.3486 51.7039 65.2194C50.5885 65.1054 50.0019 64.414 49.6661 63.4793C48.79 61.025 47.9563 58.5402 47.0763 56.006C46.9249 56.116 46.7817 56.2366 46.6479 56.367C43.5101 59.8852 40.9744 63.7909 38.6084 67.8106C38.4205 68.1925 38.1079 68.5015 37.7207 68.6882C37.155 68.8662 36.5507 68.8898 35.9724 68.7566C35.7678 68.7034 35.6713 67.9967 35.6404 67.5826C35.4166 64.8281 35.2275 62.0736 35.0113 59.3191C34.9496 58.5326 34.8454 57.7461 34.7489 56.9635C34.7103 56.6443 34.637 56.329 34.5173 55.6983C33.7994 56.5303 33.2321 57.142 32.7149 57.7917C31.3062 59.5622 29.8974 61.3327 28.5311 63.1336C27.9676 63.8745 27.2189 64.0036 26.3968 63.9315C25.7021 63.8745 25.4782 63.3387 25.5014 62.7499C25.5747 60.8502 25.6828 58.9277 25.7947 57.0205C25.8449 56.1466 25.9452 55.2766 26.0379 54.2431C23.7221 55.3412 21.526 56.367 19.3454 57.408C17.6549 58.2134 16.003 59.1139 14.2623 59.8054C13.4904 60.1093 12.5641 60.0409 11.7034 60.0257C11.3573 59.9485 11.0546 59.743 10.8582 59.452C10.781 59.3571 10.9894 58.9543 11.1592 58.7719C13.7657 56.0136 16.3799 53.2642 19.0019 50.5236L20.5071 48.9621C18.5271 49.437 16.8135 49.8625 15.1037 50.2614C12.5911 50.8427 10.0863 51.4012 7.55827 51.9597C7.29585 52.0536 7.01093 52.0682 6.74005 52.0015C6.34329 51.7622 5.96875 51.4888 5.62077 51.1847C5.85817 50.9035 6.12607 50.6487 6.4197 50.4248C7.67792 49.6649 8.93999 48.9051 10.2368 48.1984C13.0234 46.7015 15.837 45.2463 18.6391 43.7684C18.9864 43.586 19.3184 43.3885 19.8819 43.0465C19.3801 42.8945 19.0906 42.7768 18.7896 42.716C16.4353 42.2651 14.0784 41.8168 11.7189 41.371C9.59742 40.9899 7.54586 40.2983 5.63235 39.3194C5.24639 39.1104 5.01096 38.5975 4.70605 38.2289C5.07003 37.9543 5.4732 37.7341 5.90252 37.5755C7.75746 37.1283 9.63436 36.7745 11.5259 36.5155C14.5904 36.1811 17.6742 36.0253 20.7541 35.7974C21.0525 35.7979 21.3461 35.7233 21.6071 35.5808C20.9432 35.2465 20.2562 34.9501 19.6194 34.5702C17.3037 33.1758 15.0149 31.7549 12.7185 30.3415C12.5882 30.2576 12.4689 30.158 12.3634 30.0452C11.9775 29.6653 11.4063 29.3309 11.275 28.875C11.1438 28.4191 12.6182 27.473 13.2048 27.5376C14.5209 27.6782 15.8332 27.8834 17.1454 28.0657C17.4117 28.1037 17.678 28.1569 18.2261 28.2519C17.9251 26.5954 17.6394 25.0984 17.3886 23.5939C17.3268 23.2368 17.2535 22.6137 17.3886 22.5453C17.7745 22.3553 18.4036 22.1996 18.7356 22.3857C19.9243 23.0468 21.0281 23.8599 22.1667 24.6083L26.9178 27.7238L27.1263 27.5756C26.5975 26.1053 26.1035 24.6159 25.5245 23.1646C24.8761 21.5347 24.1197 19.9466 23.4674 18.3166C23.2397 17.7505 23.6179 17.382 24.1737 17.2642C24.4176 17.2207 24.6692 17.2553 24.8916 17.363C27.8943 18.8827 31.2444 18.9891 34.4594 19.6426C34.7875 19.711 35.1194 19.7718 35.4513 19.8478C36.4741 20.0833 36.5243 20.0035 36.6092 19.0043C36.8665 15.5165 37.1598 12.0325 37.4892 8.55235C37.5201 8.21041 37.8327 7.89506 38.1183 7.38215V6.66028C38.5313 6.66028 39.0446 6.50451 39.3379 6.69068C40.0352 7.124 40.6612 7.65954 41.1944 8.27879C42.8964 10.319 44.5367 12.4125 46.177 14.5021C46.5823 15.0188 46.9065 15.6001 47.4391 16.4018C47.8251 15.0796 48.1879 14.0234 48.4696 12.952C49.1914 10.1861 49.8513 7.40875 50.604 4.65043C50.8007 3.97694 51.1212 3.34466 51.5496 2.78495C51.839 2.38602 52.4141 1.85032 52.7653 1.91491C53.0505 1.9869 53.3171 2.11713 53.5478 2.29713C53.7785 2.47713 53.9682 2.70288 54.1046 2.95973C54.9035 4.66183 55.5249 6.43992 56.2698 8.16862C56.7831 9.36161 57.3852 10.5204 58.0298 11.854C58.9792 10.8016 59.7781 9.85552 60.6427 8.97028C63.3444 6.21956 66.0461 3.47644 68.8057 0.782708C68.999 0.653559 69.2186 0.567302 69.4492 0.52991C69.6798 0.492518 69.9158 0.504881 70.1411 0.566144C70.321 0.648809 70.4775 0.773878 70.5967 0.930274C70.7158 1.08667 70.794 1.26957 70.8242 1.46279C70.8551 3.21428 70.8242 4.97337 70.7393 6.72487C70.6312 8.69672 70.4344 10.661 70.2607 12.6252C70.2067 13.2559 70.1063 13.879 70.0098 14.6465C70.6544 14.3463 71.2333 14.107 71.7852 13.8182C76.2237 11.493 80.6622 9.14884 85.1007 6.84644C85.5951 6.61881 86.1379 6.51194 86.6832 6.5349C87.7638 6.5539 88.1228 7.18078 87.6094 8.09262C86.4091 10.2392 85.1818 12.3669 83.9622 14.5021C83.6611 15.0226 83.3446 15.5317 82.9664 16.1624C85.232 15.4557 87.3817 14.8364 89.4929 14.1184C92.7504 13.0052 95.977 11.8122 99.2267 10.699C99.6401 10.5866 100.073 10.5633 100.497 10.6306C101.207 10.7066 101.519 11.2157 101.122 11.7704C99.6165 13.8752 98.0341 15.9496 96.4903 18.0241C95.8766 18.8485 95.2591 19.673 94.5991 20.4595C93.6111 21.6373 91.855 24.2132 90.8013 25.5316C91.0628 25.4763 91.3206 25.4053 91.5732 25.3188C93.8426 24.5324 96.0657 23.6205 98.3467 22.891C100.014 22.3629 101.751 22.0324 103.468 21.6487C103.923 21.5681 104.387 21.5541 104.846 21.6069C105.869 21.698 106.062 21.9868 105.618 22.9024C103.688 26.736 101.944 30.6721 99.385 34.1713C99.246 34.3612 99.138 34.574 98.8678 35.0299C100.215 35.0299 101.361 35.0033 102.507 35.0299C106.089 35.1211 109.672 35.2287 113.256 35.3529C113.913 35.368 114.564 35.4807 115.186 35.6872C115.537 35.8088 115.784 36.2153 116.078 36.4965C115.831 36.7206 115.618 37.0474 115.306 37.1613C112.509 38.2479 109.703 39.3143 106.888 40.3604C105.73 40.7859 104.572 41.1658 103.183 41.656C103.799 42.0024 104.436 42.3132 105.089 42.5868C106.888 43.2023 108.706 43.776 110.524 44.3497C112.253 44.893 113.997 45.3679 115.715 45.9682C116.162 46.124 116.487 46.6407 116.873 46.994C116.525 47.3436 116.232 47.8603 115.811 48.0046C114.73 48.3288 113.632 48.5989 112.523 48.8139C112.299 48.8671 112.067 48.8785 111.689 48.9317C113.909 50.4172 116.244 51.1277 118.671 51.6406C120.809 52.0965 122.917 52.6322 125.043 53.1945C125.719 53.3731 126.533 53.6391 126.618 54.5167ZM124.017 55.4589C124.214 55.4019 124.499 55.0068 124.449 54.87C124.394 54.7359 124.309 54.6152 124.202 54.5162C124.095 54.4172 123.967 54.3422 123.828 54.2963C121.794 53.8138 119.763 53.3199 117.706 52.9438C115.473 52.5974 113.333 51.8146 111.411 50.6414C109.047 49.1221 106.259 48.3689 103.438 48.4872C102.745 48.5385 102.055 48.6273 101.373 48.7531C101.454 48.9545 101.461 49.0267 101.5 49.0609C101.616 49.1596 101.747 49.2432 101.867 49.3382C103.534 50.687 105.263 51.9977 106.139 54.0228C106.242 54.3731 106.303 54.7339 106.321 55.098C105.935 55.1436 105.487 55.3298 105.143 55.2196C102.924 54.5053 100.736 53.6998 98.5204 52.9856C97.3355 52.6056 96.1121 52.3245 94.9079 51.9977L94.6724 52.2637C95.263 53.0805 95.8303 53.905 96.4478 54.7067C97.158 55.6527 97.8566 56.5113 99.2885 56.5151C103.079 56.5151 106.873 56.7279 110.666 56.7165C113.87 56.7165 117.077 56.5683 120.273 56.3366C121.535 56.2568 122.782 55.8009 124.017 55.4589ZM54.1277 10.6268L53.873 10.4292C53.8228 11.8996 52.7808 11.93 51.731 11.949L51.7078 12.1807L53.2902 13.2141C53.5913 12.2643 53.8576 11.436 54.1277 10.6078V10.6268Z" fill="#4D3826"/>
<path d="M124.448 54.8699C124.499 55.0067 124.213 55.4018 124.016 55.4588C122.781 55.8007 121.534 56.2566 120.272 56.3478C117.077 56.5682 113.869 56.705 110.666 56.7278C106.872 56.7278 103.078 56.534 99.2879 56.5264C97.856 56.5264 97.1574 55.664 96.4473 54.7179C95.8413 53.9163 95.2624 53.0918 94.6719 52.2749L94.9073 52.009C96.1115 52.3357 97.335 52.6131 98.5199 52.9968C100.735 53.7149 102.924 54.5165 105.143 55.2308C105.486 55.341 105.915 55.1548 106.32 55.1093C106.302 54.7451 106.241 54.3843 106.139 54.034C105.263 51.9938 103.533 50.6982 101.866 49.3495C101.746 49.2545 101.615 49.1709 101.499 49.0721C101.461 49.0379 101.453 48.9657 101.372 48.7644C102.055 48.6385 102.744 48.5497 103.437 48.4984C106.258 48.3801 109.046 49.1334 111.411 50.6526C113.332 51.8258 115.472 52.6087 117.706 52.955C119.763 53.335 121.793 53.8251 123.827 54.3076C123.965 54.3522 124.092 54.4254 124.2 54.5224C124.307 54.6194 124.392 54.7379 124.448 54.8699ZM122.465 55.3676C122.31 55.1244 122.214 54.7445 121.998 54.6609C121.15 54.334 120.279 54.0686 119.392 53.8669C119.242 53.8607 119.092 53.8923 118.957 53.9588C118.822 54.0252 118.706 54.1243 118.62 54.2468C118.597 54.3994 118.614 54.5552 118.67 54.6996C118.725 54.8439 118.817 54.9718 118.937 55.0713C119.705 55.4319 120.49 55.754 121.291 56.0363C121.72 55.8007 122.094 55.588 122.465 55.3676Z" fill="#C8A468"/>
<path d="M121.998 54.6624C122.214 54.746 122.31 55.1259 122.465 55.3691C122.079 55.5895 121.72 55.8022 121.307 56.053C120.506 55.7707 119.72 55.4486 118.952 55.088C118.833 54.9885 118.741 54.8606 118.685 54.7163C118.63 54.572 118.613 54.4161 118.636 54.2635C118.721 54.141 118.837 54.0419 118.972 53.9755C119.107 53.909 119.257 53.8774 119.408 53.8836C120.289 54.0811 121.155 54.3414 121.998 54.6624Z" fill="#4D3826"/>
<path d="M53.8722 10.4121L54.127 10.6097C53.8568 11.4379 53.5905 12.2662 53.2895 13.197L51.707 12.1636L51.7302 11.9318C52.7723 11.9128 53.8221 11.8825 53.8722 10.4121Z" fill="#4D3826"/>
</g>
<defs>
<filter id="filter0_d" x="0.706055" y="0.508789" width="129.928" height="76.6314" filterUnits="userSpaceOnUse" color-interpolation-filters="sRGB">
<feFlood flood-opacity="0" result="BackgroundImageFix"/>
<feColorMatrix in="SourceAlpha" type="matrix" values="0 0 0 0 0 0 0 0 0 0 0 0 0 0 0 0 0 0 127 0"/>
<feOffset dy="4"/>
<feGaussianBlur stdDeviation="2"/>
<feColorMatrix type="matrix" values="0 0 0 0 0 0 0 0 0 0 0 0 0 0 0 0 0 0 0.25 0"/>
<feBlend mode="normal" in2="BackgroundImageFix" result="effect1_dropShadow"/>
<feBlend mode="normal" in="SourceGraphic" in2="effect1_dropShadow" result="shape"/>
</filter>
</defs>
</svg>
