<svg width="99" height="129" viewBox="0 0 99 129" fill="none" xmlns="http://www.w3.org/2000/svg">
<g filter="url(#filter0_d)">
<path d="M94.9052 49.3192C94.9626 49.5937 95.0159 50.0094 94.8642 50.1587C94.7445 50.2704 94.5996 50.3528 94.4415 50.399C94.2833 50.4453 94.1163 50.4543 93.954 50.4251C93.3496 50.1472 92.7956 49.7736 92.3139 49.3192C91.4488 48.4555 90.6739 47.5029 89.8538 46.5867L89.6775 46.6957C89.8743 47.1598 90.0875 47.624 90.2761 48.0882C92.0761 52.2737 92.7363 56.7135 93.2242 61.1856C93.2075 61.3858 93.1503 61.5808 93.056 61.7589C92.9616 61.9371 92.832 62.0948 92.6747 62.2229C92.5722 62.3157 92.0843 61.9969 91.6989 61.8193C91.7604 62.0413 91.826 62.3319 91.9244 62.6063C92.7661 65.0729 93.3044 67.6299 93.5276 70.2226C93.5973 70.8805 93.6424 71.5465 93.7203 72.2084C93.7506 72.3129 93.7547 72.423 93.7322 72.5293C93.7096 72.6357 93.6612 72.735 93.591 72.8188C93.5208 72.9026 93.4309 72.9684 93.3292 73.0104C93.2274 73.0524 93.1168 73.0695 93.0069 73.06C92.806 73.06 92.5189 72.6564 92.4328 72.4102C91.9982 71.1429 91.6374 69.8513 91.2028 68.5799C91.0435 68.1095 90.7706 67.6843 90.4074 67.3408C90.4607 68.0148 90.5468 68.6848 90.5631 69.3589C90.6042 71.163 90.6534 72.9713 90.6247 74.7795C90.6001 76.4545 90.5098 78.1335 90.3827 79.8086C90.3581 80.1476 90.0424 80.4705 89.862 80.8015C89.543 80.6191 89.2435 80.4054 88.9682 80.1637C88.7655 79.921 88.5883 79.6586 88.4393 79.3807C88.6976 80.5714 89.042 81.9235 89.2798 83.2958C89.6324 85.3139 89.9399 87.332 90.1859 89.3501C90.2269 89.6811 89.8702 90.0645 89.698 90.4237C89.411 90.23 89.0174 90.1008 88.878 89.8344C88.1154 88.5106 87.4183 87.1544 86.6926 85.7983C86.627 85.6731 86.5532 85.552 86.3687 85.2291C86.3687 86.44 86.4015 87.4491 86.3687 88.4581C86.2252 91.4933 85.9587 94.5124 84.7778 97.3821C84.5063 98.1311 84.2912 98.8987 84.1341 99.6787C83.9496 100.401 83.6216 100.611 82.9409 100.438C82.3874 102.133 81.8503 103.828 81.264 105.503C81.1738 105.761 80.854 105.951 80.6489 106.173C80.4357 105.955 80.1159 105.769 80.0421 105.515C79.7961 104.643 79.6321 103.751 79.4025 102.657C79.2969 102.848 79.2104 103.048 79.1442 103.255C78.7957 105.479 77.5041 107.243 76.1962 108.974C76.0281 109.196 75.6918 109.289 75.4376 109.438C75.2807 109.192 75.1748 108.918 75.126 108.631C75.167 107.795 75.29 106.96 75.3802 106.157C74.3388 107.162 73.3301 108.175 72.2559 109.16C71.8828 109.503 71.4892 109.967 70.8372 109.624C70.747 109.579 70.5256 109.688 70.4272 109.781C67.6227 112.223 64.3344 113.817 60.8697 115.125C57.6101 116.364 54.3095 117.503 50.8161 117.692C49.8075 117.745 48.766 117.212 47.5647 116.905C47.0358 117.607 46.3757 118.52 45.6745 119.404C45.3486 119.827 44.9729 120.21 44.5552 120.546C44.3707 120.695 44.0303 120.651 43.7556 120.695C43.7269 120.445 43.5957 120.15 43.6859 119.948C44.1534 118.907 44.6741 117.89 45.1784 116.861C45.2563 116.703 45.3424 116.55 45.5433 116.175C44.3133 116.732 43.2882 117.196 42.2632 117.668L41.8737 116.897C42.46 116.606 43.0463 116.32 43.6449 116.049C45.0103 115.432 46.4126 114.887 47.7902 114.298C47.9009 114.253 48.0608 114.112 48.0444 114.044C48.0277 113.972 47.9962 113.904 47.9517 113.845C47.9073 113.786 47.8509 113.737 47.7861 113.7C47.2859 113.515 46.7734 113.373 46.146 113.176C46.3182 114.116 46.0189 114.387 44.9652 114.548C42.5994 114.871 41.0249 116.449 39.3931 117.951C39.5291 117.986 39.6734 117.976 39.8031 117.922L40.1516 118.653C39.4915 118.964 38.8272 119.27 38.1548 119.565C37.9457 119.654 37.6341 119.513 37.3676 119.476C37.373 119.232 37.4187 118.991 37.5029 118.762C38.3803 117.289 39.8687 116.441 41.1151 115.351C41.2258 115.25 41.3365 115.166 41.4021 115.113L38.1015 115.492L38.0113 114.685L44.5921 113.297C42.6979 113.075 40.7773 113.309 38.9953 113.979L38.6796 113.172L39.8482 112.732C38.8284 112.438 37.7389 112.481 36.7465 112.855C35.7542 113.229 34.9138 113.913 34.354 114.802L33.8332 115.315C33.5229 115.732 33.1637 116.111 32.7631 116.445C32.1341 116.89 31.4438 117.245 30.713 117.498C30.139 117.688 29.893 117.317 30.1554 116.784C30.5654 115.977 31.0779 115.214 31.5412 114.435L32.0825 113.503L31.9308 113.353C30.8934 113.902 29.8807 114.496 28.8146 114.968C27.9003 115.371 26.9737 115.775 26.0388 116.179L25.6985 115.371C28.0028 114.255 30.3044 113.137 32.6032 112.017C32.5458 111.896 32.4884 111.771 32.4351 111.646L25.6985 114.956L25.3746 114.318C26.2691 113.721 27.2326 113.23 28.2447 112.857C28.4664 112.756 28.6766 112.633 28.872 112.49C28.9294 112.457 28.9499 112.368 29.0401 112.215C27.8101 112.368 26.6866 112.578 25.5427 112.619C24.6583 112.62 23.7753 112.552 22.9022 112.413C22.7669 112.413 22.5414 112.142 22.566 112.066C22.6309 111.873 22.767 111.712 22.9473 111.614C23.9682 111.186 24.9974 110.782 26.0347 110.403C26.3836 110.305 26.7383 110.228 27.0967 110.173C26.5923 109.878 26.2766 109.725 25.9896 109.527C25.8133 109.402 25.5427 109.192 25.5796 109.059C25.6141 108.95 25.6745 108.851 25.7558 108.769C25.8371 108.688 25.9369 108.626 26.047 108.591C26.8211 108.351 27.6178 108.188 28.4251 108.106C30.5367 108.009 32.6524 108.066 34.7558 107.937C35.8713 107.863 36.9732 107.653 38.0359 107.311C40.3197 106.577 42.5707 105.741 44.8217 104.889C44.998 104.829 45.1497 104.486 45.162 104.252C45.2891 101.451 45.2522 98.6414 45.5392 95.8564C45.736 93.9392 46.3797 92.0705 46.8062 90.1775C46.8832 89.9138 46.8832 89.634 46.8062 89.3703C45.4449 85.9113 44.0181 82.4684 42.6855 78.9973C41.6098 76.2874 40.9787 73.4263 40.8158 70.5213C40.7474 69.5424 40.7611 68.5596 40.8568 67.5829C41.0044 66.3923 40.0737 66.5416 39.3808 66.2349C39.3803 66.436 39.4037 66.6364 39.4505 66.8322C40.3361 69.0763 40.3402 71.4617 40.6354 73.8027C41.111 77.625 40.6969 81.419 40.3648 85.209C40.2126 87.6012 39.8685 89.9779 39.3357 92.3167C38.7903 94.464 37.6956 96.4659 36.974 98.5728C36.455 100.035 35.702 101.405 34.7435 102.633C32.6934 105.354 29.7331 106.669 26.4775 107.311C24.1691 107.771 21.8033 108.207 19.4662 107.578C18.2187 107.22 17.0165 106.725 15.8827 106.1C13.8624 105.028 12.1405 103.484 10.8682 101.604C9.77288 99.9173 8.8014 98.1557 7.96117 96.3327C6.53022 93.3984 5.88239 90.2058 5.27557 87.0495C4.92296 85.2009 4.94755 83.2797 4.89424 81.3988C4.82864 79.1063 4.74664 76.8056 4.89424 74.5373C5.04599 72.145 5.34035 69.7636 5.77579 67.4053C6.35801 64.2369 8.03907 61.5448 9.98255 59.0101C11.7989 56.6449 13.6153 54.2676 15.9319 52.3463C16.879 51.5633 17.8918 50.5664 19.0152 50.3282C21.4753 49.8116 23.9846 49.1174 26.5718 49.6703C27.4411 49.8479 28.3308 49.9367 29.2124 50.0497C30.8524 50.2596 31.8528 51.4342 32.9435 52.4271C33.8133 53.2901 34.6151 54.2171 35.3421 55.1999C35.6496 55.6035 35.9366 55.6964 36.3753 55.4582C37.6464 54.7559 38.9338 54.0698 40.2049 53.3675C41.3365 52.809 42.432 52.1822 43.485 51.4907C46.0599 49.6098 49.0244 48.1971 50.9514 45.5292C51.1687 45.2305 51.3984 44.9359 51.6444 44.6049C50.8817 44.1731 50.1929 43.8259 49.5533 43.3941C48.2043 42.5061 46.8882 41.5737 45.5474 40.6777C44.2067 39.7817 42.5994 39.3902 40.9798 39.1319C39.6965 38.926 38.4295 38.6273 37.1503 38.3932C36.7638 38.2856 36.3583 38.2608 35.9612 38.3206C34.0546 38.8009 32.144 38.5063 30.221 38.4619C27.3263 38.3892 24.4275 38.3973 21.5327 38.3892C20.1469 38.3892 19.1751 37.6788 18.3879 36.6617C18.2514 36.4806 18.157 36.2722 18.1115 36.0512C18.0659 35.8302 18.0703 35.6021 18.1243 35.3829C18.1783 35.1638 18.2806 34.959 18.4239 34.7831C18.5672 34.6072 18.7481 34.4645 18.9537 34.3651C22.1929 32.4923 25.4812 30.7003 28.4087 28.3351C30.8688 26.3412 32.8492 23.9195 34.969 21.6108C36.5803 19.851 38.3311 18.2083 40.4755 17.0579C42.0336 16.2184 43.6449 15.4677 45.203 14.6362C46.2896 14.0429 47.3064 13.3366 48.3724 12.715C50.4225 11.5284 52.6735 11.036 54.9819 10.6444C57.36 10.2408 59.7094 9.74034 62.1613 9.92197C63.1453 9.99866 64.154 9.71209 65.1503 9.60715C67.5079 9.35287 69.8163 9.71209 72.096 10.2247C74.3757 10.7373 76.5488 11.3629 78.767 11.9643C78.9802 12.0208 79.1401 12.271 79.3246 12.4284C79.1278 12.6101 78.9556 12.8966 78.726 12.9572C77.8198 13.1953 76.8932 13.3608 75.9994 13.5545C76.8973 14.1963 77.8977 14.7654 78.6809 15.508C81.2034 18.0001 83.5039 20.7008 85.5568 23.5804C86.0899 24.3271 85.4215 24.3877 84.9295 24.6339C85.7127 25.5541 86.5696 26.4138 87.2379 27.3785C88.5828 29.2876 89.8374 31.2573 91.1085 33.2148C91.2233 33.3924 91.2479 33.8323 91.1495 33.8969C91.0244 33.9867 90.8824 34.0512 90.7318 34.0865C90.5811 34.1219 90.4249 34.1274 90.272 34.1028C89.2839 33.7435 88.3245 33.2955 87.3527 32.8919C87.2907 32.858 87.222 32.8375 87.1513 32.832C87.0805 32.8264 87.0094 32.8358 86.9427 32.8596C87.6151 33.57 88.2876 34.2804 88.9682 34.9827C90.3757 36.4654 91.5032 38.1835 92.2975 40.0561C92.3443 40.1686 92.3638 40.2903 92.3546 40.4115C92.3453 40.5327 92.3075 40.6501 92.2442 40.7544C92.1425 40.8423 92.0213 40.9056 91.8903 40.9392C91.7593 40.9728 91.6222 40.9759 91.4898 40.9481C90.7887 40.6212 90.1367 40.1934 89.3823 39.8786C89.575 40.1086 89.7636 40.3427 89.9645 40.5607C92.0884 42.8169 93.2775 45.6019 94.528 48.3545C94.6851 48.6634 94.8114 48.9864 94.9052 49.3192ZM76.5693 54.9497C76.5557 54.7942 76.5226 54.641 76.4709 54.4936C75.0153 56.5964 73.6213 58.6307 72.1985 60.6447C71.8787 61.0968 71.44 61.678 70.8331 61.3228C70.6158 61.1937 70.6896 60.4106 70.788 59.9586C71.2637 57.7952 71.8951 55.6641 72.2723 53.5007C72.793 50.5058 73.1415 47.4827 73.5598 44.4677C73.6377 43.9026 73.6951 43.3335 73.7648 42.7644C73.0689 43.737 72.423 44.7433 71.8295 45.7795C71.4893 46.3827 71.0999 46.9577 70.665 47.4989C70.5543 47.6023 70.4188 47.6765 70.2711 47.7146C70.1235 47.7527 69.9684 47.7535 69.8204 47.7168C69.64 47.6482 69.4842 47.2002 69.517 46.95C69.8983 44.1246 70.3165 41.2993 70.7183 38.474C70.9028 37.1864 71.0792 35.8948 71.2555 34.6113C70.9562 34.7566 70.8454 34.9907 70.6773 35.128C70.3739 35.354 70.0131 35.6688 69.681 35.6607C69.435 35.6607 69.1316 35.2369 68.9758 34.9383C68.82 34.5969 68.7297 34.2302 68.7093 33.8566C68.3812 30.2684 68.0737 26.6762 67.7539 23.088C67.6883 22.418 67.5776 21.752 67.4874 21.0699C66.6433 22.3632 66.1052 23.8268 65.9129 25.3523C65.8227 25.877 65.7202 26.3694 65.0642 26.4623C64.4082 26.5551 64.2155 26.0385 64.0187 25.5622C62.7886 22.6279 61.0009 20.1295 58.2784 18.398C55.9885 17.0036 53.5014 15.9509 50.8981 15.274C49.9399 14.9769 48.9307 14.8735 47.9309 14.9699C46.9311 15.0663 45.9614 15.3606 45.08 15.835C44.26 16.2749 43.4399 16.7552 42.6199 17.1952C41.1766 17.9621 39.676 18.628 38.5197 19.8429C37.671 20.7309 36.6336 21.4574 35.8259 22.3736C33.866 24.5854 32.1645 27.0193 29.6757 28.7467C28.0766 29.8607 26.58 31.116 24.9564 32.1977C23.6238 33.0897 22.1724 33.8122 20.7783 34.6194C20.4078 34.8393 20.0518 35.0819 19.7123 35.3459C19.6201 35.4042 19.5423 35.4821 19.4847 35.5738C19.4271 35.6655 19.3911 35.7688 19.3793 35.876C19.3675 35.9832 19.3802 36.0917 19.4165 36.1934C19.4529 36.2951 19.5119 36.3876 19.5893 36.4639C20.2986 37.4568 21.3441 37.3761 22.3856 37.3519C23.8452 37.3196 25.309 37.3277 26.7646 37.2994C28.6998 37.2591 30.6351 37.1985 32.5704 37.1501C32.7303 37.1501 32.9517 37.1178 33.0419 37.2026C33.6692 37.804 34.3417 37.4205 35.0182 37.368C35.8236 37.2954 36.6345 37.3075 37.4373 37.4044C38.7247 37.5779 39.9876 37.9331 41.275 38.0865C44.0919 38.4094 46.4494 39.6485 48.6143 41.3881C49.5834 42.1025 50.5997 42.7524 51.6567 43.3335C51.754 43.3626 51.8572 43.3671 51.9568 43.3467C52.0564 43.3262 52.1492 43.2815 52.2266 43.2165C52.5095 42.5223 52.735 41.7998 53.0056 41.0087C53.7437 41.0087 54.1537 41.2509 53.92 42.0137C53.7177 42.6568 53.4908 43.2891 53.2393 43.9107C52.4799 45.8078 51.2116 47.4665 49.5697 48.7097C47.4627 50.3008 45.273 51.7828 43.0094 53.1495C41.029 54.3604 38.9092 55.3372 36.8592 56.3785C36.4778 56.5682 36.4122 56.7821 36.5516 57.1333C37.0478 58.4571 37.5439 59.785 37.9949 61.1291C38.2129 61.7575 38.3627 62.407 38.4418 63.0664C38.4558 63.5313 38.6125 63.9811 38.8914 64.3565C39.1703 64.7319 39.5582 65.0153 40.004 65.1693C43.035 66.367 46.3044 66.8655 49.5615 66.6264C52.2307 66.4326 54.8589 65.7626 57.5076 65.3267C57.8544 65.3057 58.2026 65.3246 58.5449 65.3832C58.5859 65.5003 58.6269 65.6173 58.6639 65.7384C58.362 65.9983 58.0184 66.207 57.647 66.3559C56.417 66.6344 55.1418 66.812 53.8913 67.0542C51.6198 67.4901 49.3565 67.9502 47.0235 67.6879C45.4695 67.5103 43.9155 67.3206 42.3206 67.1309C41.8573 68.9472 42.1033 70.7635 42.4272 72.5757C43.2185 76.9671 45.0677 81.0517 46.6463 85.1888C47.6754 87.8688 49.1064 90.4035 50.3692 92.9988C50.6088 93.5322 50.8927 94.0452 51.2179 94.5326C52.6571 96.5264 54.1988 98.4557 55.5723 100.498C56.2044 101.504 56.6941 102.591 57.0279 103.727C57.1878 104.232 56.9008 104.869 56.8352 105.341C57.7454 105.309 58.6598 105.253 59.5741 105.269C59.775 105.269 59.9841 105.543 60.1686 105.693C60.0087 105.89 59.8816 106.185 59.6766 106.258C59.3225 106.371 58.9491 106.415 58.5778 106.387C57.3723 106.318 56.2899 106.431 55.4247 107.46C54.8876 108.106 54.1127 108.562 53.4648 109.127C53.0548 109.479 52.6981 109.858 52.3291 110.237C51.8291 110.85 51.2807 111.422 50.689 111.949C50.2524 112.228 49.8929 112.609 49.6425 113.059C49.3921 113.508 49.2586 114.011 49.254 114.524C49.2421 114.73 49.1663 114.927 49.0367 115.089C48.6717 115.557 48.8275 115.977 49.2909 116.11C50.1161 116.406 50.9875 116.557 51.8658 116.558C53.0252 116.428 54.1691 116.188 55.2812 115.84C60.7836 114.342 66.0237 112.304 70.3083 108.421C71.03 107.771 71.6819 107.049 72.3584 106.359L72.1903 106.189C71.8845 106.472 71.5538 106.727 71.2022 106.952C70.9168 107.039 70.6195 107.083 70.3206 107.081C70.2865 106.786 70.3101 106.487 70.3903 106.201C70.6972 105.698 71.0312 105.212 71.3908 104.744C72.4609 103.206 73.5311 101.677 74.5889 100.131C75.1055 99.372 75.5853 98.593 76.0814 97.8261C76.0178 97.8117 75.9515 97.8138 75.8889 97.8322C75.8264 97.8506 75.7698 97.8847 75.7246 97.931C74.7119 98.7383 73.7074 99.5939 72.6618 100.377C72.5344 100.43 72.3959 100.452 72.2581 100.44C72.1203 100.429 71.9873 100.385 71.8705 100.312C71.7434 100.224 71.7475 99.82 71.8254 99.602C72.1349 98.6922 72.4991 97.8013 72.916 96.9341C73.4983 95.7919 74.2937 94.7505 74.8062 93.5881C76.0363 90.791 77.1515 87.9374 78.3078 85.1121C78.4108 84.804 78.4943 84.4899 78.5579 84.1717C78.0162 84.7573 77.5109 85.3746 77.0449 86.0203C75.9748 87.328 74.9374 88.6882 73.2892 89.3582C73.0495 89.4177 72.8022 89.4422 72.5552 89.4308C72.527 89.1881 72.5408 88.9425 72.5962 88.7043C72.9775 87.8204 73.4163 86.9566 73.8263 86.0768C74.4864 84.6197 75.3228 83.203 75.7411 81.6773C76.5037 78.9206 77.0449 76.1074 77.6066 73.3063C77.8936 71.9057 78.0166 70.4809 78.238 69.0561C78.044 69.1751 77.8866 69.344 77.7829 69.5445C77.0982 70.6383 76.4955 71.7846 75.7328 72.7977C74.839 73.952 73.9698 75.2194 72.3994 75.623C71.5507 75.845 71.2842 75.623 71.5507 74.8158C71.9976 73.4435 72.506 72.0954 72.998 70.7392C74.8444 65.6409 76.0439 60.3375 76.5693 54.9497ZM76.352 106.912C77.4467 105.81 78.2586 103.61 78.1889 101.862C77.0938 103.335 76.4557 105.089 76.352 106.912ZM54.5145 106.694C55.4247 106.141 56.0397 104.381 55.5805 103.59C54.6047 101.931 53.6288 100.26 52.5054 98.702C51.1605 96.8332 49.5328 95.1582 48.5651 93.0513C48.3068 92.4822 47.9788 91.9413 47.5934 91.2108C47.4622 91.8727 47.4007 92.3207 47.29 92.7567C46.2854 96.7646 46.2608 100.829 46.47 104.93C46.5192 105.903 46.88 106.851 46.9948 107.828C47.0276 108.102 46.7242 108.425 46.5848 108.724C46.3223 108.522 45.9492 108.373 45.8221 108.106C45.5864 107.624 45.4393 107.105 45.3875 106.573C45.326 105.789 44.9242 105.765 44.3461 105.975C42.4436 106.669 40.5534 107.388 38.6386 108.054C37.8555 108.324 37.0273 108.478 36.2195 108.692C35.3093 108.934 34.3786 109.14 33.497 109.45C33.1936 109.559 32.9927 109.951 32.7467 110.209C33.003 110.467 33.2991 110.684 33.6241 110.851C34.395 111.105 35.1945 111.254 35.6045 111.363C36.5188 110.96 37.1175 110.689 37.7407 110.455C39.9466 109.648 42.2509 109.148 44.588 109.442C46.4331 109.672 48.2535 110.092 50.0781 110.467C50.2565 110.541 50.4555 110.55 50.6401 110.493C50.8246 110.436 50.9828 110.317 51.0867 110.157C52.0585 108.853 53.0753 107.573 54.5145 106.694ZM49.0531 112.134L49.5 111.537C45.8918 110.471 42.3821 109.87 38.778 110.988C38.778 111.089 38.7534 111.186 38.737 111.283C40.1147 111.505 41.4841 111.799 42.8618 111.924C44.8176 112.098 46.8103 111.88 48.7086 112.582L49.0531 112.134ZM38.6058 69.9401C38.49 69.2328 38.3353 68.5321 38.1425 67.8413C37.8022 66.5214 37.4332 65.2056 37.0765 63.8898L37.1954 63.8575C36.6336 62.1018 36.0842 60.3501 35.5143 58.6105C35.3647 58.0438 35.1572 57.4934 34.8952 56.9678C33.8347 55.1873 32.4601 53.6072 30.836 52.3019C30.2374 51.7893 29.5732 51.2081 28.8351 51.0184C26.6579 50.4534 24.4439 50.1668 22.1642 50.6148C20.2576 50.9942 18.5314 51.5835 17.043 52.9154C14.7731 54.9868 12.7459 57.3018 10.9994 59.8173C9.91821 61.2269 9.03168 62.7715 8.363 64.4105C7.56213 66.5764 6.99591 68.8195 6.67373 71.1025C6.33341 73.5444 6.35391 76.0388 6.31291 78.5129C6.28831 80.0588 6.41952 81.6047 6.51792 83.1505C6.61632 84.6964 6.56712 86.2705 6.92794 87.7518C7.66597 90.8596 8.4245 93.9796 9.87596 96.8614C10.532 98.1692 11.1511 99.5415 12.0613 100.668C13.1693 102.072 14.4533 103.334 15.8827 104.421C17.5228 105.632 19.3596 106.645 21.5368 106.581C22.9063 106.54 24.288 106.443 25.637 106.286C28.6096 105.931 31.2296 104.833 33.251 102.581C34.846 100.801 35.7111 98.6051 36.5639 96.4538C37.6456 93.7711 38.3531 90.9565 38.6673 88.0868C38.9502 85.4592 39.0773 82.8115 39.2332 80.1718C39.3397 78.5257 39.3521 76.875 39.2701 75.2275C39.1635 73.4516 38.8641 71.6958 38.6058 69.9401ZM34.9895 112.538C34.8836 112.471 34.7641 112.428 34.6394 112.411C34.5148 112.394 34.3879 112.405 34.2677 112.441C34.1474 112.478 34.0367 112.54 33.9433 112.623C33.8498 112.705 33.7759 112.807 33.7266 112.921C33.2264 113.696 32.7549 114.492 32.2752 115.275L32.3572 115.355C33.2551 114.423 34.108 113.487 34.9895 112.538ZM32.2014 109.091L32.0989 108.914L28.0479 108.954L28.011 109.253C29.1467 109.414 30.2784 109.616 31.4182 109.697C31.6642 109.717 31.939 109.305 32.2014 109.091ZM25.1532 111.751L30.4014 111.061C28.5686 110.79 26.8014 110.827 25.1532 111.751Z" fill="#4D3826"/>
<path d="M76.4703 54.4939C76.5221 54.6414 76.5551 54.7946 76.5687 54.95C76.0238 60.3531 74.8008 65.6689 72.9277 70.7759C72.4357 72.1321 71.9273 73.4802 71.4804 74.8525C71.2139 75.6597 71.4804 75.8817 72.3291 75.6597C73.8995 75.2561 74.7687 74.0049 75.6626 72.8344C76.4416 71.8213 77.0443 70.675 77.7126 69.5812C77.8163 69.3806 77.9737 69.2118 78.1678 69.0928C77.9628 70.5136 77.8233 71.9424 77.5363 73.3429C76.9746 76.1441 76.4334 78.9573 75.6708 81.714C75.2607 83.2397 74.4161 84.6564 73.756 86.1134C73.346 86.9933 72.9359 87.8571 72.5259 88.741C72.4705 88.9791 72.4567 89.2248 72.4849 89.4675C72.7319 89.4788 72.9792 89.4543 73.2189 89.3949C74.8589 88.7248 75.9045 87.3768 76.9746 86.0569C77.4407 85.4113 77.9459 84.794 78.4876 84.2083C78.4241 84.5266 78.3405 84.8407 78.2375 85.1488C77.0812 87.9741 75.966 90.7994 74.7359 93.6248C74.2234 94.7872 73.428 95.8285 72.8457 96.9708C72.4288 97.838 72.0646 98.7289 71.7551 99.6387C71.6772 99.8566 71.6731 100.26 71.8002 100.349C71.917 100.422 72.05 100.466 72.1878 100.477C72.3256 100.488 72.4641 100.467 72.5915 100.414C73.6371 99.6306 74.6416 98.7992 75.6544 97.9677C75.6995 97.9213 75.7561 97.8873 75.8187 97.8689C75.8812 97.8505 75.9475 97.8484 76.0111 97.8628C75.515 98.6296 75.0352 99.4086 74.5186 100.167C73.4608 101.713 72.3906 103.243 71.3205 104.781C70.9609 105.249 70.6269 105.735 70.32 106.238C70.2398 106.524 70.2162 106.823 70.2503 107.118C70.5492 107.12 70.8465 107.076 71.1319 106.989C71.4836 106.764 71.8142 106.508 72.12 106.226L72.2881 106.395C71.6075 107.085 70.9556 107.808 70.238 108.458C65.9534 112.341 60.7133 114.379 55.2109 115.876C54.0988 116.224 52.9549 116.465 51.7955 116.595C50.9172 116.594 50.0459 116.442 49.2206 116.147C48.7572 116.013 48.6014 115.594 48.9664 115.126C49.096 114.964 49.1718 114.766 49.1837 114.56C49.1883 114.048 49.3218 113.545 49.5722 113.095C49.8226 112.646 50.1821 112.265 50.6187 111.985C51.2104 111.458 51.7589 110.886 52.2588 110.274C52.6278 109.895 52.9968 109.515 53.3945 109.164C54.0424 108.599 54.8173 108.143 55.3544 107.497C56.2196 106.468 57.302 106.355 58.5074 106.424C58.8788 106.452 59.2522 106.408 59.6063 106.294C59.8113 106.222 59.9384 105.927 60.0983 105.729C59.9015 105.58 59.6883 105.326 59.5038 105.306C58.5894 105.306 57.6751 105.346 56.7649 105.378C56.8305 104.902 57.1175 104.264 56.9576 103.764C56.6238 102.627 56.1341 101.541 55.502 100.535C54.1285 98.4924 52.5868 96.5631 51.1476 94.5692C50.8224 94.0818 50.5385 93.5688 50.2989 93.0355C49.0361 90.4402 47.6051 87.9055 46.5759 85.2255C44.9974 81.0843 43.1482 77.0038 42.3569 72.6124C42.033 70.8203 41.787 68.9798 42.2503 67.1676C43.8452 67.3573 45.3992 67.547 46.9532 67.7246C49.2862 67.9869 51.5495 67.5268 53.821 67.0909C55.0715 66.8487 56.3344 66.6873 57.5767 66.3926C57.9481 66.2437 58.2917 66.035 58.5935 65.7751C58.5566 65.654 58.5157 65.537 58.4747 65.4199C58.1323 65.3613 57.7841 65.3424 57.4373 65.3634C54.7886 65.7993 52.1604 66.4693 49.4912 66.663C46.2341 66.9021 42.9647 66.4037 39.9337 65.206C39.4879 65.052 39.1 64.7686 38.8211 64.3932C38.5422 64.0178 38.3855 63.568 38.3715 63.1031C38.2924 62.4436 38.1426 61.7942 37.9246 61.1658C37.4736 59.8217 36.9775 58.4938 36.4813 57.1699C36.3419 56.8026 36.4075 56.6049 36.7888 56.4152C38.8389 55.3577 40.9587 54.3688 42.9391 53.1862C45.2027 51.8195 47.3924 50.3375 49.4994 48.7464C51.1413 47.5032 52.4096 45.8445 53.169 43.9474C53.4232 43.3258 53.6501 42.6935 53.8497 42.0504C54.0834 41.2875 53.6733 41.0373 52.9353 41.0454C52.6647 41.8526 52.4392 42.5589 52.1563 43.2532C52.0789 43.3181 51.9861 43.3629 51.8865 43.3834C51.7869 43.4038 51.6837 43.3993 51.5864 43.3702C50.5294 42.7891 49.5131 42.1391 48.544 41.4248C46.3791 39.6852 44.0339 38.4461 41.2047 38.1232C39.9173 37.9698 38.6544 37.6146 37.367 37.4411C36.5642 37.3442 35.7533 37.332 34.9479 37.4047C34.2713 37.4572 33.5989 37.8406 32.9716 37.2392C32.8814 37.1545 32.66 37.1827 32.5001 37.1868C30.5648 37.2352 28.6295 37.2958 26.6942 37.3361C25.2387 37.3644 23.7749 37.3563 22.3152 37.3886C21.2738 37.4128 20.2283 37.4935 19.5189 36.5006C19.4416 36.4243 19.3826 36.3318 19.3462 36.2301C19.3099 36.1283 19.2972 36.0199 19.309 35.9127C19.3208 35.8055 19.3568 35.7022 19.4144 35.6105C19.472 35.5188 19.5498 35.4409 19.6419 35.3826C19.9814 35.1186 20.3375 34.876 20.708 34.6561C22.102 33.8489 23.5535 33.1143 24.8861 32.2344C26.5261 31.1527 28.0063 29.8974 29.6054 28.7834C32.0901 27.0559 33.7916 24.6221 35.7556 22.4103C36.5756 21.4941 37.6007 20.7676 38.4494 19.8796C39.6098 18.6688 41.1104 17.9987 42.5496 17.2319C43.3696 16.7919 44.1897 16.3116 45.0097 15.8717C45.8958 15.3828 46.8741 15.0774 47.8844 14.9739C48.8947 14.8705 49.9159 14.9714 50.8852 15.2703C53.4888 15.9484 55.9759 17.0026 58.2655 18.3983C61.0086 20.1299 62.8126 22.6283 64.0058 25.5626C64.2026 26.0388 64.3543 26.5555 65.0513 26.4626C65.7483 26.3698 65.8098 25.8774 65.9001 25.3527C66.0923 23.8271 66.6304 22.3636 67.4745 21.0703C67.5647 21.7363 67.6754 22.4022 67.741 23.0884C68.0608 26.6765 68.3684 30.2688 68.6964 33.8569C68.7168 34.2306 68.8072 34.5973 68.9629 34.9386C69.1187 35.2373 69.4221 35.6571 69.6681 35.6611C70.0002 35.6611 70.361 35.3543 70.6644 35.1283C70.8449 34.9911 70.9433 34.757 71.2426 34.6117C71.0663 35.8952 70.89 37.1868 70.7055 38.4743C70.2954 41.2997 69.8854 44.125 69.5041 46.9503C69.4713 47.2006 69.6271 47.6486 69.8075 47.7172C69.9556 47.7538 70.1106 47.7531 70.2583 47.715C70.4059 47.6769 70.5414 47.6027 70.6521 47.4992C71.087 46.9581 71.4764 46.3831 71.8166 45.7798C72.4102 44.7436 73.0561 43.7374 73.7519 42.7648C73.6822 43.3339 73.6248 43.903 73.5469 44.4681C73.1369 47.4831 72.7801 50.5223 72.2594 53.501C71.8822 55.6765 71.2508 57.8077 70.7752 59.9589C70.6768 60.411 70.6029 61.194 70.8203 61.3232C71.4271 61.6784 71.8658 61.0971 72.1856 60.6451C73.6207 58.631 75.0147 56.5968 76.4703 54.4939ZM46.129 24.4566C46.3074 23.9885 46.3614 23.4834 46.2861 22.989C46.2107 22.4946 46.0085 22.0273 45.6985 21.6313C44.4275 19.9603 42.7054 19.928 40.7045 20.1823C39.2871 20.6488 38.0511 21.5356 37.1661 22.7211C37.0392 22.892 36.9716 23.0987 36.9734 23.3104C37.0677 24.4365 37.408 25.4818 38.3182 26.2164C38.9241 26.6802 39.6272 27.0055 40.3766 27.1687C41.1259 27.332 41.9028 27.3291 42.6509 27.1602C43.399 26.9914 44.0996 26.6608 44.7018 26.1925C45.3041 25.7242 45.793 25.1299 46.1331 24.4526L46.129 24.4566ZM23.3444 34.7045C22.6187 34.2807 20.7531 34.6238 20.3759 35.2171C20.3439 35.2972 20.3303 35.3831 20.336 35.4689C20.3417 35.5548 20.3665 35.6383 20.4087 35.7136C20.4554 35.785 20.5189 35.8443 20.5938 35.8865C20.6688 35.9286 20.7529 35.9524 20.8392 35.9557C21.7979 35.8421 22.685 35.399 23.3444 34.7045Z" fill="#C8A468"/>
<path d="M45.7037 21.626C46.0137 22.022 46.2159 22.4893 46.2913 22.9837C46.3666 23.4781 46.3126 23.9832 46.1342 24.4513C45.7921 25.1264 45.3019 25.7182 44.6991 26.184C44.0963 26.6498 43.3959 26.978 42.6485 27.1448C41.9011 27.3117 41.1254 27.313 40.3774 27.1487C39.6294 26.9845 38.9279 26.6587 38.3234 26.195C37.4132 25.4604 37.0729 24.415 36.9785 23.2889C36.9768 23.0772 37.0443 22.8705 37.1713 22.6996C38.0563 21.5142 39.2923 20.6274 40.7097 20.1609C42.7106 19.9106 44.4326 19.9429 45.7037 21.626ZM42.3416 26.2313C44.3138 25.86 45.4331 24.0517 44.7033 22.4978C44.0841 21.1901 42.5179 20.6089 40.9475 21.2022C40.2118 21.5278 39.4982 21.8999 38.8113 22.3162C39.3818 22.5651 39.973 22.765 40.5785 22.9135C42.6204 23.5593 42.9402 24.1607 42.3416 26.2192V26.2313Z" fill="#4D3826"/>
<path d="M44.7025 22.4891C45.4323 24.0431 44.313 25.8513 42.3408 26.2226C42.9394 24.1642 42.6196 23.5628 40.5777 22.9049C39.9722 22.7563 39.381 22.5565 38.8105 22.3075C39.4975 21.8912 40.211 21.5191 40.9467 21.1935C42.5171 20.6002 44.0834 21.1814 44.7025 22.4891Z" fill="white"/>
<path d="M36.1266 14.504C36.6309 14.4233 37.1393 14.9319 37.2828 15.6664C37.4058 16.2921 36.9015 17.1195 36.3275 17.2325C35.9174 17.3172 34.9867 16.514 34.917 16.0216C34.9204 15.6728 35.0409 15.3349 35.2597 15.0604C35.4784 14.7859 35.7832 14.5903 36.1266 14.504Z" fill="#4D3826"/>
<path d="M55.5791 103.589C56.0383 104.396 55.4233 106.14 54.5131 106.693C53.0739 107.573 52.053 108.852 51.0607 110.136C50.9568 110.296 50.7986 110.416 50.6141 110.472C50.4295 110.529 50.2305 110.52 50.0521 110.447C48.2275 110.071 46.407 109.639 44.562 109.421C42.2085 109.127 39.9206 109.611 37.7147 110.434C37.0915 110.669 36.4847 110.951 35.5785 111.343C35.1685 111.238 34.369 111.084 33.5981 110.83C33.2731 110.663 32.977 110.446 32.7207 110.188C32.9667 109.93 33.1676 109.538 33.471 109.429C34.3526 109.119 35.2833 108.913 36.1935 108.671C37.0136 108.457 37.8336 108.303 38.6126 108.033C40.5274 107.367 42.4176 106.649 44.3201 105.954C44.8982 105.744 45.3 105.769 45.3615 106.552C45.4133 107.084 45.5604 107.603 45.7961 108.085C45.9232 108.352 46.2964 108.489 46.5588 108.703C46.7105 108.404 47.0139 108.081 46.9688 107.807C46.8499 106.83 46.4932 105.882 46.444 104.909C46.2472 100.824 46.2718 96.7437 47.264 92.7358C47.3747 92.2999 47.4362 91.8519 47.5674 91.1899C47.9528 91.9205 48.2808 92.4613 48.5391 93.0304C49.5068 95.1575 51.1345 96.8325 52.4794 98.6811C53.6274 100.259 54.6033 101.946 55.5791 103.589Z" fill="#C8A468"/>
<path d="M33.9778 11.5122C34.2771 11.7988 34.4862 12.1257 34.1254 12.3719C33.8302 12.5697 33.1537 12.7312 33.0225 12.5859C31.9605 11.3952 30.5213 10.374 31.0257 8.40841C31.1535 7.64571 31.1988 6.87182 31.161 6.09971C31.2307 3.83945 30.4024 2.76986 28.1843 2.15233C26.797 1.7449 25.3144 1.78022 23.9488 2.25323C23.4456 2.42641 23.0222 2.77156 22.7556 3.22595C22.298 4.06202 21.9979 4.97274 21.87 5.91405C21.6773 8.40034 23.3132 9.81301 25.9702 9.68385C26.296 9.73273 26.6108 9.8365 26.9009 9.99059C26.6014 10.2343 26.2819 10.453 25.9456 10.6445C25.7488 10.7373 25.4617 10.6445 25.2239 10.6445C22.2718 11.0481 20.3037 8.52546 20.5907 5.63555C20.7875 3.57306 21.6937 1.89805 23.8217 1.13521C24.2102 1.02341 24.6061 0.938442 25.0066 0.88093C26.9073 0.50712 28.8812 0.828576 30.5583 1.78503C31.1255 2.03128 31.6063 2.43686 31.9403 2.95095C32.2744 3.46504 32.4469 4.06476 32.4361 4.67494C32.4361 6.08357 32.3172 7.50027 32.3131 8.90083C32.3129 9.30583 32.431 9.70234 32.6534 10.0431C33.0457 10.5737 33.4892 11.0657 33.9778 11.5122Z" fill="#4D3826"/>
<path d="M49.4993 111.536L49.0524 112.134L48.7079 112.582C46.8096 111.879 44.8169 112.097 42.8611 111.924C41.4834 111.799 40.114 111.52 38.7363 111.282C38.7363 111.185 38.7691 111.088 38.7773 110.987C42.3814 109.869 45.8911 110.471 49.4993 111.536Z" fill="#4D3826"/>
<path d="M38.141 67.8397C38.3338 68.5305 38.4884 69.2311 38.6043 69.9385C38.8626 71.6942 39.1619 73.4499 39.2767 75.2138C39.3584 76.8586 39.3461 78.5066 39.2398 80.15C39.1045 82.7897 38.9569 85.4374 38.674 88.065C38.3598 90.9347 37.6522 93.7493 36.5706 96.432C35.7055 98.5833 34.8526 100.779 33.2577 102.559C31.2363 104.811 28.6163 105.909 25.6437 106.264C24.2824 106.422 22.9007 106.518 21.5435 106.559C19.3663 106.623 17.5212 105.614 15.8894 104.399C14.4599 103.312 13.1759 102.051 12.068 100.646C11.1578 99.5197 10.5387 98.1474 9.88263 96.8397C8.43117 93.9578 7.67264 90.8379 6.93461 87.73C6.57789 86.2487 6.6312 84.6665 6.52459 83.1287C6.41799 81.5909 6.29498 80.037 6.31958 78.4912C6.36059 76.017 6.31959 73.5226 6.6804 71.0807C7.00133 68.8049 7.5648 66.5686 8.36147 64.4089C9.0321 62.7783 9.91857 61.242 10.9979 59.8399C12.7444 57.3244 14.7716 55.0094 17.0415 52.9381C18.5299 51.6061 20.256 51.0168 22.1626 50.6374C24.4423 50.1854 26.6728 50.4719 28.8336 51.041C29.5716 51.2307 30.2358 51.812 30.8345 52.3245C32.4567 53.6238 33.8312 55.1969 34.8936 56.9702C35.1557 57.4958 35.3631 58.0462 35.5128 58.6129C36.0827 60.3646 36.6321 62.1163 37.1938 63.86L37.0749 63.8923C37.4316 65.2161 37.8007 66.5198 38.141 67.8397ZM27.9767 58.8107C28.098 58.5708 28.185 58.3154 28.235 58.0519C27.9685 57.9792 27.6691 57.7936 27.4354 57.8541C26.8296 57.9758 26.2507 58.2026 25.7257 58.5241C24.7867 59.1982 23.938 60.0014 23.0196 60.7804C23.0196 60.6673 23.0196 60.5705 23.0647 60.4736C23.5444 58.3062 24.84 56.5585 26.0824 54.7826C26.1426 54.6932 26.1841 54.593 26.2045 54.4876C26.225 54.3823 26.2238 54.274 26.2013 54.1691C26.1685 54.0641 25.8364 54.0076 25.6478 54.0197C25.4067 54.0631 25.1714 54.1335 24.9466 54.2296C23.5269 54.7225 22.2621 55.5711 21.277 56.6917C21.3404 56.3346 21.4253 55.9815 21.5312 55.6342C21.974 54.4718 22.4414 53.3094 22.9007 52.151C23.1467 51.5335 22.9252 51.2227 22.2569 51.2913C22.0428 51.3201 21.8341 51.3799 21.6378 51.4689C19.9157 52.1954 18.8825 53.6282 17.7836 55.0248C17.2518 55.6866 16.8823 56.4603 16.7038 57.2856C16.5253 58.111 16.5426 58.9657 16.7545 59.7834C17.0874 61.2351 17.5063 62.6664 18.0092 64.0699C18.3744 65.0913 18.8285 66.0797 19.3663 67.0243C19.4755 67.1872 19.5337 67.3781 19.5337 67.5733C19.5337 67.7684 19.4755 67.9593 19.3663 68.1222C18.8804 68.8899 18.4686 69.7006 18.1363 70.5439C16.9267 74.1325 16.7283 77.9768 17.5622 81.6676C18.2757 84.7432 20.1412 86.7936 22.8432 88.3556C22.634 88.8461 22.456 89.3489 22.3102 89.8611C21.8499 91.6774 21.0123 93.3802 19.8501 94.8619C19.2966 95.6046 18.6201 96.4038 17.4843 96.3351C17.4073 96.3407 17.3332 96.366 17.2692 96.4084C17.2051 96.4509 17.1535 96.5091 17.1194 96.5773C17.0866 96.7186 17.1563 97.0011 17.2547 97.0415C17.6032 97.1666 18.1199 97.4088 18.329 97.2594C19.3622 96.5571 20.5143 95.8912 21.2565 94.9346C23.241 92.3837 23.9503 89.2597 24.758 86.2245C25.0776 84.7477 25.2615 83.2455 25.3074 81.7362C25.4797 79.4558 25.6478 77.1713 25.6929 74.8747C25.7544 71.7911 25.1475 68.7761 24.3972 65.7973C24.2645 65.3916 24.2243 64.962 24.2796 64.5392C24.3349 64.1164 24.4843 63.7109 24.717 63.3514C25.7667 61.8257 26.8983 60.3323 27.9767 58.8107Z" fill="#F79221"/>
<path d="M47.7563 113.704C47.8211 113.741 47.8775 113.79 47.9219 113.849C47.9664 113.908 47.9979 113.976 48.0146 114.047C48.0146 114.116 47.8711 114.257 47.7604 114.302C46.3828 114.891 44.9805 115.436 43.6151 116.053C43.0165 116.324 42.4302 116.61 41.8439 116.901C41.151 117.24 40.4662 117.591 39.7733 117.926C39.6436 117.98 39.4994 117.99 39.3633 117.955C41.0033 116.453 42.5696 114.875 44.9354 114.552C45.9891 114.403 46.2885 114.12 46.1163 113.18C46.7436 113.377 47.2561 113.519 47.7563 113.704Z" fill="#4D3826"/>
<path d="M44.5636 113.296L37.9828 114.685C37.9637 114.59 37.9473 114.497 37.9336 114.406C38.278 114.249 38.6265 114.103 38.975 113.978C40.7544 113.309 42.6721 113.075 44.5636 113.296Z" fill="#4D3826"/>
<path d="M41.8645 116.897L42.254 117.668C41.5447 117.991 40.8436 118.326 40.1424 118.653L39.7939 117.923C40.4664 117.588 41.1511 117.236 41.8645 116.897Z" fill="#4D3826"/>
<path d="M28.2363 58.0541C28.1864 58.3176 28.0994 58.573 27.978 58.8129C26.8997 60.3346 25.768 61.828 24.6979 63.3698C24.4651 63.7292 24.3158 64.1348 24.2605 64.5576C24.2052 64.9804 24.2454 65.41 24.3781 65.8157C25.1284 68.7944 25.7352 71.8095 25.6737 74.8931C25.6286 77.1776 25.4605 79.4621 25.2883 81.7546C25.2423 83.2639 25.0585 84.766 24.7389 86.2429C23.9189 89.2781 23.2218 92.4021 21.2373 94.953C20.4952 95.9095 19.3431 96.5674 18.3098 97.2778C18.1007 97.4271 17.5841 97.185 17.2356 97.0599C17.1372 97.0195 17.0675 96.7369 17.1003 96.5957C17.1344 96.5275 17.186 96.4693 17.25 96.4268C17.314 96.3843 17.3882 96.3591 17.4652 96.3535C18.6173 96.4221 19.2775 95.623 19.831 94.8803C20.9932 93.3985 21.8308 91.6958 22.2911 89.8795C22.4369 89.3673 22.6149 88.8644 22.8241 88.374C20.1221 86.812 18.2565 84.7616 17.5431 81.686C16.7091 77.9952 16.9075 74.1509 18.1171 70.5623C18.4495 69.719 18.8613 68.9083 19.3472 68.1406C19.4563 67.9777 19.5145 67.7868 19.5145 67.5916C19.5145 67.3965 19.4563 67.2056 19.3472 67.0427C18.8094 66.0981 18.3553 65.1096 17.99 64.0882C17.4872 62.6847 17.0683 61.2535 16.7354 59.8018C16.5235 58.9841 16.5061 58.1294 16.6846 57.304C16.8631 56.4786 17.2327 55.7049 17.7645 55.0431C18.8633 53.6466 19.8966 52.2178 21.6187 51.4872C21.815 51.3983 22.0236 51.3384 22.2378 51.3097C22.9061 51.241 23.1275 51.5518 22.8815 52.1694C22.4223 53.3278 21.9549 54.4902 21.5121 55.6526C21.4061 55.9998 21.3213 56.3529 21.2578 56.7101C22.243 55.5895 23.5078 54.7409 24.9275 54.248C25.1523 54.1519 25.3875 54.0814 25.6286 54.0381C25.8172 54.0381 26.1494 54.0825 26.1822 54.1875C26.2047 54.2924 26.2058 54.4007 26.1854 54.506C26.165 54.6113 26.1235 54.7116 26.0632 54.801C24.8332 56.5769 23.5252 58.3245 23.0455 60.492C23.0209 60.5889 23.0168 60.6857 23.0004 60.7987C23.9189 60.0198 24.7676 59.2166 25.7065 58.5425C26.2315 58.221 26.8105 57.9941 27.4163 57.8725C27.6705 57.7958 27.9698 57.9815 28.2363 58.0541ZM26.2396 59.4184C26.1904 59.374 26.1412 59.3336 26.0961 59.2852C25.9846 59.3451 25.8801 59.4169 25.7844 59.4991C24.8291 60.4879 23.8779 61.4728 22.9512 62.4859C22.8764 62.5786 22.8224 62.6859 22.7927 62.8007C22.763 62.9155 22.7584 63.0352 22.779 63.1518C22.9512 63.9227 22.6642 64.2618 21.8975 64.1932C21.3439 66.3646 21.344 66.3646 22.2255 66.8207C23.0496 64.0842 24.1198 61.4849 26.2396 59.4184ZM23.7508 69.3837L23.3161 67.3898L21.4834 68.0921L23.7508 69.3837ZM21.5244 61.3356C22.2542 59.5717 23.066 57.6021 23.8 55.8342C21.7745 57.5496 20.8396 58.5344 21.5244 61.3356ZM23.9845 70.9578C23.9845 70.7197 23.6236 70.4331 23.3612 70.2959C22.4428 69.8196 21.4916 69.3958 20.3558 68.859C19.9058 69.7198 19.5061 70.6052 19.1586 71.5108C18.3959 73.8033 18.3385 76.1847 18.523 78.558C18.7444 81.4156 19.3431 84.1521 21.8442 86.0572C22.3071 86.4589 22.7452 86.8875 23.1562 87.3407C23.435 86.1783 23.7836 85.2379 23.8738 84.2772C24.0788 82.1825 24.2469 80.0756 24.2592 77.9767C24.2633 75.6358 24.1075 73.2907 23.9681 70.9578H23.9845ZM20.323 55.7212C20.5116 54.7969 20.8683 53.913 21.1758 52.9362C17.8588 55.0956 17.7358 60.0964 19.4661 61.501C19.6383 60.5364 19.831 59.6363 19.9622 58.7201C20.0893 57.7232 20.1057 56.706 20.3066 55.7212H20.323ZM20.856 64.0277L19.5604 64.2981L20.3599 65.1578C20.5444 64.6937 20.6838 64.3748 20.8396 64.0277H20.856Z" fill="#4D3826"/>
<path d="M39.8145 112.719L38.646 113.159L34.3203 114.773C34.8825 113.887 35.7239 113.207 36.7161 112.836C37.7082 112.465 38.7965 112.424 39.8145 112.719Z" fill="white"/>
<path d="M20.3751 35.2137C20.7523 34.6204 22.6179 34.2773 23.3436 34.7011C22.6843 35.3956 21.7971 35.8387 20.8384 35.9524C20.7522 35.949 20.668 35.9253 20.5931 35.8831C20.5181 35.8409 20.4546 35.7816 20.4079 35.7102C20.3657 35.6349 20.3409 35.5514 20.3352 35.4656C20.3296 35.3798 20.3432 35.2938 20.3751 35.2137Z" fill="#4D3826"/>
<path d="M38.6599 113.158L38.9756 113.965C38.6271 114.09 38.2786 114.235 37.9342 114.393C37.9342 114.487 37.9506 114.58 37.9834 114.671L38.0736 115.479L36.6877 115.636C35.9128 115.721 35.1337 115.826 34.3547 115.842C34.1866 115.842 34.0103 115.495 33.8135 115.281L34.3342 114.768L38.6599 113.158Z" fill="#4D3826"/>
<path d="M26.0964 59.2852C26.1415 59.3336 26.1907 59.374 26.2399 59.4184C24.1201 61.4849 23.05 64.0842 22.2259 66.8207C21.3443 66.3646 21.3443 66.3646 21.8978 64.1932C22.6646 64.2618 22.9516 63.9227 22.7794 63.1518C22.7587 63.0351 22.7634 62.9155 22.7931 62.8007C22.8228 62.6859 22.8768 62.5786 22.9516 62.4859C23.8782 61.4728 24.8295 60.4879 25.7848 59.4991C25.8805 59.4169 25.985 59.3451 26.0964 59.2852Z" fill="#4D3826"/>
<path d="M33.7269 112.923C33.7761 112.809 33.8501 112.707 33.9435 112.624C34.037 112.541 34.1476 112.479 34.2679 112.443C34.3881 112.406 34.515 112.396 34.6396 112.413C34.7643 112.429 34.8838 112.473 34.9897 112.539C34.1082 113.488 33.2348 114.424 32.3574 115.365L32.2754 115.284C32.7551 114.493 33.2266 113.698 33.7269 112.923Z" fill="#4D3826"/>
<path d="M23.3162 67.3906L23.7508 69.3845L21.4834 68.0929L23.3162 67.3906Z" fill="#C8A468"/>
<path d="M23.7988 55.833C23.0648 57.6009 22.253 59.5705 21.5232 61.3343C20.8384 58.5332 21.7733 57.5484 23.7988 55.833Z" fill="#4D3826"/>
<path d="M32.0986 108.913L32.2011 109.091C31.9387 109.305 31.664 109.716 31.418 109.696C30.2781 109.615 29.1465 109.414 28.0107 109.252L28.0476 108.953L32.0986 108.913Z" fill="#4D3826"/>
<path d="M21.1587 52.939C20.8512 53.9157 20.4945 54.7996 20.3059 55.7239C20.105 56.7088 20.0886 57.742 19.9451 58.7228C19.8139 59.639 19.6211 60.5391 19.4489 61.5038C17.7187 60.0992 17.8417 55.0983 21.1587 52.939Z" fill="#4D3826"/>
<path d="M32.434 111.654C32.4873 111.779 32.5447 111.904 32.6021 112.025C30.2978 113.139 27.9962 114.257 25.6974 115.379C25.6441 115.266 25.5867 115.157 25.5293 115.044L25.6974 114.963L32.434 111.654Z" fill="#4D3826"/>
<path d="M19.5449 64.2968L20.8406 64.0264C20.6848 64.3735 20.5454 64.6923 20.3445 65.1565L19.5449 64.2968Z" fill="#C8A468"/>
<path d="M30.3859 111.06L25.1377 111.75C26.8024 110.826 28.5695 110.789 30.3859 111.06Z" fill="#4D3826"/>
<path d="M25.6905 115.381L26.0309 116.188C25.3912 116.454 24.7516 116.717 24.1038 116.971C23.7774 117.014 23.4455 116.992 23.1279 116.906C23.2337 116.606 23.3711 116.318 23.5379 116.047C24.0545 115.388 24.6713 114.812 25.3666 114.339L25.6905 114.977L25.5224 115.058C25.5798 115.159 25.6372 115.268 25.6905 115.381Z" fill="#4D3826"/>
<path d="M25.3424 75.9186C25.3424 75.9186 32.53 80.1001 39.16 73.9005L39.8283 73.8521L39.898 83.3169C39.898 83.3169 33.0056 91.3045 24.3174 84.9677L25.3424 75.9186Z" fill="white"/>
<path d="M6.05044 71.1685C6.05044 71.1685 9.15837 79.3377 17.863 73.5902L17.9983 78.7888C17.9983 78.7888 12.3524 84.8834 5.64453 78.4578L6.05044 71.1685Z" fill="white"/>
<path d="M20.7173 86.7026C20.7173 86.7026 9.23687 85.855 8.54395 94.8274L10.1307 99.0654C10.1307 99.0654 12.8081 90.0082 23.3045 89.427L23.2799 87.8125L20.7173 86.7026Z" fill="white"/>
<path d="M19.2219 56.9512C19.2219 56.9512 19.1071 51.3329 24.4947 50.4045L25.6837 50.0332L30.5342 50.9696C30.5342 50.9696 24.384 51.6194 23.8018 56.6404C23.2195 61.6615 20.5216 59.942 20.5216 59.942L19.3408 57.5768L19.2219 56.9512Z" fill="white"/>
<path d="M94.9052 49.3192C94.9626 49.5937 95.0159 50.0094 94.8642 50.1587C94.7445 50.2704 94.5996 50.3528 94.4415 50.399C94.2833 50.4453 94.1163 50.4543 93.954 50.4251C93.3496 50.1472 92.7956 49.7736 92.3139 49.3192C91.4488 48.4555 90.6739 47.5029 89.8538 46.5867L89.6775 46.6957C89.8743 47.1598 90.0875 47.624 90.2761 48.0882C92.0761 52.2737 92.7363 56.7135 93.2242 61.1856C93.2075 61.3858 93.1503 61.5808 93.056 61.7589C92.9616 61.9371 92.832 62.0948 92.6747 62.2229C92.5722 62.3157 92.0843 61.9969 91.6989 61.8193C91.7604 62.0413 91.826 62.3319 91.9244 62.6063C92.7661 65.0729 93.3044 67.6299 93.5276 70.2226C93.5973 70.8805 93.6424 71.5465 93.7203 72.2084C93.7506 72.3129 93.7547 72.423 93.7322 72.5293C93.7096 72.6357 93.6612 72.735 93.591 72.8188C93.5208 72.9026 93.4309 72.9684 93.3292 73.0104C93.2274 73.0524 93.1168 73.0695 93.0069 73.06C92.806 73.06 92.5189 72.6564 92.4328 72.4102C91.9982 71.1429 91.6374 69.8513 91.2028 68.5799C91.0435 68.1095 90.7706 67.6843 90.4074 67.3408C90.4607 68.0148 90.5468 68.6848 90.5631 69.3589C90.6042 71.163 90.6534 72.9713 90.6247 74.7795C90.6001 76.4545 90.5098 78.1335 90.3827 79.8086C90.3581 80.1476 90.0424 80.4705 89.862 80.8015C89.543 80.6191 89.2435 80.4054 88.9682 80.1637C88.7655 79.921 88.5883 79.6586 88.4393 79.3807C88.6976 80.5714 89.042 81.9235 89.2798 83.2958C89.6324 85.3139 89.9399 87.332 90.1859 89.3501C90.2269 89.6811 89.8702 90.0645 89.698 90.4237C89.411 90.23 89.0174 90.1008 88.878 89.8344C88.1154 88.5106 87.4183 87.1544 86.6926 85.7983C86.627 85.6731 86.5532 85.552 86.3687 85.2291C86.3687 86.44 86.4015 87.4491 86.3687 88.4581C86.2252 91.4933 85.9587 94.5124 84.7778 97.3821C84.5063 98.1311 84.2912 98.8987 84.1341 99.6787C83.9496 100.401 83.6216 100.611 82.9409 100.438C82.3874 102.133 81.8503 103.828 81.264 105.503C81.1738 105.761 80.854 105.951 80.6489 106.173C80.4357 105.955 80.1159 105.769 80.0421 105.515C79.7961 104.643 79.6321 103.751 79.4025 102.657C79.2969 102.848 79.2104 103.048 79.1442 103.255C78.7957 105.479 77.5041 107.243 76.1962 108.974C76.0281 109.196 75.6918 109.289 75.4376 109.438C75.2807 109.192 75.1748 108.918 75.126 108.631C75.167 107.795 75.29 106.96 75.3802 106.157C74.3388 107.162 73.3301 108.175 72.2559 109.16C71.8828 109.503 71.4892 109.967 70.8372 109.624C70.747 109.579 70.5256 109.688 70.4272 109.781C67.6227 112.223 64.3344 113.817 60.8697 115.125C57.6101 116.364 54.3095 117.503 50.8161 117.692C49.8075 117.745 48.766 117.212 47.5647 116.905C47.0358 117.607 46.3757 118.52 45.6745 119.404C45.3486 119.827 44.9729 120.21 44.5552 120.546C44.3707 120.695 44.0303 120.651 43.7556 120.695C43.7269 120.445 43.5957 120.15 43.6859 119.948C44.1534 118.907 44.6741 117.89 45.1784 116.861C45.2563 116.703 45.3424 116.55 45.5433 116.175C44.3133 116.732 43.2882 117.196 42.2632 117.668L41.8737 116.897C42.46 116.606 43.0463 116.32 43.6449 116.049C45.0103 115.432 46.4126 114.887 47.7902 114.298C47.9009 114.253 48.0608 114.112 48.0444 114.044C48.0277 113.972 47.9962 113.904 47.9517 113.845C47.9073 113.786 47.8509 113.737 47.7861 113.7C47.2859 113.515 46.7734 113.373 46.146 113.176C46.3182 114.116 46.0189 114.387 44.9652 114.548C42.5994 114.871 41.0249 116.449 39.3931 117.951C39.5291 117.986 39.6734 117.976 39.8031 117.922L40.1516 118.653C39.4915 118.964 38.8272 119.27 38.1548 119.565C37.9457 119.654 37.6341 119.513 37.3676 119.476C37.373 119.232 37.4187 118.991 37.5029 118.762C38.3803 117.289 39.8687 116.441 41.1151 115.351C41.2258 115.25 41.3365 115.166 41.4021 115.113L38.1015 115.492L38.0113 114.685L44.5921 113.297C42.6979 113.075 40.7773 113.309 38.9953 113.979L38.6796 113.172L39.8482 112.732C38.8284 112.438 37.7389 112.481 36.7465 112.855C35.7542 113.229 34.9138 113.913 34.354 114.802L33.8332 115.315C33.5229 115.732 33.1637 116.111 32.7631 116.445C32.1341 116.89 31.4438 117.245 30.713 117.498C30.139 117.688 29.893 117.317 30.1554 116.784C30.5654 115.977 31.0779 115.214 31.5412 114.435L32.0825 113.503L31.9308 113.353C30.8934 113.902 29.8807 114.496 28.8146 114.968C27.9003 115.371 26.9737 115.775 26.0388 116.179L25.6985 115.371C28.0028 114.255 30.3044 113.137 32.6032 112.017C32.5458 111.896 32.4884 111.771 32.4351 111.646L25.6985 114.956L25.3746 114.318C26.2691 113.721 27.2326 113.23 28.2447 112.857C28.4664 112.756 28.6766 112.633 28.872 112.49C28.9294 112.457 28.9499 112.368 29.0401 112.215C27.8101 112.368 26.6866 112.578 25.5427 112.619C24.6583 112.62 23.7753 112.552 22.9022 112.413C22.7669 112.413 22.5414 112.142 22.566 112.066C22.6309 111.873 22.767 111.712 22.9473 111.614C23.9682 111.186 24.9974 110.782 26.0347 110.403C26.3836 110.305 26.7383 110.228 27.0967 110.173C26.5923 109.878 26.2766 109.725 25.9896 109.527C25.8133 109.402 25.5427 109.192 25.5796 109.059C25.6141 108.95 25.6745 108.851 25.7558 108.769C25.8371 108.688 25.9369 108.626 26.047 108.591C26.8211 108.351 27.6178 108.188 28.4251 108.106C30.5367 108.009 32.6524 108.066 34.7558 107.937C35.8713 107.863 36.9732 107.653 38.0359 107.311C40.3197 106.577 42.5707 105.741 44.8217 104.889C44.998 104.829 45.1497 104.486 45.162 104.252C45.2891 101.451 45.2522 98.6414 45.5392 95.8564C45.736 93.9392 46.3797 92.0705 46.8062 90.1775C46.8832 89.9138 46.8832 89.634 46.8062 89.3703C45.4449 85.9113 44.0181 82.4684 42.6855 78.9973C41.6098 76.2874 40.9787 73.4263 40.8158 70.5213C40.7474 69.5424 40.7611 68.5596 40.8568 67.5829C41.0044 66.3923 40.0737 66.5416 39.3808 66.2349C39.3803 66.436 39.4037 66.6364 39.4505 66.8322C40.3361 69.0763 40.3402 71.4617 40.6354 73.8027C41.111 77.625 40.6969 81.419 40.3648 85.209C40.2126 87.6012 39.8685 89.9779 39.3357 92.3167C38.7903 94.464 37.6956 96.4659 36.974 98.5728C36.455 100.035 35.702 101.405 34.7435 102.633C32.6934 105.354 29.7331 106.669 26.4775 107.311C24.1691 107.771 21.8033 108.207 19.4662 107.578C18.2187 107.22 17.0165 106.725 15.8827 106.1C13.8624 105.028 12.1405 103.484 10.8682 101.604C9.77288 99.9173 8.8014 98.1557 7.96117 96.3327C6.53022 93.3984 5.88239 90.2058 5.27557 87.0495C4.92296 85.2009 4.94755 83.2797 4.89424 81.3988C4.82864 79.1063 4.74664 76.8056 4.89424 74.5373C5.04599 72.145 5.34035 69.7636 5.77579 67.4053C6.35801 64.2369 8.03907 61.5448 9.98255 59.0101C11.7989 56.6449 13.6153 54.2676 15.9319 52.3463C16.879 51.5633 17.8918 50.5664 19.0152 50.3282C21.4753 49.8116 23.9846 49.1174 26.5718 49.6703C27.4411 49.8479 28.3308 49.9367 29.2124 50.0497C30.8524 50.2596 31.8528 51.4342 32.9435 52.4271C33.8133 53.2901 34.6151 54.2171 35.3421 55.1999C35.6496 55.6035 35.9366 55.6964 36.3753 55.4582C37.6464 54.7559 38.9338 54.0698 40.2049 53.3675C41.3365 52.809 42.432 52.1822 43.485 51.4907C46.0599 49.6098 49.0244 48.1971 50.9514 45.5292C51.1687 45.2305 51.3984 44.9359 51.6444 44.6049C50.8817 44.1731 50.1929 43.8259 49.5533 43.3941C48.2043 42.5061 46.8882 41.5737 45.5474 40.6777C44.2067 39.7817 42.5994 39.3902 40.9798 39.1319C39.6965 38.926 38.4295 38.6273 37.1503 38.3932C36.7638 38.2856 36.3583 38.2608 35.9612 38.3206C34.0546 38.8009 32.144 38.5063 30.221 38.4619C27.3263 38.3892 24.4275 38.3973 21.5327 38.3892C20.1469 38.3892 19.1751 37.6788 18.3879 36.6617C18.2514 36.4806 18.157 36.2722 18.1115 36.0512C18.0659 35.8302 18.0703 35.6021 18.1243 35.3829C18.1783 35.1638 18.2806 34.959 18.4239 34.7831C18.5672 34.6072 18.7481 34.4645 18.9537 34.3651C22.1929 32.4923 25.4812 30.7003 28.4087 28.3351C30.8688 26.3412 32.8492 23.9195 34.969 21.6108C36.5803 19.851 38.3311 18.2083 40.4755 17.0579C42.0336 16.2184 43.6449 15.4677 45.203 14.6362C46.2896 14.0429 47.3064 13.3366 48.3724 12.715C50.4225 11.5284 52.6735 11.036 54.9819 10.6444C57.36 10.2408 59.7094 9.74034 62.1613 9.92197C63.1453 9.99866 64.154 9.71209 65.1503 9.60715C67.5079 9.35287 69.8163 9.71209 72.096 10.2247C74.3757 10.7373 76.5488 11.3629 78.767 11.9643C78.9802 12.0208 79.1401 12.271 79.3246 12.4284C79.1278 12.6101 78.9556 12.8966 78.726 12.9572C77.8198 13.1953 76.8932 13.3608 75.9994 13.5545C76.8973 14.1963 77.8977 14.7654 78.6809 15.508C81.2034 18.0001 83.5039 20.7008 85.5568 23.5804C86.0899 24.3271 85.4215 24.3877 84.9295 24.6339C85.7127 25.5541 86.5696 26.4138 87.2379 27.3785C88.5828 29.2876 89.8374 31.2573 91.1085 33.2148C91.2233 33.3924 91.2479 33.8323 91.1495 33.8969C91.0244 33.9867 90.8824 34.0512 90.7318 34.0865C90.5811 34.1219 90.4249 34.1274 90.272 34.1028C89.2839 33.7435 88.3245 33.2955 87.3527 32.8919C87.2907 32.858 87.222 32.8375 87.1513 32.832C87.0805 32.8264 87.0094 32.8358 86.9427 32.8596C87.6151 33.57 88.2876 34.2804 88.9682 34.9827C90.3757 36.4654 91.5032 38.1835 92.2975 40.0561C92.3443 40.1686 92.3638 40.2903 92.3546 40.4115C92.3453 40.5327 92.3075 40.6501 92.2442 40.7544C92.1425 40.8423 92.0213 40.9056 91.8903 40.9392C91.7593 40.9728 91.6222 40.9759 91.4898 40.9481C90.7887 40.6212 90.1367 40.1934 89.3823 39.8786C89.575 40.1086 89.7636 40.3427 89.9645 40.5607C92.0884 42.8169 93.2775 45.6019 94.528 48.3545C94.6851 48.6634 94.8114 48.9864 94.9052 49.3192ZM76.5693 54.9497C76.5557 54.7942 76.5226 54.641 76.4709 54.4936C75.0153 56.5964 73.6213 58.6307 72.1985 60.6447C71.8787 61.0968 71.44 61.678 70.8331 61.3228C70.6158 61.1937 70.6896 60.4106 70.788 59.9586C71.2637 57.7952 71.8951 55.6641 72.2723 53.5007C72.793 50.5058 73.1415 47.4827 73.5598 44.4677C73.6377 43.9026 73.6951 43.3335 73.7648 42.7644C73.0689 43.737 72.423 44.7433 71.8295 45.7795C71.4893 46.3827 71.0999 46.9577 70.665 47.4989C70.5543 47.6023 70.4188 47.6765 70.2711 47.7146C70.1235 47.7527 69.9684 47.7535 69.8204 47.7168C69.64 47.6482 69.4842 47.2002 69.517 46.95C69.8983 44.1246 70.3165 41.2993 70.7183 38.474C70.9028 37.1864 71.0792 35.8948 71.2555 34.6113C70.9562 34.7566 70.8454 34.9907 70.6773 35.128C70.3739 35.354 70.0131 35.6688 69.681 35.6607C69.435 35.6607 69.1316 35.2369 68.9758 34.9383C68.82 34.5969 68.7297 34.2302 68.7093 33.8566C68.3812 30.2684 68.0737 26.6762 67.7539 23.088C67.6883 22.418 67.5776 21.752 67.4874 21.0699C66.6433 22.3632 66.1052 23.8268 65.9129 25.3523C65.8227 25.877 65.7202 26.3694 65.0642 26.4623C64.4082 26.5551 64.2155 26.0385 64.0187 25.5622C62.7886 22.6279 61.0009 20.1295 58.2784 18.398C55.9885 17.0036 53.5014 15.9509 50.8981 15.274C49.9399 14.9769 48.9307 14.8735 47.9309 14.9699C46.9311 15.0663 45.9614 15.3606 45.08 15.835C44.26 16.2749 43.4399 16.7552 42.6199 17.1952C41.1766 17.9621 39.676 18.628 38.5197 19.8429C37.671 20.7309 36.6336 21.4574 35.8259 22.3736C33.866 24.5854 32.1645 27.0193 29.6757 28.7467C28.0766 29.8607 26.58 31.116 24.9564 32.1977C23.6238 33.0897 22.1724 33.8122 20.7783 34.6194C20.4078 34.8393 20.0518 35.0819 19.7123 35.3459C19.6201 35.4042 19.5423 35.4821 19.4847 35.5738C19.4271 35.6655 19.3911 35.7688 19.3793 35.876C19.3675 35.9832 19.3802 36.0917 19.4165 36.1934C19.4529 36.2951 19.5119 36.3876 19.5893 36.4639C20.2986 37.4568 21.3441 37.3761 22.3856 37.3519C23.8452 37.3196 25.309 37.3277 26.7646 37.2994C28.6998 37.2591 30.6351 37.1985 32.5704 37.1501C32.7303 37.1501 32.9517 37.1178 33.0419 37.2026C33.6692 37.804 34.3417 37.4205 35.0182 37.368C35.8236 37.2954 36.6345 37.3075 37.4373 37.4044C38.7247 37.5779 39.9876 37.9331 41.275 38.0865C44.0919 38.4094 46.4494 39.6485 48.6143 41.3881C49.5834 42.1025 50.5997 42.7524 51.6567 43.3335C51.754 43.3626 51.8572 43.3671 51.9568 43.3467C52.0564 43.3262 52.1492 43.2815 52.2266 43.2165C52.5095 42.5223 52.735 41.7998 53.0056 41.0087C53.7437 41.0087 54.1537 41.2509 53.92 42.0137C53.7177 42.6568 53.4908 43.2891 53.2393 43.9107C52.4799 45.8078 51.2116 47.4665 49.5697 48.7097C47.4627 50.3008 45.273 51.7828 43.0094 53.1495C41.029 54.3604 38.9092 55.3372 36.8592 56.3785C36.4778 56.5682 36.4122 56.7821 36.5516 57.1333C37.0478 58.4571 37.5439 59.785 37.9949 61.1291C38.2129 61.7575 38.3627 62.407 38.4418 63.0664C38.4558 63.5313 38.6125 63.9811 38.8914 64.3565C39.1703 64.7319 39.5582 65.0153 40.004 65.1693C43.035 66.367 46.3044 66.8655 49.5615 66.6264C52.2307 66.4326 54.8589 65.7626 57.5076 65.3267C57.8544 65.3057 58.2026 65.3246 58.5449 65.3832C58.5859 65.5003 58.6269 65.6173 58.6639 65.7384C58.362 65.9983 58.0184 66.207 57.647 66.3559C56.417 66.6344 55.1418 66.812 53.8913 67.0542C51.6198 67.4901 49.3565 67.9502 47.0235 67.6879C45.4695 67.5103 43.9155 67.3206 42.3206 67.1309C41.8573 68.9472 42.1033 70.7635 42.4272 72.5757C43.2185 76.9671 45.0677 81.0517 46.6463 85.1888C47.6754 87.8688 49.1064 90.4035 50.3692 92.9988C50.6088 93.5322 50.8927 94.0452 51.2179 94.5326C52.6571 96.5264 54.1988 98.4557 55.5723 100.498C56.2044 101.504 56.6941 102.591 57.0279 103.727C57.1878 104.232 56.9008 104.869 56.8352 105.341C57.7454 105.309 58.6598 105.253 59.5741 105.269C59.775 105.269 59.9841 105.543 60.1686 105.693C60.0087 105.89 59.8816 106.185 59.6766 106.258C59.3225 106.371 58.9491 106.415 58.5778 106.387C57.3723 106.318 56.2899 106.431 55.4247 107.46C54.8876 108.106 54.1127 108.562 53.4648 109.127C53.0548 109.479 52.6981 109.858 52.3291 110.237C51.8291 110.85 51.2807 111.422 50.689 111.949C50.2524 112.228 49.8929 112.609 49.6425 113.059C49.3921 113.508 49.2586 114.011 49.254 114.524C49.2421 114.73 49.1663 114.927 49.0367 115.089C48.6717 115.557 48.8275 115.977 49.2909 116.11C50.1161 116.406 50.9875 116.557 51.8658 116.558C53.0252 116.428 54.1691 116.188 55.2812 115.84C60.7836 114.342 66.0237 112.304 70.3083 108.421C71.03 107.771 71.6819 107.049 72.3584 106.359L72.1903 106.189C71.8845 106.472 71.5538 106.727 71.2022 106.952C70.9168 107.039 70.6195 107.083 70.3206 107.081C70.2865 106.786 70.3101 106.487 70.3903 106.201C70.6972 105.698 71.0312 105.212 71.3908 104.744C72.4609 103.206 73.5311 101.677 74.5889 100.131C75.1055 99.372 75.5853 98.593 76.0814 97.8261C76.0178 97.8117 75.9515 97.8138 75.8889 97.8322C75.8264 97.8506 75.7698 97.8847 75.7246 97.931C74.7119 98.7383 73.7074 99.5939 72.6618 100.377C72.5344 100.43 72.3959 100.452 72.2581 100.44C72.1203 100.429 71.9873 100.385 71.8705 100.312C71.7434 100.224 71.7475 99.82 71.8254 99.602C72.1349 98.6922 72.4991 97.8013 72.916 96.9341C73.4983 95.7919 74.2937 94.7505 74.8062 93.5881C76.0363 90.791 77.1515 87.9374 78.3078 85.1121C78.4108 84.804 78.4943 84.4899 78.5579 84.1717C78.0162 84.7573 77.5109 85.3746 77.0449 86.0203C75.9748 87.328 74.9374 88.6882 73.2892 89.3582C73.0495 89.4177 72.8022 89.4422 72.5552 89.4308C72.527 89.1881 72.5408 88.9425 72.5962 88.7043C72.9775 87.8204 73.4163 86.9566 73.8263 86.0768C74.4864 84.6197 75.3228 83.203 75.7411 81.6773C76.5037 78.9206 77.0449 76.1074 77.6066 73.3063C77.8936 71.9057 78.0166 70.4809 78.238 69.0561C78.044 69.1751 77.8866 69.344 77.7829 69.5445C77.0982 70.6383 76.4955 71.7846 75.7328 72.7977C74.839 73.952 73.9698 75.2194 72.3994 75.623C71.5507 75.845 71.2842 75.623 71.5507 74.8158C71.9976 73.4435 72.506 72.0954 72.998 70.7392C74.8444 65.6409 76.0439 60.3375 76.5693 54.9497ZM76.352 106.912C77.4467 105.81 78.2586 103.61 78.1889 101.862C77.0938 103.335 76.4557 105.089 76.352 106.912ZM54.5145 106.694C55.4247 106.141 56.0397 104.381 55.5805 103.59C54.6047 101.931 53.6288 100.26 52.5054 98.702C51.1605 96.8332 49.5328 95.1582 48.5651 93.0513C48.3068 92.4822 47.9788 91.9413 47.5934 91.2108C47.4622 91.8727 47.4007 92.3207 47.29 92.7567C46.2854 96.7646 46.2608 100.829 46.47 104.93C46.5192 105.903 46.88 106.851 46.9948 107.828C47.0276 108.102 46.7242 108.425 46.5848 108.724C46.3223 108.522 45.9492 108.373 45.8221 108.106C45.5864 107.624 45.4393 107.105 45.3875 106.573C45.326 105.789 44.9242 105.765 44.3461 105.975C42.4436 106.669 40.5534 107.388 38.6386 108.054C37.8555 108.324 37.0273 108.478 36.2195 108.692C35.3093 108.934 34.3786 109.14 33.497 109.45C33.1936 109.559 32.9927 109.951 32.7467 110.209C33.003 110.467 33.2991 110.684 33.6241 110.851C34.395 111.105 35.1945 111.254 35.6045 111.363C36.5188 110.96 37.1175 110.689 37.7407 110.455C39.9466 109.648 42.2509 109.148 44.588 109.442C46.4331 109.672 48.2535 110.092 50.0781 110.467C50.2565 110.541 50.4555 110.55 50.6401 110.493C50.8246 110.436 50.9828 110.317 51.0867 110.157C52.0585 108.853 53.0753 107.573 54.5145 106.694ZM49.0531 112.134L49.5 111.537C45.8918 110.471 42.3821 109.87 38.778 110.988C38.778 111.089 38.7534 111.186 38.737 111.283C40.1147 111.505 41.4841 111.799 42.8618 111.924C44.8176 112.098 46.8103 111.88 48.7086 112.582L49.0531 112.134ZM38.6058 69.9401C38.49 69.2328 38.3353 68.5321 38.1425 67.8413C37.8022 66.5214 37.4332 65.2056 37.0765 63.8898L37.1954 63.8575C36.6336 62.1018 36.0842 60.3501 35.5143 58.6105C35.3647 58.0438 35.1572 57.4934 34.8952 56.9678C33.8347 55.1873 32.4601 53.6072 30.836 52.3019C30.2374 51.7893 29.5732 51.2081 28.8351 51.0184C26.6579 50.4534 24.4439 50.1668 22.1642 50.6148C20.2576 50.9942 18.5314 51.5835 17.043 52.9154C14.7731 54.9868 12.7459 57.3018 10.9994 59.8173C9.91821 61.2269 9.03168 62.7715 8.363 64.4105C7.56213 66.5764 6.99591 68.8195 6.67373 71.1025C6.33341 73.5444 6.35391 76.0388 6.31291 78.5129C6.28831 80.0588 6.41952 81.6047 6.51792 83.1505C6.61632 84.6964 6.56712 86.2705 6.92794 87.7518C7.66597 90.8596 8.4245 93.9796 9.87596 96.8614C10.532 98.1692 11.1511 99.5415 12.0613 100.668C13.1693 102.072 14.4533 103.334 15.8827 104.421C17.5228 105.632 19.3596 106.645 21.5368 106.581C22.9063 106.54 24.288 106.443 25.637 106.286C28.6096 105.931 31.2296 104.833 33.251 102.581C34.846 100.801 35.7111 98.6051 36.5639 96.4538C37.6456 93.7711 38.3531 90.9565 38.6673 88.0868C38.9502 85.4592 39.0773 82.8115 39.2332 80.1718C39.3397 78.5257 39.3521 76.875 39.2701 75.2275C39.1635 73.4516 38.8641 71.6958 38.6058 69.9401ZM34.9895 112.538C34.8836 112.471 34.7641 112.428 34.6394 112.411C34.5148 112.394 34.3879 112.405 34.2677 112.441C34.1474 112.478 34.0367 112.54 33.9433 112.623C33.8498 112.705 33.7759 112.807 33.7266 112.921C33.2264 113.696 32.7549 114.492 32.2752 115.275L32.3572 115.355C33.2551 114.423 34.108 113.487 34.9895 112.538ZM32.2014 109.091L32.0989 108.914L28.0479 108.954L28.011 109.253C29.1467 109.414 30.2784 109.616 31.4182 109.697C31.6642 109.717 31.939 109.305 32.2014 109.091ZM25.1532 111.751L30.4014 111.061C28.5686 110.79 26.8014 110.827 25.1532 111.751Z" fill="#4D3826"/>
<path d="M76.4703 54.4939C76.5221 54.6414 76.5551 54.7946 76.5687 54.95C76.0238 60.3531 74.8008 65.6689 72.9277 70.7759C72.4357 72.1321 71.9273 73.4802 71.4804 74.8525C71.2139 75.6597 71.4804 75.8817 72.3291 75.6597C73.8995 75.2561 74.7687 74.0049 75.6626 72.8344C76.4416 71.8213 77.0443 70.675 77.7126 69.5812C77.8163 69.3806 77.9737 69.2118 78.1678 69.0928C77.9628 70.5136 77.8233 71.9424 77.5363 73.3429C76.9746 76.1441 76.4334 78.9573 75.6708 81.714C75.2607 83.2397 74.4161 84.6564 73.756 86.1134C73.346 86.9933 72.9359 87.8571 72.5259 88.741C72.4705 88.9791 72.4567 89.2248 72.4849 89.4675C72.7319 89.4788 72.9792 89.4543 73.2189 89.3949C74.8589 88.7248 75.9045 87.3768 76.9746 86.0569C77.4407 85.4113 77.9459 84.794 78.4876 84.2083C78.4241 84.5266 78.3405 84.8407 78.2375 85.1488C77.0812 87.9741 75.966 90.7994 74.7359 93.6248C74.2234 94.7872 73.428 95.8285 72.8457 96.9708C72.4288 97.838 72.0646 98.7289 71.7551 99.6387C71.6772 99.8566 71.6731 100.26 71.8002 100.349C71.917 100.422 72.05 100.466 72.1878 100.477C72.3256 100.488 72.4641 100.467 72.5915 100.414C73.6371 99.6306 74.6416 98.7992 75.6544 97.9677C75.6995 97.9213 75.7561 97.8873 75.8187 97.8689C75.8812 97.8505 75.9475 97.8484 76.0111 97.8628C75.515 98.6296 75.0352 99.4086 74.5186 100.167C73.4608 101.713 72.3906 103.243 71.3205 104.781C70.9609 105.249 70.6269 105.735 70.32 106.238C70.2398 106.524 70.2162 106.823 70.2503 107.118C70.5492 107.12 70.8465 107.076 71.1319 106.989C71.4836 106.764 71.8142 106.508 72.12 106.226L72.2881 106.395C71.6075 107.085 70.9556 107.808 70.238 108.458C65.9534 112.341 60.7133 114.379 55.2109 115.876C54.0988 116.224 52.9549 116.465 51.7955 116.595C50.9172 116.594 50.0459 116.442 49.2206 116.147C48.7572 116.013 48.6014 115.594 48.9664 115.126C49.096 114.964 49.1718 114.766 49.1837 114.56C49.1883 114.048 49.3218 113.545 49.5722 113.095C49.8226 112.646 50.1821 112.265 50.6187 111.985C51.2104 111.458 51.7589 110.886 52.2588 110.274C52.6278 109.895 52.9968 109.515 53.3945 109.164C54.0424 108.599 54.8173 108.143 55.3544 107.497C56.2196 106.468 57.302 106.355 58.5074 106.424C58.8788 106.452 59.2522 106.408 59.6063 106.294C59.8113 106.222 59.9384 105.927 60.0983 105.729C59.9015 105.58 59.6883 105.326 59.5038 105.306C58.5894 105.306 57.6751 105.346 56.7649 105.378C56.8305 104.902 57.1175 104.264 56.9576 103.764C56.6238 102.627 56.1341 101.541 55.502 100.535C54.1285 98.4924 52.5868 96.5631 51.1476 94.5692C50.8224 94.0818 50.5385 93.5688 50.2989 93.0355C49.0361 90.4402 47.6051 87.9055 46.5759 85.2255C44.9974 81.0843 43.1482 77.0038 42.3569 72.6124C42.033 70.8203 41.787 68.9798 42.2503 67.1676C43.8452 67.3573 45.3992 67.547 46.9532 67.7246C49.2862 67.9869 51.5495 67.5268 53.821 67.0909C55.0715 66.8487 56.3344 66.6873 57.5767 66.3926C57.9481 66.2437 58.2917 66.035 58.5935 65.7751C58.5566 65.654 58.5157 65.537 58.4747 65.4199C58.1323 65.3613 57.7841 65.3424 57.4373 65.3634C54.7886 65.7993 52.1604 66.4693 49.4912 66.663C46.2341 66.9021 42.9647 66.4037 39.9337 65.206C39.4879 65.052 39.1 64.7686 38.8211 64.3932C38.5422 64.0178 38.3855 63.568 38.3715 63.1031C38.2924 62.4436 38.1426 61.7942 37.9246 61.1658C37.4736 59.8217 36.9775 58.4938 36.4813 57.1699C36.3419 56.8026 36.4075 56.6049 36.7888 56.4152C38.8389 55.3577 40.9587 54.3688 42.9391 53.1862C45.2027 51.8195 47.3924 50.3375 49.4994 48.7464C51.1413 47.5032 52.4096 45.8445 53.169 43.9474C53.4232 43.3258 53.6501 42.6935 53.8497 42.0504C54.0834 41.2875 53.6733 41.0373 52.9353 41.0454C52.6647 41.8526 52.4392 42.5589 52.1563 43.2532C52.0789 43.3181 51.9861 43.3629 51.8865 43.3834C51.7869 43.4038 51.6837 43.3993 51.5864 43.3702C50.5294 42.7891 49.5131 42.1391 48.544 41.4248C46.3791 39.6852 44.0339 38.4461 41.2047 38.1232C39.9173 37.9698 38.6544 37.6146 37.367 37.4411C36.5642 37.3442 35.7533 37.332 34.9479 37.4047C34.2713 37.4572 33.5989 37.8406 32.9716 37.2392C32.8814 37.1545 32.66 37.1827 32.5001 37.1868C30.5648 37.2352 28.6295 37.2958 26.6942 37.3361C25.2387 37.3644 23.7749 37.3563 22.3152 37.3886C21.2738 37.4128 20.2283 37.4935 19.5189 36.5006C19.4416 36.4243 19.3826 36.3318 19.3462 36.2301C19.3099 36.1283 19.2972 36.0199 19.309 35.9127C19.3208 35.8055 19.3568 35.7022 19.4144 35.6105C19.472 35.5188 19.5498 35.4409 19.6419 35.3826C19.9814 35.1186 20.3375 34.876 20.708 34.6561C22.102 33.8489 23.5535 33.1143 24.8861 32.2344C26.5261 31.1527 28.0063 29.8974 29.6054 28.7834C32.0901 27.0559 33.7916 24.6221 35.7556 22.4103C36.5756 21.4941 37.6007 20.7676 38.4494 19.8796C39.6098 18.6688 41.1104 17.9987 42.5496 17.2319C43.3696 16.7919 44.1897 16.3116 45.0097 15.8717C45.8958 15.3828 46.8741 15.0774 47.8844 14.9739C48.8947 14.8705 49.9159 14.9714 50.8852 15.2703C53.4888 15.9484 55.9759 17.0026 58.2655 18.3983C61.0086 20.1299 62.8126 22.6283 64.0058 25.5626C64.2026 26.0388 64.3543 26.5555 65.0513 26.4626C65.7483 26.3698 65.8098 25.8774 65.9001 25.3527C66.0923 23.8271 66.6304 22.3636 67.4745 21.0703C67.5647 21.7363 67.6754 22.4022 67.741 23.0884C68.0608 26.6765 68.3684 30.2688 68.6964 33.8569C68.7168 34.2306 68.8072 34.5973 68.9629 34.9386C69.1187 35.2373 69.4221 35.6571 69.6681 35.6611C70.0002 35.6611 70.361 35.3543 70.6644 35.1283C70.8449 34.9911 70.9433 34.757 71.2426 34.6117C71.0663 35.8952 70.89 37.1868 70.7055 38.4743C70.2954 41.2997 69.8854 44.125 69.5041 46.9503C69.4713 47.2006 69.6271 47.6486 69.8075 47.7172C69.9556 47.7538 70.1106 47.7531 70.2583 47.715C70.4059 47.6769 70.5414 47.6027 70.6521 47.4992C71.087 46.9581 71.4764 46.3831 71.8166 45.7798C72.4102 44.7436 73.0561 43.7374 73.7519 42.7648C73.6822 43.3339 73.6248 43.903 73.5469 44.4681C73.1369 47.4831 72.7801 50.5223 72.2594 53.501C71.8822 55.6765 71.2508 57.8077 70.7752 59.9589C70.6768 60.411 70.6029 61.194 70.8203 61.3232C71.4271 61.6784 71.8658 61.0971 72.1856 60.6451C73.6207 58.631 75.0147 56.5968 76.4703 54.4939ZM46.129 24.4566C46.3074 23.9885 46.3614 23.4834 46.2861 22.989C46.2107 22.4946 46.0085 22.0273 45.6985 21.6313C44.4275 19.9603 42.7054 19.928 40.7045 20.1823C39.2871 20.6488 38.0511 21.5356 37.1661 22.7211C37.0392 22.892 36.9716 23.0987 36.9734 23.3104C37.0677 24.4365 37.408 25.4818 38.3182 26.2164C38.9241 26.6802 39.6272 27.0055 40.3766 27.1687C41.1259 27.332 41.9028 27.3291 42.6509 27.1602C43.399 26.9914 44.0996 26.6608 44.7018 26.1925C45.3041 25.7242 45.793 25.1299 46.1331 24.4526L46.129 24.4566ZM23.3444 34.7045C22.6187 34.2807 20.7531 34.6238 20.3759 35.2171C20.3439 35.2972 20.3303 35.3831 20.336 35.4689C20.3417 35.5548 20.3665 35.6383 20.4087 35.7136C20.4554 35.785 20.5189 35.8443 20.5938 35.8865C20.6688 35.9286 20.7529 35.9524 20.8392 35.9557C21.7979 35.8421 22.685 35.399 23.3444 34.7045Z" fill="#C8A468"/>
<path d="M45.7037 21.626C46.0137 22.022 46.2159 22.4893 46.2913 22.9837C46.3666 23.4781 46.3126 23.9832 46.1342 24.4513C45.7921 25.1264 45.3019 25.7182 44.6991 26.184C44.0963 26.6498 43.3959 26.978 42.6485 27.1448C41.9011 27.3117 41.1254 27.313 40.3774 27.1487C39.6294 26.9845 38.9279 26.6587 38.3234 26.195C37.4132 25.4604 37.0729 24.415 36.9785 23.2889C36.9768 23.0772 37.0443 22.8705 37.1713 22.6996C38.0563 21.5142 39.2923 20.6274 40.7097 20.1609C42.7106 19.9106 44.4326 19.9429 45.7037 21.626ZM42.3416 26.2313C44.3138 25.86 45.4331 24.0517 44.7033 22.4978C44.0841 21.1901 42.5179 20.6089 40.9475 21.2022C40.2118 21.5278 39.4982 21.8999 38.8113 22.3162C39.3818 22.5651 39.973 22.765 40.5785 22.9135C42.6204 23.5593 42.9402 24.1607 42.3416 26.2192V26.2313Z" fill="#4D3826"/>
<path d="M44.7025 22.4891C45.4323 24.0431 44.313 25.8513 42.3408 26.2226C42.9394 24.1642 42.6196 23.5628 40.5777 22.9049C39.9722 22.7563 39.381 22.5565 38.8105 22.3075C39.4975 21.8912 40.211 21.5191 40.9467 21.1935C42.5171 20.6002 44.0834 21.1814 44.7025 22.4891Z" fill="white"/>
<path d="M36.1266 14.504C36.6309 14.4233 37.1393 14.9319 37.2828 15.6664C37.4058 16.2921 36.9015 17.1195 36.3275 17.2325C35.9174 17.3172 34.9867 16.514 34.917 16.0216C34.9204 15.6728 35.0409 15.3349 35.2597 15.0604C35.4784 14.7859 35.7832 14.5903 36.1266 14.504Z" fill="#4D3826"/>
<path d="M55.5791 103.589C56.0383 104.396 55.4233 106.14 54.5131 106.693C53.0739 107.573 52.053 108.852 51.0607 110.136C50.9568 110.296 50.7986 110.416 50.6141 110.472C50.4295 110.529 50.2305 110.52 50.0521 110.447C48.2275 110.071 46.407 109.639 44.562 109.421C42.2085 109.127 39.9206 109.611 37.7147 110.434C37.0915 110.669 36.4847 110.951 35.5785 111.343C35.1685 111.238 34.369 111.084 33.5981 110.83C33.2731 110.663 32.977 110.446 32.7207 110.188C32.9667 109.93 33.1676 109.538 33.471 109.429C34.3526 109.119 35.2833 108.913 36.1935 108.671C37.0136 108.457 37.8336 108.303 38.6126 108.033C40.5274 107.367 42.4176 106.649 44.3201 105.954C44.8982 105.744 45.3 105.769 45.3615 106.552C45.4133 107.084 45.5604 107.603 45.7961 108.085C45.9232 108.352 46.2964 108.489 46.5588 108.703C46.7105 108.404 47.0139 108.081 46.9688 107.807C46.8499 106.83 46.4932 105.882 46.444 104.909C46.2472 100.824 46.2718 96.7437 47.264 92.7358C47.3747 92.2999 47.4362 91.8519 47.5674 91.1899C47.9528 91.9205 48.2808 92.4613 48.5391 93.0304C49.5068 95.1575 51.1345 96.8325 52.4794 98.6811C53.6274 100.259 54.6033 101.946 55.5791 103.589Z" fill="#C8A468"/>
<path d="M33.9778 11.5122C34.2771 11.7988 34.4862 12.1257 34.1254 12.3719C33.8302 12.5697 33.1537 12.7312 33.0225 12.5859C31.9605 11.3952 30.5213 10.374 31.0257 8.40841C31.1535 7.64571 31.1988 6.87182 31.161 6.09971C31.2307 3.83945 30.4024 2.76986 28.1843 2.15233C26.797 1.7449 25.3144 1.78022 23.9488 2.25323C23.4456 2.42641 23.0222 2.77156 22.7556 3.22595C22.298 4.06202 21.9979 4.97274 21.87 5.91405C21.6773 8.40034 23.3132 9.81301 25.9702 9.68385C26.296 9.73273 26.6108 9.8365 26.9009 9.99059C26.6014 10.2343 26.2819 10.453 25.9456 10.6445C25.7488 10.7373 25.4617 10.6445 25.2239 10.6445C22.2718 11.0481 20.3037 8.52546 20.5907 5.63555C20.7875 3.57306 21.6937 1.89805 23.8217 1.13521C24.2102 1.02341 24.6061 0.938442 25.0066 0.88093C26.9073 0.50712 28.8812 0.828576 30.5583 1.78503C31.1255 2.03128 31.6063 2.43686 31.9403 2.95095C32.2744 3.46504 32.4469 4.06476 32.4361 4.67494C32.4361 6.08357 32.3172 7.50027 32.3131 8.90083C32.3129 9.30583 32.431 9.70234 32.6534 10.0431C33.0457 10.5737 33.4892 11.0657 33.9778 11.5122Z" fill="#4D3826"/>
<path d="M49.4993 111.536L49.0524 112.134L48.7079 112.582C46.8096 111.879 44.8169 112.097 42.8611 111.924C41.4834 111.799 40.114 111.52 38.7363 111.282C38.7363 111.185 38.7691 111.088 38.7773 110.987C42.3814 109.869 45.8911 110.471 49.4993 111.536Z" fill="#4D3826"/>
<path d="M47.7563 113.704C47.8211 113.741 47.8775 113.79 47.9219 113.849C47.9664 113.908 47.9979 113.976 48.0146 114.047C48.0146 114.116 47.8711 114.257 47.7604 114.302C46.3828 114.891 44.9805 115.436 43.6151 116.053C43.0165 116.324 42.4302 116.61 41.8439 116.901C41.151 117.24 40.4662 117.591 39.7733 117.926C39.6436 117.98 39.4994 117.99 39.3633 117.955C41.0033 116.453 42.5696 114.875 44.9354 114.552C45.9891 114.403 46.2885 114.12 46.1163 113.18C46.7436 113.377 47.2561 113.519 47.7563 113.704Z" fill="#4D3826"/>
<path d="M44.5636 113.296L37.9828 114.685C37.9637 114.59 37.9473 114.497 37.9336 114.406C38.278 114.249 38.6265 114.103 38.975 113.978C40.7544 113.309 42.6721 113.075 44.5636 113.296Z" fill="#4D3826"/>
<path d="M41.8645 116.897L42.254 117.668C41.5447 117.991 40.8436 118.326 40.1424 118.653L39.7939 117.923C40.4664 117.588 41.1511 117.236 41.8645 116.897Z" fill="#4D3826"/>
<path d="M28.2363 58.0541C28.1864 58.3176 28.0994 58.573 27.978 58.8129C26.8997 60.3346 25.768 61.828 24.6979 63.3698C24.4651 63.7292 24.3158 64.1348 24.2605 64.5576C24.2052 64.9804 24.2454 65.41 24.3781 65.8157C25.1284 68.7944 25.7352 71.8095 25.6737 74.8931C25.6286 77.1776 25.4605 79.4621 25.2883 81.7546C25.2423 83.2639 25.0585 84.766 24.7389 86.2429C23.9189 89.2781 23.2218 92.4021 21.2373 94.953C20.4952 95.9095 19.3431 96.5674 18.3098 97.2778C18.1007 97.4271 17.5841 97.185 17.2356 97.0599C17.1372 97.0195 17.0675 96.7369 17.1003 96.5957C17.1344 96.5275 17.186 96.4693 17.25 96.4268C17.314 96.3843 17.3882 96.3591 17.4652 96.3535C18.6173 96.4221 19.2775 95.623 19.831 94.8803C20.9932 93.3985 21.8308 91.6958 22.2911 89.8795C22.4369 89.3673 22.6149 88.8644 22.8241 88.374C20.1221 86.812 18.2565 84.7616 17.5431 81.686C16.7091 77.9952 16.9075 74.1509 18.1171 70.5623C18.4495 69.719 18.8613 68.9083 19.3472 68.1406C19.4563 67.9777 19.5145 67.7868 19.5145 67.5916C19.5145 67.3965 19.4563 67.2056 19.3472 67.0427C18.8094 66.0981 18.3553 65.1096 17.99 64.0882C17.4872 62.6847 17.0683 61.2535 16.7354 59.8018C16.5235 58.9841 16.5061 58.1294 16.6846 57.304C16.8631 56.4786 17.2327 55.7049 17.7645 55.0431C18.8633 53.6466 19.8966 52.2178 21.6187 51.4872C21.815 51.3983 22.0236 51.3384 22.2378 51.3097C22.9061 51.241 23.1275 51.5518 22.8815 52.1694C22.4223 53.3278 21.9549 54.4902 21.5121 55.6526C21.4061 55.9998 21.3213 56.3529 21.2578 56.7101C22.243 55.5895 23.5078 54.7409 24.9275 54.248C25.1523 54.1519 25.3875 54.0814 25.6286 54.0381C25.8172 54.0381 26.1494 54.0825 26.1822 54.1875C26.2047 54.2924 26.2058 54.4007 26.1854 54.506C26.165 54.6113 26.1235 54.7116 26.0632 54.801C24.8332 56.5769 23.5252 58.3245 23.0455 60.492C23.0209 60.5889 23.0168 60.6857 23.0004 60.7987C23.9189 60.0198 24.7676 59.2166 25.7065 58.5425C26.2315 58.221 26.8105 57.9941 27.4163 57.8725C27.6705 57.7958 27.9698 57.9815 28.2363 58.0541ZM26.2396 59.4184C26.1904 59.374 26.1412 59.3336 26.0961 59.2852C25.9846 59.3451 25.8801 59.4169 25.7844 59.4991C24.8291 60.4879 23.8779 61.4728 22.9512 62.4859C22.8764 62.5786 22.8224 62.6859 22.7927 62.8007C22.763 62.9155 22.7584 63.0352 22.779 63.1518C22.9512 63.9227 22.6642 64.2618 21.8975 64.1932C21.3439 66.3646 21.344 66.3646 22.2255 66.8207C23.0496 64.0842 24.1198 61.4849 26.2396 59.4184ZM23.7508 69.3837L23.3161 67.3898L21.4834 68.0921L23.7508 69.3837ZM21.5244 61.3356C22.2542 59.5717 23.066 57.6021 23.8 55.8342C21.7745 57.5496 20.8396 58.5344 21.5244 61.3356ZM23.9845 70.9578C23.9845 70.7197 23.6236 70.4331 23.3612 70.2959C22.4428 69.8196 21.4916 69.3958 20.3558 68.859C19.9058 69.7198 19.5061 70.6052 19.1586 71.5108C18.3959 73.8033 18.3385 76.1847 18.523 78.558C18.7444 81.4156 19.3431 84.1521 21.8442 86.0572C22.3071 86.4589 22.7452 86.8875 23.1562 87.3407C23.435 86.1783 23.7836 85.2379 23.8738 84.2772C24.0788 82.1825 24.2469 80.0756 24.2592 77.9767C24.2633 75.6358 24.1075 73.2907 23.9681 70.9578H23.9845ZM20.323 55.7212C20.5116 54.7969 20.8683 53.913 21.1758 52.9362C17.8588 55.0956 17.7358 60.0964 19.4661 61.501C19.6383 60.5364 19.831 59.6363 19.9622 58.7201C20.0893 57.7232 20.1057 56.706 20.3066 55.7212H20.323ZM20.856 64.0277L19.5604 64.2981L20.3599 65.1578C20.5444 64.6937 20.6838 64.3748 20.8396 64.0277H20.856Z" fill="#4D3826"/>
<path d="M39.8145 112.719L38.646 113.159L34.3203 114.773C34.8825 113.887 35.7239 113.207 36.7161 112.836C37.7082 112.465 38.7965 112.424 39.8145 112.719Z" fill="white"/>
<path d="M20.3751 35.2137C20.7523 34.6204 22.6179 34.2773 23.3436 34.7011C22.6843 35.3956 21.7971 35.8387 20.8384 35.9524C20.7522 35.949 20.668 35.9253 20.5931 35.8831C20.5181 35.8409 20.4546 35.7816 20.4079 35.7102C20.3657 35.6349 20.3409 35.5514 20.3352 35.4656C20.3296 35.3798 20.3432 35.2938 20.3751 35.2137Z" fill="#4D3826"/>
<path d="M38.6599 113.158L38.9756 113.965C38.6271 114.09 38.2786 114.235 37.9342 114.393C37.9342 114.487 37.9506 114.58 37.9834 114.671L38.0736 115.479L36.6877 115.636C35.9128 115.721 35.1337 115.826 34.3547 115.842C34.1866 115.842 34.0103 115.495 33.8135 115.281L34.3342 114.768L38.6599 113.158Z" fill="#4D3826"/>
<path d="M26.0964 59.2852C26.1415 59.3336 26.1907 59.374 26.2399 59.4184C24.1201 61.4849 23.05 64.0842 22.2259 66.8207C21.3443 66.3646 21.3443 66.3646 21.8978 64.1932C22.6646 64.2618 22.9516 63.9227 22.7794 63.1518C22.7587 63.0351 22.7634 62.9155 22.7931 62.8007C22.8228 62.6859 22.8768 62.5786 22.9516 62.4859C23.8782 61.4728 24.8295 60.4879 25.7848 59.4991C25.8805 59.4169 25.985 59.3451 26.0964 59.2852Z" fill="#4D3826"/>
<path d="M33.7269 112.923C33.7761 112.809 33.8501 112.707 33.9435 112.624C34.037 112.541 34.1476 112.479 34.2679 112.443C34.3881 112.406 34.515 112.396 34.6396 112.413C34.7643 112.429 34.8838 112.473 34.9897 112.539C34.1082 113.488 33.2348 114.424 32.3574 115.365L32.2754 115.284C32.7551 114.493 33.2266 113.698 33.7269 112.923Z" fill="#4D3826"/>
<path d="M23.3162 67.3906L23.7508 69.3845L21.4834 68.0929L23.3162 67.3906Z" fill="#C8A468"/>
<path d="M23.7988 55.833C23.0648 57.6009 22.253 59.5705 21.5232 61.3343C20.8384 58.5332 21.7733 57.5484 23.7988 55.833Z" fill="#4D3826"/>
<path d="M32.0986 108.913L32.2011 109.091C31.9387 109.305 31.664 109.716 31.418 109.696C30.2781 109.615 29.1465 109.414 28.0107 109.252L28.0476 108.953L32.0986 108.913Z" fill="#4D3826"/>
<path d="M21.1587 52.939C20.8512 53.9157 20.4945 54.7996 20.3059 55.7239C20.105 56.7088 20.0886 57.742 19.9451 58.7228C19.8139 59.639 19.6211 60.5391 19.4489 61.5038C17.7187 60.0992 17.8417 55.0983 21.1587 52.939Z" fill="#4D3826"/>
<path d="M32.434 111.654C32.4873 111.779 32.5447 111.904 32.6021 112.025C30.2978 113.139 27.9962 114.257 25.6974 115.379C25.6441 115.266 25.5867 115.157 25.5293 115.044L25.6974 114.963L32.434 111.654Z" fill="#4D3826"/>
<path d="M19.5449 64.2968L20.8406 64.0264C20.6848 64.3735 20.5454 64.6923 20.3445 65.1565L19.5449 64.2968Z" fill="#C8A468"/>
<path d="M30.3859 111.06L25.1377 111.75C26.8024 110.826 28.5695 110.789 30.3859 111.06Z" fill="#4D3826"/>
<path d="M25.6905 115.381L26.0309 116.188C25.3912 116.454 24.7516 116.717 24.1038 116.971C23.7774 117.014 23.4455 116.992 23.1279 116.906C23.2337 116.606 23.3711 116.318 23.5379 116.047C24.0545 115.388 24.6713 114.812 25.3666 114.339L25.6905 114.977L25.5224 115.058C25.5798 115.159 25.6372 115.268 25.6905 115.381Z" fill="#4D3826"/>
</g>
<defs>
<filter id="filter0_d" x="0.811523" y="0.729004" width="98.1517" height="127.966" filterUnits="userSpaceOnUse" color-interpolation-filters="sRGB">
<feFlood flood-opacity="0" result="BackgroundImageFix"/>
<feColorMatrix in="SourceAlpha" type="matrix" values="0 0 0 0 0 0 0 0 0 0 0 0 0 0 0 0 0 0 127 0"/>
<feOffset dy="4"/>
<feGaussianBlur stdDeviation="2"/>
<feColorMatrix type="matrix" values="0 0 0 0 0 0 0 0 0 0 0 0 0 0 0 0 0 0 0.25 0"/>
<feBlend mode="normal" in2="BackgroundImageFix" result="effect1_dropShadow"/>
<feBlend mode="normal" in="SourceGraphic" in2="effect1_dropShadow" result="shape"/>
</filter>
</defs>
</svg>
