<svg width="211" height="130" viewBox="0 0 211 130" fill="none" xmlns="http://www.w3.org/2000/svg">
<path d="M162.479 102.992C162.956 104.159 163.319 105.371 163.562 106.609C163.915 108.113 164.192 109.628 164.469 111.138C164.504 111.532 164.504 111.928 164.469 112.322C164.647 114.626 164.365 116.943 163.639 119.136C163.221 120.545 162.761 122.019 161.554 123.168C160.147 124.518 158.64 125.779 156.32 126.128C155.537 126.24 154.76 126.353 153.965 126.43L153.865 125.406C154.387 125.35 154.906 125.265 155.419 125.151C156.665 124.928 157.838 124.401 158.835 123.617C159.832 122.833 160.622 121.814 161.136 120.652C162.199 118.068 162.735 115.296 162.714 112.5C162.661 111.106 162.492 109.72 162.208 108.355C161.584 106.052 161.242 103.678 159.947 101.518C159.576 100.926 159.305 100.245 158.923 99.6408C157.615 97.5806 156.332 95.5559 153.582 94.3778C153.108 94.1671 152.615 94.0007 152.11 93.8805L152.381 92.8267C153.093 92.9814 153.789 93.2034 154.46 93.4897C156.805 94.4746 158.745 96.2354 159.959 98.4805C160.836 99.9665 161.778 101.447 162.479 102.992Z" fill="#AD8F12"/>
<path d="M206.696 125.246C207.294 124.864 207.758 124.304 208.025 123.644C208.292 122.984 208.348 122.257 208.186 121.564C207.997 120.682 207.297 119.788 206.843 118.912C205.931 117.136 204.217 115.739 202.433 114.418C200.214 112.784 197.97 111.156 195.586 109.682C193.201 108.208 190.711 106.882 188.167 105.621C186.572 104.834 184.788 104.301 183.092 103.644C180.925 102.797 178.806 101.868 177.104 100.459C175.538 99.1501 174.502 97.7411 175.067 96.1012C175.11 95.8784 175.217 95.6729 175.373 95.5092C176.227 94.9172 176.992 94.1357 178.046 93.7627C179.046 93.5306 180.082 93.5104 181.09 93.7035C183.115 93.9368 185.077 94.562 186.866 95.5447C187.272 95.7539 187.642 96.0278 187.961 96.3558C188.119 96.6228 188.213 96.9225 188.238 97.232L187.961 97.2734C187.584 97.0307 187.207 96.7939 186.837 96.5452C185.182 95.4322 183.239 95.0829 181.308 94.7692C180.636 94.6289 179.941 94.649 179.278 94.8279C178.616 95.0068 178.004 95.3395 177.493 95.7993C176.286 96.8235 176.35 98.0549 177.634 99.3514C179.4 101.127 181.755 101.998 184.181 102.904C185.983 103.561 187.714 104.366 189.48 105.141C190.616 105.618 191.726 106.153 192.807 106.746C194.885 107.93 196.928 109.203 198.918 110.476C200.161 111.263 201.368 112.086 202.498 112.956C203.629 113.826 204.765 114.868 205.878 115.839C206.371 116.217 206.821 116.648 207.22 117.124C208.009 118.261 208.698 119.421 209.405 120.575C209.612 120.913 209.791 121.268 209.94 121.635C210.564 123.163 209.999 124.489 208.992 125.501C207.031 127.507 204.416 128.735 201.627 128.958C198.905 129.169 196.168 128.925 193.525 128.236C191.671 127.77 189.843 127.202 188.049 126.537C187.078 126.194 186.189 125.643 185.241 125.217C183.881 124.625 182.503 124.033 181.119 123.441C180.72 123.291 180.34 123.092 179.989 122.849C178.146 121.369 176.074 120.054 174.543 118.349C173.578 117.272 172.834 116.015 172.353 114.649C172.052 113.82 173.106 113.14 174.284 113.424C174.296 113.679 174.258 113.935 174.172 114.176C173.813 114.768 174.107 115.289 174.39 115.898C175.01 117.137 175.895 118.222 176.98 119.078C178.686 120.63 180.596 121.939 182.656 122.967C184.423 123.79 186.189 124.654 188.049 125.335C190.878 126.449 193.829 127.216 196.84 127.62C199.038 127.873 201.263 127.729 203.411 127.194C204.842 126.88 205.695 125.992 206.696 125.246Z" fill="#AD8F12"/>
<path d="M149.184 126.241C147.524 125.862 145.87 125.436 144.256 124.933C140.017 123.607 137.397 121.108 136.349 117.521C135.66 115.152 135.171 112.755 135.648 110.369C136.072 108.155 136.32 105.875 137.544 103.786C138.392 102.347 139.01 100.825 139.899 99.4165C141.547 97.0746 143.678 95.1178 146.146 93.6798C148.042 92.5901 150.287 92.2904 152.399 92.845L152.128 93.8988C150.761 93.5782 149.326 93.7219 148.048 94.3073C146.167 95.1334 144.487 96.3617 143.126 97.9068C141.845 99.409 140.728 101.044 139.793 102.785C138.898 104.472 138.251 106.281 137.874 108.155C137.485 109.771 136.961 111.375 137.285 113.021C137.615 114.917 138.066 116.79 138.633 118.628C139.375 120.942 141.342 122.517 143.932 123.541C145.322 124.092 146.812 124.495 148.272 124.927C150.095 125.466 152.006 125.635 153.895 125.424L153.995 126.448C152.391 126.647 150.765 126.577 149.184 126.241Z" fill="#AD8F12"/>
<path d="M100.627 123.741C104.299 124.301 108.038 124.259 111.696 123.617C113.407 123.218 115.067 122.622 116.642 121.841C118.311 121.112 119.869 120.149 121.27 118.981C123.395 117.205 124.803 115.157 125.209 112.599C125.404 111.493 125.538 110.376 125.609 109.254C125.639 107.915 125.183 106.61 124.326 105.584C123.584 104.556 122.757 103.594 121.853 102.707C120.984 102.041 120.069 101.437 119.115 100.901C118.173 100.268 117.237 99.6223 116.336 98.9414C114.97 97.9054 115.594 95.6202 116.813 94.8387C118.385 93.8264 120.21 93.7198 121.976 93.3172C123.743 92.9146 125.509 93.2639 127.276 93.4001C127.936 93.5234 128.571 93.7576 129.154 94.0928C129.295 94.152 129.319 94.4184 129.395 94.5901C129.218 94.6493 128.995 94.8032 128.859 94.7558C126.929 94.0974 124.864 93.9465 122.86 94.3177C121.366 94.5525 119.893 94.9069 118.456 95.3775C117.868 95.6477 117.372 96.0863 117.031 96.6385C116.913 96.7746 116.828 96.936 116.781 97.1104C116.735 97.2847 116.729 97.4674 116.763 97.6445C116.798 97.8216 116.873 97.9883 116.981 98.1321C117.09 98.2758 117.23 98.3927 117.39 98.4737C118.475 99.2861 119.634 99.9937 120.852 100.587C122.436 101.292 123.437 102.488 124.526 103.589C125.254 104.42 125.886 105.331 126.41 106.306C127.529 108.112 127.37 110.006 127.046 111.972C126.833 113.665 126.278 115.297 125.415 116.767C124.656 118.005 123.654 119.075 122.471 119.911C122.035 120.213 121.682 120.621 121.223 120.894C119.714 121.874 118.14 122.75 116.513 123.516C114.081 124.525 111.487 125.079 108.858 125.15C107.71 125.192 106.562 125.275 105.414 125.34C102.549 125.261 99.6986 124.894 96.9062 124.244C95.2897 123.95 93.693 123.554 92.1252 123.06C90.5832 122.405 89.0794 121.661 87.6211 120.834C86.5534 120.242 85.6176 119.436 84.8715 118.466C83.9941 117.408 83.3391 116.181 82.9461 114.861C82.5184 113.35 82.48 111.755 82.8343 110.225C83.0366 109.258 83.6071 108.408 84.424 107.857C84.7353 107.681 85.0933 107.607 85.4485 107.644C85.8959 107.644 86.0372 107.911 85.7782 108.289C85.5191 108.668 85.1894 109.077 84.9362 109.474C84.1531 110.8 84.1649 112.238 84.2591 113.677C84.45 115.61 85.3405 117.405 86.7614 118.721C87.9498 119.927 89.3897 120.853 90.9771 121.432C94.1065 122.533 97.3402 123.307 100.627 123.741Z" fill="#AD8F12"/>
<g filter="url(#filter0_d)">
<path d="M22.1724 78.9617C20.8487 79.253 19.5449 79.6287 18.2687 80.0866C17.7506 80.0866 17.4209 80.0866 17.4209 80.0866L19.305 79.3288L20.3648 78.8788C21.1868 78.8033 22.0124 78.7736 22.8377 78.79C22.6198 78.8788 22.3961 78.9144 22.1724 78.9617Z" fill="#4D3826"/>
<path d="M37.6047 90.1869C40.6428 89.9797 43.6809 89.7962 46.7191 89.5949C50.0045 89.5949 53.3016 89.6304 56.381 88.2924C56.9532 88.0503 57.4093 87.5938 57.6527 87.0196C57.7977 86.631 57.8093 86.2049 57.6855 85.809C57.5617 85.4131 57.3098 85.0702 56.9697 84.835C55.3425 83.7473 53.5539 82.926 51.6707 82.4018C49.6533 81.8358 47.5995 81.4105 45.5238 81.1289C44.5089 80.8536 43.4602 80.7241 42.4092 80.7441C40.107 80.9987 37.8284 81.4782 35.544 81.8749C31.9989 82.587 28.5874 83.8556 25.4346 85.6342C25.104 85.7604 24.8365 86.0131 24.6908 86.3371C24.5452 86.6612 24.5331 87.03 24.6574 87.3629C25.0696 88.6121 26.1117 89.139 27.2127 89.4646C30.6335 90.5421 34.1132 90.4178 37.6047 90.1869ZM45.8477 80.1225C45.967 80.3167 46.1093 80.4956 46.2716 80.6553L49.2155 81.2473C48.9917 81.0307 48.794 80.7883 48.6267 80.5251C49.3038 80.6376 49.975 80.7619 50.6462 80.904C52.0063 81.2395 53.3312 81.7054 54.6028 82.2952C55.7414 82.7822 56.8383 83.3623 57.8824 84.0298C58.1341 84.188 58.3571 84.3882 58.5418 84.6219L58.0472 84.7995C58.0472 84.7995 60.4023 86.5755 56.8696 88.9436C56.958 88.9436 57.4172 88.8667 58.1355 88.8134C57.6996 89.1916 57.1874 89.4703 56.6341 89.6304C55.9206 89.8749 55.1879 90.0591 54.4439 90.181C52.0887 90.4711 49.7807 90.7019 47.4491 90.9506C47.3218 90.9621 47.1937 90.9621 47.0664 90.9506C47.0664 90.9032 47.0664 90.8618 47.0664 90.8203C44.1873 91.0098 41.3081 91.1815 38.429 91.4124C37.3574 91.4893 36.3035 91.5485 35.2378 91.5722L35.6735 91.3117L28.6081 90.7197L28.0665 90.9151C27.878 90.8796 27.6955 90.8381 27.4777 90.7907C26.3001 90.5007 25.0401 90.033 24.2865 88.9436C23.8459 88.3501 23.5568 87.6569 23.4445 86.9248C23.4033 86.4808 23.8567 85.9125 24.2158 85.5158C24.338 85.3834 24.4721 85.2625 24.6162 85.1547C24.5779 85.2427 24.524 85.3229 24.4572 85.3915L26.8123 84.7995C27.0291 84.4546 27.2087 84.0874 27.3481 83.7042C29.9107 82.4877 32.6117 81.591 35.3909 81.0342C36.4919 80.8152 37.5988 80.6139 38.6998 80.4067C38.8268 80.3861 38.9499 80.3462 39.0649 80.2883C40.6193 79.2522 42.2855 79.5246 43.9694 79.8087C44.623 79.9153 45.2471 80.01 45.8712 80.1047L45.8477 80.1225Z" fill="#4D3826"/>
<path d="M26.8419 84.7998L24.4868 85.3919C24.5536 85.3232 24.6075 85.243 24.6458 85.1551C24.9179 84.965 25.2032 84.7949 25.4995 84.6459C26.0883 84.3085 26.7477 83.9947 27.3777 83.7046C27.2383 84.0878 27.0587 84.4549 26.8419 84.7998Z" fill="#4D3826"/>
<path d="M52.2944 75.4404C50.7571 75.8881 49.4461 76.9059 48.6263 78.288C48.6263 78.288 47.7608 79.1583 48.6263 80.5258C47.7078 80.3719 46.7893 80.2417 45.8708 80.1055C45.5617 79.6423 45.4318 79.0813 45.5055 78.5285C45.5793 77.9756 45.8516 77.4689 46.2712 77.1039C47.0705 76.1986 48.0627 75.4862 49.1739 75.02C50.2219 75.1463 51.2621 75.2864 52.2944 75.4404Z" fill="white"/>
<path d="M75.71 102.276C74.0684 105.06 71.7377 107.369 68.9449 108.978C66.5546 110.392 63.9454 111.392 61.226 111.938C58.1349 112.53 55.0202 113.016 51.9114 113.489C51.1275 113.548 50.3403 113.548 49.5563 113.489V113.685C46.2886 113.726 43.0149 113.809 39.7472 113.797C36.8622 113.797 33.9713 113.519 31.098 113.673C30.0702 113.715 29.0408 113.656 28.0246 113.495L28.0187 113.217C28.0187 113.217 27.8774 112.885 27.689 112.299C27.7883 112.317 27.8885 112.329 27.9892 112.335C29.9499 112.459 31.9164 112.524 33.8771 112.554C36.4559 112.595 39.0407 112.631 41.6195 112.584C44.3868 112.536 47.16 112.536 49.9037 112.24C53.666 111.844 57.4283 111.364 61.1318 110.6C65.3912 109.838 69.2772 107.671 72.1773 104.443C73.0633 103.444 73.852 102.362 74.5324 101.211C74.5324 101.649 74.5324 102.093 74.5324 102.561C74.5324 102.561 76.8346 99.0854 77.4116 96.1904L77.9356 96.2851C77.8355 96.818 77.7354 97.3449 77.6412 97.8718C77.2763 99.4482 76.6213 100.942 75.71 102.276Z" fill="#4D3826"/>
<path d="M52.2943 75.4389C51.2581 75.2852 50.2199 75.1453 49.1797 75.0192C49.7591 74.8194 50.3689 74.7234 50.9814 74.7354C51.9933 74.7208 52.9968 74.9223 53.9253 75.3266C53.3817 75.2506 52.8283 75.2889 52.3002 75.4389H52.2943Z" fill="#4D3826"/>
<path d="M28.6081 90.7197L35.6734 91.3117L35.2436 91.519C32.8383 91.6086 30.4309 91.4099 28.0723 90.9269L28.6081 90.7197Z" fill="#4D3826"/>
<path d="M58.5466 84.6343C58.8122 85.0345 58.9886 85.4877 59.0638 85.9628C59.139 86.438 59.1112 86.9238 58.9823 87.3872C58.8618 87.9385 58.5688 88.4365 58.1463 88.808C57.4279 88.8613 56.9687 88.9264 56.8804 88.9383C60.4131 86.5702 58.0579 84.7941 58.0579 84.7941L58.5466 84.6343Z" fill="#4D3826"/>
<path d="M74.5323 101.193C73.8518 102.344 73.0632 103.426 72.1771 104.425C69.2816 107.65 65.4024 109.816 61.1493 110.582C57.4458 111.346 53.6835 111.826 49.9212 112.222C47.1775 112.518 44.4043 112.518 41.637 112.566C39.0582 112.613 36.4734 112.566 33.8946 112.536C31.928 112.536 29.9615 112.441 28.0067 112.317C27.9061 112.311 27.8058 112.299 27.7065 112.281C26.5937 108.925 23.7028 97.1493 35.2546 91.5014C36.3203 91.5014 37.3743 91.4185 38.4458 91.3415C41.325 91.1284 44.2041 90.9567 47.0833 90.7495C47.0833 90.791 47.0833 90.8324 47.0833 90.8798C47.2106 90.8913 47.3387 90.8913 47.466 90.8798C49.8211 90.6311 52.135 90.4002 54.4607 90.1101C55.2048 89.9882 55.9374 89.804 56.651 89.5595C57.2042 89.3994 57.7164 89.1207 58.1524 88.7426C62.1679 88.5057 74.1731 88.6538 74.5323 101.193Z" fill="#F79221"/>
<path d="M76.5582 92.6795C76.7909 95.6609 76.0821 98.6401 74.5328 101.193C74.1677 88.6538 62.1331 88.5058 58.1411 88.8077C58.5637 88.4361 58.8567 87.9382 58.9772 87.3869C59.1061 86.9235 59.1339 86.4376 59.0587 85.9625C58.9835 85.4874 58.8071 85.0342 58.5415 84.634C69.4575 81.0345 74.2266 86.3212 76.2049 90.5542C76.379 91.252 76.4971 91.9627 76.5582 92.6795Z" fill="white"/>
<path d="M49.2149 81.2481L46.271 80.656C46.1158 80.4895 45.9814 80.3046 45.8706 80.1055C46.7891 80.2416 47.7076 80.3719 48.6261 80.5258C48.7934 80.789 48.9911 81.0314 49.2149 81.2481Z" fill="#4D3826"/>
<path d="M22.8493 78.7908C27.2887 78.9092 26.9236 80.8155 27.43 81.8397C27.5439 82.1387 27.5979 82.4574 27.5888 82.7775C27.5797 83.0975 27.5077 83.4126 27.377 83.7046C26.747 83.9946 26.117 84.2966 25.4988 84.6459C25.2025 84.7949 24.9172 84.965 24.6451 85.155C24.8793 84.4465 24.8753 83.6802 24.6338 82.9741C24.3923 82.2681 23.9266 81.6614 23.3085 81.2477C22.0426 80.4011 19.5698 80.1583 18.2686 80.0636C19.5447 79.6058 20.8486 79.2301 22.1722 78.9388C22.3959 78.8914 22.6197 78.8322 22.8375 78.7671L22.8493 78.7908Z" fill="white"/>
<path d="M28.0186 113.216L19.1869 110.848C19.0926 110.647 18.9984 110.452 18.916 110.256C19.5872 110.475 20.2643 110.677 20.9414 110.848C22.59 111.281 24.2975 111.511 25.9755 111.855C26.5643 111.973 27.1177 112.204 27.6889 112.293C27.8773 112.885 28.0186 113.216 28.0186 113.216Z" fill="#4D3826"/>
<path d="M35.2377 91.5189C23.6858 97.1668 26.5767 108.942 27.6895 112.299C27.1007 112.21 26.5531 111.979 25.9761 111.861C24.2981 111.517 22.5906 111.269 20.942 110.854C20.2649 110.677 19.5878 110.475 18.9166 110.262C13.2997 97.4983 25.3285 91.9807 28.0663 90.915C30.4244 91.402 32.8318 91.6047 35.2377 91.5189Z" fill="white"/>
<path d="M48.6258 78.2871C49.4457 76.9049 50.7567 75.8872 52.2939 75.4395L52.8827 75.5283C53.9309 75.7564 54.9665 76.039 55.9856 76.3748C57.8226 76.8366 59.6596 77.3162 61.5084 77.7128C64.9998 78.4528 68.2794 79.7612 70.9289 82.1589C73.4842 84.4737 75.4625 87.1852 76.2279 90.5538C74.2261 86.3208 69.4569 81.0341 58.5645 84.6336C58.3798 84.3999 58.1567 84.1997 57.905 84.0415C56.8609 83.374 55.7641 82.7938 54.6255 82.3069C53.3539 81.7171 52.029 81.2512 50.6689 80.9157C49.9977 80.7736 49.3265 80.6493 48.6494 80.5368C47.7603 79.1574 48.6258 78.2871 48.6258 78.2871Z" fill="#F79221"/>
<path d="M50.9813 74.7354C50.3688 74.7234 49.759 74.8196 49.1796 75.0196C48.0609 74.8894 46.9422 74.7769 45.8177 74.6999C44.1842 74.6022 42.5455 74.6437 40.919 74.8242C39.717 75.0275 38.5276 75.3003 37.3569 75.6412C36.0615 75.9254 34.7603 76.18 33.4591 76.4523C33.4591 76.3516 33.4179 76.251 33.3944 76.1504C31.1982 76.6062 28.9844 77.0029 26.8 77.5357C25.4635 77.8672 24.1799 78.4178 22.8552 78.7908C22.024 78.7737 21.1925 78.8033 20.3646 78.8796L19.3048 79.3058L19.0752 78.7138C20.2528 78.3468 21.4303 78.0271 22.655 77.7133C25.0749 77.1035 27.43 76.4286 29.8617 75.8544C30.8744 75.6116 31.946 75.6294 32.9704 75.4163C34.3257 75.1575 35.663 74.8114 36.9742 74.3802C40.177 73.3321 43.5682 72.9968 46.9128 73.3975C49.0736 73.6047 51.2344 73.8592 53.3894 74.2144C54.4139 74.3861 55.3736 74.9012 56.3863 75.1617C58.4176 75.6767 60.4724 76.1267 62.5096 76.6121C66.0894 77.4765 69.4337 78.9033 72.201 81.3483C74.5497 83.352 76.3274 85.9465 77.3528 88.867C77.8103 90.4817 78.1605 92.1252 78.4008 93.7867C78.3998 94.0931 78.348 94.3972 78.2477 94.6866C78.1535 95.2135 78.0476 95.7404 77.9534 96.2673L77.4293 96.1726C77.5672 95.5481 77.5832 94.9027 77.4764 94.2722C77.2133 92.9907 76.7962 91.7462 76.2341 90.5661C75.4628 87.1975 73.4845 84.486 70.9351 82.1712C68.2856 79.8031 65.0061 78.4652 61.5146 77.7251C59.6658 77.3285 57.8288 76.8489 55.9918 76.3872C54.9727 76.0513 53.9371 75.7687 52.8889 75.5406L52.3001 75.4518C52.8274 75.2976 53.3808 75.2552 53.9252 75.3275C52.9967 74.9226 51.9932 74.7208 50.9813 74.7354Z" fill="#4D3826"/>
<path d="M27.4303 81.8397C26.924 80.8155 27.289 78.9092 22.8496 78.7908C24.1744 78.4178 25.4579 77.8672 26.7944 77.5357C28.9788 77.0029 31.1926 76.6062 33.3888 76.1503C33.3888 76.251 33.43 76.3516 33.4536 76.4523C34.7548 76.1799 36.056 75.9254 37.3513 75.6412C38.5221 75.3003 39.7114 75.0275 40.9134 74.8242C42.5399 74.6437 44.1786 74.6021 45.8121 74.6999C46.9367 74.7769 48.0553 74.8893 49.174 75.0196C48.0629 75.4858 47.0707 76.1981 46.2713 77.1035C45.8518 77.4685 45.5794 77.9751 45.5057 78.528C45.4319 79.0809 45.5619 79.6418 45.871 80.1051C45.2469 80.0103 44.6228 79.9156 43.9986 79.809C42.3147 79.5249 40.6485 79.2525 39.0941 80.2886C38.9791 80.3465 38.856 80.3864 38.729 80.407C37.628 80.6142 36.5211 80.8155 35.4201 81.0345C32.6409 81.5913 29.9399 82.488 27.3773 83.7045C27.5081 83.4126 27.58 83.0975 27.5891 82.7774C27.5982 82.4574 27.5443 82.1387 27.4303 81.8397Z" fill="#F79221"/>
<path d="M74.5322 101.193C76.0795 98.6393 76.7862 95.6602 76.5517 92.6794C76.4997 91.9674 76.3915 91.2607 76.2279 90.5659C76.792 91.7458 77.2111 92.9903 77.4761 94.272C77.5794 94.9095 77.5574 95.5611 77.4114 96.1901C76.8344 99.0851 74.5322 102.56 74.5322 102.56C74.5322 102.093 74.5322 101.649 74.5322 101.21V101.193Z" fill="#4D3826"/>
<path d="M19.3697 111.801C16.0702 110.842 12.9828 109.258 10.2731 107.136C8.40688 105.596 6.98395 103.583 6.15159 101.305C5.70412 100.121 5.22132 98.9899 4.81506 97.8118C4.05553 95.5858 4.14385 93.3124 4.4559 91.0213C4.83272 88.2802 6.43421 86.2851 8.30653 84.438C9.7726 82.9935 11.5978 82.1113 13.3524 81.1049C15.162 80.1075 17.0753 79.3134 19.0577 78.7368L19.2873 79.3288L17.4209 80.0629C17.4209 80.0629 17.7506 80.0629 18.2687 80.0629C15.4678 81.0741 12.8189 82.4686 10.3967 84.2071C8.13578 85.8233 6.35766 87.8954 5.77477 90.7667C5.2524 93.4986 5.45548 96.3207 6.36355 98.9485C6.37809 98.9978 6.39783 99.0454 6.42243 99.0905C6.96996 99.9732 7.46349 100.889 7.90027 101.832C8.7964 103.886 10.283 105.624 12.1689 106.822C13.551 107.78 15.0149 108.612 16.5436 109.309C17.3118 109.662 18.098 109.974 18.8987 110.244C18.9811 110.44 19.0753 110.635 19.1696 110.836L28.0013 113.204L27.9601 113.506C26.4763 113.293 25.0162 112.914 23.556 112.666C22.1442 112.465 20.7461 112.176 19.3697 111.801Z" fill="#4D3826"/>
<path d="M23.4735 86.9244C23.5857 87.6564 23.8748 88.3496 24.3154 88.9432C25.0691 90.0325 26.3055 90.5002 27.5066 90.7903C27.695 90.8377 27.8775 90.8791 28.0954 90.9146C25.3281 91.9803 13.2993 97.4979 18.9163 110.256C18.1155 109.986 17.3294 109.674 16.5612 109.321C15.0325 108.624 13.5685 107.792 12.1865 106.834C10.3005 105.636 8.81397 103.898 7.91785 101.843C7.48107 100.9 6.98754 99.985 6.44 99.1023C6.4154 99.0572 6.39566 99.0096 6.38112 98.9602C5.47306 96.3324 5.26997 93.5104 5.79234 90.7785C6.38112 87.9072 8.14747 85.8351 10.4143 84.2189C12.8364 82.4803 15.4854 81.0858 18.2863 80.0747C19.5875 80.1457 22.0604 80.3885 23.3263 81.2588C23.9444 81.6725 24.41 82.2791 24.6516 82.9852C24.8931 83.6913 24.897 84.4576 24.6628 85.1661C24.5187 85.2739 24.3846 85.3948 24.2624 85.5272C23.8974 85.912 23.4322 86.4804 23.4735 86.9244Z" fill="#F79221"/>
</g>
<g filter="url(#filter1_d)">
<path d="M189.356 57.7652C189.447 58.2614 189.35 58.7741 189.083 59.2015C188.271 59.9855 187.448 60.7694 186.15 60.8462C182.961 60.9942 179.776 61.3615 176.587 61.4711C172.77 61.6027 168.905 61.5753 165.061 61.5972C163.813 61.5972 162.564 61.5369 161.315 61.5314C161.076 61.5314 160.705 61.5314 160.607 61.6959C159.876 62.7923 159.02 62.129 158.208 61.8988C157.395 61.6685 156.708 61.3505 155.934 61.1751C155.458 61.1241 154.977 61.1241 154.5 61.1751C154.675 61.7233 154.778 62.1674 154.947 62.5676C155.454 63.7846 155.989 64.9907 156.518 66.1968C156.954 67.1945 156.627 67.6824 155.542 67.6331C153.159 67.5344 151.104 66.4215 148.999 65.4402C147.2 64.5887 145.41 63.7207 143.629 62.8362C142.838 62.4415 142.086 61.9645 141.322 61.5314C141.49 62.8036 141.572 64.0857 141.568 65.369C141.475 66.8053 142.015 68.3019 141.213 69.7054C141.067 70.0083 140.841 70.2656 140.561 70.4499C140.281 70.6343 139.956 70.7389 139.621 70.7525C138.33 70.849 137.049 70.4581 136.028 69.656C132.822 67.2932 130.772 64.0587 129.077 60.5447C128.968 60.3342 128.785 60.172 128.564 60.0896C128.373 60.9284 128.15 61.7617 128.019 62.6114C127.763 64.0916 127.567 65.5883 127.327 67.0739C127.07 68.6473 126.831 70.2262 126.503 71.7831C126.4 72.2984 126.154 73.0495 125.795 73.1811C125.064 73.4442 124.159 73.4661 123.614 72.6657C122.649 71.2239 121.553 69.826 120.86 68.28C119.835 65.961 119.11 63.5105 118.254 61.1148C118.194 60.9449 118.102 60.7804 117.922 60.4076C117.376 61.2957 116.886 62.0194 116.482 62.7869C115.659 64.3548 114.912 65.972 114.078 67.5344C113.533 68.5815 112.737 69.3381 111.395 69.1791C110.895 69.1292 110.423 68.9248 110.043 68.594C109.663 68.2631 109.395 67.8221 109.275 67.3316C108.369 64.7221 107.497 62.0961 106.581 59.3879C106.425 59.5088 106.275 59.6388 106.134 59.7772C102.985 63.5387 100.202 67.5959 97.825 71.8928C97.6337 72.2979 97.3158 72.6291 96.9199 72.8357C96.3307 73.0249 95.7018 73.0514 95.0989 72.9124C94.8863 72.8576 94.7881 72.1066 94.75 71.6625C94.5155 68.735 94.3193 65.8075 94.0957 62.891C94.0357 62.0577 93.9267 61.2464 93.8286 60.3912C93.7849 60.0513 93.7086 59.7168 93.5832 59.048C92.8363 59.9307 92.2474 60.5775 91.7077 61.2683C90.241 63.1487 88.7799 65.0291 87.3459 66.9478C87.0903 67.2818 86.7476 67.538 86.3558 67.688C85.9641 67.838 85.5387 67.8759 85.1269 67.7976C84.4018 67.7318 84.1728 67.1671 84.1946 66.5367C84.2709 64.5083 84.38 62.4799 84.4999 60.4515C84.5544 59.525 84.6526 58.5985 84.7507 57.502C82.3354 58.6643 80.0618 59.7552 77.7937 60.8626C76.0327 61.7178 74.3153 62.6772 72.5051 63.4063C71.6415 63.6556 70.7385 63.7375 69.8445 63.6476C69.4825 63.5646 69.1663 63.3447 68.9612 63.0336C68.8794 62.9349 69.0975 62.4853 69.272 62.3099C71.9799 59.3861 74.706 56.4623 77.4503 53.5384L79.015 51.8938C76.9596 52.3981 75.1985 52.8532 73.3775 53.2753C70.7604 53.8893 68.1434 54.4905 65.5264 55.0789C65.2519 55.1796 64.9536 55.1949 64.6704 55.1228C64.2599 54.8672 63.8714 54.5774 63.5091 54.2566C63.7565 53.9528 64.0362 53.677 64.3432 53.4343C65.6463 52.6229 66.9603 51.7896 68.3124 51.0715C71.2075 49.4761 74.1353 47.9357 77.0359 46.3678C77.3957 46.1704 77.7447 45.9456 78.3281 45.5948C77.8101 45.4358 77.5048 45.3097 77.194 45.2494C74.7405 44.7615 72.287 44.2955 69.839 43.8131C67.6298 43.4056 65.4942 42.6663 63.5036 41.6202C63.0947 41.3954 62.8603 40.8527 62.5386 40.458C62.9215 40.1715 63.3415 39.9391 63.7871 39.7672C65.7167 39.299 67.6695 38.933 69.6373 38.6708C72.8268 38.3144 76.0327 38.1226 79.2331 37.9033C79.5442 37.9058 79.8506 37.8264 80.1218 37.673C79.4348 37.3167 78.7152 37.0042 78.0554 36.5766C75.651 35.0964 73.263 33.5888 70.8749 32.0867C70.7424 31.996 70.6199 31.8912 70.5096 31.7742C70.1062 31.3685 69.5119 31.0122 69.3756 30.5297C69.2393 30.0473 70.7713 29.0386 71.3711 29.1044C72.7396 29.2524 74.0972 29.4717 75.4657 29.6526C75.7437 29.691 76.0109 29.7458 76.5943 29.85C76.2835 28.0902 75.9836 26.4949 75.7219 24.916C75.6565 24.5377 75.5856 23.8744 75.7219 23.8196C75.9317 23.6968 76.1641 23.6185 76.4051 23.5892C76.646 23.56 76.8904 23.5806 77.1231 23.6496C78.3608 24.3513 79.5112 25.212 80.6943 26.007L85.634 29.2963L85.8302 29.1702C85.285 27.6023 84.7671 26.0234 84.1946 24.4829C83.5185 22.7505 82.7334 21.062 82.0519 19.3297C81.8174 18.7266 82.21 18.3374 82.7879 18.2332C83.0422 18.1895 83.3036 18.2279 83.5349 18.3429C86.659 19.9546 90.1429 20.0643 93.4851 20.766C93.8286 20.8373 94.1775 20.903 94.521 20.9853C95.5842 21.232 95.6114 21.1497 95.715 20.0862C95.9876 16.3803 96.2929 12.678 96.631 8.97931C96.6637 8.61749 96.9854 8.28308 97.2852 7.73486V6.9235C97.716 6.9235 98.2503 6.75903 98.5556 6.95639C99.284 7.41046 99.9386 7.9744 100.497 8.62846C102.269 10.8213 103.975 13.0142 105.682 15.24C106.101 15.7882 106.439 16.4077 106.996 17.2738C107.404 15.8649 107.775 14.7466 108.086 13.6063C108.838 10.6678 109.525 7.71293 110.305 4.78545C110.511 4.06912 110.846 3.39661 111.292 2.8009C111.592 2.37878 112.191 1.81411 112.557 1.8799C112.853 1.95432 113.13 2.09036 113.37 2.27923C113.611 2.46809 113.809 2.70558 113.953 2.97633C114.781 4.77997 115.425 6.67132 116.199 8.50785C116.744 9.77971 117.366 11.0077 118.031 12.4276C119.018 11.3312 119.852 10.3005 120.757 9.35759C123.565 6.43559 126.378 3.52455 129.246 0.662855C129.447 0.52482 129.675 0.432683 129.916 0.392907C130.156 0.353131 130.402 0.36668 130.636 0.432604C130.823 0.518876 130.986 0.650805 131.11 0.816423C131.234 0.98204 131.315 1.17611 131.345 1.38102C131.383 3.24496 131.345 5.11438 131.258 6.97284C131.149 9.06703 130.941 11.1557 130.762 13.2444C130.702 13.9133 130.603 14.5766 130.5 15.3935C131.17 15.0755 131.77 14.8452 132.348 14.5108C136.966 12.0384 141.568 9.54946 146.197 7.10441C146.708 6.86466 147.269 6.75185 147.832 6.77548C148.961 6.77548 149.332 7.45527 148.797 8.42013C147.549 10.6952 146.273 12.9594 144.981 15.229C144.67 15.7772 144.337 16.3254 143.945 16.9943C146.3 16.2432 148.536 15.5853 150.733 14.8014C154.119 13.6227 157.477 12.3509 160.863 11.1557C161.292 11.0356 161.743 11.0113 162.182 11.0845C162.918 11.1667 163.246 11.7094 162.831 12.296C161.266 14.5328 159.636 16.7366 158.022 18.9459C157.379 19.8176 156.741 20.6947 156.054 21.5335C155.024 22.778 153.197 25.519 152.107 26.9225C152.381 26.8599 152.652 26.7831 152.919 26.6922C155.28 25.8589 157.592 24.8886 159.963 24.1156C161.703 23.5674 163.507 23.2001 165.29 22.7944C165.765 22.7087 166.25 22.6939 166.729 22.7505C167.787 22.8437 167.989 23.1562 167.515 24.1266C165.508 28.1998 163.698 32.3827 161.032 36.0996C160.89 36.3025 160.776 36.5272 160.487 37.0097C161.882 37.0097 163.077 36.9823 164.271 37.0097C167.994 37.1084 171.724 37.2125 175.453 37.3496C176.128 37.3715 176.797 37.4915 177.438 37.7059C177.803 37.8375 178.059 38.2541 178.37 38.5666C178.108 38.8078 177.89 39.1532 177.585 39.2738C174.677 40.4324 171.758 41.5654 168.829 42.6728C167.64 43.1278 166.435 43.528 164.974 44.0488C165.615 44.4159 166.276 44.7472 166.953 45.0411C168.829 45.6934 170.72 46.3074 172.612 46.9105C174.406 47.4916 176.233 48.0069 178.01 48.6319C178.473 48.8018 178.806 49.3501 179.204 49.7283C178.839 50.0956 178.533 50.6493 178.114 50.8248C176.992 51.1755 175.852 51.4683 174.701 51.7019C174.466 51.7567 174.226 51.7677 173.828 51.828C176.037 53.2616 178.508 54.2399 181.096 54.7061C183.32 55.1886 185.523 55.7532 187.72 56.3508C188.435 56.5481 189.263 56.8277 189.356 57.7652ZM186.63 58.7629C186.837 58.7081 187.131 58.2805 187.082 58.138C187.023 57.9965 186.934 57.8692 186.822 57.7644C186.711 57.6595 186.578 57.5795 186.434 57.5295C184.318 57.0141 182.208 56.4933 180.071 56.0931C177.751 55.7212 175.527 54.8901 173.528 53.6481C171.071 52.0308 168.17 51.2293 165.236 51.3565C164.515 51.411 163.798 51.5043 163.087 51.6361C163.169 51.8554 163.18 51.9322 163.218 51.9651C163.338 52.0747 163.475 52.1624 163.6 52.2611C165.334 53.6919 167.133 55.0734 168.043 57.2389C168.152 57.6099 168.216 57.9928 168.234 58.3792C167.837 58.5009 167.421 58.5455 167.008 58.5108C164.701 57.7542 162.422 56.899 160.121 56.137C158.884 55.7258 157.613 55.4353 156.365 55.0844L156.12 55.3695C156.73 56.2357 157.335 57.1128 157.962 57.968C158.704 58.9713 159.429 59.8868 160.917 59.8868C164.865 59.8868 168.807 60.1116 172.754 60.1006C176.085 60.1006 179.422 59.9471 182.748 59.7059C184.075 59.529 185.382 59.2167 186.646 58.7739L186.63 58.7629ZM113.947 11.1064L113.68 10.8981C113.636 12.4605 112.546 12.4934 111.455 12.5153C111.455 12.5976 111.455 12.6798 111.455 12.762C112.001 13.1074 112.502 13.4528 113.091 13.8585L113.947 11.1064Z" fill="#4D3826"/>
<path d="M187.099 58.1364C187.148 58.2789 186.853 58.6846 186.646 58.7613C185.384 59.2075 184.079 59.5234 182.753 59.7043C179.428 59.9455 176.091 60.088 172.76 60.099C168.812 60.099 164.87 59.8907 160.923 59.8852C159.434 59.8852 158.709 58.9696 157.968 57.9664C157.341 57.1112 156.736 56.234 156.125 55.3679L156.37 55.0828C157.619 55.4336 158.889 55.7242 160.127 56.1354C162.428 56.8974 164.707 57.7526 167.013 58.5091C167.426 58.5439 167.843 58.4993 168.24 58.3776C168.222 57.9911 168.158 57.6083 168.049 57.2373C167.138 55.0718 165.323 53.6903 163.605 52.2595C163.48 52.1608 163.344 52.0731 163.224 51.9634C163.186 51.9305 163.175 51.8538 163.093 51.6345C163.803 51.5027 164.521 51.4094 165.241 51.3549C168.176 51.2277 171.076 52.0291 173.534 53.6465C175.532 54.8885 177.756 55.7196 180.076 56.0915C182.214 56.4917 184.324 57.0125 186.439 57.5278C186.586 57.5765 186.72 57.656 186.834 57.7609C186.948 57.8658 187.038 57.9938 187.099 58.1364ZM185.032 58.6846C184.874 58.4269 184.771 58.0212 184.547 57.9335C183.661 57.583 182.75 57.3007 181.821 57.0893C181.663 57.0832 181.506 57.1185 181.366 57.1915C181.225 57.2645 181.106 57.3728 181.02 57.5059C180.996 57.668 181.013 57.8336 181.07 57.9871C181.127 58.1405 181.223 58.2768 181.347 58.3831C182.094 58.7778 182.911 59.0519 183.795 59.4082L185.032 58.6846Z" fill="#C8A468"/>
<path d="M184.548 57.9182C184.771 58.0059 184.875 58.4116 185.033 58.6692L183.812 59.3929C182.928 59.0365 182.11 58.7624 181.364 58.3677C181.239 58.2615 181.144 58.1252 181.087 57.9717C181.03 57.8183 181.012 57.6527 181.036 57.4906C181.123 57.3575 181.242 57.2491 181.383 57.1761C181.523 57.1031 181.68 57.0679 181.838 57.0739C182.761 57.2862 183.667 57.5684 184.548 57.9182Z" fill="#4D3826"/>
<path d="M113.68 10.8975L113.947 11.1058L113.075 13.8469C112.475 13.4412 111.952 13.0958 111.439 12.7504C111.439 12.6682 111.439 12.586 111.439 12.5037C112.546 12.4928 113.637 12.4599 113.68 10.8975Z" fill="#4D3826"/>
</g>
<defs>
<filter id="filter0_d" x="0.227051" y="73.2334" width="82.1738" height="48.5649" filterUnits="userSpaceOnUse" color-interpolation-filters="sRGB">
<feFlood flood-opacity="0" result="BackgroundImageFix"/>
<feColorMatrix in="SourceAlpha" type="matrix" values="0 0 0 0 0 0 0 0 0 0 0 0 0 0 0 0 0 0 127 0"/>
<feOffset dy="4"/>
<feGaussianBlur stdDeviation="2"/>
<feColorMatrix type="matrix" values="0 0 0 0 0 0 0 0 0 0 0 0 0 0 0 0 0 0 0.25 0"/>
<feBlend mode="normal" in2="BackgroundImageFix" result="effect1_dropShadow"/>
<feBlend mode="normal" in="SourceGraphic" in2="effect1_dropShadow" result="shape"/>
</filter>
<filter id="filter1_d" x="58.5386" y="0.370605" width="134.851" height="80.9741" filterUnits="userSpaceOnUse" color-interpolation-filters="sRGB">
<feFlood flood-opacity="0" result="BackgroundImageFix"/>
<feColorMatrix in="SourceAlpha" type="matrix" values="0 0 0 0 0 0 0 0 0 0 0 0 0 0 0 0 0 0 127 0"/>
<feOffset dy="4"/>
<feGaussianBlur stdDeviation="2"/>
<feColorMatrix type="matrix" values="0 0 0 0 0 0 0 0 0 0 0 0 0 0 0 0 0 0 0.25 0"/>
<feBlend mode="normal" in2="BackgroundImageFix" result="effect1_dropShadow"/>
<feBlend mode="normal" in="SourceGraphic" in2="effect1_dropShadow" result="shape"/>
</filter>
</defs>
</svg>
