<svg width="320" height="85" viewBox="0 0 320 85" fill="none" xmlns="http://www.w3.org/2000/svg">
<path d="M173.322 59.6392C173.79 60.7727 174.145 61.9488 174.384 63.151C174.73 64.6109 175.002 66.0823 175.273 67.548C175.307 67.9304 175.307 68.3151 175.273 68.6975C175.448 70.9347 175.171 73.184 174.459 75.3131C174.049 76.681 173.599 78.1122 172.416 79.2272C171.036 80.5377 169.558 81.7619 167.284 82.1011C166.516 82.2103 165.754 82.3195 164.975 82.3942L164.876 81.3998C165.389 81.346 165.898 81.2635 166.4 81.1527C167.622 80.9362 168.772 80.4248 169.749 79.6633C170.726 78.9017 171.501 77.9133 172.006 76.7845C173.047 74.2757 173.573 71.5845 173.553 68.87C173.501 67.5174 173.335 66.1715 173.056 64.8466C172.444 62.6108 172.11 60.306 170.84 58.2081C170.476 57.6333 170.21 56.9723 169.835 56.3861C168.554 54.3859 167.295 52.4202 164.599 51.2764C164.134 51.0719 163.651 50.9103 163.156 50.7936L163.422 49.7705C164.12 49.9208 164.802 50.1363 165.46 50.4142C167.759 51.3704 169.661 53.0799 170.851 55.2595C171.711 56.7022 172.635 58.1391 173.322 59.6392Z" fill="#AD8F12"/>
<path d="M216.675 81.2465C217.26 80.8751 217.716 80.3314 217.977 79.6909C218.239 79.0503 218.294 78.3446 218.135 77.6715C217.95 76.8151 217.264 75.9472 216.819 75.0965C215.924 73.3723 214.244 72.0158 212.495 70.7341C210.319 69.1477 208.12 67.5671 205.782 66.136C203.444 64.7048 201.002 63.4173 198.508 62.1931C196.944 61.4286 195.195 60.9113 193.532 60.2734C191.408 59.4514 189.33 58.5491 187.661 57.1811C186.126 55.9109 185.11 54.5429 185.664 52.9508C185.707 52.7346 185.811 52.5351 185.964 52.3761C186.801 51.8013 187.552 51.0426 188.585 50.6805C189.565 50.4551 190.581 50.4356 191.569 50.623C193.555 50.8495 195.478 51.4565 197.232 52.4106C197.631 52.6136 197.993 52.8795 198.306 53.198C198.461 53.4573 198.553 53.7482 198.577 54.0486L198.306 54.0889C197.937 53.8532 197.567 53.6233 197.204 53.3819C195.581 52.3014 193.677 51.9622 191.783 51.6576C191.124 51.5214 190.443 51.541 189.793 51.7147C189.144 51.8883 188.544 52.2114 188.042 52.6577C186.859 53.6521 186.922 54.8476 188.181 56.1063C189.913 57.8306 192.222 58.6755 194.6 59.5549C196.367 60.1929 198.064 60.9746 199.796 61.7275C200.909 62.1898 201.998 62.7097 203.057 63.2851C205.095 64.4347 207.098 65.6704 209.049 66.9061C210.267 67.6706 211.45 68.4695 212.559 69.3144C213.667 70.1593 214.781 71.1709 215.872 72.1135C216.356 72.48 216.797 72.8983 217.188 73.3608C217.962 74.4643 218.637 75.5908 219.33 76.7116C219.534 77.0395 219.709 77.3836 219.855 77.7405C220.467 79.2234 219.913 80.5108 218.926 81.4937C217.003 83.4416 214.439 84.6334 211.704 84.8503C209.036 85.0547 206.352 84.8177 203.761 84.1491C201.943 83.6961 200.151 83.1455 198.393 82.4995C197.44 82.1662 196.569 81.6316 195.639 81.2178C194.306 80.643 192.955 80.0683 191.598 79.4935C191.207 79.3476 190.835 79.1546 190.49 78.9187C188.683 77.4818 186.651 76.2058 185.15 74.5505C184.205 73.5049 183.475 72.2843 183.003 70.9582C182.708 70.1536 183.742 69.4926 184.896 69.7685C184.908 70.0166 184.871 70.2646 184.787 70.4984C184.435 71.0732 184.723 71.579 185 72.171C185.609 73.3733 186.476 74.4272 187.54 75.2575C189.212 76.7646 191.085 78.0353 193.105 79.0337C194.837 79.8326 196.569 80.6718 198.393 81.3328C201.166 82.414 204.059 83.1589 207.011 83.5513C209.166 83.7968 211.348 83.6567 213.454 83.1375C214.856 82.8329 215.693 81.9707 216.675 81.2465Z" fill="#AD8F12"/>
<path d="M160.288 82.2113C158.66 81.8434 157.038 81.4296 155.456 80.941C151.3 79.6536 148.731 77.2281 147.704 73.745C147.028 71.4459 146.549 69.1181 147.017 66.8018C147.432 64.6522 147.675 62.4393 148.875 60.4104C149.707 59.0137 150.313 57.5366 151.185 56.1687C152.8 53.895 154.889 51.9952 157.309 50.5992C159.168 49.5413 161.369 49.2503 163.44 49.7888L163.174 50.8118C161.833 50.5006 160.427 50.64 159.174 51.2084C157.329 52.0104 155.683 53.2029 154.348 54.703C153.093 56.1614 151.997 57.7491 151.081 59.4391C150.203 61.0767 149.569 62.8328 149.199 64.6522C148.818 66.2213 148.304 67.7789 148.621 69.3768C148.945 71.2173 149.387 73.0353 149.943 74.8198C150.671 77.0671 152.599 78.596 155.139 79.5903C156.501 80.1249 157.962 80.5157 159.393 80.9353C161.181 81.4584 163.054 81.6225 164.906 81.4181L165.004 82.4124C163.432 82.6056 161.838 82.5376 160.288 82.2113Z" fill="#AD8F12"/>
<path d="M112.68 79.785C116.281 80.3285 119.946 80.2877 123.533 79.6643C125.21 79.2774 126.838 78.6988 128.382 77.94C130.018 77.2319 131.546 76.2973 132.919 75.1639C135.003 73.4396 136.383 71.4509 136.781 68.9679C136.972 67.8935 137.103 66.8093 137.174 65.7205C137.203 64.4198 136.756 63.1529 135.915 62.1569C135.188 61.1592 134.377 60.2247 133.491 59.3636C132.639 58.7168 131.742 58.131 130.806 57.6105C129.883 56.9955 128.965 56.369 128.082 55.708C126.742 54.7022 127.354 52.4836 128.549 51.7249C130.091 50.7421 131.88 50.6386 133.612 50.2478C135.344 49.8569 137.075 50.196 138.807 50.3282C139.455 50.448 140.077 50.6753 140.649 51.0007C140.787 51.0582 140.81 51.3168 140.885 51.4835C140.712 51.541 140.493 51.6904 140.36 51.6445C138.468 51.0052 136.443 50.8588 134.478 51.2191C133.013 51.4471 131.569 51.7911 130.16 52.248C129.583 52.5103 129.097 52.9362 128.763 53.4722C128.647 53.6044 128.564 53.7611 128.518 53.9303C128.473 54.0996 128.467 54.277 128.501 54.4489C128.535 54.6208 128.608 54.7827 128.714 54.9223C128.821 55.0618 128.958 55.1753 129.115 55.254C130.179 56.0426 131.316 56.7296 132.509 57.3059C134.062 57.9899 135.043 59.1509 136.111 60.22C136.826 61.0268 137.445 61.9118 137.959 62.8581C139.055 64.6112 138.9 66.4504 138.582 68.3586C138.373 70.0028 137.829 71.5871 136.983 73.0142C136.239 74.216 135.257 75.2544 134.097 76.0662C133.67 76.3594 133.323 76.756 132.873 77.0203C131.393 77.9722 129.85 78.8229 128.255 79.5665C125.871 80.5458 123.328 81.0834 120.75 81.1529C119.625 81.1931 118.499 81.2736 117.373 81.3368C114.564 81.2606 111.77 80.9044 109.032 80.2735C107.447 79.9873 105.882 79.6033 104.345 79.124C102.833 78.4872 101.358 77.7657 99.9285 76.9629C98.8817 76.3878 97.9642 75.6054 97.2327 74.6638C96.3724 73.636 95.7303 72.4452 95.345 71.1635C94.9257 69.6969 94.8879 68.1482 95.2353 66.6631C95.4337 65.7236 95.993 64.8985 96.794 64.364C97.0992 64.1932 97.4501 64.1209 97.7984 64.1571C98.2371 64.1571 98.3757 64.4157 98.1217 64.7836C97.8677 65.1514 97.5444 65.548 97.2962 65.9331C96.5284 67.2206 96.54 68.6173 96.6323 70.014C96.8194 71.8906 97.6925 73.6333 99.0857 74.911C100.251 76.0821 101.662 76.9812 103.219 77.5434C106.287 78.612 109.458 79.3632 112.68 79.785Z" fill="#AD8F12"/>
<g filter="url(#filter0_d)">
<path d="M24.5651 32.128C23.0483 32.4586 21.5541 32.8849 20.0917 33.4044C19.498 33.4044 19.1201 33.4044 19.1201 33.4044L21.2792 32.5445L22.4937 32.034C23.4357 31.9482 24.3818 31.9146 25.3275 31.9332C25.0779 32.034 24.8215 32.0743 24.5651 32.128Z" fill="#4D3826"/>
<path d="M42.2485 44.8648C45.7301 44.6297 49.2116 44.4214 52.6931 44.193C56.4581 44.193 60.2365 44.2333 63.7653 42.715C64.421 42.4403 64.9436 41.9223 65.2226 41.2707C65.3888 40.8298 65.402 40.3462 65.2602 39.897C65.1183 39.4477 64.8296 39.0587 64.44 38.7917C62.5752 37.5574 60.5256 36.6255 58.3675 36.0307C56.0557 35.3884 53.7021 34.9058 51.3235 34.5863C50.1603 34.2739 48.9587 34.1268 47.7542 34.1496C45.1161 34.4385 42.5049 34.9826 39.887 35.4328C35.8245 36.2408 31.9151 37.6804 28.3021 39.6987C27.9232 39.8418 27.6167 40.1286 27.4498 40.4963C27.2829 40.864 27.2691 41.2825 27.4115 41.6603C27.8838 43.0778 29.078 43.6757 30.3397 44.0452C34.2599 45.2679 38.2474 45.1268 42.2485 44.8648ZM51.6946 33.4442C51.8313 33.6646 51.9944 33.8676 52.1804 34.0489L55.5539 34.7206C55.2975 34.4748 55.071 34.1997 54.8792 33.9011C55.6551 34.0287 56.4243 34.1698 57.1935 34.331C58.7521 34.7118 60.2704 35.2405 61.7276 35.9097C63.0324 36.4623 64.2893 37.1206 65.4858 37.8781C65.7742 38.0576 66.0298 38.2848 66.2415 38.5499L65.6747 38.7514C65.6747 38.7514 68.3736 40.7668 64.3253 43.454C64.4265 43.454 64.9528 43.3667 65.7759 43.3062C65.2764 43.7353 64.6894 44.0516 64.0554 44.2333C63.2377 44.5107 62.3981 44.7197 61.5454 44.8581C58.8466 45.1872 56.2017 45.4492 53.5298 45.7314C53.3839 45.7445 53.2371 45.7445 53.0912 45.7314C53.0912 45.6777 53.0912 45.6306 53.0912 45.5836C49.7919 45.7986 46.4925 45.9934 43.1931 46.2554C41.9651 46.3427 40.7574 46.4099 39.5361 46.4368L40.0354 46.1412L31.9388 45.4694L31.3181 45.6911C31.1022 45.6508 30.893 45.6038 30.6434 45.55C29.2939 45.2208 27.85 44.6901 26.9864 43.454C26.4815 42.7804 26.1502 41.9939 26.0216 41.1632C25.9743 40.6593 26.4939 40.0144 26.9054 39.5643C27.0455 39.4141 27.1991 39.2769 27.3642 39.1545C27.3204 39.2543 27.2586 39.3454 27.1821 39.4232L29.8809 38.7514C30.1293 38.36 30.3351 37.9434 30.4949 37.5086C33.4315 36.1281 36.5267 35.1107 39.7116 34.4788C40.9733 34.2302 42.2418 34.0018 43.5035 33.7667C43.649 33.7433 43.79 33.698 43.9218 33.6323C45.7031 32.4567 47.6125 32.7657 49.5422 33.0882C50.2911 33.2091 51.0063 33.3166 51.7215 33.4241L51.6946 33.4442Z" fill="#4D3826"/>
<path d="M29.9157 38.756L27.2168 39.4278C27.2934 39.35 27.3551 39.2589 27.399 39.1591C27.7108 38.9435 28.0377 38.7504 28.3773 38.5813C29.052 38.1984 29.8077 37.8424 30.5297 37.5132C30.3699 37.948 30.164 38.3646 29.9157 38.756Z" fill="#4D3826"/>
<path d="M59.0832 28.1293C57.3215 28.6374 55.8192 29.7923 54.8797 31.3607C54.8797 31.3607 53.8878 32.3482 54.8797 33.9001C53.8271 33.7254 52.7746 33.5776 51.722 33.4231C51.3678 32.8974 51.2189 32.2609 51.3034 31.6335C51.3879 31.0061 51.7 30.4312 52.1808 30.0171C53.0968 28.9897 54.2338 28.1814 55.5072 27.6523C56.7082 27.7957 57.9002 27.9547 59.0832 28.1293Z" fill="white"/>
<path d="M85.9167 58.5843C84.0355 61.7433 81.3646 64.3633 78.1642 66.189C75.425 67.7931 72.435 68.9285 69.3186 69.548C65.7764 70.2198 62.2071 70.7707 58.6446 71.3081C57.7462 71.3744 56.8441 71.3744 55.9457 71.3081V71.5298C52.201 71.5768 48.4496 71.6709 44.7049 71.6574C41.3988 71.6574 38.086 71.3417 34.7933 71.5164C33.6155 71.5645 32.4358 71.497 31.2713 71.3148L31.2646 70.9991C31.2646 70.9991 31.1026 70.6229 30.8867 69.9578C31.0005 69.9778 31.1154 69.9913 31.2308 69.9981C33.4776 70.1392 35.7312 70.2131 37.978 70.2467C40.9333 70.2937 43.8953 70.334 46.8505 70.2803C50.0217 70.2265 53.1996 70.2265 56.3438 69.8906C60.6552 69.4405 64.9667 68.8964 69.2107 68.0297C74.0918 67.1643 78.545 64.7063 81.8684 61.0431C82.8837 59.9091 83.7875 58.6808 84.5672 57.3751C84.5672 57.8722 84.5672 58.376 84.5672 58.9067C84.5672 58.9067 87.2054 54.9633 87.8666 51.6782L88.4671 51.7857C88.3524 52.3903 88.2377 52.9882 88.1297 53.5861C87.7116 55.375 86.961 57.0702 85.9167 58.5843Z" fill="#4D3826"/>
<path d="M59.0829 28.1336C57.8954 27.9589 56.7057 27.7999 55.5137 27.6566C56.1776 27.4297 56.8764 27.3205 57.5783 27.3341C58.7379 27.3176 59.8879 27.5465 60.9519 28.0059C60.329 27.9196 59.6948 27.9631 59.0897 28.1336H59.0829Z" fill="#4D3826"/>
<path d="M31.9402 45.4702L40.0368 46.142L39.5442 46.3771C36.7878 46.4789 34.029 46.2534 31.3262 45.7053L31.9402 45.4702Z" fill="#4D3826"/>
<path d="M66.2483 38.5635C66.5527 39.0176 66.7549 39.5319 66.841 40.071C66.9272 40.6102 66.8953 41.1616 66.7476 41.6873C66.6095 42.3129 66.2738 42.878 65.7895 43.2996C64.9664 43.3601 64.4401 43.434 64.3389 43.4474C68.3872 40.7603 65.6883 38.7449 65.6883 38.7449L66.2483 38.5635Z" fill="#4D3826"/>
<path d="M84.5675 57.3535C83.7877 58.6593 82.884 59.8876 81.8686 61.0215C78.5505 64.6809 74.1051 67.1386 69.2312 68.0082C64.9872 68.8748 60.6757 69.419 56.3643 69.8691C53.2201 70.205 50.0422 70.205 46.871 70.2587C43.9158 70.3124 40.9538 70.2587 37.9985 70.2251C35.7449 70.2251 33.4914 70.1176 31.2513 69.9765C31.1359 69.9697 31.021 69.9563 30.9072 69.9362C29.632 66.1272 26.3191 52.7651 39.5571 46.3562C40.7783 46.3562 41.9861 46.2621 43.2141 46.1748C46.5134 45.933 49.8128 45.7381 53.1122 45.503C53.1122 45.55 53.1122 45.5971 53.1122 45.6508C53.2581 45.6639 53.4048 45.6639 53.5507 45.6508C56.2496 45.3686 58.9012 45.1066 61.5664 44.7775C62.419 44.6391 63.2586 44.4301 64.0763 44.1527C64.7103 43.971 65.2973 43.6547 65.7969 43.2256C70.3984 42.9569 84.1559 43.1248 84.5675 57.3535Z" fill="#F79221"/>
<path d="M86.8884 47.6946C87.155 51.0778 86.3428 54.4584 84.5673 57.3551C84.149 43.1264 70.3578 42.9585 65.7832 43.3011C66.2674 42.8794 66.6032 42.3144 66.7413 41.6888C66.889 41.163 66.9209 40.6117 66.8347 40.0725C66.7485 39.5333 66.5464 39.0191 66.242 38.5649C78.7513 34.4804 84.2165 40.4796 86.4835 45.2829C86.683 46.0748 86.8184 46.8813 86.8884 47.6946Z" fill="white"/>
<path d="M55.5541 34.7209L52.1805 34.0491C52.0027 33.8601 51.8486 33.6503 51.7217 33.4243C52.7742 33.5788 53.8268 33.7266 54.8794 33.9013C55.0711 34.1999 55.2976 34.475 55.5541 34.7209Z" fill="#4D3826"/>
<path d="M25.3401 31.9361C30.4275 32.0704 30.0092 34.2336 30.5894 35.3958C30.72 35.7351 30.7818 36.0967 30.7714 36.4599C30.761 36.8231 30.6785 37.1807 30.5287 37.512C29.8068 37.8411 29.0848 38.1838 28.3764 38.5801C28.0368 38.7492 27.7098 38.9423 27.398 39.1579C27.6664 38.3539 27.6619 37.4843 27.3851 36.6831C27.1084 35.8819 26.5747 35.1935 25.8664 34.724C24.4158 33.7633 21.5819 33.4879 20.0908 33.3804C21.5532 32.8609 23.0474 32.4346 24.5642 32.104C24.8206 32.0503 25.077 31.9831 25.3266 31.9092L25.3401 31.9361Z" fill="white"/>
<path d="M31.2651 71.002L21.1444 68.3149C21.0364 68.0865 20.9284 67.8648 20.834 67.6431C21.6032 67.8916 22.3791 68.12 23.155 68.3149C25.0442 68.8053 27.0009 69.0673 28.9238 69.4569C29.5986 69.5913 30.2328 69.8533 30.8873 69.954C31.1032 70.6258 31.2651 71.002 31.2651 71.002Z" fill="#4D3826"/>
<path d="M39.5364 46.3801C26.2985 52.789 29.6113 66.151 30.8866 69.9601C30.2118 69.8593 29.5843 69.5973 28.9231 69.463C27.0002 69.0733 25.0435 68.7912 23.1543 68.3209C22.3784 68.1194 21.6024 67.891 20.8333 67.6491C14.3965 53.1652 28.1809 46.9041 31.3184 45.6948C34.0207 46.2474 36.7795 46.4774 39.5364 46.3801Z" fill="white"/>
<path d="M54.8792 31.3612C55.8187 29.7928 57.321 28.638 59.0827 28.1299L59.7574 28.2306C60.9585 28.4895 62.1454 28.8102 63.3132 29.1913C65.4183 29.7153 67.5234 30.2595 69.642 30.7096C73.6431 31.5493 77.4013 33.034 80.4375 35.7548C83.3658 38.3815 85.6328 41.4583 86.51 45.2808C84.2159 40.4775 78.7507 34.4784 66.2684 38.5629C66.0568 38.2978 65.8012 38.0706 65.5128 37.8911C64.3163 37.1336 63.0593 36.4753 61.7546 35.9227C60.2974 35.2534 58.779 34.7248 57.2205 34.344C56.4513 34.1828 55.6821 34.0417 54.9062 33.9141C53.8874 32.3488 54.8792 31.3612 54.8792 31.3612Z" fill="#F79221"/>
<path d="M57.5786 27.3328C56.8767 27.3192 56.1779 27.4284 55.5139 27.6553C54.232 27.5075 52.95 27.3799 51.6613 27.2925C49.7894 27.1816 47.9115 27.2288 46.0476 27.4336C44.6702 27.6643 43.3073 27.9738 41.9656 28.3607C40.4812 28.6832 38.9901 28.972 37.499 29.2811C37.499 29.1668 37.4517 29.0526 37.4247 28.9384C34.9081 29.4557 32.3711 29.9058 29.8679 30.5104C28.3363 30.8866 26.8654 31.5114 25.3473 31.9347C24.3948 31.9153 23.442 31.9489 22.4933 32.0354L21.2788 32.5191L21.0156 31.8473C22.3651 31.4308 23.7145 31.068 25.1179 30.712C27.891 30.02 30.5899 29.2542 33.3764 28.6025C34.537 28.3271 35.7649 28.3473 36.939 28.1054C38.492 27.8118 40.0245 27.4191 41.527 26.9298C45.1974 25.7404 49.0835 25.3599 52.9163 25.8146C55.3925 26.0497 57.8687 26.3386 60.3382 26.7417C61.5122 26.9365 62.612 27.5209 63.7725 27.8165C66.1002 28.401 68.455 28.9116 70.7895 29.4624C74.8918 30.4433 78.7242 32.0623 81.8954 34.8368C84.5869 37.1105 86.6241 40.0546 87.7992 43.3686C88.3235 45.2009 88.7247 47.0659 89.0002 48.9513C88.9989 49.299 88.9396 49.644 88.8247 49.9724C88.7168 50.5703 88.5953 51.1682 88.4874 51.7661L87.8869 51.6586C88.0448 50.95 88.0631 50.2177 87.9408 49.5021C87.6393 48.048 87.1613 46.6358 86.5172 45.2967C85.6333 41.4742 83.3663 38.3973 80.4447 35.7706C77.4085 33.0834 73.6503 31.5652 69.6493 30.7254C67.5306 30.2753 65.4255 29.7312 63.3204 29.2072C62.1526 28.826 60.9658 28.5054 59.7646 28.2465L59.0899 28.1457C59.6941 27.9707 60.3283 27.9227 60.9521 28.0046C59.8881 27.5452 58.7382 27.3163 57.5786 27.3328Z" fill="#4D3826"/>
<path d="M30.5901 35.3951C30.0099 34.2329 30.4282 32.0697 25.3408 31.9354C26.8589 31.5121 28.3298 30.8874 29.8614 30.5111C32.3646 29.9065 34.9016 29.4564 37.4183 28.9391C37.4183 29.0534 37.4655 29.1676 37.4925 29.2818C38.9836 28.9727 40.4747 28.6839 41.9591 28.3614C43.3008 27.9746 44.6637 27.665 46.0412 27.4343C47.905 27.2295 49.7829 27.1823 51.6548 27.2932C52.9435 27.3806 54.2255 27.5082 55.5074 27.656C54.2341 28.185 53.0971 28.9934 52.1811 30.0207C51.7003 30.4349 51.3882 31.0098 51.3037 31.6372C51.2192 32.2646 51.368 32.9011 51.7223 33.4268C51.0071 33.3193 50.2919 33.2118 49.5767 33.0909C47.647 32.7684 45.7375 32.4594 43.9563 33.635C43.8245 33.7007 43.6834 33.746 43.538 33.7694C42.2762 34.0045 41.0078 34.2329 39.746 34.4815C36.5612 35.1133 33.466 36.1308 30.5294 37.5113C30.6792 37.18 30.7617 36.8224 30.7721 36.4592C30.7825 36.0961 30.7207 35.7344 30.5901 35.3951Z" fill="#F79221"/>
<path d="M84.5664 57.3551C86.3395 54.4577 87.1494 51.0771 86.8807 47.6947C86.8211 46.8867 86.697 46.0848 86.5096 45.2964C87.156 46.6352 87.6363 48.0474 87.94 49.5018C88.0583 50.2252 88.0331 50.9647 87.8658 51.6785C87.2046 54.9635 84.5664 58.907 84.5664 58.907C84.5664 58.3763 84.5664 57.8724 84.5664 57.3753V57.3551Z" fill="#4D3826"/>
<path d="M21.3528 69.3944C17.5717 68.3055 14.0337 66.5089 10.9285 64.1006C8.7899 62.3534 7.15928 60.0689 6.20544 57.4834C5.69265 56.1398 5.13938 54.8567 4.67383 53.5198C3.80344 50.9938 3.90465 48.4141 4.26225 45.8143C4.69407 42.7039 6.5293 40.4399 8.6749 38.3439C10.3549 36.7047 12.4466 35.7038 14.4572 34.5617C16.531 33.4299 18.7235 32.5288 20.9952 31.8745L21.2584 32.5463L19.1195 33.3793C19.1195 33.3793 19.4974 33.3793 20.0911 33.3793C16.8814 34.5267 13.8458 36.1091 11.0701 38.0819C8.47923 39.9159 6.44159 42.2672 5.77362 45.5254C5.17501 48.6254 5.40773 51.8277 6.44834 54.8096C6.46499 54.8656 6.48761 54.9197 6.51581 54.9709C7.14326 55.9725 7.70882 57.0112 8.20935 58.0813C9.23627 60.4125 10.9398 62.3847 13.1011 63.7445C14.6848 64.8312 16.3624 65.7754 18.1142 66.5661C18.9946 66.9666 19.8954 67.3209 20.8131 67.6275C20.9075 67.8492 21.0155 68.0709 21.1234 68.2993L31.2442 70.9865L31.197 71.3291C29.4967 71.0873 27.8234 70.6573 26.1501 70.3752C24.5322 70.1471 22.9301 69.8195 21.3528 69.3944Z" fill="#4D3826"/>
<path d="M26.0549 41.1618C26.1835 41.9925 26.5148 42.7791 27.0197 43.4527C27.8834 44.6888 29.3003 45.2195 30.6767 45.5487C30.8926 45.6024 31.1018 45.6494 31.3514 45.6898C28.1803 46.899 14.3958 53.1601 20.8326 67.6373C19.915 67.3307 19.0141 66.9764 18.1337 66.5759C16.382 65.7852 14.7043 64.841 13.1206 63.7544C10.9593 62.3945 9.25578 60.4223 8.22886 58.0911C7.72833 57.021 7.16277 55.9823 6.53532 54.9807C6.50713 54.9295 6.48451 54.8754 6.46785 54.8195C5.42724 51.8376 5.19452 48.6352 5.79313 45.5352C6.46785 42.277 8.492 39.9257 11.0897 38.0917C13.8653 36.1189 16.9009 34.5365 20.1106 33.3892C21.6018 33.4698 24.4356 33.7452 25.8862 34.7328C26.5945 35.2023 27.1282 35.8906 27.4049 36.6918C27.6817 37.493 27.6862 38.3626 27.4178 39.1666C27.2527 39.289 27.0991 39.4261 26.959 39.5764C26.5407 40.0131 26.0077 40.658 26.0549 41.1618Z" fill="#F79221"/>
</g>
<g filter="url(#filter1_d)">
<path d="M315.972 48.505C316.049 48.918 315.967 49.3447 315.743 49.7005C315.06 50.353 314.368 51.0054 313.277 51.0693C310.596 51.1925 307.92 51.4982 305.239 51.5895C302.031 51.699 298.782 51.6762 295.552 51.6944C294.502 51.6944 293.453 51.6442 292.403 51.6397C292.202 51.6397 291.89 51.6397 291.808 51.7766C291.193 52.6891 290.474 52.137 289.791 51.9454C289.108 51.7537 288.531 51.4891 287.88 51.3431C287.48 51.3007 287.076 51.3007 286.675 51.3431C286.822 51.7994 286.909 52.1689 287.051 52.502C287.477 53.515 287.926 54.5188 288.371 55.5226C288.737 56.353 288.462 56.7591 287.55 56.718C285.548 56.6359 283.82 55.7097 282.051 54.8929C280.539 54.1842 279.034 53.4617 277.537 52.7256C276.873 52.3971 276.24 52.0001 275.599 51.6397C275.74 52.6985 275.809 53.7655 275.805 54.8336C275.727 56.0291 276.181 57.2747 275.507 58.4428C275.384 58.6949 275.195 58.909 274.959 59.0625C274.723 59.2159 274.45 59.3029 274.169 59.3143C273.083 59.3946 272.007 59.0693 271.149 58.4017C268.454 56.4352 266.731 53.7431 265.306 50.8184C265.215 50.6432 265.061 50.5082 264.875 50.4397C264.715 51.1378 264.527 51.8313 264.417 52.5385C264.202 53.7705 264.037 55.0161 263.835 56.2526C263.62 57.5622 263.418 58.8762 263.143 60.1721C263.056 60.601 262.85 61.2261 262.547 61.3356C261.933 61.5546 261.173 61.5728 260.714 60.9067C259.903 59.7067 258.982 58.5432 258.4 57.2565C257.539 55.3264 256.929 53.2868 256.21 51.2929C256.159 51.1515 256.081 51.0146 255.93 50.7043C255.472 51.4435 255.059 52.0458 254.72 52.6845C254.028 53.9895 253.401 55.3355 252.699 56.6359C252.241 57.5074 251.572 58.1371 250.445 58.0047C250.024 57.9632 249.627 57.7931 249.308 57.5178C248.989 57.2424 248.763 56.8754 248.662 56.4671C247.901 54.2952 247.168 52.1096 246.398 49.8556C246.267 49.9562 246.141 50.0644 246.023 50.1796C243.376 53.3103 241.037 56.6871 239.039 60.2633C238.878 60.6005 238.611 60.8762 238.278 61.0481C237.783 61.2056 237.254 61.2277 236.747 61.112C236.569 61.0664 236.486 60.4413 236.454 60.0717C236.257 57.6352 236.092 55.1986 235.904 52.7712C235.854 52.0777 235.762 51.4024 235.68 50.6906C235.643 50.4077 235.579 50.1294 235.473 49.5727C234.846 50.3073 234.351 50.8457 233.897 51.4207C232.664 52.9857 231.436 54.5507 230.231 56.1477C230.016 56.4257 229.728 56.6389 229.399 56.7637C229.069 56.8886 228.712 56.9202 228.366 56.8549C227.756 56.8002 227.564 56.3302 227.582 55.8055C227.646 54.1173 227.738 52.429 227.839 50.7408C227.885 49.9697 227.967 49.1986 228.049 48.286C226.019 49.2533 224.108 50.1613 222.202 51.083C220.722 51.7948 219.278 52.5933 217.757 53.2001C217.031 53.4076 216.272 53.4757 215.521 53.4009C215.216 53.3318 214.951 53.1488 214.778 52.8899C214.709 52.8077 214.893 52.4336 215.039 52.2876C217.315 49.8541 219.607 47.4206 221.913 44.9871L223.229 43.6183C221.501 44.0381 220.021 44.4168 218.49 44.7681C216.29 45.2791 214.091 45.7795 211.891 46.2693C211.66 46.353 211.41 46.3658 211.172 46.3058C210.827 46.093 210.5 45.8519 210.196 45.5849C210.404 45.332 210.639 45.1025 210.897 44.9004C211.992 44.2251 213.096 43.5316 214.233 42.9339C216.666 41.6061 219.127 40.324 221.565 39.019C221.868 38.8547 222.161 38.6677 222.651 38.3757C222.216 38.2433 221.959 38.1384 221.698 38.0882C219.636 37.6821 217.574 37.2943 215.516 36.8927C213.659 36.5536 211.864 35.9383 210.191 35.0676C209.847 34.8806 209.65 34.4288 209.38 34.1003C209.702 33.8619 210.055 33.6685 210.429 33.5254C212.051 33.1357 213.692 32.8311 215.346 32.6129C218.027 32.3163 220.722 32.1566 223.412 31.9741C223.673 31.9762 223.931 31.9101 224.159 31.7824C223.581 31.4859 222.977 31.2258 222.422 30.8699C220.401 29.6379 218.394 28.3832 216.387 27.133C216.275 27.0574 216.172 26.9703 216.08 26.8729C215.741 26.5352 215.241 26.2387 215.126 25.8371C215.012 25.4356 216.3 24.596 216.804 24.6508C217.954 24.774 219.095 24.9565 220.245 25.1071C220.479 25.139 220.704 25.1846 221.194 25.2713C220.933 23.8067 220.681 22.4789 220.461 21.1648C220.406 20.85 220.346 20.2979 220.461 20.2523C220.637 20.1501 220.832 20.0849 221.035 20.0606C221.237 20.0363 221.443 20.0534 221.638 20.1108C222.679 20.6949 223.646 21.4112 224.64 22.0728L228.792 24.8105L228.957 24.7056C228.499 23.4006 228.063 22.0865 227.582 20.8044C227.014 19.3625 226.354 17.9572 225.781 16.5154C225.584 16.0135 225.914 15.6895 226.4 15.6028C226.613 15.5664 226.833 15.5984 227.028 15.6941C229.653 17.0355 232.582 17.1268 235.391 17.7108C235.68 17.7701 235.973 17.8249 236.262 17.8933C237.155 18.0986 237.178 18.0302 237.265 17.145C237.494 14.0606 237.751 10.9792 238.035 7.90082C238.063 7.59968 238.333 7.32135 238.585 6.86507V6.18978C238.947 6.18978 239.396 6.05289 239.653 6.21715C240.265 6.59508 240.815 7.06444 241.284 7.6088C242.773 9.43392 244.208 11.259 245.642 13.1115C245.995 13.5678 246.279 14.0834 246.747 14.8043C247.09 13.6317 247.402 12.7009 247.663 11.7518C248.296 9.30616 248.873 6.84682 249.528 4.41029C249.702 3.81409 249.983 3.25437 250.358 2.75856C250.61 2.40723 251.114 1.93726 251.421 1.99202C251.67 2.05396 251.903 2.16718 252.105 2.32437C252.307 2.48156 252.473 2.67922 252.594 2.90457C253.291 4.40573 253.831 5.97989 254.482 7.50842C254.94 8.56699 255.463 9.58905 256.022 10.7708C256.851 9.85825 257.552 9.00045 258.313 8.21565C260.673 5.78369 263.038 3.36085 265.448 0.979078C265.617 0.864192 265.809 0.787507 266.011 0.754401C266.213 0.721296 266.42 0.732573 266.617 0.787441C266.774 0.859245 266.911 0.969048 267.015 1.10689C267.119 1.24473 267.187 1.40625 267.213 1.5768C267.245 3.12815 267.213 4.68406 267.139 6.23084C267.048 7.97382 266.873 9.71225 266.722 11.4507C266.672 12.0073 266.589 12.5594 266.502 13.2393C267.066 12.9746 267.57 12.783 268.056 12.5047C271.937 10.4469 275.805 8.37535 279.696 6.34035C280.125 6.14081 280.597 6.04692 281.07 6.06658C282.019 6.06658 282.331 6.63237 281.882 7.43542C280.832 9.32897 279.76 11.2134 278.674 13.1024C278.412 13.5587 278.133 14.015 277.803 14.5716C279.783 13.9465 281.662 13.399 283.508 12.7465C286.354 11.7655 289.177 10.7069 292.023 9.71225C292.384 9.61226 292.762 9.59201 293.132 9.65293C293.751 9.72137 294.025 10.1731 293.677 10.6613C292.362 12.5229 290.992 14.3572 289.635 16.196C289.095 16.9214 288.558 17.6515 287.981 18.3496C287.115 19.3853 285.58 21.6667 284.663 22.8348C284.894 22.7827 285.122 22.7188 285.346 22.6432C287.33 21.9496 289.273 21.142 291.267 20.4987C292.729 20.0424 294.245 19.7367 295.744 19.399C296.143 19.3277 296.551 19.3154 296.954 19.3625C297.843 19.4401 298.012 19.7002 297.614 20.5078C295.927 23.8979 294.406 27.3793 292.165 30.4729C292.046 30.6417 291.95 30.8288 291.707 31.2303C292.88 31.2303 293.883 31.2075 294.887 31.2303C298.017 31.3125 301.151 31.3992 304.286 31.5132C304.853 31.5314 305.415 31.6313 305.954 31.8098C306.261 31.9193 306.476 32.2661 306.738 32.5262C306.518 32.7269 306.334 33.0144 306.078 33.1148C303.634 34.079 301.181 35.022 298.718 35.9437C297.719 36.3224 296.706 36.6555 295.478 37.0889C296.017 37.3945 296.572 37.6702 297.142 37.9148C298.718 38.4578 300.308 38.9688 301.898 39.4707C303.406 39.9544 304.941 40.3833 306.435 40.9034C306.825 41.0449 307.104 41.5012 307.439 41.816C307.132 42.1217 306.875 42.5825 306.522 42.7285C305.579 43.0205 304.622 43.2642 303.654 43.4586C303.457 43.5042 303.255 43.5133 302.92 43.5635C304.777 44.7567 306.854 45.571 309.029 45.959C310.899 46.3605 312.75 46.8305 314.597 47.3278C315.197 47.4921 315.894 47.7248 315.972 48.505ZM313.68 49.3355C313.854 49.2898 314.102 48.9339 314.061 48.8153C314.011 48.6975 313.936 48.5916 313.842 48.5043C313.748 48.4171 313.637 48.3505 313.515 48.3088C311.737 47.8799 309.964 47.4465 308.167 47.1134C306.217 46.8038 304.348 46.1122 302.668 45.0784C300.603 43.7323 298.165 43.0652 295.698 43.1711C295.093 43.2165 294.49 43.2941 293.893 43.4038C293.961 43.5864 293.971 43.6502 294.003 43.6776C294.103 43.7689 294.218 43.8419 294.323 43.924C295.781 45.1149 297.293 46.2647 298.058 48.067C298.15 48.3758 298.204 48.6944 298.219 49.0161C297.885 49.1173 297.535 49.1545 297.188 49.1256C295.249 48.4959 293.334 47.7841 291.4 47.1499C290.359 46.8077 289.292 46.5659 288.242 46.2738L288.036 46.5111C288.549 47.232 289.058 47.9621 289.585 48.6739C290.208 49.5088 290.818 50.2708 292.069 50.2708C295.387 50.2708 298.7 50.4579 302.018 50.4488C304.818 50.4488 307.622 50.321 310.418 50.1203C311.533 49.973 312.631 49.7131 313.694 49.3446L313.68 49.3355ZM252.589 9.67118L252.365 9.49779C252.328 10.7982 251.412 10.8256 250.495 10.8438C250.495 10.9123 250.495 10.9807 250.495 11.0491C250.953 11.3366 251.375 11.6241 251.87 11.9617L252.589 9.67118Z" fill="#4D3826"/>
<path d="M314.074 48.8167C314.115 48.9353 313.868 49.273 313.694 49.3369C312.632 49.7082 311.536 49.9711 310.422 50.1217C307.626 50.3224 304.822 50.441 302.022 50.4502C298.704 50.4502 295.391 50.2768 292.073 50.2722C290.822 50.2722 290.212 49.5102 289.589 48.6752C289.062 47.9635 288.553 47.2334 288.04 46.5125L288.246 46.2752C289.296 46.5672 290.363 46.8091 291.404 47.1513C293.338 47.7855 295.253 48.4973 297.192 49.127C297.539 49.1559 297.889 49.1187 298.223 49.0175C298.208 48.6958 298.154 48.3772 298.062 48.0684C297.297 46.2661 295.771 45.1163 294.327 43.9254C294.222 43.8433 294.107 43.7703 294.007 43.679C293.975 43.6516 293.965 43.5877 293.897 43.4052C294.494 43.2955 295.097 43.2178 295.702 43.1725C298.169 43.0666 300.607 43.7337 302.672 45.0798C304.352 46.1135 306.221 46.8052 308.171 47.1148C309.968 47.4479 311.741 47.8813 313.519 48.3102C313.643 48.3508 313.756 48.4169 313.851 48.5042C313.947 48.5915 314.023 48.698 314.074 48.8167ZM312.337 49.273C312.204 49.0585 312.117 48.7209 311.929 48.6479C311.184 48.3561 310.418 48.1212 309.638 47.9452C309.505 47.9402 309.373 47.9695 309.255 48.0303C309.137 48.091 309.037 48.1812 308.964 48.292C308.944 48.4269 308.959 48.5647 309.007 48.6925C309.055 48.8202 309.135 48.9336 309.239 49.022C309.867 49.3505 310.554 49.5787 311.297 49.8753L312.337 49.273Z" fill="#C8A468"/>
<path d="M311.93 48.63C312.118 48.703 312.205 49.0406 312.338 49.2551L311.311 49.8574C310.569 49.5608 309.881 49.3326 309.254 49.0041C309.149 48.9157 309.069 48.8023 309.021 48.6746C308.973 48.5468 308.958 48.409 308.979 48.2741C309.051 48.1633 309.151 48.0732 309.27 48.0124C309.388 47.9516 309.519 47.9223 309.652 47.9273C310.428 48.104 311.189 48.3389 311.93 48.63Z" fill="#4D3826"/>
<path d="M252.365 9.49707L252.589 9.67046L251.856 11.9518C251.352 11.6142 250.912 11.3267 250.481 11.0393C250.481 10.9708 250.481 10.9024 250.481 10.834C251.412 10.8248 252.328 10.7975 252.365 9.49707Z" fill="#4D3826"/>
</g>
<defs>
<filter id="filter0_d" x="0" y="25.6284" width="93.0002" height="54.0303" filterUnits="userSpaceOnUse" color-interpolation-filters="sRGB">
<feFlood flood-opacity="0" result="BackgroundImageFix"/>
<feColorMatrix in="SourceAlpha" type="matrix" values="0 0 0 0 0 0 0 0 0 0 0 0 0 0 0 0 0 0 127 0"/>
<feOffset dy="4"/>
<feGaussianBlur stdDeviation="2"/>
<feColorMatrix type="matrix" values="0 0 0 0 0 0 0 0 0 0 0 0 0 0 0 0 0 0 0.25 0"/>
<feBlend mode="normal" in2="BackgroundImageFix" result="effect1_dropShadow"/>
<feBlend mode="normal" in="SourceGraphic" in2="effect1_dropShadow" result="shape"/>
</filter>
<filter id="filter1_d" x="205.38" y="0.73584" width="114.62" height="68.7359" filterUnits="userSpaceOnUse" color-interpolation-filters="sRGB">
<feFlood flood-opacity="0" result="BackgroundImageFix"/>
<feColorMatrix in="SourceAlpha" type="matrix" values="0 0 0 0 0 0 0 0 0 0 0 0 0 0 0 0 0 0 127 0"/>
<feOffset dy="4"/>
<feGaussianBlur stdDeviation="2"/>
<feColorMatrix type="matrix" values="0 0 0 0 0 0 0 0 0 0 0 0 0 0 0 0 0 0 0.25 0"/>
<feBlend mode="normal" in2="BackgroundImageFix" result="effect1_dropShadow"/>
<feBlend mode="normal" in="SourceGraphic" in2="effect1_dropShadow" result="shape"/>
</filter>
</defs>
</svg>
