<svg width="240" height="84" viewBox="0 0 240 84" fill="none" xmlns="http://www.w3.org/2000/svg">
<path d="M9.99999 71.6636C4.47714 71.6636 0 67.1865 0 61.6636V21.5447C0 19.6289 0.960547 17.8708 2.52533 16.7653C2.71263 16.6286 2.85187 16.4449 2.9259 16.237C3.01926 15.8773 3.24069 15.5558 3.5557 15.3226C3.87071 15.0895 4.2616 14.9576 4.6675 14.9477C4.93753 14.9423 5.20068 14.8691 5.42801 14.7364C6.5078 13.9861 7.52374 13.1513 8.62675 12.4379C9.82076 11.6415 11.061 10.9043 12.3422 10.2293C14.2696 9.23599 16.2376 8.30604 18.2288 7.41837C20.22 6.5307 22.1648 5.65887 24.1967 4.92443C25.6655 4.39606 27.2387 4.12658 28.7597 3.7303C31.1573 3.10681 33.5433 2.43578 35.9525 1.85457C37.4571 1.46574 38.9895 1.17266 40.5388 0.977461C43.2344 0.641623 45.9471 0.431757 48.6663 0.348692C50.9554 0.263919 53.2471 0.441436 55.4876 0.877068C57.8559 1.43381 60.1393 2.25553 62.2856 3.32345C65.092 4.67044 67.7939 6.19041 70.3725 7.87276C73.3506 9.82247 76.1314 12.0152 78.9876 14.1129C80.4157 15.1696 81.7858 16.2739 83.2488 17.2831C84.8087 18.3081 86.6095 18.9883 88.5084 19.2698C89.5834 19.4932 90.6874 19.5786 91.7884 19.5235C95.1952 19.1959 98.5249 18.3865 101.658 17.1246C103.039 16.5963 104.496 16.1947 105.93 15.7773C107.486 15.3176 109.036 14.8421 110.627 14.5039C111.549 14.3959 112.478 14.3465 113.408 14.356C114.197 14.2535 115.001 14.3092 115.764 14.5191C116.527 14.729 117.231 15.0881 117.825 15.5712C119.48 16.9383 121.337 18.0889 123.341 18.9898C126.057 20.279 128.844 21.4573 131.671 22.5141C133.434 23.1915 135.277 23.6826 137.163 23.9777C140.409 24.4428 143.72 24.373 146.939 23.7716C148.843 23.4229 150.771 23.016 152.344 21.991C154.457 20.6172 156.408 19.0057 158.405 17.4998C159.932 16.3532 161.406 15.1485 162.991 14.0706C164.576 12.9927 166.091 12.1051 167.705 11.2174C169.047 10.4224 170.468 9.74311 171.949 9.18843C173.615 8.62307 175.432 8.3853 177.127 7.93089C179.977 7.18709 182.972 7.02294 185.899 7.45007C188.326 7.77766 190.683 8.46984 193.098 8.88725C195.954 9.48069 198.727 10.367 201.364 11.5291C204.308 12.7127 207.257 13.9121 210.072 15.2965C212.458 16.4695 214.717 17.8855 216.969 19.2487C219.222 20.6119 221.492 22.0174 223.68 23.4757C225.042 24.4545 226.549 25.2532 228.156 25.8481C230.589 26.6724 232.98 27.5865 235.703 27.0211C237.736 26.6027 239.715 28.2381 239.715 30.314V61.6636C239.715 67.1865 235.237 71.6636 229.715 71.6636H9.99999Z" fill="white"/>
<path d="M235.976 38.0479C238.016 37.6477 240 39.2739 240 41.353V73.5494C240 79.0723 235.523 83.5494 230 83.5494H10C4.47716 83.5494 0 79.0723 0 73.5494V32.4912C0 30.5606 0.970263 28.7993 2.52842 27.6594C2.7137 27.5224 2.85241 27.339 2.92794 27.1309C3.02113 26.7638 3.24304 26.4356 3.55901 26.1975C3.87498 25.9595 4.26721 25.8251 4.67444 25.8152C4.94321 25.8 5.20211 25.7159 5.42212 25.5721C6.50083 24.8112 7.52247 23.9869 8.62402 23.2366C9.81936 22.4242 11.0616 21.6727 12.3453 20.9855C14.2744 19.9763 16.2435 19.0251 18.2354 18.1215C20.2273 17.218 22.1736 16.3302 24.2112 15.5852C25.678 15.0567 27.2533 14.7714 28.7772 14.3698C31.1743 13.7357 33.5658 13.0488 35.9743 12.457C37.4821 12.0628 39.0172 11.7645 40.5688 11.564C43.2719 11.2196 45.9922 11.0045 48.7191 10.9193C51.0171 10.8279 53.3182 11.0055 55.5681 11.4477C57.9374 12.0163 60.2223 12.8522 62.3715 13.9365C65.1801 15.3087 67.8842 16.857 70.4647 18.5707C73.444 20.5575 76.2293 22.798 79.0887 24.9116C80.5213 25.9684 81.8911 27.1151 83.3522 28.1349C84.9142 29.1798 86.7181 29.8728 88.6202 30.1587C89.6957 30.3865 90.8004 30.4736 91.902 30.4177C95.322 30.0868 98.665 29.2631 101.81 27.9764C103.191 27.448 104.664 27.0253 106.085 26.6025C107.643 26.1322 109.196 25.6514 110.788 25.3079C111.711 25.1956 112.642 25.1444 113.573 25.1547C115.229 25.0384 116.758 25.3132 117.997 26.3912C119.652 27.7841 121.51 28.9562 123.516 29.8734C126.233 31.1839 129.024 32.3886 131.854 33.4613C133.619 34.1507 135.463 34.6507 137.351 34.9514C140.601 35.4282 143.917 35.3565 147.139 34.7401C149.045 34.386 150.975 33.9739 152.55 32.9276C154.662 31.5326 156.596 29.8893 158.617 28.3569C160.141 27.1891 161.619 25.9632 163.183 24.8641C164.747 23.765 166.288 22.8614 167.903 21.9578C169.247 21.1493 170.668 20.4577 172.149 19.8917C173.816 19.3158 175.614 19.078 177.332 18.613C180.185 17.8549 183.184 17.6871 186.116 18.1215C188.541 18.4597 190.904 19.1784 193.318 19.5852C196.176 20.1846 198.952 21.0797 201.594 22.2537C204.539 23.4585 207.49 24.6844 210.327 26.09C212.718 27.2842 214.967 28.732 217.233 30.1165C219.499 31.5009 221.759 32.9329 223.951 34.4336C225.312 35.4332 226.821 36.2481 228.431 36.8537C230.862 37.6886 233.259 38.6239 235.976 38.0479Z" fill="#1D64CF"/>
</svg>
