<svg width="540" height="130" viewBox="0 0 540 130" fill="none" xmlns="http://www.w3.org/2000/svg">
<path d="M9.99999 106.759C4.47715 106.759 0 102.282 0 96.7587V33.423C0 29.6136 2.24031 26.218 5.68875 24.5995C6.11068 24.3948 6.42435 24.1199 6.59111 23.8087C6.80142 23.2705 7.30023 22.7894 8.00984 22.4404C8.71945 22.0914 9.60003 21.8941 10.5144 21.8793C11.1227 21.8711 11.7155 21.7617 12.2275 21.563C14.66 20.4401 16.9486 19.1907 19.4333 18.1232C22.123 16.9314 24.9169 15.828 27.803 14.8179C32.1447 13.3313 36.578 11.9395 41.0636 10.6111C45.5493 9.28259 49.9302 7.97785 54.5074 6.8787C57.816 6.08795 61.3601 5.68466 64.7864 5.09159C70.1874 4.15851 75.5623 3.15426 80.9895 2.28443C84.3788 1.70253 87.8309 1.26391 91.3208 0.971778C97.3931 0.469172 103.504 0.155093 109.629 0.0307798C114.786 -0.0960894 119.949 0.169578 124.996 0.821533C130.331 1.65474 135.475 2.88451 140.309 4.48272C146.631 6.49858 152.718 8.77333 158.527 11.2911C165.235 14.209 171.5 17.4906 177.934 20.6299C181.151 22.2114 184.237 23.8641 187.533 25.3744C191.047 26.9083 195.103 27.9263 199.381 28.3476C201.803 28.6819 204.29 28.8097 206.77 28.7272C214.444 28.237 221.945 27.0257 229.002 25.1372C232.114 24.3464 235.397 23.7455 238.627 23.1208C242.132 22.4328 245.623 21.7211 249.207 21.2151C251.284 21.0535 253.377 20.9795 255.471 20.9937C257.249 20.8404 259.06 20.9237 260.779 21.2379C262.498 21.552 264.083 22.0894 265.423 22.8124C269.151 24.8583 273.333 26.5802 277.847 27.9285C283.967 29.858 290.244 31.6214 296.613 33.2029C300.585 34.2167 304.736 34.9516 308.984 35.3933C316.296 36.0894 323.756 35.9849 331.007 35.0849C335.296 34.563 339.638 33.9541 343.182 32.42C347.942 30.3641 352.336 27.9523 356.835 25.6986C360.275 23.9827 363.596 22.1798 367.167 20.5666C370.737 18.9535 374.15 17.625 377.786 16.2966C380.809 15.1068 384.009 14.0902 387.345 13.2601C391.098 12.414 395.192 12.0581 399.01 11.3781C405.43 10.2649 412.176 10.0193 418.771 10.6585C424.237 11.1488 429.547 12.1847 434.987 12.8094C441.422 13.6975 447.669 15.0239 453.609 16.7631C460.24 18.5344 466.883 20.3294 473.226 22.4012C478.601 24.1567 483.688 26.2759 488.762 28.316C493.836 30.3562 498.949 32.4596 503.88 34.642C506.947 36.1069 510.342 37.3022 513.962 38.1925C519.442 39.4261 524.83 40.7941 530.963 39.948C535.689 39.3019 540 43.0998 540 47.8698V96.7587C540 102.282 535.523 106.759 530 106.759H9.99999Z" fill="white"/>
<path d="M530.947 67.0066C535.706 66.4411 540 70.2459 540 75.0384V119.023C540 124.545 535.523 129.023 530 129.023H9.99999C4.47715 129.023 0 124.545 0 119.023V61.4097C0 57.665 2.26536 54.3647 5.68894 52.8475C5.83428 52.7825 5.96688 52.7097 6.08517 52.6305C6.48182 52.3649 6.65641 51.8803 6.9905 51.5393C7.24618 51.2783 7.59053 51.0456 8.00778 50.8551C8.71871 50.5307 9.60123 50.3475 10.5175 50.3341C11.1222 50.3134 11.7047 50.1987 12.1998 50.0028C14.6269 48.9657 16.9256 47.8422 19.404 46.8195C22.0936 45.7123 24.8887 44.6881 27.7769 43.7515C32.1175 42.3759 36.5479 41.0796 41.0297 39.848C45.5115 38.6165 49.8906 37.4065 54.4751 36.3911C57.7755 35.6709 61.3199 35.282 64.7486 34.7346C70.1422 33.8704 75.5229 32.9341 80.9422 32.1275C84.3347 31.5903 87.7886 31.1837 91.2799 30.9104C97.3617 30.4411 103.483 30.1478 109.618 30.0318C114.788 29.9072 119.966 30.1492 125.028 30.7519C130.359 31.527 135.5 32.6662 140.336 34.1441C146.655 36.0142 152.739 38.1245 158.546 40.4602C165.249 43.1681 171.516 46.2217 177.95 49.1025C181.173 50.5429 184.255 52.1057 187.542 53.4957C191.057 54.9198 195.116 55.8643 199.395 56.2541C201.815 56.5645 204.301 56.6833 206.78 56.607C214.474 56.156 221.996 55.0333 229.073 53.2797C232.181 52.5595 235.494 51.9833 238.692 51.4071C242.197 50.7662 245.69 50.1108 249.273 49.6427C251.351 49.4896 253.445 49.4198 255.54 49.4338C259.264 49.2754 262.706 49.6499 265.493 51.1191C269.218 53.0176 273.397 54.615 277.911 55.8652C284.023 57.6512 290.303 59.2933 296.673 60.7553C300.643 61.6949 304.792 62.3763 309.039 62.7862C316.351 63.436 323.813 63.3384 331.063 62.4981C335.352 62.0156 339.693 61.4539 343.237 60.0279C347.989 58.1266 352.342 55.8868 356.888 53.7982C360.317 52.2066 363.643 50.5357 367.161 49.0377C370.68 47.5397 374.147 46.3082 377.782 45.0766C380.805 43.9748 384.003 43.0321 387.336 42.2607C391.086 41.4757 395.131 41.1516 398.996 40.5178C405.417 39.4845 412.164 39.2559 418.76 39.848C424.218 40.3089 429.534 41.2884 434.966 41.8429C441.397 42.6599 447.643 43.8799 453.587 45.4799C460.214 47.122 466.853 48.7928 473.235 50.7086C478.616 52.3362 483.676 54.3095 488.774 56.1964C493.872 58.0833 498.957 60.0351 503.889 62.0804C506.953 63.4428 510.347 64.5535 513.97 65.3789C519.44 66.5168 524.834 67.7916 530.947 67.0066Z" fill="#1D64CF"/>
</svg>
