<svg width="481" height="128" viewBox="0 0 481 128" fill="none" xmlns="http://www.w3.org/2000/svg">
<path d="M260.5 89.5396C261.206 91.2595 261.744 93.0442 262.104 94.8684C262.628 97.0837 263.037 99.3164 263.447 101.54C263.499 102.121 263.499 102.704 263.447 103.285C263.711 106.679 263.293 110.092 262.218 113.323C261.598 115.399 260.918 117.57 259.13 119.262C257.046 121.251 254.813 123.108 251.377 123.623C250.217 123.789 249.066 123.954 247.888 124.068L247.74 122.559C248.514 122.477 249.283 122.352 250.043 122.184C251.888 121.856 253.625 121.08 255.102 119.924C256.578 118.768 257.749 117.269 258.511 115.556C260.084 111.749 260.879 107.665 260.848 103.546C260.77 101.494 260.519 99.4517 260.098 97.4413C259.174 94.0486 258.668 90.5513 256.749 87.368C256.2 86.4959 255.799 85.4929 255.232 84.6033C253.296 81.5683 251.394 78.5855 247.321 76.85C246.619 76.5397 245.889 76.2944 245.141 76.1174L245.542 74.5649C246.597 74.7929 247.628 75.12 248.621 75.5417C252.095 76.9926 254.969 79.5866 256.767 82.8939C258.066 85.083 259.462 87.2634 260.5 89.5396Z" fill="#AD8F12"/>
<path d="M325.998 122.327C326.883 121.764 327.57 120.939 327.966 119.967C328.361 118.995 328.444 117.924 328.204 116.902C327.925 115.603 326.887 114.286 326.216 112.995C324.864 110.379 322.326 108.321 319.683 106.376C316.395 103.969 313.072 101.57 309.54 99.3986C306.008 97.2269 302.319 95.2733 298.551 93.4156C296.188 92.2557 293.545 91.4708 291.033 90.5027C287.824 89.2555 284.684 87.8863 282.164 85.8106C279.844 83.8831 278.309 81.8074 279.146 79.3916C279.21 79.0634 279.368 78.7607 279.6 78.5194C280.864 77.6473 281.998 76.4961 283.559 75.9466C285.04 75.6046 286.575 75.5749 288.068 75.8594C291.068 76.203 293.974 77.124 296.624 78.5718C297.226 78.8799 297.773 79.2834 298.246 79.7666C298.479 80.16 298.619 80.6015 298.656 81.0574L298.246 81.1184C297.688 80.7608 297.13 80.412 296.58 80.0457C294.129 78.4061 291.251 77.8915 288.391 77.4293C287.396 77.2226 286.366 77.2522 285.385 77.5158C284.403 77.7794 283.497 78.2695 282.739 78.9468C280.951 80.4556 281.047 82.2697 282.949 84.1796C285.565 86.7961 289.054 88.0781 292.647 89.4125C295.316 90.3806 297.88 91.5667 300.496 92.7092C302.179 93.4107 303.824 94.1996 305.424 95.0727C308.502 96.817 311.529 98.6921 314.477 100.567C316.317 101.727 318.105 102.939 319.779 104.222C321.454 105.504 323.137 107.039 324.785 108.469C325.515 109.025 326.182 109.66 326.774 110.361C327.942 112.036 328.963 113.745 330.009 115.446C330.317 115.943 330.582 116.466 330.803 117.007C331.728 119.257 330.89 121.211 329.399 122.702C326.494 125.658 322.62 127.466 318.488 127.796C314.457 128.106 310.402 127.746 306.488 126.732C303.741 126.044 301.033 125.209 298.377 124.228C296.938 123.723 295.621 122.912 294.217 122.284C292.202 121.411 290.161 120.539 288.112 119.667C287.52 119.446 286.958 119.153 286.437 118.795C283.707 116.615 280.637 114.679 278.37 112.167C276.941 110.58 275.839 108.728 275.125 106.716C274.681 105.495 276.242 104.492 277.986 104.911C278.004 105.287 277.948 105.663 277.82 106.018C277.288 106.89 277.724 107.658 278.143 108.556C279.062 110.38 280.372 111.98 281.981 113.239C284.507 115.526 287.336 117.454 290.388 118.969C293.004 120.182 295.621 121.455 298.377 122.458C302.566 124.099 306.938 125.229 311.398 125.825C314.654 126.197 317.95 125.984 321.131 125.197C323.25 124.734 324.515 123.426 325.998 122.327Z" fill="#AD8F12"/>
<path d="M240.808 123.791C238.348 123.232 235.897 122.605 233.508 121.863C227.228 119.91 223.347 116.229 221.795 110.944C220.774 107.455 220.051 103.923 220.757 100.408C221.385 97.1466 221.751 93.7889 223.565 90.7102C224.821 88.5909 225.737 86.3495 227.054 84.2738C229.494 80.8238 232.651 77.9411 236.307 75.8227C239.115 74.2174 242.44 73.776 245.569 74.593L245.168 76.1454C243.142 75.6731 241.017 75.8847 239.124 76.7472C236.338 77.9642 233.85 79.7737 231.833 82.0498C229.937 84.2627 228.282 86.6719 226.897 89.2363C225.571 91.7213 224.613 94.3859 224.054 97.1466C223.478 99.5276 222.702 101.891 223.182 104.316C223.671 107.108 224.338 109.867 225.179 112.575C226.278 115.985 229.191 118.305 233.028 119.814C235.086 120.625 237.293 121.218 239.456 121.854C242.156 122.648 244.987 122.897 247.785 122.587L247.933 124.096C245.557 124.389 243.15 124.286 240.808 123.791Z" fill="#AD8F12"/>
<path d="M168.881 120.109C174.32 120.934 179.857 120.872 185.277 119.926C187.812 119.339 190.27 118.461 192.603 117.31C195.075 116.235 197.383 114.817 199.458 113.097C202.606 110.481 204.691 107.463 205.293 103.696C205.582 102.065 205.78 100.42 205.886 98.768C205.93 96.7944 205.254 94.8721 203.984 93.3607C202.886 91.8468 201.66 90.4288 200.321 89.1221C199.034 88.1407 197.679 87.2518 196.266 86.462C194.871 85.5288 193.484 84.5782 192.149 83.5752C190.126 82.049 191.051 78.6825 192.856 77.5313C195.185 76.0399 197.888 75.8829 200.505 75.2899C203.121 74.6968 205.737 75.2114 208.354 75.412C209.332 75.5937 210.272 75.9386 211.136 76.4324C211.345 76.5196 211.38 76.9121 211.494 77.165C211.232 77.2522 210.901 77.479 210.7 77.4092C207.841 76.4392 204.782 76.217 201.813 76.7638C199.6 77.1096 197.419 77.6317 195.289 78.3249C194.418 78.723 193.684 79.3692 193.179 80.1826C193.004 80.3831 192.878 80.6209 192.809 80.8778C192.74 81.1346 192.731 81.4038 192.783 81.6647C192.834 81.9255 192.944 82.1712 193.105 82.3829C193.266 82.5946 193.473 82.7668 193.711 82.8863C195.318 84.0829 197.035 85.1254 198.839 85.9998C201.185 87.0377 202.668 88.7994 204.281 90.4216C205.36 91.6458 206.296 92.9888 207.072 94.4247C208.729 97.0848 208.493 99.8756 208.014 102.771C207.698 105.266 206.876 107.67 205.598 109.835C204.474 111.659 202.99 113.235 201.237 114.467C200.592 114.911 200.069 115.513 199.388 115.914C197.153 117.359 194.822 118.65 192.411 119.778C188.81 121.264 184.968 122.08 181.073 122.185C179.373 122.246 177.672 122.368 175.971 122.464C171.727 122.348 167.505 121.808 163.369 120.851C160.974 120.416 158.609 119.834 156.287 119.106C154.003 118.14 151.775 117.045 149.615 115.827C148.033 114.954 146.647 113.767 145.542 112.339C144.242 110.779 143.272 108.972 142.69 107.027C142.057 104.802 142 102.452 142.525 100.198C142.824 98.7727 143.669 97.5208 144.879 96.7097C145.34 96.4505 145.871 96.3408 146.397 96.3958C147.06 96.3958 147.269 96.7882 146.885 97.3464C146.501 97.9046 146.013 98.5063 145.638 99.0907C144.478 101.044 144.496 103.164 144.635 105.283C144.918 108.13 146.237 110.775 148.342 112.714C150.102 114.491 152.235 115.855 154.586 116.708C159.222 118.33 164.012 119.469 168.881 120.109Z" fill="#AD8F12"/>
<g filter="url(#filter0_d)">
<path d="M35.7542 47.7944C33.4626 48.296 31.2052 48.9429 28.9957 49.7312C28.0987 49.7312 27.5278 49.7312 27.5278 49.7312L30.7898 48.4264L32.6247 47.6517C34.0479 47.5215 35.4773 47.4705 36.9061 47.4988C36.5289 47.6517 36.1416 47.7128 35.7542 47.7944Z" fill="#4D3826"/>
<path d="M62.4713 67.1209C67.7313 66.7641 72.9913 66.4481 78.2512 66.1015C83.9394 66.1015 89.6479 66.1626 94.9792 63.8588C95.9699 63.4419 96.7596 62.6559 97.1811 61.6672C97.4321 60.9982 97.4521 60.2644 97.2378 59.5827C97.0235 58.9011 96.5873 58.3107 95.9986 57.9057C93.1813 56.0328 90.0847 54.6186 86.8242 53.716C83.3314 52.7414 79.7756 52.0091 76.1819 51.5244C74.4247 51.0503 72.6092 50.8272 70.7894 50.8618C66.8036 51.3001 62.8586 52.1258 58.9034 52.8088C52.7657 54.0349 46.8593 56.2193 41.4007 59.2818C40.8283 59.499 40.3652 59.9342 40.113 60.4921C39.8608 61.0501 39.84 61.6852 40.0551 62.2584C40.7687 64.4093 42.573 65.3166 44.4792 65.8772C50.4018 67.7325 56.4264 67.5184 62.4713 67.1209ZM76.7426 49.7914C76.9492 50.1258 77.1956 50.4339 77.4765 50.7089L82.5734 51.7282C82.1859 51.3552 81.8437 50.9378 81.554 50.4846C82.7263 50.6783 83.8884 50.8923 85.0505 51.137C87.4052 51.7148 89.6991 52.517 91.9007 53.5325C93.872 54.371 95.771 55.3699 97.5787 56.5193C98.0145 56.7917 98.4006 57.1364 98.7204 57.5387L97.8641 57.8445C97.8641 57.8445 101.942 60.9026 95.8253 64.9802C95.9782 64.9802 96.7734 64.8476 98.017 64.7559C97.2623 65.407 96.3755 65.8869 95.4176 66.1626C94.1821 66.5836 92.9137 66.9007 91.6255 67.1107C87.548 67.6101 83.552 68.0077 79.5153 68.4358C79.2949 68.4557 79.0731 68.4557 78.8527 68.4358C78.8527 68.3543 78.8527 68.2829 78.8527 68.2116C73.8679 68.5378 68.8832 68.8334 63.8984 69.231C62.0431 69.3635 60.2184 69.4654 58.3734 69.5062L59.1277 69.0577L46.8952 68.0383L45.9573 68.3747C45.6311 68.3135 45.3151 68.2422 44.938 68.1606C42.8992 67.6611 40.7177 66.8558 39.4129 64.9802C38.6501 63.9581 38.1496 62.7645 37.9552 61.5041C37.8839 60.7395 38.6688 59.7609 39.2906 59.078C39.5022 58.85 39.7342 58.6418 39.9838 58.4561C39.9175 58.6076 39.8242 58.7457 39.7086 58.8639L43.7861 57.8445C44.1613 57.2506 44.4723 56.6184 44.7137 55.9586C49.1504 53.864 53.8267 52.32 58.6384 51.3613C60.5446 50.9841 62.4611 50.6375 64.3673 50.2807C64.5871 50.2453 64.8002 50.1765 64.9993 50.0768C67.6905 48.2929 70.5753 48.7619 73.4907 49.2512C74.6223 49.4346 75.7028 49.5977 76.7833 49.7608L76.7426 49.7914Z" fill="#4D3826"/>
<path d="M43.8373 57.8522L39.7598 58.8715C39.8754 58.7534 39.9687 58.6153 40.035 58.4638C40.5061 58.1366 41.0001 57.8436 41.5131 57.5871C42.5325 57.0061 43.6742 56.4658 44.7649 55.9663C44.5235 56.6261 44.2125 57.2582 43.8373 57.8522Z" fill="#4D3826"/>
<path d="M87.904 41.7272C85.2425 42.4981 82.9727 44.2506 81.5533 46.6304C81.5533 46.6304 80.0548 48.1289 81.5533 50.4836C79.9631 50.2186 78.3728 49.9943 76.7826 49.7599C76.2474 48.9623 76.0225 47.9964 76.1502 47.0445C76.2778 46.0925 76.7493 45.22 77.4758 44.5916C78.8597 43.0327 80.5775 41.8061 82.5013 41.0034C84.3158 41.2209 86.1167 41.4621 87.904 41.7272Z" fill="white"/>
<path d="M128.446 87.9392C125.604 92.7326 121.568 96.7082 116.733 99.4785C112.595 101.913 108.077 103.635 103.369 104.575C98.0172 105.595 92.6247 106.431 87.2424 107.246C85.8851 107.347 84.5222 107.347 83.1649 107.246V107.583C77.5073 107.654 71.8396 107.797 66.182 107.776C61.1871 107.776 56.1819 107.297 51.2074 107.562C49.4279 107.635 47.6456 107.533 45.8862 107.256L45.876 106.777C45.876 106.777 45.6314 106.206 45.3052 105.197C45.4771 105.228 45.6507 105.248 45.8251 105.258C49.2196 105.472 52.6243 105.585 56.0188 105.636C60.4837 105.707 64.9588 105.768 69.4237 105.687C74.2147 105.605 79.016 105.605 83.7663 105.095C90.2801 104.412 96.794 103.587 103.206 102.272C110.58 100.958 117.308 97.2287 122.329 91.6701C123.863 89.9495 125.229 88.0857 126.407 86.1043C126.407 86.8586 126.407 87.6232 126.407 88.4285C126.407 88.4285 130.393 82.4447 131.392 77.46L132.299 77.623C132.126 78.5405 131.952 79.4477 131.789 80.355C131.157 83.0694 130.023 85.6418 128.446 87.9392Z" fill="#4D3826"/>
<path d="M87.9037 41.7333C86.1096 41.4683 84.3121 41.227 82.5112 41.0096C83.5144 40.6652 84.5701 40.4996 85.6305 40.5203C87.3825 40.4951 89.1199 40.8426 90.7274 41.5397C89.7863 41.4087 88.8282 41.4746 87.9139 41.7333H87.9037Z" fill="#4D3826"/>
<path d="M46.8959 68.04L59.1284 69.0594L58.3843 69.4162C54.2198 69.5706 50.0518 69.2284 45.9683 68.3968L46.8959 68.04Z" fill="#4D3826"/>
<path d="M98.7296 57.5596C99.1894 58.2487 99.4949 59.029 99.6251 59.8471C99.7553 60.6653 99.7071 61.5019 99.4839 62.2997C99.2753 63.2489 98.768 64.1064 98.0364 64.7462C96.7927 64.8379 95.9976 64.9501 95.8447 64.9705C101.961 60.8929 97.8835 57.8348 97.8835 57.8348L98.7296 57.5596Z" fill="#4D3826"/>
<path d="M126.406 86.0723C125.228 88.0537 123.863 89.9175 122.329 91.6381C117.316 97.1908 110.599 100.92 103.236 102.24C96.8239 103.555 90.31 104.38 83.7962 105.063C79.0459 105.573 74.2446 105.573 69.4536 105.655C64.9887 105.736 60.5136 105.655 56.0487 105.604C52.644 105.604 49.2393 105.44 45.855 105.226C45.6806 105.216 45.507 105.196 45.3351 105.165C43.4084 99.3854 38.4033 79.11 58.4035 69.3851C60.2486 69.3851 62.0733 69.2424 63.9285 69.1099C68.9133 68.7429 73.898 68.4473 78.8828 68.0905C78.8828 68.1618 78.8828 68.2332 78.8828 68.3147C79.1032 68.3346 79.325 68.3346 79.5454 68.3147C83.6229 67.8866 87.6291 67.489 91.6556 66.9895C92.9438 66.7796 94.2123 66.4625 95.4477 66.0415C96.4056 65.7658 97.2924 65.2859 98.0471 64.6348C104.999 64.227 125.784 64.4819 126.406 86.0723Z" fill="#F79221"/>
<path d="M129.913 71.416C130.316 76.5495 129.089 81.6792 126.407 86.0746C125.775 64.4842 104.939 64.2294 98.0273 64.7492C98.7589 64.1094 99.2663 63.252 99.4749 62.3027C99.6981 61.5049 99.7462 60.6683 99.616 59.8502C99.4858 59.0321 99.1803 58.2517 98.7205 57.5626C117.62 51.3648 125.877 60.4679 129.302 67.7564C129.603 68.958 129.808 70.1817 129.913 71.416Z" fill="white"/>
<path d="M82.5733 51.7286L77.4764 50.7092C77.2078 50.4225 76.975 50.1041 76.7832 49.7612C78.3734 49.9957 79.9637 50.2199 81.5539 50.485C81.8436 50.9382 82.1858 51.3556 82.5733 51.7286Z" fill="#4D3826"/>
<path d="M36.9259 47.5032C44.612 47.7071 43.98 50.9895 44.8566 52.753C45.0539 53.2678 45.1473 53.8166 45.1316 54.3677C45.1159 54.9188 44.9912 55.4613 44.7649 55.964C43.6742 56.4635 42.5834 56.9834 41.5131 57.5848C41.0001 57.8414 40.5061 58.1343 40.035 58.4615C40.4405 57.2415 40.4337 55.922 40.0155 54.7063C39.5974 53.4906 38.7912 52.4461 37.721 51.7336C35.5293 50.2759 31.2479 49.8579 28.9951 49.6948C31.2046 48.9065 33.462 48.2596 35.7536 47.758C36.141 47.6765 36.5283 47.5745 36.9055 47.4624L36.9259 47.5032Z" fill="white"/>
<path d="M45.8758 106.781L30.5851 102.704C30.422 102.357 30.2589 102.021 30.1162 101.685C31.2783 102.062 32.4506 102.408 33.6229 102.704C36.4771 103.448 39.4333 103.846 42.3386 104.437C43.3579 104.641 44.3162 105.038 45.3049 105.191C45.6312 106.211 45.8758 106.781 45.8758 106.781Z" fill="#4D3826"/>
<path d="M58.373 69.4206C38.3728 79.1455 43.378 99.4209 45.3046 105.201C44.2852 105.048 43.3372 104.65 42.3382 104.446C39.433 103.855 36.4768 103.427 33.6225 102.714C32.4502 102.408 31.2779 102.061 30.1159 101.694C20.391 79.7163 41.2169 70.2157 45.957 68.3809C50.0397 69.2193 54.2077 69.5683 58.373 69.4206Z" fill="white"/>
<path d="M81.554 46.6317C82.9734 44.2519 85.2431 42.4995 87.9047 41.7285L88.9241 41.8814C90.7388 42.2742 92.5319 42.7608 94.2962 43.3391C97.4767 44.1342 100.657 44.9599 103.858 45.6429C109.903 46.9171 115.581 49.17 120.168 53.2984C124.592 57.2842 128.017 61.953 129.342 67.7532C125.877 60.4647 117.62 51.3616 98.7611 57.5595C98.4413 57.1572 98.0552 56.8124 97.6194 56.5401C95.8117 55.3907 93.9127 54.3917 91.9414 53.5533C89.7398 52.5377 87.4459 51.7356 85.0912 51.1578C83.9291 50.9131 82.767 50.699 81.5948 50.5054C80.0555 48.1302 81.554 46.6317 81.554 46.6317Z" fill="#F79221"/>
<path d="M85.6317 40.5184C84.5713 40.4977 83.5155 40.6633 82.5124 41.0077C80.5756 40.7834 78.6388 40.5898 76.6918 40.4573C73.8637 40.2889 71.0265 40.3605 68.2105 40.6713C66.1295 41.0214 64.0703 41.4911 62.0433 42.0781C59.8007 42.5674 57.5478 43.0057 55.295 43.4746C55.295 43.3013 55.2237 43.128 55.1829 42.9547C51.3806 43.7396 47.5477 44.4226 43.7658 45.3401C41.4519 45.9109 39.2296 46.859 36.936 47.5012C35.497 47.4717 34.0574 47.5228 32.624 47.6541L30.7892 48.388L30.3916 47.3686C32.4304 46.7366 34.4691 46.1862 36.5894 45.6459C40.7791 44.5959 44.8566 43.4338 49.0666 42.445C50.8199 42.0271 52.6752 42.0577 54.4489 41.6907C56.7953 41.2451 59.1107 40.6493 61.3807 39.9068C66.9259 38.1021 72.7972 37.5247 78.5878 38.2146C82.3289 38.5714 86.07 39.0097 89.801 39.6214C91.5747 39.917 93.2363 40.8038 94.9896 41.2524C98.5065 42.1392 102.064 42.9139 105.591 43.7498C111.789 45.2381 117.579 47.6948 122.37 51.9049C126.436 55.3549 129.514 59.8224 131.29 64.851C132.082 67.6313 132.688 70.4612 133.104 73.322C133.102 73.8496 133.013 74.3732 132.839 74.8715C132.676 75.7787 132.493 76.6859 132.329 77.5932L131.422 77.4301C131.661 76.3549 131.689 75.2436 131.504 74.1579C131.048 71.9514 130.326 69.8086 129.353 67.7766C128.017 61.9763 124.592 57.3076 120.178 53.3218C115.591 49.2443 109.913 46.9405 103.868 45.6663C100.668 44.9833 97.4871 44.1576 94.3066 43.3625C92.5423 42.7841 90.7492 42.2976 88.9345 41.9048L87.9151 41.7519C88.828 41.4863 89.7861 41.4134 90.7286 41.5378C89.1211 40.8407 87.3837 40.4932 85.6317 40.5184Z" fill="#4D3826"/>
<path d="M44.857 52.7524C43.9804 50.9889 44.6124 47.7065 36.9263 47.5026C39.2199 46.8604 41.4421 45.9124 43.7561 45.3415C47.538 44.4241 51.3709 43.7411 55.1731 42.9562C55.1731 43.1295 55.2445 43.3028 55.2853 43.4761C57.5381 43.0071 59.7909 42.5688 62.0336 42.0795C64.0606 41.4925 66.1197 41.0228 68.2008 40.6728C71.0168 40.362 73.854 40.2904 76.682 40.4587C78.629 40.5912 80.5659 40.7849 82.5027 41.0092C80.5789 41.8119 78.861 43.0384 77.4771 44.5974C76.7507 45.2258 76.2792 46.0982 76.1515 47.0502C76.0238 48.0022 76.2488 48.968 76.784 49.7656C75.7034 49.6025 74.6229 49.4394 73.5423 49.2559C70.6269 48.7666 67.7421 48.2977 65.0509 50.0816C64.8518 50.1813 64.6387 50.2501 64.4189 50.2855C62.5127 50.6423 60.5962 50.9889 58.69 51.3661C53.8783 52.3248 49.202 53.8688 44.7653 55.9634C44.9916 55.4607 45.1162 54.9182 45.132 54.3671C45.1477 53.816 45.0543 53.2672 44.857 52.7524Z" fill="#F79221"/>
<path d="M126.406 86.0737C129.085 81.6771 130.309 76.5475 129.903 71.4151C129.813 70.189 129.625 68.9721 129.342 67.7759C130.319 69.8074 131.044 71.9503 131.503 74.1572C131.682 75.2549 131.644 76.3769 131.391 77.46C130.392 82.4447 126.406 88.4285 126.406 88.4285C126.406 87.6232 126.406 86.8586 126.406 86.1043V86.0737Z" fill="#4D3826"/>
<path d="M30.9012 104.342C25.1885 102.69 19.8433 99.9635 15.1518 96.3092C11.9208 93.6581 9.4572 90.1915 8.01611 86.2684C7.24138 84.2296 6.40549 82.2826 5.70212 80.254C4.38712 76.4212 4.54003 72.5068 5.0803 68.5618C5.7327 63.842 8.50541 60.4067 11.747 57.2263C14.2853 54.739 17.4454 53.2201 20.4831 51.4872C23.6162 49.7698 26.9287 48.4024 30.3609 47.4097L30.7584 48.429L27.527 49.6931C27.527 49.6931 28.0979 49.6931 28.9949 49.6931C24.1456 51.4341 19.5594 53.8352 15.3658 56.8287C11.4514 59.6116 8.37289 63.1795 7.3637 68.1234C6.45931 72.8273 6.81091 77.6865 8.38308 82.2112C8.40825 82.2962 8.44242 82.3782 8.48502 82.4559C9.43298 83.9757 10.2875 85.5519 11.0437 87.1756C12.5952 90.7129 15.1689 93.7056 18.4342 95.769C20.8269 97.4178 23.3615 98.8506 26.0081 100.05C27.3382 100.658 28.6993 101.196 30.0856 101.661C30.2284 101.997 30.3915 102.334 30.5546 102.68L45.8452 106.758L45.7739 107.278C43.205 106.911 40.677 106.258 38.1489 105.83C35.7046 105.484 33.2841 104.987 30.9012 104.342Z" fill="#4D3826"/>
<path d="M38.0058 61.5022C38.2002 62.7627 38.7007 63.9562 39.4635 64.9783C40.7683 66.8539 42.909 67.6593 44.9886 68.1587C45.3148 68.2403 45.6308 68.3117 46.0079 68.3728C41.2169 70.2077 20.391 79.7083 30.1158 101.676C28.7295 101.211 27.3684 100.673 26.0383 100.065C23.3917 98.8655 20.8571 97.4327 18.4643 95.7839C15.1991 93.7205 12.6253 90.7279 11.0738 87.1905C10.3176 85.5668 9.46317 83.9906 8.51521 82.4708C8.47261 82.3931 8.43844 82.3111 8.41327 82.2262C6.8411 77.7015 6.48949 72.8423 7.39389 68.1384C8.41327 63.1944 11.4714 59.6266 15.396 56.8437C19.5896 53.8502 24.1758 51.449 29.0251 49.708C31.2779 49.8303 35.5593 50.2483 37.751 51.7468C38.8211 52.4592 39.6274 53.5037 40.0455 54.7195C40.4636 55.9352 40.4705 57.2547 40.065 58.4747C39.8154 58.6603 39.5834 58.8685 39.3718 59.0965C38.7398 59.7591 37.9345 60.7377 38.0058 61.5022Z" fill="#F79221"/>
</g>
<g filter="url(#filter1_d)">
<path d="M476.018 72.6447C476.134 73.2714 476.01 73.9188 475.672 74.4587C474.64 75.4487 473.595 76.4388 471.947 76.5357C467.897 76.7227 463.853 77.1865 459.803 77.325C454.956 77.4912 450.048 77.4566 445.167 77.4843C443.581 77.4843 441.996 77.4081 440.41 77.4012C440.105 77.4012 439.635 77.4012 439.51 77.6089C438.582 78.9936 437.495 78.1558 436.464 77.8651C435.432 77.5743 434.56 77.1727 433.577 76.9511C432.971 76.8868 432.361 76.8868 431.756 76.9511C431.977 77.6435 432.109 78.2043 432.323 78.7097C432.967 80.2467 433.646 81.7699 434.317 83.2931C434.871 84.5532 434.456 85.1694 433.078 85.1071C430.053 84.9824 427.442 83.577 424.77 82.3377C422.485 81.2622 420.212 80.166 417.95 79.049C416.946 78.5505 415.991 77.9481 415.022 77.4012C415.235 79.0078 415.339 80.627 415.333 82.2476C415.215 84.0616 415.901 85.9517 414.883 87.7242C414.697 88.1067 414.411 88.4316 414.055 88.6645C413.699 88.8973 413.286 89.0294 412.861 89.0466C411.221 89.1685 409.595 88.6748 408.299 87.6618C404.228 84.6778 401.625 80.5929 399.471 76.1549C399.333 75.8892 399.101 75.6843 398.82 75.5803C398.578 76.6396 398.294 77.692 398.128 78.7651C397.803 80.6345 397.553 82.5246 397.249 84.4009C396.923 86.3879 396.619 88.3819 396.203 90.3482C396.072 90.999 395.76 91.9475 395.303 92.1137C394.376 92.446 393.226 92.4737 392.534 91.4629C391.308 89.642 389.917 87.8765 389.038 85.924C387.736 82.9954 386.815 79.9006 385.728 76.875C385.652 76.6604 385.534 76.4527 385.306 75.9818C384.613 77.1035 383.99 78.0174 383.478 78.9867C382.433 80.9668 381.484 83.0092 380.425 84.9824C379.732 86.3048 378.721 87.2603 377.018 87.0595C376.383 86.9965 375.783 86.7384 375.301 86.3206C374.819 85.9027 374.478 85.3458 374.325 84.7263C373.176 81.4307 372.068 78.1143 370.905 74.6941C370.706 74.8467 370.517 75.0109 370.337 75.1856C366.338 79.9362 362.805 85.0601 359.786 90.4866C359.543 90.9983 359.139 91.4165 358.636 91.6775C357.888 91.9164 357.089 91.9499 356.324 91.7744C356.054 91.7052 355.929 90.7567 355.881 90.1959C355.583 86.4987 355.334 82.8015 355.05 79.1182C354.974 78.0658 354.835 77.0412 354.711 75.9611C354.655 75.5318 354.558 75.1095 354.399 74.2648C353.451 75.3795 352.703 76.1965 352.017 77.0688C350.155 79.4436 348.3 81.8184 346.479 84.2416C346.154 84.6634 345.719 84.987 345.221 85.1764C344.724 85.3658 344.184 85.4137 343.661 85.3148C342.74 85.2317 342.449 84.5186 342.477 83.7224C342.574 81.1607 342.712 78.5989 342.865 76.0372C342.934 74.8672 343.058 73.6971 343.183 72.3124C340.116 73.7802 337.229 75.158 334.349 76.5565C332.112 77.6366 329.931 78.8482 327.633 79.769C326.536 80.0838 325.389 80.1872 324.254 80.0737C323.794 79.9689 323.393 79.6912 323.132 79.2982C323.029 79.1736 323.306 78.6059 323.527 78.3843C326.966 74.6918 330.428 70.9992 333.912 67.3067L335.899 65.2296C333.289 65.8666 331.053 66.4412 328.741 66.9743C325.417 67.7498 322.094 68.5091 318.771 69.2522C318.422 69.3793 318.043 69.3986 317.684 69.3076C317.162 68.9848 316.669 68.6189 316.209 68.2137C316.523 67.83 316.878 67.4817 317.268 67.1751C318.923 66.1504 320.592 65.0981 322.309 64.1911C325.985 62.1763 329.703 60.2308 333.386 58.2507C333.843 58.0015 334.286 57.7176 335.027 57.2745C334.369 57.0737 333.982 56.9145 333.587 56.8383C330.471 56.2221 327.356 55.6336 324.247 55.0243C321.442 54.5097 318.73 53.5761 316.202 52.2549C315.683 51.9711 315.385 51.2856 314.977 50.7871C315.463 50.4253 315.996 50.1318 316.562 49.9148C319.012 49.3235 321.492 48.8613 323.991 48.5301C328.041 48.08 332.112 47.8377 336.176 47.5608C336.572 47.564 336.961 47.4637 337.305 47.27C336.433 46.82 335.519 46.4253 334.681 45.8853C331.628 44.0159 328.595 42.112 325.563 40.2149C325.394 40.1003 325.239 39.968 325.099 39.8203C324.586 39.3079 323.832 38.8579 323.659 38.2486C323.486 37.6394 325.431 36.3654 326.193 36.4485C327.93 36.6354 329.654 36.9124 331.392 37.1409C331.745 37.1893 332.085 37.2586 332.825 37.3901C332.431 35.1677 332.05 33.1529 331.718 31.1589C331.635 30.6812 331.545 29.8435 331.718 29.7742C331.984 29.6192 332.279 29.5203 332.585 29.4833C332.891 29.4464 333.201 29.4724 333.497 29.5596C335.069 30.4458 336.53 31.5328 338.032 32.5367L344.305 36.6908L344.554 36.5316C343.862 34.5515 343.204 32.5575 342.477 30.612C341.618 28.4241 340.621 26.2917 339.756 24.1039C339.458 23.3423 339.957 22.8507 340.691 22.7192C341.013 22.664 341.345 22.7125 341.639 22.8576C345.606 24.8931 350.03 25.0316 354.275 25.9178C354.711 26.0078 355.154 26.0909 355.59 26.1948C356.94 26.5063 356.975 26.4025 357.106 25.0593C357.452 20.379 357.84 15.7033 358.269 11.0322C358.311 10.5753 358.719 10.1529 359.1 9.4606V8.43591C359.647 8.43591 360.326 8.22821 360.713 8.47745C361.638 9.05091 362.47 9.76311 363.178 10.5891C365.428 13.3585 367.595 16.128 369.762 18.9389C370.296 19.6313 370.725 20.4136 371.431 21.5075C371.95 19.7282 372.421 18.3158 372.816 16.8757C373.771 13.1647 374.644 9.4329 375.634 5.73574C375.896 4.83107 376.32 3.98175 376.887 3.22942C377.268 2.69631 378.029 1.98318 378.493 2.06627C378.869 2.16026 379.221 2.33206 379.526 2.57058C379.831 2.8091 380.083 3.10903 380.265 3.45097C381.318 5.72881 382.135 8.11743 383.118 10.4368C383.81 12.0431 384.6 13.5939 385.444 15.3871C386.697 14.0024 387.757 12.7008 388.906 11.51C392.472 7.81972 396.044 4.14333 399.686 0.529243C399.941 0.354917 400.231 0.238555 400.536 0.188321C400.841 0.138088 401.154 0.155199 401.451 0.238455C401.689 0.34741 401.896 0.514025 402.053 0.723186C402.211 0.932347 402.313 1.17744 402.351 1.43623C402.4 3.79023 402.351 6.15115 402.241 8.49822C402.102 11.143 401.839 13.7809 401.611 16.4187C401.535 17.2634 401.41 18.1012 401.278 19.1328C402.13 18.7312 402.892 18.4404 403.625 18.0181C409.49 14.8956 415.333 11.7523 421.211 8.66439C421.86 8.3616 422.573 8.21914 423.288 8.24898C424.721 8.24898 425.192 9.1075 424.514 10.326C422.928 13.1993 421.308 16.0587 419.667 18.9251C419.273 19.6174 418.85 20.3098 418.352 21.1544C421.343 20.2059 424.181 19.3751 426.972 18.385C431.271 16.8965 435.536 15.2902 439.835 13.7809C440.381 13.6292 440.953 13.5984 441.511 13.6909C442.446 13.7947 442.861 14.4802 442.335 15.221C440.348 18.0458 438.278 20.829 436.228 23.6192C435.411 24.7201 434.601 25.8278 433.729 26.8871C432.42 28.4588 430.101 31.9205 428.716 33.6929C429.065 33.6139 429.409 33.5169 429.748 33.4022C432.746 32.3498 435.681 31.1243 438.693 30.1481C440.902 29.4557 443.193 28.9919 445.457 28.4795C446.061 28.3713 446.677 28.3526 447.285 28.4241C448.628 28.5418 448.885 28.9365 448.282 30.1619C445.734 35.3061 443.436 40.5888 440.05 45.2829C439.87 45.5391 439.725 45.823 439.358 46.4322C441.13 46.4322 442.646 46.3976 444.163 46.4322C448.891 46.5569 453.627 46.6884 458.363 46.8615C459.22 46.8891 460.069 47.0407 460.883 47.3115C461.347 47.4777 461.672 48.0039 462.067 48.3985C461.735 48.7032 461.458 49.1393 461.07 49.2917C457.377 50.7548 453.671 52.1857 449.951 53.5842C448.441 54.1589 446.911 54.6643 445.056 55.322C445.87 55.7857 446.709 56.2041 447.569 56.5752C449.951 57.3991 452.353 58.1745 454.756 58.9361C457.034 59.67 459.353 60.3208 461.61 61.1101C462.198 61.3247 462.621 62.0171 463.126 62.4948C462.662 62.9587 462.275 63.658 461.742 63.8795C460.317 64.3225 458.87 64.6922 457.407 64.9873C457.11 65.0565 456.805 65.0704 456.3 65.1465C459.105 66.9571 462.242 68.1926 465.529 68.7814C468.354 69.3907 471.151 70.1038 473.941 70.8584C474.848 71.1077 475.9 71.4608 476.018 72.6447ZM472.556 73.9048C472.819 73.8356 473.193 73.2955 473.131 73.1155C473.055 72.9368 472.942 72.7761 472.8 72.6437C472.659 72.5113 472.49 72.4102 472.307 72.347C469.62 71.6962 466.941 71.0385 464.227 70.533C461.281 70.0633 458.457 69.0138 455.919 67.4451C452.798 65.4026 449.115 64.3904 445.388 64.5511C444.473 64.6199 443.563 64.7377 442.66 64.9042C442.764 65.1812 442.778 65.2781 442.826 65.3196C442.979 65.4581 443.152 65.5689 443.311 65.6935C445.513 67.5005 447.798 69.2453 448.954 71.98C449.092 72.4486 449.173 72.9321 449.196 73.4202C448.692 73.5738 448.163 73.6302 447.638 73.5863C444.71 72.6309 441.816 71.5508 438.894 70.5884C437.322 70.0692 435.709 69.7022 434.124 69.2591L433.812 69.6191C434.587 70.713 435.356 71.8208 436.152 72.9009C437.094 74.1679 438.015 75.3241 439.905 75.3241C444.917 75.3241 449.923 75.608 454.936 75.5941C459.166 75.5941 463.403 75.4003 467.627 75.0956C469.312 74.8722 470.971 74.4779 472.577 73.9186L472.556 73.9048ZM380.259 13.7186L379.919 13.4555C379.864 15.4287 378.479 15.4702 377.094 15.4979C377.094 15.6018 377.094 15.7056 377.094 15.8095C377.787 16.2457 378.424 16.6818 379.172 17.1942L380.259 13.7186Z" fill="#4D3826"/>
<path d="M473.15 73.1176C473.212 73.2976 472.838 73.8099 472.575 73.9069C470.972 74.4703 469.316 74.8693 467.632 75.0977C463.409 75.4023 459.171 75.5824 454.941 75.5962C449.928 75.5962 444.923 75.3331 439.91 75.3262C438.02 75.3262 437.099 74.17 436.158 72.903C435.361 71.8229 434.593 70.7151 433.817 69.6212L434.129 69.2612C435.714 69.7043 437.328 70.0712 438.899 70.5905C441.821 71.5529 444.715 72.6329 447.644 73.5884C448.169 73.6323 448.697 73.5759 449.201 73.4222C449.179 72.9342 449.097 72.4507 448.959 71.9821C447.803 69.2473 445.497 67.5026 443.316 65.6956C443.157 65.5709 442.984 65.4602 442.832 65.3217C442.783 65.2802 442.77 65.1832 442.666 64.9063C443.568 64.7398 444.479 64.6219 445.394 64.5532C449.12 64.3925 452.803 65.4047 455.924 67.4472C458.462 69.0158 461.286 70.0654 464.232 70.5351C466.946 71.0405 469.626 71.6983 472.312 72.3491C472.498 72.4106 472.669 72.5109 472.814 72.6434C472.958 72.7759 473.073 72.9375 473.15 73.1176ZM470.526 73.8099C470.325 73.4845 470.194 72.9722 469.91 72.8614C468.785 72.4187 467.627 72.0623 466.448 71.7952C466.247 71.7876 466.048 71.8321 465.87 71.9243C465.691 72.0165 465.54 72.1533 465.43 72.3214C465.4 72.5261 465.422 72.7352 465.494 72.9291C465.567 73.1229 465.688 73.295 465.846 73.4291C466.794 73.9276 467.833 74.2738 468.954 74.7238L470.526 73.8099Z" fill="#C8A468"/>
<path d="M469.911 72.8351C470.195 72.9459 470.326 73.4582 470.527 73.7836L468.976 74.6976C467.855 74.2475 466.816 73.9013 465.868 73.4029C465.71 73.2687 465.589 73.0966 465.517 72.9028C465.444 72.709 465.422 72.4998 465.452 72.2951C465.562 72.127 465.714 71.9902 465.892 71.898C466.07 71.8058 466.269 71.7613 466.47 71.7689C467.642 72.037 468.793 72.3934 469.911 72.8351Z" fill="#4D3826"/>
<path d="M379.918 13.4551L380.258 13.7182L379.15 17.1799C378.388 16.6676 377.724 16.2314 377.073 15.7952C377.073 15.6914 377.073 15.5875 377.073 15.4837C378.478 15.4698 379.863 15.4283 379.918 13.4551Z" fill="#4D3826"/>
</g>
<defs>
<filter id="filter0_d" x="0.684082" y="37.9321" width="136.42" height="77.8461" filterUnits="userSpaceOnUse" color-interpolation-filters="sRGB">
<feFlood flood-opacity="0" result="BackgroundImageFix"/>
<feColorMatrix in="SourceAlpha" type="matrix" values="0 0 0 0 0 0 0 0 0 0 0 0 0 0 0 0 0 0 127 0"/>
<feOffset dy="4"/>
<feGaussianBlur stdDeviation="2"/>
<feColorMatrix type="matrix" values="0 0 0 0 0 0 0 0 0 0 0 0 0 0 0 0 0 0 0.25 0"/>
<feBlend mode="normal" in2="BackgroundImageFix" result="effect1_dropShadow"/>
<feBlend mode="normal" in="SourceGraphic" in2="effect1_dropShadow" result="shape"/>
</filter>
<filter id="filter1_d" x="310.977" y="0.160156" width="169.084" height="100.16" filterUnits="userSpaceOnUse" color-interpolation-filters="sRGB">
<feFlood flood-opacity="0" result="BackgroundImageFix"/>
<feColorMatrix in="SourceAlpha" type="matrix" values="0 0 0 0 0 0 0 0 0 0 0 0 0 0 0 0 0 0 127 0"/>
<feOffset dy="4"/>
<feGaussianBlur stdDeviation="2"/>
<feColorMatrix type="matrix" values="0 0 0 0 0 0 0 0 0 0 0 0 0 0 0 0 0 0 0.25 0"/>
<feBlend mode="normal" in2="BackgroundImageFix" result="effect1_dropShadow"/>
<feBlend mode="normal" in="SourceGraphic" in2="effect1_dropShadow" result="shape"/>
</filter>
</defs>
</svg>
