<svg width="323" height="154" viewBox="0 0 323 154" fill="none" xmlns="http://www.w3.org/2000/svg">
<g filter="url(#filter0_d)">
<path d="M201.214 46.4832C201.426 46.6708 201.588 46.9091 201.684 47.1759C201.779 47.4428 201.806 47.7295 201.761 48.0094C200.921 50.2095 199.929 52.3588 198.823 54.8896C197.602 54.0829 196.453 53.1723 195.389 52.1681C191.691 48.082 188.327 43.7058 185.329 39.0815C182.107 34.1455 178.139 29.7394 173.565 26.0204C165.617 19.4454 155.862 16.6729 146.795 12.3998C141.212 9.78953 134.988 8.86574 128.888 9.74178C124.501 10.2759 120.215 11.6749 117.264 15.5919C111.345 23.5924 107.027 32.6609 104.546 42.2991C102.817 48.658 104.686 54.3555 108.158 59.7987C111.63 65.2419 117.315 67.7218 123.013 69.515C126.874 70.5089 130.667 71.7493 134.37 73.2286C135.267 73.6092 136.231 73.8053 137.206 73.8053C138.18 73.8053 139.145 73.6092 140.042 73.2286C141.021 72.9234 142.013 72.6945 142.992 72.4274C141.274 75.2169 138.719 77.3932 135.692 78.6463C131.101 80.3378 126.79 78.9643 122.555 77.1329C116.895 74.6911 112.737 70.418 108.807 65.9159C106.399 63.4354 104.306 60.6675 102.575 57.6748C100.025 52.3346 99.0209 46.3874 99.6756 40.5059C100.35 32.0741 102.219 23.9729 106.48 16.6984C109.315 12.1056 113.418 8.43085 118.294 6.11723C121.389 4.35865 124.761 3.14145 128.265 2.51812C133.635 2.01277 139.052 2.41258 144.289 3.70087C147.469 4.36219 150.763 4.61654 153.891 5.43047C156.81 6.22311 159.656 7.26119 162.399 8.53359C170.831 12.3489 177.343 18.5043 183.053 25.5626C185.52 28.6149 187.606 31.9215 189.959 35.1263C193.214 39.4122 196.33 43.8252 201.214 46.4832Z" fill="#FF8888"/>
<path d="M272.458 51.1761C272.814 51.5449 272.573 52.5878 272.458 53.2999C272.18 54.5524 272.043 55.8322 272.051 57.1153C271.441 58.5396 268.567 59.3027 271.136 61.6809C268.02 64.0464 270.805 66.768 270.589 69.3116L265.247 70.8504C266.189 71.8424 266.684 72.2875 267.091 72.7962C267.374 73.1136 267.58 73.4921 267.693 73.9021C267.805 74.3121 267.821 74.7425 267.74 75.1599C267.659 75.5772 267.482 75.9701 267.224 76.308C266.966 76.6458 266.633 76.9194 266.252 77.1075C265.972 77.3629 265.751 77.676 265.604 78.0251C265.457 78.3742 265.387 78.751 265.4 79.1296C265.52 80.2533 265.771 81.3589 266.15 82.4235C266.481 83.5808 265.947 84.0641 265.222 84.967C264.069 86.5452 263.462 88.4561 263.492 90.4102C263.492 92.3433 264.637 94.2255 265.451 96.6928C263.136 96.2095 260.949 95.917 258.876 95.2938C253.883 94.0455 249.244 91.6652 245.319 88.3372C244.263 87.3707 242.228 87.5742 240.868 86.8366C238.171 85.3613 235.615 83.6571 233.059 81.953C228.417 78.8626 223.775 75.7594 219.209 72.5419C213.499 68.5231 207.852 64.3771 202.193 60.2693C201.858 59.9961 201.621 59.621 201.519 59.201C200.718 55.7417 203.35 49.3702 206.403 47.5643C206.719 47.4225 207.061 47.3492 207.407 47.3492C207.754 47.3492 208.096 47.4225 208.412 47.5643C219.247 52.9693 230.236 52.7785 241.364 48.6453C242.406 48.251 243.475 47.9076 244.53 47.5515L244.759 48.0221C243.004 48.836 241.198 49.5864 239.507 50.5656C238.909 50.8836 238.553 51.6594 238.082 52.2317C238.807 52.3588 239.672 52.804 240.232 52.5496C243.92 50.9726 247.544 49.2557 251.182 47.5515C251.512 47.4117 252.021 47.0301 251.983 46.8266C251.601 44.512 253.789 44.3594 254.87 43.9906C258.774 42.7188 262.818 41.8413 266.824 40.8112L267.257 41.2944C266.901 42.0448 266.519 42.7824 266.201 43.5455C265.731 44.7028 265.451 45.504 267.028 46.4451C269.038 47.7761 270.864 49.3669 272.458 51.1761ZM250.406 88.3372C249.999 87.8794 249.694 87.2435 249.198 86.9892C246.234 85.4758 243.233 84.0387 240.232 82.6016C239.621 82.309 238.96 82.131 238.171 81.8512C237.904 82.0801 237.268 82.4871 237.319 82.6016C237.561 83.1739 237.866 83.8733 238.349 84.1404C241.681 85.7428 245.039 87.2817 248.447 88.7188C248.956 88.9095 249.745 88.4517 250.406 88.3372ZM216.539 55.8562L215.699 55.729C215.178 57.3442 214.618 58.9466 214.16 60.5872C214.071 60.9051 214.364 61.3248 214.491 61.6936C214.745 61.5919 215.19 61.541 215.229 61.3884C215.699 59.5443 216.106 57.7003 216.539 55.8562ZM206.848 59.9386C209.2 59.5443 211.159 56.5048 210.536 54.4573C207.852 55.4365 208.183 57.9801 206.848 59.9386Z" fill="#C8A468"/>
<path d="M351.715 35.6477C347.683 35.8767 343.817 36.4362 339.926 36.6652C338.794 36.7415 337.382 37.9369 336.492 36.2073C337.523 35.6826 338.617 35.2936 339.748 35.05C345.013 34.5031 350.278 34.0962 356.281 33.5875C353.139 31.5908 350.596 29.9502 348.027 28.3351C342.558 24.9267 337.115 21.5056 331.608 18.1609C330.422 17.5984 329.176 17.1718 327.895 16.8891C328.035 15.1722 328.085 15.3884 330.311 14.9052C332 14.3635 333.628 13.6474 335.169 12.7686C335.106 12.5651 335.042 12.3616 334.991 12.1581C331.887 12.5559 328.805 13.112 325.758 13.8242C320.671 15.2104 315.584 16.9018 310.624 18.5424C309.721 18.8349 308.971 19.6107 308.08 19.9795C307.323 20.2088 306.542 20.3538 305.753 20.4119C305.888 19.5435 306.181 18.7072 306.618 17.9447C309.047 15.2358 311.705 12.6923 314.109 10.0216C315.648 8.35694 316.992 6.52221 318.115 4.55294L305.397 12.1836C302.421 13.9895 299.343 15.6428 296.495 17.6649C294.104 19.3564 292.056 21.4802 289.78 23.3624C289.114 23.7133 288.39 23.9416 287.643 24.0365C287.516 23.3941 287.516 22.733 287.643 22.0907C289.233 18.517 290.924 14.9942 292.565 11.4968C286.537 14.5745 273.615 30.8659 271.352 38.6237C272.903 38.4329 274.34 38.2167 275.79 38.0768C276.361 37.9537 276.955 37.9889 277.507 38.1786C278.041 38.4838 278.346 39.1578 278.779 39.6538C278.194 39.9845 277.622 40.5313 277.024 40.5695C275.231 40.6967 273.437 40.5695 272.217 40.5695L270.563 45.3514L269.38 45.9364C270.538 46.7503 271.657 47.6278 272.852 48.3782C275.625 50.1205 275.93 50.9217 274.964 54.1393C274.722 54.8262 274.686 55.569 274.862 56.2759C275.625 58.6286 275.625 58.8194 273.59 60.3074C274.785 61.7954 274.569 62.9908 272.98 64.2499C272.458 64.6696 272.636 66.1957 272.763 67.1749C273.031 68.2806 273.392 69.3614 273.844 70.4053L270.474 71.8805C270.474 73.4321 270.576 75.0854 270.474 76.7005C270.45 77.0758 270.346 77.4415 270.168 77.7729C269.991 78.1042 269.744 78.3935 269.444 78.6209C267.625 79.3967 268.007 80.6303 268.452 81.9529C269.457 84.9925 269.469 84.9925 267.511 87.04C267.079 88.032 266.633 89.0113 266.239 90.0287C266.117 90.3664 266.082 90.7294 266.137 91.0843C266.252 91.6057 266.519 92.0762 266.684 92.5849C268.299 97.4558 268.299 97.4558 274.022 97.5576C273.908 96.2858 273.73 95.2938 273.73 94.251C273.73 93.6532 273.87 92.7121 274.239 92.5341C274.549 92.4413 274.877 92.4241 275.196 92.4838C275.514 92.5435 275.814 92.6785 276.07 92.8774C279.326 96.1332 282.607 99.3635 285.646 102.81C288.686 106.256 291.166 109.614 293.887 113.06C295.259 114.928 296.741 116.711 298.326 118.402C298.097 112.348 297.512 106.473 294.078 101.309C293.926 101.139 293.802 100.946 293.709 100.737C293.531 99.9739 293.404 99.2109 293.264 98.4478C293.951 98.7149 294.854 98.8039 295.312 99.2999C301.06 105.659 308.03 110.453 314.884 115.477C317.225 117.206 319.552 118.987 321.879 120.742L322.515 120.36C322.241 118.944 321.849 117.553 321.345 116.202C319.399 112.018 317.364 107.859 315.215 103.764C314.681 102.734 313.536 102.021 312.773 101.093C312.448 100.591 312.192 100.048 312.01 99.4779C312.626 99.3456 313.264 99.3456 313.88 99.4779C314.92 99.9305 315.902 100.507 316.805 101.195C323.127 105.783 330.034 109.504 337.344 112.259C339.939 113.437 342.612 114.435 345.343 115.248C344.72 114.294 344.135 113.315 343.499 112.374C340.829 108.431 338.132 104.514 335.5 100.546C335.336 100.315 335.226 100.049 335.18 99.7694C335.134 99.4896 335.152 99.2029 335.233 98.9311C335.411 98.6719 335.648 98.4585 335.924 98.3082C336.2 98.1579 336.508 98.075 336.823 98.0663C337.997 98.2984 339.124 98.7284 340.155 99.338C342.698 100.877 345.051 102.619 347.569 104.145C348.589 104.565 349.657 104.856 350.748 105.01C350.748 105.392 351.41 105.799 351.753 106.282V107.554C351.661 107.726 351.546 107.884 351.41 108.024C351.346 108.088 351.537 108.457 351.753 108.736C351.806 108.81 351.866 108.878 351.931 108.94C358.29 114.943 361.062 122.929 364.305 130.713C365.819 134.337 367.129 138.063 368.477 141.764C368.595 142.363 368.629 142.975 368.579 143.583C367.972 143.614 367.365 143.537 366.785 143.354C358.118 138.913 350.266 133.035 343.563 125.969C343.143 125.524 342.8 125.028 342.418 124.557C342.037 124.087 341.668 123.667 341.426 123.375C341.426 127.635 341.363 131.946 341.426 136.258C341.49 139.386 339.468 141.345 336.555 140.365C327.653 137.275 319.704 132.887 314.058 125.015C312.875 123.375 311.362 121.963 309.632 120.03C308.36 123.731 307.088 127.012 306.046 130.382C304.774 134.706 303.693 139.106 302.434 143.456C302.323 143.797 302.146 144.114 301.912 144.387C301.679 144.659 301.393 144.883 301.073 145.045C300.742 145.185 299.878 144.6 299.534 144.13C293.29 135.393 288.661 125.765 284.4 115.935C282.302 111.076 280.33 106.155 278.156 101.335C277.85 100.661 276.693 100.381 275.409 99.6051C275.409 103.306 275.485 106.206 275.409 109.105C275.344 109.48 275.197 109.836 274.977 110.146C274.756 110.457 274.469 110.714 274.137 110.898C273.794 111.076 272.7 110.504 272.433 110.008C271.001 107.434 269.727 104.775 268.617 102.047C268.274 100.937 267.591 99.9636 266.665 99.263C265.738 98.5625 264.615 98.1706 263.454 98.1426C257.527 97.6801 251.858 95.5211 247.124 91.9236C245.484 90.6518 243.309 90.2194 241.452 89.1512C237.879 87.0782 234.369 84.8653 230.884 82.627C226.051 79.5366 221.244 76.3826 216.437 73.2286C212.469 70.6342 208.509 68.0228 204.558 65.3945C203.028 64.5004 201.569 63.4884 200.196 62.3677C199.468 61.5907 199.056 60.5706 199.039 59.5062C199.039 58.0309 198.136 57.5349 197.258 56.6828C194.278 53.8886 191.471 50.9157 188.852 47.7804C184.528 42.439 180.674 36.7287 176.287 31.4509C171.899 26.173 165.731 22.6502 159.372 19.8905C154.514 17.7794 149.452 16.0752 144.632 13.9132C141.565 12.403 138.166 11.69 134.751 11.8402C129.918 12.1073 125.073 12.3489 121.054 15.541C119.992 16.2711 119.052 17.1638 118.269 18.1863C113.767 25.0285 109.684 32.0613 107.331 39.9972C105.668 44.8968 105.817 50.2304 107.751 55.0295C108.616 57.3327 109.955 59.4285 111.681 61.1812C113.407 62.9339 115.483 64.3043 117.773 65.2037C121.702 66.6662 125.721 67.8999 129.689 69.2734C130.851 69.818 132.045 70.2936 133.263 70.6977C135.053 71.1009 136.884 71.2972 138.719 71.2828C140.588 71.2828 142.432 70.5324 144.302 70.507C145.281 70.507 147.062 71.2192 147.1 71.7788C147.115 72.3635 147.01 72.9452 146.791 73.4877C146.572 74.0302 146.244 74.5221 145.828 74.9327C143.878 76.5856 141.817 78.1026 139.66 79.473C134.942 82.6778 129.969 82.1564 124.882 80.4777C116.437 77.6798 110.791 71.3209 105.118 65.0129C98.111 57.2043 96.3306 47.9839 97.7168 37.8861C98.7088 30.5607 100.146 23.4006 103.885 16.8764C107.395 10.7846 112.609 6.70223 118.777 3.62455C125.182 0.378167 132.521 -0.52181 139.52 1.081C144.696 2.16201 150.063 2.4418 155.15 3.82803C162.326 5.83535 168.968 9.41017 174.595 14.2947C181.45 20.1067 186.525 27.2795 191.739 34.465C194.906 38.8145 198.835 42.6043 202.358 46.585C202.905 46.267 203.121 46.2162 203.147 46.1144C203.948 43.3928 204.622 43.2529 207.305 44.4611C210.708 46.0972 214.233 47.4664 217.848 48.5562C225.721 50.7055 233.504 49.6118 241.096 46.9665C246.183 45.1987 251.067 42.9986 256.167 41.3834C259.766 40.2388 263.581 39.8191 267.269 38.9162C268.238 38.6594 269.09 38.0809 269.686 37.2756C272.852 32.5446 275.866 27.7119 278.957 22.9428C282.709 17.1214 287.671 12.1765 293.506 8.44456C293.875 8.20292 294.167 7.79596 294.549 7.57975C294.93 7.36355 295.719 7.00746 296.304 6.72767C296.406 7.52889 296.863 8.52087 296.558 9.10588C294.867 12.2472 292.997 15.2994 291.471 18.6314C295.083 16.4949 298.733 14.3964 302.319 12.209C307.678 8.92783 313.015 5.60851 318.331 2.25104C319.221 1.69146 319.972 0.890239 320.874 0.38153C321.495 0.154687 322.147 0.0259655 322.808 0C322.808 0.648603 323.036 1.51341 322.719 1.93309C320.226 5.08708 317.682 8.18596 315.088 11.2297C313.665 12.6835 312.388 14.2722 311.273 15.9734C312.068 15.8524 312.854 15.6782 313.625 15.452C322.032 12.3998 330.858 11.3442 339.633 10.047C340.066 9.9834 340.574 10.5175 341.045 10.7719C340.752 11.1407 340.536 11.6494 340.142 11.8402C337.471 13.2391 334.775 14.5618 331.952 15.9734C333.936 17.3342 335.767 18.6823 337.738 19.9159C345.089 24.5706 352.478 29.1744 359.816 33.9054C360.363 34.2488 360.643 35.0246 361.279 35.9275C358.109 35.5029 354.904 35.4091 351.715 35.6477ZM365.704 140.76C361.889 129.937 359.524 118.542 350.888 110.237C350.354 109.728 350.329 108.711 350.011 107.795L337.764 99.9103C339.188 102.715 340.776 105.433 342.52 108.05C344.415 110.86 346.488 113.569 348.396 116.38C348.714 116.825 348.599 117.575 348.675 118.186C348.07 118.293 347.45 118.293 346.844 118.186C344.3 117.194 341.757 116.1 339.213 115.032C339.714 117.361 340.702 119.559 342.113 121.48C346.572 127.027 351.801 131.91 357.641 135.978C360.249 137.682 362.996 139.208 365.679 140.76H365.704ZM339.531 136.105C339.718 134.522 339.79 132.929 339.748 131.336C339.608 126.249 340.816 120.742 335.5 117.003L335.983 116.558L338.247 117.105C338.171 114.726 336.695 113.734 334.724 112.946C331.333 111.572 328.022 110.068 324.792 108.431C322.413 107.236 320.188 105.748 317.81 104.336C319.921 109.105 322.032 113.607 323.863 118.211C324.216 119.701 324.348 121.235 324.257 122.764C322.831 122.554 321.445 122.125 320.15 121.492C317.186 119.419 314.261 117.27 311.349 115.133L305.333 110.657C302.79 108.749 300.246 106.841 297.41 104.629C299.242 109.856 300.933 114.803 300.552 120.055C300.401 120.76 300.144 121.438 299.788 122.065C299.153 121.759 298.313 121.632 297.919 121.149C295.503 118.262 293.252 115.222 290.81 112.348C288.025 109.08 285.087 105.989 282.251 102.734C281.348 101.704 280.534 100.597 279.707 99.5288C285.214 114.18 291.331 128.576 300.183 141.853C303.006 134.223 305.728 126.846 308.487 119.483C308.848 118.718 309.273 117.987 309.759 117.295C310.514 117.882 311.224 118.524 311.883 119.216C313.943 121.759 315.787 124.43 317.988 126.846C322.986 132.067 329.192 135.976 336.059 138.229C338.12 138.89 339.239 138.331 339.506 136.105H339.531ZM272.903 104.527L273.692 99.6178L269.482 99.1091L272.382 104.73L272.903 104.527ZM272.484 53.2999C272.598 52.5877 272.84 51.5449 272.484 51.1761C270.9 49.313 269.073 47.6705 267.053 46.2925C265.476 45.3514 265.781 44.5501 266.226 43.3928C266.544 42.6298 266.926 41.8921 267.282 41.1418L266.85 40.6585C262.844 41.6887 258.799 42.5407 254.895 43.838C253.814 44.2068 251.627 44.3594 252.008 46.674C252.008 46.8775 251.538 47.259 251.207 47.3989C247.57 49.1031 243.945 50.82 240.257 52.397C239.697 52.6513 238.833 52.2062 238.108 52.079C238.578 51.5067 238.934 50.7309 239.532 50.413C241.223 49.4846 243.029 48.7343 244.784 47.8695L244.555 47.3989C243.5 47.755 242.432 48.0984 241.389 48.4926C230.261 52.6259 219.273 52.8167 208.437 47.4116C208.121 47.2699 207.779 47.1966 207.432 47.1966C207.086 47.1966 206.744 47.2699 206.428 47.4116C203.376 49.2175 200.743 55.5891 201.544 59.0483C201.646 59.4684 201.883 59.8435 202.218 60.1166C207.878 64.2244 213.524 68.3704 219.235 72.3892C223.8 75.6068 228.442 78.7481 233.084 81.8003C235.628 83.5045 238.171 85.2087 240.893 86.6839C242.254 87.4215 244.288 87.2181 245.344 88.1846C249.262 91.54 253.901 93.9467 258.901 95.2175C260.974 95.8407 263.162 96.1332 265.476 96.6164C264.662 94.1874 263.556 92.267 263.518 90.3339C263.487 88.3797 264.094 86.4689 265.247 84.8907C265.972 83.975 266.519 83.4918 266.176 82.3472C265.797 81.2826 265.545 80.177 265.425 79.0533C265.413 78.6747 265.482 78.2978 265.629 77.9487C265.777 77.5996 265.998 77.2866 266.277 77.0312C266.659 76.8431 266.991 76.5695 267.249 76.2316C267.508 75.8938 267.684 75.5009 267.765 75.0835C267.847 74.6662 267.83 74.2357 267.718 73.8257C267.605 73.4157 267.4 73.0373 267.117 72.7199C266.71 72.2112 266.214 71.766 265.273 70.7741L270.614 69.2352C270.83 66.6154 268.071 63.9574 271.161 61.6046C268.617 59.2264 271.466 58.4633 272.077 57.0389C272.066 55.7824 272.194 54.5284 272.458 53.2999H272.484ZM201.76 48.0094C201.806 47.7295 201.779 47.4428 201.683 47.1759C201.588 46.909 201.426 46.6707 201.214 46.4832C196.33 43.8125 193.214 39.4122 190.009 35.1136C187.656 31.9596 185.571 28.6021 183.104 25.5499C177.393 18.4915 170.882 12.298 162.45 8.52087C159.706 7.24846 156.86 6.21038 153.942 5.41774C150.813 4.60381 147.519 4.34945 144.34 3.68813C139.102 2.39985 133.686 2.00004 128.316 2.50539C124.811 3.12872 121.439 4.34592 118.345 6.1045C113.469 8.41812 109.365 12.0928 106.53 16.6856C102.206 23.9729 100.4 32.0613 99.7262 40.4932C99.0715 46.3746 100.076 52.3219 102.626 57.6621C104.356 60.6548 106.449 63.4227 108.857 65.9032C112.787 70.4052 116.946 74.6784 122.605 77.1202C126.853 78.9515 131.152 80.3251 135.743 78.6336C138.77 77.3805 141.324 75.2042 143.043 72.4146C142.063 72.6817 141.071 72.9106 140.092 73.2159C139.195 73.5964 138.231 73.7926 137.256 73.7926C136.282 73.7926 135.317 73.5964 134.42 73.2159C130.718 71.7365 126.924 70.4961 123.063 69.5023C117.366 67.7091 111.744 65.3309 108.209 59.786C104.673 54.241 102.867 48.658 104.597 42.2864C107.077 32.6482 111.396 23.5797 117.315 15.5792C120.265 11.6621 124.551 10.2632 128.939 9.72905C135.039 8.85301 141.262 9.77679 146.845 12.387C155.913 16.6602 165.668 19.4327 173.616 26.0077C178.193 29.7421 182.162 34.1656 185.38 39.1197C188.378 43.7439 191.742 48.1201 195.44 52.2062C196.504 53.2105 197.653 54.1211 198.873 54.9278C199.929 52.3588 200.921 50.1841 201.76 48.0094Z" fill="#4D3826"/>
<path d="M351.715 35.6478V106.256C351.372 105.71 350.736 105.303 350.71 104.985C349.618 104.83 348.55 104.54 347.531 104.12C344.987 102.594 342.622 100.851 340.116 99.3126C339.086 98.703 337.959 98.2729 336.784 98.0409C336.47 98.0496 336.162 98.1325 335.886 98.2828C335.61 98.4331 335.373 98.6465 335.195 98.9056C335.114 99.1775 335.096 99.4642 335.142 99.744C335.188 100.024 335.298 100.289 335.462 100.521C338.094 104.489 340.79 108.406 343.461 112.348C344.097 113.289 344.733 114.269 345.305 115.222C342.574 114.41 339.901 113.411 337.306 112.234C329.996 109.479 323.088 105.758 316.767 101.169C315.864 100.482 314.882 99.9051 313.842 99.4525C313.225 99.3202 312.588 99.3202 311.972 99.4525C312.154 100.022 312.41 100.566 312.735 101.068C313.498 101.996 314.643 102.708 315.177 103.738C317.326 107.833 319.361 111.992 321.307 116.176C321.811 117.528 322.203 118.919 322.477 120.335L321.841 120.717C319.514 118.961 317.186 117.181 314.846 115.451C308.017 110.428 301.022 105.608 295.274 99.2745C294.816 98.7785 293.913 98.6895 293.226 98.4224C293.366 99.1854 293.493 99.9485 293.671 100.712C293.764 100.92 293.888 101.114 294.04 101.284C297.474 106.447 298.059 112.323 298.288 118.376C296.703 116.686 295.221 114.902 293.849 113.035C291.128 109.589 288.508 106.066 285.608 102.785C282.709 99.5034 279.249 96.1078 276.032 92.852C275.776 92.6531 275.476 92.5181 275.158 92.4584C274.839 92.3987 274.511 92.4159 274.2 92.5086C273.832 92.6867 273.704 93.6278 273.692 94.2255C273.692 95.2684 273.87 96.3112 273.984 97.5322C268.261 97.4304 268.261 97.4304 266.646 92.5595C266.481 92.0508 266.214 91.5802 266.099 91.0588C266.044 90.704 266.079 90.341 266.201 90.0033C266.595 88.9858 267.04 88.0066 267.473 87.0146C269.431 85.0306 269.419 85.0306 268.414 81.9275C267.969 80.6557 267.587 79.384 269.406 78.5955C269.705 78.368 269.952 78.0788 270.13 77.7475C270.308 77.4161 270.412 77.0504 270.436 76.6751C270.589 75.0599 270.436 73.4066 270.436 71.8551L273.806 70.3798C273.354 69.336 272.992 68.2552 272.725 67.1495C272.598 66.1703 272.42 64.606 272.941 64.2245C274.531 62.9527 274.747 61.7699 273.552 60.282C275.574 58.8067 275.574 58.6032 274.824 56.2504C274.648 55.5436 274.683 54.8008 274.925 54.1139C275.892 50.9472 275.587 50.0951 272.814 48.3527C271.619 47.6024 270.5 46.7249 269.342 45.9109L270.525 45.3259L272.153 40.5949C273.425 40.5949 275.167 40.6712 276.96 40.5949C277.558 40.5949 278.13 40.0099 278.715 39.6793C278.308 39.1833 278.003 38.5092 277.443 38.204C276.891 38.0143 276.297 37.9791 275.727 38.1023C274.277 38.2422 272.84 38.4584 271.288 38.6491C273.615 30.8659 286.537 14.5745 292.603 11.5477C290.962 15.0451 289.271 18.5679 287.681 22.1415C287.554 22.7839 287.554 23.445 287.681 24.0874C288.428 23.9925 289.152 23.7642 289.818 23.4133C292.094 21.5693 294.142 19.4072 296.533 17.7158C299.356 15.6937 302.434 14.0404 305.435 12.2344L318.153 4.60382C317.03 6.57309 315.686 8.40782 314.147 10.0724C311.692 12.7432 309.06 15.2867 306.656 17.9956C306.219 18.7581 305.926 19.5944 305.791 20.4628C306.581 20.4047 307.361 20.2597 308.119 20.0304C309.009 19.6616 309.759 18.8858 310.662 18.5933C315.584 16.9018 320.671 15.2104 325.758 13.8242C328.794 13.1389 331.863 12.6083 334.953 12.2344C334.953 12.4379 335.067 12.6414 335.131 12.8449C333.59 13.7237 331.962 14.4398 330.273 14.9815C328.047 15.4647 327.996 15.2485 327.856 16.9654C329.138 17.2481 330.384 17.6748 331.57 18.2372C337.077 21.5565 342.52 24.9776 347.989 28.4114C350.532 30.0265 353.076 31.6671 356.242 33.6638C350.24 34.1725 344.975 34.5795 339.709 35.1263C338.601 35.3751 337.528 35.764 336.517 36.2836C337.433 37.9751 338.819 36.8178 339.951 36.7415C343.817 36.4363 347.683 35.8767 351.715 35.6478Z" fill="#4D3826"/>
<path d="M339.748 131.336C339.79 132.929 339.718 134.523 339.531 136.105C339.264 138.331 338.145 138.89 336.047 138.14C329.18 135.887 322.973 131.978 317.975 126.757C315.775 124.379 313.931 121.67 311.87 119.127C311.211 118.435 310.501 117.793 309.747 117.206L311.349 115.044C314.261 117.206 317.186 119.356 320.15 121.403C321.445 122.036 322.831 122.465 324.257 122.675C324.349 121.146 324.216 119.612 323.863 118.122C322.032 113.518 319.921 109.016 317.81 104.247C320.188 105.659 322.413 107.147 324.792 108.342C328.047 109.987 331.358 111.492 334.724 112.857C336.695 113.646 338.171 114.638 338.247 117.016L335.983 116.469L335.5 116.914C340.791 120.742 339.582 126.223 339.748 131.336Z" fill="#4D3826"/>
<path d="M311.323 115.044L309.721 117.206C309.235 117.898 308.809 118.629 308.449 119.394C305.689 126.757 302.968 134.134 300.144 141.764C291.242 128.487 285.176 114.091 279.669 99.4398C280.521 100.508 281.335 101.615 282.212 102.645C285.049 105.862 287.986 109.004 290.772 112.259C293.213 115.133 295.464 118.173 297.881 121.06C298.275 121.543 299.152 121.67 299.75 121.976C300.105 121.349 300.363 120.671 300.513 119.966C300.895 114.676 299.241 109.792 297.372 104.54C300.221 106.702 302.739 108.66 305.295 110.568L311.323 115.044Z" fill="#4D3826"/>
<path d="M273.615 99.6178L272.827 104.527L272.305 104.73L269.406 99.1091L273.615 99.6178Z" fill="#4D3826"/>
<path d="M249.197 86.9638C249.693 87.2181 249.998 87.854 250.405 88.3118C249.744 88.4517 248.956 88.9096 248.447 88.6934C245.038 87.2563 241.681 85.7174 238.349 84.115C237.866 83.8861 237.56 83.1485 237.319 82.5762C237.319 82.4617 237.904 82.0547 238.171 81.8258C238.959 82.1056 239.621 82.2836 240.231 82.5762C243.233 84.0133 246.234 85.4504 249.197 86.9638Z" fill="#4D3826"/>
<path d="M215.699 55.729L216.539 55.8562C216.106 57.7002 215.699 59.5443 215.267 61.3884C215.267 61.541 214.784 61.5919 214.529 61.6936C214.402 61.3248 214.11 60.9051 214.199 60.5872C214.618 58.9466 215.178 57.3442 215.699 55.729Z" fill="#4D3826"/>
<path d="M210.536 54.4573C211.159 56.5048 209.2 59.5444 206.848 59.9386C208.183 57.9801 207.852 55.4365 210.536 54.4573Z" fill="#4D3826"/>
<path d="M175.88 50.8581C176.427 50.6674 177.152 50.9853 177.788 51.0743C177.405 51.631 176.947 52.1318 176.427 52.5623C175.74 52.8715 175.03 53.1266 174.303 53.3254C173.311 53.7324 170.666 52.9438 172.7 55.6146C173.184 56.2505 170.678 57.9801 169.19 57.6494C168.567 57.5095 167.919 56.4667 167.702 55.7163C167.612 54.7892 167.668 53.8537 167.868 52.9438L163.391 53.9867L163.124 53.1092L167.397 51.6466C166.507 50.3749 165.718 49.2048 164.93 48.0475C167.443 46.0647 170.488 44.8739 173.68 44.6265L174.01 45.2751L170.081 47.3735L170.348 47.7932L174.506 46.5214C173.781 49.065 168.783 49.1413 172.09 52.5242C173.323 51.9019 174.588 51.3457 175.88 50.8581Z" fill="#4D3826"/>
<path d="M159.156 25.8551C159.284 27.572 158.343 28.1189 156.74 27.4703C156.113 27.252 155.471 27.0778 154.82 26.9489C154.871 27.5625 154.871 28.1793 154.82 28.7929C154.668 29.3518 154.468 29.8964 154.222 30.4208C153.736 30.0637 153.307 29.6349 152.95 29.149C152.665 28.4618 152.439 27.7512 152.276 27.0252C152.276 26.9107 152.047 26.8598 151.666 26.6055L147.85 31.2983L147.011 30.6243L148.842 27.8264C147.8 27.4321 146.515 27.305 145.879 26.5546C145.561 26.1858 146.388 24.7869 146.731 23.7822L144.366 21.4675L144.785 21.1369C146.528 21.8109 148.257 22.4977 149.872 23.159C151.513 21.5566 152.073 19.0384 154.26 18.5552L154.832 19.2292C154.018 20.2593 153.217 21.3022 152.441 22.3069C154.756 24.8504 156.104 20.1449 158.088 21.5947L156.613 25.8551H159.156Z" fill="#4D3826"/>
<path d="M149.096 42.4644C151.64 43.2402 153.687 39.4376 156.905 41.7904C154.361 42.7315 152.416 43.4055 150.546 44.2322C149.974 44.4738 149.109 45.3513 149.198 45.5675C149.491 46.2289 150.126 47.0682 150.737 47.1827C152.848 47.5642 153.217 49.0903 153.649 50.8581C151.309 51.4558 151.436 49.3828 150.813 48.5053C149.697 49.722 148.499 50.8607 147.227 51.9137C146.947 52.1172 145.891 51.2778 144.912 50.7691L142.954 51.7738C144.073 49.5227 144.938 47.7931 145.93 45.7837L143.132 46.0762C143.055 45.8855 142.992 45.7074 142.916 45.5294C143.456 45.2759 143.968 44.9647 144.442 44.601C145.078 44.016 145.904 43.3292 146.082 42.617C146.375 41.3453 145.79 40.5313 144.327 40.277C143.256 39.972 142.223 39.5453 141.25 39.0052C141.351 38.7381 141.466 38.4838 141.567 38.2167L143.348 38.5982C144.365 38.8526 145.332 39.285 146.133 38.0005C146.4 37.5681 147.608 37.1484 147.875 37.3646C149.936 39.0179 151.691 37.3646 153.484 36.9576C153.738 36.9576 154.044 37.1103 154.514 37.2374C153.789 40.2515 148.982 38.9289 149.096 42.4644Z" fill="#4D3826"/>
<path d="M137.269 22.4468C136.938 22.8029 136.683 23.2989 136.277 23.5024C135.081 24.1128 133.835 24.6088 132.601 25.1557L132.792 25.817C133.835 26.3257 134.903 26.7963 135.92 27.3559C136.337 27.6588 136.728 27.9948 137.09 28.3606C136.607 28.6149 136.111 29.0728 135.628 29.06C135.119 29.0306 134.619 28.91 134.153 28.7039C132.423 29.7722 131.177 30.8787 129.752 31.2475C129.307 31.3492 128.392 29.3525 127.476 28.0172L124.742 28.4369L124.538 27.7374L129.905 25.5881C128.303 23.1972 126.649 25.5118 124.614 24.9141C126.484 23.6423 128.43 22.9174 129.256 21.5312C130.083 20.1449 129.663 17.9829 129.791 16.1134C132.83 16.2533 130.515 19.0385 131.914 20.1704L134.992 17.2198L135.552 17.6777C134.852 18.5934 134.115 19.4963 133.479 20.4629C133.276 20.9007 133.147 21.3691 133.097 21.8491C133.551 22.0175 134.026 22.1202 134.509 22.1543C134.941 22.1543 135.386 21.7219 135.781 21.7728C136.31 21.9158 136.812 22.1435 137.269 22.4468Z" fill="#4D3826"/>
<path d="M130.986 39.7301L131.52 40.2388C131.012 40.7984 130.592 41.7395 130.007 41.854C129.519 41.8861 129.042 42.015 128.604 42.2332C128.166 42.4515 127.776 42.7547 127.456 43.1251C127.137 43.4956 126.894 43.926 126.742 44.3911C126.591 44.8563 126.533 45.347 126.573 45.8346L130.388 45.5039L130.668 46.1907C130.081 46.6984 129.404 47.091 128.672 47.348C127.54 47.5133 126.128 47.348 126.001 48.7724C125.965 50.3952 126.084 52.0178 126.357 53.6178C125.157 54.2208 123.916 54.7392 122.643 55.1694C122.364 55.2584 121.295 54.1138 121.372 53.656C121.697 51.7488 122.122 49.8598 122.643 47.9966L119.477 49.2684L119.146 48.4799L123.813 46.3688C123.813 46.2289 123.813 46.0762 123.813 45.9236H121.27C121.27 45.7074 121.181 45.4912 121.143 45.275L123.394 44.4738C124.068 41.4724 121.143 41.4597 119.693 40.2261C119.693 40.0099 119.807 39.781 119.858 39.5648L124.03 40.0989C125.975 38.2294 126.293 38.2421 127.845 40.4169L129.575 40.0735L130.986 39.7301Z" fill="#4D3826"/>
<path d="M71.3278 39.1578C71.1879 39.5902 71.1879 40.2388 70.8954 40.4296C69.878 41.0019 68.7334 41.3834 70.2087 42.6933C70.2087 42.6933 69.8653 43.2784 69.7 43.5963C69.2558 44.2454 68.9008 44.9512 68.6444 45.6947C68.3137 47.1318 67.0165 47.5769 65.6939 46.4959C65.0088 45.848 64.3673 45.1555 63.7735 44.423L61.5733 46.2416L61.0265 45.8092C61.23 45.3386 61.2936 44.6773 61.6624 44.423C63.5573 43.0494 63.5955 41.7395 61.7768 40.277C61.4695 39.9504 61.2162 39.5769 61.0265 39.1705L57.4147 41.1036L56.8042 40.5949C57.1857 40.1371 57.4655 39.4758 57.9488 39.2341C59.2206 38.5474 60.7848 38.2294 61.1918 36.3981C61.1918 36.1056 62.5399 35.8512 63.1885 35.9911C63.8371 36.131 64.2059 36.805 64.6637 37.2629C66.546 36.3218 67.1437 32.9389 69.9034 34.2869C68.4409 36.4362 67.1183 38.4075 65.7829 40.3787L66.05 40.9129C66.4864 40.865 66.9142 40.758 67.3218 40.5949C68.2374 40.0735 69.0768 39.3232 70.0179 38.9289C70.2977 38.7381 70.87 39.0434 71.3278 39.1578Z" fill="#4D3826"/>
<path d="M69.458 63.7667L70.1321 64.1737C69.4072 65.4454 68.6823 66.6027 67.9192 67.8491L71.2258 69.337C69.0256 71.2447 66.7364 72.4147 66.2659 75.2381L65.4011 74.6912C65.4774 73.5975 65.5664 72.491 65.6427 71.4228C63.0102 70.2782 63.0102 70.2782 60.9117 74.2334C59.64 73.2795 59.64 73.2795 60.6574 70.9649C59.5255 67.7982 57.1727 69.5787 55.0234 69.4388C55.4813 68.9301 55.9391 68.4341 56.4097 67.9381H55.99L56.4478 63.843L60.2631 64.6824C61.2297 63.843 61.0262 61.2231 63.6588 60.9434C62.9847 62.6348 62.387 64.0592 61.9037 65.5217C61.9037 65.6743 62.6413 66.094 63.0483 66.3865L66.3168 62.4186C66.7619 64.428 63.3535 65.8142 66.3168 67.3658L69.458 63.7667Z" fill="#4D3826"/>
<path d="M55.5447 5.53222C55.6338 5.78657 55.7355 6.02821 55.8245 6.28256L49.542 8.95328C50.0134 7.79207 50.8618 6.82322 51.9506 6.20267C53.0395 5.58213 54.3054 5.34597 55.5447 5.53222Z" fill="#4D3826"/>
<path d="M54.0821 10.95C54.1711 11.1789 54.2474 11.4205 54.3237 11.6495L50.4194 12.9212C50.3431 12.6669 50.2541 12.4125 50.165 12.1582C51.0553 10.7592 52.5687 10.7592 54.0821 10.95Z" fill="#4D3826"/>
<path d="M46.6936 4.66739C47.9653 3.96792 49.7076 2.20016 52.3911 3.19214L46.1721 6.68951C46.808 8.94054 47.5075 10.8991 47.8636 12.9212C48.1179 14.3456 47.4312 14.8543 45.7906 14.5363C44.9004 14.371 43.8066 15.3121 42.8019 15.8081L41.1105 16.5076C41.2885 15.948 41.4793 15.4011 41.6573 14.8416L43.2598 9.48741L39.8641 10.7592L39.4826 9.94524C40.0834 9.59693 40.6497 9.19239 41.1741 8.73706C41.6481 8.14953 42.0735 7.52428 42.4458 6.86756C41.8902 6.44824 41.2779 6.10997 40.6272 5.86286C39.1265 5.51948 37.575 5.35415 36.0488 5.11251V4.08238C37.4351 4.1714 38.8086 4.32402 40.1821 4.3113C41.3012 4.3113 42.4204 3.98063 43.5396 4.00607C44.6069 4.14166 45.6616 4.36281 46.6936 4.66739Z" fill="#4D3826"/>
<path d="M40.9704 44.4357C41.6572 46.407 43.7556 45.0589 45.1291 45.7075C43.7538 47.1451 42.3064 48.5119 40.7924 49.8026C40.4617 50.0697 39.3298 49.65 38.8211 49.2303C38.3124 48.8106 38.2616 48.0603 37.9182 47.2463C36.7227 48.162 35.718 48.9124 34.7133 49.6627L34.1919 49.243C34.3954 48.7725 34.459 48.073 34.8151 47.8568C37.3586 46.3688 38.1471 44.3721 36.5955 41.5742L33.1236 42.439L32.8311 41.8032L37.7783 39.018L31.4194 35.8258C32.1346 35.6804 32.8663 35.6333 33.5942 35.6859C35.0694 36.042 36.1377 36.0929 36.1377 34.0454C36.1377 33.7147 37.5366 33.0279 37.6257 33.117C38.8084 34.3887 39.8767 33.7401 41.0595 33.117C41.6094 33.007 42.1756 33.007 42.7255 33.117C42.2295 35.3171 39.0119 35.3426 39.1009 38.5601L43.6411 36.0166C43.4758 38.433 42.115 39.5267 39.5715 39.8319C40.0929 41.4852 40.4744 42.9732 40.9704 44.4357Z" fill="#4D3826"/>
<path d="M17.7987 28.564L18.3329 29.2508C17.6843 29.9884 17.0611 30.7515 16.3489 31.4382C15.9292 31.8579 15.1534 32.036 14.9118 32.5192C14.4221 33.712 13.9976 34.9304 13.64 36.1692C14.721 36.3473 15.7766 36.5762 16.8576 36.6652C17.8171 36.681 18.7766 36.6428 19.7318 36.5507C18.3837 38.929 16.6796 38.5347 14.8991 38.2295C14.6702 39.8573 14.5048 41.4216 14.1869 42.9477C14.0851 43.431 13.6146 44.2195 13.2585 44.2195C12.9498 44.231 12.6426 44.1717 12.3604 44.046C12.0782 43.9204 11.8286 43.7317 11.6306 43.4946C10.9806 42.371 10.4029 41.2071 9.90102 40.01L5.98396 41.4725L5.51341 40.7476C8.05695 39.4758 10.7785 38.5347 10.5242 34.7067L5.27177 35.2662C5.41167 34.287 5.41167 34.287 10.1554 33.0406C10.1554 31.6799 10.0155 30.2809 9.95189 28.9456L4 27.483C4.07631 27.2159 4.15261 26.9616 4.2162 26.7072L9.54492 27.305C9.46826 26.1192 9.46826 24.9298 9.54492 23.744C9.74852 23.0947 10.0673 22.4872 10.486 21.9508C11.0057 22.3733 11.4905 22.8369 11.9359 23.337C12.3073 23.8354 12.6309 24.3677 12.9024 24.9268C13.8834 24.3147 14.903 23.7667 15.9547 23.2862C16.3362 23.1463 16.9339 23.566 17.4426 23.7313C17.171 24.0961 16.85 24.4214 16.4888 24.6978C14.4412 25.906 12.381 28.1316 13.6782 30.9804L17.7987 28.564Z" fill="#4D3826"/>
</g>
<defs>
<filter id="filter0_d" x="0" y="0" width="372.601" height="153.067" filterUnits="userSpaceOnUse" color-interpolation-filters="sRGB">
<feFlood flood-opacity="0" result="BackgroundImageFix"/>
<feColorMatrix in="SourceAlpha" type="matrix" values="0 0 0 0 0 0 0 0 0 0 0 0 0 0 0 0 0 0 127 0"/>
<feOffset dy="4"/>
<feGaussianBlur stdDeviation="2"/>
<feColorMatrix type="matrix" values="0 0 0 0 0 0 0 0 0 0 0 0 0 0 0 0 0 0 0.25 0"/>
<feBlend mode="normal" in2="BackgroundImageFix" result="effect1_dropShadow"/>
<feBlend mode="normal" in="SourceGraphic" in2="effect1_dropShadow" result="shape"/>
</filter>
</defs>
</svg>
