<svg width="206" height="188" viewBox="0 0 206 188" fill="none" xmlns="http://www.w3.org/2000/svg">
<g filter="url(#filter0_d)">
<path d="M179.809 131.284C181.755 132.106 182.375 132.866 182.704 134.614C181.438 135.544 180.041 134.995 178.901 134.585C174.897 133.177 170.924 131.666 167.016 130.016C162.621 128.167 158.304 126.157 153.974 124.149C149.242 121.985 144.527 119.758 139.776 117.626C138.046 116.754 136.248 116.026 134.399 115.45C133.613 115.247 132.806 115.141 131.995 115.132L132.016 114.378C133.303 114.373 134.572 114.081 135.731 113.523C136.436 113.226 137.051 112.748 137.512 112.138C137.973 111.527 138.264 110.805 138.356 110.046L138.019 109.253C140.694 108.176 143.396 107.161 146.098 106.164C147.31 105.833 148.578 105.753 149.822 105.931C151.967 106.095 152.635 105.857 153.481 103.864C153.736 103.166 154.139 102.532 154.661 102.003C155.183 101.474 155.813 101.064 156.508 100.8C157.771 100.281 158.801 99.3175 159.403 98.0912C159.773 97.3573 160.185 96.6448 160.635 95.9571C161.525 94.73 162.679 93.4686 164.201 93.4966C166.041 93.5484 166.906 92.5579 167.423 91.281C167.941 90.004 169.235 88.9773 168.368 87.2691C168.046 86.3702 168.024 85.3911 168.306 84.4787C168.475 83.9869 168.53 83.4633 168.468 82.947C168.406 82.4307 168.229 81.9351 167.948 81.4971C167.585 80.987 167.357 80.3935 167.284 79.7715C167.212 79.1496 167.298 78.5194 167.534 77.9395C167.751 77.3779 167.783 76.7619 167.627 76.1805C167.471 75.5991 167.134 75.0824 166.665 74.7052C165.656 73.7012 164.622 72.7505 163.673 71.7053C163.308 71.3117 162.853 70.6701 162.949 70.2581C163.204 69.0922 162.669 68.3769 161.92 67.7274C160.915 66.8506 159.863 66.0321 158.825 65.1935C158.104 64.6047 157.054 64.1716 157.915 62.9023C158.03 62.7303 157.805 62.1805 157.584 61.96C157.063 61.4296 156.485 60.9594 155.86 60.5581C153.724 59.2118 151.541 57.9237 149.402 56.5698C148.931 56.2755 148.225 55.7808 148.224 55.3768C148.213 54.1123 147.332 53.7857 146.449 53.3636C144.002 52.2613 141.528 51.231 139.109 50.0884C138.33 49.7241 137.224 49.2199 137.066 48.575C137.017 48.2561 136.875 47.959 136.656 47.7219C136.437 47.4847 136.153 47.3183 135.839 47.2439L136.02 46.4158C136.418 46.5132 136.817 46.6106 137.202 46.7281C137.587 46.8456 138.205 47.2383 138.183 47.4826C138.125 48.9674 139.324 48.996 140.212 49.407C142.85 50.6241 145.488 51.8225 148.106 53.0764C148.496 53.2043 148.845 53.4341 149.116 53.742C149.388 54.0498 149.572 54.4246 149.65 54.8276C149.742 55.3281 150.476 55.7639 150.987 56.1362C153.371 57.7825 155.843 59.3102 158.166 61.0349C159.473 61.9984 159.414 62.2601 159.153 63.8149C160.271 64.8282 161.376 65.8111 162.453 66.8156C163.444 67.7312 164.388 68.6546 164.219 70.2311C164.175 70.6056 164.735 71.0524 165.067 71.4468C166.007 72.501 166.967 73.5315 167.943 74.5551C168.415 74.9888 168.736 75.5615 168.86 76.1901C168.984 76.8186 168.905 77.4704 168.633 78.0508C168.393 78.5565 168.295 79.1184 168.351 79.6756C168.407 80.2328 168.613 80.7642 168.949 81.2124C169.284 81.7081 169.504 82.2721 169.593 82.8635C169.683 83.4549 169.639 84.0588 169.466 84.6313C169.213 85.6335 169.228 86.6844 169.509 87.6791C170.093 89.5032 169.302 90.8552 168.41 92.2581C167.518 93.661 166.549 94.7958 164.512 94.6646C163.095 94.5745 162.294 95.9542 161.543 97.0626C160.791 98.1709 160.289 99.6298 159.258 100.319C156.956 101.868 154.854 103.459 153.644 106.061C153.404 106.499 153.02 106.841 152.557 107.027C152.093 107.212 151.58 107.231 151.104 107.08C147.639 106.225 144.73 107.832 141.517 109.137C141.759 109.518 142.057 109.86 142.401 110.152C150.248 114.741 158.108 119.293 165.983 123.809C166.797 124.281 167.517 124.907 168.647 124.393C169.038 124.222 169.934 124.712 170.34 125.147C172.972 127.994 176.275 129.798 179.809 131.284ZM179.117 133.423C179.671 133.629 180.306 134.059 181.007 133.222C180.296 132.77 179.56 132.361 178.802 131.995C175.44 130.76 172.392 128.8 169.874 126.253C169.67 126.061 169.425 125.918 169.157 125.835C168.889 125.752 168.606 125.732 168.33 125.775C167.387 126.107 166.773 125.69 166.067 125.265C164.925 124.57 163.749 123.933 162.593 123.259C156.027 119.434 149.477 115.613 142.945 111.797C142.13 111.325 141.29 110.887 140.447 110.424C139.072 111.906 137.84 113.239 136.52 114.641C136.919 114.858 137.282 115.087 137.659 115.259C141.734 117.072 145.824 118.859 149.881 120.703C151.305 121.35 152.641 122.186 154.055 122.842C158.368 124.813 162.694 126.832 167.081 128.685C171.025 130.424 175.071 131.924 179.117 133.423Z" fill="#692B40"/>
<path d="M180.993 133.243C180.292 134.08 179.631 133.652 179.103 133.443C175.077 131.907 171.031 130.408 167.057 128.733C162.669 126.88 158.35 124.876 154.031 122.89C152.617 122.234 151.281 121.398 149.857 120.751C145.8 118.907 141.716 117.103 137.635 115.307C137.257 115.135 136.895 114.906 136.496 114.689C137.816 113.287 139.058 111.926 140.423 110.471C141.266 110.935 142.106 111.373 142.921 111.845C149.489 115.666 156.038 119.487 162.569 123.306C163.725 123.981 164.901 124.618 166.043 125.312C166.749 125.738 167.363 126.155 168.305 125.823C168.582 125.78 168.865 125.8 169.133 125.883C169.4 125.966 169.646 126.109 169.849 126.301C172.369 128.846 175.417 130.804 178.779 132.038C179.54 132.396 180.279 132.798 180.993 133.243Z" fill="#B7B7B8"/>
<path d="M168.395 87.3168C169.262 89.0249 167.954 90.1036 167.45 91.3286C166.945 92.5536 166.061 93.6126 164.227 93.5443C162.716 93.4885 161.561 94.7499 160.661 96.0048C160.211 96.6925 159.799 97.4049 159.429 98.1388C158.827 99.3652 157.797 100.329 156.534 100.848C155.839 101.112 155.209 101.522 154.687 102.051C154.165 102.579 153.763 103.214 153.507 103.912C152.661 105.905 151.997 106.132 149.848 105.978C148.604 105.801 147.337 105.88 146.124 106.212C143.428 107.211 140.726 108.226 138.046 109.3C136.107 110.076 134.169 110.883 132.25 111.722C130.126 112.631 128.35 114.198 127.183 116.192C125.98 118.062 124.55 119.776 122.928 121.296C121.44 122.794 120.687 122.716 119.157 121.267C118.831 120.916 118.428 120.647 117.979 120.48C117.531 120.314 117.049 120.256 116.574 120.309C115.7 120.383 114.824 120.193 114.06 119.762C112.519 118.819 111.335 118.406 109.371 119.064C108.06 119.493 106.673 119.641 105.302 119.497C104.06 119.379 102.84 119.098 101.672 118.663C101.457 116.383 101.07 114.027 101.039 111.677C100.934 105.057 101.294 98.421 100.896 91.8249C100.471 84.8596 99.8128 77.8772 97.7981 71.1358C96.5485 66.9221 95.5761 62.6409 94.3755 58.4139C93.6511 55.8446 92.7373 53.3438 91.8512 50.6326C99.3193 47.6236 107.015 45.2127 114.865 43.4226C114.754 44.0622 114.687 44.4471 114.588 45.0535C116.81 44.9253 118.932 44.7283 121.054 44.7015C123.652 44.6625 126.253 44.7376 128.848 44.8294C129.372 44.817 129.884 44.9933 130.29 45.3261C131.62 46.8401 133.375 46.9676 135.173 47.1358C135.4 47.1605 135.626 47.198 135.85 47.248C136.163 47.3224 136.448 47.4888 136.667 47.726C136.885 47.9632 137.028 48.2602 137.077 48.5791C137.235 49.224 138.341 49.7282 139.119 50.0926C141.539 51.2351 143.99 52.2572 146.459 53.3677C147.329 53.7594 148.208 54.0915 148.235 55.3809C148.236 55.7849 148.944 56.2741 149.412 56.5739C151.552 57.9278 153.734 59.2159 155.87 60.5622C156.496 60.9635 157.074 61.4337 157.595 61.9641C157.816 62.1846 158.032 62.7566 157.926 62.9064C157.065 64.1757 158.115 64.6089 158.836 65.1976C159.874 66.0362 160.926 66.8547 161.931 67.7315C162.68 68.381 163.211 69.1074 162.96 70.2623C162.864 70.6742 163.319 71.3158 163.684 71.7095C164.633 72.7546 165.667 73.7053 166.676 74.7093C167.142 75.0877 167.476 75.6042 167.631 76.1847C167.785 76.7652 167.751 77.3796 167.533 77.9395C167.293 78.5294 167.209 79.1712 167.288 79.8033C167.367 80.4353 167.607 81.0364 167.986 81.5488C168.266 81.9868 168.444 82.4825 168.506 82.9988C168.567 83.5151 168.512 84.0387 168.343 84.5305C168.059 85.4404 168.077 86.4179 168.395 87.3168Z" fill="#C57D7D"/>
<path d="M138.381 110.03C138.289 110.789 137.997 111.511 137.536 112.122C137.075 112.732 136.461 113.21 135.755 113.507C134.596 114.065 133.327 114.357 132.041 114.362C131.536 114.328 131.037 114.236 130.554 114.088C132.902 111.699 136.027 111.924 138.381 110.03Z" fill="#966060"/>
<path d="M138.066 109.245L138.403 110.038C136.043 111.931 132.924 111.708 130.601 114.08C131.084 114.228 131.583 114.32 132.088 114.354L132.067 115.109C131.332 115.083 130.591 115.11 129.869 115.12C129.489 115.124 129.035 115.668 128.742 116.051C126.794 118.496 125.309 121.276 124.359 124.254C122.534 129.925 120.534 135.544 118.526 141.148C117.544 143.797 116.398 146.397 115.349 149.022C115.199 149.427 114.88 150.033 115.037 150.255C116.357 152.068 115.084 153.531 114.407 155.001C112.843 158.286 111.177 161.52 109.479 164.742C109.13 165.387 108.626 165.934 108.012 166.335C107.125 166.908 106.436 166.488 106.366 165.403C106.346 164.882 106.398 164.36 106.518 163.852C107.875 157.522 109.285 151.199 110.62 144.861C112.045 138.09 113.43 131.31 114.814 124.53C114.99 123.88 115.067 123.207 115.043 122.535C114.979 121.982 114.723 121.47 114.319 121.087C113.698 120.569 113.01 120.136 112.275 119.8C111.899 119.592 111.462 119.524 111.041 119.608C109.199 120.237 107.24 120.451 105.305 120.236L105.365 119.446C106.737 119.589 108.123 119.441 109.434 119.012C111.399 118.354 112.61 118.777 114.123 119.71C114.887 120.141 115.763 120.332 116.637 120.257C117.113 120.204 117.594 120.262 118.043 120.429C118.491 120.595 118.894 120.864 119.22 121.215C120.761 122.668 121.514 122.746 122.991 121.244C124.614 119.724 126.043 118.01 127.247 116.14C128.401 114.145 130.163 112.571 132.277 111.651C134.189 110.828 136.105 110.012 138.066 109.245ZM108.096 165.004C110.261 160.437 112.22 156.309 114.195 152.137C113.988 152.01 113.774 151.895 113.554 151.792C113.304 151.699 113.055 151.607 112.75 151.494C117.424 142.132 119.873 132.141 123.855 122.044C121.289 123.658 119.493 123.352 117.832 121.576C117.12 120.808 116.24 121.226 116.152 122.315C115.794 125.79 115.187 129.235 114.336 132.623C112.137 142.417 110.146 152.262 108.112 162.086C107.777 163.029 107.772 164.058 108.096 165.004Z" fill="#692B40"/>
<path d="M114.189 152.135C112.214 156.307 110.256 160.434 108.09 165.002C107.765 164.053 107.772 163.023 108.108 162.078C110.142 152.255 112.133 142.409 114.332 132.615C115.183 129.227 115.79 125.783 116.148 122.308C116.237 121.218 117.125 120.779 117.828 121.569C119.489 123.344 121.286 123.651 123.851 122.036C119.869 132.133 117.42 142.124 112.746 151.486C113.051 151.599 113.301 151.692 113.55 151.784C113.77 151.889 113.983 152.006 114.189 152.135Z" fill="#B7B7B8"/>
<path d="M136.03 46.4199L135.85 47.248C135.626 47.1979 135.4 47.1604 135.173 47.1357C133.356 46.9351 131.617 46.8138 130.29 45.326C129.884 44.9932 129.372 44.817 128.848 44.8293C126.253 44.7376 123.653 44.6624 121.054 44.7015C118.932 44.7283 116.81 44.9252 114.588 45.0534C114.683 44.4581 114.754 44.0622 114.865 43.4225C107.018 45.1972 99.3244 47.5919 91.8565 50.5841C92.7427 53.2953 93.6565 55.7961 94.3809 58.3654C95.5815 62.5924 96.5539 66.8736 97.8035 71.0873C99.81 77.8508 100.468 84.8333 100.902 91.7764C101.3 98.3725 100.933 105.025 101.045 111.629C101.073 113.984 101.463 116.335 101.677 118.614C102.845 119.05 104.066 119.331 105.307 119.449L105.247 120.24C104.6 120.183 103.954 120.107 103.316 120.009C102.516 119.886 101.7 120.065 101.025 120.509C100.09 121.102 99.0734 121.554 98.0069 121.849C94.8764 122.523 91.7256 123.133 88.5389 123.584C86.9914 123.827 85.415 123.82 83.8699 123.562C81.1573 123.123 78.396 123.072 75.6689 123.41C73.3665 123.609 71.0506 123.595 68.7509 123.367C66.6645 123.18 64.6269 122.588 63.2764 120.739C63.0223 120.502 62.7268 120.313 62.4047 120.183C62.192 120.28 62.0157 120.297 61.9282 120.397C61.6038 120.762 61.3089 121.081 61.0319 121.369L60.4084 120.943C60.7245 120.553 60.9603 120.104 61.1022 119.622C61.244 119.14 61.289 118.635 61.2347 118.135C61.1142 115.569 61.0838 112.879 60.4275 110.398C58.801 104.242 58.276 97.9202 57.4723 91.6529C56.4457 83.7082 56.2171 75.6685 55.6897 67.6693C55.541 65.5025 54.7774 63.5491 54.082 61.5138C53.9431 61.1699 53.7512 60.8499 53.5131 60.5654C52.1281 58.9111 50.772 57.2298 49.329 55.6297C48.329 54.4789 47.0754 53.5762 45.667 52.9928C45.4397 55.7293 45.5208 58.4828 45.9087 61.2012C46.2258 64.1553 47.5667 66.7451 48.603 69.4425C48.9343 70.195 49.0782 71.0166 49.0223 71.8368C48.9664 72.6571 48.7124 73.4515 48.282 74.1521C47.0548 74.504 46.3308 74.0592 45.7503 72.9553C44.49 70.6412 44.7201 68.2177 45.006 65.7456C45.1311 65.0291 45.1579 64.2989 45.0856 63.5751C44.4024 59.9844 44.2364 56.3143 44.5928 52.6766C44.5764 52.2996 44.5017 51.9274 44.3713 51.5733C44.044 51.9025 43.8553 52.3447 43.8441 52.8088C43.4651 56.4504 43.2584 60.0866 42.7104 63.6908C41.8448 69.4276 40.6982 75.1233 39.7684 80.8805C39.4212 83.0588 39.0663 85.2407 38.7946 87.4534L37.8727 87.3386C38.4409 82.5064 39.0597 77.6678 39.7292 72.8227C40.2548 68.9896 41.2912 65.2071 41.8459 61.3974C42.2736 58.5428 42.398 55.6389 42.6602 52.7545C42.7883 51.3207 42.6459 50.0891 40.9491 49.5989C40.5766 49.4987 40.316 49.0113 39.9131 48.5846C42.0642 46.3184 44.8077 45.9232 47.4636 47.601C47.2707 45.6385 47.1886 43.8872 46.9538 42.1738C46.5022 39.1573 46.1135 36.1073 45.3717 33.1597C44.7605 30.7831 43.8886 28.4813 42.772 26.2961C41.4994 23.9169 40.8299 21.262 40.822 18.5639C40.8657 16.626 41.2604 14.5408 42.7751 13.0221C44.4876 11.293 46.2542 9.6218 48.1827 7.75213C48.1537 7.60904 47.8501 7.06784 47.9653 6.6378C48.2137 5.74652 48.4743 4.60131 49.0978 4.12644C50.6414 3.05584 52.5113 2.56009 54.3826 2.72539C53.7844 3.33576 53.4896 3.65511 53.1676 3.94551C52.4796 4.56038 51.8948 5.21981 52.1131 6.24628C52.3315 7.27274 53.1117 7.59974 54.0589 7.79949C56.9799 8.42198 58.8379 10.365 60.4276 12.7255C61.1972 13.8806 62.0722 14.9551 63.0924 16.3354C62.9989 16.7741 62.9639 17.2231 62.9882 17.671C63.5073 21.5257 62.4741 25.0446 60.7867 28.4408C58.6612 32.6958 57.9991 37.2033 57.952 41.8882C57.9334 43.35 57.9259 44.8159 57.9055 46.7247C58.4963 45.9981 58.7924 45.6414 59.2097 45.1279C60.5016 45.758 61.8101 46.3942 63.0895 47.0071C61.5808 52.285 63.0284 57.0701 64.7658 61.8554C65.2167 63.0878 65.7486 64.3061 66.33 65.8327C67.8307 64.6239 69.0714 63.6403 70.3327 62.6013C75.1243 58.7041 79.7316 54.5558 85.2089 51.5809C87.3496 50.4139 89.4479 49.1745 92.0482 49.1487C93.1108 49.139 94.2114 48.6015 95.2357 48.1679C100.961 45.7642 106.973 44.3237 112.961 42.7609C113.54 42.6148 114.132 42.5218 114.728 42.4829C116.13 42.3724 116.305 42.5315 116.881 43.7475C120.527 43.7246 124.087 43.6764 127.656 43.707C129.227 43.7217 130.707 43.9803 131.907 45.2825C132.435 45.8311 133.543 45.8511 134.394 46.072C134.942 46.193 135.488 46.3009 136.03 46.4199ZM98.7247 120.508C100.644 120.109 100.641 119.692 100.478 117.596C100.18 114.493 100.042 111.376 100.063 108.258C100.374 97.9849 99.6712 87.7062 97.966 77.5708C96.777 70.5745 94.6523 63.8239 92.6519 57.0438C92.0029 54.8491 91.2371 52.6806 90.451 50.2775C81.1349 53.916 74.4334 60.9253 66.8994 66.7624C67.9317 69.8618 68.9467 72.8035 69.9051 75.762C70.8635 78.7206 71.9602 81.68 72.2471 84.8687C71.545 83.7864 70.9867 82.6175 70.5859 81.3913C69.265 77.523 67.9766 73.6353 66.7006 69.7648C65.1518 65.27 62.6358 61.1227 61.9457 56.3347C61.9601 56.2959 61.8127 56.2854 61.4264 56.0351C61.5243 58.101 61.5979 59.9942 61.7262 61.876C61.7765 62.1736 61.92 62.4475 62.136 62.6583C63.4843 64.1224 63.8234 65.9627 64.1342 67.8113C64.5252 70.0049 64.7523 72.2322 65.0728 74.4627C65.148 75.0276 65.3022 75.5792 65.5309 76.1012C66.0887 77.2661 66.0696 77.3346 64.3603 77.8988C64.2594 77.3886 64.104 76.8897 64.064 76.4022C63.5672 72.9465 63.0912 69.486 62.5812 66.0318C62.4708 65.3605 62.4525 64.5595 61.4812 64.1868C60.3307 66.3386 60.549 68.6068 60.5961 70.7926C60.6432 72.9785 60.9994 75.3167 61.2083 77.6445C60.1348 77.7005 59.5433 77.3237 59.5111 76.1519C59.4631 74.4448 59.3666 72.7323 59.2368 71.0074C59.0073 68.4697 59.37 65.9134 60.2964 63.5397C60.4639 63.2128 60.5642 62.8555 60.5912 62.4892C60.4332 59.5142 60.25 56.5446 60.0417 53.5804C60.0248 53.303 59.7229 53.0462 59.3067 52.4002C58.6708 53.889 58.1189 55.4122 57.6535 56.9627C57.1579 59.0482 56.5614 61.1847 56.5681 63.2925C56.5993 67.0861 57.1325 70.8516 57.3283 74.6432C57.7571 82.7382 58.1409 90.8354 59.6706 98.8342C60.1847 101.546 60.2887 104.327 60.9353 106.987C61.6797 109.713 62.0982 112.517 62.1821 115.341C62.1915 117.425 62.4785 119.031 64.4622 120.397C65.8813 121.364 67.1744 122.127 68.8323 122.212C70.4901 122.297 72.258 122.221 73.9618 122.386C76.1993 122.642 78.029 121.889 79.768 120.598C81.2525 119.484 82.7981 118.444 84.3562 117.42C84.751 117.241 85.1668 117.114 85.5938 117.04L85.8113 117.474C83.7628 118.902 81.7068 120.334 79.3561 121.965C81.6511 122.235 83.4696 122.55 85.3067 122.645C89.9364 122.892 94.2939 121.425 98.7247 120.508ZM61.3972 52.7464C61.3245 52.0072 61.2518 51.2679 61.1847 50.5308L60.5789 50.5836L61.0094 52.8233L61.3972 52.7464ZM61.9326 47.6625C61.2921 47.3495 60.9787 47.1577 60.6386 47.038C60.3795 46.9686 60.1154 46.9192 59.8487 46.8902C55.8502 53.0354 55.1214 55.1038 55.9337 58.4054C57.2269 54.321 58.7325 50.5989 61.9326 47.6625ZM56.7108 49.421C56.9299 48.9574 57.0057 48.439 56.9285 47.9321C56.8484 45.7844 56.5793 43.6361 56.6383 41.5211C56.7952 36.9651 57.416 32.518 59.6201 28.374C60.9719 25.8736 61.7661 23.11 61.948 20.2733C61.9808 19.6236 62.1091 18.9714 61.1442 18.4625C60.963 19.5804 61.1095 20.8009 60.566 21.4C60.0225 21.9991 58.7694 22.1145 57.7538 22.4567L59.0532 24.1549C58.488 25.1298 57.8692 26.0726 57.1997 26.979C55.3896 29.2266 53.0262 29.8887 50.2119 29.3184C48.4528 28.9626 47.1604 27.8406 45.9259 26.6645C44.8621 25.6399 44.9197 25.1443 45.9747 24.0667C46.6079 23.4126 47.6069 23.0642 47.8534 21.8381L43.4475 22.0584L42.6047 20.0126C42.4479 20.1502 42.3318 20.3283 42.2691 20.5273C42.2065 20.7264 42.1996 20.9388 42.2493 21.1415C42.9503 23.0087 43.7162 24.837 44.4166 26.7229C45.1707 28.7358 46.0949 30.6983 46.583 32.7829C47.7515 37.8531 48.4595 43.0185 48.6981 48.2161C48.6969 48.7192 48.8431 49.2117 49.1186 49.6327C50.7661 51.7183 52.4791 53.7463 54.3633 56.0268C54.791 53.5631 55.2972 51.3302 56.7108 49.421ZM53.5129 58.3213C53.5697 57.9251 53.4986 57.5211 53.3099 57.1682C51.4324 53.7303 48.8177 50.9206 45.9976 48.2742C44.6208 46.9886 43.1911 47.5807 41.4111 48.3015C46.3442 51.0124 50.0669 54.4722 53.5046 58.3434L53.5129 58.3213ZM47.365 73.3268C48.4573 70.7879 47.3681 69.0668 46.3293 67.3455C46.0439 68.3596 45.9881 69.4247 46.1658 70.4631C46.3435 71.5016 46.7504 72.4874 47.3568 73.349L47.365 73.3268ZM60.4885 17.5955L61.0223 17.3457C61.075 16.9025 61.0494 16.4535 60.9466 16.0192C60.5663 15.2963 60.1351 14.6014 59.6561 13.9398C57.9403 11.375 56.0512 9.07374 52.694 8.52279C51.3379 8.30385 50.7257 7.03054 50.952 5.62051C51.1058 5.01994 51.2896 4.42747 51.5028 3.84535C50.4717 4.48436 49.6751 4.76274 49.1916 5.30211C48.232 6.37736 49.2194 7.50603 49.4669 8.55591C45.1741 10.8352 42.4484 14.2437 42.1686 17.6006C42.1419 17.6726 42.3388 17.7708 42.5762 17.9975C42.739 17.3203 42.8834 16.7435 43.1035 15.8606C45.0997 15.781 47.0721 15.6296 49.0403 15.6594C49.5301 15.6645 50.0592 16.1757 50.4654 16.5595C50.8565 17.0181 51.2003 17.5151 51.4914 18.0429L52.3645 15.6875C53.5791 15.6586 54.7531 15.6714 55.9282 15.5964C57.7727 15.4669 59.5176 15.521 60.4885 17.5955ZM54.8628 21.3789C56.4372 21.3321 58.1272 21.6874 59.6091 20.8184C59.2261 17.0897 58.6411 15.8959 53.215 17.0491C53.3053 18.1121 53.4703 19.1675 53.7086 20.2073C53.8571 20.691 54.4769 21.3998 54.8628 21.3789ZM52.6247 28.3531C54.2789 28.2098 54.9997 27.6764 55.525 26.2763C52.281 28.2257 49.5602 26.5869 46.7607 25.1774C48.1596 27.3726 50.0423 28.5684 52.6247 28.3531ZM56.2071 22.8542C54.8604 22.355 53.6203 22.2484 52.9528 21.5661C52.0166 20.5887 51.2137 20.8332 50.4166 21.351C49.618 21.9562 48.873 22.6291 48.1899 23.3622L48.4394 23.8455C50.9095 23.2356 53.517 23.8365 56.2071 22.8542ZM55.9947 24.1244C53.6965 24.6279 51.4676 24.2808 49.0441 24.9521C52.3181 26.8842 54.2306 26.6223 55.9947 24.1244ZM46.6658 20.9946C50.3611 20.9396 50.8361 20.1512 49.0406 17.0022C48.9717 16.8821 48.8013 16.8315 48.569 16.6761C47.1017 17.0463 45.4683 16.1131 43.7702 17.0722C43.8666 18.0534 43.9575 19.0327 44.0614 19.9599C46.0014 19.828 44.5811 18.5578 45.1624 17.8907C46.1655 18.2625 47.5432 17.2666 48.5879 19.091L44.3992 20.3751L44.7092 21.1203C45.3635 21.0729 46.0019 21.0511 46.6596 21.0112L46.6658 20.9946Z" fill="#692B40"/>
<path d="M100.478 117.596C100.64 119.692 100.643 120.109 98.7243 120.508C94.2935 121.425 89.936 122.892 85.3291 122.634C83.4755 122.533 81.6957 122.233 79.3786 121.954C81.7354 120.306 83.7853 118.891 85.8337 117.463L85.5934 117.04C85.1607 117.123 84.7406 117.262 84.3436 117.453C82.7854 118.477 81.2398 119.517 79.7554 120.631C78.0163 121.922 76.1867 122.675 73.9491 122.419C72.2535 122.232 70.5279 122.33 68.8196 122.245C67.1112 122.16 65.8575 121.393 64.4495 120.43C62.4381 119.054 62.1788 117.458 62.1694 115.374C62.0938 112.547 61.6829 109.739 60.9454 107.01C60.2988 104.349 60.1989 101.558 59.6808 98.8569C58.151 90.8581 57.7672 82.7608 57.3384 74.6658C57.1426 70.8742 56.6135 67.0977 56.5782 63.3151C56.5605 61.2032 57.1569 59.0668 57.6636 56.9853C58.129 55.4348 58.6809 53.9116 59.3168 52.4229C59.7108 53.0606 60.0369 53.3201 60.0519 53.603C60.2712 56.5713 60.4544 59.5409 60.6014 62.5118C60.5681 62.8711 60.4643 63.2203 60.2961 63.5396C59.393 65.9084 59.0493 68.4538 59.2917 70.9773C59.4297 72.68 59.5262 74.3925 59.566 76.1218C59.5982 77.2936 60.1897 77.6704 61.2631 77.6144C61.0321 75.2784 60.6769 73.0225 60.6509 70.7625C60.625 68.5026 60.4077 66.3167 61.536 64.1567C62.5115 64.5183 62.5359 65.3027 62.6361 66.0017C63.1461 69.4559 63.6221 72.9164 64.1189 76.3721C64.1865 76.8699 64.3143 77.3585 64.4152 77.8687C66.1245 77.3045 66.1395 77.2471 65.5857 76.0711C65.357 75.5491 65.2029 74.9975 65.1277 74.4326C64.799 72.2243 64.5718 69.9969 64.1891 67.7812C63.8742 65.9437 63.5185 64.0973 62.1908 62.6282C61.9748 62.4174 61.8314 62.1435 61.7811 61.8459C61.6528 59.9641 61.5791 58.0709 61.4813 56.005C61.8612 56.2214 61.9762 56.2514 62.0006 56.3046C62.6907 61.0925 65.2066 65.2399 66.7195 69.7466C68.0232 73.6273 69.3117 77.5151 70.6049 81.3731C71.0056 82.5993 71.564 83.7682 72.266 84.8505C71.9792 81.6618 70.8818 78.7211 69.924 75.7438C68.9663 72.7666 67.9506 69.8436 66.9184 66.7442C74.4606 60.8849 81.1454 53.8695 90.47 50.2593C91.2561 52.6623 92.0219 54.8309 92.6709 57.0256C94.6712 63.8057 96.8208 70.5403 97.9849 77.5526C99.6901 87.688 100.392 97.9667 100.082 108.24C100.054 111.363 100.186 114.486 100.478 117.596Z" fill="white"/>
<path d="M60.409 120.943L61.0478 121.363C59.015 123.446 57.9586 123.439 54.8831 121.668C50.8969 119.35 46.9879 116.904 43.1562 114.328C42.115 113.656 41.2435 112.753 40.6102 111.688C39.9768 110.623 39.5987 109.426 39.5056 108.19C39.3386 106.124 39.3878 103.968 37.5067 102.495C37.245 100.633 36.6068 98.7324 36.7963 96.9116C37.1419 93.7114 37.4916 90.5002 37.8455 87.2779L38.7674 87.3927C38.1715 92.2146 37.9908 97.0391 39.1483 101.944C43.0494 104.871 45.0697 106.937 45.6953 108.991L40.5237 104.508C40.1846 109.539 42.0788 112.813 46.2441 114.823C47.1056 115.237 47.8504 115.897 48.6735 116.398C51.2724 117.992 53.8247 119.694 56.5074 121.129C58.1468 121.996 59.5493 121.885 60.409 120.943Z" fill="#692B40"/>
<path d="M61.2346 118.135C61.2889 118.634 61.2439 119.14 61.1021 119.621C60.9602 120.103 60.7245 120.552 60.4083 120.943C59.5588 121.857 58.1294 121.989 56.5551 121.135C53.8724 119.699 51.318 118.002 48.7212 116.403C47.8981 115.903 47.1533 115.242 46.2918 114.828C42.1224 112.829 40.2282 109.555 40.5714 104.513L45.7112 108.997C45.0856 106.943 43.0694 104.866 39.1641 101.949C38.0067 97.045 38.1915 92.2094 38.7833 87.3986C39.0467 85.2081 39.4016 83.0262 39.757 80.8256C40.6787 75.0907 41.8253 69.395 42.6991 63.636C43.2388 60.0539 43.4681 56.3568 43.8327 52.754C43.8548 52.2918 44.0526 51.8555 44.3856 51.5343C44.516 51.8884 44.5907 52.2606 44.6071 52.6376C44.2507 56.2753 44.4166 59.9454 45.0999 63.5361C45.1739 64.2641 45.1476 64.9989 45.0218 65.7197C44.742 68.1752 44.5201 70.5766 45.7661 72.9294C46.3527 74.0167 47.0816 74.4823 48.2977 74.1262C48.7281 73.4257 48.9822 72.6312 49.0381 71.8109C49.094 70.9907 48.95 70.1691 48.6187 69.4167C47.5824 66.7192 46.2436 64.1239 45.9244 61.1754C45.5332 58.4659 45.4468 55.7212 45.6669 52.9925C47.0724 53.5836 48.3213 54.4932 49.3152 55.6496C50.7581 57.2497 52.1142 58.931 53.4993 60.5853C53.7373 60.8697 53.9293 61.1898 54.0681 61.5337C54.7738 63.5413 55.5272 65.5224 55.6759 67.6892C56.2032 75.6884 56.4319 83.7281 57.4585 91.6728C58.2925 97.9261 58.7954 104.24 60.4136 110.418C61.0837 112.879 61.1264 115.536 61.2346 118.135ZM58.6354 117.733C59.5336 117.435 59.5336 117.435 59.3577 116.311C59.0526 116.658 58.7419 117.003 58.4694 117.381C58.4322 117.43 58.574 117.609 58.6251 117.76L58.6354 117.733ZM56.5307 103.394L57.6334 102.119C56.355 101.759 56.0254 102.223 56.0968 103C56.0794 103.132 56.3704 103.265 56.5307 103.394ZM56.1285 91.4005C55.8656 91.0383 55.6711 90.6448 55.573 90.6714C55.2616 90.7531 54.9802 90.9222 54.762 91.1588C54.7373 91.2253 54.9815 91.757 55.1123 91.7614C55.396 91.7783 55.6795 91.5745 56.1285 91.4005ZM53.8635 77.1031C54.2055 76.9966 54.5323 76.8971 54.8703 76.8017C54.8221 76.6767 54.7755 76.4451 54.7306 76.4474C54.3953 76.452 54.0605 76.4752 53.7277 76.517C53.7533 76.7029 53.8254 76.8998 53.8413 77.0949L53.8635 77.1031ZM54.4694 66.9647C54.1858 66.6075 53.9615 66.2092 53.8613 66.2414C53.5113 66.3814 53.1793 66.5632 52.8728 66.7827C53.0478 66.9736 53.2124 67.312 53.4047 67.3202C53.6829 67.3351 53.9906 67.134 54.4583 66.9606L54.4694 66.9647Z" fill="white"/>
<path d="M59.3855 116.322C59.5696 117.424 59.5696 117.424 58.6632 117.743C58.6018 117.62 58.46 117.441 58.4972 117.392C58.742 117.003 59.0527 116.658 59.3855 116.322Z" fill="#692B40"/>
<path d="M57.6226 102.116L56.52 103.39C56.3597 103.261 56.0908 103.136 56.075 102.992C56.0146 102.219 56.334 101.783 57.6226 102.116Z" fill="#692B40"/>
<path d="M55.573 90.6713C55.6711 90.6447 55.8656 91.0382 56.1285 91.4004C55.6795 91.5744 55.4021 91.7616 55.1178 91.7633C54.987 91.759 54.693 91.2088 54.7675 91.1607C54.984 90.9243 55.2634 90.7545 55.573 90.6713Z" fill="#692B40"/>
<path d="M54.8475 76.7936C54.5096 76.889 54.1827 76.9885 53.8407 77.095C53.8005 76.8973 53.7527 76.7031 53.705 76.5089C54.0377 76.4671 54.3725 76.4439 54.7078 76.4393C54.7527 76.437 54.7993 76.6686 54.8475 76.7936Z" fill="#692B40"/>
<path d="M61.1846 50.5308C61.2517 51.268 61.3244 52.0072 61.3971 52.7465L60.9872 52.8151L60.5566 50.5754L61.1846 50.5308Z" fill="white"/>
<path d="M53.8507 66.2375C53.9509 66.2053 54.1752 66.6036 54.4588 66.9608C53.9911 67.1342 53.6992 67.3097 53.3941 67.3164C53.2018 67.3081 53.0372 66.9698 52.8622 66.7788C53.1687 66.5593 53.5007 66.3776 53.8507 66.2375Z" fill="#692B40"/>
<path d="M60.6391 47.0379C60.9771 47.1632 61.2926 47.3495 61.933 47.6625C58.733 50.5989 57.2274 54.321 55.9342 58.4054C55.1218 55.1038 55.8507 53.0354 59.8492 46.8902C60.1159 46.9192 60.3799 46.9686 60.6391 47.0379Z" fill="white"/>
<path d="M56.9287 47.9322C57.0058 48.4391 56.93 48.9575 56.711 49.4211C55.2973 51.3303 54.7912 53.5632 54.3573 56.0436C52.4731 53.763 50.7601 51.7351 49.1126 49.6494C48.8371 49.2284 48.691 48.736 48.6921 48.2329C48.4588 43.0218 47.7539 37.8426 46.5858 32.7588C46.1213 30.6956 45.1791 28.7138 44.4194 26.6987C43.7129 24.8295 42.947 23.0012 42.2522 21.1174C42.2025 20.9147 42.2093 20.7023 42.272 20.5032C42.3346 20.3042 42.4507 20.1261 42.6076 19.9884L43.4477 22.0585L47.8535 21.8382C47.6293 23.0726 46.6081 23.4127 45.9749 24.0668C44.9421 25.1527 44.8623 25.64 45.926 26.6646C47.1605 27.8407 48.4308 28.9545 50.2121 29.3185C53.0264 29.8888 55.3898 29.2267 57.1999 26.9791C57.8647 26.0642 58.4782 25.1131 59.0374 24.1302L57.738 22.432C58.7536 22.0898 59.9888 22.0055 60.5502 21.3752C61.1116 20.7449 60.9513 19.5446 61.1283 18.4378C62.0932 18.9467 61.9594 19.5968 61.9322 20.2486C61.7503 23.0852 60.9561 25.8488 59.6042 28.3493C57.4334 32.5055 56.8015 36.9485 56.6225 41.4963C56.5795 43.6362 56.8485 45.7845 56.9287 47.9322Z" fill="#C57D7D"/>
<path d="M53.3322 57.1768C53.5209 57.5298 53.592 57.9337 53.5351 58.3299C50.0973 54.4587 46.3747 50.9988 41.4833 48.3286C43.2633 47.6079 44.6991 46.9991 46.0697 48.3013C48.8318 50.9514 51.452 53.7631 53.3322 57.1768Z" fill="white"/>
<path d="M46.3208 67.3677C47.3595 69.089 48.4488 70.8101 47.3565 73.349C46.752 72.4908 46.3455 71.5091 46.1664 70.4748C45.9873 69.4404 46.04 68.3792 46.3208 67.3677Z" fill="#692B40"/>
<path d="M61.0144 17.3679L60.4806 17.6176C59.5179 15.521 57.773 15.4668 55.9285 15.5963C54.7535 15.6714 53.5795 15.6586 52.3648 15.6875L51.4918 18.0429C51.2045 17.5078 50.8634 17.0033 50.4739 16.5373C50.0678 16.1535 49.5442 15.6443 49.0489 15.6372C47.0806 15.6074 45.1082 15.7588 43.1121 15.8384C42.9002 16.6991 42.7537 17.2815 42.5848 17.9753C42.3473 17.7486 42.1727 17.6587 42.1772 17.5784C42.457 14.2215 45.1827 10.813 49.4775 8.52817C49.2335 7.48589 48.2406 6.35516 49.2022 5.27437C49.6755 4.76271 50.4721 4.48433 51.5031 3.84532C51.2899 4.42744 51.1061 5.01991 50.9524 5.62048C50.7219 7.0416 51.3383 8.30382 52.6943 8.52276C56.0516 9.07371 57.9407 11.375 59.6482 13.9619C60.1272 14.6236 60.5584 15.3185 60.9388 16.0413C61.0416 16.4757 61.0672 16.9247 61.0144 17.3679Z" fill="#C57D7D"/>
<path d="M59.6093 20.8184C58.1273 21.6874 56.4455 21.3099 54.863 21.3789C54.4771 21.3998 53.8573 20.691 53.7088 20.2073C53.4704 19.1674 53.3055 18.1121 53.2152 17.0491C58.6413 15.8959 59.2263 17.0897 59.6093 20.8184ZM54.1934 18.6787C55.6374 19.2895 56.5536 20.8142 58.638 20.1054L56.3728 18.2068C56.8754 17.9393 57.2468 17.7365 57.6196 17.5469C56.2178 17.1282 55.066 17.2938 54.1934 18.6787Z" fill="#DFBDBC"/>
<path d="M55.535 26.2485C55.0051 27.6784 54.2786 28.2097 52.6347 28.3253C50.0358 28.5345 48.1696 27.3449 46.781 25.1219C49.56 26.5869 52.2689 28.1897 55.535 26.2485Z" fill="#B7B7B8"/>
<path d="M58.6376 20.1054C56.5739 20.8093 55.637 19.2895 54.193 18.6787C55.0655 17.2939 56.2174 17.1283 57.6192 17.547C57.2464 17.7366 56.8749 17.9393 56.3724 18.2069L58.6376 20.1054Z" fill="#692B40"/>
<path d="M52.9749 21.5741C53.6423 22.2564 54.8824 22.3631 56.2291 22.8622C53.5169 23.8363 50.9093 23.2354 48.4614 23.8536L48.2119 23.3703C48.9006 22.6386 49.6512 21.9677 50.4553 21.3652C51.2357 20.8413 52.0304 20.6189 52.9749 21.5741Z" fill="#B7B7B8"/>
<path d="M49.0377 24.9688C51.4613 24.2975 53.6901 24.6446 55.9884 24.1411C54.2304 26.6224 52.3179 26.8843 49.0377 24.9688Z" fill="#D32D59"/>
<path d="M49.0344 17.0188C50.8299 20.1679 50.3549 20.9562 46.6596 21.0112C46.0232 21.0275 45.3745 21.077 44.732 21.1099L44.422 20.3647L48.6024 19.1027C47.5578 17.2783 46.1821 18.2687 45.177 17.9025C44.5562 18.5738 45.9765 19.844 44.0365 19.976C43.9575 19.0327 43.8584 18.0756 43.7701 17.0722C45.4683 16.1131 47.1017 17.0463 48.5628 16.6927C48.7951 16.8482 48.9599 16.8966 49.0344 17.0188Z" fill="#DFBDBC"/>
</g>
<defs>
<filter id="filter0_d" x="32.7617" y="2.69434" width="153.942" height="171.897" filterUnits="userSpaceOnUse" color-interpolation-filters="sRGB">
<feFlood flood-opacity="0" result="BackgroundImageFix"/>
<feColorMatrix in="SourceAlpha" type="matrix" values="0 0 0 0 0 0 0 0 0 0 0 0 0 0 0 0 0 0 127 0"/>
<feOffset dy="4"/>
<feGaussianBlur stdDeviation="2"/>
<feColorMatrix type="matrix" values="0 0 0 0 0 0 0 0 0 0 0 0 0 0 0 0 0 0 0.25 0"/>
<feBlend mode="normal" in2="BackgroundImageFix" result="effect1_dropShadow"/>
<feBlend mode="normal" in="SourceGraphic" in2="effect1_dropShadow" result="shape"/>
</filter>
</defs>
</svg>
