<svg width="110" height="115" viewBox="0 0 110 115" fill="none" xmlns="http://www.w3.org/2000/svg">
<g filter="url(#filter0_d)">
<path d="M77.9845 15.4868C78.081 15.6076 78.1835 15.7305 78.2739 15.8395L75.9212 18.8409L75.3302 18.3966L75.0774 18.1452L71.6119 20.4529C70.8787 19.326 72.3654 18.7498 71.929 17.607L69.6837 20.5837C70.6049 20.875 71.5011 21.24 72.3636 21.6753C73.0268 22.1617 73.6413 22.7114 74.1983 23.3166L74.6309 23.3416L74.5899 24.0373C73.7568 24.3061 73.7298 24.7348 73.5307 25.6309C73.4632 25.9502 73.3896 26.2676 73.3141 26.581L72.4195 26.3261C72.4469 26.2422 72.4682 26.1563 72.4915 26.0745C73.1175 23.7864 73.0202 22.691 70.3915 22.0834C70.1526 21.9912 69.9196 21.8844 69.6939 21.7634C68.1295 21.1843 67.4603 21.2347 66.7193 22.4415L65.9348 21.9607C66.1358 21.6384 66.3309 21.3143 66.5259 20.9901C66.7137 20.6047 66.8201 20.1847 66.8383 19.7564C66.964 18.6176 67.0039 17.4675 67.1515 16.3326C67.2679 15.859 67.4324 15.3984 67.6422 14.9582C69.5581 15.3634 69.1003 17.1761 69.973 18.3119L73.4014 14.3784C74.3798 15.8205 72.9991 16.7228 73.1788 17.9411C74.9656 17.5322 76.1832 15.808 77.9845 15.4868ZM69.1419 20.3244C68.9141 19.3654 68.7148 18.5019 68.4977 17.6525C67.7297 19.8479 67.7561 19.9195 69.1419 20.3244Z" fill="#4D3826"/>
<path d="M75.9215 18.8408C77.2746 19.4174 78.5409 18.0934 79.8053 19.0951C79.1176 20.5247 77.5003 20.6474 76.4156 21.7091L78.3716 23.0288C77.9658 23.339 77.5197 23.5928 77.0457 23.7832C76.5025 23.9045 75.9017 23.7751 75.3424 23.8647C75.0948 23.9016 74.8501 23.9558 74.6101 24.0272L74.6512 23.3314L74.7588 23.3366C73.7809 21.9743 74.6373 21.6037 75.4155 21.1779C75.8643 20.9496 76.2829 20.6717 76.7136 20.4177C76.6853 20.3621 76.657 20.3065 76.6089 20.2609L73.6025 20.9453C73.5439 20.8301 73.4853 20.7149 73.4267 20.5997L75.3306 18.3965L75.9215 18.8408Z" fill="#4D3826"/>
<path d="M76.5867 20.2571C76.615 20.3127 76.6433 20.3683 76.6915 20.4138C76.2608 20.6679 75.8361 20.9338 75.3934 21.174C74.6112 21.6019 73.7588 21.9705 74.7367 23.3328L74.629 23.3275L74.1964 23.3026C73.6394 22.6974 73.0249 22.1477 72.3617 21.6612C71.5013 21.2318 70.6079 20.8721 69.6899 20.5856L71.9373 17.6228C72.3737 18.7656 70.8931 19.3537 71.6202 20.4687L75.0777 18.1651L75.3306 18.4164L73.3948 20.6159C73.4533 20.731 73.5119 20.8462 73.5705 20.9614L76.5867 20.2571Z" fill="#4D3826"/>
<path d="M70.3957 22.0813C73.0244 22.6889 73.1216 23.7843 72.4957 26.0723C72.4723 26.1542 72.451 26.24 72.4237 26.3239C71.4672 29.8099 70.1891 33.1746 68.979 36.5747C67.7043 40.1526 65.4835 43.2169 63.4788 46.4012C62.9485 47.2459 62.3305 48.0751 62.6374 49.5238L63.9043 48.2895C64.0023 48.3446 64.17 48.3793 64.1984 48.4549C64.837 50.3197 65.5272 52.1683 66.0545 54.0697C66.7896 56.6454 67.4313 59.2435 68.9058 61.5331C68.9341 61.5887 69.0002 61.64 68.9906 61.6999C69.0423 63.4133 70.4269 64.2288 71.4602 65.238C72.5081 66.2533 73.6339 67.1851 74.8273 68.0247C77.6889 70.0436 80.596 72.0144 83.9125 73.2371C84.7802 73.515 85.6634 73.7418 86.5576 73.9163C86.816 75.5447 86.6423 76.6678 85.5232 77.652C84.9489 78.2314 84.5689 78.975 84.4358 79.7798C84.3134 80.522 83.877 80.814 83.3515 81.1962C81.8604 82.2846 80.4753 82.2642 78.7306 81.5469C76.0348 80.4435 73.1645 79.7738 70.3744 78.8783C68.5768 78.2928 66.7706 77.6118 64.961 77.0025C64.4962 76.8941 64.0241 76.8201 63.5485 76.781L63.9815 78.3006C59.7758 79.6249 55.5626 80.4231 51.2161 79.2394C48.988 78.6447 46.9692 77.4422 45.3851 75.7663C44.1084 74.416 42.6894 73.248 41.3238 72.0079C34.7502 66.0329 31.2451 58.5323 30.3855 49.7559C30.3846 49.4023 30.4196 49.0495 30.4898 48.703C31.2261 48.2635 32.0242 49.8423 32.696 48.4407C31.1334 47.2358 29.6104 46.0108 28.0341 44.8479C27.5311 44.4465 26.9315 44.1843 26.2954 44.0876C25.6592 43.9909 25.0088 44.0631 24.4093 44.2969C22.7217 44.9104 21.0353 45.4282 19.2797 46.0062C19.091 45.5273 18.8963 45.0264 18.667 44.4381C17.229 44.8346 16.4194 45.9163 15.8107 46.9408C15.1094 48.1274 14.0467 48.338 12.9727 48.6443C12.6267 48.7503 11.8941 48.578 11.8349 48.3731C11.759 48.1467 11.7353 47.906 11.7654 47.6691C11.7955 47.4322 11.8787 47.2051 12.0088 47.0049C12.3748 46.6345 12.7609 46.2845 13.1654 45.9567C13.5948 45.5991 14.0547 45.2799 14.5399 45.0026C17.4818 43.3562 20.452 41.7455 23.4667 40.2421C23.9816 39.9984 24.4386 39.6478 24.8074 39.2137C25.1762 38.7796 25.4483 38.2719 25.6056 37.7244C26.0938 36.2763 26.6719 34.8574 27.2561 33.4504C27.4012 33.1133 27.5564 32.7894 27.7217 32.4787C29.0384 30.0843 31.1956 28.4971 33.6271 27.3803C38.3511 25.2175 43.1402 24.9912 47.6141 28.1747C48.5523 28.9205 49.4199 29.7511 50.2059 30.6559C51.2135 31.7131 52.1202 32.8667 53.1615 33.8818C53.9178 34.6119 54.6476 35.2506 53.7985 36.3824C55.3135 36.7366 56.3075 36.106 57.1723 35.2312C58.0372 34.3564 58.9492 33.3975 59.7436 32.4236C62.2038 29.3975 64.6842 26.4111 66.4677 22.9294C66.5621 22.7414 66.6566 22.5733 66.7472 22.4272C67.4882 21.2205 68.1575 21.17 69.7218 21.7491C69.9395 21.8734 70.1645 21.9843 70.3957 22.0813ZM27.6506 37.784C31.3027 37.9661 33.8239 37.1437 34.4955 35.4173C32.6753 35.5932 31.0838 36.5727 29.2727 36.3241C29.6799 34.6972 31.5368 34.0527 31.5487 32.3168C29.702 33.6793 28.3367 35.5941 27.6506 37.784ZM14.0784 46.2872L13.6325 46.069L12.666 47.8054C13.9538 47.5853 14.2213 47.0693 14.0784 46.2872Z" fill="#C8A468"/>
<path d="M72.4233 26.3241L73.3179 26.579C72.7871 28.7986 72.1187 30.9933 71.4042 33.1564C70.3569 36.5007 68.894 39.7002 67.0498 42.6801C66.9611 42.8202 66.9685 43.0215 66.8837 43.4445L70.5147 42.0126C70.7096 43.9782 69.4846 45.2161 69.0376 46.8733C70.6183 46.9341 71.5217 45.2898 73.1088 45.4024C73.4323 46.9526 72.3101 48.0683 72.0721 49.3992C71.8342 50.73 71.3593 52.0864 70.9682 53.4601L75.3213 54.7454C74.605 56.6395 72.3231 56.3204 71.6856 58.0944C72.1974 58.334 72.6894 58.5837 73.1932 58.8274C73.8631 59.1615 74.6102 59.4214 75.2645 59.8035C75.5923 60.0566 75.8822 60.3553 76.1255 60.6904C75.8093 61.0415 75.4418 61.343 75.0357 61.5847C74.0997 61.9757 73.1031 62.2277 72.147 62.579C71.7457 62.7788 71.3643 63.0163 71.008 63.2883C75.0704 67.501 79.8721 70.2479 84.9854 72.5363C86.2174 71.4398 85.3194 69.5269 86.7456 68.5665C87.968 69.8394 87.4615 71.5268 88.0118 73.0216L93.2754 73.3939C92.7841 75.5435 90.7207 74.5634 89.7195 75.5926C91.083 76.8187 93.6831 76.1711 94.4012 78.5754C92.6417 79.4703 90.9478 78.5972 89.1068 78.6537C90.24 80.282 92.733 80.8687 92.4593 83.6625L86.2672 81.8578C87.2553 84.1148 89.5522 85.4561 88.8474 88.4342C88.5489 88.2111 88.2524 87.9819 87.9461 87.7728C86.1587 86.5522 84.3728 85.3343 82.5882 84.1191C82.2258 83.8631 81.8292 83.6592 81.4102 83.5134C76.4972 81.953 71.5783 80.4106 66.6535 78.8861C66.1879 78.7138 65.6766 78.7103 65.2087 78.8761C64.9505 79.0074 64.6924 79.1388 64.4261 79.2442L64.0089 78.2866L63.576 76.767C64.0516 76.8061 64.5237 76.8801 64.9884 76.9885C66.7981 77.5978 68.5883 78.2769 70.4018 78.8643C73.184 79.7638 76.0543 80.4335 78.7581 81.5329C80.4987 82.2423 81.8839 82.2626 83.379 81.1822C83.9045 80.7999 84.321 80.5181 84.4633 79.7658C84.5964 78.961 84.9764 78.2174 85.5507 77.638C86.6698 76.6538 86.8434 75.5307 86.5851 73.9023C85.6909 73.7278 84.8076 73.501 83.9399 73.2231C80.6235 72.0004 77.7164 70.0296 74.8547 68.0107C73.6614 67.1711 72.5356 66.2393 71.4876 65.224C70.4703 64.2067 69.0618 63.4034 69.0181 61.6859C69.0197 61.6301 68.9615 61.5747 68.9332 61.5191C67.4587 59.2295 66.8171 56.6314 66.0819 54.0557C65.5388 52.1623 64.8485 50.3138 64.2258 48.4409C64.1895 48.3694 64.0298 48.3306 63.9318 48.2755L62.6847 49.4997C62.3738 48.0531 62.9959 47.2218 63.5261 46.3771C65.5269 43.1948 67.7477 40.1305 69.0263 36.5506C70.2086 33.1647 71.4588 29.7942 72.4233 26.3241ZM90.3176 77.368C89.0478 76.4541 89.0478 76.4541 87.2702 76.7334C88.653 77.5748 88.7188 77.5763 90.3176 77.368ZM90.7548 82.1099L90.9868 81.6619L86.2437 78.1454L85.0753 80.3694L90.7548 82.1099ZM71.7568 47.0199C70.7361 47.5391 70.1205 47.8522 69.5088 48.1633C68.8972 48.4744 68.1795 48.7145 67.2495 49.0976C67.2644 46.9253 69.0196 45.6976 69.0967 43.8836C68.001 44.216 67.0383 44.4857 66.0919 44.7971C65.8617 44.9005 65.6608 45.0593 65.5072 45.2595C64.8569 46.0352 64.5696 46.8462 65.0072 47.8835C65.7 49.5307 66.3453 51.2022 66.8948 52.8724C67.5462 54.8607 67.9968 56.9162 68.7138 58.8761C69.1382 60.035 69.9066 61.064 70.5239 62.1598L74.4893 60.6677C72.7274 59.7692 71.0332 59.4261 69.9477 58.0586C70.5836 56.6453 72.4588 56.6463 73.2019 55.1685L69.5427 54.5301L71.7568 47.0199ZM87.3472 86.1727L87.6418 85.8479C87.3456 85.3637 87.083 84.8573 86.7511 84.4013C86.3115 83.7814 85.8335 83.1897 85.32 82.6295C84.4588 81.7228 84.1862 81.7765 82.9396 83.0604L87.3472 86.1727Z" fill="#4D3826"/>
<path d="M68.496 17.6483C68.7032 18.5078 68.9143 19.3652 69.1401 20.3202C67.7564 19.9192 67.73 19.8476 68.496 17.6483Z" fill="#4D3826"/>
<path d="M65.9392 21.9682L66.7237 22.4491C66.633 22.5952 66.5385 22.7632 66.4441 22.9512C64.6507 26.443 62.1644 29.4274 59.7201 32.4454C58.9178 33.4334 58.0394 34.3601 57.1487 35.253C56.2581 36.146 55.2899 36.7584 53.7749 36.4042C54.624 35.2724 53.8783 34.6418 53.1379 33.9036C52.1165 32.8784 51.19 31.7349 50.1823 30.6777C49.3963 29.7729 48.5287 28.9424 47.5905 28.1966C43.1088 25.027 38.3196 25.2533 33.5956 27.4162C31.1641 28.5329 29.0228 30.112 27.6902 32.5146L26.8918 32.0358C27.3072 31.2996 27.7706 30.589 28.2857 29.862C29.7383 27.8034 30.5761 25.3326 31.7403 23.0707C32.2732 22.0347 32.5196 20.7796 33.7799 20.0335L35.289 23.0004C37.2323 21.3071 38.5399 19.0422 41.0308 17.5803L40.9971 21.6618L45.5906 17.9155C46.266 19.3318 45.2634 20.4566 45.5433 21.754L50.5834 19.1904C51.4211 21.024 50.8572 22.7756 50.7522 24.6037C52.8107 24.5915 54.1923 22.934 56.348 22.5823L55.4516 30.1472L59.3654 27.2466C59.4684 28.609 59.5286 29.5332 59.6086 30.4474C60.3727 29.9838 62.6089 27.4216 63.3635 26.1729C64.181 24.7822 65.0741 23.3831 65.9392 21.9682ZM55.7082 35.0059C58.1446 33.1418 58.9479 31.7333 58.1746 29.3971C57.5562 29.8916 56.9896 30.3797 56.3907 30.8043C55.7918 31.2289 55.3908 32.0228 54.2145 31.6563L54.987 24.3294C52.9969 25.0067 51.4986 26.2088 49.3211 26.2915L50.0304 21.0715L49.6139 20.7834L44.1526 24.1011L44.5174 20.0712C42.838 21.3003 41.6846 22.8168 39.7766 23.2624C39.32 22.0699 40.4542 20.9481 39.6352 19.7999C37.8817 21.2667 36.8256 23.3087 34.852 24.6574L33.4137 21.8296L30.6374 27.576C32.7193 26.2338 35.0568 25.3377 37.5024 24.9441C39.4144 24.552 41.3827 24.5188 43.3068 24.8463C44.864 25.1405 46.3473 25.7406 47.671 26.612C48.9946 27.4833 50.1323 28.6086 51.018 29.9227C52.4145 31.8819 54.4907 32.9956 55.7082 35.0059Z" fill="#4D3826"/>
<path d="M87.2705 76.7332C89.0482 76.4539 89.0482 76.4539 90.3179 77.3678C88.7191 77.5761 88.6533 77.5746 87.2705 76.7332Z" fill="#4D3826"/>
<path d="M90.9867 81.6619L90.7546 82.1099L85.0751 80.3695L86.2435 78.1454L90.9867 81.6619Z" fill="#4D3826"/>
<path d="M69.4931 48.1612C70.1188 47.8779 70.7203 47.537 71.741 47.0178L69.5171 54.548L73.1763 55.1864C72.4292 56.6662 70.558 56.6632 69.922 58.0765C71.0116 59.452 72.7018 59.7871 74.4637 60.6856L70.4983 62.1777C69.881 61.0819 69.1126 60.0529 68.6882 58.894C67.9712 56.9341 67.5206 54.8786 66.8692 52.8903C66.3116 51.2042 65.6664 49.5427 64.9816 47.9013C64.544 46.8641 64.8313 46.0531 65.4816 45.2774C65.6352 45.0772 65.8361 44.9183 66.0663 44.815C67.0127 44.5036 67.9754 44.2339 69.0711 43.9015C69 45.7274 67.2547 46.9351 67.2238 49.1155C68.1637 48.7124 68.8395 48.4587 69.4931 48.1612Z" fill="#4D3826"/>
<path d="M87.6307 85.8535L87.336 86.1784L82.9224 83.0542C84.169 81.7702 84.4416 81.7165 85.3028 82.6233C85.8163 83.1834 86.2943 83.7751 86.7339 84.395C87.0719 84.8629 87.3344 85.3693 87.6307 85.8535Z" fill="#4D3826"/>
<path d="M58.1743 29.3971C58.9477 31.7333 58.1443 33.1418 55.708 35.0059C54.4946 33.0035 52.4143 31.882 51.0057 29.8989C50.1199 28.5848 48.9823 27.4596 47.6586 26.5882C46.335 25.7168 44.8516 25.1167 43.2945 24.8225L44.1403 24.0774L49.5838 20.7836L50.0003 21.0717L49.291 26.2918C51.4685 26.209 52.9668 25.007 54.9569 24.3297L54.1844 31.6566C55.3686 32.0191 55.7776 31.2211 56.3606 30.8046C56.9436 30.3881 57.5481 29.8957 58.1743 29.3971Z" fill="#4D3826"/>
<path d="M44.5167 20.0714L44.1519 24.1014L43.3061 24.8465C41.382 24.519 39.4137 24.5522 37.5017 24.9443C35.0561 25.3379 32.7186 26.2341 30.6367 27.5763L33.413 21.8298L34.8412 24.6378C36.8148 23.289 37.8709 21.2471 39.6244 19.7803C40.4434 20.9285 39.3092 22.0503 39.7658 23.2428C41.6738 22.7972 42.8272 21.2807 44.5167 20.0714Z" fill="#4D3826"/>
<path d="M63.9989 78.2965L64.4161 79.2542C62.0735 80.2607 59.5866 80.5708 57.0694 80.8113C56.7954 80.8805 56.5274 80.9716 56.2681 81.0839C56.1084 83.3548 55.9743 85.5777 55.7803 87.791C55.6756 89.2563 55.4894 90.7146 55.2225 92.1591C54.9995 92.9533 55.0866 93.8025 55.466 94.5348C56.0028 95.5493 56.474 96.597 56.8766 97.6718C57.256 98.6536 56.8869 99.1663 55.8402 99.0938C54.9619 98.9781 54.0956 98.7847 53.2515 98.5158C52.7906 98.36 52.3383 98.1795 51.8967 97.9751C51.839 98.9305 51.8811 99.8892 52.022 100.836L51.0666 101.002C50.9513 100.166 50.8817 99.3213 50.7106 98.4934C50.5951 97.9323 50.5038 97.6937 50.197 97.7098L50.0775 96.8458C50.4358 96.7935 50.7981 96.7392 51.1503 96.655C51.6861 96.5444 52.199 96.3427 52.6667 96.0587C53.0567 95.7766 53.3761 95.4081 53.5999 94.982C53.8238 94.5559 53.946 94.0838 53.957 93.6026C54.2702 90.1788 54.6233 86.7647 54.9345 83.337C55.0068 82.5453 55.0053 81.7462 55.0431 80.8771C53.1909 80.9572 51.3425 80.6467 49.618 79.9657C47.8936 79.2847 46.3318 78.2486 45.034 76.9246L44.7027 77.1481C44.7635 79.6167 44.91 82.0768 44.8572 84.5383L44.8444 85.2797L43.8041 85.2689C43.8205 82.441 43.6515 79.6124 43.4906 76.7897C43.4283 76.1829 43.1745 75.6116 42.7659 75.1586C41.8782 74.1604 40.8757 73.2705 39.9088 72.3425C36.3721 68.9473 33.486 65.1111 31.7325 60.5038C31.0931 58.7058 30.5477 56.8757 30.0985 55.0209C30.025 54.6524 29.8709 54.3047 29.6473 54.0028C29.4237 53.7008 29.1361 53.452 28.8051 53.2742C25.9385 51.5894 23.1074 49.8632 20.312 48.0956C19.9843 47.8535 19.596 47.707 19.1901 47.6725C18.7842 47.638 18.3767 47.7168 18.0129 47.9002C16.4353 48.5826 14.8253 49.1916 13.199 49.7388C12.4316 49.9992 11.5483 50.2185 10.9407 49.3877C10.6612 49.0266 10.512 48.5815 10.5176 48.1248C10.5231 47.6682 10.683 47.2268 10.9712 46.8726C11.4308 46.2729 11.9483 45.72 12.5162 45.2219L13.1553 45.9966C12.7508 46.3245 12.3647 46.6744 11.9987 47.0449C11.8694 47.2432 11.7861 47.4679 11.755 47.7026C11.7238 47.9373 11.7456 48.176 11.8187 48.4012C11.8819 48.604 12.6145 48.7763 12.9565 48.6724C14.0245 48.3541 15.0932 48.1555 15.7945 46.9689C16.3953 45.9484 17.2207 44.8586 18.6509 44.4662C18.8801 45.0545 19.0749 45.5553 19.2635 46.0343C21.039 45.4461 22.7412 44.9203 24.413 44.3149C25.0088 44.0801 25.6557 44.0052 26.2895 44.0976C26.9232 44.1901 27.5217 44.4467 28.0256 44.842C29.6098 45.9909 31.1229 47.226 32.6876 48.4348C32.0157 49.8364 31.2177 48.2576 30.4814 48.6971C30.4111 49.0437 30.3761 49.3964 30.377 49.75C31.2427 58.5383 34.7418 66.0271 41.3373 72.0059C42.7029 73.246 44.13 74.4298 45.3986 75.7642C46.9827 77.4419 49.0023 78.6459 51.2316 79.2414C55.5901 80.4289 59.7933 79.6208 63.9989 78.2965ZM55.6866 97.6321C55.3567 96.8951 55.0612 96.2355 54.6686 95.3554L52.9415 97.1887C54.0241 97.5479 54.6391 98.3049 55.6866 97.6321ZM29.1668 48.7958C29.1129 48.1984 29.1171 47.3713 28.7484 47.069C27.8644 46.3138 26.7436 45.3291 25.7253 45.3321C24.1032 45.3373 22.4577 45.9943 20.7216 46.8174C23.4175 49.0706 26.3142 50.4018 29.3205 52.0172C29.2682 50.784 29.2613 49.7876 29.1668 48.7958ZM18.0332 46.5051C17.9645 46.37 17.8938 46.231 17.8312 46.1079L17.2331 46.6521C17.3253 46.7252 17.4499 46.8818 17.4996 46.8615C17.6875 46.7585 17.8661 46.6392 18.0332 46.5051Z" fill="#4D3826"/>
<path d="M34.4954 35.4171C33.8057 37.1376 31.2946 37.97 27.6504 37.7838C28.3327 35.5903 29.6959 33.6712 31.5425 32.3047C31.5305 34.0405 29.6737 34.685 29.2664 36.312C31.0837 36.5725 32.6751 35.593 34.4954 35.4171Z" fill="#4D3826"/>
<path d="M55.0515 80.8729C54.9977 81.7501 55.0151 82.5411 54.9429 83.3328C54.6297 86.7566 54.2765 90.1707 53.9654 93.5985C53.9527 94.0786 53.8293 94.5494 53.6047 94.974C53.3802 95.3987 53.0606 95.7657 52.671 96.0466C52.2033 96.3306 51.6904 96.5323 51.1546 96.6429C50.8024 96.727 50.4401 96.7813 50.0817 96.8336C49.5145 96.8845 48.9565 97.0103 48.4223 97.2077C46.2425 98.1215 44.3751 97.8016 42.5328 95.939C45.1676 92.7942 44.8285 88.9923 44.8387 85.2676L44.8497 84.5422C44.9025 82.0807 44.7439 79.5968 44.6951 77.1519L45.0264 76.9285C46.3267 78.2531 47.8915 79.2889 49.6188 79.9685C51.3461 80.6481 53.1972 80.9563 55.0515 80.8729Z" fill="#C8A468"/>
<path d="M26.8914 32.0359L27.7097 32.5145C27.5365 32.8292 27.3813 33.1531 27.2441 33.4862C26.66 34.8931 26.0819 36.312 25.5936 37.7602C25.4371 38.3082 25.1656 38.8165 24.7971 39.2514C24.4286 39.6862 23.9717 40.0375 23.4568 40.2818C20.4421 41.7852 17.4719 43.3959 14.5299 45.0423C14.0448 45.3196 13.5849 45.6388 13.1555 45.9964L12.5165 45.2216L13.0828 44.6936C13.5387 44.3562 14.0243 44.0607 14.5334 43.8108C13.21 42.6242 12.3075 41.2135 10.1708 41.7304C9.03081 42.0053 7.70994 42.3472 6.37691 41.7904C6.69353 40.3096 8.2174 40.2194 8.96198 39.2458L4.4869 36.4627C4.6713 35.4591 5.09473 35.3087 5.91116 35.5083C7.49825 35.9159 9.12039 36.2056 10.9125 36.5839C10.6554 34.545 9.54004 32.9027 9.51015 30.8782C11.461 31.1457 11.591 33.2492 13.0653 33.7692L13.8901 30.85C15.2622 31.5819 15.3443 32.785 15.7472 33.7049C15.8906 34.0809 16.1105 34.423 16.3931 34.7096C16.6757 34.9962 17.0147 35.2209 17.3887 35.3695C19.6171 36.2908 21.8396 37.24 24.2201 38.2638C24.455 37.6444 24.6528 37.1489 24.8326 36.6275C25.3536 35.0281 26.0438 33.4888 26.8914 32.0359ZM21.9349 40.0811C22.3919 39.7914 22.8328 39.477 23.2556 39.1393L16.4489 36.0575C15.0062 36.6513 14.3627 37.5486 14.4049 39.0469C14.4255 39.7163 13.94 40.4032 13.6347 41.2183C14.159 41.5826 14.6627 41.9756 15.1434 42.3957C15.8255 43.0486 16.4388 42.9766 17.221 42.5487C18.7735 41.6991 20.3664 40.9189 21.9349 40.0811ZM14.5878 36.0843C15.0657 35.4513 15.0957 35.471 14.348 34.5415L13.6893 36.4113L11.7019 34.5876L12.5043 37.9639L8.72772 37.3502C9.40601 38.615 11.1647 37.8954 11.7452 39.4299L9.06828 40.7914C9.69337 41.0608 10.3977 41.0816 11.0376 40.8496C12.3128 40.241 13.7783 39.7805 13.5613 37.7912C13.4979 37.2636 14.183 36.6251 14.5878 36.0843Z" fill="#4D3826"/>
<path d="M54.6693 95.3552C55.062 96.2353 55.3575 96.8949 55.6874 97.632C54.6398 98.3048 54.0248 97.5478 52.9581 97.1805L54.6693 95.3552Z" fill="#4D3826"/>
<path d="M28.7569 47.0849C29.1297 47.3952 29.1214 48.2143 29.1754 48.8118C29.2699 49.8035 29.2767 50.7999 29.3171 52.0391C26.3108 50.4237 23.4141 49.0926 20.7183 46.8394C22.4583 46.0243 24.0998 45.3593 25.7219 45.3541C26.7441 45.3292 27.8489 46.3219 28.7569 47.0849Z" fill="#C8A468"/>
<path d="M23.2558 39.1394C22.8379 39.4738 22.4023 39.7855 21.9509 40.073C20.3784 40.9129 18.7736 41.6891 17.2132 42.5528C16.4548 42.9685 15.8216 43.0407 15.1356 42.3997C14.6549 41.9797 14.1512 41.5866 13.6269 41.2224C13.9322 40.4072 14.4177 39.7204 14.3971 39.0509C14.363 37.5685 14.9984 36.6554 16.4411 36.0616L23.2558 39.1394Z" fill="#C8A468"/>
<path d="M43.8048 85.269L44.8451 85.2797C44.8288 88.9924 45.1679 92.7944 42.5392 95.9511C44.3814 97.8137 46.2489 98.1336 48.4287 97.2198C48.9629 97.0224 49.5209 96.8966 50.0881 96.8457L50.2076 97.7098C49.8481 97.778 49.5022 97.9049 49.1839 98.0855L50.7172 101.1L51.0772 101.002L52.0327 100.836C52.1991 102.431 52.3098 104.044 51.2411 105.688C50.3062 103.624 50.0593 101.635 48.7382 99.9219C47.6952 102.127 48.0907 104.861 45.3664 106.286C45.0185 104.099 44.8629 102.043 44.6519 99.7707C42.3516 101.706 40.0542 103.194 36.9489 103.409C37.4253 101.397 39.287 100.88 40.1094 99.3417C38.3893 99.0068 36.5133 99.771 34.7108 98.7531C35.011 98.3605 35.1557 97.9569 35.424 97.8455C36.7813 97.3001 38.1527 96.7725 39.5527 96.3503C41.9193 95.6465 43.0162 94.0387 43.3644 91.647C43.6586 89.5337 43.8057 87.4026 43.8048 85.269ZM47.855 98.7064C47.0802 98.7556 46.6103 98.8146 46.0566 98.8663C45.6126 100.478 45.6402 102.183 46.1363 103.78L46.5412 103.839L47.855 98.7064ZM44.2668 98.5319C42.7115 97.8232 42.1459 98.7458 41.4855 99.4916C40.825 100.238 40.2174 100.851 39.5844 101.533L39.9056 101.87C41.5248 101.151 42.8461 100.004 44.2468 98.532L44.2668 98.5319ZM37.5893 98.2989C39.1646 98.4474 40.5227 98.3066 41.9503 97.2605C40.5773 96.6741 38.9044 97.12 37.5893 98.2989Z" fill="#4D3826"/>
<path d="M50.2015 97.6977C50.5083 97.6816 50.5996 97.9201 50.7151 98.4813C50.8862 99.3091 50.9558 100.154 51.0712 100.99L50.7111 101.088L49.1778 98.0734C49.4961 97.8928 49.842 97.7659 50.2015 97.6977Z" fill="#4D3826"/>
<path d="M14.3479 34.5415C15.0956 35.471 15.0656 35.4513 14.5877 36.0843C14.1829 36.6251 13.4978 37.2636 13.5612 37.7912C13.7782 39.7805 12.3087 40.243 11.0374 40.8496C10.3975 41.0816 9.69325 41.0608 9.06815 40.7915L11.7451 39.4299C11.1646 37.8954 9.40791 38.619 8.7276 37.3502L12.5042 37.9639L11.7018 34.5877L13.6892 36.4113L14.3479 34.5415Z" fill="#4D3826"/>
<path d="M46.0567 98.8663C46.6064 98.8167 47.0804 98.7756 47.8591 98.7144L46.5334 103.843L46.1284 103.784C45.6342 102.186 45.6093 100.479 46.0567 98.8663Z" fill="#4D3826"/>
<path d="M17.8018 46.1081C17.8705 46.2431 17.9412 46.3821 18.0038 46.5052C17.8284 46.64 17.6411 46.7587 17.4443 46.8598C17.3966 46.884 17.27 46.7235 17.1778 46.6504L17.8018 46.1081Z" fill="#D32D59"/>
<path d="M41.4576 99.4957C42.118 98.7498 42.6816 97.8232 44.2389 98.5359C42.8381 100.008 41.5168 101.155 39.8737 101.866L39.5525 101.529C40.1975 100.851 40.8486 100.185 41.4576 99.4957Z" fill="#4D3826"/>
<path d="M41.95 97.2602C40.5163 98.2944 39.1523 98.4533 37.5889 98.2986C38.904 97.1198 40.5769 96.6738 41.95 97.2602Z" fill="#4D3826"/>
<path d="M13.6323 46.0692L14.0782 46.2874C14.2211 47.0696 13.9536 47.5855 12.6539 47.8117L13.6323 46.0692Z" fill="#4D3826"/>
</g>
<defs>
<filter id="filter0_d" x="0.486816" y="14.3784" width="97.9144" height="99.9079" filterUnits="userSpaceOnUse" color-interpolation-filters="sRGB">
<feFlood flood-opacity="0" result="BackgroundImageFix"/>
<feColorMatrix in="SourceAlpha" type="matrix" values="0 0 0 0 0 0 0 0 0 0 0 0 0 0 0 0 0 0 127 0"/>
<feOffset dy="4"/>
<feGaussianBlur stdDeviation="2"/>
<feColorMatrix type="matrix" values="0 0 0 0 0 0 0 0 0 0 0 0 0 0 0 0 0 0 0.25 0"/>
<feBlend mode="normal" in2="BackgroundImageFix" result="effect1_dropShadow"/>
<feBlend mode="normal" in="SourceGraphic" in2="effect1_dropShadow" result="shape"/>
</filter>
</defs>
</svg>
