<svg width="134" height="141" viewBox="0 0 134 141" fill="none" xmlns="http://www.w3.org/2000/svg">
<g filter="url(#filter0_d)">
<path d="M43.5187 132.251C42.8774 129.043 42.0914 129.448 39.5777 129.182L40.2774 125.774C39.5103 125.835 38.9767 125.87 38.1842 125.931C39.0046 123.56 39.7837 121.431 41.3703 119.654C43.3654 117.416 45.2861 115.124 47.2214 112.842C49.4871 110.173 50.8011 106.983 52.1612 103.801C52.4846 103.038 52.7414 102.257 53.0973 101.298L53.1874 101.278C53.5423 101.49 53.9066 101.687 54.2696 101.878C53.3101 104.736 52.0453 107.483 50.4971 110.071C49.0279 112.457 47.4064 114.745 45.6429 116.922C44.6299 118.215 43.2827 119.247 42.2024 120.491C41.5108 121.322 40.9225 122.233 40.4501 123.205C40.1075 123.91 40.0655 124.693 41.0967 125.147C41.324 124.921 41.5394 124.697 41.7793 124.5C42.0192 124.302 42.3258 124.122 42.6853 123.866C43.0461 124.908 42.3708 125.301 41.952 125.803C40.6212 127.454 40.916 128.252 43.0616 128.707L44.5588 126.924C45.2354 128.343 43.2357 129.499 44.6255 130.554C45.1219 129.948 45.5715 129.415 46.0244 128.868C46.1436 128.924 46.2582 128.987 46.3834 129.041L46.3918 130.456C46.489 130.497 46.5923 130.538 46.6909 130.585C47.059 130.083 47.4737 129.62 47.7845 129.086C49.9523 125.359 53.3645 122.514 57.4215 121.053C59.0335 120.449 60.5979 119.725 62.1016 118.886C63.6484 118.018 65.3445 117.199 66.4895 115.934C68.3274 113.82 70.0056 111.573 71.5101 109.21C73.4127 106.407 75.0336 103.438 76.9635 100.673C79.0261 97.7288 81.9154 95.4624 85.2661 94.1604C87.1411 93.409 89.0853 92.843 91.0707 92.4706C91.9585 92.6613 92.8292 92.925 93.6736 93.259C92.19 93.4243 90.7191 93.6883 89.2706 94.0493C84.5984 95.2197 80.6424 97.4731 77.9295 101.575C76.0802 104.392 74.3042 107.256 72.4183 110.049C71.1054 112.012 69.7093 113.911 68.2912 115.796C66.7427 117.861 64.4564 118.917 62.2201 120C60.0973 121.026 57.9506 122.001 55.7914 122.947C53.3279 124.043 51.2571 125.863 49.855 128.166C49.0139 129.496 47.9557 130.698 46.8998 132.082C45.6887 131.038 44.6289 131.831 43.5187 132.251Z" fill="#36464E"/>
<path d="M46.6715 130.583C46.5729 130.536 46.4697 130.495 46.3724 130.454L46.364 129.039C46.2388 128.985 46.1243 128.922 46.005 128.866C45.5521 129.413 45.1026 129.946 44.6061 130.552C43.2163 129.497 45.2161 128.341 44.5394 126.922L43.0423 128.704C40.8927 128.232 40.5979 127.434 41.9327 125.8C42.3334 125.303 43.002 124.936 42.6659 123.864C42.3005 124.121 42.0166 124.29 41.7599 124.498C41.5033 124.705 41.3047 124.919 41.0773 125.145C40.0461 124.691 40.0855 123.896 40.4308 123.203C40.9031 122.231 41.4915 121.32 42.1831 120.489C43.2634 119.245 44.6105 118.212 45.6236 116.92C47.3871 114.743 49.0085 112.455 50.4777 110.069C52.026 107.481 53.2908 104.734 54.2502 101.876C61.9751 105.808 71.7072 104.401 72.5015 102.055C73.3262 99.5891 78.5063 96.1731 82.9105 93.3806C85.5137 91.7327 88.8016 91.9993 91.0506 92.4939C89.0652 92.8663 87.121 93.4323 85.246 94.1836C81.8953 95.4857 79.006 97.752 76.9434 100.696C75.0315 103.458 73.3746 106.434 71.49 109.233C69.9855 111.596 68.3073 113.843 66.4694 115.957C65.3064 117.226 63.6103 118.045 62.0815 118.91C60.5778 119.748 59.0134 120.472 57.4014 121.076C53.3444 122.538 49.9322 125.382 47.7644 129.109C47.4543 129.618 47.0396 130.081 46.6715 130.583Z" fill="#BBBABA"/>
<path d="M120.904 94.7663C121.9 96.4362 122.894 97.5525 122.769 99.3929L119.429 98.716C118.865 99.759 117.874 99.605 116.9 99.1263C116.142 98.7883 115.431 98.3541 114.785 97.8344C112.962 96.328 110.826 95.2483 108.532 94.6744C103.713 93.2567 98.6648 92.7831 93.6656 93.2797C92.8211 92.9457 91.9505 92.682 91.0626 92.4914C95.6727 91.6993 100.391 91.787 104.969 92.7499C108.998 93.5272 112.895 94.705 116.063 97.5476C116.625 97.9116 117.233 98.2014 117.87 98.4099C117.69 96.8755 115.83 96.5473 116.322 94.9726C118.174 95.6109 118.98 98.0779 121.439 97.6641C120.826 96.2722 119.849 95.071 118.611 94.1868C118.15 93.8348 117.447 93.5296 118.027 92.502C119.671 93.1925 121.287 93.9016 122.932 94.5728C123.805 94.9374 124.71 95.2192 125.635 95.4147C125.904 95.4627 126.385 95.0171 126.551 94.6848C126.641 94.5203 126.325 93.9412 126.069 93.8339C124.22 93.0121 122.59 91.6641 120.466 91.4819C119.881 91.4277 119.34 91.2002 119.592 90.1691C121.269 90.1788 122.97 90.1832 124.675 90.1802C125.392 90.18 126.212 90.3842 126.697 89.2957C126.263 89.0519 125.798 88.8659 125.316 88.7426C123.672 88.625 122.021 88.6161 120.38 88.5672C119.744 88.5369 118.826 89.1728 118.56 88.1924C118.295 87.212 119.4 87.2275 119.92 86.874C120.605 86.409 121.405 86.1262 122.111 85.7006C122.545 85.4012 122.954 85.0673 123.334 84.702C120.632 84.3238 117.878 84.7573 115.424 85.9475C112.984 84.8147 110.629 83.6949 108.242 82.6264C107.377 82.2433 106.405 81.7707 105.635 82.7644C104.864 83.7581 104.147 83.4435 103.219 83.2317C102.057 82.9579 100.858 82.8875 99.6798 82.6804C99.1099 82.5789 98.5446 82.4701 97.9767 82.3492L98.1132 81.652C98.4111 81.7188 98.7004 81.7749 98.9991 81.8163C100.728 82.0662 102.486 82.102 104.554 82.2588C105.139 81.8534 105.853 80.9789 106.702 80.8304C108.155 80.568 108.851 79.6661 109.573 78.5949C110.151 77.7567 110.863 77.0149 111.468 76.1895C111.848 75.7749 112.133 75.2828 112.304 74.7471C112.55 73.2325 113.623 72.1535 114.152 70.835C114.681 69.5165 114.414 67.9572 114.529 66.503C114.549 66.1902 114.748 65.8947 114.781 65.5853C114.962 64.5279 115.045 63.456 115.029 62.3833C114.84 59.9759 113.234 58.1944 111.988 56.3025C111.703 55.8679 111.385 55.4557 111.037 55.0696L111.434 54.8125C111.045 54.6252 110.676 54.4669 110.329 54.3375C108.395 52.5272 105.919 51.453 103.393 50.5595C102.022 50.0663 100.89 49.0704 100.226 47.7736C97.9821 43.9477 95.1145 41.0079 90.5653 40.3006C90.0575 40.2536 89.5745 40.0597 89.1751 39.7427C88.7758 39.4257 88.4773 38.9993 88.3163 38.5155C87.7679 37.0212 87.0632 35.5892 86.2138 34.2431C84.9589 32.3404 83.4234 30.5938 81.2004 29.8732C81.0351 29.6073 80.8524 29.3201 80.6536 29.0741L80.7554 28.6489L80.9287 28.6927C83.5646 29.373 85.3265 31.2336 86.775 33.3582C87.6266 34.6997 88.3363 36.1262 88.8928 37.6146C89.2951 38.6153 89.8057 39.2209 90.932 39.2758C92.7406 39.3922 94.4626 40.0921 95.8395 41.2705C98.1329 43.1151 100.43 44.9778 101.61 47.7719C102.013 48.7159 102.737 49.0353 103.612 49.347C107.195 50.644 110.559 52.3166 112.887 55.4945C113.958 56.9822 114.906 58.5554 115.72 60.1983C116.623 61.9893 116.38 63.8934 115.945 65.8144C115.609 67.1473 115.658 68.578 115.444 69.9533C115.421 70.6928 115.201 71.4127 114.806 72.0385C114.148 72.8077 113.701 73.7345 113.508 74.7282C113.23 75.841 112.617 76.8414 111.752 77.5941C110.581 78.7135 109.71 80.1639 108.579 81.6395C110.382 82.3958 112.083 82.8597 113.504 83.769C113.987 84.1446 114.569 84.372 115.18 84.4235C115.79 84.475 116.402 84.3485 116.942 84.0593C119.193 83.1252 121.67 82.8771 124.062 83.346C124.312 83.3907 124.556 83.4638 124.79 83.5639C124.887 83.6055 124.938 83.7517 125.076 83.9482C124.655 85.2996 123.651 86.206 121.91 87.1613C124.955 87.4119 127.666 87.4335 128.786 90.5242L124.209 91.5289C125.13 92.0254 126.13 92.3661 126.782 92.9847C127.434 93.6033 127.81 94.6853 128.289 95.4615C125.744 97.6885 123.575 95.8102 120.904 94.7663Z" fill="#36464E"/>
<path d="M116.361 94.9766C115.866 96.5392 117.726 96.8675 117.908 98.4139C117.271 98.2054 116.664 97.9156 116.101 97.5516C112.958 94.7037 109.037 93.5312 105.007 92.7539C100.43 91.791 95.7113 91.7033 91.1011 92.4953C88.8522 92.0007 85.5643 91.7342 82.961 93.3821C78.5388 96.1785 73.3767 99.5905 72.5521 102.057C71.7577 104.403 62.0437 105.805 54.3008 101.877C54.4164 101.543 54.5173 101.2 54.6222 100.875C54.1218 100.676 53.6444 100.425 53.1982 100.124C52.0952 99.8318 51.0792 99.2772 50.2372 98.5073C49.3755 97.7027 48.6801 96.7368 48.1904 95.6643L48.2827 95.5685C47.9939 95.1685 47.7478 94.7394 47.5484 94.2881C47.2376 94.3875 46.9426 94.5306 46.6723 94.7133L45.5713 95.4334C44.4243 92.2733 42.032 77.2747 44.3524 75.3992C46.6727 73.5238 47.7006 71.9258 53.0369 62.9988C56.8026 56.6954 55.2268 50.4062 53.9845 47.2418C54.1834 45.5399 54.228 43.8234 54.1177 42.1135C53.9994 39.6857 53.7067 37.2696 53.2419 34.8838C52.5882 31.3321 50.4885 29.0798 46.8012 28.4854C46.5506 28.4404 46.3051 28.3698 46.0688 28.2748C45.9641 28.209 45.8699 28.1278 45.7893 28.034C46.6917 27.0112 46.6917 27.0112 49.8272 27.6449C49.7324 27.2973 49.5773 26.9692 49.3689 26.6753C48.3899 25.8578 47.3709 25.0869 46.3672 24.3C46.0383 24.0358 45.729 23.7482 45.4417 23.4393C44.8523 22.8342 44.4631 22.0626 44.3269 21.2289C45.6037 20.8794 46.3304 21.7523 47.1247 22.5033C47.627 22.9847 47.989 23.5726 48.4812 24.094C48.8542 24.3602 49.2595 24.5779 49.6873 24.7421C49.7077 24.3566 49.634 23.972 49.4726 23.6214C49.3111 23.2708 49.0669 22.9647 48.7608 22.7296C47.769 21.7386 46.737 20.7943 45.7545 19.7887C45.0415 19.0639 44.794 18.281 45.8299 17.4367C47.0235 17.5398 47.7656 18.3967 48.4889 19.2829C49.3531 20.3522 50.2293 21.4755 51.1596 22.5303C51.5769 22.9559 52.0253 23.3499 52.5011 23.7089C52.6393 23.6219 52.7823 23.5275 52.9133 23.4358C52.7261 22.7482 52.4939 22.0737 52.2182 21.4166C51.6907 20.3615 51.097 19.3776 50.6181 18.3433C50.3198 17.8315 50.1427 17.2582 50.1003 16.6674C50.0579 16.0765 50.1513 15.4838 50.3735 14.9347C52.5169 16.9073 53.9236 19.5519 54.3611 22.4318C55.7339 21.0288 55.3174 18.8162 57.3905 17.6498C57.4862 19.0172 57.4909 20.3894 57.4046 21.7574C57.0831 23.5883 57.2788 25.4725 57.9695 27.1983C58.8988 29.4242 59.609 31.799 60.907 33.8117C62.3377 36.085 61.8523 38.1178 61.0231 40.2765C60.5327 41.3132 60.1155 42.383 59.7744 43.4779C59.4356 44.5616 59.364 45.7112 59.5657 46.8286C60.1116 48.7421 59.7812 50.9361 61.2375 52.5805C61.6133 53.0016 61.9723 53.4327 62.3728 53.8232C62.7413 54.0842 63.0905 54.3716 63.4177 54.6829C64.4905 56.0715 65.8047 56.9539 67.3435 56.8805C68.6693 59.737 69.7674 62.4736 71.1707 65.0235C72.4499 67.3158 74.2092 69.3046 76.3284 70.8537C77.5099 71.7337 78.7263 72.5432 79.9219 73.4012C81.6881 74.7727 83.7441 75.723 85.9331 76.1798C86.4919 76.2418 87.0221 76.4593 87.4635 76.8075C87.9049 77.1556 88.2399 77.6206 88.4303 78.1496C89.3661 80.2041 91.0626 81.5377 93.5453 81.3767C94.1669 81.4186 94.7809 81.5376 95.3731 81.7308C96.223 81.9031 97.0755 82.0874 97.9314 82.2583C98.4993 82.3791 99.0646 82.488 99.6346 82.5895C100.813 82.7966 102.012 82.867 103.174 83.1408C104.084 83.3565 104.865 83.588 105.589 82.6735C106.314 81.759 107.332 82.1524 108.197 82.5355C110.584 83.604 112.939 84.7238 115.378 85.8565C117.833 84.6664 120.587 84.2329 123.289 84.611C122.909 84.9764 122.5 85.3103 122.066 85.6096C121.36 86.0353 120.56 86.318 119.875 86.7831C119.354 87.1366 118.27 87.1858 118.515 88.1015C118.76 89.0171 119.71 88.4687 120.335 88.4763C121.983 88.5552 123.634 88.5641 125.271 88.6517C125.753 88.775 126.217 88.9609 126.651 89.2048C126.166 90.2933 125.347 90.0891 124.63 90.0893C122.924 90.0922 121.224 90.0879 119.547 90.0782C119.295 91.1093 119.824 91.3394 120.421 91.391C122.54 91.5551 124.175 92.9212 126.023 93.7429C126.28 93.8503 126.596 94.4293 126.506 94.5938C126.34 94.9262 125.857 95.3658 125.59 95.3238C124.665 95.1283 123.76 94.8464 122.887 94.4818C121.247 93.8347 119.631 93.1256 117.982 92.4111C117.402 93.4387 118.104 93.7439 118.566 94.0959C119.825 94.9834 120.818 96.1974 121.439 97.6073C119.019 98.0819 118.213 95.6149 116.361 94.9766Z" fill="white"/>
<path d="M29.4472 110.304C28.2623 112.019 26.7978 112.775 24.6607 112.388L24.1755 110.178C23.1265 110.131 22.1429 110.095 21.1506 110.048C21.525 107.624 21.4373 107.511 19.3312 107.495C19.3373 106.663 19.5745 105.736 19.2841 105.044C18.9938 104.353 18.1095 103.823 17.3949 103.149C17.9899 101.3 19.5761 100.152 21.4279 99.4684C25.5509 97.8897 27.7625 95.0309 28.7047 90.663C29.8872 85.2404 32.8616 80.3741 37.1482 76.8487C41.3347 73.3801 44.463 69.0485 47.5767 64.7075C47.8553 64.2805 48.0605 63.8099 48.1839 63.3152C49.629 58.4277 51.1335 53.5523 52.45 48.6238C52.7531 47.4828 52.9183 46.3095 52.9418 45.1291C53.3227 45.7991 53.6526 46.4969 53.9288 47.2164C53.8147 48.1012 53.6253 48.9747 53.3626 49.8273C52.4365 52.8067 51.7084 55.856 50.8404 58.8416C50.2967 60.7236 50.0445 62.8438 49.004 64.413C46.628 67.9574 44.0424 71.3565 41.2609 74.5924C39.4614 76.7186 37.0483 78.3437 35.2435 80.4459C32.3578 83.7193 30.3862 87.6958 29.5277 91.9743C28.7649 95.8118 26.5102 98.3023 22.9729 99.8531C21.9732 100.27 21.0085 100.766 20.088 101.336C18.8862 102.085 18.9432 102.746 20.1784 103.784C22.301 102.815 22.301 102.815 23.1351 103.173C22.5604 103.595 22.0566 103.995 21.5656 104.311C20.8361 104.773 20.3591 105.325 20.8217 106.199C21.2843 107.073 21.9513 106.813 22.6621 106.582C23.373 106.35 23.9566 105.825 25.0679 106.242C24.2113 106.871 23.538 107.302 22.9544 107.827C22.7231 108.035 22.5068 108.655 22.5819 108.74C22.8713 108.997 23.3301 109.28 23.6711 109.199C24.2001 108.994 24.7011 108.723 25.1625 108.393C25.7248 108.087 26.3048 107.633 27.13 108.094C26.5875 108.684 26.095 109.319 25.6579 109.991C25.5881 110.183 25.5673 110.389 25.5974 110.592C25.6275 110.794 25.7075 110.985 25.8303 111.149C26.0031 111.247 26.1981 111.299 26.3967 111.3C26.5953 111.302 26.791 111.253 26.9654 111.158C27.7032 110.561 28.3187 109.809 29.0133 109.16C29.7997 108.334 30.6647 107.588 31.596 106.931C33.4265 105.754 35.0409 104.271 36.3685 102.547C37.2524 101.462 38.2682 100.493 39.3924 99.6606C41.3983 98.1879 43.466 96.796 45.535 95.4101L46.636 94.69C46.9063 94.5073 47.2013 94.3641 47.5121 94.2647C47.7115 94.716 47.9576 95.1451 48.2464 95.5451L48.1541 95.6409C48.6438 96.7134 49.3392 97.6794 50.2009 98.484C51.0429 99.2539 52.0589 99.8084 53.1619 100.1C53.6081 100.401 54.0855 100.653 54.5859 100.851C54.4836 101.189 54.3814 101.526 54.2645 101.854C53.8955 101.664 53.5492 101.463 53.1823 101.254L53.0922 101.274C51.7686 100.85 50.5496 100.151 49.5157 99.2228C48.4818 98.2942 47.6563 97.157 47.0937 95.8863C45.3887 96.5502 44.0521 97.6305 42.6399 98.5385C40.1383 100.19 37.908 102.219 36.0285 104.554C34.9053 105.889 33.3129 106.837 31.9555 107.966C31.0992 108.739 30.0778 109.392 29.4472 110.304Z" fill="#36464E"/>
<path d="M26.9833 111.154C26.809 111.249 26.6133 111.298 26.4146 111.296C26.216 111.295 26.0211 111.243 25.8483 111.145C25.7255 110.981 25.6454 110.79 25.6153 110.588C25.5852 110.385 25.606 110.179 25.6758 109.987C26.113 109.314 26.6054 108.68 27.1479 108.09C26.3254 107.641 25.7608 108.079 25.1804 108.389C24.7191 108.719 24.218 108.99 23.6891 109.195C23.3648 109.266 22.8893 108.993 22.5999 108.736C22.5127 108.654 22.7411 108.031 22.9724 107.823C23.5559 107.298 24.2293 106.867 25.0859 106.238C23.9811 105.851 23.3456 106.369 22.6801 106.578C22.0147 106.787 21.2771 107.011 20.8397 106.195C20.4023 105.378 20.854 104.769 21.5835 104.307C22.0985 103.986 22.5784 103.591 23.1531 103.169C22.319 102.81 22.319 102.81 20.1963 103.78C18.9612 102.742 18.9042 102.081 20.1059 101.332C21.0265 100.762 21.9912 100.266 22.9909 99.8491C26.5215 98.3249 28.7828 95.8077 29.5457 91.9702C30.4042 87.6917 32.3757 83.7152 35.2615 80.4418C37.0903 78.3343 39.4794 76.7145 41.2789 74.5883C44.0604 71.3525 46.646 67.9533 49.022 64.409C50.0625 62.8397 50.3147 60.7195 50.8584 58.8375C51.7224 55.8339 52.4585 52.8207 53.3805 49.8232C53.6433 48.9706 53.8327 48.0972 53.9468 47.2123C55.2072 50.3728 56.7829 56.6619 52.9993 62.9693C47.6582 71.9037 46.6311 73.4763 44.31 75.3771C41.9889 77.2779 44.3767 92.2271 45.505 95.4166C43.4359 96.8025 41.3722 98.2124 39.3623 99.6671C38.2491 100.499 37.2434 101.467 36.3684 102.547C35.0485 104.269 33.4428 105.752 31.6213 106.931C30.69 107.589 29.825 108.335 29.0386 109.16C28.338 109.811 27.7225 110.563 26.9833 111.154Z" fill="#BBBABA"/>
<path d="M106.678 80.7475C105.829 80.8961 105.115 81.7706 104.53 82.1759C102.458 82.0012 100.708 81.97 98.975 81.7335C98.6763 81.692 98.387 81.6359 98.089 81.5691C97.2192 81.3635 96.3584 81.0551 95.4906 80.8302C94.8465 80.5993 94.1784 80.4419 93.499 80.3609C90.8688 80.3087 89.7765 79.491 88.92 76.7077C94.7706 75.801 99.2146 73.0754 101.46 67.3009C102.587 64.378 103.129 62.0872 102.772 60.491L111.004 54.9761C111.352 55.3621 111.67 55.7743 111.955 56.209C113.201 58.1009 114.807 59.8824 114.996 62.2898C115.012 63.3625 114.93 64.4344 114.748 65.4917C114.715 65.8011 114.516 66.0967 114.496 66.4094C114.381 67.8637 114.629 69.4523 114.119 70.7415C113.609 72.0307 112.518 73.139 112.271 74.6536C112.1 75.1892 111.815 75.6814 111.436 76.096C110.83 76.9214 110.114 77.6452 109.54 78.5014C108.827 79.5833 108.131 80.4852 106.678 80.7475Z" fill="white"/>
<path d="M98.0887 81.5692L97.9522 82.2665C97.0963 82.0955 96.2438 81.9113 95.3939 81.739C94.8017 81.5458 94.1877 81.4268 93.5661 81.3849C91.0474 81.5538 89.3688 80.2163 88.4511 78.1578C88.2607 77.6288 87.9257 77.1638 87.4843 76.8156C87.0429 76.4674 86.5127 76.25 85.9539 76.1879C83.7599 75.7232 81.7014 74.7625 79.9361 73.3794C78.7405 72.5213 77.5241 71.7119 76.3426 70.8318C74.2234 69.2827 72.4641 67.2939 71.1849 65.0017C69.7816 62.4517 68.6875 59.7332 67.3577 56.8587C65.8369 56.9281 64.5047 56.0497 63.4318 54.6611C63.1091 54.3535 62.7648 54.0693 62.4016 53.8108C62.0011 53.4202 61.6421 52.9892 61.2664 52.568C59.8101 50.9236 60.1405 48.7296 59.5945 46.8162C59.3929 45.6988 59.4645 44.5492 59.8032 43.4654C60.1443 42.3705 60.5616 41.3008 61.0519 40.2641C61.8825 38.1114 62.3499 36.0824 60.9411 33.8233C59.6671 31.8052 58.933 29.4358 58.0036 27.2098C57.3129 25.4841 57.1173 23.5998 57.4388 21.769C57.5142 20.3964 57.4982 19.0203 57.3907 17.6499L58.1922 17.4299C58.5949 18.6552 58.6934 19.9602 58.4792 21.2321C57.7035 24.8962 59.2808 27.9808 60.6093 31.1074C61.2977 32.5283 62.0616 33.9114 62.8975 35.2509C63.2381 35.0817 63.481 35.0409 63.5533 34.9118C64.1212 32.9678 66.0723 32.0485 66.9412 30.2713C67.2323 29.6472 68.1632 29.1847 68.8994 28.9539C72.7557 27.7327 76.8786 27.6263 80.7928 28.647L80.691 29.0722C80.8937 29.3362 81.075 29.6174 81.2378 29.8713C81.1418 29.8357 81.0472 29.8061 80.9466 29.7778C77.173 28.7374 73.1801 28.8012 69.4417 29.9616C68.6381 30.201 67.8931 30.4779 67.7131 31.4931C67.5821 31.9087 67.3114 32.2662 66.9468 32.5049C65.1897 33.7342 64.5307 35.8366 63.1037 37.3082C62.9767 37.457 62.9025 37.6438 62.8929 37.8392C62.7473 39.7282 61.7688 41.3216 61.1002 43.0359C60.4315 44.7502 60.219 46.4776 61.0514 48.2338C61.2175 48.7172 61.2972 49.226 61.287 49.737C61.3344 50.3988 61.524 51.0426 61.8429 51.6245C62.1619 52.2063 62.6026 52.7125 63.1351 53.1084C63.7353 53.6061 64.2696 54.1183 64.8518 54.62C65.2155 54.9723 65.6229 55.2764 66.064 55.5248C67.2051 56.0486 67.6972 55.7958 67.9159 54.5265C67.9552 54.0827 68.0359 53.6435 68.1567 53.2147C69.4599 50.0895 70.8018 46.9684 72.8729 44.2727C74.3457 42.4182 76.2011 40.903 78.3124 39.8303C78.876 39.5303 79.5529 39.0291 80.3253 39.7661C80.1307 39.9977 80.0076 40.1254 80.0076 40.1254C79.8646 40.2257 79.7134 40.3137 79.5554 40.3883C77.0733 41.6131 74.7419 43.0943 73.3544 45.5771C71.8216 48.2855 70.4285 51.0707 69.1806 53.9216C68.8817 54.6693 68.7378 55.47 68.7576 56.2751C68.7774 57.0802 68.9606 57.8728 69.296 58.605C70.5582 61.8101 72.2902 64.8096 74.4351 67.505C76.2296 69.6291 78.6892 70.9399 80.8411 72.6268C82.5209 73.9133 84.4853 74.7775 86.5688 75.1465C91.311 76.0443 95.1231 74.2254 98.0674 70.6896C100.26 68.0616 101.378 64.8385 101.856 61.4225C101.937 60.8444 102.135 60.2847 102.339 59.4656L102.347 59.5016C102.282 59.9408 102.247 60.3839 102.242 60.8279L102.761 60.5251C103.111 62.1226 102.575 64.4121 101.448 67.335C99.2029 73.1095 94.7588 75.8351 88.9083 76.7418C89.7588 79.5263 90.8537 80.3562 93.4873 80.3949C94.1667 80.476 94.8348 80.6334 95.4789 80.8642C96.358 81.0552 97.1889 81.3702 98.0887 81.5692Z" fill="#36464E"/>
<path d="M98.0682 70.6956C95.124 74.2314 91.3118 76.0503 86.5697 75.1524C84.4861 74.7834 82.5218 73.9193 80.8419 72.6327C78.6901 70.9459 76.2345 69.653 74.436 67.5109C72.2911 64.8155 70.5591 61.816 69.2968 58.6109C68.9615 57.8788 68.7783 57.0861 68.7585 56.2811C68.7386 55.476 68.8826 54.6753 69.1815 53.9275C70.4288 51.0746 71.8214 48.2874 73.3539 45.577C74.7428 43.1003 77.0729 41.613 79.5816 40.395C79.7396 40.3204 79.8908 40.2324 80.0338 40.1321C80.1614 40.0537 80.2877 39.9693 80.4487 39.871L80.3515 39.7728C81.3457 38.5662 84.1399 34.4905 81.2313 29.8725C83.453 30.5872 84.9858 32.3218 86.2134 34.243C87.0627 35.5891 87.7675 37.0212 88.3158 38.5154C88.4778 38.9979 88.7764 39.4229 89.1754 39.7388C89.5745 40.0547 90.0567 40.2477 90.5635 40.2945C95.1248 40.9992 97.9803 43.9417 100.197 47.6728C100.861 48.9696 101.993 49.9655 103.364 50.4587C105.884 51.3535 108.366 52.4263 110.3 54.2367C104.126 51.9219 102.715 56.9656 102.359 59.499L102.351 59.4629C102.147 60.282 101.942 60.8117 101.868 61.4198C101.379 64.8445 100.261 68.0675 98.0682 70.6956ZM84.8776 69.7386C85.559 70.3193 84.7905 71.7218 86.3515 71.5491C86.198 70.0468 87.2386 68.679 87.0746 67.0719C86.0403 67.0346 85.1317 67.9139 84.5746 66.9534C85.4851 65.3847 86.3136 63.7699 87.0567 62.1153C88.2207 59.1591 87.6634 58.0539 84.8339 56.6355C84.4664 56.3836 84.0212 56.2709 83.5781 56.3174C83.135 56.3639 82.7229 56.5667 82.4157 56.8893C80.7417 58.4403 79.0491 59.9639 77.1667 61.655L76.774 60.0667C75.2475 60.5403 73.7978 60.9908 72.2893 61.4604C73.136 62.6217 74.4095 61.7126 75.2981 62.1471C75.4268 63.4219 75.4651 64.6285 75.6927 65.8375C76.3757 69.4647 78.2548 70.884 82.2661 70.4315C82.7627 70.324 83.251 70.1811 83.7271 70.0038C84.1423 69.8875 84.5773 69.8046 84.8776 69.7386ZM92.215 63.0162C93.615 63.2566 95.0141 63.5223 96.8866 63.8792C96.4147 63.2778 96.2504 62.8165 95.9666 62.7278C93.4362 61.955 90.8838 61.4829 88.2911 62.6627C89.5356 63.4282 90.8904 62.8034 92.191 63.0215L92.215 63.0162ZM79.6064 55.3909C79.7277 55.9434 79.9303 56.5221 80.963 56.4088C81.0019 53.7185 79.7624 51.5418 78.2639 49.4471C77.8618 48.9059 77.5112 48.2841 76.6219 48.6493C76.68 48.9135 76.6133 49.1548 76.7057 49.2604C78.171 51.0286 79.1684 53.1366 79.6064 55.3909Z" fill="#BBBABA"/>
<path d="M86.3523 71.5492C84.7913 71.7219 85.5598 70.3194 84.8784 69.7387C84.5601 69.8086 84.1457 69.8996 83.7253 69.9919C83.2491 70.1692 82.7609 70.3121 82.2643 70.4196C78.2529 70.8721 76.3845 69.4441 75.6909 65.8256C75.4698 64.6466 75.4303 63.434 75.2962 62.1352C74.4077 61.7007 73.1342 62.6098 72.3076 61.4252C73.816 60.9556 75.2537 60.5078 76.7922 60.0315L77.215 61.6132C79.0713 59.9467 80.7599 58.4051 82.4639 56.8476C82.7735 56.5433 83.179 56.3559 83.6114 56.3172C84.0437 56.2786 84.4761 56.3911 84.8347 56.6356C87.6642 58.0541 88.1975 59.1645 87.0335 62.1207C86.2999 63.7724 85.4815 65.385 84.5814 66.9522C85.1385 67.9127 86.0471 67.0334 87.0814 67.0707C87.2394 68.6791 86.1988 70.0469 86.3523 71.5492ZM76.7472 65.3608C77.6009 69.4793 81.0684 70.7073 84.7183 68.2064C83.541 68.2634 82.6428 68.4732 81.8196 68.3077C80.8475 68.0928 79.9163 67.7233 79.0613 67.2135C78.2424 66.6577 77.4687 66.0382 76.7472 65.3608ZM78.6557 65.4518C79.6339 66.5008 80.9411 67.1844 82.3608 67.3894C83.904 65.7171 85.1165 63.7678 85.9343 61.6443C86.1759 60.9242 86.2784 60.1647 86.2361 59.4062C86.1931 58.2637 83.9961 57.0022 83.21 57.7225C81.4619 59.2795 79.8256 60.9577 78.3132 62.7445C77.4998 63.6848 77.753 64.5231 78.6557 65.4518Z" fill="#36464E"/>
<path d="M84.7183 68.2062C81.0465 70.693 77.6009 69.479 76.7472 65.3606C77.4628 66.0386 78.2305 66.6594 79.0433 67.2172C79.8983 67.7271 80.8296 68.0965 81.8016 68.3114C82.6428 68.473 83.541 68.2632 84.7183 68.2062Z" fill="#D32D59"/>
<path d="M82.3608 67.3892C80.9411 67.1842 79.6339 66.5006 78.6556 65.4516C77.759 64.5216 77.4997 63.6846 78.3092 62.7263C79.8273 60.9442 81.4689 59.2712 83.222 57.7196C84.0081 56.9994 86.205 58.2609 86.2481 59.4034C86.2868 60.1635 86.1803 60.924 85.9342 61.6441C85.1165 63.7676 83.9039 65.7169 82.3608 67.3892Z" fill="#36464E"/>
<path d="M96.8591 63.8664C94.9906 63.5275 93.5794 63.2644 92.1875 63.0034C90.7956 62.7424 89.5255 63.38 88.2543 62.6078C90.8431 61.41 93.3995 61.9001 95.9298 62.6729C96.2229 62.8037 96.3631 63.2702 96.8591 63.8664Z" fill="#36464E"/>
<path d="M102.761 60.5251L102.262 60.8612C102.267 60.4173 102.302 59.9742 102.367 59.535C102.555 59.8396 102.688 60.1747 102.761 60.5251Z" fill="white"/>
<path d="M111.01 54.9748L102.778 60.4898C102.706 60.1394 102.572 59.8043 102.385 59.4997C102.723 56.9703 104.17 51.9187 110.326 54.2374C110.569 54.4694 110.797 54.7156 111.01 54.9748Z" fill="white"/>
<path d="M111.407 54.7176L111.01 54.9747C110.789 54.7166 110.552 54.4721 110.301 54.2426C110.654 54.3751 111.022 54.5334 111.407 54.7176Z" fill="white"/>
<path d="M80.9637 56.4088C79.931 56.5221 79.7043 55.9487 79.6071 55.3909C79.1673 53.1434 78.1714 51.0419 76.7103 49.2784C76.6153 49.1608 76.6339 48.9301 76.6265 48.6673C77.5158 48.3021 77.865 48.9179 78.2685 49.4651C79.763 51.5418 80.9906 53.7211 80.9637 56.4088Z" fill="#36464E"/>
<path d="M67.9384 54.5152C67.7131 55.7544 67.2275 56.0373 66.0864 55.5135C65.6453 55.265 65.2379 54.9609 64.8743 54.6087C64.292 54.107 63.7578 53.5948 63.1575 53.097C62.625 52.7011 62.1843 52.1949 61.8654 51.6131C61.5464 51.0313 61.3568 50.3875 61.3094 49.7256C61.303 49.2153 61.207 48.7101 61.0258 48.233C60.1934 46.4769 60.4145 44.7601 61.0745 43.0351C61.7346 41.3102 62.7217 39.7274 62.8686 37.8444C62.8782 37.649 62.9524 37.4622 63.0794 37.3134C64.5304 35.8366 65.1654 33.7394 66.9465 32.5048C67.3192 32.2665 67.5963 31.9049 67.7295 31.4831C67.9095 30.4678 68.6545 30.191 69.4581 29.9516C73.1965 28.7912 77.1894 28.7274 80.963 29.7678C81.0636 29.7961 81.1583 29.8256 81.2542 29.8612C84.1568 34.4805 81.3626 38.5562 80.3744 39.7615C79.584 39.0285 78.9071 39.5296 78.3615 39.8257C76.2501 40.8984 74.3948 42.4136 72.9219 44.2681C70.8548 46.9818 69.5024 50.0548 68.2058 53.2101C68.0763 53.6359 67.9868 54.0728 67.9384 54.5152Z" fill="white"/>
<path d="M54.0875 42.0889C54.1978 43.7989 54.1532 45.5153 53.9543 47.2172C53.6781 46.4977 53.3481 45.7999 52.9672 45.1299C52.9825 44.6544 52.9724 44.1782 52.9502 43.7046C52.8336 40.7793 52.5528 37.8629 52.109 34.9691C51.624 31.928 49.9427 29.8609 46.5352 29.652C46.0245 29.6076 45.5342 29.4309 45.1125 29.1393C44.6909 28.8477 44.3525 28.4513 44.1306 27.9892C44.5155 26.6457 45.836 26.6391 46.6956 26.1671L44.8251 23.9841L45.4421 23.4395C45.7353 23.7476 46.0507 24.034 46.3856 24.2962C47.3893 25.0831 48.4084 25.854 49.3873 26.6715C49.5957 26.9654 49.7509 27.2936 49.8457 27.6411C46.7101 27.0075 46.7101 27.0075 45.8078 28.0302C45.8883 28.1241 45.9825 28.2053 46.0873 28.271C46.3236 28.366 46.569 28.4366 46.8197 28.4816C50.4949 29.0787 52.5946 31.3309 53.2604 34.88C53.7078 37.2601 53.9843 39.6693 54.0875 42.0889Z" fill="#36464E"/>
<path d="M80.4479 39.8651C80.2869 39.9634 80.1607 40.0477 80.0331 40.1261C80.0331 40.1261 80.1561 39.9984 80.3508 39.7668L80.4479 39.8651Z" fill="black"/>
<path d="M52.907 23.4056C52.7761 23.4973 52.6331 23.5916 52.4948 23.6786C52.0191 23.3196 51.5707 22.9257 51.1533 22.5001C50.235 21.4426 49.3689 20.336 48.4827 19.2526C47.7593 18.3664 47.0172 17.5095 45.8237 17.4064C44.7964 18.2614 45.0352 19.0337 45.7483 19.7584C46.7308 20.764 47.7627 21.7084 48.7546 22.6993C49.0606 22.9345 49.3049 23.2405 49.4663 23.5911C49.6277 23.9418 49.7015 24.3264 49.6811 24.7118C49.2533 24.5477 48.848 24.3299 48.475 24.0638C47.9834 23.5737 47.6028 22.9584 47.1185 22.473C46.3307 21.752 45.622 20.8752 44.3207 21.1987C44.4569 22.0323 44.8461 22.804 45.4355 23.4091L44.8098 23.943L42.2606 20.9333C43.1087 20.4953 43.7024 20.1887 44.435 19.8264L43.7744 16.8176C46.219 15.6514 47.7756 16.9779 49.3913 18.6314C48.9437 16.7829 49.0016 14.848 49.5591 13.0296C51.6756 14.7136 53.3705 16.8676 54.5095 19.3208C55.3365 17.7543 56.2143 16.6488 57.7147 15.9417C57.8869 16.439 58.053 16.9377 58.1911 17.4235L57.3909 17.6496C55.3057 18.8187 55.7222 21.0312 54.3254 22.4395C53.8879 19.5596 52.4813 16.915 50.3378 14.9424C50.1157 15.4915 50.0222 16.0842 50.0646 16.6751C50.107 17.2659 50.2842 17.8392 50.5825 18.351C51.0853 19.38 51.7091 20.3573 52.1999 21.389C52.4797 22.0449 52.7159 22.7186 52.907 23.4056Z" fill="#36464E"/>
<path d="M92.7791 68.4663C94.6931 69.3596 96.5917 69.3403 97.0197 68.4233C97.4476 67.5063 96.243 66.0388 94.3289 65.1455C92.4149 64.2522 90.5163 64.2715 90.0884 65.1885C89.6604 66.1055 90.8651 67.573 92.7791 68.4663Z" fill="#EF8AA1"/>
<path d="M91.6675 68.5187C91.6226 68.4962 91.5833 68.464 91.5524 68.4244C91.489 68.3464 91.459 68.2465 91.4689 68.1465C91.4788 68.0465 91.5277 67.9544 91.6051 67.8903L95.0115 65.1407C95.0497 65.1095 95.0937 65.0862 95.1409 65.0721C95.1882 65.058 95.2377 65.0533 95.2867 65.0583C95.3358 65.0633 95.3833 65.078 95.4267 65.1014C95.4701 65.1248 95.5085 65.1565 95.5396 65.1947C95.5707 65.2329 95.594 65.2769 95.6081 65.3241C95.6223 65.3714 95.6269 65.4209 95.6219 65.4699C95.6169 65.519 95.6023 65.5665 95.5789 65.6099C95.5555 65.6533 95.5238 65.6917 95.4855 65.7228L92.0805 68.4784C92.0229 68.5243 91.9532 68.5525 91.88 68.5597C91.8067 68.5668 91.7329 68.5526 91.6675 68.5187Z" fill="#EA5971"/>
<path d="M89.8093 67.2837C89.7533 67.2608 89.7041 67.2239 89.6662 67.1766C89.6341 67.1392 89.6099 67.0957 89.5949 67.0487C89.5799 67.0017 89.5745 66.9522 89.579 66.9031C89.5835 66.854 89.5977 66.8063 89.621 66.7628C89.6442 66.7193 89.6759 66.6809 89.7143 66.6499L92.808 64.0822C92.8451 64.0463 92.8892 64.0184 92.9376 64.0003C92.9859 63.9822 93.0375 63.9743 93.0891 63.977C93.1406 63.9798 93.191 63.9931 93.2372 64.0163C93.2833 64.0394 93.3242 64.0719 93.3573 64.1115C93.3903 64.1512 93.4148 64.1973 93.4292 64.2468C93.4436 64.2964 93.4477 64.3484 93.441 64.3996C93.4344 64.4508 93.4173 64.5001 93.3907 64.5444C93.3642 64.5887 93.3288 64.627 93.2868 64.657L90.193 67.2247C90.1405 67.2686 90.077 67.2973 90.0094 67.3077C89.9418 67.3181 89.8726 67.3098 89.8093 67.2837Z" fill="#EA5971"/>
<path d="M94.1397 69.5437C94.0896 69.5207 94.0468 69.4844 94.0159 69.4387C93.9852 69.4001 93.9626 69.3557 93.9493 69.3082C93.9361 69.2607 93.9325 69.211 93.9388 69.1621C93.9451 69.1132 93.9611 69.066 93.9859 69.0234C94.0107 68.9808 94.0438 68.9436 94.0833 68.914L97.0911 66.5855C97.1714 66.5249 97.2723 66.4985 97.372 66.512C97.4716 66.5255 97.5619 66.5778 97.6231 66.6576C97.6835 66.7362 97.7103 66.8355 97.6977 66.9338C97.6851 67.0321 97.634 67.1215 97.5558 67.1823L94.5419 69.5121C94.4849 69.5551 94.4167 69.581 94.3454 69.5866C94.2742 69.5922 94.2028 69.5773 94.1397 69.5437Z" fill="#EA5971"/>
<path d="M73.7648 53.7629C75.0162 55.4645 76.6915 56.3579 77.5067 55.7584C78.322 55.1588 77.9684 53.2934 76.717 51.5918C75.4656 49.8902 73.7903 48.9968 72.975 49.5963C72.1598 50.1959 72.5134 52.0613 73.7648 53.7629Z" fill="#EF8AA1"/>
<path d="M72.7629 53.2612C72.7401 53.2145 72.7288 53.163 72.7299 53.111C72.7209 53.0626 72.7215 53.0128 72.7318 52.9646C72.742 52.9164 72.7616 52.8706 72.7895 52.83C72.8175 52.7894 72.8531 52.7547 72.8944 52.7278C72.9358 52.701 72.982 52.6826 73.0305 52.6736L77.3408 51.8911C77.3889 51.8805 77.4387 51.8795 77.4871 51.8882C77.5356 51.8968 77.5819 51.915 77.6234 51.9415C77.6649 51.9681 77.7008 52.0025 77.7289 52.0429C77.7571 52.0833 77.777 52.1289 77.7876 52.177C77.7982 52.2251 77.7991 52.2748 77.7905 52.3233C77.7818 52.3718 77.7637 52.4181 77.7372 52.4596C77.7106 52.5011 77.6762 52.5369 77.6357 52.5651C77.5953 52.5933 77.5498 52.6132 77.5017 52.6238L73.1987 53.411C73.1196 53.437 73.0342 53.4364 72.9556 53.4094C72.8769 53.3823 72.8092 53.3303 72.7629 53.2612Z" fill="#EA5971"/>
<path d="M71.7056 51.3149C71.6838 51.2701 71.6729 51.2207 71.674 51.1708C71.6642 51.1225 71.6641 51.0728 71.6735 51.0244C71.6829 50.9761 71.7018 50.93 71.7291 50.889C71.7563 50.8479 71.7913 50.8126 71.8322 50.7851C71.8731 50.7576 71.919 50.7385 71.9673 50.7287L75.9174 49.9686C75.9654 49.9588 76.0149 49.9587 76.0629 49.9683C76.111 49.9779 76.1566 49.997 76.1972 50.0244C76.2378 50.0518 76.2725 50.0871 76.2993 50.128C76.3262 50.169 76.3446 50.2149 76.3535 50.2631C76.3633 50.3114 76.3634 50.3611 76.354 50.4095C76.3445 50.4578 76.3257 50.5039 76.2984 50.5449C76.2712 50.586 76.2361 50.6212 76.1953 50.6488C76.1544 50.6763 76.1085 50.6954 76.0602 50.7052L72.1114 51.4714C72.0359 51.4897 71.9565 51.4846 71.884 51.4567C71.8115 51.4287 71.7493 51.3792 71.7056 51.3149Z" fill="#EA5971"/>
<path d="M74.4454 55.3655C74.4254 55.3179 74.4142 55.267 74.4124 55.2154C74.3972 55.1163 74.4216 55.0152 74.4803 54.9339C74.5391 54.8527 74.6275 54.7979 74.7263 54.7813L78.4853 54.1828C78.5837 54.167 78.6843 54.191 78.765 54.2494C78.8457 54.3078 78.8999 54.3959 78.9157 54.4943C78.9314 54.5927 78.9075 54.6933 78.849 54.774C78.7906 54.8547 78.7025 54.9089 78.6041 54.9247L74.8451 55.5233C74.7704 55.5411 74.6919 55.5355 74.6204 55.5073C74.5489 55.4791 74.4878 55.4296 74.4454 55.3655Z" fill="#EA5971"/>
</g>
<defs>
<filter id="filter0_d" x="13.395" y="13.0295" width="119.391" height="127.222" filterUnits="userSpaceOnUse" color-interpolation-filters="sRGB">
<feFlood flood-opacity="0" result="BackgroundImageFix"/>
<feColorMatrix in="SourceAlpha" type="matrix" values="0 0 0 0 0 0 0 0 0 0 0 0 0 0 0 0 0 0 127 0"/>
<feOffset dy="4"/>
<feGaussianBlur stdDeviation="2"/>
<feColorMatrix type="matrix" values="0 0 0 0 0 0 0 0 0 0 0 0 0 0 0 0 0 0 0.25 0"/>
<feBlend mode="normal" in2="BackgroundImageFix" result="effect1_dropShadow"/>
<feBlend mode="normal" in="SourceGraphic" in2="effect1_dropShadow" result="shape"/>
</filter>
</defs>
</svg>
